<svg width="200" height="80" viewBox="0 0 200 80" fill="none" xmlns="http://www.w3.org/2000/svg">
<path d="M20.668 46.9113C26.9398 38.0401 33.5828 29.4253 39.6577 20.4315C39.8771 28.3164 39.7027 36.2124 39.7533 44.0973C41.2383 44.1029 42.7233 44.1029 44.2083 44.114C42.0596 38.8927 42.5827 32.6071 45.8676 27.9542C48.3314 24.2374 52.3926 21.663 56.7688 20.7937C61.9774 19.6625 67.653 21.3008 71.5904 24.8225C75.5616 28.3053 77.7835 33.6714 77.311 38.915C76.7429 47.3683 68.9017 54.93 60.2 54.3783C54.4119 54.7516 48.8714 51.503 45.5358 46.9559C43.6064 46.8779 41.6771 46.9113 39.7477 46.9225C39.7646 49.4077 39.7533 51.893 39.759 54.3783C38.8365 54.3616 37.914 54.3449 36.9915 54.3281C37.014 51.854 36.9971 49.3799 37.0084 46.9002C31.5635 46.9169 26.1185 46.9058 20.668 46.9113ZM48.5845 29.0687C45.322 33.2535 44.962 39.1936 47.2233 43.919C50.272 43.2336 52.2182 40.6369 54.0463 38.3411C56.1163 35.683 58.9231 33.1476 62.5006 33.0529C66.2411 32.6294 69.2842 35.4434 70.9436 38.4692C69.768 38.4414 68.5417 38.2798 67.4167 38.7144C66.483 39.1825 66.1061 40.1967 65.5718 41.0214C65.6055 42.9995 67.1355 44.8607 69.2167 44.8551C72.0629 45.2508 74.0148 42.4702 74.2679 39.9626C75.5223 33.6659 71.7311 26.8899 65.763 24.4659C59.8681 21.8525 52.3307 23.8362 48.5845 29.0687ZM26.5123 43.4788C26.321 43.6181 25.9385 43.9023 25.7473 44.0416C29.4935 44.1697 33.2453 44.0639 36.9915 44.1084C36.9634 39.11 37.0871 34.1061 36.9184 29.1132C33.7122 34.0782 29.8704 38.6141 26.5123 43.4788Z" fill="#525253"/>
<path d="M83.2719 31.6097C88.3849 26.3772 97.6829 26.667 102.965 31.5149C102.374 32.2059 101.778 32.8913 101.199 33.5878C98.1948 30.7794 93.7399 29.9547 89.808 30.9688C86.2925 32.0053 83.525 35.1537 83.0019 38.7534C82.3775 42.3866 83.1031 46.4823 85.865 49.1236C89.5268 52.6063 95.6073 52.6732 99.7192 49.9538C100.422 49.5025 100.951 48.7446 101.789 48.5385C102.34 49.0623 102.88 49.5916 103.42 50.1322C100.681 53.2973 96.3892 54.7349 92.2549 54.3783C86.1518 54.6792 80.8307 49.7588 79.7675 43.9691C79.1038 39.6227 80.0769 34.8138 83.2719 31.6097Z" fill="#525253"/>
<path d="M107.58 31.1917C111.427 27.553 117.333 27.096 122.204 28.6953C127.289 30.9075 129.646 36.6303 129.236 41.8795C121.664 41.8906 114.099 41.8683 106.528 41.8906C106.888 46.4878 109.948 50.8844 114.667 51.8651C118.565 52.4391 122.902 51.4806 125.636 48.5217C126.249 49.1402 126.862 49.7699 127.464 50.3996C125.287 52.244 122.773 53.821 119.887 54.2334C116.349 54.5844 112.49 54.5844 109.425 52.545C106.432 50.7507 104.553 47.5967 103.603 44.3369C102.337 39.6617 104.171 34.5295 107.58 31.1917ZM110.488 32.3452C108.266 33.9556 107.118 36.5634 106.618 39.1713C113.21 39.1992 119.808 39.188 126.401 39.1713C126.029 37.3157 125.653 35.3431 124.415 33.833C121.276 29.6092 114.532 29.2247 110.488 32.3452Z" fill="#525253"/>
<path d="M132.273 31.4593C136.47 28.205 142.145 26.9679 147.292 28.3777C150.47 29.2192 152.9 32.2227 152.849 35.5104C152.911 41.8015 152.906 48.0927 152.911 54.3839C151.972 54.3616 151.038 54.3449 150.099 54.3115C150.099 52.7456 150.071 51.1854 150.071 49.6251C148.175 52.8404 144.356 54.5957 140.666 54.3783C138.213 54.5176 135.542 54.3003 133.623 52.6063C130.479 50.2381 129.782 45.262 132.302 42.2139C134.248 40.0741 137.263 39.3051 140.075 39.216C143.4 39.1658 146.73 39.216 150.054 39.1992C149.998 37.0873 150.335 34.7079 148.85 32.9582C147.298 30.7293 144.328 30.172 141.768 30.3392C139.068 30.4061 136.593 31.6376 134.343 33.0028C133.258 33.7328 132.903 31.9162 132.273 31.4593ZM138.326 42.0579C135.975 42.3309 133.59 44.1308 133.758 46.6773C133.73 49.3019 135.924 51.1464 138.281 51.8708C139.85 52.0212 141.425 52.0212 142.995 51.8541C145.548 51.1798 147.956 49.7031 149.227 47.3349C150.346 45.7078 150.037 43.6906 150.076 41.8405C146.161 41.9576 142.224 41.6065 138.326 42.0579Z" fill="#525253"/>
<path d="M158.907 33.4931C160.926 30.3893 164.386 28.127 168.149 27.9208C171.203 27.631 174.634 28.0267 176.923 30.2444C178.909 31.944 179.635 34.6633 179.652 37.1765C179.685 42.9048 179.652 48.6332 179.668 54.3616C178.695 54.3616 177.728 54.3616 176.76 54.3672C176.755 49.001 176.766 43.6348 176.755 38.2742C176.648 35.8502 175.945 33.1254 173.779 31.71C172.176 30.5621 170.089 30.6902 168.216 30.7125C163.137 30.8518 158.856 35.5716 158.879 40.5366C158.867 45.1393 158.873 49.7477 158.884 54.3504C157.928 54.356 156.972 54.3616 156.021 54.3672C156.021 45.5573 156.032 36.7418 156.016 27.9264C156.972 27.9319 157.928 27.9375 158.884 27.9431C158.867 29.7931 158.867 31.6431 158.907 33.4931Z" fill="#525253"/>
</svg>
