<svg width="200" height="80" viewBox="0 0 200 80" fill="none" xmlns="http://www.w3.org/2000/svg">
<path d="M42.5834 11.6867H46.7272C49.5152 12.1792 52.3251 12.6939 54.9382 13.8284C59.1147 15.5494 62.6681 18.5212 65.5599 21.9854C66.3253 21.0059 67.0851 20.0153 67.8396 19.0192C67.7029 21.3601 67.3093 23.6733 66.9321 25.9865C64.6415 25.4995 62.3674 24.924 60.0768 24.4149C61.3232 24.033 62.5642 23.6401 63.8161 23.2638C59.5138 17.2594 52.3305 13.524 45.0106 13.4133C38.139 13.1587 31.2018 16.0419 26.5442 21.183C25.6421 22.0574 24.9424 23.463 23.4609 23.2638C27.561 16.5621 35.0613 12.7935 42.5834 11.6867Z" fill="#525253"/>
<path d="M42.4695 15.2948C43.3769 15.4331 44.6124 14.9738 45.1153 16.0253C46.3836 15.2561 47.302 15.9478 47.056 17.3645C47.4059 17.763 47.7667 18.1559 48.133 18.5377L49.1716 18.3772C48.6742 18.8531 47.6792 19.805 47.1818 20.2809L46.6788 19.7995C46.2306 20.0485 45.7768 20.303 45.3286 20.5465C45.5472 20.5908 45.9846 20.6849 46.2087 20.7292C46.493 21.1497 47.056 21.9964 47.3403 22.417C44.0001 21.9632 42.9943 25.6931 41.2449 27.7573C41.2832 28.5985 41.3215 29.4341 41.3597 30.2697C40.9333 29.6112 40.7803 28.7092 40.0477 28.3107C38.692 28.2664 37.3198 28.5985 36.0844 29.1574C35.9532 30.5132 35.7782 32.6161 37.7244 32.3782C38.0961 32.0904 38.8505 31.5149 39.2277 31.2271C39.1512 31.9742 39.0637 32.7213 38.9653 33.4684C39.43 33.485 39.8947 33.496 40.3593 33.5071C40.3867 34.3594 40.4085 35.2116 40.4304 36.0638C39.9275 35.4938 39.43 34.9183 38.9435 34.3372C37.2652 33.6067 35.5432 32.9648 33.9086 32.1402C33.4221 31.3987 33.116 30.5243 32.3944 29.9709C32.1648 29.174 31.629 28.9859 30.8965 29.2294C30.1858 27.9897 29.2018 26.9549 28.3381 25.8315C27.9827 24.769 27.9062 23.64 27.7695 22.5388C30.4099 19.733 33.7337 17.6191 37.3636 16.3961C38.2984 17.287 39.5175 17.6523 40.7693 17.774C40.8295 18.0729 40.9497 18.6816 41.0044 18.986C41.2559 19.2516 41.5073 19.5172 41.7533 19.7829C41.9447 18.8587 41.8517 17.7962 42.5952 17.0767C42.4476 16.8166 42.1524 16.302 42.0103 16.0474C42.1251 15.8593 42.3547 15.483 42.4695 15.2948Z" fill="#525253"/>
<path d="M78.7861 26.7605C78.8899 26.6553 79.0922 26.445 79.1961 26.3399C82.6128 26.2624 86.0349 26.3344 89.4571 26.3122C89.468 27.253 89.4735 28.1938 89.4789 29.1401C86.7948 29.1179 84.1106 29.1124 81.432 29.3504C81.3882 30.6841 81.3445 32.0177 81.2625 33.3514C83.5366 32.7648 86.1716 32.6431 88.1505 34.1207C91.4797 36.5058 90.7199 42.5046 86.9588 44.0541C83.6624 45.7033 79.6498 44.5024 77.0859 42.0342C77.6927 41.3093 78.2777 40.5622 78.9173 39.8594C80.4534 40.7227 81.924 42.0619 83.8154 41.8295C86.1716 42.1173 88.1888 39.223 86.7183 37.1809C85.4445 35.4045 82.9681 35.5429 81.1204 36.1461C80.1036 36.6331 79.2125 35.9081 78.3761 35.4156C78.4526 32.5269 78.633 29.6437 78.7861 26.7605Z" fill="#525253"/>
<path d="M98.2961 28.9021C101.751 25.233 107.852 25.3769 111.706 28.3321C111.258 29.2673 110.591 30.0697 109.957 30.8777C107.928 29.5606 105.376 28.2823 102.97 29.3835C98.3617 30.9884 97.7385 38.2932 101.74 40.9219C103.932 42.3275 106.895 42.0563 109.087 40.7835C109.76 39.7376 109.262 38.3541 109.421 37.1809C107.907 37.1754 106.398 37.1754 104.889 37.1754C104.889 36.2235 104.889 35.2717 104.889 34.3198C107.404 34.3198 109.918 34.3198 112.433 34.3198C112.433 36.8931 112.428 39.4609 112.438 42.0342C109.793 44.1205 106.261 45.3712 102.921 44.5688C99.8323 44.0596 97.1645 41.6413 96.2297 38.6363C95.366 35.3104 95.8252 31.4311 98.2961 28.9021Z" fill="#525253"/>
<path d="M113.426 26.3288C114.65 26.3122 115.875 26.3122 117.099 26.3288C118.707 28.9187 120.286 31.5307 121.932 34.0929C122.041 34.0653 122.249 34.0044 122.358 33.9767C124.086 31.4643 125.529 28.7582 127.328 26.29C128.465 26.3066 129.602 26.3177 130.744 26.3454C128.547 29.9923 126.027 33.4289 123.867 37.0924C123.293 39.4886 123.785 42.0342 123.627 44.4858C122.599 44.4802 121.571 44.4747 120.543 44.4747C120.532 42.1338 120.527 39.7985 120.565 37.4631C118.209 33.7388 115.727 30.0919 113.426 26.3288Z" fill="#525253"/>
<path d="M132.828 26.3178C136.326 26.4285 139.885 25.9636 143.329 26.7605C144.887 27.1977 146.352 28.2602 146.965 29.8152C147.5 31.0383 147.293 32.4051 147.358 33.7001C146.691 35.6259 145.15 36.9762 143.302 37.6846C144.745 40.0199 146.412 42.2114 147.976 44.4637C146.74 44.4748 145.51 44.4803 144.275 44.4803C142.826 42.405 141.367 40.3298 139.945 38.2269C138.644 38.1937 137.343 38.1882 136.048 38.1882C136.048 40.2855 136.048 42.3829 136.048 44.4803C134.971 44.4803 133.894 44.4803 132.822 44.4748C132.833 38.4261 132.817 32.3719 132.828 26.3178ZM136.048 29.3449C136.048 31.2984 136.053 33.2518 136.031 35.2053C138.289 35.305 140.733 35.7919 142.854 34.7903C144.849 33.7333 144.619 30.4129 142.498 29.6382C140.405 29.0516 138.191 29.4445 136.048 29.3449Z" fill="#525253"/>
<path d="M150.831 26.3177C155.215 26.3067 159.599 26.3011 163.984 26.3233C164.006 27.3194 164.006 28.31 164 29.3005C160.633 29.3116 157.265 29.3061 153.898 29.3061C153.887 30.8556 153.887 32.4051 153.903 33.9546C156.91 33.9768 159.917 33.9602 162.923 33.9657C162.923 34.9175 162.923 35.8694 162.923 36.8212C159.917 36.8212 156.91 36.8212 153.903 36.8212C153.887 38.415 153.887 40.0088 153.892 41.6026C157.353 41.6081 160.813 41.5915 164.279 41.6136C164.273 42.5655 164.273 43.5173 164.279 44.4692C159.785 44.4968 155.297 44.4747 150.809 44.4802C150.825 38.4261 150.782 32.3719 150.831 26.3177Z" fill="#525253"/>
<path d="M167.072 29.7765C167.859 27.098 170.92 25.9635 173.457 26.196C175.644 26.1185 177.623 27.2087 179.399 28.3819C178.842 29.1733 178.295 29.9701 177.748 30.767C175.622 29.5108 172.462 27.8119 170.379 29.9701C169.013 31.4865 170.778 33.2518 172.342 33.4787C175.343 34.3033 179.574 35.0227 180.001 38.8799V39.7598C179.689 43.0414 176.458 44.7791 173.49 44.8067C170.997 44.5356 168.439 43.9213 166.503 42.2113C166.093 41.1322 167.334 40.4515 167.925 39.7432C170.39 41.5196 173.698 42.7592 176.535 41.0326C176.502 39.97 177.032 38.4759 175.819 37.9003C173.309 36.5722 170.155 36.7216 167.963 34.7404C166.673 33.4566 166.826 31.4367 167.072 29.7765Z" fill="#525253"/>
<path d="M16 27.3755C18.2031 26.6229 20.3242 25.6434 22.5218 24.8797C23.1286 27.1044 23.7955 29.3179 24.5444 31.5039C23.5495 30.6184 22.5436 29.7551 21.5323 28.8918C19.9196 33.2526 19.1543 38.0118 20.0016 42.6272C21.3574 51.1273 27.4254 58.6591 35.3794 61.7083C37.5606 62.6325 39.9441 62.8538 42.1472 63.7005C41.2835 64.1654 40.3815 64.2871 39.4412 64.0658C31.509 62.7487 24.375 57.4084 20.7724 50.1423C17.5744 43.9885 17.0551 36.5343 19.28 29.971C19.4112 29.3346 19.9524 28.6428 19.6026 27.9953C18.4709 27.5526 17.1972 27.6522 16 27.5471V27.3755Z" fill="#525253"/>
<path d="M60.537 29.805C61.9255 29.0413 62.9204 27.5748 64.4949 27.204C65.2711 29.0303 65.9654 30.8897 66.5722 32.7768C65.949 32.3008 65.3422 31.7972 64.7245 31.3158C63.2102 31.6146 62.2972 32.81 61.51 34.0385C61.0344 35.0014 59.8427 34.6417 59.061 34.3484C59.0172 33.5238 58.9954 32.6993 59.0008 31.8692C59.7443 31.8526 60.4878 31.847 61.2367 31.847C61.8544 30.9782 61.3296 30.2256 60.537 29.805Z" fill="#525253"/>
<path d="M67.9066 30.9229C67.7262 29.8825 66.6929 28.6097 67.8738 27.7408C72.0667 36.3517 70.8804 47.2038 65.1295 54.802C61.0185 60.4522 54.5842 64.0935 47.7782 65.1837C48.2319 66.3569 48.6583 67.5357 49.1558 68.6867H49.0027C47.2534 67.27 45.4931 65.8589 43.793 64.3813C45.3291 62.6436 46.9199 60.9558 48.4233 59.1904C48.1281 60.502 47.893 61.8246 47.6634 63.1472C54.9997 62.1843 61.8112 57.7571 65.5723 51.2879C69.1694 45.2559 70.208 37.6245 67.9066 30.9229Z" fill="#525253"/>
<path d="M59.6957 35.361C61.3686 34.6471 63.3366 34.6582 65.1515 34.5254C65.0914 35.7761 66.2995 36.0528 67.1523 36.5564C67.442 40.3914 66.6931 44.2099 65.3264 47.7793C64.9656 46.7167 64.0144 46.2242 63.107 45.7096C61.8606 45.9199 60.6196 46.1578 59.3623 46.3128C58.5204 45.3665 57.5583 44.5308 56.7875 43.5236C56.6071 42.4943 56.7492 41.4373 56.6836 40.3914C57.8808 38.8364 58.75 37.0766 59.6957 35.361Z" fill="#525253"/>
<path d="M41.4528 36.2963C42.6336 36.3959 43.8144 36.49 44.9952 36.5508C46.0831 37.9011 47.7614 38.4379 49.1937 39.2957C49.1171 39.6831 48.9531 40.4633 48.8711 40.8563C50.4346 40.3859 51.8122 41.5425 53.1953 42.0682C52.2987 44.0051 52.0691 46.0914 51.7247 48.1722C49.0187 48.4655 49.467 52.4057 47.0562 52.9535C47.1819 54.2872 45.6786 54.5971 44.8531 55.2833C44.3283 57.2534 43.7707 59.2235 42.6883 60.9667C41.1084 56.4233 42.5079 51.6088 42.989 46.9879C41.5622 45.7594 40.611 44.1434 39.627 42.5607C39.7691 40.3859 40.846 38.377 41.4528 36.2963Z" fill="#525253"/>
<path d="M24.5492 41.1995C24.5219 40.7401 24.4836 40.2808 24.4454 39.827C25.5988 40.4358 26.971 40.314 28.1081 40.9726C29.2779 41.5149 29.9011 42.7158 30.7157 43.6621C30.2893 43.6012 29.4365 43.4739 29.0101 43.413L29.3545 42.8652C28.8679 43.0921 27.8019 43.164 28.1737 43.983C28.8625 46.2962 31.4209 47.8513 31.1967 50.4578C31.2951 51.8579 30.3385 52.9813 29.7973 54.1822C29.0811 54.1877 28.365 54.1766 27.6434 54.1656C25.3419 51.4871 23.4668 48.3826 22.543 44.9349C23.363 44.9017 24.0682 44.6028 24.6586 44.0495C25.4786 44.1712 26.0089 44.6637 26.2494 45.5215C26.5829 45.6156 27.2498 45.8037 27.5833 45.8978C27.7309 44.6527 27.7254 43.402 27.5013 42.1679L27.2225 43.3854C26.8234 42.0572 25.7027 41.5592 24.5492 41.1995Z" fill="#525253"/>
<path d="M78.019 49.4774C79.1069 48.7414 81.7254 48.354 81.5286 50.3518C81.299 50.1526 80.8343 49.7486 80.6047 49.5494C80.1237 49.5494 79.1506 49.5494 78.6695 49.5494C77.7511 51.691 80.5227 51.6965 81.8238 52.3108C81.8402 53.1907 82.2229 54.3362 81.2115 54.79C80.0799 55.3324 77.5762 55.2881 77.8987 53.484C78.1229 53.7164 78.5711 54.1702 78.8007 54.4027C80.0089 54.4967 81.5997 54.6019 81.3919 52.8753C80.0471 52.3827 78.5001 52.1669 77.6035 50.9052C77.7456 50.4293 77.8823 49.9533 78.019 49.4774Z" fill="#525253"/>
<path d="M82.8963 51.8515C82.7323 48.9738 86.7886 47.8283 88.3849 50.0972C86.9636 49.8427 85.5149 49.2893 84.1318 50.0087C83.2517 51.5471 83.5086 53.2903 84.8206 54.4801C86.0452 54.53 87.1768 54.0983 88.2865 53.6335C87.1112 56.4779 82.3278 54.8288 82.8963 51.8515Z" fill="#525253"/>
<path d="M89.2058 48.6196C89.3862 48.841 89.747 49.2837 89.9274 49.5051C89.8946 51.3091 89.911 53.1132 89.911 54.9228L89.1457 54.9173C89.1512 52.8199 89.1074 50.717 89.2058 48.6196Z" fill="#525253"/>
<path d="M91.3516 48.9352C92.8822 49.068 94.6644 48.4427 96.0037 49.4222C94.7191 49.5661 93.4234 49.5605 92.1333 49.5605C92.1278 50.0918 92.1114 51.1598 92.1005 51.6966C93.254 51.7409 94.473 51.586 95.5609 52.0674C94.4184 52.2168 93.2594 52.2168 92.1114 52.2334C92.1114 52.7868 92.1169 53.8881 92.1169 54.4415C93.3086 54.4415 94.5058 54.4415 95.7031 54.447C95.6976 54.5743 95.6921 54.8233 95.6921 54.9506C94.2434 54.9783 92.7948 54.9783 91.3516 54.9728C91.357 52.9584 91.357 50.944 91.3516 48.9352Z" fill="#525253"/>
<path d="M104.118 54.4635C102.052 52.9528 102.997 49.0734 105.594 48.9019C106.764 48.6307 107.715 49.4055 108.59 50.064C107.163 49.8648 105.72 49.2948 104.32 49.981C103.681 51.1819 103.254 52.8476 104.43 53.8714C105.638 55.2272 107.174 53.7995 108.59 53.8935C107.403 55.028 105.485 55.6367 104.118 54.4635Z" fill="#525253"/>
<path d="M109.26 48.9129C110.741 49.1343 112.6 48.3429 113.824 49.4442C112.518 49.5715 111.206 49.5549 109.894 49.5604C109.899 50.0917 109.899 51.1542 109.899 51.6855C110.982 51.7131 112.064 51.7297 113.147 51.7353C113.152 51.8515 113.168 52.0839 113.174 52.2001C112.081 52.2057 110.987 52.2112 109.894 52.2223C109.894 52.7757 109.894 53.8769 109.894 54.4303C111.108 54.4414 112.321 54.4414 113.54 54.4469C113.535 54.5797 113.524 54.8454 113.513 54.9782C112.097 54.9782 110.676 54.9782 109.26 54.9616C109.26 52.9472 109.26 50.9273 109.26 48.9129Z" fill="#525253"/>
<path d="M116.145 49.3723C117.801 48.7027 120.064 48.498 121.644 49.4166C121.103 49.4498 120.015 49.5162 119.468 49.5494C118.9 51.431 119.731 53.5671 118.769 55.3214C118.561 53.4232 118.665 51.514 118.621 49.6103C118.003 49.5494 116.762 49.4277 116.145 49.3723Z" fill="#525253"/>
<path d="M123.256 49.2117C125.06 48.1326 126.979 49.5659 127.744 51.2427C127.815 53.2515 126.47 55.5039 124.213 55.0833C121.332 54.8896 120.621 50.3462 123.256 49.2117ZM123.77 49.505C123.311 49.9422 122.851 50.3739 122.387 50.7944C122.031 52.272 122.485 54.2089 124.213 54.4192C125.918 54.8398 127.34 52.9638 126.815 51.3534C126.651 49.8813 125.016 49.3833 123.77 49.505Z" fill="#525253"/>
<path d="M132.127 48.8245C133.303 48.7857 134.39 49.1897 135.303 49.9146C133.959 49.8648 132.565 49.2229 131.346 50.1471C131.947 52.2444 135.287 51.2373 135.309 53.7442C136.276 52.2223 135.921 49.7708 137.938 49.0901C140.229 48.0331 142.793 50.5677 141.973 52.9417C141.317 55.6534 136.965 55.8858 136.216 53.0745C135.014 54.6628 133.018 55.7973 131.132 54.5798C131.067 54.2976 130.941 53.722 130.881 53.4343C131.116 53.6611 131.592 54.1039 131.832 54.3252C133.018 54.4414 134.915 54.7901 134.5 52.9196C133.417 52.3275 132.078 52.2555 131.138 51.4088C130.498 50.3574 131.433 49.4996 132.127 48.8245ZM137.096 53.7054C138.217 54.4027 139.863 54.945 140.797 53.6501C141.82 52.6152 141.295 51.1875 140.787 50.0419C139.956 49.8261 139.125 49.6047 138.294 49.3889C136.758 50.3408 136.621 52.095 137.096 53.7054Z" fill="#525253"/>
<path d="M143.319 48.5201C143.489 48.7802 143.828 49.3059 143.997 49.566C143.981 51.1875 143.986 52.8144 143.992 54.4359C145.047 54.4414 146.107 54.4414 147.173 54.4414C147.173 54.5742 147.179 54.8399 147.184 54.9727C145.872 54.9782 144.56 54.9782 143.248 54.9506C143.248 52.8089 143.193 50.6617 143.319 48.5201Z" fill="#525253"/>
<path d="M147.97 48.9074C148.134 48.9074 148.451 48.9019 148.615 48.9019C148.615 50.2854 148.615 51.6689 148.648 53.0524C148.823 53.3678 149.173 53.9931 149.348 54.3086C150.512 54.5908 151.808 54.4635 152.294 53.2018C152.387 51.6744 151.802 49.8925 152.753 48.5588C152.912 50.23 152.988 51.929 152.792 53.6002C152.141 55.5703 148.899 55.6478 148.189 53.6777C147.762 52.1337 148.025 50.4901 147.97 48.9074Z" fill="#525253"/>
<path d="M153.904 48.913C155.517 49.1066 157.408 48.4038 158.83 49.3999C158.092 49.4774 157.354 49.5272 156.61 49.5549C156.331 51.3534 156.392 53.1686 156.413 54.9782L155.818 54.9284C155.818 53.1409 155.818 51.3479 155.807 49.5549C155.151 49.5494 154.5 49.5383 153.85 49.5272C153.861 49.3723 153.888 49.0679 153.904 48.913Z" fill="#525253"/>
<path d="M159.643 54.9726C159.872 52.8587 159.112 50.5123 160.124 48.5698C160.32 50.6893 160.206 52.8199 160.228 54.945L159.643 54.9726Z" fill="#525253"/>
<path d="M161.617 50.6839C162.322 49.887 163.11 48.9019 164.268 48.8909C166.554 48.5256 168.423 51.431 167.237 53.4232C166.428 55.3767 163.481 55.6921 162.229 54.0264C161.333 53.141 161.666 51.8073 161.617 50.6839ZM162.694 50.4459C162.098 51.2041 162.361 52.2334 162.251 53.1188C163.219 54.5632 165.067 54.8786 166.411 53.722C166.63 53.0745 166.86 52.4381 167.1 51.8017C166.608 50.9495 166.023 50.1692 165.378 49.4332C164.449 49.5549 163.246 49.5273 162.694 50.4459Z" fill="#525253"/>
<path d="M168.849 48.6252C170.429 50.1803 171.681 52.0286 173.07 53.7552C173.119 52.1393 173.113 50.5179 173.119 48.9019C173.283 48.9019 173.605 48.9019 173.764 48.9075C173.753 51.0159 173.84 53.1299 173.671 55.2383C171.943 53.7718 170.806 51.7575 169.352 50.0364C169.259 51.8405 169.396 53.6556 169.123 55.4486C168.308 53.2959 168.762 50.8831 168.849 48.6252Z" fill="#525253"/>
<path d="M175.293 49.4276C176.556 48.6196 178.043 48.8742 179.262 49.6544C178.218 50.2576 177.086 49.339 175.987 49.5216C175.955 49.9699 175.883 50.8719 175.851 51.3202C176.955 51.5526 178.037 51.8957 179.087 52.3218C179.12 52.997 179.147 53.6721 179.174 54.3473C177.737 55.4928 175.763 55.1829 174.533 53.8824C176.004 53.982 178.688 55.4596 178.611 52.8642C177.545 52.4768 176.468 52.1226 175.413 51.7131C175.309 51.4862 175.102 51.0269 174.998 50.8C175.096 50.3407 175.195 49.8813 175.293 49.4276Z" fill="#525253"/>
<path d="M96.8486 48.592C98.4776 50.0641 99.642 51.9512 101.036 53.639C101.288 51.9954 100.555 50.0641 101.599 48.6197C101.774 50.8388 101.747 53.069 101.61 55.2882C100.161 53.6501 98.7728 51.9401 97.6084 50.0807C97.4116 51.8128 97.3788 53.5505 97.2531 55.2882C96.2636 53.235 96.9579 50.8001 96.8486 48.592Z" fill="#525253"/>
<path d="M35.8836 53.2137C36.5779 53.828 37.3323 54.3592 38.1304 54.8351C37.633 55.4549 37.2066 56.2297 36.3374 56.3238C36.0367 57.0598 35.6759 57.7681 35.2823 58.4544C34.9324 58.4212 34.2327 58.3547 33.8828 58.3215C34.6755 57.3476 35.1784 55.715 36.649 55.6874C36.3975 54.8628 36.1515 54.0327 35.8836 53.2137Z" fill="#525253"/>
</svg>
