<svg width="170" height="80" viewBox="0 0 170 80" fill="none" xmlns="http://www.w3.org/2000/svg">
<path d="M75.9161 10H81.0476C85.1959 10.0361 89.3469 10.1332 93.4952 10.1887C92.8186 11.149 92.0287 12.0177 91.2747 12.9141C82.0916 23.7878 72.8781 34.6394 63.9186 45.7019C61.4855 49.1599 61.9771 54.1722 64.6726 57.3472C59.1848 57.6053 53.6694 57.6053 48.1872 57.3222C46.2373 55.6903 45.1906 53.1481 45 50.642V49.5873C45.105 47.3088 46.1434 45.1302 47.6486 43.4455C57.061 32.2887 66.28 20.9653 75.9161 10Z" fill="#525253"/>
<path d="M94.5611 10.9547C94.7407 10.6272 95.282 10.419 95.4946 10.827C104.852 22.1726 114.184 33.5375 123.411 44.9886C125.229 47.5363 125.381 51.0055 124.403 53.914C124.038 55.2295 123.188 56.3563 122.193 57.2583C121.705 57.7162 121.009 57.6135 120.401 57.6302C115.366 57.5997 110.331 57.6663 105.299 57.5969C106.636 55.7874 107.556 53.6198 107.608 51.3441C107.694 49.3902 107.384 47.2949 106.177 45.699C104.009 42.624 101.427 39.8792 99.1265 36.9096C94.9423 31.7724 90.7498 26.6381 86.5656 21.5009C86.1375 21.1596 86.3005 20.5601 86.6706 20.2465C89.2943 17.1437 91.9291 14.0519 94.5611 10.9547Z" fill="#525253"/>
<path d="M81.6685 30.1822C82.7733 28.4477 83.9995 26.7936 85.2258 25.145C86.9492 27.9231 89.2608 30.4209 90.1999 33.6209C90.8379 35.6497 90.454 37.8533 89.5785 39.7488C88.3853 42.4159 86.2698 44.5279 85.0214 47.1673C83.6736 44.3697 81.6326 41.9635 80.4506 39.08C79.8126 37.5341 79.5336 35.8023 79.8761 34.151C80.1219 32.6967 80.9146 31.42 81.6685 30.1822Z" fill="#525253"/>
<path d="M68.3906 41.2363C71.8153 41.2974 75.425 40.7701 78.6619 42.1827C81.8021 43.5926 83.8984 46.5872 85.0363 49.7594C86.1769 46.207 88.8228 43.0903 92.3579 41.7997C95.3904 40.8534 98.5997 41.4223 101.715 41.3307C102.176 43.4816 101.834 45.7851 100.746 47.6973C99.8232 49.4097 98.2793 50.6975 96.6112 51.6383C93.8493 52.9344 90.6124 51.9935 87.8478 53.273C86.3813 53.9834 85.6494 55.5349 84.8954 56.892C84.2215 54.7189 82.3573 52.9649 80.1064 52.5736C79.3662 52.5236 78.626 52.6097 77.8859 52.5764C74.6186 52.5097 71.332 50.8251 69.6362 47.9693C68.3354 46.0044 68.062 43.5288 68.3906 41.2363Z" fill="#525253"/>
<path d="M48.5195 60.5666C49.6878 60.0698 50.9858 60.3418 52.2093 60.3862C52.7258 60.3584 53.1925 60.7109 53.3196 61.2105C54.173 64.1856 54.8911 67.1968 55.6893 70.1886C55.8329 70.7271 56.0842 71.2266 56.3355 71.7234C57.2552 71.482 57.1309 70.4384 57.2027 69.6891C57.2359 67.4549 57.3298 65.2069 57.0536 62.9867C56.8547 62.5121 56.5537 62.093 56.3604 61.6184C57.3657 60.9551 58.5146 60.5555 59.6414 60.1614C59.8154 60.2002 60.1607 60.2835 60.3319 60.3223C60.3595 63.8748 60.1137 67.43 60.2932 70.9824C60.4534 71.3987 60.7517 71.7484 60.9395 72.1564C60.9948 72.742 60.3126 72.6393 59.9508 72.7669C57.907 72.8835 55.8577 72.8502 53.8112 72.8946C53.2699 72.9335 52.7645 72.717 52.2729 72.5255C52.4054 71.9704 52.5932 71.432 52.7727 70.8936C52.5518 70.1692 52.3833 69.4282 52.2149 68.69C51.5299 68.6456 50.845 68.6622 50.16 68.6123C49.5856 68.4513 49.1851 67.9656 48.7294 67.6076C48.3013 68.8176 47.9064 70.0416 47.5998 71.2905C47.8042 71.6374 48.0058 71.9871 48.2074 72.3368C47.4065 73.1666 46.1084 72.803 45.1445 72.4977C45.197 71.9898 45.2964 71.4847 45.476 71.0074C46.5448 68.1793 47.6109 65.3485 48.6383 62.5038C48.9504 61.8682 48.6659 61.2021 48.5195 60.5666ZM49.1851 66.6723C50.0164 66.8333 50.8726 66.8555 51.7039 66.6779C51.6846 66.4753 51.668 66.2727 51.6514 66.0728C51.2454 65.0876 51.5299 63.6944 50.5108 63.0644C49.6381 64.0413 49.3315 65.4012 49.1851 66.6723Z" fill="#525253"/>
<path d="M61.0957 62.3622C61.9988 61.3408 63.3245 60.8496 64.5646 60.3778C65.1225 61.6295 64.6557 63.0699 64.7634 64.3937C65.5229 64.0163 66.2907 63.6388 67.1248 63.4556C68.6438 63.9358 68.9338 65.7203 69.3509 67.0469C69.6712 68.6122 70.0082 70.4772 68.967 71.851C68.2958 72.7752 67.0309 72.6864 66.0173 72.8168C64.5038 72.8418 62.9351 72.9889 61.4686 72.5421C61.2697 72.0342 61.6702 71.5652 61.7282 71.0684C61.9602 68.4068 61.9905 65.7314 61.7365 63.0699C61.5763 62.8923 61.2559 62.5398 61.0957 62.3622ZM64.8463 65.8813C64.4707 67.6214 64.3961 69.4726 64.8187 71.2072C65.4373 71.5652 66.0698 71.4125 66.6553 71.0739C66.9591 69.4615 66.6912 67.7657 66.0587 66.2671C65.8709 65.7037 65.2965 65.8619 64.8463 65.8813Z" fill="#525253"/>
<path d="M86.2193 63.3779C87.1445 62.6897 87.9537 61.8376 88.9894 61.302C89.191 61.8654 89.2905 62.4593 89.2435 63.0588C89.249 63.2003 89.2601 63.4834 89.2684 63.6277C89.7434 63.6666 90.2212 63.7054 90.6962 63.7526C90.7321 64.2633 90.746 64.7767 90.7321 65.2874C90.1743 65.4067 89.6164 65.5233 89.064 65.6565C88.9811 67.3883 88.8679 69.1423 89.0833 70.8658C89.4838 71.3043 89.9146 71.715 90.2903 72.1785C89.0833 73.0555 87.324 72.8779 86.0398 72.2424C85.8989 71.765 85.6973 71.2876 85.7056 70.7825C85.7802 69.134 85.921 67.4771 85.7719 65.8313C84.7638 65.6593 83.6563 65.5316 82.6979 65.9646C81.8003 66.5113 82.1483 67.6797 82.0572 68.5484C82.1041 69.6169 81.8169 70.8047 82.4687 71.7428C82.8857 72.1286 82.4218 72.6503 81.9633 72.6476C80.8365 72.7142 79.6931 72.7253 78.5717 72.5837C77.9172 72.1563 78.7209 71.5652 78.8037 71.0295C78.9998 69.6474 79.0993 68.2487 79.0136 66.8554C78.9253 66.3004 78.8838 65.737 78.8452 65.1791C78.5966 64.8239 78.3508 64.4659 78.1133 64.1051C79.1849 63.3752 80.5492 63.6028 81.7672 63.6805C81.8252 64.1023 81.8804 64.5269 81.9329 64.9516C82.372 64.5658 82.7338 64.0302 83.3221 63.8664C84.2501 63.5306 85.3742 63.983 86.2193 63.3779Z" fill="#525253"/>
<path d="M118.602 63.7582C120.282 62.9978 122.284 63.0949 123.98 63.761C124.079 63.9081 124.283 64.1995 124.386 64.3438C124.383 65.1709 124.259 66.1755 123.472 66.6335C123.063 66.9582 122.53 66.8139 122.06 66.7861C122.126 66.3171 122.242 65.8564 122.416 65.4151C122.334 65.2458 122.171 64.9044 122.088 64.7351C121.541 64.7712 120.685 64.5436 120.503 65.2624C120.235 66.0312 121.036 66.5863 121.662 66.7944C122.85 67.2052 124.366 67.4883 124.899 68.801C125.104 69.9611 124.974 71.3959 123.947 72.1397C123.27 72.7003 122.358 72.6698 121.535 72.7586C120.359 72.8002 119.124 72.8696 118.025 72.3645C117.625 72.0953 117.227 72.4783 116.829 72.556C116.017 72.7142 115.18 72.6837 114.36 72.6171C113.94 72.6087 113.603 72.2563 113.518 71.8594C112.935 69.9999 112.753 68.01 111.985 66.2116C111.828 65.7453 111.253 65.8897 110.883 65.7925C110.402 67.0303 110.634 68.3986 110.648 69.6974C110.621 70.5939 110.969 71.4237 111.394 72.1897C110.452 72.8502 109.27 72.6642 108.196 72.6476C107.798 72.6615 107.428 72.5172 107.188 72.1952C108.257 70.0305 107.751 67.5354 107.58 65.2236C107.389 64.9488 107.199 64.6713 107.014 64.3965C107.105 64.2411 107.287 63.9303 107.378 63.7749C108.32 63.6028 109.276 63.3364 110.24 63.4557C110.43 63.7527 110.596 64.0663 110.737 64.3938C111.817 63.9025 112.916 63.0144 114.175 63.4085C114.703 63.7721 114.91 64.4243 115.1 65.0071C115.658 66.8638 116.015 68.7788 116.639 70.6161C116.746 71.0712 117.125 71.3626 117.434 71.6846C117.464 71.0185 117.459 70.3496 117.547 69.6863C118.624 69.517 118.89 70.827 119.795 71.1045C120.45 71.2516 121.146 71.321 121.803 71.1489C122.295 70.9047 122.372 70.1165 121.85 69.8639C120.541 69.1146 118.699 69.1479 117.812 67.7658C117.406 66.4475 117.197 64.5464 118.602 63.7582Z" fill="#525253"/>
<path d="M70.9118 64.8183C71.5056 63.5694 73.0578 63.3169 74.2923 63.4085C75.259 63.5472 76.4576 63.4584 77.0708 64.3826C77.8137 65.4733 78.2197 66.9359 77.7115 68.207C77.369 68.3846 77.0238 68.5567 76.6758 68.7204C77.0928 69.0729 77.8717 69.2783 77.8054 69.9582C77.9297 71.2016 76.9658 72.37 75.7893 72.6559C74.5658 73.0389 73.2649 72.8696 72.0497 72.5587C71.4863 72.3534 70.8759 72.0037 70.7185 71.3792C70.1137 69.2394 70.1551 66.9109 70.9118 64.8183ZM73.4168 65.3345C73.1517 66.206 72.9335 67.2134 73.3726 68.0682C74.0217 68.0516 74.6707 67.9073 75.2286 67.5631C75.3474 66.6306 75.2921 65.6731 74.8337 64.835C74.3117 64.8128 73.6074 64.6768 73.4168 65.3345ZM73.2263 69.6724C73.2235 70.4606 73.6046 71.5541 74.5547 71.5208C75.8666 71.6595 76.4411 70.0609 76.0793 69.0007C75.0933 69.0424 74.1542 69.3643 73.2263 69.6724Z" fill="#525253"/>
<path d="M91.8842 63.7721C93.6159 63.1116 95.5906 63.2032 97.2753 63.9664C97.3554 64.144 97.5156 64.502 97.5957 64.6796C97.3444 65.4567 97.0875 66.3337 96.3611 66.7944C95.9634 66.9499 95.5409 66.8166 95.1542 66.7112C95.2923 66.1922 95.4608 65.6871 95.6044 65.1709C94.8946 64.6963 94.0329 64.6824 93.3397 65.1875C93.2071 66.2921 94.3036 66.7528 95.1653 67.0359C96.1236 67.3884 97.3526 67.7436 97.6426 68.8676C97.8139 70.0888 97.7835 71.6873 96.5738 72.3756C94.9333 73.261 92.9696 72.9501 91.2379 72.5532C90.5861 72.3867 90.5447 71.618 90.4895 71.0657C90.4812 70.5578 90.3403 69.9222 90.8375 69.592C91.2766 69.3949 91.539 69.8639 91.7433 70.1554C92.3868 71.346 93.9887 71.6152 95.1597 71.1351C95.1155 70.6827 95.1846 70.1415 94.7068 69.9056C93.5468 69.1091 91.9118 69.0758 91.0197 67.8851C90.495 66.9304 90.6524 65.7537 90.912 64.7407C91.0059 64.2578 91.481 63.9775 91.8842 63.7721Z" fill="#525253"/>
<path d="M99.6925 63.7582C101.383 63.081 103.335 63.2503 105.053 63.7498C106.384 64.4797 106.398 66.1893 106.65 67.5076C106.752 68.9397 107.108 70.5882 106.208 71.8427C105.443 72.8668 104.031 72.8918 102.877 73H101.78C100.822 72.8918 99.7366 72.7364 99.1014 71.9176C98.0795 70.6826 98.2121 68.9563 98.2093 67.4521C98.2618 66.1311 98.4248 64.4881 99.6925 63.7582ZM101.518 65.0542C100.996 65.9423 101.181 67.0164 101.189 67.9961C101.25 69.0868 101.22 70.3496 102.012 71.2016C102.532 71.3792 103.084 71.246 103.617 71.2099C104.136 70.1109 103.94 68.8759 103.819 67.713C103.67 66.7472 103.728 65.6426 103.007 64.8822C102.523 64.7573 101.918 64.6823 101.518 65.0542Z" fill="#525253"/>
</svg>
