<svg width="200" height="80" viewBox="0 0 200 80" fill="none" xmlns="http://www.w3.org/2000/svg">
<path d="M68.1234 8.49772C68.8109 7.93269 69.6597 7.45199 70.5758 7.49416C74.7293 7.50428 78.8827 7.52789 83.0362 7.54982C83.8648 7.61897 84.7171 7.71342 85.4566 8.13003C85.1995 8.35267 84.8784 8.42014 84.5473 8.3999C81.5234 8.39315 78.4978 8.37291 75.4722 8.36448C75.0839 8.36954 74.7007 8.30376 74.3175 8.25147C73.003 8.34761 71.6936 9.04083 71.0532 10.2266C69.1504 13.6083 67.2594 16.9951 65.3533 20.3752C64.6322 21.5964 64.5751 23.1987 65.2525 24.4502C67.0426 27.8826 68.858 31.2997 70.6565 34.727C71.2784 35.9735 72.5979 36.9231 74.0166 36.8691C74.5595 36.8539 75.0907 36.9872 75.6302 37.0091C78.8256 37.0175 82.0209 37.0395 85.2163 37.0513C86.2063 37.1086 86.9862 36.3935 87.8838 36.1051C87.8216 37.0159 87.235 37.7614 86.7778 38.5136C85.9122 39.7887 84.3506 40.3453 82.8681 40.401C81.4074 40.428 79.945 40.4162 78.486 40.4533C77.0875 40.6354 75.6739 40.5494 74.2687 40.5916C72.8954 40.6354 71.5037 41.3202 70.8095 42.5431C68.9185 45.8776 67.0695 49.2357 65.1718 52.5669C64.7566 53.309 64.4272 54.1423 64.4725 55.0092C64.486 55.7631 64.7919 56.4698 65.1382 57.126C66.772 60.2126 68.394 63.3042 70.0245 66.3925C70.396 67.0942 70.7355 67.8599 71.3776 68.3608C72.0415 68.8719 72.8484 69.2767 73.7056 69.243C74.462 69.2261 75.2184 69.2598 75.9647 69.3846C78.9937 69.3964 82.0226 69.4167 85.0499 69.4251C86.0584 69.469 86.7694 68.5261 87.7578 68.5413C87.0585 70.174 86.0702 72.0428 84.196 72.4746C79.6021 72.5083 75.0083 72.4814 70.4128 72.4814C68.7638 72.5876 67.209 71.4947 66.4577 70.0644C64.4978 66.352 62.5496 62.6329 60.588 58.9206C60.2603 58.2796 59.8804 57.6387 59.7778 56.9134C59.7224 56.3535 59.756 55.7884 59.7627 55.2268C59.2803 55.2521 58.7979 55.2824 58.3155 55.2824C54.3906 55.2673 50.4675 55.2436 46.5443 55.2285C45.9543 55.1981 45.3693 55.0952 44.781 55.048C43.4784 54.8085 42.3169 53.9179 41.7202 52.7322C39.9233 49.3116 38.1214 45.8945 36.3245 42.4739C35.8606 41.5918 35.3143 40.7366 35.0571 39.7651C34.9781 39.0685 34.9866 38.3601 35.0487 37.6635C35.2639 36.778 35.7682 36.0022 36.2035 35.2128C38.1836 31.686 40.1603 28.1558 42.1421 24.6273C42.8816 23.4078 44.2297 22.4211 45.7038 22.5139C49.1244 22.5375 52.545 22.5325 55.9656 22.5746C57.3137 22.7517 58.6769 22.632 60.0317 22.7011C60.3779 21.6571 60.9427 20.7109 61.4839 19.7613C63.1581 16.7742 64.8356 13.7905 66.5064 10.8034C66.9686 9.98705 67.3805 9.10155 68.1234 8.49772ZM48.5882 23.3657C47.4452 23.5765 46.472 24.4063 45.919 25.4167C44.0431 28.7664 42.1622 32.1161 40.283 35.4658C39.7048 36.412 39.8779 37.5741 39.9233 38.6283C40.1166 39.4615 40.641 40.1699 41.0142 40.9306C42.4597 43.695 43.9255 46.4494 45.3643 49.2172C45.7358 49.9087 46.1039 50.6542 46.7746 51.1063C47.4015 51.5313 48.1243 51.9057 48.8992 51.8922C50.459 51.9024 52.0189 51.8973 53.5788 51.9159C55.658 52.1233 57.7524 51.9799 59.8367 52.0407C60.9629 52.1149 62.2756 51.6696 62.8034 50.5986C64.5583 47.4192 66.3619 44.2668 68.12 41.0891C68.8126 39.8815 68.8294 38.3281 68.157 37.1069C66.1501 33.2731 64.1179 29.4512 62.1126 25.6157C61.6856 24.7589 61.0452 23.9577 60.1594 23.558C58.5995 23.4315 57.0212 23.6372 55.4697 23.3792C53.177 23.364 50.8809 23.3201 48.5882 23.3657Z" fill="#525253"/>
<path d="M143.685 16.7203C144.06 16.3998 144.588 16.4588 145.044 16.4993C145.61 16.5988 145.96 17.1183 146.124 17.6327C146.408 18.7898 144.958 19.9907 143.906 19.3312C142.882 18.9281 142.793 17.3005 143.685 16.7203ZM143.512 17.4185C143.349 17.933 143.534 18.4575 143.706 18.9416C144.022 18.439 143.949 17.8385 143.941 17.2735C144.027 17.2667 144.196 17.2549 144.282 17.2482C144.299 17.4809 144.319 17.7137 144.344 17.9465C144.654 17.6833 144.897 17.3561 145.151 17.0407C145.188 17.6884 144.997 18.3783 145.356 18.972C145.514 18.665 145.692 18.3664 145.82 18.0443C145.778 17.658 145.544 17.3258 145.415 16.9648C144.768 17.0205 143.912 16.7371 143.512 17.4185ZM144.344 18.2619C143.991 18.4407 144.176 18.8826 144.122 19.1963C144.425 19.1912 144.728 19.1845 145.032 19.1642C145.015 18.7426 144.845 18.2484 144.344 18.2619Z" fill="#525253"/>
<path d="M77.6001 17.3764C78.217 17.2246 78.8709 17.1352 79.5029 17.2634C79.7365 17.3224 80.0458 17.26 80.2055 17.4826C80.4694 18.0308 80.6005 18.6296 80.7854 19.2081C81.7132 22.1733 82.6125 25.1485 83.5588 28.1103C83.6546 28.419 83.6513 28.7479 83.6664 29.0683C82.9369 29.0515 82.199 29.1274 81.4745 29.0329C81.2375 28.8406 81.1283 28.5421 81.0476 28.2587C80.8072 27.4002 80.5988 26.5299 80.2794 25.6967C79.1381 25.6984 77.9968 25.6866 76.8555 25.7068C76.4924 26.8183 76.252 27.9686 75.847 29.0667C75.1628 29.092 74.4754 29.0852 73.8047 28.9368C74.8418 25.4268 76.0403 21.9641 77.1194 18.4643C77.2589 18.0966 77.316 17.6699 77.6001 17.3764ZM78.4859 19.6331C78.1178 21.0601 77.7043 22.4769 77.3211 23.9004C78.1027 23.9291 78.8826 23.9274 79.6642 23.9088C79.6525 22.9323 79.2642 22.0265 79.0322 21.0938C78.9095 20.5861 78.7196 20.0987 78.4859 19.6331Z" fill="#525253"/>
<path d="M114.749 17.255C115.473 17.0576 116.485 17.0374 116.875 17.8217C116.927 18.2518 117.016 18.7797 116.672 19.1137C116.231 19.6382 115.468 19.5488 114.866 19.4493C113.886 19.2031 113.834 17.6092 114.749 17.255Z" fill="#525253"/>
<path d="M100.169 21.1055C101.228 20.2588 102.749 20.0345 104.007 20.5455C104.778 20.8238 105.38 21.4732 105.686 22.2271C106.114 23.1632 105.923 24.2157 105.995 25.2109C104.61 25.2598 103.223 25.2227 101.838 25.2294C101.558 25.2159 101.294 25.307 101.038 25.4048C101.151 25.926 101.171 26.5315 101.59 26.9195C102.048 27.4035 102.763 27.417 103.375 27.5435C104.119 27.4777 104.867 27.3698 105.62 27.3934C105.632 27.7965 105.635 28.2013 105.639 28.6044C104.314 29.0615 102.896 29.2504 101.504 29.0514C100.631 28.8439 99.7792 28.3396 99.3439 27.5283C98.8547 26.712 98.6984 25.7506 98.7438 24.8111C98.6967 23.4618 99.1203 22.0079 100.169 21.1055ZM101.588 22.0163C101.117 22.4177 101.077 23.0975 101.107 23.6726C101.946 23.8008 102.801 23.7097 103.647 23.7232C103.605 23.1852 103.719 22.5797 103.395 22.1091C102.993 21.5255 102.052 21.5036 101.588 22.0163Z" fill="#525253"/>
<path d="M114.413 20.387C115.166 20.3769 115.92 20.3735 116.674 20.387C116.711 23.278 116.699 26.1706 116.679 29.0632C115.874 29.0767 115.069 29.0784 114.264 29.0548C114.237 26.7407 114.266 24.4249 114.247 22.1108C114.235 21.5306 114.336 20.9588 114.413 20.387Z" fill="#525253"/>
<path d="M119.505 21.281C120.303 20.6418 121.335 20.2825 122.359 20.3196C123.136 20.2876 123.868 20.5844 124.621 20.7295C124.642 21.2102 124.64 21.6943 124.627 22.175C123.563 21.954 122.304 21.7719 121.367 22.4566C120.718 22.9711 120.554 23.8549 120.579 24.6409C120.547 25.437 120.634 26.3495 121.29 26.8926C122.238 27.6583 123.527 27.3412 124.647 27.3716C124.645 27.7781 124.643 28.1862 124.64 28.5944C123.26 29.0869 121.687 29.3753 120.278 28.8525C118.639 28.1913 118.021 26.2736 118.078 24.6358C118.195 23.418 118.55 22.1142 119.505 21.281Z" fill="#525253"/>
<path d="M126.722 20.8189C127.911 20.4596 129.161 20.215 130.41 20.3365C131.283 20.4562 132.254 20.947 132.437 21.895C132.777 24.2175 132.632 26.5721 132.656 28.9132C131.799 29.1544 130.878 29.1544 130.081 28.7243C129.299 28.8592 128.548 29.2488 127.729 29.0903C126.215 28.9182 125.349 27.1135 125.788 25.7355C125.966 24.9343 126.583 24.258 127.37 24.0252C128.336 23.7806 129.336 23.6912 130.333 23.7031C130.336 23.3657 130.37 23.0216 130.313 22.686C130.111 22.3689 129.845 21.9692 129.42 22.0046C128.388 21.9 127.373 22.1058 126.354 22.2154C126.408 21.7617 126.134 21.0027 126.722 20.8189ZM128.395 25.4825C127.805 25.9733 127.949 27.0865 128.694 27.3479C129.232 27.5217 129.815 27.4323 130.35 27.2889C130.348 26.5451 130.35 25.8013 130.34 25.0574C129.674 25.0456 128.943 25.049 128.395 25.4825Z" fill="#525253"/>
<path d="M134.572 20.3904C135.407 20.4022 136.399 20.1695 137.033 20.8813C138.142 20.436 139.448 19.9907 140.6 20.5456C141.581 20.9639 141.897 22.1311 141.907 23.1093C141.899 25.0642 141.927 27.019 141.889 28.9739C141.117 29.1257 140.324 29.1021 139.554 28.9536C139.542 27.1725 139.561 25.3914 139.547 23.612C139.536 23.0705 139.414 22.4026 138.819 22.2222C138.209 21.8747 137.535 22.1665 136.902 22.2609C136.863 24.4873 136.89 26.7137 136.886 28.9401C136.115 29.1476 135.313 29.0919 134.538 28.9418C134.555 26.0914 134.49 23.2392 134.572 20.3904Z" fill="#525253"/>
<path d="M87.5738 20.8593C88.4092 20.5017 89.3 20.2032 90.2212 20.3111C90.9523 20.2774 91.5104 21.1258 92.2567 20.8171C93.3745 20.3735 94.6284 20.0902 95.8067 20.4494C96.7682 20.7631 97.2338 21.8257 97.2237 22.777C97.2388 24.8415 97.2338 26.906 97.2237 28.9721C96.4875 28.9974 95.7513 28.9941 95.015 28.9772C94.931 26.9347 95.173 24.8668 94.7932 22.8479C94.7327 22.3958 94.2704 22.2272 93.8939 22.1125C93.3173 21.9118 92.7442 22.2137 92.1979 22.3722C92.2332 24.5733 92.2181 26.7744 92.2063 28.9755C91.4667 28.9958 90.7271 28.9958 89.9875 28.9738C89.9623 27.1337 89.9959 25.2918 89.9741 23.4517C89.9018 22.9946 89.8127 22.3419 89.2765 22.2171C88.6227 22.126 87.9335 22.1159 87.3099 22.3638C87.3334 24.5565 87.3183 26.7491 87.3183 28.9418C86.5653 29.0126 85.6559 29.3044 84.992 28.849C84.9499 26.0728 84.9768 23.2931 84.9819 20.5152C85.8542 20.5287 86.814 20.3077 87.5738 20.8593Z" fill="#525253"/>
<path d="M107.763 20.5085C108.53 20.5692 109.421 20.2656 110.071 20.7986C110.283 20.9824 110.545 20.7564 110.767 20.7058C111.424 20.3921 112.167 20.4444 112.872 20.5152C112.893 21.1494 112.89 21.7836 112.887 22.4178C111.932 22.3216 110.972 22.2879 110.016 22.3655C109.997 24.5582 110.009 26.7525 110.009 28.9452C109.236 29.1408 108.436 29.0936 107.663 28.9334C107.654 26.7728 107.663 24.6121 107.659 22.4498C107.663 21.8022 107.607 21.1444 107.763 20.5085Z" fill="#525253"/>
<path d="M101.687 32.5158C102.388 32.472 103.118 32.4197 103.794 32.6592C103.799 34.1452 103.782 35.6328 103.804 37.1204C104.955 36.8118 106.159 36.4508 107.35 36.7797C108.061 37.0665 108.564 37.7664 108.65 38.5254C108.878 39.5054 108.799 40.5123 108.809 41.5091C108.804 42.7623 108.818 44.0172 108.799 45.2704C107.982 45.3109 107.164 45.3142 106.349 45.2653C106.322 43.3527 106.37 41.4383 106.323 39.5273C106.338 39.1512 106.118 38.8408 105.935 38.5355C105.258 38.5035 104.582 38.5052 103.906 38.5254C103.893 40.7231 103.9 42.9192 103.903 45.1169C103.12 45.4205 102.269 45.2771 101.452 45.2805C101.434 41.101 101.407 36.9163 101.466 32.7385C101.521 32.6828 101.632 32.5715 101.687 32.5158Z" fill="#525253"/>
<path d="M94.1122 34.2869C95.9057 33.204 98.2102 33.3035 100.052 34.2127C100.047 34.6512 100.046 35.0914 100.044 35.5316C98.7195 35.4979 97.3362 35.11 96.0637 35.6649C94.798 36.1371 94.1341 37.5118 94.0618 38.7987C94.0147 39.8933 93.9878 41.0689 94.5577 42.0455C95.0636 42.872 95.973 43.5079 96.9647 43.4876C97.99 43.4944 99.0322 43.5416 100.039 43.2987C100.046 43.7862 100.047 44.2736 100.051 44.7627C99.6827 44.9129 99.3129 45.0731 98.9212 45.1507C97.7244 45.3649 96.4823 45.6719 95.2788 45.3126C93.7374 45.0731 92.4095 43.9093 91.9321 42.425C91.522 41.0909 91.3522 39.6505 91.6665 38.2758C91.8817 36.687 92.7104 35.1218 94.1122 34.2869Z" fill="#525253"/>
<path d="M134.022 33.4807C134.595 33.4521 135.274 33.3762 135.679 33.8805C136.005 34.4269 135.966 35.3293 135.355 35.6633C134.79 35.896 134.133 35.891 133.569 35.6582C132.685 35.1708 132.961 33.5178 134.022 33.4807Z" fill="#525253"/>
<path d="M145.122 35.0408C145.808 34.6664 146.541 34.3661 147.319 34.2632C147.571 35.0627 147.445 35.9061 147.467 36.7292C148.207 36.741 148.951 36.7022 149.683 36.8287C149.624 37.2689 149.832 37.844 149.551 38.1949C148.866 38.2623 148.175 38.2067 147.489 38.2286C147.452 39.5493 147.479 40.8716 147.467 42.1939C147.487 42.6089 147.42 43.0727 147.679 43.432C148.281 43.7912 149.009 43.7558 149.684 43.7592C149.684 44.1606 149.684 44.5637 149.676 44.9651C148.701 45.407 147.608 45.3801 146.566 45.3025C145.716 45.2333 145.126 44.3579 145.141 43.5433C145.092 41.7824 145.146 40.0215 145.111 38.2606C144.786 38.2387 144.46 38.2168 144.137 38.1932C144.122 37.7546 144.119 37.3178 144.117 36.8809C144.45 36.8017 144.784 36.7275 145.122 36.6617C145.122 36.1219 145.117 35.5805 145.122 35.0408Z" fill="#525253"/>
<path d="M110.99 38.1796C112.104 36.4069 114.812 36.0443 116.396 37.3768C117.487 38.3888 117.535 40.008 117.572 41.3961C115.905 41.7436 114.189 41.4282 112.503 41.5985C112.604 42.2698 112.716 43.0423 113.352 43.4285C114.476 44.1066 115.843 43.6917 117.078 43.7574C117.085 44.1487 117.085 44.54 117.078 44.9314C115.654 45.3041 114.113 45.7747 112.666 45.2484C111.582 44.9516 110.746 44.0273 110.454 42.9546C109.985 41.386 110.126 39.5863 110.99 38.1796ZM113.007 38.3787C112.52 38.8138 112.683 39.5087 112.651 40.0856C113.508 40.0923 114.367 40.1007 115.224 40.0687C115.248 39.3772 115.158 38.5642 114.589 38.0987C114.068 38.016 113.37 37.8912 113.007 38.3787Z" fill="#525253"/>
<path d="M138.121 37.2689C138.685 36.7663 139.466 36.6803 140.182 36.5723C140.912 36.6836 141.683 36.714 142.369 37.0142C142.905 37.2605 142.71 37.9335 142.746 38.4007C141.685 38.3906 140.456 37.8036 139.53 38.5693C139.545 38.8274 139.562 39.0871 139.582 39.3469C140.473 39.9794 141.589 40.2273 142.411 40.9593C143.647 42.2227 143.095 44.6531 141.397 45.2013C140.054 45.7984 138.617 45.3025 137.257 45.0647C137.224 44.5739 137.224 44.083 137.236 43.5922C138.258 43.8992 139.332 43.825 140.384 43.8149C140.648 43.5163 140.908 43.1402 140.734 42.7236C139.979 41.9157 138.777 41.7723 137.989 40.9998C136.968 40.0148 137.032 38.1763 138.121 37.2689Z" fill="#525253"/>
<path d="M156.992 36.7461C157.663 36.7359 158.334 36.7241 159.004 36.7359C159.255 36.7292 159.589 36.827 159.621 37.1205C160.151 38.9421 160.599 40.789 161.178 42.5971C161.43 42.28 161.605 41.9106 161.677 41.5126C162.037 39.9592 162.512 38.4344 162.828 36.8726C163.536 36.6803 164.274 36.7275 165 36.7579C164.116 39.8596 162.978 42.8821 161.988 45.9519C161.652 46.8981 161.396 47.986 160.549 48.6185C159.796 49.1886 158.782 49.0233 157.927 48.831C157.917 48.3436 157.918 47.8561 157.937 47.3687C158.394 47.3535 158.86 47.3889 159.31 47.2894C159.86 46.7885 160.275 45.9181 159.944 45.1878C159.023 42.7185 158.15 40.2341 157.238 37.7631C157.112 37.4359 157.036 37.0935 156.992 36.7461Z" fill="#525253"/>
<path d="M121.904 37.0682C123.092 36.6246 124.539 36.3834 125.676 37.0935C126.049 37.3397 126.476 37.0597 126.852 36.9619C127.765 36.5925 128.775 36.6347 129.738 36.7089C130.276 36.7494 130.72 37.1407 131.004 37.5775C131.55 38.6283 131.485 39.8528 131.481 41.0032C131.433 42.4334 131.592 43.8755 131.367 45.294C130.594 45.2991 129.819 45.3075 129.046 45.2772C129.022 43.3426 129.058 41.4063 129.029 39.4717C129.054 39.1057 128.779 38.8341 128.617 38.5356C127.894 38.5018 127.173 38.5052 126.452 38.5339C126.449 40.7839 126.464 43.0339 126.444 45.2839C125.669 45.3058 124.894 45.3025 124.119 45.2839C124.086 43.4573 124.116 41.6323 124.104 39.8056C124.101 39.3553 124.042 38.8105 123.608 38.5642C122.919 38.2471 122.144 38.4495 121.438 38.5878C121.433 40.8159 121.445 43.044 121.431 45.2721C120.734 45.289 120.031 45.3463 119.335 45.2654C119.28 45.2114 119.166 45.1034 119.108 45.0495C119.061 42.3221 119.105 39.5914 119.09 36.8641C119.682 36.8169 120.278 36.7916 120.873 36.8185C121.24 36.7932 121.529 37.2031 121.904 37.0682Z" fill="#525253"/>
<path d="M133.346 36.849C134.081 36.6904 134.842 36.6921 135.578 36.8473C135.563 39.6623 135.598 42.4757 135.56 45.289C134.829 45.3025 134.096 45.3025 133.365 45.289C133.326 42.4757 133.361 39.6623 133.346 36.849Z" fill="#525253"/>
<path d="M151.186 36.8624C152.053 36.6651 153.055 36.5926 153.788 37.1913C154.578 36.7848 155.495 36.5082 156.366 36.8456C156.364 37.4966 156.364 38.146 156.358 38.797C155.574 38.7059 154.808 38.4327 154.011 38.5609C153.751 38.544 153.512 38.7582 153.551 39.0264C153.534 41.0639 153.532 43.1031 153.556 45.1406C152.801 45.4172 151.987 45.2704 151.204 45.2839C151.172 42.4773 151.209 39.669 151.186 36.8624Z" fill="#525253"/>
<path d="M124.001 47.873C124.81 47.851 125.618 47.8494 126.427 47.8797C126.439 52.1301 126.442 56.3805 126.425 60.6326C125.618 60.6764 124.81 60.6731 124.003 60.641C123.985 56.3856 123.988 52.1284 124.001 47.873Z" fill="#525253"/>
<path d="M76.0696 50.7133C77.0798 49.4466 78.7455 48.7956 80.3407 48.8613C81.2836 48.8344 82.1796 49.1531 83.0788 49.3876C83.1646 49.8801 83.2604 50.3743 83.2637 50.8786C82.4468 50.9562 81.6635 50.629 80.8483 50.688C79.6246 50.7201 78.2732 51.2429 77.7303 52.4253C77.221 53.2534 77.3672 54.2502 77.3437 55.1745C77.3655 55.7784 77.2815 56.421 77.5605 56.981C77.9605 57.9946 78.9489 58.7891 80.0566 58.811C81.1189 58.8532 82.1896 58.8279 83.2419 58.6642C83.2805 59.2074 83.1881 59.7454 83.0805 60.2767C82.0014 60.469 80.9407 60.8215 79.833 60.7979C78.4177 60.8232 76.9033 60.3593 75.9687 59.2411C75.061 58.2291 74.8442 56.8224 74.7097 55.5186C74.6912 53.8421 75.0156 52.0643 76.0696 50.7133Z" fill="#525253"/>
<path d="M120.09 48.9018C120.778 48.841 121.82 48.6184 122.174 49.4078C122.331 49.7367 122.326 50.1566 122.195 50.494C122.001 51.0286 121.359 51.1653 120.858 51.1973C120.359 51.1501 119.693 51.0253 119.537 50.4619C119.256 49.9188 119.53 49.1413 120.09 48.9018Z" fill="#525253"/>
<path d="M86.8395 52.0407C88.2364 51.6932 89.8702 51.9327 90.9258 52.9751C91.8065 53.9146 92.1192 55.2656 92.0419 56.5255C92.015 58.0266 91.388 59.715 89.9609 60.3998C89.0365 60.9193 87.9321 60.8721 86.9152 60.7607C85.2982 60.4841 84.1115 58.9712 83.9804 57.3688C83.9249 56.3552 83.8997 55.301 84.2981 54.348C84.6981 53.218 85.6781 52.324 86.8395 52.0407ZM87.4043 53.5772C86.6715 53.9382 86.4126 54.8928 86.4311 55.6653C86.4614 56.7532 86.2227 58.0216 87.0261 58.9037C87.3707 59.3692 88.0162 59.435 88.5272 59.2478C89.0449 58.9526 89.3995 58.4078 89.4735 57.8158C89.5626 57.0501 89.5458 56.2742 89.5222 55.5051C89.5071 54.9401 89.4062 54.3362 89.018 53.9011C88.6599 53.3849 87.9405 53.503 87.4043 53.5772Z" fill="#525253"/>
<path d="M112.115 53.8084C112.69 52.7576 113.839 52.1774 114.984 51.9935C115.981 51.7726 116.967 52.1487 117.924 52.3899C118.04 52.8419 118.031 53.3074 117.914 53.7594C117.056 53.7004 116.189 53.638 115.335 53.7476C114.732 53.9433 114.261 54.4459 114.053 55.0413C113.943 55.7581 113.991 56.4885 113.997 57.2121C113.959 58.0672 114.686 58.8009 115.487 58.9696C116.293 59.0488 117.107 58.9982 117.915 58.9544C118.03 59.3946 118.026 59.8483 117.927 60.2936C116.503 60.6781 114.917 61.1319 113.508 60.4488C112.384 60.0052 111.721 58.8464 111.547 57.6928C111.266 56.394 111.461 54.9705 112.115 53.8084Z" fill="#525253"/>
<path d="M98.4486 52.0711C99.2168 52.0525 99.9866 52.0576 100.756 52.0694C100.814 54.9283 100.797 57.7889 100.765 60.6494C99.8942 60.6191 98.9226 60.8721 98.1763 60.2902C97.2384 60.6832 96.208 60.975 95.1877 60.749C94.4028 60.5432 93.7707 59.8904 93.5774 59.1011C93.2984 57.8091 93.4346 56.4817 93.4043 55.1712C93.4362 54.1305 93.2934 53.0729 93.564 52.0542C94.27 52.0626 94.9776 52.0626 95.6853 52.0542C96.0651 54.1069 95.6886 56.2203 95.8971 58.2915C96.3089 59.2816 97.5981 59.0555 98.4285 58.8312C98.4436 56.5778 98.4083 54.3245 98.4486 52.0711Z" fill="#525253"/>
<path d="M119.64 52.0812C120.444 52.0491 121.249 52.0491 122.054 52.0812C122.079 54.9333 122.072 57.7855 122.059 60.6359C121.25 60.6747 120.442 60.6747 119.635 60.6359C119.622 57.7855 119.615 54.9333 119.64 52.0812Z" fill="#525253"/>
<path d="M102.768 52.1436C103.587 52.0238 104.525 51.8788 105.191 52.491C106.28 52.0862 107.498 51.759 108.64 52.1419C109.524 52.4539 109.995 53.4204 109.995 54.316C110.026 56.0634 109.993 57.8125 110.013 59.5598C110.026 59.9393 109.989 60.3205 109.863 60.6798C109.186 60.6579 108.507 60.6562 107.83 60.6663C107.551 59.9326 107.685 59.1382 107.66 58.3758C107.641 57.1682 107.698 55.9605 107.631 54.7562C107.616 54.1204 106.986 53.6953 106.392 53.724C105.962 53.6936 105.539 53.7898 105.128 53.9112C105.091 55.8509 105.125 57.7922 105.113 59.7336C105.107 60.0507 105.007 60.3543 104.938 60.6612C104.221 60.6629 103.503 60.6629 102.785 60.6579C102.725 57.8209 102.758 54.9805 102.768 52.1436Z" fill="#525253"/>
</svg>
