<svg width="172" height="80" viewBox="0 0 172 80" fill="none" xmlns="http://www.w3.org/2000/svg">
<path d="M51.6334 9.37868C51.1253 8.04714 50.0075 7.09604 49.1068 6.03359C55.9106 5.98256 62.7144 6.03359 69.5228 6.00576C70.4697 5.964 71.6707 6.13102 72.1002 7.11924C72.7885 8.66884 73.0009 10.3947 73.5137 12.0139C74.2435 10.5154 75.2504 9.11887 76.6823 8.22808C79.486 6.45579 82.8903 6.13566 86.1236 6.0104C93.163 6.01504 100.207 6.01504 107.246 6.0104C107.265 14.394 107.209 22.7822 107.274 31.1612C107.366 33.9264 111.057 34.4645 112.826 32.9196C113.828 32.2329 113.893 30.8782 113.916 29.7786C113.902 21.8543 113.916 13.9347 113.907 6.01504C117.829 6.0104 121.75 6.01504 125.672 6.0104C125.662 16.2544 125.672 26.4985 125.667 36.7426C125.501 38.8628 127.381 40.2268 128.559 41.7115C125.02 41.7579 121.487 41.7161 117.949 41.7393C117.214 41.7208 116.443 41.7764 115.759 41.4609C114.914 40.9181 114.697 39.8881 114.323 39.0298C111.681 42.31 107.034 42.2357 103.242 41.7903C100.452 41.5213 97.8975 40.0181 96.3501 37.6705C95.3431 38.8953 94.1052 39.9067 92.6641 40.5794C90.5625 41.28 88.3684 41.6883 86.1513 41.6976C80.396 41.7764 74.6361 41.7022 68.8808 41.7347C68.4882 40.1944 68.0724 38.654 67.7399 37.0952C67.5505 36.4642 67.3981 35.8193 67.2364 35.1837C63.7537 35.1651 60.2663 35.1837 56.7836 35.1698C56.2016 37.3271 55.6519 39.4984 55.2316 41.6929C51.5502 41.7671 47.8689 41.7347 44.1875 41.7161C46.4693 32.6783 48.7095 23.6359 50.9728 14.5981C51.3793 12.8954 52.0768 11.1463 51.6334 9.37868ZM91.4493 13.828C88.9412 12.9372 86.2252 12.566 83.6432 13.3687C82.2528 14.0924 81.5554 15.7951 82.3267 17.2334C83.6616 19.0614 86.0127 19.6181 88.0035 20.4254C90.3592 21.3486 92.7934 22.2626 94.7611 23.9143C96.2947 25.1623 97.5048 26.9393 97.6804 28.9528C100.285 29.143 102.761 30.0848 105.343 30.456C105.191 30.2472 104.895 29.8343 104.743 29.6302C102.992 28.9157 101.255 28.1641 99.5557 27.329C99.2924 27.2223 98.7704 27.0042 98.5118 26.8929C101.122 27.1805 103.773 27.3986 106.396 27.1851C104.101 25.9835 101.431 25.7747 98.9783 25.0463C101.394 24.7216 103.819 24.4525 106.258 24.3133C106.253 24.137 106.244 23.7844 106.235 23.6081C103.828 23.5014 101.417 23.2972 99.0337 22.9168C101.486 22.1837 104.096 21.9193 106.433 20.8197C103.907 20.4254 101.352 21.0053 98.8074 20.7965C100.923 19.9614 103.066 19.1634 105.057 18.0499C105.131 18.0082 105.283 17.92 105.362 17.8783C105.2 17.7901 104.872 17.6185 104.711 17.5303C102.424 18.1752 100.078 18.5788 97.7774 19.1541C99.7866 17.8736 101.745 16.5096 103.777 15.2616C103.607 15.0899 103.436 14.9183 103.269 14.742C102.341 15.1456 101.394 15.5075 100.461 15.8972C99.2 16.4029 97.9252 16.8761 96.6734 17.3958C98.461 15.6791 100.475 14.1667 102.013 12.2041C99.819 12.6774 98.133 14.3151 96.1653 15.3033C95.9621 15.424 95.551 15.6606 95.3478 15.7766C96.6873 13.7862 98.4286 12.0464 99.4541 9.85655C97.2092 10.9793 95.6018 13.0068 93.6249 14.51C93.7265 14.2827 93.939 13.8326 94.0452 13.6053C94.6457 12.3387 95.2461 11.0628 95.9713 9.86119C96.1468 9.21166 96.3131 8.56213 96.4702 7.90332C94.5533 9.65706 93.1122 11.8515 91.4493 13.828ZM70.5159 12.167C71.218 13.1321 72.091 13.944 72.9363 14.7744C73.0287 14.6353 73.2088 14.3522 73.2966 14.2131C73.3104 14.0228 73.3335 13.6517 73.3427 13.4661C72.442 12.9465 71.5506 12.3758 70.5159 12.167ZM62.0585 14.2131C61.9292 14.5796 61.6705 15.3173 61.5412 15.6838C61.1947 17.47 60.6866 19.2191 60.2663 20.9914C59.652 23.5292 58.9637 26.0485 58.4279 28.6095C60.8344 28.6373 63.2363 28.6327 65.6428 28.6095C64.4096 23.8215 63.2086 19.0242 62.0585 14.2131ZM68.8161 14.6492C68.83 14.8255 68.8623 15.1781 68.8762 15.3544C70.1233 16.1431 71.3612 16.9504 72.6037 17.7391C72.5206 17.8597 72.3543 18.0963 72.2711 18.2123C71.061 18.7459 69.7445 17.8087 68.4835 17.7762C68.1325 17.6602 67.7815 17.5489 67.4304 17.4329C67.4258 17.6185 67.4119 17.985 67.4027 18.1706C69.4766 19.0474 71.5321 19.9568 73.6107 20.8244C71.0702 20.9914 68.5113 20.3883 65.9939 20.8383C68.3727 21.8172 70.927 22.2348 73.4028 22.9075C71.0563 23.2555 68.7006 23.5107 66.3311 23.5988L66.368 24.3226C68.7237 24.4478 71.0702 24.6891 73.3982 25.0463C70.9362 25.7191 68.3588 26.0809 66.0124 27.1341C68.6036 27.4589 71.2319 27.1295 73.8185 26.8929C73.4074 27.0692 72.9917 27.2455 72.5806 27.4125L72.5483 27.5749C71.9709 27.8068 71.3981 28.0481 70.8254 28.2847C69.6983 28.8043 68.5574 29.2961 67.4027 29.7508C67.3981 29.9271 67.3981 30.2797 67.3981 30.456C68.5297 30.1684 69.6752 29.941 70.83 29.7601C70.5482 29.7601 70.2665 29.7601 69.9847 29.7601C71.5413 29.5374 73.0748 29.1569 74.6268 28.8878C72.5159 30.2983 70.2157 31.4674 68.3588 33.2258C70.3958 32.9196 72.2157 31.9035 74.1326 31.2169C74.6869 30.9942 75.2412 30.7669 75.7908 30.5302C74.0171 32.2654 72.0448 33.8197 70.4974 35.7683C72.9778 35.0584 74.9964 33.2954 77.2227 32.0427C76.1188 33.5413 75.001 35.0352 73.8786 36.5199C73.4628 36.9652 73.315 37.5545 73.2134 38.139C75.2643 36.7101 77.0472 34.9285 78.978 33.3371C78.7655 33.7315 78.5622 34.1259 78.359 34.5202C77.6246 36.3436 76.2804 37.9581 76.0403 39.9438C77.8971 38.3849 79.1211 36.2368 80.8025 34.5109C82.9134 34.6223 85.0381 35.2254 87.1536 34.5527C88.1329 34.0331 88.9735 33.3139 89.5139 32.3304C89.5047 31.8711 89.4955 31.4164 89.4908 30.9617C88.9643 30.0153 88.3546 29.0549 87.3338 28.5956C83.5462 26.5774 78.8763 26.1552 75.6846 23.056C74.3312 21.8961 73.6615 20.2166 73.024 18.5974C72.964 17.8319 73.0287 17.0571 72.9594 16.2916C71.6152 15.6467 70.2111 15.1595 68.8161 14.6492ZM97.8374 29.6673C98.23 30.9756 97.8559 32.284 97.7219 33.5877C99.1123 34.3671 100.373 35.4667 101.981 35.7683C100.881 34.1212 99.0014 33.184 98.1145 31.3607C100.133 31.7551 101.958 32.7618 103.93 33.3371C103.741 33.0402 103.551 32.7433 103.362 32.4464C101.736 31.4025 100.091 30.3818 98.5441 29.2219C98.3085 29.3704 98.073 29.5188 97.8374 29.6673ZM97.0291 35.6847C97.0106 35.8564 96.9783 36.1951 96.9644 36.3668C97.5418 36.8493 98.1192 37.341 98.6827 37.8468C98.8813 37.8282 99.2785 37.7911 99.4772 37.7725C98.8213 36.8864 98.1792 35.9909 97.5603 35.077C97.4309 35.2301 97.163 35.5363 97.0291 35.6847Z" fill="#525253"/>
<path d="M99.7424 51.5844C99.2574 49.5198 101.17 47.6686 103.184 47.9516C104.066 48.0444 104.957 48.1326 105.849 48.1511C105.779 48.9816 105.738 49.8121 105.696 50.6426C105.271 49.9049 104.948 49.0605 104.227 48.5548C103.391 48.3646 102.541 48.4898 101.705 48.5641C101.336 49.3342 100.698 50.2482 101.276 51.0926C102.431 52.9298 104.934 53.3428 106.02 55.2403C106.837 56.8595 106.047 59.054 104.338 59.7082C102.703 60.0561 101.022 59.6989 99.4375 59.2581C99.5668 58.3906 99.6638 57.5183 99.7424 56.6461C99.9364 58.1679 101.091 59.5551 102.74 59.3649C104.172 59.6154 105.331 57.9776 104.708 56.6879C103.548 54.5351 100.213 54.2104 99.7424 51.5844Z" fill="#525253"/>
<path d="M37.1407 48.1048C38.1246 48.0537 39.1085 48.0212 40.0923 48.0027C40.9561 50.4616 41.7967 52.9299 42.6143 55.4074C43.2656 56.9338 43.3857 58.9566 45.1363 59.6803C43.769 59.6711 42.4018 59.6572 41.0392 59.7221C42.4203 59.0123 41.5889 57.7503 41.2979 56.6971C41.0808 56.1311 40.8637 55.5697 40.6466 55.0084C39.4595 55.013 38.2678 55.013 37.0807 55.0176C36.7851 55.9223 36.4664 56.8178 36.0691 57.6807C35.8613 58.5901 36.1938 59.2767 36.9929 59.685C35.9999 59.6618 35.0068 59.6757 34.0137 59.7082C35.9629 58.4462 35.949 55.8945 36.7943 53.9366C37.3394 52.1875 37.8983 50.4477 38.4433 48.6986C38.0091 48.5038 37.5749 48.3043 37.1407 48.1048ZM38.7435 49.6172C38.4803 50.3967 38.2539 51.1947 37.9953 51.9788C37.7458 52.7999 37.4918 53.6165 37.2608 54.4423C38.3047 54.4423 39.3486 54.4423 40.3925 54.4423C40.0092 52.7814 39.4503 51.1622 38.7435 49.6172Z" fill="#525253"/>
<path d="M45.7539 50.5497C47.8094 50.7306 50.6778 49.8027 52.0589 51.8395C52.7425 53.2452 51.8048 54.4793 50.6224 55.1521C51.7448 56.2516 52.4931 57.6481 53.4584 58.873C53.9711 59.6663 55.052 59.2998 55.8188 59.374C56.0035 56.595 55.9019 53.8066 55.8834 51.0229C55.6525 50.9023 55.1813 50.661 54.9504 50.545C56.1236 50.5265 57.3015 50.5218 58.4793 50.5636C58.1929 50.6703 57.6248 50.893 57.3384 50.9997C57.3015 53.7045 57.3107 56.4094 57.3338 59.1142C57.6155 59.2348 58.1791 59.4854 58.4608 59.6107C56.4054 59.7452 54.3545 59.4761 52.3037 59.7034C51.2274 58.1538 50.045 56.646 49.426 54.8366C50.918 54.419 51.2644 52.5308 50.1835 51.5008C49.7494 50.7399 48.8209 50.9672 48.0957 50.828C48.0957 52.2617 48.1004 53.6953 48.1004 55.1242C48.2343 56.6414 47.6292 58.4229 48.7424 59.6802C48.1835 59.6895 47.0611 59.6988 46.5022 59.7081C46.8717 56.8269 46.6408 53.9133 46.6639 51.0183C46.4375 50.9023 45.9802 50.6703 45.7539 50.5497Z" fill="#525253"/>
<path d="M59.4611 50.5266C62.0616 50.5359 64.6621 50.522 67.2626 50.5359C65.318 53.4866 63.221 56.3353 61.1886 59.2257C63.0685 59.2025 65.027 59.4902 66.833 58.8081C67.0409 58.386 67.2441 57.9684 67.452 57.5508C67.4243 58.256 67.3873 58.9613 67.3504 59.6711C64.6344 59.6757 61.9184 59.685 59.207 59.6525C61.2625 56.7528 63.4011 53.9042 65.4242 50.9766C63.826 50.972 62.2279 50.9766 60.6297 50.972C60.4034 51.1158 59.9507 51.4081 59.7244 51.5519C59.6135 51.8071 59.3918 52.3128 59.2809 52.5634C59.3502 51.886 59.4103 51.204 59.4611 50.5266Z" fill="#525253"/>
<path d="M77.4961 50.4988C78.152 50.5127 78.8033 50.5313 79.4592 50.5313C79.6301 50.6426 79.9765 50.8653 80.1474 50.9813C82.0689 53.1294 83.9535 55.3053 85.9027 57.4349C85.8611 55.3239 86.0274 53.2036 85.8242 51.1019C85.5932 50.9442 85.1313 50.6333 84.9004 50.4802C85.7919 50.5266 86.6833 50.5359 87.5748 50.573C87.2838 50.6844 86.7018 50.9024 86.4108 51.0138C86.3508 54.0387 86.4431 57.0637 86.3415 60.0887C84.1152 57.4581 81.7825 54.9249 79.5192 52.3314C79.51 54.5816 79.5007 56.8317 79.5238 59.0819C79.8934 59.2582 80.2583 59.4391 80.6232 59.6247C79.7779 59.6525 78.9372 59.6618 78.0966 59.6572C78.3275 59.5134 78.7894 59.2164 79.0204 59.068C78.988 56.5719 79.1867 54.0573 78.9234 51.5705C78.4707 51.1854 77.9857 50.8328 77.4961 50.4988Z" fill="#525253"/>
<path d="M107.102 50.3687C109.85 50.6285 112.631 50.6053 115.383 50.4012C115.383 51.0229 115.397 51.6492 115.416 52.2709C114.982 51.8534 114.571 51.4172 114.183 50.9626C113.656 50.9718 112.598 50.9951 112.072 51.009C112.113 53.7092 111.998 56.414 112.062 59.1142C112.363 59.2905 112.663 59.4622 112.963 59.6385C111.836 59.6756 110.714 59.6802 109.591 59.6431C109.822 59.5086 110.279 59.2395 110.51 59.1049C110.538 56.4465 110.534 53.7927 110.515 51.1389C109.591 51.1667 108.677 51.2038 107.757 51.2827C107.587 51.7095 107.416 52.1364 107.245 52.5586C107.189 51.8302 107.148 51.0971 107.102 50.3687Z" fill="#525253"/>
<path d="M118.704 50.3828C119.083 50.4106 119.466 50.4385 119.849 50.4663C120.113 51.3154 120.399 52.1597 120.676 53.0041C121.212 54.4841 121.738 55.9688 122.136 57.4952C122.505 58.2746 122.958 59.017 123.466 59.7175C122.385 59.685 121.309 59.6618 120.233 59.6108C120.482 59.4809 120.99 59.2165 121.244 59.0819C120.958 58.0427 120.611 57.022 120.311 55.9873C119.341 55.9688 118.367 55.9642 117.397 55.9595C117.064 56.9895 116.75 58.0241 116.44 59.0633C116.69 59.1979 117.193 59.4716 117.447 59.6108C116.63 59.6479 115.817 59.6758 115.004 59.7268C115.397 59.2582 115.812 58.8082 116.246 58.3813C116.348 57.8339 116.473 57.2911 116.611 56.7529C116.782 56.2564 116.958 55.7647 117.129 55.2729C117.595 53.6258 118.149 52.002 118.704 50.3828ZM117.558 55.4909C118.408 55.5048 119.263 55.5095 120.117 55.5095C119.674 54.2383 119.24 52.967 118.856 51.6772C118.334 52.916 117.914 54.1965 117.558 55.4909Z" fill="#525253"/>
<path d="M123.355 50.3687C126.094 50.6332 128.865 50.61 131.609 50.3919C131.595 51.0182 131.595 51.6446 131.609 52.2709C131.17 51.8534 130.741 51.4219 130.353 50.9579C129.859 50.9672 128.879 50.9904 128.39 50.9997C128.32 51.2456 128.186 51.7327 128.117 51.974C128.367 54.3448 128.177 56.7341 128.251 59.1142C128.551 59.2905 128.856 59.4668 129.156 59.6431C128.029 59.6802 126.902 59.6756 125.775 59.6385C126.08 59.4575 126.385 59.2812 126.694 59.1049C127.055 56.581 126.782 54.0247 126.879 51.4868C126.755 51.3662 126.505 51.1296 126.38 51.009C125.928 50.9997 125.022 50.9765 124.57 50.9672C124.173 51.4126 123.766 51.8441 123.346 52.2709C123.355 51.6353 123.355 50.9997 123.355 50.3687Z" fill="#525253"/>
<path d="M73.3097 50.4013C74.871 50.3781 75.9103 51.4313 76.8294 52.5355C77.7024 53.9412 77.4345 55.7275 77.102 57.2678C76.3953 58.1493 75.6701 59.0818 74.6031 59.5504C72.4598 60.1582 69.7531 59.8056 68.5522 57.6853C66.5429 54.716 68.894 50.2482 72.5199 50.1322C70.3767 50.4662 69.9748 52.4195 69.3281 54.0016C69.4621 55.0965 69.6145 56.1914 69.7716 57.2863C70.4367 58.5715 71.5868 59.7406 73.1666 59.3695C74.5153 59.4994 75.0188 58.1122 75.6608 57.2075C75.7347 55.7321 75.998 54.1268 75.2682 52.7628C74.8617 51.7885 73.9749 51.1761 73.3097 50.4013Z" fill="#525253"/>
<path d="M91.1001 50.225C91.3495 50.3224 91.8576 50.5126 92.1117 50.6101C93.4882 53.5701 93.7607 57.0822 95.7746 59.7081C94.6983 59.6849 93.6175 59.6664 92.5413 59.6154C92.7861 59.4808 93.2711 59.2164 93.5159 59.0818C93.2341 58.0472 92.9015 57.0219 92.6105 55.9919C91.6359 55.9687 90.6613 55.9641 89.6913 55.9594C89.3634 56.9894 89.0354 58.0194 88.7121 59.054C88.9708 59.1932 89.4927 59.4715 89.7514 59.6107C88.9199 59.6478 88.0885 59.671 87.2617 59.6989C87.659 59.3091 88.0562 58.9194 88.4488 58.5251C88.592 57.9405 88.7444 57.3606 88.9107 56.7853C89.0724 56.2888 89.2202 55.7878 89.3865 55.296C89.9269 53.5933 90.4396 51.8859 91.1001 50.225ZM89.8207 55.4908C90.6798 55.5047 91.5343 55.5094 92.3934 55.5094C91.9546 54.2382 91.5343 52.9623 91.1417 51.6771C90.629 52.9205 90.204 54.201 89.8207 55.4908Z" fill="#525253"/>
<path d="M133.379 50.5173C135.097 50.5451 136.816 50.4709 138.529 50.5776C138.497 50.9627 138.428 51.7282 138.391 52.1133C138.248 51.7143 138.104 51.3153 137.966 50.9209C136.959 50.9024 135.952 50.8977 134.95 50.9024C134.968 52.2757 134.908 53.6629 135.171 55.0222C135.91 54.999 136.654 54.9666 137.398 54.9341C137.601 54.5769 137.809 54.2196 138.017 53.8624C138.04 54.6511 138.049 55.4444 138.049 56.2378C137.906 56.0197 137.615 55.5883 137.472 55.3748C136.631 55.3563 135.795 55.3516 134.959 55.3702C134.94 56.8317 134.853 58.3349 135.508 59.6896C134.973 59.6942 133.901 59.7082 133.365 59.7128C133.749 56.6739 133.73 53.5562 133.379 50.5173Z" fill="#525253"/>
<path d="M44.5449 63.0579C45.9122 63.0857 47.284 63.0811 48.6512 63.0532C48.4018 63.2991 47.8983 63.7863 47.6489 64.0322C47.478 66.3798 47.5565 68.7505 47.6073 71.1028C47.5889 72.1328 48.3233 72.9308 48.9838 73.6267C50.0138 73.6174 51.0439 73.6452 52.0601 73.455C52.0416 73.636 52.0046 73.9978 51.9862 74.1788C50.933 74.0442 49.7275 73.7937 48.9422 74.717C47.4457 74.3551 46.1939 73.2045 45.9491 71.6456C45.4872 69.0196 46.1523 66.2823 45.6027 63.6749C45.3394 63.5218 44.8082 63.211 44.5449 63.0579Z" fill="#525253"/>
<path d="M53.3531 63.0764C54.0229 63.0718 55.3716 63.0671 56.046 63.0671C54.9236 63.8883 55.4548 65.2941 55.2654 66.4354C54.9374 68.5928 55.1915 70.7827 55.0668 72.9586C55.2746 73.7009 55.7227 74.253 56.4063 74.6195C55.6903 74.6149 54.2538 74.6056 53.5332 74.6056C53.5101 73.8447 53.6857 73.005 53.1406 72.3879C53.8704 69.3583 53.4455 66.1617 53.3531 63.0764Z" fill="#525253"/>
<path d="M64.7205 65.4333C65.4919 65.4055 66.2679 65.3869 67.0393 65.3683C67.0347 65.4565 67.0347 65.6328 67.03 65.7209L66.4342 65.6885C66.351 67.02 66.351 68.3562 66.3557 69.6924C66.1201 70.7455 66.0277 71.8405 66.2587 72.9076C66.3002 73.3344 66.3788 74.1881 66.4203 74.6149C66.2633 74.5963 65.9538 74.5639 65.8014 74.5453C64.0369 72.5086 62.2263 70.5089 60.4664 68.4675C60.1246 67.985 59.4687 67.9433 59.0946 67.5118C58.7943 66.6952 58.3001 66.0086 57.6211 65.4519C58.1523 65.5122 59.21 65.6328 59.7412 65.6931C61.7366 67.8598 63.7367 70.0264 65.6028 72.3091C65.9307 70.4811 65.9584 68.6299 65.9353 66.7788C65.8245 66.5236 65.6028 66.0132 65.4965 65.7581C65.3025 65.6792 64.9145 65.5168 64.7205 65.4333Z" fill="#525253"/>
<path d="M78.6019 65.4379C79.3963 65.4055 80.1908 65.3869 80.9853 65.3683C79.7382 66.8437 79.304 68.7552 78.6527 70.5275C78.1908 71.8544 77.7012 73.1767 77.3224 74.5314C77.2023 74.5407 76.9667 74.5639 76.8466 74.5731C76.006 72.1188 74.8697 69.7852 74.0568 67.3216C73.6595 66.7324 73.2669 66.1431 72.8789 65.5539C73.484 65.5539 74.6988 65.5493 75.3039 65.5493C75.1099 67.4097 76.3201 68.9825 76.7958 70.7131C77.073 71.2281 77.364 71.743 77.6642 72.2534C78.103 70.5924 78.6065 68.9361 79.3132 67.3633C79.3502 66.9783 79.4287 66.2035 79.4702 65.8184C79.2532 65.721 78.819 65.5307 78.6019 65.4379Z" fill="#525253"/>
<path d="M81.8711 65.4518C83.9358 65.41 85.9913 65.2059 88.0606 65.2012C86.8966 65.3358 85.7234 65.3729 84.5547 65.4239C84.4208 66.9225 84.4346 68.4257 84.467 69.9243C85.5063 69.8918 86.5455 69.8176 87.5802 69.7248L87.5848 70.4764C86.5502 70.3233 85.5016 70.2629 84.4577 70.2351C84.4393 71.5295 84.4346 72.824 84.5178 74.1184C85.8204 74.1694 87.6541 74.6427 88.1945 73.0559C88.1483 73.557 88.1022 74.0627 88.0606 74.5684C86.0975 74.5731 84.1344 74.6287 82.1713 74.5731C82.4023 74.406 82.8549 74.0766 83.0813 73.9142C83.0582 71.214 83.1367 68.5138 83.0258 65.8183C82.6379 65.6977 82.2545 65.577 81.8711 65.4518Z" fill="#525253"/>
<path d="M89.2754 65.4472C90.795 65.3637 92.3147 65.424 93.8344 65.3498C94.8367 65.8741 96.3286 66.3891 96.1208 67.8227C96.3564 68.9965 95.2293 69.5161 94.4626 70.0868C95.8898 71.3997 96.6427 73.2509 98.0469 74.5824C98.9984 74.1834 99.1278 73.3251 99.0169 72.3694C99.3033 72.8565 99.5989 73.3344 99.8991 73.8123C100.181 73.9886 100.749 74.3365 101.035 74.5082C102.264 74.7912 102.938 73.8494 103.507 72.9261C102.869 71.3209 101.234 70.6574 99.9915 69.6367C98.5781 68.449 99.1416 65.8416 100.906 65.3452C101.936 65.2431 102.966 65.3684 104.001 65.3916C103.978 66.0643 103.955 66.7324 103.936 67.4097C103.571 66.8344 103.206 66.2638 102.837 65.6978C102.107 65.7071 101.382 65.7256 100.657 65.7534C100.606 66.6674 100.075 67.9108 101.068 68.5232C102.31 69.6692 104.694 70.3651 104.444 72.4575C104.504 73.7473 103.239 74.3644 102.352 75C100.333 74.4201 98.2779 74.5824 96.2085 74.5778C94.7628 73.1256 94.2177 70.676 92.0191 70.1053C92.0191 71.6132 91.705 73.2277 92.4256 74.6335C91.9175 74.6381 90.9013 74.6428 90.3932 74.6428C90.7211 71.7059 90.5641 68.7366 90.4994 65.7859C90.093 65.6699 89.6819 65.5586 89.2754 65.4472ZM91.9729 65.7674C91.9775 67.1871 91.9637 68.6114 91.996 70.0311C93.0491 69.8733 94.7351 69.595 94.6427 68.1753C94.9014 67.0943 94.0053 66.3983 93.3309 65.7442C92.9891 65.7488 92.3101 65.7627 91.9729 65.7674Z" fill="#525253"/>
<path d="M110.725 65.2246C113.39 65.721 116.157 65.7674 118.822 65.2524C118.817 65.7118 118.803 66.635 118.799 67.099C118.286 65.6004 116.646 66.2546 115.524 66.0644C115.556 68.6764 115.436 71.2931 115.575 73.9005L116.438 74.5871C115.81 74.6011 114.558 74.6335 113.935 74.6521C114.29 71.8034 114.046 68.9223 114.106 66.0597C113.21 66.0829 112.323 66.12 111.431 66.1803C111.247 66.5747 111.057 66.9691 110.872 67.3634C110.822 66.6536 110.771 65.9391 110.725 65.2246Z" fill="#525253"/>
<path d="M125.185 65.4658C126.197 65.4565 127.213 65.308 128.229 65.4379C127.883 65.5771 127.532 65.707 127.172 65.8137C126.146 67.1638 125.246 68.6021 124.322 70.0171C124.363 71.5621 124.095 73.172 124.756 74.6334C124.248 74.6334 123.241 74.6381 122.733 74.6427C122.973 73.0746 123.084 71.4461 122.839 69.8779C121.864 68.3701 121.107 66.5885 119.541 65.5957C120.46 65.6003 121.384 65.5817 122.303 65.54C122.303 67.0525 123.444 68.1567 124.215 69.349C124.922 68.2263 125.657 67.1174 126.229 65.9158C125.966 65.7998 125.449 65.5771 125.185 65.4658Z" fill="#525253"/>
<path d="M69.127 65.5586C69.6535 65.5586 70.702 65.554 71.2286 65.5493C70.5588 66.9968 70.7713 68.6021 70.7436 70.1424C70.7575 71.6503 70.5819 73.2138 71.2332 74.6335C70.7113 74.6335 69.6674 74.6381 69.1454 74.6381C69.6581 72.1374 69.6812 69.5625 69.4087 67.0293C69.3394 66.6628 69.1962 65.9298 69.127 65.5586Z" fill="#525253"/>
<path d="M106.989 65.554C107.409 65.5493 108.245 65.54 108.661 65.5354C108.398 68.1521 108.532 70.7873 108.532 73.4133C108.656 73.7195 108.915 74.3273 109.044 74.6335C108.43 74.6335 107.206 74.6289 106.592 74.6289C106.721 74.3273 106.984 73.7288 107.114 73.4319C107.123 70.8059 107.243 68.1706 106.989 65.554Z" fill="#525253"/>
</svg>
