<svg width="200" height="80" viewBox="0 0 200 80" fill="none" xmlns="http://www.w3.org/2000/svg">
<path d="M29.0921 21.8737C32.0274 19.7439 35.5058 18.5046 39.0593 17.8877C41.07 17.6463 43.1021 17.6463 45.1074 17.893C54.1177 19.143 61.9022 26.1602 63.9881 35.0121C64.4343 37.4048 64.7085 39.8297 64.5096 42.2654C64.1548 44.8351 63.5204 47.3619 62.4291 49.7278C62.2893 49.9907 62.0097 50.5272 61.8646 50.79C61.7248 51.0529 61.4453 51.5733 61.3001 51.8362C57.8325 57.5926 51.6501 61.5894 44.9838 62.4638C43.0753 62.7857 41.1076 62.7911 39.2045 62.4638C37.3067 62.2278 35.4681 61.6967 33.6725 61.0583C26.2751 58.1023 20.8614 51.1066 19.7001 43.2632C19.469 41.2514 19.469 39.2181 19.6894 37.2063C20.6517 31.1226 23.9741 25.3823 29.0921 21.8737ZM27.5653 25.1623C37.2207 25.275 46.8815 25.3072 56.5315 25.1516C52.9941 22.1366 48.704 20.039 44.0644 19.481C38.0486 18.8855 32.0705 21.2621 27.5653 25.1623ZM22.372 33.4617C19.9904 40.0282 21.4904 47.5336 25.6783 53.0325C25.8181 53.0808 26.0869 53.1827 26.2267 53.2364C28.3879 49.0787 30.8823 45.1033 33.1188 40.9885C33.8499 39.7439 34.5542 38.4832 35.2531 37.2171C37.3121 33.8319 39.0916 30.2804 41.2098 26.9327C36.1778 26.9005 31.1458 26.9435 26.1192 26.9113C24.4848 28.8533 23.2806 31.1012 22.372 33.4617ZM42.8387 26.9274C43.7258 27.9574 44.2526 29.2181 44.9192 30.3877C48.7362 36.9703 52.4457 43.6173 56.2197 50.2267C56.8111 51.2192 57.3648 52.2332 57.8917 53.2632C58.0476 53.1827 58.3594 53.0164 58.5153 52.936C58.6766 52.6838 58.9991 52.1741 59.1658 51.9166C60.3002 50.2535 61.1764 48.4402 61.8431 46.5411C62.0097 45.9832 62.1871 45.4306 62.3753 44.878C63.0419 40.3179 62.9398 35.4842 60.8163 31.289C60.6819 31.0207 60.4077 30.4789 60.2679 30.2106C59.5851 29.0733 58.8432 27.9735 58.0261 26.9274C52.9618 26.9166 47.8976 26.9166 42.8387 26.9274ZM30.5168 49.0411C29.7534 50.5057 28.6674 51.8415 28.3502 53.4993C32.6027 53.51 36.8498 53.4885 41.1022 53.51C41.1399 45.7793 41.2958 38.0325 41.0162 30.3072C37.753 36.6752 34.0058 42.7911 30.5168 49.0411ZM42.7957 30.9188C42.9032 34.4703 42.6237 38.0379 42.9462 41.584C42.6613 45.3501 42.828 49.143 42.8441 52.9145C42.957 53.0593 43.1828 53.3437 43.2957 53.4832C47.4729 53.5261 51.6554 53.4939 55.838 53.4939C55.6606 52.9145 55.4348 52.3566 55.1606 51.8201C51.2791 44.937 47.2793 38.113 43.4892 31.187C43.3172 31.1173 42.9677 30.9832 42.7957 30.9188ZM27.6029 55.275C31.9522 59.025 37.6293 61.2943 43.4247 60.951C48.2847 60.5593 52.7952 58.4081 56.4939 55.3018C54.1016 55.0443 51.6985 55.1999 49.3007 55.1623C42.0699 55.2321 34.8284 55.0121 27.6029 55.275Z" fill="#525253"/>
<path d="M100.88 37.1635C105.234 34.7816 109.519 32.2708 113.906 29.9532C114.331 30.8545 114.825 31.7129 115.347 32.5605C113.261 33.8213 111.073 34.8942 108.96 36.1013C107.713 36.8363 106.455 37.5391 105.197 38.2472C104.175 38.8535 103.148 39.449 102.084 39.9747C104.288 41.1067 106.39 42.4264 108.567 43.612C110.809 44.9318 113.105 46.1657 115.395 47.3996C114.793 48.2043 114.314 49.0895 113.917 50.0069C107.831 46.7934 101.901 43.2902 95.8691 39.9747C97.5787 39.111 99.2184 38.1131 100.88 37.1635Z" fill="#525253"/>
<path d="M75.0468 43.6764C77.622 39.4328 79.6971 34.8405 82.6109 30.8384C83.8851 33.451 85.5086 35.8652 86.8634 38.4403C87.5946 39.6849 88.2988 40.951 88.9977 42.2171C90.1912 44.3309 91.4384 46.4231 92.605 48.5583C91.6535 48.8534 90.8094 49.3631 90.0783 50.0337C88.5139 47.6839 87.2075 45.1678 85.7667 42.7375C85.0732 41.4714 84.3797 40.2053 83.6163 38.9768C83.3098 38.3437 82.9819 37.7161 82.6808 37.0723C82.5518 37.0884 82.2884 37.1259 82.1594 37.142C80.0143 41.4392 77.4015 45.4843 75.1651 49.7332C74.2297 49.4435 73.3426 49.0358 72.4609 48.612C72.977 46.8094 74.235 45.3502 75.0468 43.6764Z" fill="#525253"/>
<path d="M122.035 31.0314C128.196 31.0206 134.357 31.026 140.518 31.026C140.513 32.0131 140.513 32.9949 140.518 33.982C137.97 33.9713 135.422 33.9927 132.879 33.9659C132.75 39.2556 132.857 44.5507 132.814 49.8404C131.798 49.8457 130.777 49.8511 129.761 49.8565C129.728 44.5614 129.804 39.2663 129.723 33.9766C127.185 33.9659 124.648 33.9337 122.121 34.202C122.073 33.1451 122.051 32.0882 122.035 31.0314Z" fill="#525253"/>
<path d="M155.741 30.9133C155.886 30.9992 156.187 31.1816 156.332 31.2674C159.407 37.099 162.977 42.6837 165.928 48.5689C165.03 48.9874 164.154 49.4541 163.315 49.9691C161.111 45.8543 158.703 41.8468 156.445 37.7642C156.294 37.5067 155.988 36.9917 155.837 36.7341C155.101 38.4348 154.085 39.9906 153.208 41.6215C151.623 44.4434 149.994 47.2438 148.359 50.0442C147.607 49.4005 146.746 48.9123 145.838 48.5421C148.999 42.5925 152.493 36.8146 155.741 30.9133Z" fill="#525253"/>
<path d="M177.188 30.5056C178.3 30.5056 179.413 30.5271 180.526 30.5593V49.8028C179.413 49.835 178.3 49.8457 177.193 49.8511C177.187 43.4026 177.204 36.9541 177.188 30.5056Z" fill="#525253"/>
</svg>
