<svg width="200" height="80" viewBox="0 0 200 80" fill="none" xmlns="http://www.w3.org/2000/svg">
<path d="M46.662 15.5343C48.8915 12.7658 53.0761 11.8037 56.2661 13.4039C58.2898 14.2973 59.6569 16.1577 60.7447 18.0131C66.0956 27.3836 71.3828 36.7885 76.7679 46.1443C78.1301 48.4857 79.6687 51.2247 78.7377 54.0128C78.2183 56.5751 76.0672 58.4354 73.7642 59.4319C72.4314 60.0749 70.7555 59.5742 69.5844 60.6296H40.4438C37.9644 60.1289 35.3281 60.7965 32.9124 59.9325C29.7764 59.0441 27.3705 56.1529 26.998 52.9182V51.5585C27.2479 49.7079 28.1349 48.039 29.0316 46.4339C33.7258 38.0647 38.3809 29.671 43.0751 21.3019C44.2413 19.363 45.2312 17.3014 46.662 15.5343ZM48.9307 18.7838C47.6322 20.9288 46.466 23.1475 45.2361 25.3318C41.6149 31.5658 38.327 38.0009 34.5441 44.1318C35.6368 43.8225 36.7639 43.69 37.8958 43.6164C40.4193 39.1103 42.982 34.6238 45.5007 30.1177C46.2406 28.8562 46.9413 27.5751 47.6665 26.3037C48.9405 24.1636 49.9842 21.8713 51.4248 19.8391C52.2382 18.5727 54.3257 19.0439 54.7177 20.4232C54.9872 21.3068 54.4923 22.1511 54.0758 22.8923C50.1018 29.8183 46.2259 36.7983 42.2127 43.6998C43.2074 43.6998 44.207 43.7391 45.2018 43.6605C48.622 37.996 51.7433 32.145 55.0656 26.4166C55.9672 24.6544 57.3882 22.9806 57.3049 20.8895C57.3931 18.4009 54.8941 16.2362 52.444 16.57C50.974 16.5945 49.6412 17.5222 48.9307 18.7838ZM59.8529 24.2568C59.7598 25.4349 59.26 26.5099 58.9415 27.6291C63.2389 35.4288 67.7616 43.1157 72.1129 50.886C72.6176 51.6272 72.3824 52.5206 72.255 53.3403C71.5347 53.5759 70.8486 54.1846 70.045 53.9686C69.0356 53.4532 68.5554 52.3782 68.0115 51.4456C64.3512 44.8877 60.534 38.4182 56.908 31.8455C56.7806 31.8357 56.5258 31.8161 56.3935 31.8063C55.9819 32.5916 55.5507 33.3721 55.0999 34.1379C58.8631 40.6319 62.5529 47.1751 66.2867 53.6888C66.9139 54.8472 67.9135 55.721 69.0013 56.4327C70.4958 56.6389 72.1717 56.6585 73.3477 55.5541C75.293 54.1306 75.4204 51.2001 74.166 49.2809C69.5795 41.2651 65.0421 33.215 60.436 25.2091C60.289 24.9686 59.995 24.4925 59.8529 24.2568ZM49.6118 43.7096C51.8609 43.7489 54.115 43.744 56.3641 43.7145C55.144 41.81 54.0366 39.8367 52.9536 37.8586C51.856 39.8171 50.8172 41.81 49.6118 43.7096ZM30.7809 52.2653C31.0063 54.6067 33.0594 56.6634 35.4751 56.5456C45.0303 56.6094 54.5854 56.5407 64.1405 56.5751C63.3075 55.8093 62.6166 54.9111 61.9795 53.9833C52.8703 53.9833 43.7611 54.003 34.6568 53.9686C33.52 53.2961 33.2211 52.0052 33.7013 50.8124C33.9806 50.6504 34.5441 50.3264 34.8234 50.1644C43.1682 50.0761 51.5179 50.1743 59.8627 50.1153C59.3482 49.2711 58.8533 48.417 58.3829 47.5481C50.7094 47.504 43.031 47.5138 35.3575 47.5432C32.883 47.5138 30.7074 49.8012 30.7809 52.2653Z" fill="#525253"/>
<path d="M88.528 34.8252C89.8069 34.835 91.0859 34.8399 92.3697 34.8301C92.7617 35.7431 93.1537 36.661 93.5212 37.5838C94.6923 40.3081 95.7654 43.0716 96.9708 45.7812C95.8536 45.7861 94.7364 45.7812 93.6192 45.7468C93.335 44.9565 93.0312 44.1712 92.7274 43.3809C91.1937 43.3809 89.655 43.3809 88.1164 43.3809C87.8175 44.1663 87.5186 44.9467 87.254 45.7419C86.1368 45.7812 85.0147 45.7861 83.8926 45.7714C85 43.1944 86.078 40.6026 87.1511 38.0109C87.597 36.9457 88.0478 35.8805 88.528 34.8252ZM90.2675 37.7556C89.9098 38.9533 89.4443 40.1118 88.9151 41.2456C89.9245 41.2506 90.9438 41.2506 91.9581 41.2506C91.4534 40.1167 91.0026 38.9533 90.6449 37.7605C90.5469 37.7605 90.3606 37.7556 90.2675 37.7556Z" fill="#525253"/>
<path d="M94.3008 34.8741C95.4376 34.8348 96.5744 34.8299 97.7112 34.8201C98.6716 37.3529 99.8868 39.8023 100.568 42.4333C100.686 42.2026 100.921 41.7363 101.038 41.5056C101.94 39.2771 102.783 37.0289 103.738 34.825C104.806 34.8348 105.88 34.8348 106.953 34.8446C106.384 36.4546 105.649 37.9959 105.007 39.5765C104.517 40.7104 104.018 41.8394 103.557 42.9831C103.155 43.8912 102.807 44.8189 102.352 45.7024C101.239 45.8497 100.117 45.7712 99.0048 45.7613C98.5344 44.4998 97.9905 43.2727 97.4417 42.0455C96.4127 39.6452 95.4768 37.2056 94.3008 34.8741Z" fill="#525253"/>
<path d="M107.17 34.8645C110.546 34.8154 113.927 34.8252 117.308 34.8596C117.127 35.586 117.538 36.6806 116.779 37.147C114.643 37.2304 112.506 37.1519 110.37 37.1764C110.389 37.8342 110.409 38.4919 110.428 39.1497C112.477 39.1349 114.52 39.1399 116.568 39.1399C116.568 39.6749 116.568 40.7401 116.568 41.2751C114.471 41.2653 112.369 41.2506 110.267 41.2898C110.252 41.9525 110.237 42.6151 110.213 43.2778C112.521 43.8079 114.912 43.3907 117.254 43.5625C117.254 44.1074 117.254 45.2069 117.254 45.7566C113.981 45.8106 110.713 45.7665 107.444 45.7861C107.366 42.1439 107.684 38.4821 107.17 34.8645Z" fill="#525253"/>
<path d="M118.416 34.8347C121.616 35.0801 124.977 34.2751 128.054 35.3796C128.378 35.9588 128.701 36.5331 129.025 37.1123C129.412 39.1101 128.162 41.211 126.055 41.4368C127.368 42.8112 128.486 44.3525 129.73 45.7858C128.461 45.7809 127.197 45.7809 125.933 45.7662C124.556 43.7536 123.179 41.7411 121.797 39.7286C123.027 39.7139 124.262 39.7139 125.492 39.6402C125.717 39.2328 125.947 38.8303 126.183 38.4278C125.84 37.7553 125.31 37.2497 124.624 36.9454C123.737 37.181 122.792 37.3135 121.929 36.911C121.817 37.0583 121.586 37.3528 121.469 37.4952C121.464 40.2587 121.469 43.0222 121.469 45.7858C120.454 45.7809 119.435 45.7809 118.416 45.776C118.431 42.1289 118.441 38.4818 118.416 34.8347Z" fill="#525253"/>
<path d="M128.453 34.8546C129.649 34.835 130.849 34.835 132.045 34.8252C133.005 36.391 134.02 37.9225 134.833 39.5669C135.774 37.9814 136.773 36.4303 137.729 34.8497C138.929 34.835 140.135 34.835 141.34 34.8301C139.718 37.1028 138.082 39.3755 136.543 41.7021C136.313 43.0422 136.484 44.4166 136.455 45.7714C135.441 45.7763 134.436 45.7861 133.427 45.791C133.299 44.2055 133.868 42.3992 132.804 41.0395C131.359 38.9779 129.997 36.8475 128.453 34.8546Z" fill="#525253"/>
<path d="M134.653 49.276C135.633 49.2662 136.618 49.2613 137.603 49.2515C137.897 53.0262 138.044 56.8696 137.53 60.6296H134.668C134.609 56.8451 134.639 53.0605 134.653 49.276Z" fill="#525253"/>
<path d="M97.2012 49.4379C100.47 49.4526 103.743 49.433 107.011 49.4526C107.011 50.1889 107.011 50.9203 107.011 51.6516C104.723 51.6566 102.434 51.6615 100.146 51.6516C100.136 52.1474 100.117 53.134 100.107 53.6249C102.131 53.6544 104.159 53.5513 106.183 53.6642C106.511 54.3416 106.462 55.122 106.59 55.8534C104.404 55.8829 102.219 55.8534 100.033 55.8927C100.073 56.5946 100.019 57.3113 100.176 58.0034C102.371 58.293 104.615 57.8807 106.81 58.1752C107.53 58.7151 107.011 59.849 107.202 60.6295H107.001C106.555 60.4233 106.09 60.335 105.605 60.3644C102.802 60.4577 100.004 60.4086 97.2012 60.4282C97.2061 56.7664 97.211 53.0997 97.2012 49.4379Z" fill="#525253"/>
<path d="M129.964 49.4428C130.89 49.4428 131.816 49.4428 132.742 49.4379C132.722 53.1046 132.737 56.7664 132.737 60.4282C131.463 60.4233 130.189 60.4233 128.92 60.3988C127.465 57.7825 125.833 55.2693 124.353 52.6628C124.324 55.2496 124.343 57.8414 124.343 60.4282C123.373 60.4233 122.408 60.4184 121.438 60.4135C121.442 56.7615 121.447 53.1046 121.438 49.4526C122.77 49.4379 124.103 49.4281 125.436 49.4968C126.857 52.0787 128.469 54.5477 129.978 57.0757C129.959 54.533 129.973 51.9854 129.964 49.4428Z" fill="#525253"/>
<path d="M140.841 49.6343C142.825 48.6281 145.123 49.1091 147.25 49.2269C147.26 50.0565 147.274 50.8909 147.294 51.7205C145.834 51.6076 144.378 51.534 142.918 51.5143C142.742 51.8334 142.58 52.1574 142.423 52.4862C144.05 53.9539 147.318 53.6398 147.892 56.1775C148.534 58.4698 146.505 60.4824 144.32 60.6296H141.713C140.909 60.5363 140.106 60.4382 139.307 60.3302C139.297 59.4417 139.297 58.5533 139.297 57.6648C140.576 57.8906 141.865 58.0575 143.144 58.2784C143.751 58.0771 144.359 57.8808 144.966 57.6844C144.643 55.7014 142.266 55.9124 140.89 55.0583C139.679 54.646 139.351 53.3452 138.979 52.2703C139.439 51.3033 139.782 50.1154 140.841 49.6343Z" fill="#525253"/>
<path d="M149.987 50.7976C150.845 49.7913 152.089 49.0894 153.422 49.0109C155.48 48.8783 157.822 48.7409 159.488 50.1938C162.943 53.0997 161.664 60.0061 156.867 60.6295H153.295C148.747 60.1288 147.312 54.0078 149.987 50.7976ZM153.618 51.6271C151.246 52.4273 150.947 56.1774 153.025 57.4635C154.005 58.136 155.294 58.0427 156.406 57.8071C158.655 57.0364 159.131 53.7084 157.381 52.2015C156.396 51.2443 154.858 51.3817 153.618 51.6271Z" fill="#525253"/>
<path d="M171.162 49.4379C172.108 49.4428 173.053 49.4428 173.999 49.4477V60.4282C172.715 60.4233 171.431 60.4233 170.148 60.3988C168.668 57.7923 167.08 55.2497 165.551 52.6726C165.537 55.2595 165.546 57.8463 165.546 60.4331C164.566 60.4233 163.586 60.4184 162.611 60.4086C162.616 56.7566 162.616 53.1046 162.611 49.4575C163.944 49.4428 165.277 49.4428 166.615 49.4722C168.09 52.0198 169.648 54.5183 171.177 57.0364C171.167 54.5035 171.177 51.9707 171.162 49.4379Z" fill="#525253"/>
<path d="M84.207 49.4724C86.6816 49.4429 89.1659 49.4037 91.6453 49.4724C93.8895 49.4577 95.7516 51.5144 95.928 53.6791C96.0505 55.1958 96.0652 56.85 95.2322 58.1852C94.4481 59.6087 92.8017 60.4431 91.2043 60.4137C88.8719 60.4431 86.5395 60.4235 84.207 60.4038C84.2168 56.7568 84.2217 53.1146 84.207 49.4724ZM87.3529 51.8874C87.3529 53.9049 87.3529 55.9272 87.3578 57.9495C88.9454 57.8072 90.8074 58.3324 92.1598 57.2525C93.2427 56.3543 93.0222 54.7442 92.8262 53.5122C91.8805 51.3426 89.2247 51.966 87.3529 51.8874Z" fill="#525253"/>
<path d="M108.201 49.4625C109.544 49.4379 110.886 49.433 112.224 49.4821C113.689 52.0101 115.203 54.5085 116.776 56.9726C116.82 54.4545 116.786 51.9413 116.796 49.4232C117.771 49.4379 118.751 49.4576 119.731 49.487C119.241 53.1194 119.765 56.7861 119.564 60.4185C118.281 60.4234 117.002 60.4283 115.728 60.389C114.272 57.7875 112.695 55.2546 111.151 52.7022C111.112 55.2792 111.151 57.8562 111.131 60.4332C110.156 60.4234 109.181 60.4136 108.206 60.4038C108.216 56.7567 108.221 53.1096 108.201 49.4625Z" fill="#525253"/>
</svg>
