<svg width="200" height="80" viewBox="0 0 200 80" fill="none" xmlns="http://www.w3.org/2000/svg">
<path d="M46 14.3236H67.1643C70.757 14.3886 74.915 14.5114 77.5826 17.3098C81.5426 21.0903 81.5354 28.8174 76.3982 31.5725C78.5726 32.7099 80.063 34.9414 80.3186 37.3823C80.8442 40.8631 79.397 44.6328 76.5278 46.7018C74.3786 48.2833 71.6282 48.5939 69.0434 48.7202C61.3899 48.7202 53.7327 48.7202 46.0792 48.7239C46.0648 46.8282 46.072 44.9361 46.072 43.044C53.4844 43.044 60.9003 43.044 68.3163 43.044C69.9614 43.0476 71.8658 42.7082 72.827 41.2097C73.691 39.769 73.8242 37.8372 73.0862 36.3171C72.2654 34.7211 70.2926 34.2986 68.6547 34.2878C61.1019 34.2661 53.5491 34.2914 46 34.2734V28.8716C53.4484 28.7885 60.8967 28.8644 68.3415 28.8355C70.0226 28.7885 71.9918 28.5394 72.9782 26.9831C73.835 25.4774 73.7126 23.4915 72.8954 21.993C72.0098 20.3934 69.9974 20.1081 68.3487 20.0179C60.8967 19.9962 53.4484 20.0468 46 19.9926V14.3236Z" fill="#525253"/>
<path d="M92.672 14.3236H92.7224C95.642 14.2442 98.5148 15.7066 99.9908 18.263C100.848 17.1076 101.748 15.9052 103.098 15.2949C107.058 13.2837 112.303 14.5367 114.995 18.0644C116.727 20.314 117.076 23.2712 117.105 26.0263C117.13 33.6018 117.109 41.1773 117.112 48.7528C115.265 48.7528 113.419 48.7528 111.572 48.7528C111.367 44.9867 111.525 41.2062 111.475 37.4329C111.439 33.4501 111.543 29.4638 111.424 25.4847C111.388 23.6865 110.305 21.8197 108.465 21.4044C107.047 21.1806 105.362 21.0361 104.199 22.0544C102.914 23.1665 102.77 25.0044 102.712 26.5896C102.716 33.9773 102.716 41.365 102.712 48.7528C100.905 48.7528 99.098 48.7528 97.2908 48.7528C97.2908 41.7261 97.28 34.6995 97.2944 27.6728C97.2908 26.0516 97.3124 24.3075 96.4916 22.856C95.3432 20.9386 92.654 20.9314 90.8108 21.6825C89.0828 22.4407 88.5104 24.4845 88.5392 26.2249C88.4384 33.7282 88.5788 41.235 88.5284 48.7419C86.6492 48.76 84.7701 48.7492 82.8909 48.7528C82.8873 41.3795 82.8837 34.0062 82.8909 26.6293C82.8945 24.0006 83.0853 21.2311 84.4353 18.9058C86.1273 16.064 89.4032 14.3525 92.672 14.3236Z" fill="#525253"/>
<path d="M132.032 14.3236H153.999V19.9818C146.551 20.0648 139.106 19.989 131.657 20.0179C129.915 20.0901 127.773 20.4584 126.967 22.2385C126.257 23.8309 126.139 25.9577 127.312 27.3587C128.371 28.626 130.127 28.7705 131.657 28.8355C139.106 28.8571 146.551 28.8066 153.999 28.8608V34.2698C146.45 34.2986 138.901 34.2625 131.355 34.2878C129.71 34.2986 127.733 34.7175 126.916 36.3171C126.175 37.8372 126.311 39.7654 127.168 41.2097C128.133 42.7046 130.034 43.0476 131.683 43.044C139.095 43.044 146.511 43.044 153.927 43.044C153.927 44.9361 153.934 46.8282 153.92 48.7239C146.266 48.7202 138.613 48.7239 130.959 48.7202C128.367 48.5975 125.617 48.2797 123.464 46.6982C120.008 44.2067 118.665 39.2816 120.209 35.3277C120.807 33.7029 122.089 32.4463 123.55 31.5797C122.204 30.6553 120.908 29.5215 120.289 27.9689C118.672 24.0945 119.871 19.2343 123.176 16.6309C125.638 14.6053 128.993 14.45 132.032 14.3236Z" fill="#525253"/>
<path d="M58.784 55.4255C59.0828 55.2774 59.3816 55.1294 59.6804 54.9813C59.9828 55.1294 60.2888 55.2774 60.5948 55.4255C60.5984 55.8299 60.602 56.2379 60.5984 56.6423C60.2924 56.7976 59.9864 56.9528 59.6804 57.1081C59.3816 56.9492 59.0792 56.7903 58.7768 56.6351C58.7732 56.2307 58.7768 55.8299 58.784 55.4255Z" fill="#525253"/>
<path d="M69.6343 63.4885C69.6163 60.553 69.6235 57.6174 69.6307 54.6818C70.1995 54.6818 70.7683 54.6818 71.3407 54.6818C71.3515 55.9094 71.3443 57.1407 71.3623 58.372C72.3919 57.4513 74.4439 57.4079 74.8939 58.9534C75.2215 60.4591 75.0451 62.0153 75.0451 63.5427C74.4547 63.4813 73.8679 63.4019 73.2811 63.3261C73.2955 61.9937 73.3855 60.6504 73.1551 59.3325C72.6979 59.2928 72.2407 59.2603 71.7799 59.235C71.0131 60.5241 71.4667 62.0731 71.3371 63.4885C70.7683 63.4885 70.2031 63.4885 69.6343 63.4885Z" fill="#525253"/>
<path d="M103.365 63.4957C103.326 60.5602 103.34 57.6246 103.358 54.689C103.754 54.6818 104.55 54.6709 104.946 54.6637C105.122 56.0214 105.14 57.3935 104.992 58.7548C105.046 59.0725 105.151 59.7116 105.201 60.0294C105.788 59.3 106.371 58.567 106.983 57.8593C107.685 57.8629 108.387 57.8701 109.093 57.8845C108.355 58.6753 107.642 59.4841 106.9 60.2713C107.523 61.4051 108.409 62.3656 109.067 63.4813C108.43 63.4813 107.789 63.5319 107.156 63.4524C106.364 62.7483 105.914 61.7517 105.342 60.8743C105.252 60.9537 105.068 61.1126 104.978 61.1921C105.054 61.9503 105.093 62.7158 105.104 63.4813C104.524 63.4849 103.945 63.4885 103.365 63.4957Z" fill="#525253"/>
<path d="M46.2628 55.2667C48.1239 55.3209 50.1003 54.949 51.8319 55.8156C52.2495 56.5161 52.4223 57.2924 52.3287 58.1084C51.9327 58.4804 51.5151 58.8234 51.0795 59.1484C51.5871 59.4372 52.1919 59.6647 52.4979 60.2027C53.0955 61.2607 52.5879 62.7339 51.4143 63.1311C49.7655 63.698 47.9583 63.5247 46.252 63.3441C46.2844 60.6504 46.2628 57.9604 46.2628 55.2667ZM48.0771 56.7508C48.0771 57.3574 48.0771 57.9676 48.0807 58.5778C48.9123 58.5887 49.7727 58.5995 50.5143 58.1626C50.5179 57.8232 50.5251 57.4802 50.5287 57.1407C49.7655 56.758 48.9123 56.7435 48.0771 56.7508ZM48.0735 61.9178C48.9879 61.9431 49.9095 61.9503 50.8059 61.7301C50.8455 61.3004 50.8779 60.8707 50.9031 60.4374C50.0139 60.0294 49.0419 60.0077 48.0807 60.0366C48.0771 60.6649 48.0771 61.2896 48.0735 61.9178Z" fill="#525253"/>
<path d="M114.523 55.2487C116.377 55.2595 118.231 55.2487 120.085 55.2559C120.075 55.8372 120.064 56.415 120.049 56.9963C119.808 56.9891 119.326 56.9819 119.088 56.9746C118.152 56.9819 117.22 56.9818 116.284 56.9927C116.291 57.3682 116.305 58.1229 116.309 58.4984C117.493 58.4948 118.678 58.4912 119.859 58.5164C119.862 58.9064 119.862 59.69 119.862 60.0799C118.681 60.1124 117.497 60.1052 116.316 60.1052C116.305 60.6829 116.295 61.2643 116.291 61.8456C117.616 61.8492 118.937 61.8456 120.262 61.8492C120.273 62.3511 120.283 62.8566 120.298 63.3622C118.39 63.6077 116.464 63.4416 114.545 63.4922C114.502 60.7443 114.541 57.9965 114.523 55.2487Z" fill="#525253"/>
<path d="M77.1643 56.1442C77.5783 56.1478 78.4099 56.1514 78.8239 56.1514C78.8275 56.7219 78.8347 57.2924 78.8383 57.8629C79.3495 57.8629 79.8643 57.8665 80.3791 57.8665C80.3755 58.2096 80.3755 58.892 80.3719 59.2314C79.8571 59.2314 79.3423 59.2314 78.8275 59.2314C78.8239 60.1919 78.8203 61.156 78.9427 62.1128C79.4287 62.1345 79.9183 62.1526 80.4043 62.1634C80.3899 62.51 80.3575 63.1997 80.3431 63.5463C79.4179 63.6402 78.4819 63.633 77.6251 63.225C77.5099 63.0336 77.2723 62.6436 77.1535 62.4523C77.1463 61.3762 77.1463 60.3038 77.1463 59.2314C76.8655 59.2314 76.3075 59.2314 76.0267 59.2314C76.0231 58.892 76.0195 58.2096 76.0195 57.8701C76.3003 57.8665 76.8619 57.8629 77.1427 57.8629C77.1463 57.2888 77.1535 56.7183 77.1643 56.1442Z" fill="#525253"/>
<path d="M55.6404 58.6826C56.0796 57.8882 56.8932 57.6427 57.7608 57.6788C57.7824 58.1988 57.7968 58.7187 57.8148 59.2387C57.2136 59.2495 56.6088 59.2856 56.0076 59.3398C55.2696 60.618 55.59 62.1237 55.5108 63.532C54.9384 63.485 54.3696 63.4345 53.8008 63.3622C53.8224 61.5243 53.808 59.69 53.8116 57.8557C54.5568 57.928 55.734 57.5163 55.6404 58.6826Z" fill="#525253"/>
<path d="M62.0335 59.3614C62.7787 57.7293 64.9207 57.1515 66.2707 58.4117C66.3715 57.5704 67.3219 57.9531 67.8943 57.8448C67.8835 59.8199 67.9339 61.7987 67.8763 63.7774C67.9051 64.8137 67.0915 65.6478 66.2203 66.0811C64.8487 66.3988 63.2971 66.3808 62.0695 65.6045C61.9039 65.0448 62.5051 64.6656 62.7463 64.2323C63.7651 64.579 64.7875 65.0159 65.8747 64.6043C66.1231 63.9832 66.3103 63.3369 66.2851 62.6616C66.1843 62.8025 65.9791 63.0913 65.8783 63.2321C64.7839 63.7016 63.4051 63.6402 62.5807 62.6869C61.7311 61.7878 61.9003 60.4807 62.0335 59.3614ZM63.4771 60.4699C63.6319 60.8707 63.7831 61.2715 63.9379 61.6723C64.3159 61.8203 64.6939 61.972 65.0755 62.12C65.2879 62.0225 65.7127 61.8348 65.9251 61.7409C66.7747 60.9068 66.3499 59.2241 65.0611 59.2566C64.2475 59.1194 63.8407 59.8958 63.4771 60.4699Z" fill="#525253"/>
<path d="M83.3978 58.2744C84.3662 57.4692 85.8638 57.5559 86.6414 58.5849C87.4478 57.4186 89.5754 57.35 90.1478 58.7619C90.6266 60.2387 90.2954 61.8347 90.4034 63.362C89.8274 63.4234 89.2514 63.474 88.6754 63.5209C88.6466 62.1271 88.715 60.7298 88.571 59.3396C88.1426 59.2963 87.7142 59.2602 87.2858 59.2277C86.429 60.4337 86.9402 62.0008 86.8142 63.3765C86.2382 63.4379 85.6586 63.4884 85.079 63.5281C85.025 62.2463 85.1366 60.9572 85.0106 59.679C84.701 58.8882 83.369 59.1771 83.3114 59.9895C83.1962 61.1667 83.2862 62.351 83.243 63.5318C82.6634 63.4848 82.0838 63.4343 81.5078 63.3729C81.5222 61.5277 81.5078 59.6826 81.5186 57.8375C82.145 57.9278 82.9514 57.6642 83.3978 58.2744Z" fill="#525253"/>
<path d="M92.0265 58.3972C93.3872 57.7076 95.4752 57.1876 96.566 58.5741C97.34 60.0835 96.8864 61.8853 96.9764 63.521C96.3716 63.4126 95.4176 63.7737 95.3348 62.8818C94.4456 63.8243 93.0668 63.7268 92.0085 63.1382C91.8141 62.5316 91.3101 61.8672 91.7169 61.2317C92.3577 59.7982 94.2116 59.9607 95.504 59.8813C95.3888 59.6466 95.1548 59.1808 95.0396 58.9461C94.262 58.7908 93.542 59.0327 92.8508 59.3649C92.3649 59.271 92.2533 58.7547 92.0265 58.3972ZM93.2396 61.4845C93.308 61.8094 93.38 62.1308 93.452 62.4558C94.4744 62.6327 95.468 62.1308 95.5364 61.0114C94.7408 60.9862 93.92 61.0078 93.2396 61.4845Z" fill="#525253"/>
<path d="M100.089 58.5055C100.679 57.9025 101.464 57.6787 102.285 57.675C102.295 58.195 102.306 58.715 102.321 59.2349C101.59 59.2638 100.69 59.1085 100.225 59.8271C99.9699 61.0259 100.139 62.268 100.089 63.4885C99.5271 63.4885 98.9691 63.4885 98.4075 63.4921C98.3823 61.6144 98.3967 59.7368 98.3967 57.8592C98.9691 57.8628 99.5415 57.87 100.117 57.8773C100.11 58.0325 100.096 58.3503 100.089 58.5055Z" fill="#525253"/>
<path d="M121.77 57.8447C122.382 57.9133 123.167 57.657 123.559 58.2925C124.582 57.5559 126.353 57.4114 126.94 58.7546C127.386 60.2892 127.109 61.9394 127.159 63.5209C126.608 63.4234 125.935 63.6581 125.492 63.2248C125.42 62.0585 125.572 60.885 125.37 59.7296C125.057 59.0038 123.944 59.0688 123.599 59.7368C123.437 60.9392 123.53 62.156 123.53 63.362C122.951 63.4379 122.368 63.4848 121.784 63.5318C121.748 61.6361 121.77 59.7404 121.77 57.8447Z" fill="#525253"/>
<path d="M128.774 59.4408C129.501 57.704 132.078 57.1407 133.454 58.4081C134.202 59.1122 134.206 60.2099 134.31 61.1595C132.957 61.2101 131.603 61.1848 130.246 61.192C130.35 61.4701 130.451 61.7517 130.548 62.037C130.93 62.1814 131.315 62.3294 131.697 62.4811C132.082 62.2319 132.456 61.972 132.834 61.712C133.245 62.0189 133.655 62.3367 134.058 62.658C132.996 63.4452 131.592 63.9868 130.314 63.3621C128.766 62.8241 128.086 60.8887 128.774 59.4408ZM131.196 58.9497C131.006 59.058 130.631 59.2783 130.44 59.3902C130.401 59.5491 130.322 59.8705 130.282 60.0293C131.081 60.0185 131.88 60.0149 132.68 59.9644C132.471 59.6502 132.258 59.3397 132.053 59.0255C131.765 59.0003 131.481 58.975 131.196 58.9497Z" fill="#525253"/>
<path d="M135.579 57.8665C136.241 58.0073 137.552 57.4007 137.379 58.6464C137.84 57.899 138.639 57.7076 139.456 57.6643C139.478 58.1879 139.496 58.7078 139.517 59.2314C138.729 59.2531 137.613 59.1195 137.368 60.1161C137.188 61.2462 137.31 62.4017 137.256 63.5463C136.688 63.4777 136.126 63.3983 135.564 63.3261C135.597 61.5062 135.575 59.6864 135.579 57.8665Z" fill="#525253"/>
<path d="M141.709 57.9351C142.609 57.5054 143.592 57.8593 144.448 58.224C145.028 57.9676 145.647 57.8484 146.277 57.7726C146.27 59.7875 146.389 61.8095 146.223 63.8207C146.097 65.3734 144.592 66.3591 143.12 66.3194H142.573C141.745 66.1894 140.953 65.9295 140.179 65.6261C140.456 65.1387 140.74 64.6584 141.025 64.1746C141.871 64.5285 142.796 65.0267 143.732 64.6837C144.405 64.4165 144.502 63.6582 144.675 63.048C143.743 63.3333 142.717 63.8424 141.766 63.3188C139.596 62.4414 139.632 58.9028 141.709 57.9351ZM141.918 60.2749C141.619 61.2137 142.494 61.7878 143.174 62.2031C143.966 61.9503 144.567 61.4412 144.758 60.6107C144.636 60.3182 144.52 60.0222 144.409 59.7261C143.624 59.0075 142.206 59.1556 141.918 60.2749Z" fill="#525253"/>
<path d="M151.979 57.8484C152.537 57.8592 153.095 57.8701 153.657 57.8845C152.832 60.1088 151.972 62.3186 151.108 64.5248C150.878 65.1097 150.59 65.7091 150.064 66.0883C149.265 66.3988 148.397 66.2508 147.573 66.1894C147.595 65.8427 147.638 65.1531 147.659 64.8064C148.225 64.7992 148.793 64.7812 149.362 64.7342C149.51 64.3117 149.657 63.8929 149.812 63.4704C148.966 61.6109 148.196 59.7152 147.328 57.8664C147.969 57.8664 148.613 57.8701 149.258 57.8845C149.625 59.0652 150.089 60.2099 150.539 61.3617C151.353 60.3615 151.479 59.0075 151.979 57.8484Z" fill="#525253"/>
<path d="M58.8526 57.8701C59.4214 57.8665 59.9866 57.8629 60.5554 57.8629C60.5554 59.7405 60.5626 61.6218 60.5482 63.4994C59.9794 63.4669 59.4106 63.4236 58.8418 63.3766C58.8634 61.5387 58.8526 59.7044 58.8526 57.8701Z" fill="#525253"/>
</svg>
