<svg width="200" height="80" viewBox="0 0 200 80" fill="none" xmlns="http://www.w3.org/2000/svg">
<path d="M79.7695 11.8069H83.6226C85.9112 11.9457 86.8733 14.232 87.9008 15.9074C88.1343 15.8565 88.6013 15.75 88.8349 15.6991C88.2417 17.0089 87.6439 18.314 87.0741 19.633C85.5515 19.4942 84.029 19.2951 82.5484 18.9018C82.866 18.7583 83.4965 18.4621 83.8141 18.314C82.5952 16.074 81.5583 13.6813 79.7695 11.8069Z" fill="#525253"/>
<path d="M75.0059 15.9813C75.9119 14.4726 76.874 12.0289 79.1018 12.5288C79.9939 13.0888 80.9653 13.9311 81.0728 15.028C80.4749 16.1618 79.723 17.2078 79.0691 18.3093C77.6493 17.6521 76.365 16.7496 75.0059 15.9813Z" fill="#525253"/>
<path d="M72.7274 19.3044C74.0632 19.1609 75.4036 19.022 76.7393 18.8925C77.0055 19.6468 77.2998 20.3873 77.5847 21.1325C77.8649 21.7989 78.1311 22.47 78.4207 23.1364C77.8929 23.0346 77.0336 21.8868 76.7814 22.9004C75.7352 24.8164 74.0211 26.5242 73.9184 28.8012C73.7923 28.7596 73.5494 28.667 73.4233 28.6207C72.8068 27.3758 71.9801 26.2419 71.359 24.9969C70.9853 23.9602 71.4664 22.8772 71.8821 21.9285C72.4378 21.151 73.0917 20.3318 72.7274 19.3044Z" fill="#525253"/>
<path d="M86.1445 22.0674C87.4289 21.2992 88.6899 20.4661 90.0584 19.8413C90.899 21.0446 91.9312 22.3821 91.8098 23.9233C91.4969 24.562 90.9271 25.0063 90.432 25.5015C89.624 25.5292 88.8114 25.557 88.0034 25.557C87.4056 24.3815 86.5742 23.3216 86.1445 22.0674Z" fill="#525253"/>
<path d="M54.4276 25.0432C56.3706 25.0478 58.3135 25.0617 60.2517 25.0293C60.588 28.4819 60.3918 31.9576 60.3965 35.424C60.4338 36.0534 60.4759 36.6875 60.5226 37.3215C61.494 35.0075 63.8293 33.1655 66.4494 33.4015C69.5739 33.1655 72.3668 35.299 73.5671 38.0574C74.2537 40.191 74.5946 42.4356 74.5573 44.6756C74.5573 48.3271 74.5479 51.9787 74.5619 55.6257C72.5069 55.6395 70.4519 55.6303 68.3969 55.6349C68.4016 51.8075 68.4343 47.98 68.3783 44.1526C67.9533 42.306 67.6543 39.8022 65.5293 39.1265C63.8339 38.5248 62.1993 39.6356 61.3212 41.0148C61.1111 41.5933 60.9102 42.1671 60.7001 42.7457C60.191 47.0174 60.5226 51.3262 60.4292 55.6164C58.4209 55.6488 56.4126 55.6303 54.4043 55.6303C54.437 45.4346 54.3856 35.2389 54.4276 25.0432Z" fill="#525253"/>
<path d="M75.7013 26.3252C77.0604 26.2095 78.4289 26.3298 79.7926 26.3298C79.774 27.8894 79.7506 29.4537 79.7319 31.0134C78.6857 30.9949 77.6442 30.9718 76.6027 30.9625C76.173 30.7542 75.7387 30.5552 75.309 30.3516C75.1549 30.1294 74.856 29.6759 74.7018 29.4537C74.6972 29.065 74.6832 28.2921 74.6738 27.9033C75.0054 27.3711 75.3324 26.8342 75.7013 26.3252Z" fill="#525253"/>
<path d="M81.4414 28.4403C82.1933 27.2093 83.2255 26.1772 83.9541 24.9323C83.0947 26.8298 84.7341 26.3161 85.5747 26.4364C87.6391 26.3947 89.8015 26.6956 91.7304 25.7607C91.0205 26.8066 90.432 27.9266 89.9089 29.0744C88.9421 31.2589 86.3127 31.0784 84.3044 31.0876C84.2717 31.3977 84.2016 32.0132 84.1643 32.3233C84.1036 32.1058 83.9775 31.6661 83.9167 31.444L83.5758 31.5227C82.9126 30.4675 81.8617 29.6251 81.4414 28.4403Z" fill="#525253"/>
<path d="M114.158 28.7456C116.213 28.7549 118.268 28.7456 120.327 28.7549C120.327 30.5598 120.323 32.3602 120.332 34.1651C121.476 34.1559 122.621 34.1512 123.765 34.1466C123.76 35.4702 123.76 36.7985 123.77 38.1221C122.63 38.1175 121.495 38.1175 120.355 38.1083C120.327 41.8385 120.267 45.578 120.393 49.3082C120.355 51.1641 122.112 52.2656 123.723 52.6729C124.311 53.8854 124.615 55.2091 125.105 56.4633C123.097 56.5003 121.098 56.3013 119.132 55.894C117.628 55.3202 116.208 54.4917 115.325 53.1079C115.017 52.3165 114.709 51.5205 114.396 50.7337C113.971 46.6193 114.214 42.4772 114.167 38.3535C113.126 38.298 112.089 38.2147 111.057 38.0805C111.075 36.7707 111.075 35.461 111.071 34.1512C112.028 34.1512 112.981 34.1559 113.938 34.1744C114.261 32.3833 114.139 30.5598 114.158 28.7456Z" fill="#525253"/>
<path d="M31.2482 38.9877C33.0556 35.3315 37.1096 33.0869 41.2009 33.4062C46.3477 33.1656 50.7753 37.9788 50.5278 42.9864C48.5709 43.0003 46.6186 42.9725 44.6617 43.0095C44.3815 41.2786 43.5595 39.5338 41.78 38.9183C39.314 38.5619 37.0489 40.4085 36.7453 42.8105C36.5071 45.1014 36.3857 47.7626 38.1417 49.5398C40.2761 51.7751 44.2133 50.956 45.862 48.5447C46.3197 48.8317 46.7821 49.114 47.2444 49.3963C48.5241 50.0627 49.7805 50.7801 51.0182 51.5206C48.5148 55.3064 43.6996 56.8938 39.2953 56.3523C36.75 55.8571 34.3353 54.6631 32.7007 52.6221C29.5668 48.8594 29.2632 43.352 31.2482 38.9877Z" fill="#525253"/>
<path d="M99.0899 33.5636C101.532 33.0822 104.363 33.545 106.142 35.4009C108.146 37.3355 108.683 40.1956 108.874 42.8522C109.253 47.0822 108.93 51.354 109.047 55.5979C106.932 55.6581 104.816 55.6303 102.7 55.6257C102.705 51.9834 102.723 48.3364 102.695 44.6941C102.672 42.8198 102.233 40.7232 100.72 39.4598C99.3981 38.6174 97.7915 39.034 96.5491 39.7976C95.5824 41.1259 95.0733 42.6855 94.8678 44.3007C94.6669 48.0773 94.8211 51.8631 94.7744 55.6396C92.7567 55.6257 90.7344 55.6488 88.7168 55.6118C88.7261 48.466 88.7308 41.3203 88.7168 34.1745C90.7344 34.1374 92.7567 34.1652 94.779 34.1421C94.7744 35.1973 94.7697 36.2525 94.779 37.3123C95.7832 35.6786 97.1002 33.9986 99.0899 33.5636Z" fill="#525253"/>
<path d="M131.215 34.2995C134.508 33.0221 138.347 33.0175 141.565 34.5124C143.129 35.6 144.026 37.2707 144.587 39.0387C145.1 43.0836 144.106 47.272 145.273 51.2244C145.549 51.2985 146.1 51.442 146.375 51.5114C146.74 52.8211 147.062 54.1401 147.319 55.473C144.47 55.6026 140.43 56.5236 138.73 53.5431C138.076 54.5382 137.165 55.3064 136.161 55.9358C133.368 56.7458 130.048 56.6856 127.745 54.7186C126.283 53.4783 125.84 51.5623 125.639 49.7527C125.877 48.2717 126.008 46.6426 127.101 45.4902C128.913 43.315 131.869 42.7689 134.517 42.2691C135.9 42.1534 137.291 42.0053 138.613 41.5656C138.594 41.2925 138.552 40.7372 138.534 40.4595C138.38 40.2049 138.071 39.6958 137.917 39.4413C136.553 38.8535 135.026 38.7934 133.691 39.4922C133.532 39.7329 133.209 40.2188 133.046 40.4641C133.018 40.6631 132.953 41.0611 132.92 41.2648C130.879 41.237 128.838 41.2601 126.797 41.2463C126.797 39.793 127.203 38.4 127.927 37.1458C128.815 35.9795 129.949 35.0446 131.215 34.2995ZM132.018 49.2991C132.906 51.4744 135.904 51.5947 137.618 50.3544C138.8 49.3315 138.557 47.6654 138.58 46.277C138.155 46.3094 137.315 46.3788 136.89 46.4112C135.05 46.9018 132.682 47.2119 132.018 49.2991Z" fill="#525253"/>
<path d="M158.732 33.9292C160.909 32.985 163.431 33.346 165.542 34.2948C166.962 35.2852 168.036 36.6505 168.727 38.2287C169.386 40.1447 169.46 42.1718 169.75 44.1526C169.736 44.9394 169.722 45.7262 169.713 46.513C169.703 48.989 169.881 51.4743 169.591 53.9364C169.647 54.3483 169.759 55.1721 169.815 55.584C167.681 55.672 165.547 55.6303 163.417 55.6211C163.421 51.9695 163.436 48.3179 163.412 44.6663C163.37 42.7688 162.926 40.5936 161.287 39.4042C159.891 38.5758 157.85 38.983 156.948 40.3483C155.813 41.8386 155.613 43.7685 155.505 45.5688C155.472 48.9242 155.5 52.2796 155.496 55.6349C153.464 55.6257 151.437 55.6488 149.41 55.6118C149.424 48.466 149.429 41.3202 149.41 34.1744C151.437 34.1374 153.469 34.1606 155.496 34.1467C155.491 35.1973 155.491 36.2432 155.491 37.2892C156.341 35.984 157.294 34.6465 158.732 33.9292Z" fill="#525253"/>
<path d="M78.4551 34.1745C80.4774 34.1375 82.5044 34.1652 84.5267 34.1421C84.5173 41.311 84.5173 48.4753 84.5267 55.6396C82.4997 55.6257 80.4774 55.6489 78.4551 55.6118C78.4691 48.4661 78.4691 41.3203 78.4551 34.1745Z" fill="#525253"/>
<path d="M77.9011 60.24C78.1113 60.24 78.527 60.24 78.7371 60.24C78.7371 62.2116 78.7558 64.1831 78.7185 66.1547C77.3967 66.2889 76.0983 65.4651 74.8186 66.0853C74.0573 65.9326 73.1746 65.5253 72.5161 66.1501C72.3059 66.0297 71.8856 65.7891 71.6754 65.6734C71.1477 64.5487 72.0724 62.6003 70.5078 62.2949C71.1196 62.1097 71.4699 61.7071 71.554 61.0777C71.7081 61.0314 72.021 60.9388 72.1752 60.8879C73.4876 62.4245 71.4466 64.3081 72.9691 65.8955C73.4082 65.317 73.623 64.6182 73.7958 63.924C74.5477 63.6648 75.3137 63.4426 76.0703 63.2066C75.8555 62.9521 75.636 62.6975 75.4118 62.4476C74.8326 62.8271 74.2488 63.1927 73.651 63.5445C73.5016 62.4892 74.487 62.0588 75.2296 61.6516C75.7527 61.8598 76.2805 62.0542 76.8082 62.2486C76.8736 63.3269 76.8736 64.4145 76.9857 65.4929C77.1352 65.4744 77.4388 65.4327 77.5929 65.4096C78.2748 63.8268 77.733 61.9478 77.9011 60.24ZM74.4917 64.396C74.5104 64.6367 74.5477 65.1226 74.5664 65.3679C75.0008 65.3124 75.4305 65.2615 75.8648 65.2013C75.9068 64.9375 75.9862 64.4006 76.0236 64.1322C75.5145 64.2155 75.0008 64.3035 74.4917 64.396Z" fill="#525253"/>
<path d="M124.161 60.2446C124.376 60.24 124.81 60.24 125.03 60.24C125.03 62.1283 125.025 64.0165 125.034 65.9048C124.754 65.8955 124.184 65.8724 123.904 65.8585C123.143 66.2519 122.003 66.1732 121.709 65.2522C121.064 64.2155 121.695 63.1002 121.947 62.0542C122.694 61.9524 123.451 61.9385 124.203 62.0172C124.184 61.4248 124.17 60.8324 124.161 60.2446ZM122.713 62.6235C122.578 63.5213 122.442 64.4516 122.755 65.3355C124.418 65.7197 124.096 64.0443 124.142 62.9891C123.787 62.9011 123.073 62.716 122.713 62.6235Z" fill="#525253"/>
<path d="M107.175 65.9418C107.278 63.887 106.881 61.7719 107.474 59.7679C107.969 60.4483 108.165 61.2397 108.118 62.0681C108.95 61.8506 110.084 61.7164 110.472 62.6975C110.682 63.7435 110.566 64.8218 110.608 65.8817C110.379 65.8863 109.926 65.9002 109.697 65.9048C109.692 64.8959 109.678 63.8823 109.608 62.878C109.15 62.8456 108.688 62.8225 108.226 62.804C108.118 63.799 108.086 64.8033 108.086 65.8076C107.857 65.84 107.404 65.9048 107.175 65.9418Z" fill="#525253"/>
<path d="M136.394 60.9249C136.59 60.962 136.987 61.036 137.184 61.073C137.16 61.2905 137.109 61.7163 137.085 61.9339C137.37 61.9986 137.94 62.1282 138.225 62.193C136.24 62.679 137.268 65.0532 137.875 66.3259C137.356 66.0899 136.843 65.8353 136.329 65.5808C136.245 64.5302 136.207 63.4796 136.184 62.4291C135.815 62.6651 135.446 62.9011 135.073 63.1372L135.381 63.7203C134.615 63.4982 134.04 62.9659 133.48 62.4383C132.401 63.1927 132.56 64.3775 133.116 65.4234C133.657 65.2337 134.194 65.0301 134.718 64.794C134.9 64.9745 135.264 65.3401 135.446 65.5253C134.433 65.9048 133.06 66.6082 132.233 65.5114C130.991 64.3729 131.757 61.6006 133.639 61.9431C134.685 61.9616 136.441 62.5355 136.394 60.9249Z" fill="#525253"/>
<path d="M47.45 62.9474C47.8002 62.2856 48.5569 61.9894 49.1453 61.5682C49.8225 62.0218 50.7239 62.3596 50.9808 63.2112C51.3871 63.9425 50.7987 64.7431 50.6726 65.4836C50.397 65.6641 49.8459 66.0205 49.575 66.1963C48.9212 66.0158 48.2766 65.8122 47.6321 65.5993C47.5107 64.7246 46.8708 63.7758 47.45 62.9474ZM48.4541 65.2244C48.9118 65.2337 49.3742 65.2383 49.8319 65.2429C49.986 64.197 50.2195 62.9937 49.164 62.3087C48.0665 62.9659 48.3373 64.1785 48.4541 65.2244Z" fill="#525253"/>
<path d="M88.2142 63.1834C87.9339 62.1838 89.0642 62.0172 89.704 61.6747C90.115 61.8506 90.5214 62.0218 90.937 62.1884C90.9837 62.4707 91.0725 63.0446 91.1192 63.3269C90.5541 63.0261 89.9889 62.7253 89.4238 62.4198C89.2276 63.2251 89.5826 63.6231 90.442 63.5537C90.8763 64.0535 91.8758 64.7987 91.1098 65.479C90.3065 66.5573 88.6345 66.1871 87.9199 65.1967C88.7746 65.1689 89.6293 65.3309 90.4793 65.2105C90.1384 64.0905 88.2048 64.3682 88.2142 63.1834Z" fill="#525253"/>
<path d="M113.501 62.17C113.879 62.0496 114.253 61.9293 114.631 61.809C115.131 61.9108 115.63 62.0172 116.13 62.1283C116.294 63.4427 116.429 64.7663 116.714 66.0622C115.915 65.6781 115.149 65.7197 114.425 66.1918C113.921 65.84 112.725 65.9141 112.954 65.0255C112.739 64.3498 113.487 63.9888 113.786 63.5028C114.267 63.4427 115.229 63.3131 115.71 63.2529C114.972 62.3828 113.963 63.0493 113.118 63.3409C113.211 63.0447 113.407 62.4615 113.501 62.17ZM113.907 64.4285C113.916 64.6367 113.926 65.0533 113.93 65.2615C114.346 65.2847 114.762 65.3032 115.182 65.3217C115.243 65.0255 115.364 64.4331 115.425 64.1369C114.916 64.2341 114.411 64.3313 113.907 64.4285Z" fill="#525253"/>
<path d="M139.977 63.549C140.472 62.6974 141.144 61.9708 142.078 61.5913C142.639 61.9245 143.251 62.2022 143.685 62.6974C144.049 63.6369 143.783 64.6412 143.643 65.59C142.648 66.1361 141.611 66.2102 140.616 65.6363C140.406 64.9374 140.182 64.2432 139.977 63.549ZM140.887 64.0812C141.28 64.7986 141.709 65.5622 142.685 65.2382C143.012 64.2201 143.11 62.9705 142.069 62.304C141.597 62.8455 141.219 63.4518 140.887 64.0812Z" fill="#525253"/>
<path d="M30.8783 62.0725C31.6676 61.9244 32.4709 61.8967 33.2649 62.0355C33.4283 62.2993 33.7506 62.8316 33.9094 63.0954C33.9281 63.3221 33.9561 63.7711 33.9701 63.9932C33.1294 63.9932 32.2887 63.9932 31.4434 63.9932C31.5228 64.3496 31.6816 65.0623 31.761 65.4187C32.4195 65.2752 33.0734 65.0762 33.6618 64.7337C34.0495 65.9694 32.7698 66.0018 31.8777 66.1962C31.6069 66.0342 31.0604 65.7056 30.7895 65.5436C30.2057 64.4144 30.2804 63.1787 30.8783 62.0725ZM31.6069 63.373C32.0832 63.7849 33.4937 63.3777 32.8445 62.6464C32.3681 62.1188 31.009 62.6557 31.6069 63.373Z" fill="#525253"/>
<path d="M34.75 62.0495C35.9737 61.9523 37.2067 61.8968 38.3603 62.3781L38.7432 62.3364C38.9347 62.23 39.3177 62.0171 39.5092 61.9106C39.8128 62.8733 40.1023 63.8406 40.3872 64.8125C40.8262 63.91 41.1719 62.9705 41.5081 62.031C42.2881 62.0171 43.0681 61.9847 43.848 61.9801C43.862 63.4055 43.8854 64.8356 43.764 66.2564C43.4837 66.0713 43.2035 65.8816 42.9233 65.6918C42.8626 64.7014 43.2269 63.5814 42.6197 62.7067C42.4936 62.665 42.2414 62.5817 42.1153 62.5401C41.779 63.7249 41.3914 64.8958 40.915 66.0297C40.7048 66.0435 40.2798 66.0667 40.0696 66.0759C39.7894 65.4697 39.5279 64.8587 39.2757 64.2478C39.3317 63.5258 39.0421 63.1093 38.407 63.0029C37.4682 63.8267 39.1449 65.9139 37.3374 66.1685C37.272 65.067 37.3234 63.9609 37.1366 62.8687C36.8097 62.8548 36.1605 62.8316 35.8382 62.8178C35.6888 63.8035 35.7074 64.8078 35.7168 65.8029C35.4786 65.8353 34.9975 65.9001 34.7593 65.9325C34.764 64.6366 34.7687 63.3454 34.75 62.0495Z" fill="#525253"/>
<path d="M44.7492 62.0356C45.674 62.0634 46.5987 62.031 47.5235 62.0449C46.9911 62.5725 46.0803 62.79 45.7487 63.5028C45.6133 64.4469 45.6413 65.4095 45.5199 66.3629C44.0767 65.3956 45.0108 63.4611 44.7492 62.0356Z" fill="#525253"/>
<path d="M51.7754 62.0542C52.8216 62.0357 53.8631 61.9431 54.9093 62.0172C55.1942 63.2575 55.353 64.5256 55.3576 65.7983L54.3862 65.9279C54.3862 65.1458 54.3862 64.3683 54.3862 63.5861C54.2461 63.3084 53.9565 62.7484 53.8117 62.4707C53.5455 62.6374 53.0037 62.966 52.7375 63.1326C52.6908 64.0582 52.6721 64.9884 52.6674 65.9141C52.4433 65.9002 51.9996 65.877 51.7754 65.8631C51.7894 64.595 51.7894 63.3269 51.7754 62.0542Z" fill="#525253"/>
<path d="M59.3795 62.4476C59.9026 61.7533 60.7432 61.9477 61.4905 61.9662C62.1444 63.2343 62.0089 64.6644 61.9903 66.039C61.7567 66.039 61.2944 66.0436 61.0608 66.0436C61.0375 64.9745 61.0562 63.91 60.9441 62.8456C60.6312 62.8456 60.01 62.8363 59.6971 62.8317C59.5289 63.8221 59.5289 64.831 59.5289 65.8353C59.3094 65.8585 58.8611 65.9094 58.6415 65.9325C58.6322 65.0532 58.6229 64.1785 58.5762 63.3038C58.3847 63.0446 57.997 62.5216 57.8009 62.2624L57.7168 61.7765C58.1325 61.9431 58.9638 62.281 59.3795 62.4476Z" fill="#525253"/>
<path d="M63.1808 62.0635C63.9561 61.9016 64.7454 61.9154 65.5253 62.0404C65.6748 62.2996 65.983 62.8225 66.1372 63.0863C66.1465 63.3178 66.1699 63.7806 66.1839 64.012C65.3525 64.0027 64.5165 63.9935 63.6852 63.9842C63.7599 64.4563 63.844 64.933 63.9281 65.405C64.6193 65.2893 65.3058 65.1181 65.9083 64.7247C66.1605 65.6364 65.4553 66.2149 64.5586 66.1131C63.5311 66.3399 63.0593 65.3125 62.5176 64.6784C62.5409 64.3128 62.5783 63.5769 62.6016 63.2113C62.7464 62.9244 63.036 62.3505 63.1808 62.0635ZM63.7412 62.7346C63.2789 63.5538 64.666 63.7574 65.0817 63.2807C65.5954 62.5032 64.1009 62.1237 63.7412 62.7346Z" fill="#525253"/>
<path d="M66.9358 62.0588C67.9119 62.0403 68.888 61.9524 69.8641 61.9385C70.5133 63.1603 70.4293 64.5348 70.4339 65.8677C70.2144 65.877 69.7707 65.8955 69.5512 65.9048C69.5419 64.8866 69.5232 63.8684 69.4344 62.8548C68.4583 62.5772 67.8465 62.9567 67.7111 63.961C67.7251 64.72 67.7111 65.479 67.669 66.238C66.2259 65.3725 66.9218 63.4195 66.9358 62.0588Z" fill="#525253"/>
<path d="M81.5215 62.0726C82.3668 62.179 83.9501 61.2858 84.1556 62.5678C84.9122 61.7254 86.0098 61.8458 86.9906 62.1096C87.2334 62.7205 87.4763 63.3314 87.7285 63.9469C86.9439 63.9793 86.1592 63.9932 85.3793 63.9978C85.2251 64.1089 84.9122 64.3403 84.7534 64.4514C84.9683 64.7106 85.398 65.2197 85.6175 65.4742C86.1686 65.2197 86.7197 64.9559 87.2661 64.6828C87.7892 66.3397 85.44 66.2841 84.4405 65.7426C84.0342 64.9096 83.852 64.0117 83.9968 63.0907C83.7073 62.8871 83.4177 62.6835 83.1234 62.4845C82.2361 63.424 82.4089 64.7013 82.4089 65.8722C82.1847 65.8769 81.741 65.8907 81.5215 65.8954C81.5308 64.618 81.5308 63.3453 81.5215 62.0726ZM85.2905 63.1694C85.5427 63.1694 86.0471 63.1648 86.2994 63.1648C86.5609 62.4012 84.987 62.3965 85.2905 63.1694Z" fill="#525253"/>
<path d="M92.4835 62.0959C93.128 61.8321 93.8379 61.9385 94.5151 61.9478C94.6739 62.1422 94.9962 62.5309 95.155 62.7207C95.197 63.04 95.2764 63.6694 95.3138 63.9842C94.417 63.998 93.5203 64.0027 92.6236 64.0258C92.8011 64.3498 93.1514 64.9931 93.3288 65.3171C93.9827 65.4975 94.4918 64.9792 95.0382 64.7247L95.3325 65.6179C94.2676 66.2103 92.647 66.4047 91.9744 65.1551C91.8063 64.1369 91.6008 62.8549 92.4835 62.0959ZM93.2401 63.1881C93.4923 63.1789 93.9874 63.1511 94.2396 63.1372C94.4357 62.369 92.8618 62.4245 93.2401 63.1881Z" fill="#525253"/>
<path d="M96.0696 63.5444C95.7614 61.67 98.2321 61.4802 99.2782 62.4753C99.2689 63.475 99.2549 64.4793 99.3716 65.4789C99.5258 65.4604 99.834 65.4188 99.9881 65.4002C100.539 64.3728 100.147 63.1371 100.24 62.0264C101.17 62.0541 102.099 62.0217 103.029 62.0819C102.445 62.4614 101.856 62.8317 101.259 63.1973C101.174 64.0951 101.146 64.993 101.114 65.8908C100.161 65.8214 99.2035 65.8029 98.2507 65.8075C97.5035 66.1593 96.6067 66.2564 95.9996 65.59C95.9996 65.192 95.9949 64.3959 95.9902 63.9979C96.7188 63.7388 97.4568 63.4935 98.1994 63.2806C98.1246 63.0677 97.9705 62.6465 97.8958 62.4336C97.298 62.8224 96.6861 63.1926 96.0696 63.5444ZM96.9337 64.3959C96.9523 64.6412 96.9944 65.1226 97.0177 65.3679C97.4427 65.3077 97.8678 65.2521 98.2928 65.192C98.3348 64.9282 98.4142 64.4006 98.4516 64.1368C97.9472 64.2201 97.4381 64.308 96.9337 64.3959Z" fill="#525253"/>
<path d="M103.658 62.0404C104.303 61.8043 104.994 61.9478 105.657 62.0172C105.928 62.4661 106.208 62.9104 106.489 63.3547C106.264 63.3964 105.807 63.4751 105.583 63.5121C105.354 63.2205 104.896 62.6328 104.667 62.3412C103.943 62.9799 103.224 64.0166 104.009 64.919C104.312 65.7937 105.559 64.9237 106.017 64.7339C106.311 65.6132 105.601 66.2103 104.728 66.1177C103.719 66.289 103.201 65.3078 102.631 64.6923C102.682 63.7342 102.78 62.6374 103.658 62.0404Z" fill="#525253"/>
<path d="M117.421 62.0448C118.341 62.0356 119.266 61.9615 120.191 61.9523C120.331 62.2207 120.611 62.7668 120.756 63.0352C120.779 64.0349 120.789 65.0346 120.789 66.0343C120.569 66.0389 120.13 66.0435 119.91 66.0481C119.896 65.0253 119.882 64.0071 119.85 62.989C119.532 62.8918 118.897 62.6974 118.579 62.6002C118.299 63.8914 118.234 65.229 117.827 66.4924C117.076 65.1179 117.174 63.5351 117.421 62.0448Z" fill="#525253"/>
<path d="M128.319 61.9153C129.099 61.9106 129.874 61.9523 130.649 62.0449C130.752 62.9011 130.803 63.7619 130.86 64.6273C131.028 65.1596 131.182 65.6964 131.331 66.2333C130.663 65.9741 130.098 65.5344 129.542 65.104L130.257 64.2062C129.524 64.1877 128.809 64.2895 128.263 64.8125C128.776 65.1318 129.655 65.5344 129.22 66.2657C128.767 66.0898 127.861 65.7427 127.408 65.5715C127.062 63.822 128.884 63.4796 130.168 63.1602C129.416 62.3318 128.482 63.1602 127.693 63.4287C127.828 62.8964 128.048 62.392 128.319 61.9153Z" fill="#525253"/>
<path d="M138.516 61.9939C138.745 62.0032 139.212 62.0263 139.446 62.0355C139.436 63.3175 139.436 64.6088 139.446 65.8954C139.212 65.8954 138.745 65.9 138.512 65.9C138.521 64.5995 138.521 63.2944 138.516 61.9939Z" fill="#525253"/>
<path d="M144.693 62.054C145.744 62.0309 146.795 61.9245 147.846 62.0402C148.065 63.3638 148.07 64.7106 148.033 66.0527L147.379 66.0481C147.342 64.9512 147.332 63.8405 146.968 62.7945C146.534 62.8177 146.109 62.8547 145.683 62.9102C145.613 63.9516 145.59 64.9975 145.571 66.0481C145.357 66.0435 144.927 66.0388 144.717 66.0342C144.703 64.7059 144.707 63.3777 144.693 62.054Z" fill="#525253"/>
<path d="M166.463 62.0541C167.481 62.1236 168.667 61.596 169.569 62.2578C170.237 63.2297 169.984 64.4237 169.765 65.4882C169.508 65.6548 168.994 65.988 168.742 66.1546C168.41 66.1084 167.757 66.0158 167.425 65.9695C167.654 66.9553 167.35 67.5662 166.519 67.8022C166.43 65.8862 166.491 63.9702 166.463 62.0541ZM168.831 65.1781C169.176 64.1507 169.064 63.0538 168.233 62.2855C167 62.9613 166.958 66.0112 168.831 65.1781Z" fill="#525253"/>
<path d="M56.1931 61.8969C56.408 61.9987 56.8423 62.2023 57.0618 62.3088C57.0525 62.6512 57.0338 63.3454 57.0291 63.6879C56.9497 64.6043 56.903 65.5253 56.7209 66.4278C55.6093 65.1782 56.1277 63.3917 56.1931 61.8969Z" fill="#525253"/>
<path d="M150.844 65.627C150.573 64.1414 150.26 61.9893 152.347 61.6376C151.927 62.7113 151.409 63.8035 151.736 64.9791C151.964 65.1642 153.38 65.6409 152.544 66.025C151.965 65.951 151.395 65.8167 150.844 65.627Z" fill="#525253"/>
<path d="M152.4 62.517C153.035 62.2948 153.665 62.068 154.315 61.869C154.142 63.8221 154.992 66.386 153.194 67.8069H151.877C151.503 67.5431 150.76 67.0108 150.387 66.747C151.185 66.4508 152.829 67.3117 153.189 66.3953C152.913 65.1087 153.894 63.2297 152.4 62.517Z" fill="#525253"/>
<path d="M155.052 62.0679C155.968 62.0541 156.878 62.0263 157.794 61.9939C157.215 62.5354 156.528 62.9658 156.033 63.5952C155.949 64.4838 155.94 65.377 155.865 66.2703C155.589 66.062 155.314 65.8537 155.043 65.6455C155.066 64.456 155.062 63.262 155.052 62.0679Z" fill="#525253"/>
<path d="M159.334 61.6329C159.119 62.3179 158.862 62.989 158.568 63.6462C158.591 64.5671 158.797 65.4372 159.937 65.4187C160.278 64.5347 161.123 62.7807 159.427 62.6604C159.764 62.3966 160.095 62.1281 160.432 61.8643C161.557 62.8964 161.497 64.3681 160.964 65.6733C160.287 65.8075 159.6 66.3305 158.9 66.0343C156.957 65.3076 157.265 62.0448 159.334 61.6329Z" fill="#525253"/>
<path d="M161.973 62.0542L162.921 61.9847C163.159 63.1279 162.248 65.4188 164.088 65.3123C164.999 64.4237 164.555 63.0955 164.667 61.9801L165.536 62.0542C165.522 63.4889 165.667 64.9606 165.139 66.3305C165.013 66.1732 164.756 65.8584 164.625 65.7011C163.911 66.1732 163.145 66.0667 162.388 65.7844C161.991 64.5765 161.977 63.3084 161.973 62.0542Z" fill="#525253"/>
</svg>
