<svg width="200" height="80" viewBox="0 0 200 80" fill="none" xmlns="http://www.w3.org/2000/svg">
<path d="M70.5161 25.1927C71.7433 20.8633 76.9206 18.2613 81.0444 20.0262C85.1841 21.4178 87.3435 26.5843 85.6898 30.6204C84.7417 33.185 82.4454 35.0511 79.8384 35.6749C79.8173 37.2851 79.8173 38.8953 79.8173 40.5055C79.8173 41.7319 79.8173 42.9635 79.8489 44.1898C81.5553 44.7283 83.2723 45.5068 84.3836 46.9837C87.0381 50.0654 86.7747 55.1786 83.8622 57.9991C82.0767 59.8279 79.4749 60.6224 76.9785 60.4144C73.8026 59.7106 71.2008 57.3273 70.2633 54.1656C66.9453 54.1496 63.6272 54.1442 60.3091 54.1709C59.2399 58.1751 55.2582 60.8836 51.1976 60.4144C48.364 59.7373 45.8992 57.8125 44.7931 55.056C44.5877 53.7977 44.3507 52.5394 44.3086 51.2651C44.5087 50.6413 44.6773 50.0121 44.8353 49.3776C45.778 47.3462 47.2422 45.4428 49.4016 44.6643C52.4089 43.2674 56.1799 44.2538 58.3551 46.7224C59.4927 47.8687 59.9352 49.4789 60.504 50.9505C63.7167 50.8865 66.9295 50.9505 70.1422 50.9132C70.8163 47.6715 73.2707 44.9949 76.4571 44.1791C76.4887 41.3426 76.4729 38.5115 76.4676 35.6749C72.0382 34.6886 68.9308 29.5914 70.5161 25.1927ZM73.6551 25.9978C73.5445 27.1441 73.5603 28.2958 73.6973 29.4368C74.7454 30.8763 76.0937 32.5825 78.0898 32.3053C80.1228 32.6145 81.6501 30.9563 82.6824 29.4101C82.7404 28.3277 82.872 27.2241 82.6877 26.147C81.9293 24.1156 79.87 22.5961 77.6684 22.996C75.7829 22.964 74.5821 24.5582 73.6551 25.9978ZM47.8057 52.2035C47.5529 54.2349 49.1172 55.7971 50.6919 56.7568C52.1561 56.7888 53.8573 57.194 55.0423 56.069C57.8284 54.3469 57.6652 49.6655 54.7948 48.1193C51.9191 46.1839 47.4476 48.6632 47.8057 52.2035ZM74.3662 49.5216C73.2707 50.7639 73.5445 52.5074 73.7025 54.0216C74.4662 55.0613 75.3721 55.989 76.4044 56.7568C77.9054 56.7941 79.6277 57.1834 80.8812 56.0904C83.2091 54.5815 83.5778 50.7319 81.4553 48.8924C79.6435 46.7491 75.804 47.101 74.3662 49.5216Z" fill="#525253"/>
<path d="M26.2494 22.5854C29.3357 19.4716 34.6183 19.9142 37.6678 22.8573C36.9304 23.6944 36.2194 24.5582 35.5295 25.4326C34.0758 23.961 31.7427 22.852 29.8097 24.0943C26.9973 25.6192 27.0921 30.3165 29.9625 31.7401C31.8585 32.9237 34.0021 31.6974 35.5874 30.5564C36.1878 31.1962 36.7777 31.8467 37.3781 32.4865C37.3939 32.6465 37.4203 32.9717 37.4361 33.1317C35.6875 34.422 33.6861 35.6323 31.4372 35.4563C28.2297 35.6056 25.4699 33.2863 24.2691 30.4071C23.6476 27.6772 24.0215 24.4782 26.2494 22.5854Z" fill="#525253"/>
<path d="M49.6331 20.6233C50.8392 20.6073 52.0453 20.6073 53.2514 20.6019C53.2461 24.4461 53.2514 28.2904 53.2461 32.1346C55.3423 32.1452 57.4332 32.1452 59.5242 32.1399C59.5189 33.2276 59.5189 34.3099 59.5189 35.3976C56.2588 35.3923 52.9986 35.403 49.7385 35.3923C49.5015 30.4764 49.6963 25.5445 49.6331 20.6233Z" fill="#525253"/>
<path d="M99.7581 21.2258C102.739 19.7169 106.326 20.426 109.165 21.9349C108.743 22.9533 108.264 23.9397 107.774 24.926C105.91 23.8917 103.824 23.2039 101.686 23.6571C101.633 24.0356 101.538 24.7874 101.486 25.166C103.397 26.3869 105.778 26.5149 107.664 27.7732C108.722 28.4823 109.101 29.7406 109.428 30.9136C109.086 33.2596 107.263 34.8645 105.046 35.3817C102.123 35.6856 99.0629 34.9818 96.7402 33.105C97.1247 32.1079 97.6356 31.1695 98.1096 30.2098C100.122 31.852 102.729 32.7904 105.299 32.0813C105.409 31.0522 105.067 30.1992 104.161 29.7033C102.039 28.9888 99.263 28.8396 98.0253 26.6695C97.2511 24.7341 97.8252 22.2122 99.7581 21.2258Z" fill="#525253"/>
<path d="M123.205 20.6073C127.013 20.6073 130.821 20.5967 134.629 20.618C134.629 21.5297 134.634 22.4415 134.639 23.3532C132.095 23.6998 129.525 23.4812 126.971 23.5558C126.976 24.5049 126.976 25.4539 126.981 26.403C129.257 26.4296 131.532 26.435 133.807 26.3977C133.797 27.4214 133.791 28.4451 133.781 29.4688C131.516 29.4634 129.246 29.4581 126.976 29.4794C126.976 30.4125 126.976 31.3456 126.976 32.2786C129.604 32.2999 132.227 32.2733 134.855 32.2999C134.86 33.3343 134.85 34.3687 134.845 35.403C130.968 35.3977 127.087 35.403 123.205 35.3977C123.21 30.4658 123.21 25.5392 123.205 20.6073Z" fill="#525253"/>
<path d="M147.566 20.6179C151.353 20.8952 155.667 19.6475 158.948 22.1535C162.672 24.926 162.498 31.4415 158.558 33.9261C155.272 36.0694 151.243 35.2537 147.566 35.3816C147.572 30.4604 147.572 25.5392 147.566 20.6179ZM151.464 23.5238C151.453 26.4456 151.459 29.3727 151.459 32.2945C153.049 32.1826 154.877 32.6784 156.23 31.5854C158.453 29.8792 158.395 26.1683 156.33 24.3555C154.929 23.2945 153.102 23.5771 151.464 23.5238Z" fill="#525253"/>
<path d="M25.6648 44.4831C26.8815 44.4938 28.1034 44.4938 29.32 44.5044C29.3147 48.37 29.3094 52.2408 29.3252 56.1117C31.4109 56.1117 33.4965 56.0957 35.5822 56.1384C35.5769 57.0981 35.5822 58.0578 35.5822 59.0175C32.2905 59.3908 28.9566 59.3001 25.6543 59.0442C25.6964 54.1869 25.6806 49.335 25.6648 44.4831Z" fill="#525253"/>
<path d="M96.8367 44.4777C100.329 44.8455 104.305 43.5179 107.402 45.688C110.193 48.018 109.361 52.8699 106.275 54.5601C104.405 55.0719 102.477 55.1732 100.555 55.1146C100.55 56.5062 100.55 57.8978 100.523 59.2894C99.2858 59.2467 98.0533 59.1454 96.8262 59.0494C96.8367 54.1922 96.8156 49.3349 96.8367 44.4777ZM100.529 47.6287C100.555 49.1056 100.55 50.5879 100.55 52.0648C102.161 51.9155 104.363 52.6619 105.311 50.8758C105.522 49.8308 105.659 48.3912 104.616 47.746C103.71 47.4794 102.767 47.4261 101.845 47.3035C101.514 47.3888 100.855 47.5488 100.529 47.6287Z" fill="#525253"/>
<path d="M144.428 46.1786C144.955 46.104 145.481 46.024 146.013 45.9493C145.75 46.7544 145.471 47.5595 145.202 48.3646C145.65 48.37 146.54 48.37 146.988 48.3753L146.951 49.2177C146.287 49.2284 145.618 49.2391 144.96 49.255C144.333 51.2865 143.733 53.3339 143.28 55.4186C144.238 55.6479 145.234 55.6425 146.219 55.7385C145.323 56.0744 144.417 56.3623 143.511 56.6502C142.995 56.4423 142.484 56.2344 141.968 56.0264C141.921 53.6804 142.932 51.5157 143.527 49.2977C143.09 49.2497 142.211 49.1591 141.773 49.1111C142.079 48.8765 142.695 48.4073 143.001 48.1727C143.132 48.3326 143.401 48.6579 143.533 48.8178C143.843 47.9434 144.149 47.0637 144.428 46.1786Z" fill="#525253"/>
<path d="M119.335 48.5832C119.508 48.4659 119.851 48.2366 120.024 48.1193C120.035 48.4766 120.061 49.1857 120.072 49.5376C121.183 48.3166 122.726 48.114 124.138 48.9191C124.923 51.4624 124.011 54.4215 121.763 55.8664C120.693 56.6182 119.335 56.3623 118.134 56.2503C117.981 57.13 117.823 58.0045 117.67 58.8842C117.918 58.9162 118.413 58.9855 118.66 59.0175C118.645 59.2201 118.613 59.62 118.597 59.8226C117.312 59.8066 116.027 59.8066 114.747 59.8066C114.721 59.6253 114.679 59.2628 114.652 59.0761C115.01 59.0068 115.722 58.8629 116.08 58.7936C116.938 55.7118 117.697 52.6034 118.534 49.5163C118.118 49.3563 117.286 49.0311 116.875 48.8711C117.691 48.7538 118.508 48.6632 119.335 48.5832ZM119.719 50.2574C119.377 51.9635 118.924 53.6431 118.529 55.3332C119.371 55.8078 120.451 56.085 121.246 55.3439C122.979 53.9363 123.063 51.361 122.563 49.335C121.494 49.223 120.572 49.6762 119.719 50.2574Z" fill="#525253"/>
<path d="M129.693 48.2632C131.02 48.8231 132.389 48.983 133.722 48.3379C132.868 50.7052 132.157 53.1205 131.578 55.5731C131.984 55.6211 132.784 55.7277 133.19 55.7811L133.163 56.4742C132.005 56.3782 130.377 56.7728 130.398 55.0773C129.624 55.893 128.645 56.3942 127.602 56.7568C126.906 56.1809 125.837 55.7971 125.732 54.7734C125.232 51.9528 127.217 49.3243 129.693 48.2632ZM127.233 53.8989C127.143 54.832 127.818 55.7597 128.824 55.6211C130.909 54.6774 131.015 52.0541 131.594 50.124C131.183 49.6175 130.757 49.1323 130.304 48.6685C128.386 49.6762 127.244 51.7236 127.233 53.8989Z" fill="#525253"/>
<path d="M139.755 48.1513C140.524 48.5352 141.272 48.9937 141.33 49.9588C140.961 50.2947 140.598 50.6253 140.235 50.9612C139.803 50.5879 139.366 50.2094 138.934 49.8468L138.812 49.5749C138.844 48.9404 139.16 48.4659 139.755 48.1513Z" fill="#525253"/>
<path d="M173.271 48.2473C174.171 48.3913 175.056 48.6259 175.925 48.9245C175.962 49.6229 175.988 50.3267 175.999 51.0252C175.536 50.9559 175.077 50.8812 174.619 50.8012C174.651 50.2894 174.714 49.2604 174.746 48.7485C174.114 49.1377 172.744 48.9245 172.597 49.8468C172.265 51.601 174.545 51.9902 175.467 53.0619C175.414 53.7604 175.43 54.4748 175.272 55.1573C174.161 56.9328 171.649 56.6449 170.105 55.6585C170.121 55.0827 170.148 54.5068 170.174 53.931C170.706 53.9363 171.233 53.947 171.765 53.9577C171.728 54.4482 171.649 55.4292 171.612 55.9144C172.607 55.8238 173.792 56.0157 174.34 54.944C174.219 52.6994 170.5 52.6514 171.111 49.9801C171.791 49.3563 172.518 48.7858 173.271 48.2473Z" fill="#525253"/>
<path d="M134.696 48.9191C135.797 48.7111 136.898 48.5352 137.993 48.3166C137.94 48.7645 137.83 49.6655 137.777 50.1134C136.84 52.2141 136.513 54.5121 135.786 56.6822C135.275 56.5329 134.77 56.3782 134.27 56.229C134.586 55.4772 134.87 54.7147 135.17 53.9576C135.539 52.4647 135.929 50.9718 136.35 49.4949C135.939 49.351 135.112 49.063 134.696 48.9191Z" fill="#525253"/>
<path d="M148.959 49.5429C145.214 48.6258 149.565 48.7324 150.492 48.3379C150.539 48.7378 150.623 49.5322 150.666 49.9321C149.344 51.7876 149.265 54.2029 148.722 56.3569C148.127 56.3836 147.537 56.3995 146.947 56.4209C147.743 54.1709 148.48 51.8835 148.959 49.5429Z" fill="#525253"/>
<path d="M151.535 48.8924C152.03 48.7431 153.01 48.4445 153.5 48.2952C153.821 48.4712 154.469 48.8177 154.796 48.9884C154.996 51.2704 153.89 53.3338 153.331 55.4825C153.837 55.6211 154.843 55.8984 155.343 56.0423C154.264 56.5062 153.084 56.4475 151.951 56.2502C152.03 54.0056 153.321 52.0381 153.447 49.7988C152.763 49.7295 152.078 49.6708 151.398 49.6282C151.43 49.4416 151.504 49.0737 151.535 48.8924Z" fill="#525253"/>
<path d="M157.076 56.0957C154.595 52.6513 158.461 46.8184 162.527 48.7858C162.733 49.271 162.938 49.7562 163.149 50.2414C162.353 52.1235 160.368 52.8806 158.445 52.694L158.398 53.0406L157.777 52.8753C157.835 53.4404 157.94 54.5761 157.993 55.1466C159.204 56.117 160.663 55.6211 161.637 54.5761C161.827 54.6348 162.206 54.7574 162.396 54.816C161.037 56.3889 158.988 56.7995 157.076 56.0957ZM157.877 52.2035C159.72 52.4541 161.558 51.5636 161.8 49.5749C161.421 49.367 160.663 48.9511 160.284 48.7431C159.241 49.7082 158.245 50.7799 157.877 52.2035Z" fill="#525253"/>
<path d="M163.792 48.9457C164.577 48.7964 166.147 48.4925 166.931 48.3379C166.952 48.6365 166.989 49.2283 167.01 49.5216C167.827 49.047 168.654 48.5778 169.502 48.1566C169.865 48.7591 170.218 49.3723 170.56 49.9908C170.086 50.316 169.617 50.6412 169.143 50.9611C168.822 50.4066 168.511 49.8468 168.211 49.287C167.621 49.8148 167.037 50.348 166.463 50.8865C166.394 51.2331 166.252 51.9209 166.183 52.2674C165.794 53.6004 165.467 54.9493 165.146 56.3036C164.63 56.4155 164.119 56.5275 163.613 56.6448C163.682 56.0317 163.761 55.4132 163.84 54.8L164.161 54.5494C164.572 52.8539 165.051 51.1744 165.483 49.4842C165.062 49.3509 164.214 49.079 163.792 48.9457Z" fill="#525253"/>
</svg>
