<svg width="200" height="80" viewBox="0 0 200 80" fill="none" xmlns="http://www.w3.org/2000/svg">
<path d="M92.1298 24C92.8304 24 93.5461 24.2031 94.0686 24.6843C96.0041 23.9417 98.2858 23.7186 100.203 24.6344C101.933 25.3637 103.533 26.3427 105.174 27.2435C104.729 27.9478 104.077 28.4822 103.471 29.0434C101.271 28.031 99.3241 26.5425 97.0761 25.6317C96.2192 25.3487 95.2968 25.0523 94.3979 25.337C94.5004 27.9394 93.2185 30.4503 91.3603 32.2335C90.5622 32.9046 89.5877 33.6388 88.4755 33.4773C87.7413 33.2775 87.4909 32.3867 87.6421 31.7224C88.1798 29.5795 89.6868 27.8229 91.3384 26.4076C91.9483 25.8548 92.6943 25.4802 93.3109 24.9357C92.3498 24.6394 91.4107 25.0456 90.5857 25.5052C89.7372 25.8282 89.0719 26.4459 88.3377 26.9538C84.9136 29.6394 82.1716 33.1177 80.0849 36.9056C79.1104 38.9619 78.099 41.1065 78.0872 43.4258C78.0334 44.4482 78.5593 45.5488 79.5489 45.9534C80.3487 46.2497 81.2341 45.9783 81.9431 45.5721C83.598 44.4965 84.8901 42.958 85.8763 41.273C86.4711 40.184 86.7886 38.9636 86.8945 37.7365C86.9113 37.3468 86.6441 37.0288 86.4341 36.7274C85.4344 36.6475 84.7237 37.4368 84.2197 38.1843C83.6871 38.837 83.4872 39.6662 83.2603 40.4554C83.2318 40.875 82.7412 40.915 82.4556 41.1048C81.55 41.5227 80.9149 42.3036 80.1538 42.913C80.3856 40.8933 81.1703 38.9086 82.548 37.3851C83.5157 36.5276 84.6733 35.6735 86.0376 35.7201C86.4375 35.8267 86.9264 35.9282 87.1213 36.3412C87.6102 37.0555 87.4455 37.9746 87.4103 38.7854C87.0625 40.6736 86.0006 42.3386 84.8917 43.8787C83.7392 45.254 82.3951 46.5328 80.7351 47.2837C79.4128 47.8981 77.7512 48.0063 76.4978 47.1722C75.6997 46.5411 75.1638 45.5887 75.0193 44.588C74.7353 43.2876 75.0109 41.9506 75.3133 40.6786C76.434 37.3235 78.2183 34.1933 80.4948 31.4743C82.4136 29.2648 84.5608 27.1968 87.1196 25.7266C88.6401 24.8175 90.332 24.0816 92.1298 24ZM88.8014 30.3987C88.4435 30.9781 88.3058 31.6525 88.2016 32.3135C88.2587 32.4067 88.3747 32.5915 88.4318 32.6848C88.5175 32.7347 88.6905 32.8363 88.7779 32.8879C88.8535 32.8846 89.0064 32.8796 89.0837 32.8762C90.1909 32.6032 90.952 31.7041 91.7148 30.9298C92.911 29.4296 93.8939 27.5681 93.7796 25.6067C91.6022 26.5408 89.9725 28.399 88.8014 30.3987Z" fill="#525253"/>
<path d="M27.3564 24.959C27.9663 24.5644 28.5963 24.0732 29.3541 24.0466C29.7321 24.0066 29.9975 24.3163 30.2815 24.5095C30.3907 25.1938 30.2344 25.8765 29.9051 26.4809C29.7959 26.8006 29.4028 26.7972 29.1424 26.9288C29.4196 26.2844 29.7354 25.635 29.7371 24.9191C29.6414 24.8591 29.4498 24.7393 29.3541 24.6793C27.9259 25.3903 26.9548 26.699 25.9451 27.8795C23.9491 30.3587 22.2975 33.0827 20.6207 35.7784C23.2367 34.0784 25.4242 31.8123 27.4219 29.4463C27.6706 29.418 27.9175 29.3913 28.1662 29.3647C25.9955 32.3151 23.2031 34.7427 20.2377 36.884C19.4866 37.3385 19.1977 38.2093 18.7541 38.9169C19.9285 37.7731 21.1634 36.6126 22.7058 35.9748C23.2014 35.7467 23.7575 35.8267 24.2834 35.8683C24.4867 36.2546 24.8547 36.6558 24.6766 37.1187C24.4363 38.1044 23.8331 38.9386 23.3409 39.8094C22.405 41.531 21.3751 43.1977 20.4326 44.9144C20.2528 45.2657 20.152 45.8318 20.5502 46.0766C21.7834 46.2464 22.7814 45.3673 23.813 44.8544C24.1507 43.3775 24.7875 41.9839 25.6309 40.7252C26.8288 38.852 28.4636 37.2203 30.4529 36.1813C31.1148 35.86 31.8558 35.5669 32.6051 35.6818C32.9479 35.7567 33.3729 35.8783 33.5006 36.2446C33.8383 36.8823 33.4301 37.5533 33.1394 38.1227C31.6138 40.8734 29.0752 42.8847 26.5146 44.648C26.4239 45.2274 26.7482 45.7336 27.148 46.1215C27.5429 46.0849 27.9595 46.0799 28.3073 45.8684C29.6733 45.1791 30.6108 43.9387 31.5534 42.7848C31.7197 42.5217 32.0641 42.615 32.3212 42.5633C31.6575 43.8188 30.6797 44.8794 29.6699 45.8701C28.7089 46.7975 27.5177 47.5801 26.1635 47.7582C25.3805 47.7199 24.4414 47.3986 24.1406 46.6077C23.9944 46.2664 23.9155 45.9017 23.8079 45.5487C22.2353 46.3696 20.7921 47.5951 18.9675 47.8065C18.3374 47.9247 17.6066 47.5667 17.5125 46.8974C17.3294 45.7219 18.1745 44.7695 18.6466 43.7755C19.7823 41.8657 20.8341 39.906 22.0085 38.0212C22.0169 37.8996 22.0354 37.6565 22.0455 37.535C21.6843 37.5267 21.3113 37.5616 21.0105 37.7814C19.5068 38.7654 18.3912 40.2007 17.2991 41.596C15.824 43.4941 14.8125 45.6853 13.5306 47.7049C12.7191 47.8115 11.8908 47.7432 11.0742 47.7283C11.3733 46.9723 11.8622 46.318 12.2772 45.6253C14.2766 42.3952 16.2742 39.1634 18.2786 35.9366C19.3405 34.1383 20.5653 32.4433 21.7867 30.7483C23.4081 28.6154 25.2193 26.5958 27.3564 24.959ZM28.6081 40.0075C27.8722 41.1564 27.0825 42.3119 26.7616 43.6556C28.4703 42.6316 29.9035 41.2363 31.2425 39.7861C31.9868 38.832 32.8319 37.8547 32.9865 36.6109C32.8857 36.541 32.6874 36.4011 32.5866 36.3312C30.8359 37.0072 29.6111 38.4957 28.6081 40.0075Z" fill="#525253"/>
<path d="M48.2651 27.0503C50.3367 25.4636 52.783 23.9684 55.5014 24.1082C56.076 24.2964 56.6322 24.6727 56.7918 25.2854C56.8338 25.8565 56.8892 26.4709 56.6137 26.9987C56.2777 27.7463 55.8022 28.6221 54.9067 28.7703C54.7555 28.7153 54.6093 28.6554 54.4648 28.5905C54.4009 28.4273 54.3354 28.2641 54.2682 28.1026C54.4211 27.6414 54.5404 27.1269 54.9352 26.8006C55.2309 26.4443 55.7115 26.4093 56.1382 26.341C56.1819 26.2311 56.2676 26.0113 56.3096 25.9015C56.2726 25.7999 56.1987 25.5968 56.1617 25.4952C55.992 25.3387 55.8223 25.1838 55.6526 25.0306C54.1439 24.999 52.8569 25.9048 51.7312 26.7956C48.8179 29.2132 46.4758 32.2552 44.6259 35.5336C43.6649 37.3635 42.8064 39.3099 42.6484 41.3912C42.5728 42.7898 42.7425 44.3832 43.8514 45.3806C44.7251 46.298 46.0137 46.5927 47.2369 46.6793C49.1741 46.656 51.076 46.1998 52.9258 45.657C55.4342 45.1175 57.8839 44.3 60.436 43.967C62.9243 43.5607 65.5671 43.6373 67.9109 44.638C69.6482 45.4805 71.3703 46.4812 72.6354 47.9614C70.5537 46.9873 68.2688 46.0233 65.9149 46.4545C64.9908 46.5827 64.2734 47.2188 63.6467 47.8548C62.5714 46.3746 60.7602 45.5338 58.944 45.4605C56.4457 45.294 54.033 46.0616 51.6321 46.626C50.246 47.0006 48.8481 47.3303 47.4418 47.62C45.7163 47.9364 43.8581 47.9231 42.2452 47.1622C40.7297 46.4096 39.7216 44.8628 39.4679 43.221C39.1252 41.2397 39.5721 39.2266 40.2307 37.3552C41.8806 33.2659 44.8024 29.7676 48.2651 27.0503Z" fill="#525253"/>
<path d="M107.791 25.2687C108.645 24.6909 109.581 24.0199 110.663 24.0499C111.165 24.005 111.326 24.5644 111.365 24.954C111.385 25.8814 110.824 26.6757 110.458 27.4915C110.32 27.5132 110.046 27.5581 109.908 27.5798C110.152 26.654 111.086 25.7932 110.722 24.7925C109.672 24.8142 108.988 25.7382 108.272 26.3793C105.975 28.4889 104.295 31.1346 102.563 33.6937C101.461 35.4986 100.298 37.2802 99.4479 39.2233C100.7 38.2459 101.886 37.1953 103.018 36.0864C104.885 34.2265 106.622 32.2402 108.233 30.1589C108.433 30.1605 108.635 30.1639 108.838 30.1689C107 32.7264 104.885 35.069 102.595 37.2352C101.83 38.0394 100.965 38.7404 100.112 39.4481C99.6327 39.8427 98.9926 40.1057 98.7154 40.6952C98.1592 41.9905 97.5998 43.3292 97.5225 44.7545C97.4889 45.0742 97.6065 45.3789 97.7106 45.6786C98.008 45.6203 98.3726 45.7002 98.6062 45.4621C99.1942 44.9726 99.6848 44.3815 100.113 43.7521C101.682 41.4145 103.158 38.9486 105.308 37.0771C105.846 36.6758 106.34 36.1846 106.987 35.9598C107.511 35.7517 108.087 35.81 108.632 35.8932C108.781 36.0214 108.936 36.1463 109.095 36.2679C109.164 36.3794 109.233 36.491 109.304 36.6042C109.487 36.3411 109.677 36.0797 109.873 35.8266C110.592 35.8183 111.311 35.8133 112.03 35.8333C110.649 38.4191 109.184 40.9599 107.765 43.524C107.39 44.1751 106.888 44.8727 107.079 45.6653C107.701 45.547 108.185 45.1175 108.645 44.7145C109.552 43.7854 110.256 42.6915 111.011 41.6426C111.194 41.6559 111.379 41.6692 111.565 41.6859C111.152 42.4068 110.696 43.1061 110.186 43.7638C109.26 45.0342 108.242 46.2846 106.898 47.1421C106.38 47.4685 105.797 47.8281 105.16 47.7465C104.87 47.66 104.646 47.4468 104.403 47.2837C104.349 46.7375 104.345 46.1881 104.421 45.6453C103.934 46.1664 103.346 46.581 102.865 47.1072C102.153 47.5417 101.315 47.9513 100.468 47.6433C100.236 47.3586 99.9603 47.0889 99.8343 46.7392C99.6814 46.1681 99.841 45.5787 99.9435 45.0142C99.3017 45.7768 98.5961 46.4961 97.803 47.1022C97.126 47.6017 96.0439 47.9647 95.3669 47.2837C94.6259 46.5177 94.799 45.3456 95.0493 44.4098C95.266 43.2976 95.6928 42.2453 96.0271 41.1647C95.8759 41.1963 95.5718 41.2579 95.4206 41.2896C95.1115 41.3129 94.8057 41.3379 94.5016 41.3728C93.6195 42.8897 92.7072 44.4215 91.4269 45.6469C90.5466 46.5594 89.4948 47.3652 88.2465 47.6966C87.4316 47.9647 86.437 47.3919 86.3143 46.5411C86.1681 45.5121 86.3328 44.4498 86.7327 43.4924C87.6248 41.2496 88.9504 39.1384 90.7986 37.5483C91.9847 36.5676 93.4633 35.3987 95.1115 35.8549C95.4206 36.1596 95.7785 36.4893 95.8054 36.9539C96.007 38.3092 95.3383 39.5646 94.8561 40.7867C95.4593 40.7201 96.343 40.7684 96.5497 40.0475C99.2076 34.4297 102.859 29.1565 107.791 25.2687ZM93.0063 37.3801C92.5778 37.9229 92.1628 38.7021 92.5694 39.3681C92.8131 40.0525 93.4566 40.522 94.1656 40.6452C94.6293 39.8577 95.0292 39.0118 95.1703 38.1044C95.2039 37.6049 95.1988 36.8972 94.6343 36.6841C94.0026 36.5043 93.4045 36.9389 93.0063 37.3801ZM108.351 36.7757C108.238 36.8256 108.013 36.9239 107.901 36.9738C106.121 38.1843 105.006 40.0575 103.899 41.8407C103.431 42.5467 103.109 43.3342 102.805 44.1185C102.602 44.628 102.575 45.2706 103.033 45.6569C103.608 45.4521 104.159 45.1225 104.53 44.6313C105.347 43.6239 105.935 42.4634 106.575 41.3445C107.398 39.9426 108.213 38.534 109.008 37.1154C108.791 36.9921 108.574 36.8773 108.351 36.7757ZM90.4575 41.0298C89.767 42.1021 89.1504 43.2926 89.1218 44.593C89.11 44.8727 89.2445 45.1291 89.3335 45.3889C89.4662 45.4371 89.7317 45.5354 89.8644 45.5837C90.2979 45.4438 90.7398 45.2856 91.0792 44.966C92.2603 43.9286 93.2096 42.6333 93.8883 41.2246C93.4733 41.0415 93.0281 40.9133 92.6602 40.6435C92.2233 40.2956 91.9663 39.7894 91.647 39.3448C91.1665 39.846 90.8439 40.4604 90.4575 41.0298Z" fill="#525253"/>
<path d="M114.069 25.9814C114.94 25.4402 115.661 24.7026 116.486 24.1016C115.795 25.4852 114.646 26.5641 113.486 27.5615C111.27 29.3314 108.291 30.5319 105.434 29.8292C106.02 29.2149 106.442 28.4639 107.083 27.8962C109.547 28.2641 112.055 27.3583 114.069 25.9814Z" fill="#525253"/>
<path d="M13.3605 24.4562C16.0302 23.8035 18.7789 24.5144 21.2773 25.4668C22.4836 25.9114 23.6748 26.3942 24.8476 26.9154C24.3654 27.6364 23.7235 28.2358 23.0952 28.8302C20.8623 28.0226 18.7487 26.9121 16.4603 26.256C14.545 25.61 12.3911 25.6017 10.5295 26.4226C8.96695 27.0319 7.70685 28.2474 6.87686 29.676C6.5694 30.4985 6.13089 31.4759 6.65509 32.3067C7.04488 32.9827 7.94039 33.1609 8.63764 32.8795C10.9075 32.2485 12.381 30.2355 13.4882 28.3007C13.5285 28.2874 13.6058 28.2607 13.6461 28.2474C13.5688 28.5038 13.5016 28.7669 13.4378 29.0283C13.169 29.661 12.8766 30.2904 12.4902 30.8632C11.6316 32.0503 10.7546 33.2891 9.46091 34.05C8.40578 34.7393 7.06672 35.1822 5.8167 34.7876C4.95815 34.4297 4.73301 33.4023 4.78678 32.5715C4.95983 31.1995 5.72933 30.009 6.49211 28.8901C8.14368 26.6623 10.6 24.9756 13.3605 24.4562Z" fill="#525253"/>
<path d="M33.5165 25.0789C33.834 24.8241 34.1516 24.5677 34.4758 24.3213C33.9919 25.3469 33.1368 26.1262 32.3236 26.8954C30.294 28.5238 27.6881 29.6294 25.0352 29.3613C25.4501 28.5571 26.0466 27.8545 26.68 27.2118C29.128 27.3833 31.5894 26.5641 33.5165 25.0789Z" fill="#525253"/>
<path d="M132.935 24.9091C133.695 24.7726 134.501 24.7676 135.23 25.0573C135.447 25.3087 135.686 25.5485 135.87 25.8282C136.215 27.0536 135.585 28.4006 134.562 29.1133C134.281 29.3031 133.925 29.2498 133.609 29.2565C133.019 28.1209 134.13 26.8189 135.338 26.8921C135.297 26.5608 135.423 26.1512 135.177 25.8831C134.546 25.3736 133.658 25.6284 133.011 25.9697C129.822 27.6381 127.322 30.3138 125.156 33.1177C123.179 36.0531 121.247 39.23 120.949 42.8297C120.716 44.2167 121.601 45.945 123.143 46.0383C124.711 46.0882 125.912 44.8894 126.914 43.8454C128.271 42.3086 129.43 40.4904 129.77 38.4457C129.772 37.9163 129.95 37.2053 129.427 36.8556C128.918 36.5992 128.338 36.8989 127.922 37.197C126.914 38.0578 126.499 39.3698 126.216 40.6119C125.423 40.8733 124.664 41.268 124.076 41.864C123.736 42.242 123.432 42.6499 123.096 43.0279C123.397 40.5986 124.321 38.0162 126.421 36.5559C127.381 35.8217 128.728 35.457 129.847 36.0614C130.071 36.486 130.358 36.9056 130.397 37.3984C130.467 38.2426 130.223 39.0701 129.963 39.866C129.264 41.8241 128.066 43.5773 126.636 45.0825C125.286 46.3063 123.713 47.5568 121.798 47.6184C121.253 47.5201 120.682 47.5384 120.173 47.297C119.108 46.8025 118.357 45.7502 118.163 44.6097C117.712 42.262 118.469 39.8926 119.42 37.7614C121.344 33.4607 124.523 29.7377 128.419 27.0636C129.84 26.1928 131.285 25.2837 132.935 24.9091Z" fill="#525253"/>
<path d="M18.6029 28.9235C19.1523 28.7504 19.7285 28.5938 20.3099 28.6971C19.574 29.1466 18.786 29.5379 18.1727 30.1573C16.501 31.8057 15.3468 33.867 14.1908 35.88C12.4889 38.624 11.1044 41.5927 8.95218 44.0353C7.5543 45.5971 5.86577 47.0173 3.79921 47.5868C2.6584 47.9814 1.23533 47.725 0.437264 46.7942C-0.827875 44.8495 0.830415 41.9057 3.1322 41.8291C3.47326 42.0772 3.53039 42.4702 3.52367 42.8614C3.13892 43.4292 2.41646 43.7239 1.74105 43.6074C1.53103 43.5874 1.24205 43.4559 1.10428 43.6939C0.25749 44.6047 0.275972 46.2997 1.47223 46.9191C2.58783 47.327 3.76225 46.7293 4.58887 45.9967C6.43702 44.2417 7.5375 41.9174 8.84801 39.7778C10.6659 36.6675 12.341 33.3508 15.1048 30.9382C16.1062 30.0208 17.3276 29.3814 18.6029 28.9235Z" fill="#525253"/>
<path d="M54.2763 30.2772C54.9131 30.0374 55.5935 29.796 56.2807 29.9808C56.9494 30.1956 57.2552 30.9448 57.2636 31.5909C57.2048 32.6015 56.82 33.5489 56.447 34.478C58.2414 34.1417 59.315 32.5399 60.6054 31.421C61.5765 30.6651 62.6904 29.8093 63.9976 29.9325C64.3789 29.9275 64.7166 30.1173 65.0661 30.2422C65.4878 30.7467 65.5651 31.3861 65.4929 32.0171C65.13 32.8929 64.6595 34.0052 63.5926 34.1667C63.3053 34.1217 63.1592 33.8453 62.9676 33.6638C63.1424 33.1377 63.3121 32.5483 63.7976 32.2186C64.1219 31.9672 64.547 31.9389 64.9401 31.8723C64.93 31.6625 64.9199 31.4543 64.9115 31.2462C64.7839 31.123 64.6595 30.9981 64.5352 30.8749C64.3789 30.8749 64.0681 30.8732 63.9119 30.8716C62.6366 31.4726 61.7075 32.5766 60.8574 33.6588C59.7384 35.0791 58.9504 36.7358 58.443 38.4608C58.3523 39.1284 58.6447 40.1091 59.4562 40.1458C60.182 40.2157 60.8036 39.7295 61.3547 39.3266C64.3369 36.9056 65.9364 33.2059 69.0144 30.8832C69.7234 30.3155 70.6038 29.8243 71.5481 29.9325C72.0353 29.9192 72.368 30.3371 72.7174 30.6118C72.8451 30.3904 72.9779 30.1723 73.1055 29.9525C73.8347 29.9292 74.5656 29.9342 75.2964 29.9442C75.0713 30.5302 74.747 31.0697 74.4228 31.6058C73.4281 33.3475 72.4133 35.0791 71.4036 36.814C70.9735 37.6399 70.419 38.4041 70.0897 39.2799C70.162 39.3782 70.3064 39.5763 70.3787 39.6746C72.1395 38.9969 73.0064 37.1987 74.1808 35.8583C74.3152 35.8383 74.5824 35.8 74.7168 35.7801C74.2245 36.884 73.4063 37.7898 72.6654 38.7322C71.6724 39.9493 70.5551 41.1714 69.0379 41.7359C68.586 41.924 68.092 41.7858 67.6518 41.636C67.3108 41.0366 67.3629 40.3422 67.5594 39.7062C66.7412 40.5121 65.928 41.4378 64.7738 41.7492C64.142 41.959 63.2583 41.7725 63.0382 41.0782C62.5896 40.1591 63.1205 39.1917 63.344 38.2926C61.8755 39.7312 60.3819 41.3845 58.2717 41.8324C57.6198 41.7275 56.8032 41.7508 56.3815 41.1548C55.8052 40.4904 55.8254 39.5697 55.8674 38.7471C56.1177 37.3452 56.7747 36.0764 57.4736 34.851C57.0099 34.9925 56.5025 35.0275 56.0673 35.2406C55.5515 35.9199 55.2071 36.7108 54.7031 37.4018C53.7219 38.7804 52.6449 40.1558 51.1849 41.0649C50.4238 41.5877 49.461 42.0489 48.5235 41.7492C47.828 41.5427 47.6011 40.7585 47.5726 40.1175C47.5323 38.7988 48.0363 37.535 48.6059 36.3678C49.9348 33.9136 51.8116 31.6708 54.2763 30.2772ZM54.0024 32.2202C53.863 32.5999 53.6547 33.0494 53.8932 33.4357C54.2225 34.1417 55.0072 34.4714 55.7548 34.508C56.1497 33.6355 56.5848 32.7281 56.5394 31.7474C56.5831 31.2529 56.1396 30.735 55.6171 30.8383C54.9534 31.103 54.2612 31.5209 54.0024 32.2202ZM70.2325 31.7823C68.8985 33.1177 67.8619 34.7045 66.8487 36.2829C66.3917 37.0904 65.9801 37.9413 65.7617 38.8437C65.6071 39.2417 66.0456 39.8361 66.4825 39.6063C67.7157 38.9469 68.3911 37.6832 69.169 36.5893C70.1603 34.861 71.1852 33.151 72.1781 31.4244C72.3461 31.1646 72.0067 30.9615 71.8942 30.7667C71.2843 31.0014 70.6811 31.2978 70.2325 31.7823ZM52.9389 33.6705C51.9594 34.806 51.2857 36.1597 50.6674 37.51C50.5649 37.9896 50.4322 38.4708 50.4809 38.9669C50.4708 39.2866 50.7161 39.6379 51.0589 39.6479C51.7645 39.7628 52.2904 39.1967 52.7709 38.7804C53.8159 37.7315 54.698 36.516 55.3348 35.1807C54.357 34.9492 53.4799 34.3165 53.0296 33.4157C53.0078 33.479 52.9624 33.6072 52.9389 33.6705Z" fill="#525253"/>
<path d="M77.1814 29.9424C77.9106 29.9174 78.6398 29.9291 79.369 29.9424C79.0296 30.5801 78.7742 31.3227 78.2231 31.8056C77.5326 31.8572 76.837 31.8139 76.1465 31.8172C76.496 31.1962 76.8404 30.5701 77.1814 29.9424Z" fill="#525253"/>
<path d="M159.359 35.7068C159.484 35.532 159.618 35.2423 159.884 35.2939C160.527 35.4055 161.182 35.3755 161.834 35.3838C161.448 36.1947 160.924 36.9323 160.561 37.7531C161.371 37.1021 162.142 36.3445 163.152 36.0015C163.714 35.7834 164.329 35.8134 164.921 35.8517C165.542 36.5027 165.546 37.4917 165.302 38.3059C164.365 41.4029 162.338 44.0503 160.02 46.2731C161.708 45.319 163.311 44.2001 164.707 42.8548C165.962 41.6943 167.029 40.3539 168.074 39.0102C169.109 37.7099 170.332 36.4245 171.969 35.905C172.648 35.6652 173.363 35.9066 173.923 36.3112C174.064 36.1081 174.208 35.9083 174.36 35.7102C175.077 35.7118 175.8 35.6785 176.517 35.7601C175.39 37.9962 174.135 40.1658 172.967 42.3819C172.422 43.4459 171.673 44.4465 171.453 45.6404C171.717 45.7369 171.989 45.9534 172.286 45.8468C173.503 45.304 174.462 44.36 175.39 43.4359C176.865 41.8491 178.068 40.0359 179.136 38.1611C179.644 37.3635 179.985 36.4711 180.546 35.7068C181.257 35.7251 181.981 35.6419 182.678 35.8167C182.36 36.566 181.947 37.2653 181.574 37.9879C182.644 37.1221 183.681 36.0831 185.06 35.7318C185.67 35.5953 186.61 35.577 186.838 36.3062C187.068 37.2536 186.396 38.0229 185.974 38.7971C185.054 40.4522 184.162 42.1205 183.291 43.8005C183.004 44.3084 182.616 44.8145 182.718 45.4322C182.838 45.4722 183.076 45.5505 183.196 45.5888C184.323 45.2707 185.233 44.4915 186.043 43.6823C188.323 41.3629 189.832 38.4491 191.425 35.6552C192.144 35.6552 192.865 35.6469 193.585 35.6635C193.454 36.2013 193.13 36.6576 192.88 37.1421C191.877 38.9869 190.869 40.8301 189.864 42.675C189.446 43.4675 188.97 44.2334 188.642 45.0709C188.821 45.2408 188.994 45.6087 189.301 45.4322C190.101 45.1259 190.707 44.4882 191.297 43.8938C192.735 42.3736 193.54 40.4205 194.599 38.6473C195.197 37.61 195.692 36.5044 196.403 35.5353C197.11 35.5487 197.818 35.5353 198.527 35.557C197.317 38.0945 195.899 40.5271 194.575 43.0063C193.916 44.1618 193.34 45.3606 192.653 46.4995C193.686 45.4189 194.877 44.4865 196.163 43.7173C197.339 43.1328 198.636 42.3519 200 42.7183C199.817 42.8581 199.674 43.0912 199.414 43.0746C197.821 43.2544 196.406 44.1052 195.145 45.0343C193.592 46.1932 192.198 47.5884 191.191 49.2451C189.931 51.4113 188.757 53.6275 187.493 55.792C186.739 55.852 185.983 55.8303 185.23 55.7854C187.041 52.1306 189.105 48.6074 191.045 45.0193C190.106 45.9118 189.141 46.8409 187.923 47.3454C187.461 47.5601 186.893 47.5884 186.472 47.2738C186.117 46.8692 185.969 46.2881 186.134 45.7702C186.279 44.8345 186.813 44.037 187.25 43.2144C185.985 44.5015 184.761 45.8718 183.211 46.8342C182.559 47.2138 181.85 47.6401 181.058 47.5335C180.477 47.5651 179.966 46.9907 180.017 46.4279C179.872 45.2258 180.685 44.2351 181.201 43.2228C182.203 41.308 183.34 39.4581 184.262 37.5017C184.197 37.3885 184.066 37.1621 184 37.0488C183.101 37.1904 182.455 37.918 181.823 38.5091C180.097 40.1291 179.16 42.3386 178.006 44.3516C177.406 45.4106 176.877 46.5095 176.218 47.5335C175.47 47.5285 174.724 47.5352 173.978 47.5268C174.714 46.0949 175.583 44.7313 176.235 43.2577C174.917 44.6297 173.56 45.9967 171.93 47.0074C171.403 47.3187 170.821 47.5685 170.21 47.6451C169.729 47.7067 169.175 47.4269 169.064 46.9341C169.01 46.5145 169.067 46.0933 169.104 45.6753C169.146 45.5888 169.234 45.4173 169.277 45.3307C168.545 45.98 167.933 46.7842 167.066 47.2738C166.586 47.5485 166.026 47.6301 165.484 47.6717C165.137 47.4503 164.677 47.2621 164.595 46.8126C164.165 45.384 164.904 43.9587 165.578 42.7299C164.003 44.1302 162.416 45.5688 160.519 46.5328C159.287 47.1789 157.931 47.7483 156.51 47.6517C156.113 47.4503 155.764 47.1739 155.468 46.8458C153.718 49.8579 152.058 52.9232 150.344 55.9569C149.593 56.0168 148.844 56.0151 148.094 55.9469C150.142 52.0424 152.375 48.2361 154.489 44.3666C154.642 44.0802 154.818 43.8072 154.986 43.5291C153.546 44.8878 152.172 46.3846 150.362 47.2704C149.816 47.5552 149.176 47.5984 148.58 47.4952C147.632 47.0523 147.698 45.7969 148.109 45.001C148.869 43.5608 149.694 42.1538 150.488 40.7335C151.071 39.643 151.829 38.6223 152.142 37.4102C151.874 37.3336 151.604 37.2736 151.335 37.2203C151.28 37.2853 151.17 37.4135 151.115 37.4784C149.121 38.6756 147.945 40.7735 146.824 42.7249C146.011 44.1552 145.172 45.5688 144.395 47.0173C144.267 47.2638 144.082 47.4686 143.889 47.665C143.464 47.6467 143.037 47.6484 142.622 47.5585C142.345 47.5385 142.073 47.5285 141.8 47.5202C142.654 46.04 143.486 44.5481 144.297 43.0463C144.969 41.8874 145.601 40.7069 146.251 39.5364C146.636 38.8437 147.096 38.1727 147.264 37.3852C147.098 37.2969 146.933 37.207 146.77 37.1188C146.021 37.4768 145.297 37.9197 144.737 38.5374C143.627 39.7029 142.703 41.0416 141.97 42.4702C141.049 44.1618 140.077 45.8285 139.174 47.5302C138.423 47.7383 137.635 47.6451 136.883 47.5102C138.321 44.703 139.932 41.9856 141.446 39.2184C140.602 39.7362 139.811 40.3889 138.825 40.6203C138.46 40.7535 138.042 40.7019 137.699 40.8767C137.272 41.3812 137.115 42.0539 136.723 42.585C135.596 44.2484 134.399 45.9617 132.652 47.0423C131.965 47.4686 131.115 47.6634 130.318 47.4769C129.747 47.2471 129.451 46.6727 129.278 46.1232C129.112 44.1219 130.09 42.292 131.048 40.6053C132.056 38.9087 133.396 37.3369 135.149 36.3612C135.952 35.9133 136.918 35.6402 137.829 35.91C138.422 36.1564 138.553 36.8424 138.633 37.4085C138.64 38.4125 138.262 39.3716 137.929 40.3073C138.795 40.1658 139.636 39.8444 140.349 39.3283C141.52 38.584 142.55 37.5717 143.166 36.3229C143.287 36.1048 143.383 35.845 143.627 35.7285C144.312 35.6402 144.998 35.7651 145.678 35.855C145.278 36.6293 144.841 37.3868 144.428 38.1561C145.601 37.1104 146.926 36.1497 148.476 35.7551C148.768 35.6569 149.072 35.8051 149.366 35.8384C149.962 36.6093 149.563 37.5484 149.24 38.3426C150.265 37.3103 151.423 36.3612 152.807 35.8467C153.21 35.6885 153.706 35.6053 154.091 35.8633C154.442 36.0199 154.524 36.4195 154.672 36.7358C154.487 38.0612 153.639 39.1335 153.067 40.3073C152.508 41.303 151.977 42.3153 151.429 43.3177C151.103 44.0569 150.482 44.6946 150.47 45.5405C151.26 46.0233 152.086 45.3906 152.715 44.9294C154.26 43.6906 155.618 42.1988 156.646 40.5104C157.557 38.912 158.471 37.3152 159.359 35.7068ZM135.443 37.9779C135.155 38.6206 135.458 39.3965 135.992 39.8161C136.34 40.1658 136.854 40.2024 137.314 40.299C137.718 39.3782 138.244 38.3609 137.928 37.3369C137.832 36.9323 137.41 36.7891 137.088 36.6059C136.377 36.8057 135.671 37.242 135.443 37.9779ZM170.855 38.4475C169.497 39.9493 168.467 41.7043 167.55 43.4925C167.256 44.0719 167.123 44.7179 167.122 45.3656C167.263 45.4972 167.406 45.6304 167.55 45.7636C168.852 45.344 169.578 44.0852 170.238 42.9897C171.337 40.98 172.486 38.9969 173.563 36.9756C173.384 36.844 173.209 36.7158 173.032 36.591C172.167 37.0272 171.492 37.7398 170.855 38.4475ZM161.481 37.8231C160.559 38.3043 159.874 39.1251 159.297 39.9676C158.13 41.9973 157.029 44.0636 155.888 46.1066C156.019 46.3713 156.172 46.6227 156.34 46.8692C156.644 46.8592 156.948 46.8425 157.254 46.8109C159.16 45.4622 160.465 43.4625 161.614 41.4795C162.11 40.3423 163.131 39.0968 162.508 37.8148C162.169 37.7465 161.804 37.6383 161.481 37.8231ZM132.467 42.5268C132.106 43.3659 131.644 44.2817 131.881 45.2158C132.161 45.7319 132.805 45.7186 133.307 45.5954C134.211 44.8378 135.046 43.992 135.738 43.0379C136.241 42.3519 136.652 41.606 136.987 40.8268C136.486 40.7102 135.965 40.5804 135.557 40.2557C135.197 39.9094 134.949 39.4681 134.698 39.0435C133.837 40.1241 133.002 41.2464 132.467 42.5268Z" fill="#525253"/>
</svg>
