<svg width="200" height="80" viewBox="0 0 200 80" fill="none" xmlns="http://www.w3.org/2000/svg">
<path d="M162.934 12.0301C168.312 11.5592 173.854 13.1028 178.147 16.3609C182.26 19.4178 185.229 23.9497 186.36 28.919C187.279 32.8475 187.065 37.0235 185.753 40.8403C184.546 44.3761 182.408 47.5942 179.597 50.0813C176.481 52.87 172.541 54.7489 168.396 55.405C162.727 56.3516 156.714 54.9548 152.048 51.6361C147.345 48.3461 144.039 43.1645 143.092 37.5343C142.012 31.4827 143.664 25.0176 147.55 20.2239C151.251 15.5499 156.953 12.5058 162.934 12.0301ZM162.526 20.5831C159.819 21.0364 157.267 22.3438 155.322 24.2642C153.234 26.2899 151.837 29.0052 151.431 31.8738C151.098 34.1804 151.362 36.5749 152.229 38.7443C153.403 41.7055 155.685 44.2164 158.527 45.6978C161.139 47.0786 164.218 47.5559 167.134 47.0563C171.093 46.413 174.668 43.8988 176.637 40.4428C178.196 37.7482 178.738 34.5077 178.188 31.4555C177.455 27.1822 174.47 23.3766 170.482 21.6015C168.018 20.457 165.201 20.1505 162.526 20.5831Z" fill="#525253"/>
<path d="M14.183 30.3285C16.2002 27.9245 20.3168 27.8526 22.5161 30.0523C22.0263 30.611 21.5381 31.1698 21.0532 31.7317C20.3603 31.1123 19.5064 30.6031 18.5494 30.5743C17.6261 30.5073 16.69 30.9 16.0987 31.604C14.987 32.9097 15.0659 35.06 16.2921 36.2668C17.0751 37.0665 18.3173 37.2932 19.3743 36.9723C20.051 36.792 20.6004 36.3418 21.1241 35.9028C21.5833 36.4025 22.1536 36.843 22.5435 37.3794C20.544 39.7547 16.4306 39.8297 14.3409 37.5358C12.5025 35.6139 12.4509 32.3351 14.183 30.3285Z" fill="#525253"/>
<path d="M28.0926 28.4975C29.7602 28.3331 31.5277 28.8423 32.7152 30.0427C34.6712 31.92 34.7791 35.2866 32.9875 37.3059C31.3005 39.2853 28.1877 39.7594 25.9191 38.5271C24.8605 37.9588 23.9857 37.0377 23.5394 35.9251C22.8256 34.2186 23.0544 32.1546 24.1693 30.6685C25.0716 29.4122 26.5604 28.6523 28.0926 28.4975ZM27.6254 30.7387C25.9014 31.2846 25.1119 33.3854 25.7306 35.0008C26.1221 36.1853 27.2886 37.0681 28.5486 37.1048C29.6088 37.1702 30.706 36.6722 31.286 35.7798C32.2125 34.4389 32.0223 32.4148 30.7672 31.3373C29.9391 30.5791 28.6807 30.3859 27.6254 30.7387Z" fill="#525253"/>
<path d="M49.958 28.6189C51.69 28.2581 53.5445 28.7338 54.9447 29.7922C54.5934 30.3764 54.1681 30.9128 53.7975 31.4843C53.2722 31.2991 52.8436 30.9064 52.3023 30.75C51.5901 30.4993 50.7297 30.3445 50.0498 30.7548C49.5036 31.0852 49.5793 31.9983 50.1755 32.2361C51.5241 32.8507 53.1256 32.9082 54.3292 33.842C55.9098 35.1063 55.4135 37.9397 53.5751 38.7235C51.4 39.6909 48.7351 39.0316 46.9805 37.5199C47.4332 36.9867 47.8779 36.4472 48.3355 35.9172C49.104 36.527 49.9999 37.0378 50.9972 37.1384C51.5563 37.1975 52.175 37.1879 52.6535 36.8542C53.1175 36.5222 53.103 35.6969 52.573 35.4335C51.2228 34.6944 49.5278 34.7471 48.2936 33.7702C47.4026 33.079 47.2624 31.8227 47.5041 30.7978C47.7909 29.6629 48.8317 28.8535 49.958 28.6189Z" fill="#525253"/>
<path d="M116.73 28.5119C118.398 28.3172 120.188 28.7801 121.403 29.9646C123.465 31.8466 123.576 35.3505 121.685 37.3874C119.705 39.627 115.878 39.8202 113.664 37.8152C111.808 36.2317 111.376 33.3392 112.57 31.2448C113.389 29.7155 115.013 28.7131 116.73 28.5119ZM116.402 30.7356C115.089 31.1586 114.244 32.5266 114.306 33.8691C114.296 35.0823 115.002 36.3067 116.134 36.8127C117.43 37.4401 119.16 37.057 119.995 35.8709C120.99 34.5284 120.824 32.4388 119.537 31.3358C118.709 30.5791 117.454 30.3876 116.402 30.7356Z" fill="#525253"/>
<path d="M35.8145 28.6428C36.525 28.654 37.2371 28.6364 37.9477 28.654C39.5702 30.7962 41.2329 32.9098 42.8474 35.0568C42.8619 32.9209 42.8474 30.7835 42.8554 28.6476C43.6111 28.6444 44.3651 28.6508 45.1208 28.6428C45.1159 32.102 45.1208 35.5628 45.1192 39.022C44.4715 39.022 43.8238 39.022 43.176 39.022C41.473 36.8207 39.7829 34.6082 38.083 32.4037C38.0814 34.6098 38.083 36.8159 38.0814 39.0204C37.3274 39.0236 36.5717 39.0236 35.8177 39.022C35.8145 35.5612 35.8209 32.102 35.8145 28.6428Z" fill="#525253"/>
<path d="M57.3027 28.6476C59.9371 28.6476 62.573 28.6492 65.2073 28.646C65.2057 29.318 65.2025 29.9901 65.2105 30.6621C63.3351 30.6605 61.4613 30.6637 59.5874 30.6605C59.5826 31.3693 59.5858 32.0797 59.5858 32.79C61.2292 32.7804 62.8743 32.806 64.5193 32.7772C64.5499 33.4541 64.5242 34.1309 64.5354 34.8077C62.8856 34.8062 61.2357 34.8093 59.5858 34.8062C59.5826 35.5373 59.5874 36.2684 59.5826 37.0011C61.4758 37.0107 63.3689 37.0059 65.2621 37.0027C65.2911 37.6795 65.3136 38.3579 65.2589 39.0348C62.6084 39.0236 59.958 39.0348 57.3076 39.03C57.2995 35.5692 57.3076 32.1084 57.3027 28.6476Z" fill="#525253"/>
<path d="M67.669 28.646C69.2867 28.6508 70.9043 28.6412 72.522 28.6508C73.6144 28.6492 74.7841 28.9381 75.5559 29.749C76.3937 30.6111 76.558 31.9264 76.2906 33.0534C76.0521 34.1134 75.1885 34.9674 74.159 35.3026C75.0065 36.5461 75.8749 37.7753 76.7175 39.022C75.8201 39.0204 74.9243 39.0284 74.0284 39.0172C73.2841 37.903 72.5413 36.7872 71.7712 35.6905C71.1718 35.7081 70.5708 35.6937 69.9714 35.7017C69.9682 36.8079 69.973 37.9142 69.9698 39.0204C69.2029 39.0236 68.436 39.0236 67.6706 39.0204C67.6658 35.5628 67.669 32.1036 67.669 28.646ZM69.9714 30.6925C69.9698 31.6902 69.9698 32.6863 69.9714 33.6839C70.9285 33.6616 71.8904 33.7366 72.8442 33.6377C73.5773 33.5435 74.167 32.8539 74.0784 32.1148C74.1058 31.3821 73.4565 30.793 72.7492 30.7324C71.8259 30.651 70.8963 30.7084 69.9714 30.6925Z" fill="#525253"/>
<path d="M77.2617 28.6428C78.114 28.662 78.9664 28.6237 79.8187 28.662C80.6839 31.0229 81.5717 33.3775 82.4627 35.7288C82.503 35.7448 82.5868 35.7767 82.627 35.7911C83.4987 33.4046 84.4122 31.0325 85.2904 28.6476C86.1185 28.646 86.9483 28.646 87.7764 28.6492C86.3554 32.126 84.9456 35.6059 83.5422 39.0907C82.8607 39.0939 82.1791 39.0939 81.4976 39.0891C80.0942 35.6043 78.6844 32.1196 77.2617 28.6428Z" fill="#525253"/>
<path d="M86.8281 39.0205C88.3217 35.5326 89.8105 32.0415 91.325 28.5631C92.0291 28.5759 92.7332 28.5535 93.4389 28.5759C94.9325 32.059 96.4277 35.5406 97.9309 39.0205C97.1286 39.0253 96.3278 39.0221 95.527 39.0221C95.208 38.2447 94.8825 37.4705 94.5716 36.6915C93.086 36.6851 91.6005 36.6835 90.115 36.6915C89.8024 37.4705 89.4786 38.2447 89.1611 39.0221C88.3829 39.0221 87.6047 39.0253 86.8281 39.0205ZM90.9399 34.6929C91.876 34.6929 92.8121 34.6929 93.7482 34.6929C93.2858 33.5691 92.8202 32.4453 92.3562 31.3199C91.8454 32.4278 91.4152 33.5707 90.9399 34.6929Z" fill="#525253"/>
<path d="M97.3124 28.646C100.206 28.6476 103.102 28.6492 105.995 28.646C105.989 29.3468 106 30.0476 105.989 30.7483C104.932 30.734 103.875 30.7579 102.818 30.7356C102.77 33.4988 102.811 36.2668 102.797 39.0316C102.033 39.03 101.268 39.0316 100.504 39.03C100.503 36.2684 100.504 33.5052 100.504 30.7435C99.4392 30.7435 98.3742 30.7483 97.3108 30.742C97.3092 30.0428 97.306 29.3452 97.3124 28.646Z" fill="#525253"/>
<path d="M107.727 28.6477C108.492 28.6461 109.257 28.6493 110.023 28.6445C110.011 32.1085 110.032 35.5725 110.011 39.0365C109.251 39.0253 108.49 39.0333 107.73 39.0317C107.725 35.5693 107.731 32.1085 107.727 28.6477Z" fill="#525253"/>
<path d="M124.951 28.646C125.66 28.6492 126.369 28.6413 127.08 28.6508C128.715 30.7883 130.357 32.9194 131.999 35.052C132.002 32.9162 132.002 30.7787 131.999 28.6429C132.748 28.646 133.497 28.654 134.248 28.6381C134.286 32.0989 134.256 35.5597 134.262 39.0205C133.61 39.0221 132.957 39.0236 132.306 39.0205C130.623 36.8032 128.899 34.6146 127.226 32.3894C127.207 34.6003 127.226 36.8112 127.217 39.0221C126.462 39.0221 125.708 39.0221 124.956 39.0236C124.948 35.5644 124.958 32.1052 124.951 28.646Z" fill="#525253"/>
<path d="M97.7203 43.0336C99.3283 42.8484 101.03 43.4039 102.125 44.6027C104.007 46.5758 103.956 49.9887 102.03 51.9154C100.218 53.8246 96.9002 53.9651 94.912 52.2475C93.0494 50.7038 92.5838 47.8448 93.71 45.7425C94.4721 44.242 96.0286 43.1804 97.7203 43.0336ZM97.2499 44.1749C96.7101 44.3122 96.2074 44.5692 95.7772 44.9172C93.876 46.4481 93.7938 49.6231 95.5484 51.2945C96.9099 52.6849 99.3364 52.7838 100.827 51.5387C102.664 50.0605 102.817 47.0515 101.244 45.3307C100.269 44.2436 98.6629 43.779 97.2499 44.1749Z" fill="#525253"/>
<path d="M14.3622 43.1676C14.7362 43.1724 15.1102 43.1724 15.4841 43.1676C15.4793 46.5406 15.4825 49.9136 15.4825 53.2866C15.1085 53.2786 14.7346 53.2754 14.3606 53.2834C14.3413 49.912 14.3397 46.539 14.3622 43.1676Z" fill="#525253"/>
<path d="M18.3066 43.1629C18.6708 43.1884 19.0623 43.0975 19.4119 43.2092C21.5597 45.8958 23.6881 48.5983 25.8261 51.2913C25.8326 48.5808 25.831 45.8702 25.8261 43.1597C26.1967 43.1613 26.5673 43.1629 26.9379 43.1629C26.9234 46.5327 26.962 49.9025 26.9218 53.2723C26.6205 53.2691 26.3208 53.2691 26.0211 53.2691C23.8331 50.4979 21.6273 47.7411 19.4264 44.9811C19.4184 47.7427 19.4232 50.5059 19.4232 53.2675C19.051 53.2691 18.6788 53.2707 18.3066 53.2691C18.3083 49.9009 18.3099 46.5311 18.3066 43.1629Z" fill="#525253"/>
<path d="M28.9157 43.171C31.587 43.1726 34.2584 43.1726 36.9314 43.171C36.9379 43.5174 36.9411 43.8654 36.9362 44.2134C35.7907 44.2134 34.6467 44.2134 33.5028 44.2134C33.5044 47.2368 33.5012 50.2586 33.5028 53.282C33.1161 53.282 32.7294 53.2788 32.3427 53.2788C32.333 50.2522 32.3685 47.2256 32.325 44.2022C31.1875 44.2262 30.0516 44.2054 28.9141 44.215C28.9157 43.8654 28.9173 43.5174 28.9157 43.171Z" fill="#525253"/>
<path d="M38.916 43.1709C41.3699 43.1693 43.8237 43.1789 46.2792 43.1661C46.2953 43.5093 46.2986 43.8541 46.2905 44.1989C44.2137 44.1974 42.1352 44.2021 40.0584 44.1974C40.0567 45.3547 40.06 46.512 40.0567 47.6693C41.9112 47.6629 43.7657 47.6757 45.6186 47.6629C45.6412 48.0046 45.6412 48.3478 45.6347 48.6926C43.777 48.6926 41.9193 48.6958 40.06 48.6894C40.0551 49.8786 40.0584 51.0679 40.0584 52.2571C42.161 52.2507 44.262 52.2571 46.3646 52.2523C46.3614 52.5955 46.3614 52.9371 46.363 53.2804C43.8801 53.2788 41.3973 53.2788 38.916 53.2804C38.9176 49.9105 38.9176 46.5407 38.916 43.1709Z" fill="#525253"/>
<path d="M48.4994 43.1629C50.0155 43.1693 51.53 43.1486 53.0462 43.1725C54.0709 43.2124 55.181 43.4918 55.8803 44.2883C56.6311 45.1057 56.7503 46.3699 56.3459 47.374C55.9286 48.3813 54.8685 48.9464 53.8341 49.1379C54.8137 50.5539 55.9109 51.8916 56.934 53.2788C56.4635 53.2804 55.9947 53.2804 55.5242 53.2788C54.543 51.9602 53.5602 50.6417 52.5596 49.3391C51.5848 49.3391 50.6117 49.3375 49.6369 49.3391C49.6353 50.6544 49.6353 51.9698 49.6369 53.2835C49.2647 53.2772 48.8941 53.2756 48.5235 53.2883C48.4655 49.9153 48.5139 46.5375 48.4994 43.1629ZM49.6353 44.2117C49.6481 45.5861 49.6127 46.9622 49.6546 48.3366C50.7631 48.3174 51.8732 48.3446 52.9817 48.3238C53.797 48.2919 54.6783 47.9918 55.1311 47.2782C55.6306 46.4641 55.4888 45.2254 54.6445 44.689C54.0338 44.2676 53.2653 44.2197 52.5467 44.2101C51.5768 44.2101 50.6052 44.2085 49.6353 44.2117Z" fill="#525253"/>
<path d="M58.8633 43.1597C59.2161 43.1629 59.5706 43.1629 59.9251 43.1597C62.0841 45.859 64.2205 48.5759 66.3715 51.2801C66.3812 48.5743 66.3683 45.8686 66.3779 43.1645C66.7485 43.1629 67.1207 43.1613 67.4929 43.1597C67.4864 46.5311 67.4897 49.9009 67.4913 53.2707C67.1916 53.2675 66.8919 53.2691 66.5938 53.2739C64.3784 50.5123 62.1791 47.7411 59.9815 44.9651C59.9637 47.7347 60.0008 50.5043 59.9621 53.2739C59.5964 53.2675 59.2306 53.2675 58.8649 53.2723C58.8665 49.9009 58.8681 46.5311 58.8633 43.1597Z" fill="#525253"/>
<path d="M73.9823 43.0958C74.3384 43.1261 74.7299 43.0176 75.065 43.1421C76.6311 46.5119 78.1569 49.9009 79.7037 53.2802C79.2864 53.2771 78.8707 53.293 78.455 53.2627C78.0796 52.3624 77.68 51.47 77.2643 50.5873C75.4147 50.6048 73.5634 50.5889 71.7137 50.5953C71.3109 51.4908 70.9033 52.3831 70.5037 53.2802C70.1122 53.2802 69.7239 53.2787 69.334 53.2787C70.884 49.8849 72.4323 46.4895 73.9823 43.0958ZM74.4995 44.4143C73.7197 46.1384 72.9431 47.864 72.1584 49.5864C73.7165 49.5896 75.2745 49.5896 76.8325 49.5864C76.0575 47.8624 75.2906 46.132 74.4995 44.4143Z" fill="#525253"/>
<path d="M79.4977 43.1693C82.1675 43.1725 84.8388 43.1741 87.5086 43.1693C87.5215 43.5157 87.5247 43.8637 87.5167 44.2133C86.3711 44.2133 85.2271 44.2133 84.0816 44.2117C84.0832 47.2351 84.08 50.2585 84.0832 53.2819C83.6965 53.2819 83.3098 53.2787 82.9247 53.2787C82.9231 50.2553 82.9344 47.2319 82.9199 44.2085C81.7792 44.2197 80.6368 44.2085 79.4961 44.2149C79.4977 43.8669 79.4993 43.5173 79.4977 43.1693Z" fill="#525253"/>
<path d="M89.5995 43.1709C89.9767 43.1725 90.3555 43.1725 90.7343 43.1693C90.7504 46.5407 90.752 49.9121 90.7327 53.2819C90.3571 53.2787 89.9799 53.2787 89.6059 53.2835C89.5785 49.9121 89.593 46.5423 89.5995 43.1709Z" fill="#525253"/>
<path d="M105.771 43.1612C106.121 43.1644 106.471 43.1628 106.822 43.1564C109.004 45.843 111.114 48.587 113.294 51.2768C113.305 48.5695 113.299 45.8637 113.297 43.158C113.663 43.1628 114.031 43.1628 114.399 43.1596C114.393 46.531 114.398 49.9008 114.396 53.2722C114.095 53.269 113.794 53.269 113.494 53.2722C111.293 50.5042 109.084 47.7442 106.893 44.9682C106.88 47.733 106.886 50.4962 106.89 53.2594C106.516 53.269 106.144 53.2738 105.773 53.2706C105.773 49.9008 105.776 46.531 105.771 43.1612Z" fill="#525253"/>
<path d="M120.884 43.1023C121.242 43.0911 121.601 43.0879 121.962 43.0975C123.511 46.4912 125.064 49.885 126.614 53.2787C126.203 53.2787 125.792 53.2803 125.383 53.2803C124.996 52.388 124.579 51.5084 124.207 50.6097C122.346 50.5762 120.483 50.6017 118.622 50.5969C118.216 51.4909 117.809 52.3832 117.409 53.2803C117.019 53.2803 116.631 53.2787 116.244 53.2803C117.786 49.885 119.344 46.4976 120.884 43.1023ZM121.395 44.4304C120.63 46.1528 119.84 47.8656 119.069 49.5865C120.623 49.5881 122.18 49.5913 123.736 49.5865C122.953 47.8688 122.22 46.1273 121.395 44.4304Z" fill="#525253"/>
<path d="M128.455 43.1692C128.839 43.1692 129.222 43.1628 129.607 43.1883C129.586 46.2053 129.604 49.2224 129.599 52.2394C131.513 52.2426 133.429 52.2458 135.343 52.2378C135.34 52.5858 135.338 52.9338 135.341 53.2818C133.045 53.277 130.751 53.277 128.455 53.2818C128.457 49.912 128.458 46.5406 128.455 43.1692Z" fill="#525253"/>
<path d="M148.508 58.5274C159.402 58.5258 170.295 58.5242 181.19 58.5274C181.187 61.3337 181.192 64.14 181.187 66.9463C170.295 66.9479 159.403 66.9463 148.51 66.9463C148.505 64.14 148.51 61.3337 148.508 58.5274Z" fill="#525253"/>
</svg>
