<svg width="200" height="80" viewBox="0 0 200 80" fill="none" xmlns="http://www.w3.org/2000/svg">
<path d="M95.4858 17.7324C97.0431 17.2178 98.6105 16.7286 100.087 16C101.568 16.7031 103.115 17.2178 104.672 17.712C124.15 24.3002 143.614 30.9445 163.092 37.5276C165.709 38.4498 168.332 39.3721 171 40.1414C170.949 40.2637 170.853 40.5083 170.802 40.6255C148.336 48.2429 125.992 56.2171 103.561 63.9466C102.034 64.3899 100.442 65.5058 98.8388 64.7364C75.906 56.4973 52.9023 48.4722 30 40.1669C39.3232 36.8805 48.7073 33.7469 58.0661 30.5368C70.5343 26.2517 83.0075 21.9921 95.4858 17.7324ZM63.9451 30.8578C64.1937 31.0311 64.6958 31.3725 64.9444 31.5457C65.3096 31.617 66.035 31.7648 66.3951 31.8361C66.4357 37.4155 66.4053 42.9999 66.4103 48.5792C65.7205 48.7729 65.0306 48.9665 64.3408 49.1448L64.3763 50.0467C69.3574 50.0161 74.3437 50.0976 79.33 50.011C84.5597 49.1703 88.0191 43.1069 86.6445 38.0779C85.9546 34.9086 83.743 32.2336 80.8923 30.7559C77.3365 30.3432 73.7452 30.6489 70.1741 30.5572C68.0995 30.6591 65.964 30.277 63.9451 30.8578ZM91.5547 37.1709C89.8757 39.3364 89.8503 42.2152 90.2916 44.8036C91.2199 47.1016 92.8837 49.1091 95.2779 49.9346L95.1916 50.0161C98.8844 51.0606 103.191 51.2797 106.605 49.2671C109.227 47.7691 110.744 44.6813 110.5 41.6853C110.495 38.1492 107.873 35.1786 104.708 33.9303C104.175 33.7774 103.647 33.6093 103.125 33.4259C99.0011 32.682 94.1213 33.5532 91.5547 37.1709ZM110.937 34.2819C110.921 34.5214 110.901 34.9952 110.886 35.2347C111.175 35.3672 111.753 35.6321 112.042 35.7646C113.64 40.0192 115.456 44.2126 116.856 48.5436L117.546 48.0086C116.871 48.834 115.563 49.211 115.492 50.4288C118.277 50.4747 121.061 50.4594 123.846 50.49C123.836 50.1842 123.826 49.5779 123.821 49.2773C123.511 49.206 122.893 49.0684 122.583 48.997C123.496 46.3985 124.754 43.9374 125.926 41.4509C126.844 43.9069 127.808 46.3475 128.711 48.8136C127.929 49.0837 127.524 49.6492 127.539 50.4696C130.268 50.2556 133.169 50.9333 135.772 49.8887C135.209 49.5473 134.645 49.1958 134.088 48.8493C135.817 44.6762 137.714 40.5695 139.535 36.4321C139.748 35.571 140.753 35.6016 141.422 35.2907C141.412 35.0258 141.402 34.501 141.397 34.2411C138.744 34.2666 136.091 34.2513 133.438 34.3073L133.758 34.6385L133.271 35.1226C133.849 35.3774 134.432 35.627 135.016 35.8818C133.991 38.5925 132.941 41.293 131.972 44.0241C130.719 40.9924 129.649 37.8893 128.533 34.8067C126.763 34.7761 124.993 34.7863 123.222 34.7812C122.162 37.8027 121.092 40.8242 119.94 43.8202C119.342 41.135 118.246 38.6078 117.506 35.9684C118.023 35.5047 118.556 35.0411 118.698 34.3175C116.111 34.2564 113.519 34.3023 110.937 34.2819Z" fill="#525253"/>
<path d="M70.9414 34.6794C73.7465 34.7507 76.5617 34.5316 79.3516 34.7915C83.2726 36.3914 83.9371 42.5618 80.5893 45.0737C79.4835 45.889 78.053 45.8227 76.7545 45.8533C76.5009 45.8482 75.9987 45.8329 75.7451 45.8278C74.1472 45.8329 72.5545 45.8125 70.9617 45.8329C70.9313 42.1134 70.9566 38.3938 70.9414 34.6794Z" fill="#525253"/>
<path d="M98.3819 37.5632C101.735 36.4473 106.533 38.7555 106.006 42.7553C105.468 48.4162 95.6834 48.7423 94.6486 43.2037C94.0449 40.6255 95.9319 38.1695 98.3819 37.5632Z" fill="#525253"/>
</svg>
