<svg width="200" height="80" viewBox="0 0 200 80" fill="none" xmlns="http://www.w3.org/2000/svg">
<path d="M52.9011 31.4069C48.1581 31.4069 44.2997 35.3519 44.2997 40.2008C44.2997 45.0488 48.1581 48.994 52.9011 48.994C57.644 48.994 61.5024 45.049 61.5024 40.2008C61.5024 35.3521 57.644 31.4069 52.9011 31.4069ZM52.9011 51.9996C46.5371 51.9996 41.3594 46.7067 41.3594 40.2008C41.3594 33.6949 46.5371 28.4013 52.9011 28.4013C59.265 28.4013 64.4428 33.6947 64.4428 40.2008C64.4428 46.7069 59.265 51.9996 52.9011 51.9996ZM54.7113 27.7044C46.9049 27.7044 40.5539 34.1975 40.5539 42.1783C40.5539 50.1592 46.9051 56.6521 54.7113 56.6521C62.5178 56.6521 68.8685 50.159 68.8685 42.1783C68.8685 34.1973 62.5178 27.7044 54.7113 27.7044ZM54.7113 59.7487C45.2351 59.7487 37.5251 51.8672 37.5251 42.1791C37.5251 32.4913 45.2351 24.6095 54.7113 24.6095C64.1873 24.6095 71.897 32.4913 71.897 42.1791C71.897 51.8672 64.1873 59.7487 54.7113 59.7487ZM52.904 19.8041C41.9476 19.8041 33.0334 28.9173 33.0334 40.1185C33.0334 51.3202 41.9476 60.4333 52.904 60.4333C63.8606 60.4333 72.7748 51.3202 72.7748 40.1185C72.7748 28.9173 63.8606 19.8041 52.904 19.8041ZM52.904 63.6189C40.2294 63.6189 29.9174 53.0771 29.9174 40.1189C29.9174 27.1607 40.2291 16.6189 52.904 16.6189C65.5787 16.6189 75.8906 27.1605 75.8906 40.1189C75.8906 53.0773 65.5787 63.6189 52.904 63.6189Z" fill="#525253"/>
<path d="M85.6921 24.7105H92.7901V26.8033H88.1132V28.1469H92.3492V30.0877H88.1132V31.4954H92.8535V33.5882H85.6917L85.6921 24.7105Z" fill="#525253"/>
<path d="M94.0103 24.7104H96.4561V31.4323H100.73V33.5883H94.0104L94.0103 24.7104Z" fill="#525253"/>
<path d="M101.674 24.7104H104.12V31.4323H108.395V33.5883H101.674L101.674 24.7104Z" fill="#525253"/>
<path d="M109.344 24.7105H116.442V26.8033H111.766V28.1469H116.002V30.0877H111.766V31.4954H116.506V33.5882H109.344L109.344 24.7105Z" fill="#525253"/>
<path d="M117.649 24.7105H119.931L123.562 29.4028V24.7105H125.982V33.5882H123.839L120.07 28.7173V33.5882H117.649L117.649 24.7105Z" fill="#525253"/>
<path d="M85.6983 47.7668H92.7578V49.9228H88.1439V51.4322H92.3169V53.4737H88.1439V56.6445H85.6981L85.6983 47.7668Z" fill="#525253"/>
<path d="M100.287 52.2348V52.2091C100.287 50.9287 99.3667 49.8123 98.0173 49.8123C96.6814 49.8123 95.7854 50.9031 95.7854 52.1835V52.2091C95.7854 53.4904 96.706 54.606 98.0428 54.606C99.3913 54.606 100.287 53.5161 100.287 52.2348ZM93.2768 52.2348V52.2091C93.2768 49.6602 95.3193 47.5929 98.0429 47.5929C100.766 47.5929 102.783 49.6345 102.783 52.1832V52.2088C102.783 54.7578 100.741 56.8259 98.0171 56.8259C95.2936 56.8259 93.2768 54.7834 93.2768 52.2344" fill="#525253"/>
<path d="M103.748 52.7533V47.7697H106.232V52.7027C106.232 53.9831 106.875 54.5922 107.858 54.5922C108.842 54.5922 109.485 54.0088 109.485 52.7659V47.7696H111.969V52.6898C111.969 55.5556 110.342 56.8115 107.834 56.8115C105.323 56.8115 103.748 55.5302 103.748 52.7531" fill="#525253"/>
<path d="M113.328 47.7668H115.61L119.241 52.4591V47.7668H121.662V56.6445H119.518L115.749 51.7737V56.6445H113.328V47.7668Z" fill="#525253"/>
<path d="M126.667 54.4647C128.13 54.4647 129.1 53.6532 129.1 52.2199V52.1942C129.1 50.7746 128.13 49.9503 126.667 49.9503H125.671V54.4649L126.667 54.4647ZM123.225 47.7688H126.629C129.781 47.7688 131.609 49.5951 131.609 52.1566V52.1823C131.609 54.744 129.756 56.6462 126.579 56.6462H123.225L123.225 47.7688Z" fill="#525253"/>
<path d="M137.235 53.1441L136.252 50.6199L135.256 53.1441H137.235ZM135.093 47.7038H137.45L141.207 56.6449H138.585L137.942 55.0595H134.537L133.907 56.6449H131.335L135.093 47.7038Z" fill="#525253"/>
<path d="M142.724 49.9227H140.077V47.7667H147.818V49.9227H145.171V56.6445H142.725L142.724 49.9227Z" fill="#525253"/>
<path d="M151.084 47.7668V56.6445H148.625V47.7668H151.084Z" fill="#525253"/>
<path d="M159.065 52.2348V52.2091C159.065 50.9287 158.144 49.8123 156.795 49.8123C155.459 49.8123 154.563 50.9031 154.563 52.1835V52.2091C154.563 53.4904 155.483 54.606 156.819 54.606C158.169 54.606 159.065 53.5161 159.065 52.2348ZM152.054 52.2348V52.2091C152.054 49.6602 154.097 47.5929 156.819 47.5929C159.543 47.5929 161.561 49.6345 161.561 52.1832V52.2088C161.561 54.7578 159.518 56.8259 156.794 56.8259C154.071 56.8259 152.054 54.7834 152.054 52.2344" fill="#525253"/>
<path d="M162.584 47.7668H164.866L168.498 52.4591V47.7668H170.918V56.6445H168.775L165.006 51.7737V56.6445H162.584V47.7668Z" fill="#525253"/>
<path d="M85.7009 36.2386H88.2851L90.3904 39.675L92.4965 36.2386H95.082V45.1163H92.6485V40.0175L90.3904 43.4924H90.3403L88.0957 40.0432V45.1165H85.7009L85.7009 36.2386Z" fill="#525253"/>
<path d="M101.739 41.6159L100.756 39.0918L99.7595 41.6159H101.739ZM99.5964 36.1757H101.954L105.711 45.1168H103.088L102.446 43.5314H99.041L98.4109 45.1168H95.8386L99.5964 36.1757Z" fill="#525253"/>
<path d="M105.378 40.7025V40.6769C105.378 38.0895 107.357 36.0607 110.031 36.0607C111.834 36.0607 112.993 36.8218 113.775 37.9117L111.934 39.3451C111.429 38.7113 110.849 38.3056 110.004 38.3056C108.769 38.3056 107.899 39.3579 107.899 40.6512V40.6768C107.899 42.0085 108.769 43.049 110.004 43.049C110.925 43.049 111.468 42.6176 111.997 41.9701L113.838 43.2899C113.006 44.443 111.884 45.2938 109.929 45.2938C107.407 45.2938 105.378 43.353 105.378 40.7023" fill="#525253"/>
<path d="M119.759 41.6159L118.775 39.0918L117.779 41.6159H119.759ZM117.616 36.1757H119.973L123.73 45.1168H121.108L120.465 43.5314H117.061L116.43 45.1168H113.858L117.616 36.1757Z" fill="#525253"/>
<path d="M128.46 40.4969C129.292 40.4969 129.772 40.0911 129.772 39.4445V39.4188C129.772 38.7209 129.267 38.3665 128.448 38.3665H126.847V40.4968L128.46 40.4969ZM124.401 36.2361H128.574C129.923 36.2361 130.856 36.5906 131.449 37.1997C131.965 37.7071 132.23 38.3921 132.23 39.2668V39.2925C132.23 40.6489 131.512 41.5492 130.414 42.0191L132.52 45.113H129.696L127.918 42.4248H126.847V45.113H124.401L124.401 36.2361Z" fill="#525253"/>
<path d="M135.428 38.3945H132.781V36.2385H140.521V38.3945H137.874V45.1163H135.428L135.428 38.3945Z" fill="#525253"/>
<path d="M141.406 36.2386H143.852V39.5614H146.992V36.2386H149.438V45.1163H146.992V41.7422H143.852V45.1163H141.406V36.2386Z" fill="#525253"/>
<path d="M150.859 41.2209V36.2373H153.343V41.1703C153.343 42.4508 153.986 43.0598 154.97 43.0598C155.953 43.0598 156.596 42.4764 156.596 41.2336V36.2372H159.08V41.1575C159.08 44.0233 157.454 45.2791 154.945 45.2791C152.435 45.2791 150.859 43.9978 150.859 41.2208" fill="#525253"/>
<path d="M164.46 40.4969C165.292 40.4969 165.772 40.0911 165.772 39.4445V39.4188C165.772 38.7209 165.267 38.3665 164.448 38.3665H162.847V40.4968L164.46 40.4969ZM160.401 36.2361H164.574C165.923 36.2361 166.856 36.5906 167.449 37.1997C167.965 37.7071 168.23 38.3921 168.23 39.2668V39.2925C168.23 40.6489 167.512 41.5492 166.414 42.0191L168.52 45.113H165.696L163.918 42.4248H162.847V45.113H160.401L160.401 36.2361Z" fill="#525253"/>
</svg>
