<svg width="170" height="80" viewBox="0 0 170 80" fill="none" xmlns="http://www.w3.org/2000/svg">
<path d="M120.041 9H120.706C123.444 9.13765 125.792 11.4319 126 14.1256V14.8544C125.839 17.4131 123.72 19.7209 121.113 19.9746C119.104 20.2445 116.983 19.3403 115.846 17.675C114.572 15.9178 114.515 13.3996 115.704 11.5858C116.617 10.0958 118.306 9.16735 120.041 9Z" fill="#525253"/>
<path d="M44.3901 9.38062C48.3397 9.38062 52.2894 9.38062 56.239 9.38062C56.1598 10.409 56.0122 11.4265 55.881 12.4468C53.3089 12.4441 50.7341 12.4495 48.1621 12.4441C48.132 15.2242 48.1566 18.007 48.1484 20.7871C50.4881 20.7871 52.8251 20.7871 55.1621 20.7871C55.1211 21.81 55.0446 22.8303 55.0063 23.8506C52.724 23.9531 50.4335 23.8722 48.1484 23.8965C48.1484 33.1517 48.1484 42.4043 48.1484 51.6596C48.1293 52.8499 48.2167 54.0456 48.0609 55.2305C46.8391 55.217 45.6201 55.2224 44.3983 55.2251C44.3791 39.9427 44.3955 24.663 44.3901 9.38062Z" fill="#525253"/>
<path d="M59.3686 9.38062C60.563 9.38331 61.7575 9.37792 62.952 9.38601C62.9492 22.8654 62.9547 36.3475 62.9492 49.8296C61.7575 49.8323 60.5658 49.8296 59.3768 49.8323C59.3576 36.3475 59.374 22.8654 59.3686 9.38062Z" fill="#525253"/>
<path d="M67.4375 9.38864C69.7499 9.39134 72.0596 9.34275 74.3692 9.41293C75.9272 9.46691 77.5973 10.058 78.4392 11.4319C79.5571 13.2889 79.5079 15.548 79.3931 17.6317C79.2564 19.5994 78.4938 21.729 76.6106 22.6845C77.6465 27.7615 78.6797 32.8412 79.6828 37.9264C78.4856 37.9264 77.2857 37.9237 76.0885 37.9291C75.2029 33.265 74.4376 28.5793 73.6121 23.9045C72.65 23.8991 71.6878 23.891 70.7284 23.9234C70.9225 25.694 70.671 27.4673 70.7503 29.2433C70.7503 30.5011 70.7448 31.7616 70.753 33.0221C70.7448 34.9142 70.7476 36.8062 70.7503 38.6983C70.8132 40.5148 70.9061 42.3394 70.723 44.1559C69.6296 44.1478 68.5363 44.1532 67.443 44.1478C67.4348 32.5605 67.443 20.9759 67.4375 9.38864ZM70.8924 12.4521C70.8651 15.2322 70.887 18.0123 70.8788 20.7924C71.9776 20.7519 73.0982 20.9031 74.1806 20.6763C75.5309 20.3201 76.0639 18.849 76.1377 17.6074C76.2088 16.077 76.3208 14.2524 75.0963 13.1026C73.9155 12.1498 72.2919 12.5304 70.8924 12.4521Z" fill="#525253"/>
<path d="M85.1933 9.45894C87.2569 8.6546 90.0641 8.83274 91.4745 10.714C92.4038 11.9367 92.5487 13.5076 92.6689 14.9786C92.6307 15.0623 92.5541 15.235 92.5159 15.3214C91.5073 15.3673 90.4987 15.4213 89.4983 15.5535C89.4108 14.1824 89.255 12.1473 87.5221 11.907C85.7673 11.7829 85.1003 14.0582 86.0215 15.2782C87.5904 17.4753 89.8755 19.0651 91.4881 21.2325C92.4503 22.5308 92.9997 24.1367 92.8712 25.7562C92.8603 27.7454 91.5838 29.6888 89.6705 30.3717C87.7216 31.0681 85.2917 30.8737 83.7364 29.4216C82.3779 28.207 81.9051 26.323 81.875 24.574C83.0121 24.5254 84.1491 24.4498 85.2862 24.4363C85.3217 25.489 85.4803 26.6577 86.3085 27.4081C86.8278 27.9182 87.656 27.929 88.3065 27.6942C89.3862 27.0923 89.4627 25.6401 89.1703 24.5848C88.5826 23.1192 87.2761 22.1367 86.2319 21.0058C84.7286 19.4646 82.9711 17.9477 82.4189 15.7884C81.7219 13.405 82.7497 10.4198 85.1933 9.45894Z" fill="#525253"/>
<path d="M94.168 9.38596C98.667 9.37786 103.169 9.37786 107.668 9.38596C107.597 10.1606 107.515 10.9325 107.447 11.7045C107.408 11.8907 107.332 12.2632 107.293 12.4495C105.735 12.4414 104.175 12.4495 102.617 12.4441C102.595 15.5048 102.611 18.5656 102.609 21.6264C101.502 21.6264 100.395 21.6264 99.2875 21.6264C99.2848 18.5683 99.2902 15.5075 99.282 12.4468C97.6967 12.4414 96.1141 12.4602 94.5288 12.4333C94.4358 11.4157 94.3101 10.4008 94.168 9.38596Z" fill="#525253"/>
<path d="M98.778 27.9964C103.46 24.7332 108.08 21.3728 112.803 18.1689C113.358 18.9598 113.937 19.729 114.462 20.5388C96.5176 33.149 78.6033 45.7998 60.6672 58.4262C59.5028 59.2306 58.3739 60.0862 57.1767 60.842C56.6191 60.0511 56.0314 59.2819 55.5176 58.4613C69.9523 48.3262 84.3542 38.1478 98.778 27.9964Z" fill="#525253"/>
<path d="M111.729 26.0962C116.356 26.0746 120.984 26.0854 125.611 26.0908C125.42 27.1866 125.25 28.2852 125.043 29.3783C121.85 29.3729 118.66 29.3783 115.468 29.3756C115.468 32.1557 115.465 34.9358 115.47 37.7159C118.174 37.724 120.88 37.7024 123.586 37.7294C123.583 38.8225 123.583 39.9156 123.586 41.0088C120.88 41.0358 118.174 41.0142 115.47 41.0196C115.468 49.4516 115.468 57.8836 115.47 66.3157C118.66 66.3157 121.85 66.3184 125.04 66.3157C125.256 67.4115 125.417 68.5155 125.611 69.614C120.984 69.6194 116.356 69.6275 111.729 69.6113C111.731 55.1063 111.731 40.6012 111.729 26.0962Z" fill="#525253"/>
<path d="M98.7928 69.6194C98.801 58.1265 98.7764 46.6337 98.8065 35.1409C99.9982 35.1409 101.19 35.1409 102.382 35.1382C102.423 45.5325 102.387 55.9241 102.401 66.3157C104.62 66.3319 106.84 66.2833 109.056 66.3454C109.155 67.4439 109.395 68.5235 109.548 69.6167C105.962 69.6221 102.376 69.6167 98.7928 69.6194Z" fill="#525253"/>
<path d="M90.9316 40.8982C92.1671 40.8928 93.3998 40.8874 94.6326 40.9063C94.6298 50.4746 94.6326 60.0403 94.6326 69.6086C93.3998 69.6248 92.1671 69.6194 90.9316 69.614C90.9344 60.043 90.9344 50.4719 90.9316 40.8982Z" fill="#525253"/>
<path d="M74.2469 66.1672C76.6249 60.0213 79.0986 53.9132 81.4684 47.7646C83.1521 47.7377 84.8358 47.7512 86.5168 47.7404C86.5223 55.0334 86.5196 62.3264 86.5196 69.6194C85.4098 69.6194 84.3001 69.6194 83.1904 69.6194C83.1794 63.8082 83.215 57.9997 83.1712 52.1912C80.9682 57.9943 78.705 63.7785 76.5183 69.5897C75.2282 69.6221 73.9353 69.6113 72.6452 69.6167C70.915 67.4979 69.1656 65.3953 67.43 63.2819C67.4163 65.3953 67.4272 67.506 67.4245 69.6194C66.3066 69.6194 65.1914 69.6194 64.0762 69.6167C64.0762 66.259 64.0762 62.8986 64.0762 59.5409C65.6205 59.5841 67.184 59.441 68.7174 59.6084C70.464 61.7623 72.1559 63.9647 73.9025 66.1213C73.9872 66.1321 74.1594 66.1537 74.2469 66.1672Z" fill="#525253"/>
<path d="M47.8185 59.2603C49.9587 58.5477 52.4952 59.2684 53.8865 61.0336C55.3379 62.7502 55.5265 65.363 54.3593 67.2713C53.4765 68.8097 51.7927 69.803 50.0297 70.0001H49.1605C46.4655 69.8273 44.2023 67.5547 44 64.9095V64.1754C44.1421 61.9783 45.6591 59.9108 47.8185 59.2603Z" fill="#525253"/>
</svg>
