<svg width="200" height="80" viewBox="0 0 200 80" fill="none" xmlns="http://www.w3.org/2000/svg">
<path d="M62.1258 13.0101C62.7378 12.8944 63.0978 13.8074 62.6285 14.1733C62.3666 14.4669 61.8416 14.4313 61.6186 14.1099C61.2497 13.7285 61.5729 12.9522 62.1258 13.0101Z" fill="#525253"/>
<path d="M40.9905 14.0832C41.3829 13.9475 41.8076 14.1889 41.9882 14.5414C42.55 15.549 43.0538 16.5888 43.6067 17.6031C43.8319 17.9634 43.8865 18.5072 43.5354 18.8097C43.1776 19.0733 42.6949 19.0332 42.278 19.1289C41.0708 19.2323 39.8725 19.4036 38.6664 19.5037C38.1224 19.5782 37.5796 19.7005 37.0289 19.6861C36.7848 19.6827 36.5084 19.4647 36.5262 19.209C36.7012 18.7085 37.1259 18.3626 37.4536 17.9645C38.4346 16.7957 39.459 15.6646 40.4466 14.5025C40.6015 14.3334 40.7754 14.1699 40.9905 14.0832Z" fill="#525253"/>
<path d="M47.2446 16.0495C47.7618 15.718 48.2066 15.1375 48.8854 15.2131C49.1674 15.9316 49.445 16.6923 49.3424 17.4785C48.3114 17.4874 47.2602 17.4274 46.2637 17.1482C46.2659 16.5766 46.8734 16.3686 47.2446 16.0495Z" fill="#525253"/>
<path d="M56.8876 16.5844C57.251 16.5799 57.6166 16.5555 57.9811 16.5799C58.1962 16.5733 58.3946 16.7601 58.3879 16.9781C58.4704 17.6186 58.1449 18.2014 57.9666 18.7964C57.7838 19.2935 57.6823 19.8318 57.3936 20.2822C57.1941 20.6236 56.688 20.5591 56.4328 20.3155C55.405 19.4859 54.3951 18.6329 53.3651 17.8055C53.1589 17.6098 52.8279 17.4285 52.8881 17.0948C52.8546 16.9058 53.0441 16.7857 53.2113 16.789C54.1599 16.6333 55.1308 16.7901 56.0794 16.6355C56.3469 16.5933 56.6178 16.5911 56.8876 16.5844Z" fill="#525253"/>
<path d="M49.6156 19.2646C50.2688 19.0444 50.922 18.6574 51.6365 18.8142C51.8527 18.9454 51.8026 19.2079 51.8182 19.4225C51.8081 20.3878 51.8193 21.3543 51.797 22.3196C51.8159 22.6321 51.476 22.8834 51.1761 22.8245C50.6221 22.7533 50.1361 22.4408 49.6167 22.2529C48.58 21.798 47.4988 21.4399 46.5 20.9039C46.5524 20.6959 46.4699 20.3767 46.7519 20.3222C47.6871 19.9219 48.6658 19.6316 49.6156 19.2646Z" fill="#525253"/>
<path d="M60.1267 19.6561C60.8936 19.7985 61.6059 20.131 62.3427 20.3757C63.2122 20.7082 64.1151 20.9651 64.9633 21.3499C65.2699 21.4711 65.2052 21.8459 65.1584 22.105C64.7861 22.6288 64.3235 23.0803 63.8999 23.5619C63.599 23.9089 63.3236 24.287 62.9569 24.5706C62.6448 24.6607 62.2469 24.6451 62.0941 24.3092C61.4153 23.1437 60.8669 21.9059 60.2003 20.7327C59.9874 20.4124 59.9528 20.002 60.1267 19.6561Z" fill="#525253"/>
<path d="M30.8 20.2811C31.1957 20.2177 31.4688 20.5769 31.7508 20.7904C32.3762 21.3676 33.0751 21.8681 33.6391 22.5064C33.8877 22.7978 33.6748 23.2215 33.3627 23.3639C32.1298 24.0289 30.8836 24.6695 29.6519 25.3357C29.4033 25.4513 28.9964 25.6571 28.8103 25.3501C28.7958 25.1021 28.8237 24.8508 28.9117 24.6183C29.3364 23.4795 29.7555 22.3363 30.149 21.1852C30.2783 20.8405 30.3987 20.3978 30.8 20.2811Z" fill="#525253"/>
<path d="M40.6979 22.4352C41.1204 22.0271 41.4748 21.5556 41.885 21.1363C42.0612 21.1363 42.2362 21.1374 42.4123 21.1396C42.7422 21.7769 43.2059 22.393 43.2405 23.1337C42.2306 23.5073 41.1326 23.3995 40.0781 23.3872C40.1941 23.0191 40.4214 22.701 40.6979 22.4352Z" fill="#525253"/>
<path d="M53.793 21.4833C54.5454 21.421 55.3011 21.4655 56.0547 21.48C56.3735 21.4744 56.6677 21.609 56.9609 21.7169C56.9453 22.4775 56.4738 23.1215 56.1126 23.7609C55.9588 23.7443 55.8072 23.7198 55.6578 23.6875C55.2889 23.3684 54.9812 22.9891 54.6446 22.6388C54.3291 22.2785 53.9401 21.956 53.793 21.4833Z" fill="#525253"/>
<path d="M35.2458 22.5654C35.5088 22.5554 35.7975 22.562 35.9982 22.7578C36.803 23.4039 37.5955 24.0645 38.4081 24.7018C38.7236 24.9854 39.194 25.2756 39.0959 25.7694C39.1238 26.093 38.8306 26.3099 38.5876 26.4656C36.9847 27.3964 35.3684 28.305 33.7666 29.2359C33.499 29.4183 33.168 29.4449 32.8592 29.3671C32.8012 29.0079 32.7901 28.632 32.9027 28.2828C33.4444 26.6235 33.9706 24.9575 34.4867 23.2894C34.5959 22.9502 34.8266 22.5253 35.2458 22.5654Z" fill="#525253"/>
<path d="M47.2249 23.5718C47.537 23.3983 47.906 23.4706 48.2471 23.4662C48.5938 24.0311 48.3831 24.7051 48.5102 25.3201C48.557 26.0085 48.6484 26.7191 48.4734 27.3964C48.0275 27.4153 47.5649 27.452 47.138 27.2941C46.0021 26.936 44.8629 26.5879 43.7248 26.2387C43.5175 26.1353 43.1485 26.0763 43.1853 25.7738C43.1318 25.4736 43.474 25.3835 43.6735 25.2534C44.8551 24.6873 46.0456 24.1435 47.2249 23.5718Z" fill="#525253"/>
<path d="M99.3899 23.9055C101.481 23.4495 103.784 24.7629 104.423 26.8059C104.94 28.3106 104.58 30.09 103.475 31.2455C102.661 32.1185 101.502 32.5923 100.323 32.6834C99.4412 32.6401 98.5383 32.431 97.797 31.9272C96.5697 31.1343 95.7616 29.6918 95.8129 28.225C95.7906 27.0928 96.2788 25.9763 97.0513 25.1577C97.6811 24.5172 98.5149 24.0934 99.3899 23.9055ZM99.5961 24.8386C98.0255 25.1133 96.8573 26.6413 96.9353 28.2172C96.8952 29.9276 98.3844 31.5613 100.135 31.5024C101.016 31.5758 101.871 31.181 102.51 30.596C103.234 29.8587 103.59 28.7866 103.491 27.7623C103.356 26.7225 102.771 25.7093 101.822 25.2145C101.159 24.8019 100.354 24.7307 99.5961 24.8386Z" fill="#525253"/>
<path d="M106.412 24.2435C106.366 23.9755 106.718 23.9433 106.912 23.9388C107.915 23.9433 108.918 23.9321 109.92 23.9455C110.586 24.0278 111.317 24.159 111.783 24.6895C112.314 25.2244 112.404 26.043 112.272 26.7514C112.15 27.2752 111.742 27.6444 111.362 27.9925C112.22 28.3106 112.805 29.1958 112.756 30.1077C112.699 30.785 112.427 31.519 111.804 31.8705C111.301 32.1463 110.726 32.3031 110.151 32.2942C108.901 32.3008 107.652 32.3075 106.402 32.2864C106.413 29.6051 106.403 26.9249 106.412 24.2435ZM107.626 25.1455C107.622 25.8984 107.629 26.6513 107.622 27.4053C108.269 27.5421 108.936 27.4609 109.594 27.4843C110.077 27.5076 110.611 27.3775 110.926 26.9827C111.181 26.6846 111.104 26.2565 111.074 25.8973C110.822 25.3334 110.196 25.0098 109.591 25.0454C108.937 25.0721 108.266 24.9698 107.626 25.1455ZM107.629 28.6008C107.622 29.4883 107.622 30.3758 107.627 31.2632C108.468 31.2744 109.309 31.2744 110.15 31.2699C110.633 31.2799 111.17 31.0909 111.405 30.6416C111.474 30.1778 111.473 29.6985 111.407 29.2347C111.14 28.821 110.645 28.573 110.154 28.5953C109.312 28.5942 108.47 28.593 107.629 28.6008Z" fill="#525253"/>
<path d="M79.6557 27.3219C79.989 25.3568 81.9208 23.7209 83.9473 23.8988C84.4433 23.9122 84.9516 23.8555 85.4387 23.97C86.2524 24.2403 87.074 24.6718 87.58 25.3813C87.7294 25.7917 87.2066 25.9218 86.9614 26.1175C86.6671 25.8929 86.3951 25.6404 86.0819 25.4436C84.8892 24.6884 83.2495 24.6907 82.0835 25.5014C81.4381 25.9129 81.0223 26.6091 80.8172 27.3319C80.3647 28.8188 81.2776 30.5059 82.6788 31.1143C83.6095 31.5224 84.7576 31.5424 85.6382 30.9953C86.384 30.5626 86.8722 29.7953 87.0394 28.9601C86.3561 28.9312 85.6717 28.9545 84.9884 28.9445C84.9784 28.6009 84.975 28.2572 84.9761 27.9147C86.0328 27.9114 87.0896 27.8991 88.1452 27.918C88.1196 28.5809 88.2477 29.2815 87.9646 29.9076C87.5555 30.9764 86.6693 31.8583 85.5892 32.2475C84.3107 32.7124 82.8203 32.5578 81.6599 31.8527C80.8707 31.4023 80.2755 30.6728 79.9076 29.8509C79.5041 29.0713 79.649 28.1649 79.6557 27.3219Z" fill="#525253"/>
<path d="M90.0165 23.9722C90.39 23.93 90.7667 23.9344 91.1413 23.9555C91.1591 26.3433 91.129 28.7321 91.1524 31.1198C91.2962 31.2088 91.4578 31.2755 91.6328 31.2622C92.8824 31.2655 94.132 31.2544 95.3815 31.2666C95.3827 31.6103 95.3849 31.955 95.3849 32.2998C94.7361 32.4143 94.0762 32.3509 93.4219 32.3654C92.2849 32.3509 91.1457 32.3932 90.0087 32.3409C90.0099 29.5506 89.9976 26.7614 90.0165 23.9722Z" fill="#525253"/>
<path d="M123.591 24.3236C123.593 23.8943 124.1 23.9121 124.408 23.9344C124.638 23.8866 124.834 24.0923 124.795 24.3203C124.799 26.6313 124.784 28.9434 124.798 31.2543C126.209 31.2699 127.621 31.2577 129.032 31.2632C129.111 31.5769 129.165 31.9005 129.143 32.2263C128.921 32.3342 128.674 32.3754 128.431 32.3665C127.014 32.3609 125.597 32.3609 124.181 32.3676C123.974 32.3754 123.77 32.332 123.591 32.2319C123.58 29.5962 123.589 26.9593 123.591 24.3236Z" fill="#525253"/>
<path d="M117.027 24.05C117.57 23.9889 118.12 24.0356 118.666 24.0278C119.401 25.7671 120.03 27.551 120.718 29.3092C121.063 30.3113 121.542 31.2677 121.806 32.2975C121.397 32.3053 120.99 32.302 120.584 32.2919C120.408 31.7659 120.211 31.2477 119.989 30.7394C118.557 30.7383 117.124 30.7339 115.692 30.7405C115.491 31.2566 115.301 31.7759 115.107 32.2953C114.725 32.3031 114.343 32.3042 113.963 32.2919C114.208 31.2877 114.684 30.3613 115.005 29.3815C115.382 28.1315 115.902 26.9315 116.355 25.7082C116.584 25.1577 116.726 24.5694 117.027 24.05ZM117.084 27.0594C116.773 27.9146 116.405 28.7476 116.134 29.6162C117.261 29.6407 118.39 29.6473 119.518 29.6151C119.318 28.8766 119.01 28.1738 118.75 27.4553C118.455 26.7269 118.244 25.9595 117.831 25.2845C117.511 25.845 117.314 26.46 117.084 27.0594Z" fill="#525253"/>
<path d="M17.4164 24.149C17.6784 24.1212 18.0183 24.0656 18.1922 24.3159C18.6314 24.7262 18.2413 25.5992 17.6215 25.4847C16.9226 25.4836 16.7565 24.3448 17.4164 24.149Z" fill="#525253"/>
<path d="M57.9618 24.2425C58.2003 24.2213 58.4433 24.2647 58.6473 24.3948C60.8054 25.6582 62.9645 26.9216 65.1281 28.1738C65.5406 28.3784 65.7702 28.8622 65.5718 29.2937C65.3199 29.6563 64.9498 29.9098 64.6076 30.179C63.5397 31.0041 62.4886 31.8482 61.4229 32.6757C61.161 32.897 60.802 33.046 60.4643 32.9081C60.0518 32.6946 59.9192 32.2219 59.7888 31.8138C59.1055 29.5606 58.4066 27.3108 57.7021 25.0643C57.6664 24.7907 57.5393 24.2491 57.9618 24.2425Z" fill="#525253"/>
<path d="M65.3113 24.516C65.8631 24.3881 66.2799 24.9064 66.7503 25.111C67.1572 25.359 67.6075 25.5525 67.9498 25.8906C67.9698 26.0574 68.0066 26.2531 67.8416 26.3621C67.3378 26.7925 66.844 27.2785 66.1963 27.4876C65.8107 26.8537 65.6713 26.1163 65.4227 25.4268C65.3481 25.1355 65.1597 24.8085 65.3113 24.516Z" fill="#525253"/>
<path d="M50.1914 24.8386C50.6852 24.6529 51.2169 24.7174 51.733 24.7107C52.8867 24.7218 54.0404 24.7107 55.1941 24.7307C55.4695 24.7318 55.834 24.8986 55.8161 25.2178C55.854 25.5659 55.6534 25.8706 55.5363 26.182C55.2187 26.8815 54.9846 27.6178 54.6379 28.3028C54.4763 28.6932 53.9011 28.7343 53.6269 28.4474C53.0818 27.9503 52.5334 27.4565 52.0072 26.9416C51.4789 26.4267 50.8937 25.9718 50.392 25.4302C50.2271 25.2779 50.2371 25.0399 50.1914 24.8386Z" fill="#525253"/>
<path d="M31.3737 26.5824C31.6056 26.5579 31.8931 26.5546 31.9767 26.8237C32.2142 27.1529 31.824 27.6155 31.4517 27.5032C30.9379 27.5655 30.8899 26.628 31.3737 26.5824Z" fill="#525253"/>
<path d="M39.2294 27.1284C39.9138 27.1117 40.2961 27.7579 40.7654 28.1505C40.9828 28.2995 40.9961 28.5608 41.024 28.7999C40.1367 29.2782 39.2561 29.7986 38.2952 30.1134C38.2094 29.6463 38.3699 29.2003 38.5561 28.7799C38.7868 28.2317 38.9696 27.6645 39.2294 27.1284Z" fill="#525253"/>
<path d="M24.4843 28.335C24.7039 27.928 25.1921 27.8379 25.6101 27.9402C26.6267 28.1916 27.631 28.484 28.6476 28.7354C29.0645 28.8288 29.652 29.0245 29.6252 29.5483C29.7111 30.0277 29.3555 30.3924 29.1024 30.7505C28.1226 32.0762 27.1885 33.4352 26.2143 34.7642C26.027 35.0589 25.7394 35.2379 25.3816 35.2157C25.2434 34.9766 25.113 34.7275 25.0795 34.4506C24.9246 32.9892 24.7173 31.5346 24.569 30.0721C24.462 29.5016 24.4051 28.9122 24.4843 28.335Z" fill="#525253"/>
<path d="M67.7245 28.1916C67.8092 28.1515 67.9798 28.0726 68.0656 28.0325C68.3621 28.2494 68.614 28.5196 68.847 28.8021C69.6473 29.6785 70.4176 30.5826 71.2023 31.4723C71.4754 31.7303 71.7229 32.2697 71.3428 32.5366C70.772 32.8658 70.1133 33.0059 69.5013 33.2439C68.8994 33.4385 68.2384 33.8511 67.6141 33.4875C67.5785 32.3242 67.6197 31.1587 67.6197 29.9943C67.6309 29.3927 67.5874 28.7832 67.7245 28.1916Z" fill="#525253"/>
<path d="M56.768 28.3795C57.1001 28.3017 57.4022 28.5174 57.5839 28.7777C57.6174 29.0401 57.6553 29.3593 57.4279 29.5506C57.2573 29.8053 56.9062 29.7174 56.6465 29.7085C56.0401 29.4761 56.1504 28.5196 56.768 28.3795Z" fill="#525253"/>
<path d="M34.7646 31.7482C34.817 31.2811 35.3297 31.3434 35.6329 31.5291C36.1245 31.8038 36.7621 31.9272 37.082 32.4299C36.8479 32.8002 36.4957 33.0727 36.1925 33.383C35.7344 33.8167 35.3342 34.3272 34.7679 34.6286C34.4826 33.6955 34.7022 32.699 34.7646 31.7482Z" fill="#525253"/>
<path d="M30.7353 31.7704C31.0586 31.4857 31.4966 31.6748 31.8656 31.7393C32.229 31.8494 32.6381 31.8671 32.9524 32.1007C33.0583 32.52 32.7462 32.8503 32.5389 33.1761C32.1398 33.7377 31.8266 34.3683 31.3072 34.8354C30.927 34.1804 30.9538 33.4019 30.8 32.6823C30.7297 32.3843 30.6785 32.0751 30.7353 31.7704Z" fill="#525253"/>
<path d="M65.2096 32.8035C65.3378 32.8058 65.5942 32.808 65.7224 32.8102C66.5506 34.0135 67.3186 35.2569 68.1257 36.4735C68.3687 36.786 68.3363 37.202 68.2828 37.5701C67.8392 37.9271 67.2406 37.897 66.7156 38.0372C66.0334 38.1361 65.3601 38.393 64.6623 38.2852C64.4706 38.2707 64.3469 38.0761 64.3614 37.8959C64.2867 37.0941 64.5364 36.3178 64.649 35.5338C64.8418 34.6252 64.8964 33.6832 65.2096 32.8035Z" fill="#525253"/>
<path d="M61.6078 33.8812C62.0626 33.8701 62.2721 34.2993 62.5107 34.6107C62.7983 35.0289 63.1237 35.4193 63.3991 35.8463C63.5384 36.0265 63.4972 36.2645 63.525 36.4769C63.0245 36.6793 62.5062 36.8316 61.9801 36.9506C61.7527 36.9729 61.4874 37.024 61.2867 36.8895C61.1429 36.2645 61.3937 35.645 61.3882 35.0189C61.3949 34.6296 61.4851 34.2482 61.6078 33.8812Z" fill="#525253"/>
<path d="M70.1571 34.5452C70.4024 34.4484 70.6844 34.5229 70.8638 34.7131C71.2562 35.0033 71.1169 35.724 70.6454 35.8452C70.4191 35.8752 70.1872 35.8686 69.9654 35.823C69.5552 35.4882 69.6377 34.7331 70.1571 34.5452Z" fill="#525253"/>
<path d="M28.3492 34.6319C28.5676 34.5607 28.8407 34.5663 29.0157 34.7342C29.4627 34.9944 29.3769 35.8029 28.8664 35.9308C28.6044 35.9653 28.299 35.982 28.0984 35.7785C27.7862 35.4326 27.8921 34.8009 28.3492 34.6319Z" fill="#525253"/>
<path d="M126.062 36.0509C127.47 35.5683 129.11 35.7985 130.294 36.7149C131.096 37.2687 131.571 38.1484 131.921 39.0337C131.254 39.0281 130.586 39.0648 129.923 39.0203C129.726 38.9058 129.612 38.6978 129.473 38.5265C129.034 37.9215 128.282 37.5568 127.533 37.6035C126.599 37.5379 125.759 38.1873 125.339 38.978C125.053 39.4685 125.117 40.0579 125.148 40.6006C125.352 41.7439 126.459 42.7025 127.644 42.6236C128.385 42.6469 129.1 42.231 129.511 41.626C129.632 41.4781 129.732 41.2957 129.905 41.199C130.533 40.9977 131.203 41.11 131.85 41.0877C131.352 43.3898 128.682 44.9045 126.435 44.2239C125.361 43.9448 124.379 43.2753 123.789 42.3289C123.336 41.6749 123.149 40.8876 123.033 40.1135C123.123 39.2561 123.39 38.3953 123.892 37.6847C124.447 36.9562 125.188 36.3501 126.062 36.0509Z" fill="#525253"/>
<path d="M97.4047 35.9475C98.1839 35.8597 99.0054 35.7518 99.7679 35.9865C100.716 38.7656 101.782 41.5059 102.764 44.2729C102.054 44.2895 101.344 44.2873 100.635 44.2784C100.45 43.8314 100.283 43.3765 100.092 42.9328C99.0756 42.9183 98.0579 42.9227 97.0424 42.9283C96.8485 43.3643 96.6735 43.8091 96.5486 44.2695C95.8219 44.2973 95.094 44.2918 94.3672 44.2729C95.3793 41.4981 96.4071 38.7278 97.4047 35.9475ZM98.4414 38.7167C98.1828 39.493 97.8762 40.2548 97.6745 41.0488C98.2586 41.0666 98.8427 41.0622 99.4268 41.0466C99.2774 40.2437 98.9575 39.4885 98.7033 38.7167C98.6376 38.7167 98.5071 38.7167 98.4414 38.7167Z" fill="#525253"/>
<path d="M138.436 35.8641C139.072 35.8741 139.711 35.8307 140.348 35.8752C140.469 35.9153 140.656 35.913 140.716 36.0487C141.728 38.7879 142.71 41.5381 143.73 44.2739C143.005 44.2895 142.279 44.2917 141.555 44.2751C141.4 43.8402 141.257 43.3976 141.052 42.9828C140.87 42.8949 140.662 42.9349 140.471 42.9227C139.658 42.9283 138.847 42.9194 138.035 42.9305C137.842 43.362 137.669 43.8046 137.572 44.2673C136.835 44.2984 136.097 44.2917 135.361 44.2751C136.368 41.4647 137.384 38.6577 138.436 35.8641ZM138.696 41.0443C139.246 41.0544 139.796 41.0599 140.346 41.0477C140.233 40.168 139.845 39.3528 139.57 38.5165C139.169 39.3117 138.825 40.158 138.696 41.0443Z" fill="#525253"/>
<path d="M79.4669 35.9475C80.3965 35.8051 81.3384 35.8752 82.2748 35.8563C83.2624 35.8463 84.3013 36.0465 85.105 36.6492C86.524 37.7702 86.4716 40.3059 84.9043 41.2723C83.8877 41.9552 82.6215 41.9518 81.4443 41.9296C81.4421 42.717 81.4455 43.5054 81.4432 44.2928C80.8101 44.3017 80.1769 44.3017 79.5449 44.2928C79.3666 43.3197 79.4401 42.3188 79.5282 41.339C79.5327 40.1157 79.5226 38.8913 79.5304 37.6668C79.5505 37.0919 79.3944 36.5236 79.4669 35.9475ZM81.5179 37.6924C81.5168 38.4909 81.519 39.2883 81.5201 40.0868C82.0708 40.0835 82.6237 40.1046 83.1743 40.0801C83.4742 40.0979 83.686 39.8466 83.8655 39.6419C83.9524 39.1493 83.9502 38.631 83.8666 38.1372C83.6826 37.9393 83.4742 37.6902 83.1788 37.7024C82.6248 37.6735 82.0708 37.6946 81.5179 37.6924Z" fill="#525253"/>
<path d="M87.4727 35.952C88.1348 35.8297 88.8103 35.8341 89.4746 35.9464C89.4635 38.134 89.4635 40.3204 89.4758 42.5068C90.7331 42.5135 91.9905 42.5035 93.249 42.5102C93.4608 43.094 93.259 43.6946 93.2479 44.2895C91.3518 44.3051 89.4557 44.2951 87.5607 44.294C87.5184 44.0538 87.4715 43.8136 87.4738 43.57C87.4738 41.0299 87.4727 38.491 87.4727 35.952Z" fill="#525253"/>
<path d="M105.848 35.8574C106.313 35.7985 106.783 35.8096 107.252 35.8152C108.207 35.7885 109.138 36.2845 109.721 37.0263C109.82 37.1998 109.844 37.4778 109.666 37.6135C109.375 37.8904 109.057 38.1618 108.683 38.3152C108.21 38.1529 107.868 37.7058 107.353 37.6368C106.868 37.5879 106.297 37.549 105.908 37.8982C105.546 38.174 105.925 38.6978 106.224 38.8713C107.368 39.4785 108.881 39.4674 109.738 40.5573C110.267 41.1156 110.105 41.9385 110.082 42.6358C109.82 43.3565 109.153 43.8836 108.44 44.1338C107.85 44.3896 107.197 44.2951 106.574 44.3173C105.335 44.4019 104.212 43.5856 103.598 42.5624C103.996 42.2366 104.369 41.8718 104.817 41.6127C105.177 41.477 105.386 41.8596 105.642 42.0342C106.116 42.4445 106.752 42.5936 107.368 42.5213C107.794 42.5524 108.11 42.2321 108.408 41.9763C108.219 41.6961 108.031 41.3869 107.695 41.269C106.55 40.7541 105.114 40.6418 104.323 39.5519C103.823 38.9792 103.919 38.174 103.969 37.4745C104.229 36.6437 105.01 36.0365 105.848 35.8574Z" fill="#525253"/>
<path d="M110.985 35.9464C111.295 35.9041 111.605 35.8496 111.92 35.8552C113.949 35.8652 115.979 35.824 118.004 35.9364C117.999 36.4958 117.998 37.0552 118.006 37.6135C117.158 37.7892 116.29 37.6713 115.434 37.718C115.442 39.295 115.435 40.872 115.436 42.4501C115.426 43.0651 115.473 43.6834 115.391 44.2951C114.795 44.2973 114.201 44.2995 113.606 44.2939C113.557 44.0548 113.537 43.8113 113.54 43.5677C113.55 41.6182 113.541 39.6686 113.542 37.7191C112.852 37.6957 112.163 37.7169 111.475 37.708C111.301 37.7191 111.14 37.6501 110.994 37.5667C110.969 37.0274 110.994 36.4869 110.985 35.9464Z" fill="#525253"/>
<path d="M145.312 37.5167C146.064 36.5458 147.22 35.7974 148.483 35.8107C148.951 35.8085 149.426 35.794 149.89 35.8819C151.369 36.2622 152.628 37.4655 152.989 38.9602C152.319 38.988 151.65 38.9725 150.98 38.9758C150.744 38.66 150.531 38.3141 150.21 38.0739C149.783 37.728 149.233 37.5945 148.701 37.5145C147.909 37.5601 147.125 37.946 146.667 38.6043C146.228 39.2561 146.052 40.1168 146.343 40.8642C146.595 41.7528 147.378 42.4556 148.293 42.6002C148.8 42.6547 149.341 42.6402 149.794 42.3789C150.327 42.1231 150.67 41.6271 151.009 41.1656C151.651 41.1756 152.294 41.16 152.937 41.1745C152.887 41.8996 152.448 42.5146 151.981 43.0406C151.426 43.6333 150.7 44.0737 149.915 44.2817C149.192 44.3418 148.46 44.3429 147.737 44.2851C146.334 43.9425 145.147 42.8504 144.689 41.4825C144.472 40.9476 144.519 40.3615 144.516 39.7977C144.483 38.9713 144.839 38.1784 145.312 37.5167Z" fill="#525253"/>
<path d="M162.582 35.9286C163.214 35.9119 163.848 35.913 164.483 35.9286C164.476 38.6944 164.488 41.4603 164.478 44.2261C163.854 44.3218 163.219 44.2851 162.591 44.2562C162.572 41.4803 162.591 38.7045 162.582 35.9286Z" fill="#525253"/>
<path d="M169.586 35.873C170.462 35.7863 171.394 35.7307 172.226 36.0765C173.416 36.5381 174.374 37.5434 174.773 38.7534C175.037 39.4385 174.978 40.1881 174.95 40.9054C174.67 42.9861 172.693 44.7555 170.561 44.6365C168.453 44.7811 166.46 43.0673 166.16 41.0066C166.133 40.1925 166.048 39.3328 166.393 38.5688C166.93 37.2198 168.161 36.1722 169.586 35.873ZM170.179 37.5712C169.416 37.7136 168.711 38.1907 168.362 38.8902C168.109 39.4085 167.938 40.0212 168.151 40.5829C168.367 41.4948 169.15 42.2377 170.071 42.4145C170.527 42.5802 171.002 42.4234 171.442 42.2877C172.385 41.9463 172.991 40.981 173.055 40.0046C172.985 39.0581 172.431 38.1106 171.53 37.7369C171.1 37.589 170.632 37.4211 170.179 37.5712Z" fill="#525253"/>
<path d="M119.444 35.9286C120.084 35.9153 120.724 35.9131 121.364 35.9275C121.359 38.6822 121.367 41.4369 121.362 44.1917C120.722 44.2028 120.082 44.2061 119.444 44.1883C119.443 41.4347 119.445 38.6822 119.444 35.9286Z" fill="#525253"/>
<path d="M153.983 35.9208C156.298 35.9153 158.612 35.9141 160.928 35.923C160.929 36.4924 160.933 37.0619 160.925 37.6313C160.077 37.6502 159.229 37.6346 158.382 37.6457C158.369 39.8611 158.397 42.0775 158.368 44.2929C157.763 44.2929 157.159 44.2973 156.556 44.2929C156.537 42.1087 156.54 39.9244 156.551 37.7402C155.7 37.6168 154.84 37.6424 153.983 37.6368C153.981 37.0652 153.985 36.4925 153.983 35.9208Z" fill="#525253"/>
<path d="M176.531 38.3353C176.561 37.5323 176.459 36.7205 176.602 35.9253C177.185 35.9342 177.776 35.8719 178.357 35.9553C178.958 36.6126 179.418 37.3866 179.969 38.0861C180.625 39.0125 181.345 39.8945 181.964 40.8453C182.175 39.2149 182.021 37.5635 182.073 35.9242C182.712 35.9175 183.353 35.9097 183.992 35.9364C183.989 38.6911 183.993 41.4459 183.998 44.2006C183.464 44.3307 182.91 44.2784 182.367 44.2773C182.076 44.3096 181.928 44.0104 181.752 43.8347C181.081 42.9439 180.433 42.0342 179.767 41.14C179.37 40.6118 178.997 40.0602 178.532 39.5886C178.49 40.9888 178.521 42.3889 178.511 43.7891C178.521 43.9615 178.453 44.1205 178.373 44.2684C177.886 44.2962 177.398 44.2884 176.912 44.2795C176.652 44.2984 176.499 44.0171 176.531 43.7902C176.53 41.9719 176.53 40.1536 176.531 38.3353Z" fill="#525253"/>
<path d="M33.3061 36.7449C34.0463 36.6804 34.8043 36.6927 35.5344 36.8428C35.6425 37.4912 35.2357 38.035 34.9916 38.5988C34.7931 39.037 34.6103 39.503 34.2202 39.8133C33.8089 39.3284 33.7242 38.6867 33.5224 38.1062C33.3775 37.6702 33.1891 37.212 33.3061 36.7449Z" fill="#525253"/>
<path d="M24.0032 37.698C24.6921 37.5045 24.6676 38.8279 23.9798 38.6121C23.4024 38.6466 23.4481 37.6524 24.0032 37.698Z" fill="#525253"/>
<path d="M30.0151 37.9315C30.3807 37.9126 30.7519 37.8882 31.1164 37.9427C31.5277 38.1673 31.5801 38.6667 31.4898 39.0815C31.084 40.8453 30.7229 42.6202 30.3361 44.3874C30.2469 44.6665 30.1555 45.1114 29.7721 45.0691C29.4354 45.1125 29.2816 44.7399 29.1189 44.512C28.2182 42.935 27.2796 41.3791 26.3723 39.8055C26.185 39.5341 26.2162 39.1916 26.2508 38.8813C26.4748 38.4476 26.9909 38.3742 27.4268 38.3297C28.2906 38.204 29.1489 38.0394 30.0151 37.9315Z" fill="#525253"/>
<path d="M61.8213 38.6811C61.9249 38.4209 62.1991 38.3775 62.4477 38.3764C63.0028 39.7421 63.3428 41.1834 63.8132 42.5791C63.9414 42.9639 64.0997 43.5422 63.6415 43.7757C63.3038 43.9192 62.9036 43.8314 62.5447 43.8202C61.7544 43.6434 60.9239 43.8013 60.1437 43.5711C59.7412 43.401 59.7491 42.8949 59.9274 42.5624C60.5706 41.2746 61.1603 39.9601 61.8213 38.6811Z" fill="#525253"/>
<path d="M70.1 38.8546C70.177 38.5621 70.4679 38.4809 70.7343 38.4676C71.4321 39.7877 71.9538 41.1934 72.5858 42.5457C72.7708 42.8705 72.7742 43.243 72.7552 43.6045C72.4342 43.7235 72.1065 43.8569 71.7576 43.8391C70.8826 43.8391 70.0075 43.8758 69.1325 43.858C68.8906 43.8825 68.7334 43.679 68.6253 43.4944C68.5651 43.1151 68.7446 42.7581 68.8594 42.4078C69.3053 41.2345 69.6408 40.0223 70.1 38.8546Z" fill="#525253"/>
<path d="M66.9185 39.6297C67.1705 39.5919 67.4625 39.5986 67.6252 39.8266C68.0221 40.1246 67.8582 40.7274 67.4681 40.9498C67.127 41.0088 66.6956 41.0288 66.5117 40.6707C66.437 40.2748 66.4437 39.7521 66.9185 39.6297Z" fill="#525253"/>
<path d="M23.9329 40.7529C24.1882 40.734 24.5037 40.6562 24.6965 40.8775C24.7857 41.6793 24.517 42.4578 24.4123 43.2441C24.3922 43.5199 24.2529 43.7579 24.0968 43.9803C23.5952 43.4932 23.2775 42.8649 22.8874 42.2943C22.6655 41.9329 22.3256 41.5603 22.4772 41.1033C22.9509 40.9465 23.4414 40.8386 23.9329 40.7529Z" fill="#525253"/>
<path d="M35.6054 40.9965C35.8618 40.942 36.1761 40.892 36.3991 41.0644C36.544 41.2657 36.6588 41.5226 36.5852 41.7739C36.4292 42.9361 36.4604 44.116 36.3032 45.2782C36.2664 45.6485 36.3445 46.0489 36.1583 46.3903C36.0446 46.5549 35.8194 46.4993 35.65 46.5382C34.7114 45.3149 33.7406 44.1171 32.7741 42.9172C32.6147 42.7081 32.433 42.4612 32.5211 42.1832C32.7039 41.8696 33.0729 41.7695 33.3961 41.6716C34.1363 41.4592 34.8686 41.2212 35.6054 40.9965Z" fill="#525253"/>
<path d="M64.7791 45.2382C65.06 44.9257 65.3699 44.5698 65.8269 44.5631C66.0086 44.9868 65.954 45.4517 65.9584 45.8988C65.9484 47.1243 65.9562 48.3499 65.9417 49.5754C65.9763 49.9135 65.6719 50.226 65.3297 50.1771C64.8593 50.1348 64.4402 49.8868 64.0033 49.7267C63.4214 49.472 62.8016 49.3007 62.2443 48.9938C61.9344 48.847 62.0035 48.4188 62.0838 48.1553C62.9354 47.1399 63.913 46.2402 64.7791 45.2382Z" fill="#525253"/>
<path d="M59.7296 46.3203C60.084 45.9533 60.3906 45.4595 60.9457 45.3939C60.9736 46.4037 60.9591 47.4146 60.939 48.4244C60.152 48.5467 59.462 48.1186 58.7754 47.8127C58.7977 47.6281 58.752 47.4246 58.8412 47.2544C59.1143 46.923 59.4475 46.645 59.7296 46.3203Z" fill="#525253"/>
<path d="M24.2457 46.7851C24.7841 46.5694 25.3113 46.2602 25.9099 46.278C25.9824 46.5516 26.0492 46.8285 26.0403 47.1143C26.0392 47.875 26.0637 48.6368 26.0381 49.3975C25.9333 49.4053 25.7249 49.422 25.6201 49.4309C25.1129 48.916 24.5935 48.4122 24.0985 47.885C23.938 47.6871 23.7262 47.4947 23.6895 47.23C23.7742 46.9887 24.0317 46.8841 24.2457 46.7851Z" fill="#525253"/>
<path d="M68.5159 47.607C68.9138 47.1621 69.1635 46.4615 69.8167 46.3492C70.0419 47.3801 70.1166 48.4389 70.072 49.4943C69.3062 49.5932 68.5671 49.2896 67.8749 49.0027C67.6821 48.4333 68.2539 48.0385 68.5159 47.607Z" fill="#525253"/>
<path d="M29.5044 46.8329C29.6939 46.6628 29.9425 46.8352 30.1565 46.8519C30.1922 47.0142 30.239 47.1755 30.2602 47.3412C30.1877 47.6715 29.7708 47.8617 29.4899 47.6593C29.1867 47.488 29.1956 46.992 29.5044 46.8329Z" fill="#525253"/>
<path d="M32.5382 47.6359C32.9406 47.3768 33.343 46.9097 33.8736 47.0787C34.0576 47.2055 34.198 47.3868 34.2437 47.6081C34.5246 48.6057 34.7476 49.6177 35.0218 50.6175C35.1633 51.1769 35.3606 51.7329 35.3205 52.3201C34.9794 52.4825 34.6428 52.3324 34.363 52.1266C33.2918 51.4104 32.2061 50.7153 31.1181 50.0236C30.7681 49.8334 30.4092 49.3697 30.7358 49.0005C31.2619 48.4566 31.9475 48.1019 32.5382 47.6359Z" fill="#525253"/>
<path d="M143.178 47.8049C143.645 47.7337 144.124 47.7126 144.594 47.776C144.644 49.1295 144.589 50.504 144.619 51.8653C146.083 51.8786 147.546 51.8742 149.01 51.8664C149.018 50.4962 149.001 49.1272 149.019 47.7582C149.443 47.756 149.868 47.7549 150.294 47.766C150.313 50.5652 150.296 53.3644 150.299 56.1636C149.87 56.1803 149.441 56.1803 149.014 56.1669C149.009 55.126 149.01 54.0839 149.012 53.0419C147.546 53.0308 146.08 53.033 144.615 53.0419C144.608 54.0472 144.608 55.0537 144.613 56.0602C144.205 56.1491 143.665 56.3382 143.326 56.0168C143.298 53.3488 143.303 50.6775 143.323 48.0095C143.605 47.6826 144.114 47.9117 144.494 47.8383C144.081 47.6837 143.612 47.8294 143.178 47.8049Z" fill="#525253"/>
<path d="M102.619 47.8438C104.883 47.8394 107.148 47.8249 109.412 47.8516C109.411 48.1753 109.411 48.5 109.413 48.8247C108.501 49.0449 107.562 48.8815 106.639 48.9649C106.601 51.337 106.625 53.7114 106.624 56.0858C106.224 56.2125 105.797 56.2092 105.398 56.088C105.409 53.7147 105.397 51.3415 105.398 48.9682C104.499 48.7302 103.551 48.966 102.65 48.8025C102.577 48.4878 102.62 48.1619 102.619 47.8438Z" fill="#525253"/>
<path d="M137.602 47.7504C138.173 47.687 138.752 47.6881 139.326 47.7259C140.094 47.8672 140.792 48.3031 141.301 48.8903C141.091 49.0638 140.897 49.2595 140.664 49.4008C140.41 49.4786 140.211 49.2473 140 49.1528C139.363 48.7491 138.573 48.6434 137.843 48.7969C137.389 48.9048 136.96 49.2362 136.843 49.6988C136.777 50.2226 137.094 50.7498 137.546 51.0056C138.555 51.595 139.77 51.7318 140.751 52.3802C141.23 52.6893 141.606 53.2042 141.648 53.7848C141.672 54.1862 141.708 54.6277 141.461 54.9747C140.89 55.969 139.658 56.3526 138.568 56.3159C137.537 56.3816 136.505 55.9423 135.778 55.2238C135.429 54.7679 136.194 54.1518 136.605 54.4865C137.216 54.9136 137.916 55.2617 138.676 55.2783C139.32 55.3073 140.024 55.0759 140.383 54.511C140.672 54.1462 140.52 53.5901 140.157 53.3355C139.493 52.8495 138.667 52.6782 137.915 52.3802C136.981 52.031 135.97 51.4393 135.74 50.3917C135.693 49.8846 135.624 49.3196 135.926 48.8736C136.26 48.2497 136.943 47.9206 137.602 47.7504Z" fill="#525253"/>
<path d="M152.565 47.845C152.963 47.8394 153.363 47.8394 153.763 47.8494C153.768 50.6231 153.767 53.3956 153.763 56.1692C153.363 56.1814 152.964 56.1803 152.565 56.1714C152.556 53.3956 152.557 50.6208 152.565 47.845Z" fill="#525253"/>
<path d="M79.6526 48.2164C79.627 48.0418 79.676 47.786 79.9145 47.8383C81.0003 47.8383 82.0871 47.8349 83.1728 47.8405C84.1091 47.836 85.0967 48.3165 85.5281 49.1728C85.9194 49.8924 85.8124 50.7409 85.7923 51.5272C85.546 52.7171 84.3833 53.6246 83.1728 53.6324C82.4103 53.6291 81.6468 53.6257 80.8843 53.6291C80.6335 54.4676 81.0493 55.3384 80.7595 56.1769C80.4028 56.1269 79.948 56.3126 79.6671 56.0335C79.6448 53.4289 79.666 50.8221 79.6526 48.2164ZM80.7996 48.8681C80.8275 50.0825 80.687 51.3125 80.8921 52.5147C81.5052 52.517 82.1183 52.5203 82.7314 52.5203C83.4726 52.547 84.2507 52.1388 84.5505 51.4415C84.6899 51.0812 84.866 50.6764 84.6921 50.2949C84.5115 49.5365 83.8405 48.9415 83.0602 48.8714C82.3067 48.8414 81.552 48.8614 80.7996 48.8681Z" fill="#525253"/>
<path d="M89.2463 47.8372C89.768 47.8394 90.2897 47.8405 90.8114 47.8361C91.2795 48.7569 91.6084 49.74 91.9216 50.722C92.567 52.5348 93.3194 54.3086 93.9604 56.1225C93.6182 56.1814 93.267 56.2103 92.9226 56.1636C92.7086 56.0891 92.6395 55.8689 92.5592 55.6832C92.4221 55.3395 92.2995 54.9892 92.2047 54.6322C90.7668 54.5822 89.3277 54.61 87.8909 54.6155C87.6713 55.1393 87.4874 55.6787 87.2198 56.1803C86.8364 56.1814 86.4462 56.1992 86.0762 56.0835C86.7717 54.1396 87.5576 52.2278 88.2643 50.2872C88.5865 49.4687 88.864 48.6301 89.2463 47.8372ZM89.5529 50.1648C89.1538 51.2536 88.7236 52.3312 88.3078 53.4144C88.8473 53.5713 89.4136 53.4923 89.9664 53.509C90.5583 53.489 91.1636 53.5768 91.7421 53.4133C91.1736 51.9898 90.6642 50.5441 90.0746 49.1295C89.8628 49.4542 89.6833 49.799 89.5529 50.1648Z" fill="#525253"/>
<path d="M95.377 48.4522C95.387 48.2431 95.3346 47.9962 95.5274 47.8527C96.6466 47.8171 97.7691 47.8494 98.8893 47.8405C99.9238 47.8116 101.012 48.4021 101.403 49.3863C101.704 50.0581 101.627 50.8132 101.611 51.5283C101.431 52.5459 100.533 53.2476 99.6005 53.5679C100.293 54.3742 100.933 55.2228 101.572 56.0713C101.21 56.187 100.826 56.2159 100.451 56.1614C100.119 56.0179 99.9338 55.6865 99.7164 55.4174C99.3073 54.8969 98.9239 54.3542 98.497 53.8493C98.2517 53.5045 97.7891 53.6569 97.4335 53.6235C97.1604 53.6613 96.8049 53.5301 96.612 53.7837C96.5797 54.5777 96.6154 55.374 96.5986 56.1692C96.2074 56.1269 95.6946 56.3293 95.4015 56.0068C95.3591 53.4901 95.397 50.97 95.377 48.4522ZM96.5128 48.9893C96.5106 50.1604 96.5084 51.3314 96.5106 52.5025C97.2296 52.5403 97.9508 52.5259 98.672 52.5259C99.7254 52.5303 100.652 51.4782 100.481 50.4329C100.345 49.8323 99.9628 49.2473 99.3597 49.0371C98.4357 48.7469 97.4547 48.8703 96.5128 48.9893Z" fill="#525253"/>
<path d="M110.87 48.2231C110.843 48.0663 110.895 47.9429 111.022 47.8517C111.356 47.8261 111.697 47.8183 112.032 47.8628C112.334 48.1019 112.548 48.43 112.781 48.7325C113.646 49.9091 114.575 51.0368 115.395 52.2456C115.895 52.8873 116.315 53.6102 116.965 54.1185C116.998 52.0277 116.969 49.9369 116.985 47.845C117.355 47.8394 117.727 47.8227 118.097 47.8572C118.15 50.603 118.101 53.3533 118.118 56.1014C117.663 56.1837 117.051 56.3305 116.731 55.8934C116.259 55.2817 115.79 54.6656 115.326 54.0484C114.78 53.201 114.127 52.4314 113.524 51.6251C113.073 51.0546 112.695 50.4084 112.104 49.9647C112.076 52.0032 112.092 54.0428 112.094 56.0813C111.694 56.2048 111.266 56.2137 110.867 56.0825C110.879 53.4634 110.868 50.8433 110.87 48.2231Z" fill="#525253"/>
<path d="M120.456 48.1074C120.428 47.905 120.66 47.8027 120.831 47.8372C122.52 47.855 124.21 47.8094 125.898 47.8605C125.937 48.1886 125.921 48.5189 125.922 48.8492C124.51 48.8681 123.096 48.8492 121.684 48.8603C121.653 49.7444 121.666 50.6297 121.673 51.5149C122.278 51.6528 122.901 51.6028 123.519 51.6084C124.215 51.6095 124.913 51.6084 125.611 51.6117C125.704 51.9464 125.682 52.2945 125.588 52.6271C124.283 52.6226 122.979 52.6248 121.676 52.6293C121.661 53.4422 121.662 54.2563 121.672 55.0693C122.353 55.2138 123.051 55.156 123.742 55.1649C124.467 55.1671 125.193 55.1605 125.92 55.1716C125.921 55.4841 125.921 55.7955 125.924 56.108C125.647 56.1658 125.364 56.1836 125.083 56.1803C124.042 56.1747 122.999 56.1792 121.959 56.1781C121.456 56.1725 120.942 56.2203 120.451 56.0813C120.463 53.4233 120.45 50.7654 120.456 48.1074Z" fill="#525253"/>
<path d="M128.045 48.0029C128.081 47.9651 128.152 47.8906 128.188 47.8528C129.268 47.8183 130.352 47.8505 131.433 47.8416C132.185 47.8238 132.972 48.0629 133.509 48.609C134.206 49.3007 134.358 50.3628 134.253 51.3003C134.142 51.8408 133.961 52.4013 133.553 52.7939C133.196 53.1565 132.715 53.3466 132.266 53.5624C132.874 54.3965 133.565 55.1716 134.123 56.0402C133.985 56.217 133.748 56.1714 133.554 56.1848C133.322 56.1658 133.039 56.237 132.869 56.0413C132.124 55.3095 131.645 54.3453 130.861 53.6513C130.326 53.5946 129.785 53.6347 129.249 53.6358C129.227 54.4243 129.276 55.2161 129.227 56.0046C128.97 56.3627 128.408 56.1303 128.033 56.0847C128.051 53.3911 128.021 50.6953 128.045 48.0029ZM129.25 48.9538C129.245 50.1426 129.235 51.3315 129.25 52.5203C130.006 52.5214 130.764 52.547 131.52 52.5136C132.051 52.418 132.577 52.1133 132.839 51.6284C133.116 51.1869 133.089 50.6342 133.009 50.1415C132.768 49.5087 132.169 48.8881 131.442 48.9449C130.711 48.9482 129.981 48.9471 129.25 48.9538Z" fill="#525253"/>
<path d="M156.018 48.1108C155.992 47.9106 156.225 47.8127 156.393 47.8405C157.437 47.8372 158.482 47.8394 159.527 47.8427C160.431 47.8272 161.358 48.2665 161.846 49.0394C162.254 49.7322 162.292 50.5663 162.236 51.3481C162.091 52.2167 161.509 53.0063 160.699 53.3666C159.844 53.7837 158.873 53.5824 157.96 53.6224C157.718 53.6513 157.402 53.5335 157.248 53.7792C157.226 54.5722 157.252 55.3673 157.237 56.1614C156.841 56.1314 156.345 56.3204 156.031 56.0213C155.998 53.3855 156.023 50.7465 156.018 48.1108ZM157.236 48.9571C157.233 50.1426 157.226 51.3292 157.241 52.5148C158.072 52.5136 158.903 52.537 159.734 52.5103C160.408 52.3924 161.032 51.9064 161.215 51.2291C161.461 50.6408 161.225 49.9613 160.822 49.5031C160.399 49.006 159.709 48.8414 159.083 48.8526C158.466 48.8692 157.839 48.7992 157.236 48.9571Z" fill="#525253"/>
<path d="M36.9502 49.0761C37.3147 48.679 37.7115 48.3109 38.0961 47.9317C38.1997 47.9339 38.4048 47.9395 38.5074 47.9417C38.8998 48.5956 39.1662 49.3118 39.5173 49.988C39.6589 50.2249 39.6488 50.504 39.6544 50.7709C39.3958 50.7565 39.135 50.7287 38.8986 50.6164C38.2042 50.3139 37.4897 50.057 36.8164 49.7078C36.8498 49.4987 36.7852 49.2429 36.9502 49.0761Z" fill="#525253"/>
<path d="M57.0565 49.809C57.3898 49.6877 57.7465 49.7078 58.0942 49.7333C57.9471 50.3083 57.5714 50.7776 57.2705 51.2781C57.0587 51.605 56.8781 51.9531 56.6329 52.2578C56.4813 52.3034 56.3297 52.3446 56.177 52.3802C55.7969 51.9153 55.4034 51.4582 55.0846 50.9489C54.9787 50.8043 55.0121 50.6164 55.0255 50.4518C55.6731 50.1537 56.3798 50.0214 57.0565 49.809Z" fill="#525253"/>
<path d="M29.028 50.7821C29.3579 50.6264 29.8049 50.7298 29.9309 51.1035C30.3467 52.2367 30.69 53.3956 31.0924 54.5333C31.2217 54.947 31.439 55.3573 31.3855 55.8033C31.1972 56.0936 30.807 55.9468 30.5651 55.8089C29.3791 55.1371 28.1875 54.4721 26.987 53.826C26.7752 53.6747 26.443 53.539 26.4642 53.2321C26.3917 52.8662 26.7685 52.6682 26.9881 52.4492C27.6747 51.9009 28.3068 51.2848 29.028 50.7821Z" fill="#525253"/>
<path d="M42.1452 50.9211C42.2856 50.6074 42.6925 50.7376 42.9021 50.9055C43.4706 51.3081 44.0625 51.6795 44.6109 52.1099C44.8249 52.2345 44.7837 52.4925 44.8071 52.7038C43.7894 52.8061 42.7795 53.0641 41.7506 52.9696C41.696 52.2634 41.9167 51.5783 42.1452 50.9211Z" fill="#525253"/>
<path d="M60.6918 51.6796C61.2157 51.4694 61.7129 51.1335 62.3003 51.1502C62.3327 51.6807 62.0562 52.1455 61.8612 52.6171C61.6616 53.0808 61.4654 53.5468 61.2302 53.9939C60.5692 54.0306 60.2014 53.4 59.7689 53.0074C59.6095 52.8239 59.4044 52.616 59.4724 52.3502C59.8101 52.021 60.2738 51.8775 60.6918 51.6796Z" fill="#525253"/>
<path d="M65.8192 51.6996C66.1949 51.4404 66.5895 51.0657 67.0855 51.218C67.0922 51.664 67.0877 52.1166 66.9707 52.5515C66.7165 53.5646 66.4657 54.5788 66.2551 55.602C66.177 55.9167 66.1001 56.2448 65.895 56.505C65.5929 56.5684 65.244 56.594 64.9921 56.3849C64.3311 55.9267 63.669 55.4708 63.0057 55.017C62.7951 54.838 62.4751 54.6634 62.4952 54.3464C62.4506 54.0561 62.7148 53.8615 62.9166 53.7047C63.8797 53.0308 64.8584 52.3769 65.8192 51.6996Z" fill="#525253"/>
<path d="M48.0667 51.436C48.5449 51.3159 49.0476 51.4038 49.5236 51.4994C50.5881 51.7541 51.6638 51.9576 52.7339 52.1912C52.9602 52.2468 53.1764 52.3368 53.3938 52.4214C53.3782 52.5826 53.3559 52.7428 53.3269 52.9018C52.9412 53.2221 52.4853 53.4401 52.0595 53.7014C51.1131 54.243 50.1879 54.8235 49.2327 55.3507C48.896 55.5464 48.4323 55.3974 48.3431 55.0037C48.1581 54.1118 48.0622 53.2054 47.8895 52.3113C47.8794 52.0199 47.788 51.6318 48.0667 51.436Z" fill="#525253"/>
<path d="M37.7493 52.5115C37.8619 52.5092 38.087 52.5048 38.1996 52.5026C38.7703 53.2933 39.4068 54.0551 39.8282 54.9403C39.3054 55.215 38.7425 54.957 38.2152 54.8447C37.7014 54.7401 37.1864 54.6223 36.6993 54.4232C36.6937 53.648 37.3748 53.1276 37.7493 52.5115Z" fill="#525253"/>
<path d="M33.6682 53.9583C33.8142 53.936 33.9603 53.936 34.1074 53.9583C34.4853 54.0283 34.56 54.6756 34.2055 54.8168C34.0483 54.8902 33.8555 54.8791 33.695 54.8202C33.3739 54.6645 33.4653 54.184 33.6682 53.9583Z" fill="#525253"/>
<path d="M57.2968 54.253C57.6234 54.1652 57.9746 54.1407 58.2911 54.282C58.2577 54.5044 58.3223 54.768 58.1518 54.9481C57.3147 56.0069 56.4697 57.06 55.6404 58.1243C55.4308 58.3568 55.2213 58.7004 54.8579 58.6359C54.5569 58.6604 54.4053 58.349 54.2582 58.1399C53.8513 57.437 53.4311 56.742 53.0175 56.0436C52.828 55.7589 52.9038 55.4085 52.9027 55.0905C53.1245 55.0104 53.3441 54.9214 53.5749 54.8692C54.8144 54.659 56.0595 54.4755 57.2968 54.253Z" fill="#525253"/>
<path d="M43.0718 54.6011C43.336 54.5811 43.6102 54.5955 43.8577 54.699C45.5342 55.3785 47.2274 56.0202 48.915 56.673C49.138 56.7886 49.4668 56.9332 49.4534 57.229C49.4947 57.546 49.1413 57.6817 48.9117 57.8018C47.2586 58.4624 45.5877 59.0774 43.9402 59.7513C43.4999 59.927 42.8745 60.016 42.5602 59.5723C42.4866 59.3231 42.5056 59.0585 42.5 58.8016C42.5089 57.6094 42.4922 56.4161 42.5067 55.225C42.4799 54.9158 42.7709 54.6167 43.0718 54.6011Z" fill="#525253"/>
<path d="M39.2325 56.5195C39.5368 56.2493 39.928 56.4706 40.2201 56.6374C40.2145 56.9488 40.2602 57.2713 40.1688 57.5749C39.8266 57.8374 39.2325 57.8507 38.9995 57.437C38.888 57.1267 38.8891 56.6863 39.2325 56.5195Z" fill="#525253"/>
<path d="M35.3988 57.3558C35.7276 57.338 36.0186 57.5838 36.2761 57.7695C37.6148 58.8827 38.9602 59.9893 40.309 61.0903C40.5386 61.3016 40.8095 61.534 40.8619 61.8576C40.6847 62.0845 40.4272 62.278 40.1295 62.2914C39.463 62.3225 38.7941 62.2847 38.1298 62.3648C37.3673 62.4471 36.5937 62.3503 35.8369 62.4882C35.3063 62.5449 34.7712 62.5382 34.2384 62.536C33.8639 62.546 33.5239 62.2246 33.4893 61.8565C33.4303 61.4762 33.5885 61.1092 33.71 60.7577C34.05 59.8313 34.3276 58.8849 34.662 57.9574C34.759 57.6205 35.0688 57.4192 35.3988 57.3558Z" fill="#525253"/>
<path d="M60.5055 57.566C61.3181 57.388 62.1218 57.0789 62.9701 57.1734C62.9444 57.4281 63.0091 57.7195 62.8397 57.9374C62.2087 58.8705 61.5611 59.7924 60.9358 60.73C60.7173 61.0447 60.5256 61.385 60.2491 61.6552C60.0975 61.8054 59.8489 61.7453 59.6572 61.742C59.4265 61.6141 59.3027 61.3694 59.1512 61.1659C58.7109 60.4897 58.2338 59.8392 57.799 59.1608C57.5861 58.8538 57.5928 58.2744 58.0253 58.1665C58.839 57.9174 59.6817 57.7806 60.5055 57.566Z" fill="#525253"/>
<path d="M31.3654 57.7039C31.5504 57.7206 31.7399 57.7184 31.9194 57.774C32.1067 57.9508 32.1245 58.2433 32.0231 58.4702C31.8871 58.6982 31.5816 58.6481 31.3621 58.6025C30.9987 58.3945 31.1926 57.9686 31.3654 57.7039Z" fill="#525253"/>
<path d="M49.6479 59.2297C49.9522 59.1274 50.3078 59.2987 50.4549 59.5745C50.4895 59.9026 50.5619 60.3897 50.1684 60.5254C49.8742 60.5465 49.4617 60.6488 49.2823 60.3419C48.9456 59.976 49.1875 59.3498 49.6479 59.2297Z" fill="#525253"/>
<path d="M53.5386 61.345C53.8953 61.2594 54.2721 61.3128 54.6377 61.2883C55.2664 61.2961 55.9129 61.2327 56.5215 61.4284C56.4067 62.069 55.7401 62.3848 55.3266 62.8252C54.942 63.0921 54.6388 63.6538 54.1238 63.616C53.7783 63.2923 53.7114 62.763 53.5096 62.3459C53.3993 62.0356 53.1395 61.5608 53.5386 61.345Z" fill="#525253"/>
<path d="M45.669 61.5974C46.0022 61.2482 46.5362 61.4161 46.9274 61.5641C48.2483 62.0845 49.6239 62.4671 50.9191 63.0532C50.9169 63.1733 50.9136 63.4135 50.9125 63.5336C50.0653 64.0163 49.1301 64.3076 48.2428 64.7036C47.652 64.9393 47.0813 65.2285 46.4771 65.4264C46.2408 65.4398 45.9209 65.5143 45.7749 65.2719C45.5731 65.0583 45.6634 64.7414 45.6366 64.4778C45.6556 63.518 45.5675 62.5516 45.669 61.5974Z" fill="#525253"/>
<path d="M42.8464 62.7741C43.0448 62.7107 43.2477 62.7685 43.4038 62.9008C43.4417 63.1511 43.5554 63.5915 43.2276 63.6771C42.9724 63.8406 42.7104 63.6426 42.5499 63.4469C42.4496 63.1655 42.5923 62.9042 42.8464 62.7741Z" fill="#525253"/>
<path d="M58.4477 65.6622C58.7688 65.5621 59.1277 65.6678 59.2994 65.9681C59.607 66.4463 59.0809 67.1058 58.5425 66.9857C57.8893 66.9178 57.8124 65.8302 58.4477 65.6622Z" fill="#525253"/>
</svg>
