<svg width="200" height="80" viewBox="0 0 200 80" fill="none" xmlns="http://www.w3.org/2000/svg">
<path d="M26.7581 31.2166C28.5973 29.8164 30.2998 27.539 32.8679 27.8702C35.6979 27.7191 36.9905 31.0481 36.6602 33.4765C36.2217 33.6799 35.3448 34.0807 34.9064 34.2841C34.075 33.4068 33.5227 32.3204 32.8964 31.2921C30.0037 32.4773 27.4869 34.4467 25.5794 36.9623C24.2412 38.8505 22.1913 40.8025 23.0056 43.3704C25.5964 44.4452 28.4151 45.1888 31.2223 44.7357C32.6572 44.5091 34.4452 43.8352 34.5875 42.1329C32.0992 42.2666 29.6962 43.0509 27.2022 43.0973C26.9687 42.6907 26.5018 41.8715 26.274 41.4648C26.4506 40.5934 26.6669 39.7277 26.9004 38.8737C30.7781 38.0894 34.7242 36.9623 38.693 37.2586C39.3535 38.5658 39.9343 39.9543 39.997 41.4474C39.6382 41.9877 39.2909 42.5396 38.9549 43.0973C38.1919 45.8221 37.6567 48.5991 37.7706 51.4458C37.5713 53.4792 34.9975 52.8866 33.8017 52.1546C33.7846 50.5628 33.8074 48.9767 33.8188 47.3907C29.5368 48.8257 24.2298 48.9477 20.7165 45.6536C19.8226 43.2077 19.6916 40.3087 20.745 37.8977C22.3565 35.3414 24.3266 33.0001 26.7581 31.2166Z" fill="#525253"/>
<path d="M44.0849 28.4861C45.6792 28.2014 47.3306 28.1549 48.8623 28.7533C51.214 29.3052 52.2788 31.7918 52.9393 33.9123C53.5201 36.5383 52.1934 39.0539 50.6673 41.064C51.5215 42.772 53.7479 43.353 54.9607 44.8461C54.9664 45.3399 54.9721 46.3276 54.9721 46.8272C54.1465 47.6115 53.5429 49.0814 52.1763 48.7967C51.0773 48.3784 50.3485 47.3907 49.5513 46.5716C48.3099 45.1773 46.7327 44.1722 45.3433 42.9521C45.0871 43.4227 44.8365 43.8933 44.5803 44.3639C44.6258 46.0894 45.3091 47.8788 44.4436 49.5055C43.9368 49.4822 42.929 49.4416 42.4222 49.4183C40.7139 47.8497 41.0271 45.4154 41.4883 43.353C41.5054 42.9115 41.5168 42.4641 41.5339 42.0226C40.5545 40.8839 40.2698 39.2223 41.2435 37.9791C43.0372 37.6421 42.9802 35.3938 43.5325 34.0169C43.0315 33.0873 42.183 32.1694 42.4108 31.0133C42.6841 30.0024 43.413 29.2413 44.0849 28.4861ZM47.08 32.6516C46.8978 34.2435 46.8181 35.8469 46.7327 37.4446C48.3156 36.6661 49.6196 35.144 49.1755 33.2326C48.4922 32.9944 47.8373 32.4947 47.08 32.6516Z" fill="#525253"/>
<path d="M99.3454 31.6639C100.758 29.8804 103.081 29.5899 105.142 29.1948C108.456 29.16 111.895 29.2239 115.044 30.3509C117.179 31.8556 117.128 34.7663 116.986 37.1308C118.313 35.4344 119.019 33.3778 119.901 31.4257C120.197 31.3153 120.79 31.083 121.08 30.9668C121.883 30.8564 122.686 30.7402 123.489 30.6066C125.726 29.9385 127.987 29.2703 130.293 28.8695C131.916 28.5151 132.132 30.502 132.707 31.5594C132.713 32.0706 132.719 33.0815 132.725 33.5927C129.371 34.9464 125.652 34.9696 122.247 36.2013C121.661 36.881 120.619 37.6944 121.023 38.7169C123.472 38.8912 125.92 38.223 128.09 37.0843C128.887 38.4845 130.356 40.9304 128.414 41.9993C125.282 42.9695 121.877 42.6849 118.745 43.7132C117.908 44.7705 119.514 45.2005 120.106 45.671C121.94 45.9906 123.625 44.7822 125.299 44.1605C127.036 45.52 127.19 49.0232 124.855 49.8191C121.678 51.4633 116.77 50.5628 115.226 46.9956C114.042 43.7422 115.807 40.5701 116.536 37.4504C114.287 39.3617 111.713 40.8083 108.838 41.4358C108.057 44.1431 107.926 46.9898 107.739 49.7901C107.368 49.9644 106.623 50.3246 106.252 50.5047C105.603 50.1213 104.937 49.7552 104.356 49.2672C103.935 47.1176 104.333 44.91 104.379 42.7372C103.73 42.2027 102.961 41.7611 102.528 41.0117C102.215 39.8033 102.608 38.5716 102.768 37.369C103.474 37.2528 104.18 37.125 104.886 37.003C104.994 35.9108 105.034 34.8128 105.022 33.7089C103.838 33.7438 102.682 34.0633 101.714 34.7779C100.678 34.7837 99.7098 34.4177 98.7304 34.1388C99.5788 38.1185 98.2863 42.133 98.7418 46.1416C98.7361 47.5534 99.0948 49.8308 97.3467 50.3072C96.4869 50.5163 95.6783 50.0806 94.8925 49.8191C94.7445 49.4706 94.4541 48.7792 94.3061 48.4306C94.1011 45.2992 91.943 42.8475 90.3087 40.3552C89.1699 43.0335 89.0446 45.9615 88.7827 48.8199C87.7407 48.907 86.6816 48.9884 85.6509 48.756C84.6715 48.0181 85.036 46.6761 85.0018 45.6129C85.1897 41.4997 87.399 37.4271 86.2374 33.3139C86.3171 32.0997 86.5335 30.897 86.71 29.6944C87.9457 28.6661 89.4375 29.0321 90.7301 29.7293C90.9977 31.4315 90.9807 33.1686 91.3166 34.8534C92.2448 36.7183 93.5544 38.3625 95.0121 39.8265C95.3025 37.857 95.2798 35.8643 95.4449 33.889C95.741 32.4715 95.741 31.0191 95.8833 29.5899C97.5574 29.0321 98.645 30.3277 99.3454 31.6639ZM108.393 33.1861C108.41 33.8484 108.428 34.5107 108.45 35.173C108.61 35.5274 108.917 36.2419 109.071 36.6021C110.517 36.2594 111.816 35.5274 112.92 34.5281C112.641 34.2667 112.368 34.0052 112.089 33.7496C110.859 33.5637 109.629 33.3603 108.393 33.1861Z" fill="#525253"/>
<path d="M57.5821 31.4664C61.1466 30.3916 64.8137 29.6248 68.4921 29.0322C69.574 30.014 70.1946 31.3735 70.6331 32.762C70.895 33.9181 69.4373 33.767 68.7768 34.0808C66.4137 34.4061 64.0962 34.958 61.7958 35.5971C61.5566 35.9631 61.084 36.7067 60.8505 37.0728C62.7979 38.4961 65.1325 36.7416 67.2849 36.9101C67.9113 38.2347 68.3611 39.6406 68.6401 41.0872C65.8158 42.0807 62.7581 41.6624 59.8825 42.4874C59.8199 42.9812 59.7516 43.475 59.6889 43.9746C61.3744 44.9042 63.2022 44.7473 64.8877 43.934C65.8272 45.0785 66.3966 46.4437 66.0664 47.9543C65.9069 48.2738 65.5938 48.907 65.44 49.2266C64.472 49.5635 63.4926 49.9005 62.4563 49.8424C59.9565 49.1046 57.2461 48.2912 55.9706 45.7175C55.5606 43.1206 55.6745 40.4133 56.9785 38.0778C57.8098 36.8171 56.5343 35.7481 56.0162 34.6792C56.0048 33.4417 56.2212 31.8905 57.5821 31.4664Z" fill="#525253"/>
<path d="M79.5547 29.7002C80.8928 29.3633 82.2822 29.3923 83.6317 29.6247C84.3434 30.8157 85.2944 32.0183 84.9869 33.5172C82.6352 33.7844 80.312 34.2434 77.9489 34.3712C76.3602 34.5339 75.3922 35.905 74.9538 37.3516C76.793 37.3341 78.6493 37.003 80.2266 35.9805C82.0999 36.5034 82.6807 38.6878 82.6067 40.4656C79.549 41.8773 76.1723 41.9064 72.921 42.4931C72.9039 42.9811 72.8868 43.4692 72.8754 43.963C74.931 44.8693 77.1175 44.5614 79.0251 43.4517C79.5148 44.1256 79.9589 44.8344 80.4145 45.5316C80.3404 46.5889 80.5511 47.8438 79.6913 48.6456C77.1289 49.9876 74.1281 49.4647 71.5088 48.5817C70.5579 46.8969 68.8325 45.3631 69.1173 43.2368C69.3963 41.2615 69.8119 39.2978 70.3016 37.3574C71.0931 35.5041 72.027 33.6682 72.0384 31.5884C74.4014 30.4264 77.0492 30.3393 79.5547 29.7002Z" fill="#525253"/>
<path d="M137.795 29.9965C138.461 29.1367 139.571 29.5782 140.454 29.7177C142.481 32.0764 142.828 35.1962 143.369 38.1591C145.214 34.6326 148.75 32.5179 152.48 31.6639C154.211 31.2979 156.625 30.5659 157.73 32.4831C159.507 34.5223 158.909 37.3574 157.582 39.443C156.278 39.6638 154.974 39.4372 153.869 38.6878C153.886 37.398 153.949 36.1083 153.938 34.8127C150.641 35.3356 148.386 38.1359 147.014 41.0349C149.075 43.2949 152.155 45.5316 155.327 44.4975C156.398 43.7364 157.696 43.0218 158.789 44.1895C158.618 41.215 159.905 38.4961 161.055 35.8527C161.044 34.6617 161.329 33.523 161.955 32.5121C166.824 31.0423 171.977 31.1004 176.879 29.8106C178.502 29.0321 179.208 31.0655 180 32.088C179.994 33.0408 179.989 33.9936 179.983 34.9464C175.12 34.714 170.2 35.1323 165.423 36.027C165.041 36.7706 164.677 37.52 164.335 38.2753C166.408 38.6065 168.498 38.4728 170.565 38.1823C171.715 38.4322 172.102 39.8207 172.535 40.7793C172.859 42.3595 171.607 43.6957 170.166 43.9688C170.975 45.3747 171.504 47.3442 170.314 48.692C168.532 49.6913 166.402 49.7843 164.409 49.8772C162.194 49.9179 160.395 48.3376 159.074 46.6877C158.049 48.0762 157.394 50.1445 155.435 50.3652C150.521 50.2839 145.909 47.1931 143.199 43.1089C142.561 45.4444 143.648 48.0181 142.327 50.1793C141.524 50.0864 140.727 49.9818 139.93 49.854C139.731 49.5635 139.332 48.9709 139.133 48.6804C139.082 47.1699 139.11 45.6594 139.059 44.1489C137.345 44.0792 135.591 44.2128 134.002 44.9274C132.488 46.2345 132.431 48.6049 130.865 49.9005C130.204 49.6681 129.55 49.4241 128.895 49.1742C128.28 48.0936 128.007 46.7342 128.758 45.6362C129.806 43.8816 130.723 42.0632 131.229 40.0705C133.86 37.0204 134.691 32.6922 137.795 29.9965ZM136.753 38.8156C137.493 38.8272 138.239 38.8098 138.979 38.7982C139.201 37.398 139.19 35.9747 138.877 34.5978C138.062 35.9456 137.396 37.3806 136.753 38.8156ZM162.758 44.5672C165.058 45.9383 167.718 44.8577 170.115 44.3987C168.987 44.1663 167.854 43.9688 166.727 43.7712C165.548 43.9688 164.347 44.0153 163.179 43.7364C163.037 44.0094 162.9 44.2883 162.758 44.5672Z" fill="#525253"/>
</svg>
