<svg width="200" height="80" viewBox="0 0 200 80" fill="none" xmlns="http://www.w3.org/2000/svg">
<path d="M34.0202 27.7358C37.7664 25.8727 42.5357 26.2347 45.9088 28.7312C47.8272 30.1897 49.2233 32.4679 49.1221 34.9378C47.5234 34.9272 45.9301 34.9325 44.3315 34.9165C43.5854 31.5471 39.4556 30.0087 36.5194 31.6056C33.8391 32.7447 33.0824 35.9173 32.9385 38.5468C32.7893 41.4692 32.8692 44.7002 34.6117 47.1861C35.6402 48.6765 37.4893 49.0119 39.1412 49.3472C40.4894 49.0119 42.0028 48.751 42.914 47.58C44.1663 46.3823 44.3954 44.6151 44.4594 42.9756C42.4024 42.949 40.3455 42.9543 38.2833 42.9649C38.278 41.5703 38.278 40.181 38.2673 38.7864C41.9708 38.8023 45.6743 38.7544 49.3832 38.8183C49.3725 43.6037 49.3725 48.3891 49.3778 53.1745C48.2481 53.1958 47.1131 53.2064 45.9834 53.2117C45.8502 52.2855 45.7223 51.3646 45.6157 50.4384C43.6707 53.3448 39.7647 53.9303 36.5461 53.3661C33.0291 53.0095 30.1462 50.2415 28.9739 47.0157C27.6576 43.9976 28.0626 40.6388 28.0467 37.4396C28.1319 33.474 30.3061 29.4019 34.0202 27.7358Z" fill="#525253"/>
<path d="M125.836 27.0385C130.904 27.3206 136.152 26.3465 141.087 27.8103C145.936 29.4445 147.002 37.0458 142.451 39.6274C143.613 40.4259 144.641 41.4213 145.339 42.6615C145.51 43.2258 145.691 43.79 145.894 44.3489C146.176 46.7283 145.521 49.2621 143.789 50.9761C142.579 52.1312 140.927 52.589 139.355 53.0201C134.863 53.3874 130.344 53.1266 125.836 53.2011C125.836 44.482 125.841 35.7629 125.836 27.0385ZM130.68 31.3342C130.69 33.4527 130.69 35.5713 130.68 37.6898C133.445 37.5674 136.355 38.1476 138.998 37.1096C141.167 35.7629 140.538 31.8718 137.943 31.4406C135.534 31.1585 133.099 31.3661 130.68 31.3342ZM130.674 41.8631C130.696 44.1626 130.68 46.4622 130.69 48.7564C132.891 48.7724 135.092 48.7511 137.298 48.7724C138.742 48.5594 140.005 47.8355 140.805 46.6006C140.778 45.6265 140.751 44.6523 140.698 43.6836C139.979 43.0235 139.366 42.0228 138.3 41.9429C135.769 41.714 133.216 41.8844 130.674 41.8631Z" fill="#525253"/>
<path d="M148.801 31.4194C148.817 29.8225 148.811 28.2309 148.811 26.6393C150.522 26.6074 152.233 26.6127 153.943 26.6234C153.938 28.2309 153.938 29.8438 153.954 31.4513C152.238 31.4673 150.517 31.4833 148.801 31.4194Z" fill="#525253"/>
<path d="M57.6271 36.556C58.8154 33.9744 61.9221 33.5485 64.4479 33.639C64.4852 35.2093 64.4639 36.7743 64.5119 38.3446C62.9719 38.2062 61.24 38.0678 59.9451 39.0791C58.9166 39.9947 58.1226 41.3042 58.128 42.7148C58.096 46.212 58.1333 49.7092 58.1173 53.2064C56.5027 53.2011 54.8881 53.2011 53.2734 53.2011C53.2788 46.7762 53.2788 40.3567 53.2734 33.9318C54.6376 33.9318 56.0018 33.9318 57.366 33.9531C57.4512 34.8207 57.5471 35.6884 57.6271 36.556Z" fill="#525253"/>
<path d="M113.115 33.5858C114.916 33.5326 116.877 33.2877 118.459 34.3683C120.053 35.2093 120.793 36.9021 121.369 38.5096C121.406 43.4015 121.369 48.2986 121.39 53.1905C119.824 53.2064 118.252 53.2011 116.68 53.2011C116.616 48.8096 116.829 44.4075 116.578 40.0267C116.328 38.3659 114.585 37.8602 113.152 37.791C111.772 38.4617 110.472 39.5103 110.179 41.1072C109.416 45.0888 109.896 49.1769 109.768 53.2011C108.191 53.2011 106.619 53.2064 105.047 53.1905C105.052 46.7762 105.052 40.362 105.047 33.9478C106.427 33.9318 107.807 33.9318 109.187 33.9318C109.23 34.4268 109.31 35.4223 109.347 35.9173C110.477 34.9485 111.676 34.0383 113.115 33.5858Z" fill="#525253"/>
<path d="M68.7006 35.1081C72.0044 32.6648 77.2213 32.9097 80.0989 35.9331C82.4329 38.3338 82.8379 41.847 82.6194 45.0408C78.3457 45.0355 74.072 45.0248 69.7983 45.0461C69.9795 46.5153 70.3525 48.2666 71.7646 49.0544C73.667 50.2414 77.0828 49.8741 77.5411 47.2711C79.0971 47.202 80.6478 47.2073 82.2038 47.2552C81.6869 49.757 80.0723 52.1364 77.5837 52.9987C74.2585 54.0899 70.1767 53.6534 67.6668 51.0239C63.7981 46.6111 64.0272 38.8608 68.7006 35.1081ZM69.8036 41.5649C72.4894 41.5808 75.1751 41.5968 77.8608 41.5542C77.9514 38.9992 75.7399 36.9072 73.1661 37.2266C71.301 37.892 69.7397 39.4783 69.8036 41.5649Z" fill="#525253"/>
<path d="M85.9558 37.4024C88.8067 32.3455 97.2102 32.106 100.328 37.0085C102.043 39.3187 101.995 42.3102 101.846 45.0409C97.6365 45.0303 93.4268 45.0303 89.217 45.0409C89.249 46.888 90.1709 48.8256 92.0093 49.4803C93.9383 50.3852 96.4589 49.326 97.0077 47.218C98.5264 47.2234 100.045 47.218 101.559 47.2393C101.1 50.0286 99.022 52.6103 96.1924 53.233C94.3806 53.4673 92.5209 53.4726 90.7091 53.2384C87.6077 52.4399 85.4336 49.5761 84.7142 46.5633C84.3785 43.4919 84.2346 40.1225 85.9558 37.4024ZM89.638 39.5316C89.4302 40.1757 89.2117 40.8145 88.9879 41.4532C91.7269 41.7087 94.4872 41.5384 97.2369 41.5597C96.9651 40.1491 96.6773 38.451 95.2013 37.7963C93.2722 36.5986 90.6451 37.5994 89.638 39.5316Z" fill="#525253"/>
<path d="M149.084 33.9318C150.704 33.9318 152.324 33.9318 153.949 33.9424C153.944 40.362 153.933 46.7815 153.955 53.2011C152.329 53.2011 150.704 53.2011 149.084 53.2064C149.089 46.7815 149.089 40.3566 149.084 33.9318Z" fill="#525253"/>
<path d="M157.291 33.9423C162.471 33.9157 167.645 33.9423 172.819 33.9317C172.825 35.4487 172.846 36.9658 172.761 38.4829C169.361 41.8257 166.452 45.6423 163.062 49.0065C166.265 49.1023 169.473 49.1023 172.676 49.0118C173.145 50.3425 172.942 51.7638 173.001 53.1424C167.762 53.2755 162.53 53.1744 157.291 53.1957C157.297 51.7691 157.302 50.3372 157.275 48.9106C160.505 45.1899 163.846 41.5702 167.096 37.8654C163.824 37.8281 160.558 37.8654 157.291 37.8388C157.297 36.54 157.297 35.2411 157.291 33.9423Z" fill="#525253"/>
</svg>
