<svg width="170" height="80" viewBox="0 0 170 80" fill="none" xmlns="http://www.w3.org/2000/svg">
<path d="M103.129 3.40049C104.893 2.71842 106.557 1.77911 108.38 1.25684C108.55 1.88434 108.698 2.51964 108.841 3.15494C99.5997 6.53022 90.1411 9.36374 80.5391 11.4996C88.1943 9.17666 95.741 6.48345 103.129 3.40049Z" fill="#525253"/>
<path d="M54.0802 17.9578C72.6599 15.5647 91.0768 11.6321 108.819 5.55188C109.311 7.33306 109.187 9.20388 109.451 11.0201C109.664 13.4639 109.978 15.8999 110.172 18.3475C110.494 21.6059 110.824 24.872 111.111 28.1343C112.433 28.1265 114.012 28.602 114.438 30.0246C115.33 32.5502 113.76 35.029 112.007 36.7206C112.798 43.6543 114.035 50.5413 115.761 57.2996C116.079 58.6287 116.738 59.9032 116.656 61.2985C99.4534 63.1265 82.4481 66.8058 65.9625 72.0597C64.0855 72.6209 62.3016 73.4823 60.3742 73.8915C60.7465 68.5947 60.1958 63.3019 59.7886 58.0246C59.0945 51.9951 58.4119 45.9695 57.5355 39.9672C57.4463 39.901 57.2718 39.7685 57.1826 39.7022C55.581 40.1231 53.7777 40.7468 52.176 40.0062C51.0592 39.5814 51.0165 37.9717 51.7378 37.1688C52.5755 36.2568 53.7854 35.867 54.8596 35.3214C53.0292 29.7557 51.222 24.1042 48.1816 19.0647C48.7517 18.8113 49.3257 18.5814 49.9113 18.3631C52.5095 23.7729 53.7932 29.6738 55.4607 35.4032L55.8873 34.8576C56.0774 35.0641 56.2674 35.2668 56.4574 35.4695C55.5538 35.5279 54.7123 35.8709 53.8746 36.1827C53.0098 36.7518 51.4586 37.3013 51.8154 38.607C54.5533 39.4956 57.3145 37.9561 59.9903 37.4455C60.4867 39.5775 60.5526 41.7952 61.1886 43.896C62.3288 44.1727 63.9304 44.1922 64.7293 43.2957C64.5082 41.0235 63.9886 38.7902 63.6822 36.5296C64.8495 36.2178 66.0207 35.9177 67.1957 35.6254C67.4439 37.6521 67.8279 39.6632 68.142 41.6822C68.1536 42.2785 68.6345 42.6527 69.0184 43.0346C69.8018 42.8241 70.5968 42.6371 71.353 42.3292C70.6511 39.9517 70.0926 37.5274 69.7126 35.0758C71.066 34.9316 72.4078 34.7211 73.7458 34.4834C72.8693 35.715 71.7563 36.9973 71.702 38.5836C71.5857 39.8542 72.6909 41.156 73.9978 41.0235C75.487 40.8091 76.7435 39.8425 77.6742 38.7005C78.3529 40.1621 80.0127 40.8169 81.5019 40.2284C80.9008 39.6165 80.2454 38.9461 80.1911 38.0341C80.129 36.4088 80.703 34.8342 80.6603 33.205C79.6288 33.1972 78.7678 33.7584 77.9302 34.2885C77.236 36.4049 76.3906 38.8292 74.2344 39.8503C74.0831 36.627 76.8521 34.1716 79.3767 32.6321C76.1036 32.2033 72.8111 33.0335 69.5962 33.5986C69.383 31.2328 69.3093 28.8436 69.5613 26.4778C69.7048 25.7373 68.8672 25.4411 68.2893 25.6827C67.4827 25.8308 66.7149 26.1387 65.9625 26.4622C66.932 28.8943 66.6024 31.607 67.0057 34.1638C65.8268 34.4834 64.6401 34.7835 63.4573 35.0797C63.0656 32.2891 62.8174 29.4789 62.6507 26.6649C60.8629 26.3414 59.1914 27.2963 57.7953 28.3097C58.1444 28.715 58.7493 29.0112 58.7726 29.6192C59.079 31.151 59.3 32.7022 59.5909 34.2378C59.1333 34.5146 57.8031 34.386 58.377 35.2122C58.7842 35.1343 59.1914 35.0407 59.5909 34.9355C59.7033 35.2824 59.8119 35.6332 59.9244 35.9839C58.1211 36.4906 56.2945 37.1961 54.3904 37.1025C55.1583 36.1827 57.1128 36.3425 57.1981 34.9628L56.5388 35.4461C56.7405 34.1443 56.3721 32.8659 56.1084 31.6031C55.2824 27.2262 54.2896 22.8414 52.5561 18.7334C52.5367 17.9227 53.5838 18.1605 54.0802 17.9578ZM87.0165 25.3241C87.4624 25.8659 87.9976 26.3804 88.1915 27.0819C89.2425 30.3286 89.8164 33.7312 89.9715 37.1376L90.084 37.3598C90.1073 37.9639 90.1422 38.568 90.1809 39.1721C91.3909 39.9828 92.6745 38.9812 93.6945 38.3108C95.2457 37.087 96.7116 35.6488 97.6307 33.8676C98.0689 32.9945 98.2589 31.6187 97.2584 31.0574C95.6296 30.1298 93.7914 31.0302 92.3216 31.8447C92.1355 29.9116 91.9998 27.9628 91.5615 26.0647C91.4258 25.4606 91.0807 24.7044 90.371 24.6733C89.2153 24.5992 88.1139 25.024 87.0165 25.3241ZM101.745 31.19C100.799 29.8414 99.0035 29.9583 97.9099 31.0535C98.4955 31.4355 99.5581 31.4979 99.6744 32.3553C99.8179 34.2495 99.1005 36.0658 98.8484 37.9249C99.2789 38.5524 100.089 38.1705 100.71 38.1471C101.257 37.96 102.125 38.1276 102.335 37.4299C102.436 35.8592 102.362 34.2768 102.218 32.7139C103.029 31.4784 104.588 29.7401 106.096 31.0808C106.841 30.4572 107.124 29.5803 106.969 28.6254C104.797 27.9628 103.025 29.6738 101.745 31.19ZM110.529 28.7696C107.888 29.3542 105.747 31.3965 104.724 33.8715C104.274 35.0953 104.39 36.9973 105.969 37.2468C109.66 37.6482 113.705 34.5574 113.725 30.7067C113.701 29.0736 111.91 28.3954 110.529 28.7696ZM83.4564 31.5368C82.2465 32.5814 80.8503 34.1521 81.3972 35.8748C82.421 37.3949 84.7051 36.5452 85.9616 37.7223C86.3378 38.4433 85.853 39.2111 85.3954 39.7568C84.4376 40.8949 83.406 42.1382 81.9323 42.5864C81.2653 42.4695 80.5983 42.3525 79.9351 42.2278C80.5052 43.7401 82.1379 45.3264 83.8403 44.4455C86.458 43.3308 88.8236 41.0274 89.4131 38.1588C89.0214 36.3698 86.9428 36.4361 85.5544 35.9762C84.9184 35.793 83.8675 35.4773 84.0769 34.5964C84.7711 32.671 87.0242 32.1293 88.7965 31.7161C88.5948 30.9249 88.3234 29.7907 87.3267 29.7284C85.853 29.7401 84.5966 30.7028 83.4564 31.5368ZM94.9005 41.1365C88.9128 47.4194 79.3767 49.6604 71.1126 47.3687C71.4771 50.3971 73.292 53.1059 75.743 54.852C79.7218 57.6816 84.9107 58.8119 89.6768 57.7089C92.4186 57.019 94.9975 55.3898 96.5216 52.9578C98.7127 49.6877 98.6778 45.4472 97.9487 41.7211C97.1537 42.0875 97.6035 42.9995 97.5492 43.6699C97.8479 47.6844 96.5448 52.2328 92.977 54.4661C89.32 56.6371 84.6702 56.793 80.7844 55.1365C78.3917 54.0647 75.9136 52.6304 74.7385 50.1593C80.8038 50.5023 87.191 49.146 91.992 45.2406C94.0357 43.6037 96.0756 41.7133 97.0451 39.2111C96.1066 39.5619 95.6063 40.4817 94.9005 41.1365Z" fill="#525253"/>
<path d="M109.746 30.3481C110.091 30.0363 110.956 30.0597 110.777 30.7495C110.867 32.8737 109.664 34.9511 107.892 36.0736C107.741 35.9255 107.438 35.6332 107.287 35.489C107.392 33.5675 108.183 31.5329 109.746 30.3481Z" fill="#525253"/>
<path d="M92.4824 33.0336C93.1843 32.64 94.4021 31.8916 94.7743 33.0765C95.0768 34.7407 94.0918 36.2881 93.006 37.4456C92.7965 35.9763 92.6182 34.5069 92.4824 33.0336Z" fill="#525253"/>
<path d="M114.023 44.2077C113.627 42.2863 113.03 40.3881 113.123 38.4043C113.449 41.4366 114.62 44.2701 115.376 47.1972C116.675 51.313 118.067 55.4054 119.785 59.3653C120.072 59.9538 120.208 60.593 120.177 61.2478C119.704 61.3375 119.235 61.4232 118.762 61.5051C116.811 55.8497 115.275 50.058 114.023 44.2077Z" fill="#525253"/>
<path d="M59.9941 76.2184C69.0765 72.6599 78.4614 69.9511 87.8851 67.4645C80.1988 70.185 72.4621 72.8002 65.0201 76.1599C63.3448 76.7913 61.8362 77.8436 60.0795 78.2568C60.0446 77.5747 60.0135 76.8965 59.9941 76.2184Z" fill="#525253"/>
</svg>
