<svg width="200" height="80" viewBox="0 0 200 80" fill="none" xmlns="http://www.w3.org/2000/svg">
<path d="M119.713 22.2011C121.462 20.4051 123.933 19.5422 126.327 19.0004C128.188 18.875 130.053 18.9854 131.913 18.9453C132.952 18.9703 134.106 18.7697 134.993 19.462C136.274 19.5523 137.544 19.7279 138.784 20.084C138.28 22.2111 138.104 24.3933 137.615 26.5254C134.267 25.7629 130.799 25.5722 127.366 25.7027C126.443 26.2595 125.198 26.711 124.971 27.905C124.316 30.1775 124.654 32.5755 124.568 34.9032C124.679 37.6975 124.326 40.5269 124.805 43.296C125.39 46.1455 129.04 46.4064 131.359 45.8947C133.073 45.8044 134.787 45.6739 136.496 45.5234C136.778 45.4432 137.343 45.2877 137.63 45.2124C138.064 47.3445 138.351 49.5016 138.769 51.6337C133.804 52.5768 128.525 53.3996 123.595 51.8544C119.985 50.7859 117.213 47.2191 117.374 43.4315C117.394 38.2242 117.354 33.0169 117.389 27.8097C117.354 25.7177 118.367 23.7512 119.713 22.2011Z" fill="#525253"/>
<path d="M32 19.5674C34.4703 19.4871 36.9456 19.5373 39.4158 19.5623C39.4108 23.8917 39.4158 28.2211 39.4108 32.5504C42.9548 32.5504 46.4989 32.5605 50.0429 32.5404C50.0934 28.2211 50.0631 23.8967 50.0581 19.5724C52.5031 19.5172 54.9532 19.4971 57.3983 19.5924C57.3882 30.4485 57.3932 41.2995 57.3932 52.1555C54.9482 52.1956 52.5031 52.1806 50.0581 52.1705C50.0782 47.801 50.0581 43.4265 50.0682 39.057C46.514 39.062 42.9599 39.052 39.4057 39.0671C39.4208 43.4365 39.4057 47.806 39.4158 52.1806C36.9405 52.1755 34.4703 52.1906 32 52.1655C32.005 41.2995 32.005 30.4334 32 19.5674Z" fill="#525253"/>
<path d="M71.1576 19.5572C74.4546 19.5472 77.7567 19.487 81.0537 19.5923C83.9172 29.445 87.1235 39.1974 89.9971 49.045L90.2088 49.336C90.2642 49.632 90.3852 50.229 90.4457 50.5249C90.5919 50.9363 90.8793 51.749 91.0255 52.1553C88.4645 52.1955 85.9085 52.1754 83.3475 52.1704C83.0854 51.2273 82.8131 50.2791 82.5863 49.326C82.2132 48.1571 81.9107 46.9732 81.578 45.7942C77.9432 45.8243 74.3084 45.8394 70.6786 45.7842C69.9225 47.8561 69.3477 49.9831 68.8739 52.1353C66.2876 52.2105 63.7014 52.1955 61.1152 52.1453C63.2931 45.2675 65.3248 38.3495 67.4976 31.4717C67.5732 31.1757 67.7194 30.5888 67.79 30.2928C68.9948 26.741 69.9275 23.0989 71.1576 19.5572ZM75.72 26.9166C75.6746 27.1624 75.5839 27.6541 75.5385 27.8949C74.3084 31.7727 73.4312 35.7509 72.1911 39.6238C74.7218 39.8445 77.2677 39.7091 79.8085 39.7241C78.7952 35.46 77.3635 31.3062 76.4459 27.022C76.2645 26.9969 75.9015 26.9417 75.72 26.9166Z" fill="#525253"/>
<path d="M89.694 19.5523C98.0021 19.5121 106.31 19.5021 114.618 19.5623C114.608 21.7395 114.608 23.9167 114.618 26.094C111.704 26.094 108.796 26.0889 105.887 26.094C105.856 34.7828 105.912 43.4716 105.856 52.1604C103.401 52.1905 100.946 52.1805 98.4911 52.1655C98.5113 43.4766 98.4911 34.7828 98.5012 26.0889C95.5671 26.099 92.6381 26.0889 89.704 26.094C89.6839 23.9117 89.6889 21.7295 89.694 19.5523Z" fill="#525253"/>
<path d="M143.738 19.5623C146.158 19.5472 148.573 19.5573 150.988 19.5573C151.401 23.8666 151.048 28.221 151.184 32.5504C154.708 32.5353 158.227 32.5805 161.751 32.5253C161.766 28.211 161.786 23.8967 161.736 19.5773C164.156 19.5322 166.576 19.5673 169 19.5522C169 30.4283 169 41.3044 169 52.1805C166.591 52.1755 164.181 52.1855 161.771 52.1705C161.756 47.811 161.781 43.4515 161.766 39.0971C158.237 39.0168 154.708 39.077 151.174 39.057C151.174 43.4164 151.164 47.7759 151.174 52.1303C148.694 52.2206 146.214 52.1654 143.738 52.1805C143.743 41.3044 143.738 30.4333 143.738 19.5623Z" fill="#525253"/>
<path d="M168.072 54.2122C168.303 54.2022 168.767 54.1871 168.999 54.1821C168.999 57.0868 168.999 59.9864 168.999 62.891C167.562 62.7506 165.959 63.2271 164.643 62.5399C164.185 60.6988 163.963 58.4112 165.001 56.7055C166.03 56.7055 167.053 56.6854 168.082 56.7105C168.077 55.8778 168.072 55.045 168.072 54.2122ZM165.001 57.7189C165.042 59.2038 165.032 60.6937 165.047 62.1787C165.989 62.3091 166.942 62.2238 167.88 62.0733C168.182 60.5232 168.072 58.9429 168.061 57.3827C167.023 57.2874 165.914 57.0717 165.001 57.7189Z" fill="#525253"/>
<path d="M107.812 54.167L108.473 54.2422C108.478 55.1603 108.478 56.0733 108.488 56.9914C108.886 56.8659 109.683 56.6201 110.081 56.4947C109.98 56.871 109.779 57.6235 109.678 57.9997L109.648 57.2021L108.523 57.8191C108.417 59.289 108.483 60.7639 108.493 62.2338C109.481 62.1535 110.822 62.6501 111.462 61.6267C111.619 60.3074 111.644 58.9479 111.422 57.6285L110.278 57.4328C110.671 57.1519 111.064 56.876 111.462 56.6051C112.773 58.1402 112.415 60.3074 111.982 62.1083C111.059 63.4377 109.189 62.7103 107.823 62.8658C107.807 59.9662 107.823 57.0666 107.812 54.167Z" fill="#525253"/>
<path d="M161.552 54.2374L162.343 54.1873C162.338 57.0668 162.338 59.9464 162.343 62.8209C162.147 62.8059 161.749 62.7657 161.547 62.7507C161.567 59.9112 161.562 57.0768 161.552 54.2374Z" fill="#525253"/>
<path d="M125.523 55.1957C125.684 55.2057 126.007 55.2208 126.168 55.2308C126.173 55.592 126.173 56.3094 126.178 56.6706C126.894 56.7007 127.61 56.7559 128.331 56.8261C127.801 57.4682 126.919 57.3328 126.183 57.4331C126.183 59.0284 126.178 60.6187 126.183 62.214C126.929 62.2992 127.685 62.3645 128.431 62.4798C127.559 62.9915 126.556 62.8661 125.593 62.7859C125.452 60.9899 125.507 59.1839 125.502 57.3879C124.182 57.2224 122.851 57.2726 121.53 57.3879C121.505 59.0434 121.479 60.704 121.58 62.3645C121.989 62.3293 122.8 62.2591 123.204 62.224C123.209 62.3996 123.214 62.7457 123.214 62.9213C122.422 62.8009 121.469 63.0969 120.829 62.4949C120.577 60.8043 120.769 59.0786 120.703 57.3779C120.401 57.3729 119.796 57.3629 119.493 57.3579L119.463 56.7258C119.78 56.7157 120.421 56.7057 120.738 56.7007C120.723 56.4097 120.698 55.8328 120.683 55.5418C120.9 55.5418 121.328 55.5368 121.54 55.5318C121.53 55.8278 121.51 56.4197 121.5 56.7157C122.831 56.7107 124.166 56.6856 125.497 56.6906C125.502 56.3144 125.518 55.5669 125.523 55.1957Z" fill="#525253"/>
<path d="M98.8982 56.7055C100.279 56.8059 102.104 56.2139 102.901 57.7289C102.851 59.4396 102.886 61.1553 102.846 62.866C101.681 62.866 100.511 62.9763 99.3569 62.8108C98.4545 62.5299 98.5554 61.4262 98.3789 60.6887C99.1351 59.2791 100.784 59.5801 102.125 59.565C102.084 58.8025 102.029 58.045 101.958 57.2875C100.92 57.2323 99.8863 57.2574 98.8578 57.3426C98.8679 57.1821 98.8881 56.8661 98.8982 56.7055ZM99.3721 60.2774C99.3468 60.769 99.2964 61.7523 99.2712 62.2439C100.143 62.2188 101.021 62.1687 101.893 62.0884C101.983 61.4814 102.069 60.8794 102.16 60.2774C101.227 60.2674 100.3 60.2674 99.3721 60.2774Z" fill="#525253"/>
<path d="M114.955 56.6855C116.422 56.4798 118.105 56.6403 118.468 58.356C118.483 58.8527 118.478 59.3543 118.448 59.856C117.163 59.8861 115.882 59.8861 114.597 59.8911C114.607 60.6185 114.622 61.351 114.647 62.0784C115.796 62.4596 116.971 62.3392 118.126 62.0583C118.131 62.2439 118.151 62.6152 118.161 62.8058C116.79 62.7055 114.551 63.5232 114.007 61.7573C114.017 60.0617 113.296 57.8343 114.955 56.6855ZM115.181 57.3577C114.763 57.9045 114.506 58.5266 114.41 59.2189C115.514 59.2389 116.618 59.2389 117.727 59.2339C117.642 58.7523 117.475 57.7942 117.389 57.3126C116.648 57.2423 115.912 57.2574 115.181 57.3577Z" fill="#525253"/>
<path d="M130.372 56.7357C131.113 56.7206 131.849 56.7106 132.59 56.7106C132.862 56.8962 133.406 57.2674 133.679 57.448C133.724 58.2707 133.739 59.0935 133.744 59.9212C132.489 59.846 131.234 59.841 129.978 59.851C130.034 60.4279 130.145 61.5868 130.2 62.1637C131.425 62.4245 132.655 62.2339 133.885 62.1586C133.013 63.483 131.108 62.7305 129.802 62.6603C129.081 61.0299 129.081 59.1838 129.585 57.4932C129.782 57.3025 130.175 56.9213 130.372 56.7357ZM129.913 59.3142C131.022 59.3443 132.131 59.3794 133.24 59.3543C133.028 58.5266 133.265 57.0517 131.96 57.2373C130.598 56.836 129.767 58.0901 129.913 59.3142Z" fill="#525253"/>
<path d="M135.735 62.7908C135.785 60.6587 135.619 58.5116 135.856 56.3895C136.048 58.3159 137.459 56.8009 138.331 56.5701C138.321 57.6537 137.071 57.8494 136.421 58.4764C136.31 59.9212 136.39 61.3761 136.315 62.8259L135.735 62.7908Z" fill="#525253"/>
<path d="M142.974 62.7958C142.727 60.5935 141.659 58.4414 141.956 56.209C142.798 57.8946 142.949 59.8059 143.519 61.5868C144.976 60.1972 144.21 57.3628 146.161 56.505C146.75 58.0852 147.199 59.7106 147.527 61.3611H148.212C148.525 59.8159 148.913 58.2909 149.276 56.7608C149.448 56.7508 149.785 56.7357 149.957 56.7257C149.443 58.7324 148.969 60.744 148.601 62.7808C148.217 62.831 147.839 62.8811 147.461 62.9313C146.982 61.2206 146.428 59.53 146.024 57.7942C144.779 59.1638 144.799 61.2306 144.159 62.9213C143.761 62.8761 143.368 62.836 142.974 62.7958Z" fill="#525253"/>
<path d="M152.326 56.7156C153.118 56.7006 153.904 56.6855 154.701 56.6855C156.173 57.9397 155.976 60.0316 155.653 61.7373C155.058 63.1219 153.259 63.0818 152.039 62.7055C151.126 62.3995 151.308 61.2256 150.869 60.5383C150.915 59.4848 151.02 58.4263 151.328 57.413C151.58 57.2424 152.079 56.8912 152.326 56.7156ZM151.701 59.9965C151.766 60.754 151.646 61.7674 152.452 62.1838C153.234 62.4346 154.05 62.2089 154.842 62.1386C155.109 60.5534 155.124 58.918 154.791 57.3377C154.025 57.2574 153.259 57.2474 152.492 57.2976C151.595 57.8845 151.716 59.0685 151.701 59.9965Z" fill="#525253"/>
<path d="M157.523 56.4397C158.259 58.025 159.58 56.6855 160.739 56.8159C159.993 57.4129 159.187 57.9347 158.38 58.4413C158.345 59.8962 158.355 61.346 158.36 62.8008L157.508 62.7155C157.715 60.6286 157.785 58.5266 157.523 56.4397Z" fill="#525253"/>
</svg>
