<svg width="200" height="80" viewBox="0 0 200 80" fill="none" xmlns="http://www.w3.org/2000/svg">
<path d="M98.9911 8.04847C105.261 7.67946 111.616 9.30095 117.016 12.494C122.338 15.6241 126.722 20.3127 129.508 25.8219C131.896 30.5453 133.113 35.8591 132.992 41.1511C132.872 48.2644 130.311 55.3082 125.838 60.8413C119.601 68.7034 109.554 73.3725 99.5163 72.9731C101.743 66.8866 103.946 60.7913 106.171 54.7048C109.205 54.7026 112.241 54.7048 115.275 54.7048C116.538 54.7156 117.726 54.034 118.539 53.1007C119.134 52.4451 119.353 51.5682 119.659 50.7607C121.914 44.5504 124.178 38.3445 126.437 32.1342C126.917 30.7493 126.926 29.0475 125.964 27.8623C125.083 26.7466 123.601 26.2712 122.22 26.3016C118.019 26.3038 113.817 26.2886 109.615 26.3103C104.089 41.5874 98.5179 56.8494 92.9488 72.1114C86.2966 70.5311 80.1762 66.7845 75.7596 61.5619C70.9197 55.9269 68.1199 48.5792 68.0071 41.1511C67.8595 35.0016 69.5285 28.8239 72.7406 23.5796C76.402 17.543 82.0905 12.7675 88.6732 10.2083C89.6629 9.8371 90.6526 9.44855 91.6922 9.24234C86.2359 24.411 80.6776 39.5427 75.1714 54.6939C77.4676 54.7091 79.7639 54.7156 82.0601 54.6917C84.9575 46.6451 87.9114 38.618 90.8284 30.58C92.5516 30.5778 94.2749 30.5626 95.9981 30.5887C93.1289 38.6375 90.1295 46.6429 87.2581 54.6917C89.5326 54.7221 91.805 54.6874 94.0795 54.7113C96.6275 47.8216 99.1083 40.9059 101.63 34.0053C102.123 32.6009 102.839 31.1813 102.592 29.6466C102.392 27.756 100.571 26.4167 98.7502 26.3255C96.6427 26.2625 94.5331 26.3255 92.4257 26.2929C94.5375 20.1847 96.8685 14.1524 98.9911 8.04847Z" fill="#525253"/>
<path d="M114.963 30.5713C116.695 30.5583 118.427 30.5583 120.159 30.5713C117.732 37.1897 115.354 43.8254 112.901 50.4351C111.176 50.4133 109.448 50.4524 107.723 50.4133C110.156 43.8058 112.547 37.1853 114.963 30.5713Z" fill="#525253"/>
</svg>
