<svg width="200" height="80" viewBox="0 0 200 80" fill="none" xmlns="http://www.w3.org/2000/svg">
<path d="M152.135 23.6943C155.601 22.6821 159.338 22.6547 162.804 23.6889C166.992 25.0732 170.662 27.9896 172.784 31.8472C175.622 36.9961 175.462 43.6497 172.376 48.6563C168.315 55.4193 159.282 58.7023 151.815 55.9501C144.888 53.7614 139.989 46.8616 140.055 39.6663C140.166 32.471 145.258 25.8557 152.135 23.6943ZM151.964 30.2166C148.283 32.1262 145.968 36.2628 146.117 40.3502C146.354 43.6551 147.985 46.9217 150.757 48.8314C154.422 51.5289 159.718 51.704 163.564 49.2691C166.617 47.4799 168.364 44.164 168.888 40.7661C169.004 36.903 167.246 32.947 163.956 30.7857C160.478 28.4219 155.645 28.1592 151.964 30.2166Z" fill="#525253"/>
<path d="M24.8396 29.6804C24.9498 27.8474 24.5365 25.9377 25.1648 24.1758C35.503 24.3017 45.8468 24.236 56.185 24.2141C56.5542 26.0143 56.433 27.8583 56.444 29.6859C55.1324 29.7242 53.8154 29.7296 52.5038 29.85C49.4839 29.9649 46.475 29.6366 43.4551 29.7406C43.4 36.4763 43.4496 43.2174 43.433 49.9531C47.6598 49.9202 51.8921 50.0187 56.1189 49.8984C56.3944 50.6644 56.5487 51.4469 56.3062 52.2512C56.4165 53.2963 56.4605 54.3469 56.4605 55.3974C45.9239 55.4959 35.3818 55.4467 24.8396 55.4248C24.9058 53.5808 24.6302 51.704 25.0876 49.8984C29.3034 50.0078 33.5246 49.9312 37.7404 49.9421C37.7459 43.9561 37.7294 37.97 37.7514 31.984C37.7294 31.1742 37.8837 30.2549 37.2554 29.6257C35.5471 30.2002 33.7616 29.6257 32.0147 29.757C29.623 29.9485 27.2203 29.9759 24.8396 29.6804Z" fill="#525253"/>
<path d="M64.7285 55.4522C64.7671 45.045 64.6844 34.6378 64.7726 24.2306C69.8976 24.2689 75.0282 24.2032 80.1587 24.2579C84.7162 24.4276 89.3562 26.091 92.4478 29.5272C97.683 35.1302 97.6169 44.662 92.4202 50.2759C89.4224 53.4933 85.0468 55.3701 80.6437 55.4358C75.3368 55.4686 70.0299 55.4303 64.7285 55.4522ZM70.4157 50.1665C73.4521 50.1501 76.4941 50.1829 79.5305 50.161C82.4457 50.068 85.5207 49.198 87.5322 46.982C91.8416 42.4459 90.8001 33.9374 85.1074 30.9882C80.561 28.6955 75.2817 30.0251 70.3991 29.664C70.3991 36.4982 70.3661 43.3323 70.4157 50.1665Z" fill="#525253"/>
<path d="M103.33 24.2306C113.888 24.247 124.447 24.2415 135.006 24.2361C135.039 26.0636 135.022 27.8966 135.039 29.7297C126.365 29.7078 117.691 29.7297 109.017 29.7187C108.978 32.1974 108.995 34.6761 109 37.1602C115.784 37.1548 122.568 37.1602 129.352 37.1548C129.352 38.9878 129.352 40.8153 129.352 42.6429C122.562 42.6429 115.779 42.6429 108.995 42.6429C108.995 45.0833 108.995 47.5237 108.995 49.9695C117.663 49.9695 126.337 49.9695 135.006 49.9641C135.033 51.7916 135.028 53.6192 135.033 55.4522C124.453 55.4412 113.872 55.4467 103.286 55.4467C103.319 45.0395 103.236 34.6378 103.33 24.2306Z" fill="#525253"/>
</svg>
