<svg width="200" height="80" viewBox="0 0 200 80" fill="none" xmlns="http://www.w3.org/2000/svg">
<path d="M98.8694 6H100.823C106.297 6.43217 111.172 10.5158 112.593 15.8209C116.606 13.9952 121.74 14.8066 124.671 18.2067C127.368 21.1658 128.107 25.7653 126.272 29.3594C124.759 32.6889 121.322 34.8763 117.723 35.1541C117.706 38.025 117.719 40.9002 117.71 43.7711C117.296 43.7623 116.878 43.7535 116.465 43.7446C116.456 40.8782 116.482 38.0073 116.447 35.1409C112.835 34.9292 109.649 32.6448 107.925 29.5182C105.76 31.1499 103.151 32.0715 100.462 32.3185C100.475 36.1331 100.462 39.9477 100.467 43.7623C100.053 43.7623 99.6438 43.7623 99.2346 43.7623C99.239 39.9477 99.2258 36.1331 99.2434 32.3185C96.5506 32.076 93.9458 31.1499 91.7722 29.5226C90.0562 32.6581 86.8575 34.9248 83.2539 35.1409C83.2187 38.0117 83.2407 40.8782 83.2363 43.7446C82.8227 43.7535 82.4047 43.7623 81.9911 43.7667C81.9823 40.8958 81.9955 38.0294 81.9779 35.1585C77.7495 34.8719 73.8555 31.8114 72.7951 27.6616C71.5412 23.4589 73.4947 18.6168 77.2259 16.3722C80.1387 14.4803 83.9667 14.4715 87.0995 15.8165C88.5251 10.507 93.4002 6.42776 98.8694 6ZM88.5295 15.3711C87.0951 19.3753 88.1687 24.0631 91.033 27.1677C93.1142 29.4829 96.1238 30.8809 99.2258 31.0617C99.239 29.452 99.2346 27.8424 99.2346 26.2328C96.9202 23.9308 94.619 21.6112 92.287 19.3224C91.7634 18.9388 92.0802 18.0965 92.7314 18.0832C94.9402 20.1779 97.039 22.3829 99.2126 24.5217C99.2522 22.3256 99.2346 20.1294 99.2258 17.9333C98.4602 17.4702 97.5714 17.0116 97.2634 16.1032C96.4406 14.3921 97.9586 12.0813 99.8682 12.2621C101.756 12.1122 103.234 14.4053 102.433 16.0943C102.13 17.0028 101.241 17.4702 100.475 17.9289C100.471 20.1294 100.44 22.33 100.497 24.5261C102.517 22.4799 104.532 20.4337 106.587 18.4228C107.023 17.607 107.608 18.5242 107.793 18.9564C105.307 21.3334 102.913 23.8117 100.467 26.2284C100.467 27.8424 100.458 29.452 100.475 31.0661C105.949 30.8368 110.899 26.4224 111.625 20.9629C112.791 14.8507 108.162 8.43429 102.059 7.44646C96.4054 6.18963 90.2806 9.88074 88.5295 15.3711ZM76.7815 18.1714C73.5035 20.8659 72.6279 25.9947 74.9159 29.5932C76.3679 32.1333 79.1311 33.6106 81.9647 34.0075C81.9823 32.8653 82.0263 31.7232 81.9647 30.5854C80.2267 28.4995 78.1235 26.7311 76.2843 24.729C76.6187 24.5129 76.9619 24.3145 77.3139 24.1337C78.9375 25.5933 80.4027 27.2206 81.9823 28.7288C81.9823 27.8071 81.9867 26.8943 81.9823 25.977C81.1991 25.417 80.2135 24.729 80.3191 23.6221C80.2531 21.9463 82.4135 20.5881 83.8127 21.695C85.4671 22.7048 84.9523 25.2935 83.2451 25.9594C83.2363 26.8855 83.2407 27.8115 83.2539 28.742C84.7411 27.2338 86.2591 25.7609 87.7287 24.2395C86.7079 21.964 86.6463 19.4459 86.8091 16.9984C83.5795 15.4461 79.5227 15.7812 76.7815 18.1714ZM112.883 17.0028C113.068 19.4503 112.967 21.9596 111.968 24.2395C113.442 25.7521 114.956 27.2294 116.443 28.7332C116.456 27.8027 116.465 26.8722 116.456 25.9417C115.655 25.4214 114.74 24.7555 114.899 23.6618C114.648 21.7214 117.398 20.4734 118.669 21.9772C120.06 23.2032 119.232 25.2935 117.723 25.977C117.714 26.8987 117.714 27.816 117.719 28.7376C119.285 27.2162 120.772 25.6066 122.387 24.1337C122.739 24.3145 123.082 24.5129 123.412 24.729C121.749 26.4709 120.016 28.1379 118.326 29.8489C117.138 30.8632 117.934 32.6448 117.736 33.9899C121.305 33.6062 124.644 31.1631 125.665 27.6484C127.144 23.3575 124.666 18.2552 120.442 16.6853C118.009 15.6181 115.259 15.9665 112.883 17.0028ZM83.2979 30.4487C83.1571 31.6217 83.2495 32.8124 83.2627 33.9899C86.4703 33.615 89.4094 31.6614 90.7998 28.7068C89.8362 27.7234 89.0135 26.6165 88.2875 25.4522C86.6067 27.1015 84.8907 28.72 83.2979 30.4487ZM111.409 25.4434C110.688 26.612 109.861 27.7145 108.901 28.7024C110.296 31.657 113.231 33.6106 116.438 33.9987C116.452 32.8168 116.54 31.6261 116.403 30.4487C114.806 28.7156 113.09 27.0927 111.409 25.4434Z" fill="#525253"/>
<path d="M33.8496 48.9525C34.1048 48.9217 34.6108 48.8687 34.8616 48.8423C34.9012 49.7331 34.9408 50.6195 35.0068 51.5103C35.9704 50.8003 36.7404 49.8786 37.3784 48.8687C37.6116 48.8952 38.0824 48.9393 38.3156 48.9658C37.7172 49.8654 37.11 50.765 36.4148 51.6029C37.1628 52.4761 37.8096 53.433 38.4432 54.3944C38.1836 54.3944 37.66 54.3988 37.4004 54.3988C36.7756 53.3625 36.01 52.4055 35.0112 51.7043C34.932 52.6922 34.8924 53.6888 34.844 54.681C34.5976 54.5708 34.1004 54.3503 33.854 54.24L33.8496 54.8354V48.9525Z" fill="#525253"/>
<path d="M46.1954 48.9306C47.467 48.8292 48.743 48.8865 50.0146 48.8821C49.9662 49.0937 49.8738 49.5215 49.8254 49.7332C48.9234 49.7332 48.0258 49.7332 47.1238 49.7332C47.1238 50.2271 47.1282 50.721 47.1282 51.2149C47.8938 51.2149 48.6594 51.2149 49.425 51.2149V52.0087C48.655 52.0087 47.885 52.0087 47.1194 52.0131C47.1238 52.5732 47.1326 53.1377 47.1414 53.7021C48.1094 53.7021 49.0774 53.7021 50.041 53.7065C50.019 53.9182 49.975 54.3372 49.953 54.5444C48.7254 54.5356 47.4978 54.5444 46.2746 54.5488C46.191 53.4949 46.1074 52.4453 46.0898 51.3869C46.1118 50.5667 46.081 49.742 46.1954 48.9306Z" fill="#525253"/>
<path d="M57.8728 48.8776C59.2148 48.8732 60.5524 48.86 61.89 48.9261C61.7228 49.1996 61.5556 49.473 61.384 49.7464C60.5084 49.7332 59.6372 49.7332 58.7616 49.7287C58.766 50.2138 58.766 50.6989 58.766 51.184C59.6724 51.2061 60.5788 51.2281 61.4808 51.3119C60.9132 52.3482 59.6988 51.9293 58.7572 52.0307C58.7616 52.4453 58.7748 53.2832 58.7792 53.6977C59.7252 53.7021 60.6712 53.7021 61.6172 53.6977C61.7096 53.8388 61.89 54.1166 61.9824 54.2577C60.6448 54.6238 59.2544 54.5532 57.886 54.5444C57.864 52.6569 57.8728 50.7695 57.8728 48.8776Z" fill="#525253"/>
<path d="M69.638 48.8688C70.914 49.0056 72.5992 48.4455 73.4968 49.6582C73.8092 50.4079 73.8312 51.409 73.1668 51.9779C72.4452 52.6173 71.4288 52.4806 70.5444 52.5997C70.54 53.2435 70.5356 53.8918 70.5312 54.54L69.66 54.5444C69.616 52.6526 69.6336 50.7607 69.638 48.8688ZM70.5576 49.6759C70.5576 50.1874 70.5576 51.2193 70.5576 51.7309C71.7764 51.8808 73.1624 51.4002 72.7576 49.8831C72.0228 49.7949 71.2924 49.7288 70.5576 49.6759Z" fill="#525253"/>
<path d="M91.8142 48.8733C92.1705 48.8777 92.5313 48.8777 92.8921 48.8777C93.3761 50.9239 94.7137 52.7496 94.7753 54.8752C94.2869 54.4475 93.8601 53.9668 93.4949 53.4332C92.7337 53.4199 91.9769 53.4199 91.2246 53.4288C90.8418 53.9403 90.4326 54.4254 89.997 54.8929C89.9222 52.7629 91.3566 50.9239 91.8142 48.8733ZM92.3553 50.0155C92.0737 50.8622 91.7745 51.7045 91.4797 52.5512C92.0649 52.5556 92.6501 52.5556 93.2353 52.5556C92.9361 51.7089 92.6369 50.8666 92.3553 50.0155Z" fill="#525253"/>
<path d="M102.742 48.8866C103.151 48.8777 103.561 48.8733 103.974 48.8645C104.463 50.0596 104.977 51.2503 105.475 52.4454C105.862 51.2326 106.363 50.064 106.839 48.8866C107.257 48.8821 107.679 48.8777 108.101 48.8733C108.071 50.8269 108.22 52.7938 107.974 54.7385C107.771 54.6195 107.371 54.3857 107.169 54.2667C107.204 52.8864 107.195 51.5061 107.164 50.1257C106.742 51.2503 106.289 52.3528 105.844 53.4641C105.642 53.4773 105.233 53.4993 105.026 53.5082C104.564 52.3704 104.089 51.2282 103.64 50.0861C103.635 51.5722 103.644 53.0628 103.613 54.5533C103.402 54.5489 102.971 54.5445 102.76 54.5401C102.733 52.657 102.747 50.7696 102.742 48.8866Z" fill="#525253"/>
<path d="M116.24 48.8776C117.498 48.8731 118.761 48.8776 120.024 48.882C119.98 49.0936 119.896 49.5214 119.856 49.7331C118.946 49.7331 118.039 49.7331 117.133 49.7375C117.128 50.227 117.128 50.7209 117.128 51.2148C117.898 51.2148 118.668 51.2148 119.443 51.2148L119.434 52.0086C118.66 52.0086 117.89 52.0086 117.12 52.0086C117.124 52.5731 117.133 53.1376 117.142 53.702C118.11 53.702 119.078 53.702 120.046 53.7109C120.019 53.9181 119.962 54.3371 119.936 54.5487C118.708 54.5399 117.485 54.5399 116.262 54.5443C116.218 52.6569 116.235 50.765 116.24 48.8776Z" fill="#525253"/>
<path d="M140.152 48.8865C140.377 48.8821 140.817 48.8733 141.041 48.8689C141.041 50.7652 141.059 52.657 141.019 54.5533C140.808 54.5489 140.381 54.5445 140.165 54.5401C140.143 52.657 140.152 50.7696 140.152 48.8865Z" fill="#525253"/>
<path d="M149.766 49.3892C150.584 48.5072 151.9 48.9261 152.947 48.9614C152.925 49.1687 152.885 49.592 152.863 49.7993C152.058 49.7949 151.178 49.4818 150.439 49.9316C149.59 50.8841 149.819 52.2071 150.232 53.2964C150.479 53.411 150.971 53.6403 151.218 53.7506C151.97 53.6183 152.692 53.7021 153.383 54.002C152.503 54.3812 151.442 54.9148 150.492 54.4209C148.609 53.6051 148.45 50.7651 149.766 49.3892Z" fill="#525253"/>
<path d="M162.676 48.8821C163.032 48.8777 163.393 48.8777 163.754 48.8733C164.18 50.9283 165.729 52.8025 165.553 54.9017C165.131 54.4254 164.735 53.9359 164.356 53.4288C163.595 53.4199 162.834 53.4243 162.073 53.4332C161.708 53.9668 161.285 54.4475 160.797 54.8752C160.85 52.7496 162.2 50.9283 162.676 48.8821ZM162.337 52.5468C162.918 52.5512 163.503 52.5556 164.092 52.5556C163.802 51.7177 163.498 50.8798 163.217 50.0375C162.931 50.8798 162.632 51.7133 162.337 52.5468Z" fill="#525253"/>
<path d="M127.903 48.882C129.087 48.9217 130.327 48.7145 131.463 49.1334C131.753 49.5744 132.008 50.0418 132.228 50.5269C131.995 51.1002 131.309 51.528 131.265 52.1542C131.687 53.0053 132.224 53.8388 132.237 54.8266C131.199 54.3856 130.886 53.2655 130.305 52.4056C129.799 52.3879 129.298 52.3747 128.796 52.3615C128.783 53.0935 128.77 53.8212 128.757 54.5532L127.912 54.5312C127.899 52.6481 127.903 50.7651 127.903 48.882ZM128.787 49.7287C128.792 50.3373 128.796 50.9547 128.801 51.5677C129.553 51.4971 130.305 51.3869 131.04 51.1972C131.014 50.7254 130.983 50.2579 130.948 49.7949C130.226 49.7552 129.505 49.7376 128.787 49.7287Z" fill="#525253"/>
<path d="M33.8496 59.392C36.0628 59.5331 38.4432 58.9774 40.5376 59.9035C42.566 60.8472 42.5924 63.7843 41.1272 65.2439C43.7848 66.2891 43.688 70.7255 40.9292 71.5457C38.6324 72.1587 36.2036 71.7442 33.8496 71.8588V59.392ZM36.6832 61.6851C36.67 62.5759 36.6656 63.4667 36.67 64.3575C37.3784 64.3531 38.0824 64.3179 38.7864 64.2517C39.7016 63.921 39.3848 62.8758 39.42 62.1349C38.5312 61.8703 37.6116 61.7248 36.6832 61.6851ZM36.6656 66.5184C36.6656 67.4401 36.6656 68.3618 36.67 69.2834C37.8668 69.1247 40.1768 69.8391 40.2604 68.0222C40.2912 66.1171 37.9196 66.5713 36.6656 66.5184Z" fill="#525253"/>
<path d="M50.3926 59.3876C52.8566 59.3876 55.3206 59.3876 57.7845 59.3876C57.7845 60.2475 57.7845 61.103 57.7801 61.963C56.2929 61.963 54.8014 61.963 53.3142 61.963C53.3142 62.748 53.3142 63.5373 53.3142 64.3267C54.6342 64.3267 55.9585 64.3267 57.2785 64.3311C57.2785 65.1822 57.2829 66.0289 57.2829 66.8801C55.9585 66.8845 54.6386 66.8845 53.3142 66.8845C53.3142 67.6694 53.3142 68.45 53.3186 69.2394C54.8058 69.2394 56.2929 69.2394 57.7801 69.2394C57.7845 70.1125 57.7845 70.9813 57.7801 71.8545C55.3206 71.8633 52.8566 71.8589 50.3926 71.8589C50.3926 67.7003 50.3926 63.5461 50.3926 59.3876Z" fill="#525253"/>
<path d="M68.7884 59.3876C69.9632 59.3876 71.1424 59.3876 72.3172 59.3832C73.8835 63.5241 75.3839 67.6915 76.9195 71.8501C75.9163 71.8633 74.9175 71.8589 73.9143 71.8324C73.6635 71.0298 73.3995 70.236 73.1355 69.4422C71.424 69.4334 69.708 69.4334 67.9964 69.4422C67.7148 70.2316 67.442 71.0254 67.1868 71.828C66.1968 71.8633 65.2068 71.8589 64.2168 71.8457C65.6952 67.6739 67.2484 63.5329 68.7884 59.3876ZM68.8412 66.9595C69.972 66.9727 71.1028 66.9727 72.238 66.9683C71.6924 65.3983 71.1556 63.824 70.61 62.254C69.928 63.7887 69.4396 65.3939 68.8412 66.9595Z" fill="#525253"/>
<path d="M83.2398 59.3876C84.1946 59.3876 85.1494 59.3876 86.1042 59.3876C86.1262 61.9586 86.0646 64.5296 86.1218 67.1006C86.201 67.8635 86.355 68.8248 87.1426 69.1732C87.983 69.7818 88.9554 69.1865 89.8486 69.0321C90.7594 65.9011 90.161 62.598 90.3282 59.3876C91.2653 59.3876 92.2069 59.3876 93.1441 59.3876C93.0957 62.426 93.2453 65.4733 93.0737 68.5073C92.8537 70.5403 90.8826 71.8324 88.9774 72H87.499C85.431 71.8633 83.3542 70.333 83.3014 68.1193C83.143 65.2131 83.2794 62.2981 83.2398 59.3876Z" fill="#525253"/>
<path d="M99.9492 59.3876C102.814 59.3876 105.682 59.3876 108.547 59.3876C108.542 60.2475 108.538 61.1075 108.534 61.9674C107.601 61.963 106.672 61.963 105.744 61.963C105.744 65.2616 105.748 68.5602 105.74 71.8589C104.767 71.8589 103.795 71.8589 102.822 71.8501C102.818 68.5514 102.822 65.2572 102.818 61.9586C101.863 61.963 100.913 61.963 99.9624 61.9674C99.958 61.1075 99.9536 60.2475 99.9492 59.3876Z" fill="#525253"/>
<path d="M115.582 59.3964C116.554 59.3876 117.527 59.3876 118.504 59.3876C118.504 63.5461 118.504 67.7047 118.504 71.8633C117.527 71.8589 116.554 71.8589 115.582 71.8501C115.582 67.7003 115.582 63.5461 115.582 59.3964Z" fill="#525253"/>
<path d="M141.309 59.3876C142.246 59.3876 143.183 59.3876 144.125 59.3876C144.305 62.598 143.671 65.9099 144.609 69.0365C145.475 69.182 146.421 69.7642 147.249 69.1997C148.181 68.8116 148.291 67.643 148.349 66.7698C148.379 64.3091 148.335 61.8483 148.353 59.3876C149.295 59.3876 150.236 59.3876 151.178 59.3876C151.125 62.426 151.288 65.4733 151.094 68.5029C150.861 70.5932 148.789 71.9074 146.822 72H145.585C143.636 71.8942 141.599 70.5668 141.375 68.5029C141.216 65.4689 141.357 62.426 141.309 59.3876Z" fill="#525253"/>
<path d="M159.145 59.3964C160.117 59.3876 161.089 59.3876 162.066 59.3876C162.066 62.6686 162.066 65.954 162.066 69.2394C163.329 69.2394 164.587 69.2394 165.85 69.2394V71.8589C163.615 71.8589 161.38 71.8633 159.145 71.8501C159.145 67.7003 159.145 63.5461 159.145 59.3964Z" fill="#525253"/>
<path d="M126.775 71.8589C126.775 67.7003 126.771 63.5417 126.775 59.3832C129.275 59.392 131.774 59.3788 134.273 59.3964C134.273 60.2475 134.269 61.1031 134.269 61.9586C132.711 61.963 131.158 61.963 129.6 61.963C129.6 62.7524 129.6 63.5373 129.6 64.3267C130.925 64.3267 132.249 64.3267 133.573 64.3267C133.573 65.1778 133.573 66.029 133.573 66.8845C132.249 66.8845 130.925 66.8845 129.6 66.8845C129.6 68.5426 129.6 70.2008 129.6 71.8589C128.659 71.8589 127.717 71.8589 126.775 71.8589Z" fill="#525253"/>
</svg>
