<svg width="170" height="80" viewBox="0 0 170 80" fill="none" xmlns="http://www.w3.org/2000/svg">
<path d="M83.8264 3.44019H86.355C93.8625 3.76428 101.179 7.29157 106.073 13.0246C110.009 17.4958 112.399 23.2918 112.828 29.2356C113.383 36.2556 111.143 43.4486 106.725 48.911C102.614 53.9958 96.6856 57.5924 90.2592 58.7629C84.7445 59.7886 78.9134 59.1467 73.7935 56.8277C68.3917 54.3703 63.77 50.1665 60.8968 44.9464C57.8167 39.4588 56.7169 32.9045 57.7603 26.6964C58.8538 20.0697 62.4321 13.8899 67.6428 9.67351C72.1987 5.94484 77.9546 3.72338 83.8264 3.44019ZM75.5325 7.73523C69.9583 10.0007 65.2803 14.3524 62.5292 19.7142C66.4428 19.7236 70.3531 19.7204 74.2635 19.711C74.7805 19.7267 75.3571 19.626 75.7769 20.0099C77.0052 20.9602 78.1614 22.03 79.1045 23.2729C79.1327 19.4121 79.092 15.5513 79.1265 11.6936C83.0713 11.7251 87.0193 11.6999 90.9673 11.7062C90.9736 15.5481 90.9328 19.3932 90.9892 23.2351C92.1987 21.9891 93.3204 20.4725 94.9247 19.7519C99.2017 19.6575 103.482 19.7645 107.762 19.7016C104.817 14.0063 99.7155 9.4501 93.6807 7.3073C87.8528 5.21169 81.2477 5.3407 75.5325 7.73523ZM81.6519 14.5129C81.6268 20.0414 81.702 25.573 81.6143 31.1015C80.1197 27.8983 78.1113 24.7675 75.2035 22.6971C72.9162 22.4957 70.5787 22.6027 68.2789 22.6593C70.0398 24.2609 71.9073 25.8342 73.1073 27.9329C74.0881 29.5314 74.6928 31.4571 74.3137 33.3356C73.9565 34.7924 72.6217 35.9283 71.1208 35.9818C69.1124 36.0227 67.1039 35.9535 65.0986 36.0164C65.0798 37.8761 65.0923 39.7357 65.0892 41.5953C68.3447 41.5544 71.6065 41.6614 74.8557 41.5449C77.917 40.8999 80.0445 38.2222 81.5297 35.6294C81.5767 39.6067 81.5109 43.5839 81.5642 47.5611C83.886 47.5548 86.2109 47.5611 88.5327 47.558C88.564 43.6122 88.5045 39.6664 88.564 35.7207C90.1276 38.2253 92.1768 40.859 95.191 41.5638C98.4246 41.6425 101.661 41.5544 104.898 41.6047C105.074 39.7388 105.052 37.854 104.907 35.9881C102.843 35.9724 100.778 36.0322 98.716 35.9629C96.7295 35.7521 95.379 33.6817 95.6673 31.756C96.0965 27.9329 98.9855 24.9752 101.868 22.7097C100.095 22.524 98.3118 22.6184 96.5352 22.5901C95.8866 22.6216 95.1597 22.4831 94.5925 22.8827C91.9042 24.9941 89.996 27.9267 88.517 30.9788C88.3228 25.5007 88.4857 20.0068 88.4356 14.5223C86.1733 14.5035 83.9142 14.5192 81.6519 14.5129ZM62.8488 43.4045C62.9742 40.0912 62.8739 36.7716 62.899 33.452C65.3555 33.4363 67.812 33.43 70.2685 33.4551C71.0738 33.1342 71.7099 32.3476 71.525 31.4351C71.2367 29.0342 69.504 27.2124 67.9656 25.4975C66.189 23.6033 64.3215 21.7909 62.3538 20.098C58.7849 27.3257 58.8476 36.3689 62.8488 43.4045ZM106.759 20.9256C105.052 22.5744 103.366 24.2515 101.718 25.9632C100.292 27.5208 98.8821 29.286 98.5844 31.4508C98.3776 32.4482 99.2455 33.4646 100.258 33.4331C102.592 33.4646 104.929 33.4268 107.264 33.4457C107.301 36.8849 107.201 40.3272 107.32 43.7664C111.375 36.586 111.541 27.4987 107.972 20.0854C107.508 20.2679 107.113 20.5763 106.759 20.9256ZM74.9059 43.9835C71.0111 43.993 67.1164 43.9646 63.2248 43.9961C63.3032 44.188 63.4661 44.5688 63.5476 44.7576C66.6308 49.7763 71.4968 53.656 77.0616 55.5408C82.5825 57.3658 88.7552 57.3186 94.1821 55.1726C99.6027 53.1117 104.34 49.1218 107.123 43.9992C103.053 43.9552 98.9823 44.0118 94.9121 43.9709C93.4364 43.9206 92.158 43.0742 91.0174 42.2089C90.8921 44.8708 90.9924 47.536 90.9673 50.2011C87.0162 50.2042 83.0682 50.2105 79.1202 50.198C79.0983 47.5234 79.1296 44.8488 79.1014 42.1742C77.9327 43.1748 76.4851 44.0024 74.9059 43.9835Z" fill="#525253"/>
<path d="M40.9221 67.161C41.9467 65.9181 42.8992 64.6154 43.8705 63.3316C44.87 63.3222 45.8696 63.3254 46.8691 63.3254C45.8226 64.8105 44.5692 66.151 43.6073 67.6959C44.2058 69.8198 45.5531 71.6983 46.396 73.7499C45.3651 73.7719 44.3342 73.7719 43.3034 73.7656C42.473 72.0098 41.7555 70.1943 40.7936 68.5014C40.5586 70.2509 40.568 72.0224 40.2766 73.7656C39.487 73.7688 38.7005 73.7656 37.9141 73.7656V73.2653C38.2274 69.952 38.4624 66.6324 38.7883 63.3222C39.5967 63.3222 40.4019 63.3254 41.2072 63.3285C41.1853 64.6123 41.0067 65.8835 40.9221 67.161Z" fill="#525253"/>
<path d="M83.84 63.3253C84.6891 63.3253 85.5382 63.3222 86.3874 63.3316C86.1555 66.8054 85.908 70.2792 85.7231 73.7561C84.8834 73.7719 84.0468 73.7719 83.207 73.7624C83.3731 70.2792 83.7084 66.8054 83.84 63.3253Z" fill="#525253"/>
<path d="M100.431 64.0397C102.456 62.394 106.294 62.6426 107.259 65.3832C107.262 65.7829 107.265 66.1856 107.268 66.5884C106.432 66.5947 105.595 66.5947 104.759 66.5884C104.536 66.1101 104.301 65.6444 104.06 65.1787C103.041 64.9836 101.967 65.4084 101.588 66.4216C100.948 68.0484 100.839 70.0244 101.751 71.5725C102.365 71.7582 103.07 72.0351 103.662 71.6292C104.191 71.3963 104.301 70.745 104.586 70.295C105.442 70.2478 106.297 70.2447 107.152 70.2919C107.165 71.9029 105.893 73.2654 104.383 73.643C102.951 73.9545 101.328 73.9922 100.059 73.1458C99.175 72.4347 98.6611 71.3428 98.5232 70.2258C98.2538 68.0389 98.7081 65.5469 100.431 64.0397Z" fill="#525253"/>
<path d="M108.56 63.3317C109.33 63.3223 110.101 63.3223 110.875 63.3254C110.834 66.8055 110.455 70.273 110.317 73.75C109.515 73.7688 108.713 73.7688 107.914 73.772C108.09 70.2888 108.315 66.8087 108.56 63.3317Z" fill="#525253"/>
<path d="M125.172 63.3191C125.986 63.3222 126.804 63.3254 127.625 63.338C127.537 65.3297 127.283 67.3121 127.221 69.307C127.995 68.4543 128.54 67.4316 129.267 66.5443C130.141 66.4153 131.031 66.494 131.914 66.4814V67.0603L131.911 66.6607C131.112 67.611 130.345 68.5833 129.58 69.5619C130.373 70.9463 131.14 72.3434 131.914 73.7405V73.7719C130.937 73.7656 129.956 73.7688 128.979 73.7688C128.346 72.5133 127.766 71.2327 127.149 69.9709C127.02 71.2358 126.889 72.5007 126.776 73.7688C125.992 73.7688 125.209 73.7688 124.426 73.7656C124.579 70.2761 125.043 66.8086 125.172 63.3191Z" fill="#525253"/>
<path d="M47.4765 63.3191C48.2912 63.3254 49.1058 63.3222 49.9173 63.3348C49.9079 63.961 49.8829 64.5903 49.7105 65.1944C48.9241 65.1787 48.1408 65.1944 47.3574 65.2228C47.3982 64.5903 47.4452 63.9547 47.4765 63.3191Z" fill="#525253"/>
<path d="M62.9527 63.36C63.7517 63.3222 64.5538 63.3191 65.356 63.3222C65.3685 64.6563 65.2087 65.9811 65.2275 67.312C65.8354 66.8086 66.484 66.1352 67.3456 66.2328C68.7337 66.302 69.6925 67.633 69.774 68.9451C69.9557 70.6411 69.6079 72.7273 67.9535 73.5894C66.8788 74.1778 65.6568 73.7499 64.8076 72.9727C64.7826 73.1741 64.7293 73.5737 64.7011 73.7719C63.924 73.7688 63.147 73.7688 62.373 73.7656C62.5328 70.295 62.8305 66.8338 62.9527 63.36ZM65.3748 68.1679C64.886 69.4108 64.6729 70.9809 65.4061 72.1672C66.014 72.5133 66.6594 72.186 67.0981 71.7392C67.4146 70.553 67.5117 69.3384 67.1012 68.1648C66.5498 67.8092 65.9325 67.8533 65.3748 68.1679Z" fill="#525253"/>
<path d="M47.2368 66.4814C48.0609 66.4814 48.8849 66.4814 49.709 66.4719C49.5335 68.8979 49.3424 71.3208 49.2515 73.7499C48.4212 73.7688 47.5909 73.7688 46.7637 73.7656C46.8859 71.3365 47.0927 68.9105 47.2368 66.4814Z" fill="#525253"/>
<path d="M50.7045 66.4908C51.469 66.4814 52.2336 66.4782 53.0012 66.4845C53.0294 66.6891 53.0827 67.0981 53.1109 67.3026C53.6059 66.8495 54.1229 66.3775 54.8185 66.2737C55.7303 66.0314 56.4604 66.7583 57.0965 67.29C57.8547 66.5789 58.8198 66.1038 59.882 66.2045C60.5776 66.6702 61.3735 67.2775 61.3327 68.2183C61.3797 70.0716 61.2419 71.9281 61.0633 73.7719C60.305 73.7688 59.5499 73.7688 58.7916 73.7625C58.7509 72.0067 59.2177 70.2447 58.9702 68.4983C58.8292 67.7809 58.049 68.0798 57.5539 68.149C56.9492 69.9583 57.1967 71.9029 56.9429 73.7688C56.1878 73.7688 55.4327 73.7688 54.6775 73.7688C54.7057 73.086 54.7277 72.4032 54.7715 71.7204C54.8436 70.5027 55.1444 69.2409 54.6744 68.0641C54.2859 68.0547 53.8942 68.0515 53.5025 68.0547C52.5876 69.7884 52.9699 71.8714 52.7505 73.7656C51.9453 73.7688 51.14 73.7719 50.3379 73.7499C50.5854 71.3397 50.6732 68.9137 50.7045 66.4908Z" fill="#525253"/>
<path d="M71.1161 67.6991C71.6143 66.9345 72.476 66.5695 73.2844 66.2328C74.3622 66.173 75.5811 66.2422 76.3456 67.1201C77.2606 68.02 77.201 69.4045 77.1854 70.5939C75.6876 70.6254 74.193 70.5971 72.6984 70.616C72.7392 71.1572 72.7956 71.6984 72.877 72.2364C73.6572 72.3969 74.569 72.3969 74.8573 71.4781C75.5717 71.4687 76.2861 71.4687 77.0005 71.4718C76.7874 72.7808 75.5905 73.9293 74.2369 73.8726C72.9522 73.9513 71.348 73.7122 70.7652 72.3875C70.1949 70.8803 70.2544 69.0867 71.1161 67.6991ZM72.7642 69.1308C73.5162 69.1402 74.2714 69.1339 75.0234 69.0899C74.8228 68.5361 74.7664 67.5858 73.9486 67.6897C73.1277 67.6079 72.9428 68.5298 72.7642 69.1308Z" fill="#525253"/>
<path d="M80.7937 67.3466C81.4548 66.8935 82.1692 66.5002 82.9745 66.4058C82.987 67.1925 82.9619 67.9822 82.9306 68.7689C82.517 68.7783 82.1034 68.7846 81.6898 68.7878C81.2856 69.0898 80.7937 69.4171 80.7341 69.9709C80.6182 71.2358 80.6276 72.5101 80.4584 73.7719C79.5967 73.7688 78.7413 73.7688 77.8828 73.7625C77.9079 73.3912 77.9361 73.0199 77.9643 72.6486C78.1585 70.6065 78.2651 68.5518 78.2682 66.5002C79.0985 66.4782 79.9289 66.4782 80.7623 66.4876C80.7686 66.7016 80.7874 67.1327 80.7937 67.3466Z" fill="#525253"/>
<path d="M91.548 66.494C92.3314 66.4814 93.1178 66.4814 93.9012 66.494C92.4974 69.8104 91.1282 73.1489 89.6618 76.4402H87.3713C87.8225 75.5466 88.3677 74.6719 88.5996 73.687C88.0481 71.2547 87.1927 68.8979 86.5566 66.4845C87.3901 66.4782 88.2236 66.4814 89.057 66.4845C89.386 67.9068 89.6774 69.3385 89.9626 70.7733C90.6018 69.3888 91.0686 67.9351 91.548 66.494Z" fill="#525253"/>
<path d="M112.45 66.9597C113.685 66.2139 115.186 66.0314 116.574 66.3618C117.511 66.645 118.353 67.4977 118.363 68.5235C118.281 70.2667 118.15 72.0099 118.169 73.7562C117.363 73.7688 116.558 73.7688 115.753 73.7657C115.734 73.5611 115.7 73.1552 115.684 72.9507C115.251 73.2182 114.822 73.4856 114.393 73.7531C113.829 73.7625 113.265 73.7688 112.704 73.7814C111.319 73.2308 110.843 71.2705 111.836 70.1629C112.97 69.1371 114.606 69.1245 116.044 69.1056C115.985 68.555 115.884 68.0138 115.731 67.4852C115.458 67.4914 114.919 67.5103 114.65 67.5198C114.496 67.8533 114.346 68.19 114.199 68.5267C113.422 68.5267 112.645 68.5267 111.868 68.4795C112.034 67.9603 112.234 67.4568 112.45 66.9597ZM114.456 70.2761C114.111 70.6789 113.635 71.1005 113.813 71.6984C113.832 72.5511 114.86 72.2459 115.402 72.1924C115.671 71.5536 115.847 70.8834 115.888 70.188C115.408 70.2132 114.932 70.2447 114.456 70.2761Z" fill="#525253"/>
<path d="M119.491 66.4782C120.303 66.4908 121.124 66.431 121.932 66.5412C121.97 66.7488 122.042 67.1579 122.079 67.3624C122.706 66.8338 123.449 66.4814 124.273 66.4027C124.229 67.1862 124.179 67.9697 124.169 68.7532C123.436 68.7752 122.468 68.7532 122.076 69.5178C121.628 70.8897 121.851 72.3528 121.653 73.7625C120.807 73.7688 119.961 73.7688 119.115 73.7625C119.175 71.3302 119.407 68.9074 119.491 66.4782Z" fill="#525253"/>
<path d="M93.7797 68.6273C94.8012 68.6147 95.8195 68.6399 96.8378 68.5486C97.0321 68.5833 97.4206 68.6556 97.6149 68.6934C97.5146 69.6216 97.4332 70.553 97.2922 71.4749C96.0201 71.4749 94.7448 71.4781 93.4727 71.4749C93.5259 70.5215 93.6011 69.5681 93.7797 68.6273Z" fill="#525253"/>
</svg>
