<svg width="200" height="80" viewBox="0 0 200 80" fill="none" xmlns="http://www.w3.org/2000/svg">
<path d="M106.453 30.5315C107.736 30.4532 109.134 30.5777 110.131 31.4816C111.352 32.4097 111.563 34.2075 110.982 35.5514C110.197 37.0479 108.532 37.7409 107.021 38.2712C105.661 38.7051 104.368 39.3198 103.01 39.7536C104.173 37.9759 106.549 37.6887 107.811 36.0174C108.502 35.1838 108.602 33.9665 108.2 32.9822C107.775 32.0642 107.035 31.3471 106.453 30.5315Z" fill="#525253"/>
<path d="M91.8853 30.9011C93.418 30.9172 94.9286 31.2808 96.4652 31.2346C97.6886 31.2326 98.8918 30.9132 100.121 30.9754C99.5266 33.0726 97.2928 34.1111 95.266 34.1995C94.2556 34.2095 93.1086 34.3341 92.2389 33.7174C91.4494 33.0043 91.8271 31.8211 91.8853 30.9011Z" fill="#525253"/>
<path d="M102.349 32.7793C102.523 31.7126 103.548 31.1582 104.454 30.7826C104.775 31.5138 105.175 32.2188 105.392 32.9922C105.641 33.7897 104.87 34.5791 104.092 34.6012C103.154 34.6434 102.12 33.7796 102.349 32.7793Z" fill="#525253"/>
<path d="M91.9205 38.4982C91.3681 37.4416 91.334 35.9712 92.2319 35.0934C92.5232 35.5775 92.724 36.1098 92.9149 36.6421C94.3692 36.2364 95.8999 35.7101 97.4165 36.1138C99.14 36.5035 100.64 38.0161 100.651 39.8441C99.6602 38.9361 98.7965 37.7309 97.4104 37.4215C95.5102 36.8872 93.6139 37.7007 91.9205 38.4982Z" fill="#525253"/>
<path d="M110.451 41.204C111.034 40.9408 111.419 40.3964 111.883 39.9726C112.201 41.437 111.727 43.0319 110.64 44.0644C109.923 44.7454 108.88 44.9965 107.916 44.8498C106.65 44.6951 105.584 43.8354 104.3 43.7751C103.814 43.751 103.316 43.7651 102.852 43.9178C102.537 44.3818 102.571 44.9683 102.595 45.5027C102.675 46.6577 102.924 47.7926 103.053 48.9436C102.209 48.9698 101.365 48.9557 100.528 48.8673C100.55 47.7083 100.622 46.5492 100.725 45.3942C100.761 44.8619 100.759 44.1086 100.132 43.9198C99.1157 43.5923 98.1013 44.0885 97.1893 44.4943C96.1187 44.9884 94.8732 45.2676 93.7222 44.9041C92.4145 44.436 91.3981 43.1725 91.3017 41.7764C91.2595 41.2461 91.3499 40.7178 91.4403 40.1976C92.0168 40.6515 92.513 41.3546 93.2984 41.4309C94.9335 41.5635 96.4581 40.7721 98.0732 40.6877C99.5094 40.6817 100.773 41.5153 101.605 42.6402C102.376 41.7081 103.298 40.7721 104.537 40.531C106.56 40.1132 108.426 41.6358 110.451 41.204Z" fill="#525253"/>
<path d="M19.2388 31.4965C21.6312 30.9055 24.345 31.0269 26.4723 32.368C29.9614 34.3438 31.3515 38.9879 29.9835 42.6431C29.1841 45.1522 27.0307 47.1559 24.4916 47.8842C23.1377 48.2503 21.7095 48.1707 20.3235 48.0931C16.8243 47.6713 13.8975 44.6866 13.4114 41.2563C13.3692 40.1181 13.3491 38.976 13.4335 37.8398C14.008 34.887 16.3241 32.3481 19.2388 31.4965ZM19.4497 33.0465C17.8829 33.6434 16.5732 34.8711 15.844 36.3634C15.1068 37.81 15.0646 39.4555 15.2092 41.0354C15.5266 42.9615 16.6214 44.7921 18.3469 45.7889C19.9338 46.8515 21.9566 46.5988 23.7645 46.4754C26.5024 45.783 28.6558 43.0689 28.5131 40.2395C28.5232 39.4396 28.5252 38.6358 28.4328 37.8379C27.8744 35.0641 25.275 32.6505 22.3403 32.756C21.3741 32.7679 20.3677 32.6804 19.4497 33.0465Z" fill="#525253"/>
<path d="M3.13663 31.5682C3.67296 31.5781 4.2113 31.5821 4.74764 31.5921C4.76973 36.4113 4.73157 41.2305 4.76571 46.0497C4.82999 46.1153 4.95855 46.2486 5.02484 46.3163C7.47551 46.3541 9.92818 46.3103 12.3788 46.3342C12.3286 46.8495 12.636 47.7847 11.8907 47.8743C8.98207 47.9061 6.0714 47.8763 3.16073 47.8882C3.09444 47.3331 2.99802 46.7779 3.00003 46.2188C3.00405 41.8353 3.00405 37.4539 3.00204 33.0724C3.00003 32.569 3.07435 32.0676 3.13663 31.5682Z" fill="#525253"/>
<path d="M140.738 31.584C141.284 31.5801 141.83 31.582 142.379 31.584C142.423 33.8006 142.339 36.0212 142.419 38.2358C142.477 38.3054 142.596 38.4427 142.656 38.5124C145.508 38.5621 148.365 38.5283 151.219 38.5263C151.326 36.2122 151.047 33.8742 151.382 31.5801C151.886 31.5801 152.388 31.5801 152.895 31.5781C153.041 32.4038 152.987 33.2435 152.995 34.0752C152.977 38.5164 153.021 42.9575 152.975 47.3967C152.901 48.107 152.015 47.8722 151.519 47.8682C151.137 47.3967 151.237 46.7779 151.225 46.2187C151.229 44.1971 151.243 42.1735 151.215 40.1519C148.327 40.1281 145.438 40.1579 142.55 40.134C142.463 40.5618 142.381 40.9916 142.387 41.4294C142.375 43.5763 142.419 45.7233 142.363 47.8682C141.84 47.8822 141.318 47.8862 140.798 47.8921C140.469 46.8296 140.585 45.7133 140.573 44.621C140.571 41.1727 140.573 37.7224 140.571 34.2742C140.579 33.3768 140.497 32.4615 140.738 31.584Z" fill="#525253"/>
<path d="M33.9147 32.8735C33.9107 32.4357 33.9669 32.002 34.0493 31.5742C34.7101 31.5781 35.371 31.5801 36.0339 31.5841C39.2459 36.0949 42.2972 40.7191 45.5332 45.212C45.6015 41.7001 45.5453 38.1841 45.5634 34.6722C45.5875 33.6415 45.475 32.5969 45.6919 31.5801C46.1961 31.5801 46.7003 31.5781 47.2065 31.5761C47.3733 32.3979 47.319 33.2416 47.323 34.0753C47.321 37.7902 47.321 41.5031 47.323 45.218C47.317 46.0576 47.3692 46.9053 47.2266 47.737C46.4974 47.739 45.7683 47.741 45.0411 47.7052C43.7414 45.604 42.2469 43.6281 40.893 41.5588C39.1515 39.0616 37.4742 36.5187 35.7045 34.0395C35.602 38.2299 35.7005 42.4243 35.6542 46.6148C35.6301 47.0406 35.5398 47.4564 35.4815 47.8763C35.0476 47.8862 34.6097 47.9041 34.1758 47.8763C33.9729 47.5619 33.8966 47.1938 33.9147 46.8237C33.9207 42.1736 33.9207 37.5235 33.9147 32.8735Z" fill="#525253"/>
<path d="M51.5997 32.8715C51.5997 32.4357 51.6781 32.0039 51.7544 31.5761C55.101 31.606 58.4536 31.5304 61.8001 31.612C61.8423 32.0577 61.8443 32.5073 61.782 32.9511C58.9819 33.0346 56.1797 32.955 53.3775 32.9909C53.3514 34.8334 53.3594 36.6759 53.3714 38.5204C55.9928 38.5542 58.6143 38.5204 61.2357 38.5403C61.2397 39.0636 61.2417 39.5889 61.2377 40.1142C58.6163 40.1401 55.9949 40.1082 53.3755 40.1321C53.3775 42.1816 53.3092 44.235 53.4056 46.2825C56.2821 46.3939 59.1667 46.2924 62.0472 46.3322C62.0914 46.7799 62.3324 47.3092 62.005 47.7032C61.766 47.928 61.4305 47.8822 61.1292 47.8922C58.0096 47.8743 54.89 47.9021 51.7725 47.8783C51.6941 47.3928 51.5957 46.9112 51.5997 46.4198C51.6037 41.903 51.6017 37.3882 51.5997 32.8715Z" fill="#525253"/>
<path d="M65.4139 31.5841C65.9542 31.5801 66.4926 31.5821 67.0329 31.594C67.047 36.5008 67.0189 41.4075 67.049 46.3143C69.5941 46.378 72.1432 46.2526 74.6863 46.3839C74.6842 46.8316 74.6842 47.2813 74.6802 47.731C71.5908 47.737 68.4993 47.7489 65.4079 47.723C65.3978 42.3447 65.3858 36.9624 65.4139 31.5841Z" fill="#525253"/>
<path d="M73.2344 31.6438C73.8912 31.6816 74.7891 31.3891 75.2431 32.0218C76.8762 34.4394 78.2361 37.042 79.9918 39.378C81.2372 37.808 82.1713 36.0292 83.2861 34.3697C83.9269 33.4564 84.3447 32.3422 85.2507 31.6438C85.7328 31.5741 86.2149 31.6975 86.6909 31.7751C85.1121 34.2324 83.4549 36.642 81.8459 39.0795C81.4361 39.7262 80.8977 40.333 80.7109 41.0892C80.5341 43.3117 80.9038 45.5701 80.504 47.7748C80.0782 47.7071 79.6563 47.6315 79.2365 47.538C79.2606 45.6318 79.2445 43.7256 79.2566 41.8194C79.2887 41.1508 79.0376 40.5121 78.652 39.9769C77.4367 38.1921 76.2455 36.3893 75.0463 34.5946C74.4095 33.6315 73.7185 32.6943 73.2344 31.6438Z" fill="#525253"/>
<path d="M116.359 31.59C116.89 31.582 117.424 31.5502 117.954 31.6059C118.322 32.0556 118.368 32.6525 118.537 33.1858C119.28 35.8043 120.061 38.4089 120.805 41.0274C121.253 42.4422 121.564 43.9046 122.181 45.2636C123.418 41.0911 124.653 36.9186 125.861 32.7361C125.993 32.3421 126.082 31.9064 126.393 31.6039C127.012 31.5462 127.634 31.584 128.255 31.586C129.485 35.5834 130.621 39.6107 131.823 43.6161C131.955 44.0578 132.062 44.5075 132.162 44.9592C132.323 44.9353 132.486 44.9134 132.65 44.8916C132.717 44.217 132.899 43.5644 133.118 42.9257C134.03 39.7182 134.97 36.5186 135.874 33.3091C136.051 32.7401 136.174 32.1491 136.441 31.6119C136.967 31.5522 137.497 31.58 138.028 31.584C137.985 32.1034 137.915 32.6227 137.754 33.1201C136.441 37.4399 135.165 41.7696 133.868 46.0954C133.691 46.6207 133.548 47.1579 133.442 47.7031C132.747 47.7389 132.05 47.7389 131.357 47.729C130.159 43.9484 129.093 40.1301 127.942 36.3356C127.755 35.7406 127.594 35.1377 127.462 34.5289C127.295 34.5448 127.13 34.5627 126.966 34.5786C126.13 37.7881 125.099 40.9518 124.183 44.1434C123.862 45.3373 123.412 46.4953 123.189 47.713C122.496 47.7389 121.803 47.7389 121.112 47.725C119.65 43.2381 118.402 38.6795 117.008 34.1707C116.775 33.3131 116.442 32.4794 116.359 31.59Z" fill="#525253"/>
<path d="M156.42 45.2717C158.477 40.7211 160.435 36.1247 162.527 31.5881C163.073 31.5801 163.621 31.5801 164.17 31.592C166.012 35.7228 167.743 39.8993 169.541 44.0499C170.033 45.3234 170.766 46.5252 170.987 47.8882C170.455 47.8962 169.923 47.93 169.396 47.8643C168.575 46.5968 168.123 45.1224 167.587 43.7196C164.716 43.652 161.844 43.6838 158.971 43.6978C158.346 45.0269 157.84 46.4098 157.201 47.731C156.633 47.729 156.066 47.723 155.502 47.7031C155.677 46.8495 156.066 46.0636 156.42 45.2717ZM163.071 33.9459C162.006 36.6222 160.791 39.2387 159.724 41.9169C160.787 42.1239 161.872 42.104 162.95 42.09C164.22 42.0642 165.505 42.1955 166.759 41.9249C165.722 39.2546 164.569 36.6281 163.499 33.9698C163.392 33.9638 163.179 33.9519 163.071 33.9459Z" fill="#525253"/>
<path d="M173.494 32.6764C173.522 32.3004 173.375 31.8248 173.781 31.598C174.291 31.5542 174.806 31.5821 175.32 31.592C175.338 36.5008 175.304 41.4115 175.336 46.3202C177.437 46.3381 179.538 46.3262 181.641 46.3242C182.081 46.3202 182.523 46.364 182.959 46.4516C182.951 46.8734 182.947 47.2992 182.943 47.723C179.88 47.7389 176.814 47.7568 173.751 47.7171C173.693 47.6454 173.574 47.5002 173.514 47.4285C173.478 42.5118 173.52 37.5931 173.494 32.6764Z" fill="#525253"/>
<path d="M185.541 31.6558C187.316 31.5901 189.096 31.6279 190.874 31.62C192.429 31.6359 193.989 31.5543 195.54 31.7115C195.538 32.0816 195.54 32.4537 195.544 32.8238C192.716 33.0784 189.87 32.8616 187.035 32.9571C186.949 34.8215 186.961 36.6899 187.023 38.5563C189.679 38.6458 192.344 38.4409 194.992 38.6796C194.994 39.1094 194.998 39.5412 195.006 39.971C192.34 40.0526 189.669 39.8814 187.009 40.0764C186.969 42.1776 186.963 44.2808 187.013 46.382C189.946 46.575 192.893 46.4297 195.831 46.4676C195.886 46.8874 195.944 47.3052 196 47.7251C192.513 47.6634 189.024 47.747 185.537 47.6833C185.527 42.3408 185.521 36.9983 185.541 31.6558Z" fill="#525253"/>
</svg>
