<svg width="200" height="80" viewBox="0 0 200 80" fill="none" xmlns="http://www.w3.org/2000/svg">
<path d="M51.6562 28.4883C58.1225 24.6851 67.3733 25.8 72.2788 31.6067C75.4977 35.4043 76.2981 40.8658 74.5715 45.484C72.5361 50.3455 67.6134 53.645 62.382 54.177C59.0087 54.443 55.4868 54.1997 52.4566 52.5697C47.9913 50.47 44.7496 45.8066 44.7839 40.8601C44.498 35.9023 47.2709 30.905 51.6562 28.4883ZM53.2342 31.2785C50.7986 32.9877 49.2491 35.642 48.5459 38.4831C47.8998 42.6089 49.7351 47.0064 53.217 49.3777C57.3793 52.4678 63.657 52.1735 67.5848 48.8288C69.7974 47.1083 71.2554 44.5388 71.7128 41.7996C72.3131 37.3059 69.8432 32.6311 65.8296 30.4805C61.9417 28.3355 56.8247 28.6808 53.2342 31.2785Z" fill="#525253"/>
<path d="M117.447 26.4508C119.419 26.4508 121.397 26.3659 123.364 26.564C120.397 27.2998 117.63 28.6524 114.668 29.4108C115.628 28.46 116.543 27.4582 117.447 26.4508Z" fill="#525253"/>
<path d="M22 30.1635C23.0406 30.1635 24.0811 30.1635 25.1217 30.1635C25.116 36.7852 25.116 43.4125 25.1274 50.0342C30.8505 50.0568 36.5793 50.0399 42.3025 50.0399C42.3025 50.8379 42.3025 51.6302 42.3025 52.4282C35.5331 52.4225 28.7694 52.4225 22 52.4282C22.0114 45.0085 22.0172 37.5888 22 30.1635Z" fill="#525253"/>
<path d="M79.6445 30.1636C84.8931 30.2088 90.1474 30.0787 95.3959 30.2315C98.8607 30.3447 101.862 33.4178 101.645 36.8928C101.668 39.9885 99.0036 42.4108 96.1163 43.0787C98.1917 46.3329 100.519 49.4626 103.057 52.3716C101.662 52.4226 100.261 52.4339 98.8721 52.4282C96.8367 49.672 94.8185 46.9045 92.8403 44.1144C92.4686 43.5088 91.8969 42.8466 91.0907 42.9994C88.3235 42.9824 85.5506 43.0051 82.7834 43.0051C82.7662 46.1461 82.7719 49.2872 82.7777 52.4282C81.7371 52.4226 80.6908 52.4226 79.6445 52.4282C79.656 45.0086 79.656 37.5832 79.6445 30.1636ZM82.7719 32.7047C82.7777 35.2685 82.7777 37.8379 82.7719 40.4074C86.6769 40.3904 90.5876 40.4753 94.4869 40.3677C96.6423 40.3168 98.5519 38.4209 98.2775 36.2306C98.3404 34.4026 96.5909 33.3216 95.0758 32.75C90.9764 32.6481 86.8713 32.7104 82.7719 32.7047Z" fill="#525253"/>
<path d="M106.885 30.2087C113.631 30.1125 120.384 30.1748 127.13 30.1748C127.124 30.9558 127.124 31.7312 127.124 32.5122C121.527 32.5461 115.924 32.4612 110.327 32.5574C110.327 34.8269 110.39 37.1021 110.275 39.3772C110.83 39.7168 111.436 39.8526 112.093 39.796C115.69 39.779 119.292 39.7904 122.893 39.779C122.888 40.5884 122.882 41.3977 122.882 42.2013C118.697 42.2126 114.512 42.1617 110.327 42.2296C110.51 44.85 109.989 47.5383 110.647 50.1021C116.136 49.9719 121.636 50.0681 127.13 50.0511C127.13 50.6454 127.13 51.8282 127.124 52.4168C120.384 52.4168 113.637 52.4564 106.89 52.3998C106.902 45.0028 106.908 37.6058 106.885 30.2087Z" fill="#525253"/>
<path d="M140.063 30.2144C141.052 30.1918 142.047 30.1691 143.024 29.9993C143.596 30.1012 144.168 30.2087 144.739 30.3163C148.444 37.7133 152.246 45.0707 156.071 52.4111C154.756 52.4281 153.441 52.4338 152.126 52.3828C151.257 50.4586 150.177 48.6419 149.348 46.695C144.734 46.5988 140.114 46.6554 135.494 46.6667C134.574 48.574 133.51 50.4133 132.687 52.3602C131.372 52.4338 130.057 52.4338 128.742 52.4281C132.447 44.9915 136.358 37.6567 140.063 30.2144ZM136.781 43.82C140.486 43.8539 144.185 43.8482 147.884 43.8256C146.072 40.6732 144.579 37.3567 142.836 34.1704C142.733 33.8818 142.533 33.3045 142.435 33.0159C140.497 36.587 138.948 40.3846 136.781 43.82Z" fill="#525253"/>
<path d="M39.5406 30.3106C40.6612 30.0559 41.8104 29.9484 42.9596 29.9824C41.9819 32.665 40.444 35.1156 39.0718 37.6171L38.4715 38.0416C38.0255 38.0585 37.1336 38.0925 36.6934 38.1038C37.4252 35.4325 38.7745 32.9763 39.5406 30.3106Z" fill="#525253"/>
<path d="M157.719 30.2767C158.188 30.2088 159.125 30.073 159.588 30.0051C159.931 30.056 160.617 30.1635 160.961 30.2145C160.966 36.8248 160.943 43.4352 160.972 50.0455C166.649 50.0569 172.321 50.0059 177.998 50.0738C177.998 50.6568 177.993 51.8226 177.993 52.4056C171.235 52.4339 164.482 52.4395 157.724 52.4056C157.73 45.0255 157.747 37.6511 157.719 30.2767Z" fill="#525253"/>
</svg>
