<svg width="200" height="80" viewBox="0 0 200 80" fill="none" xmlns="http://www.w3.org/2000/svg">
<path d="M56.8783 11.6335H57.409C57.3801 13.1821 57.4148 14.7364 57.4378 16.285C58.0492 16.285 59.272 16.2793 59.8834 16.2793C59.8834 17.3593 59.8834 18.445 59.8834 19.525C59.0586 19.5193 58.2396 19.5193 57.4205 19.5135C57.3917 21.3707 57.3859 23.2221 57.4955 25.0735C58.2626 25.0507 59.0297 25.0221 59.8026 24.9878C59.8719 25.9992 59.9411 27.0107 60.0161 28.0221C57.9281 28.2164 55.2691 28.9592 53.6253 27.2392C52.1372 24.9707 53.037 22.0735 52.7832 19.5307C52.3564 19.525 51.4912 19.5135 51.0586 19.5078C51.0701 18.3878 51.0874 17.2621 51.1163 16.1421C51.5316 16.1421 52.3679 16.1307 52.7832 16.125C52.7947 15.4393 52.8005 14.7478 52.8062 14.0621C54.1963 13.3307 55.6729 12.7364 56.9476 11.8164L56.8783 11.6335Z" fill="#525253"/>
<path d="M87.3496 11.6335H92.4945C92.5061 12.685 92.5118 13.7307 92.5234 14.7821C90.966 14.7878 89.4087 14.8107 87.8572 14.7764C87.8976 13.7307 87.9206 12.685 87.9668 11.6393L87.3496 11.6335Z" fill="#525253"/>
<path d="M111.003 11.6335H115.352C115.853 17.085 115.45 22.5764 115.582 28.045C114.048 28.0678 112.508 28.0678 110.974 28.0735C110.985 22.5935 110.945 17.1135 111.003 11.6335Z" fill="#525253"/>
<path d="M15.3678 11.725C17.6173 11.725 19.8609 11.7021 22.1104 11.7535C22.964 15.0393 23.662 18.3707 24.8271 21.565C25.4154 18.2507 26.4536 15.0335 27.2149 11.7535C29.4529 11.7078 31.6966 11.725 33.9402 11.725C33.946 17.1707 33.9287 22.6107 33.9518 28.0564C32.5617 28.0678 31.1717 28.0678 29.7816 28.0621C29.747 23.9307 29.8912 19.7935 29.6836 15.6678C28.7434 19.8221 27.5841 23.9192 26.5459 28.0507C25.3 28.0621 24.0484 28.1192 22.8025 28.0164C21.6144 24.0507 20.778 19.9935 19.6072 16.0221C19.4341 20.0393 19.5841 24.0564 19.5206 28.0735C18.1364 28.0678 16.7521 28.0678 15.3678 28.0678C15.362 22.6221 15.3678 17.1707 15.3678 11.725Z" fill="#525253"/>
<path d="M77.598 16.1364C78.965 16.1421 80.3319 16.1421 81.6989 16.1364C81.7162 16.5078 81.7508 17.2506 81.7681 17.6278C83.0255 15.9249 85.1539 15.5249 86.9996 16.5364C86.4862 17.5878 85.996 18.6506 85.5288 19.7249C84.3694 19.4049 82.8986 19.3821 82.518 20.7878C81.9527 23.1592 82.218 25.6278 82.1719 28.0392C80.6319 28.0678 79.0919 28.0735 77.5518 28.0678C77.5749 24.0906 77.4884 20.1135 77.598 16.1364Z" fill="#525253"/>
<path d="M95.2975 19.6736C95.3783 17.0736 98.1757 15.9193 100.46 15.9707C102.819 15.9364 105.933 15.6736 107.393 17.9478C108.852 21.1478 107.566 24.765 108.391 28.1078C106.77 27.765 104.174 28.965 103.603 26.7821C101.579 28.445 98.3256 29.0164 96.0993 27.4278C94.2593 26.1878 94.4266 22.9478 96.5376 22.085C98.8332 21.1478 101.365 20.9593 103.724 20.205C103.43 18.4107 101.792 18.605 100.385 18.7993C100.183 19.1021 99.7676 19.7078 99.5657 20.0107C98.1411 19.9078 96.7164 19.7936 95.2975 19.6736ZM99.5773 25.6164C100.621 25.6507 101.873 25.9821 102.715 25.1593C103.511 24.5307 103.522 23.4164 103.649 22.4964C101.988 22.9707 98.764 23.0907 99.5773 25.6164Z" fill="#525253"/>
<path d="M36.6209 19.6621C37.0247 16.9935 39.8048 15.8335 42.2561 15.9535C44.6901 15.8907 48.1451 15.8107 49.1602 18.5421C50.0715 21.6392 48.918 24.9935 50.0023 28.0735C48.3758 27.7421 45.5957 29.0278 45.1746 26.7364C43.0578 28.5078 39.6087 29.0392 37.3361 27.2678C35.5827 25.7764 36.1134 22.7478 38.2878 21.9421C40.4739 21.2221 42.781 20.9135 44.9958 20.285C44.9151 19.7821 44.8343 19.285 44.7536 18.7878C43.3405 18.605 41.7082 18.5078 40.9295 19.965C39.4876 19.9021 38.0514 19.7878 36.6209 19.6621ZM41.5236 23.5078C41.2583 23.9249 40.9987 24.3421 40.7334 24.7592C41.0333 25.1021 41.3275 25.4507 41.6217 25.7992C43.6808 26.1421 45.4111 24.5764 45.0824 22.5021C43.8711 22.7649 42.7002 23.1421 41.5236 23.5078Z" fill="#525253"/>
<path d="M64.6885 16.7307C67.3013 15.5478 70.6524 15.5935 73.0864 17.1878C75.0187 18.5478 75.3878 21.0792 75.4801 23.2564C72.3193 23.3249 69.1585 23.1649 66.0093 23.3592C66.488 24.2735 66.9149 25.6678 68.2184 25.6449C69.2854 25.8392 70.0929 25.0449 70.9177 24.5364C72.3424 24.7307 73.7613 24.9421 75.1859 25.1478C73.0576 28.4964 68.4837 28.9878 64.9826 27.7878C60.5299 26.0107 60.3568 18.7478 64.6885 16.7307ZM66.0554 21.0449C67.6704 21.1135 69.2912 21.1078 70.9062 21.0449C70.3986 20.1135 70.1506 18.6049 68.7779 18.6735C67.1571 18.2849 66.4938 19.8507 66.0554 21.0449Z" fill="#525253"/>
<path d="M87.9043 16.2792C89.4385 16.2792 90.9728 16.2792 92.507 16.3135C92.5128 20.2164 92.5013 24.1192 92.5186 28.0278C90.9786 28.0735 89.4443 28.0735 87.9043 28.0735C87.9043 24.1421 87.9043 20.2107 87.9043 16.2792Z" fill="#525253"/>
<path d="M23.8581 37.3421C23.7312 34.8964 26.0614 33.1078 28.3281 32.8221C30.7564 32.4678 33.4615 32.4278 35.6129 33.7707C36.8934 34.5992 37.3144 36.1364 37.6605 37.5135C36.1032 37.5992 34.5459 37.6564 32.9886 37.7135C32.4695 35.7078 30.4911 35.4849 28.7434 35.9192C28.68 36.4621 28.6165 37.0049 28.5531 37.5421C31.2294 38.6792 34.4363 38.6392 36.7377 40.5821C39.0563 42.7192 38.2892 46.8906 35.6014 48.3992C32.9886 49.8392 29.7586 49.7249 26.9381 48.9821C24.6829 48.3421 23.4832 46.0621 23.1602 43.9078C24.7348 43.7706 26.3036 43.5878 27.8725 43.4335C28.2589 44.7421 29.0607 46.3535 30.6872 46.2564C31.8696 46.5135 32.7521 45.6964 33.4096 44.8506C32.6656 42.4278 29.747 42.7135 27.8148 41.8907C25.7903 41.2907 23.6216 39.6792 23.8581 37.3421Z" fill="#525253"/>
<path d="M55.9395 32.9593C57.4737 32.9193 59.0079 32.9193 60.5422 32.9193C60.5422 38.3535 60.5422 43.7821 60.5422 49.2164C59.0079 49.2164 57.4737 49.2164 55.9395 49.1707C55.9568 43.765 55.951 38.365 55.9395 32.9593Z" fill="#525253"/>
<path d="M83.745 33.205C83.9238 33.1536 84.2814 33.0564 84.4545 33.005C84.4487 34.4164 84.4487 35.8279 84.4372 37.2393C85.2677 37.3364 86.1041 37.4279 86.9404 37.5079C86.9231 38.5593 86.9173 39.6164 86.9116 40.6679C86.0983 40.6679 85.285 40.6621 84.4718 40.6621C84.4314 42.5136 84.4141 44.3707 84.541 46.2221C85.3081 46.1993 86.0695 46.1707 86.8366 46.1364C86.9 47.1364 86.9692 48.1364 87.0385 49.1364C85.0312 49.3993 82.7299 49.9536 80.9303 48.7421C79.0038 46.645 80.1516 43.485 79.869 40.9193C79.4422 40.8279 78.5828 40.6507 78.1502 40.5593C78.156 39.5593 78.156 38.5593 78.1387 37.5593C78.554 37.4621 79.3903 37.2736 79.8113 37.1764C79.8229 36.5193 79.8633 35.8679 79.9325 35.2164C81.1553 34.4621 82.4876 33.8907 83.745 33.205Z" fill="#525253"/>
<path d="M89.207 32.925C90.7413 32.925 92.2698 32.925 93.7982 32.925C93.7982 33.9307 93.7982 34.9364 93.7982 35.9421C92.2698 35.9421 90.7413 35.9421 89.2128 35.9421C89.2128 34.9364 89.207 33.9307 89.207 32.925Z" fill="#525253"/>
<path d="M112.24 37.2792C113.618 37.2907 114.991 37.2907 116.369 37.2792C116.398 37.7249 116.45 38.6221 116.479 39.0678C118.042 37.4792 120.568 36.3935 122.697 37.5364C124.421 38.2278 124.744 40.2392 124.819 41.8678C124.854 44.3078 124.802 46.7421 124.831 49.1821C123.296 49.2106 121.762 49.2164 120.234 49.2106C120.188 46.7649 120.326 44.3078 120.165 41.8678C119.951 40.9249 118.936 40.7992 118.198 40.4621C117.679 41.0507 116.796 41.5249 116.848 42.4278C116.71 44.6792 116.819 46.9421 116.79 49.1992C115.256 49.2106 113.722 49.2106 112.188 49.2106C112.216 45.2335 112.124 41.2564 112.24 37.2792Z" fill="#525253"/>
<path d="M43.6058 37.6906C46.1091 36.6735 49.1602 36.9364 51.3809 38.5021C54.6455 40.9421 54.2417 46.6906 50.5849 48.5821C47.4068 50.2106 42.608 49.7535 40.6988 46.4335C38.7781 43.4164 40.2316 38.9649 43.6058 37.6906ZM45.5323 46.2906C46.2821 46.2678 47.0607 46.4164 47.7875 46.1821C50.1465 44.4792 49.1141 39.2506 45.5842 40.3535C44.0672 42.0335 44.0384 44.5764 45.5323 46.2906Z" fill="#525253"/>
<path d="M63.4481 37.4621C64.9823 37.4335 66.5223 37.4335 68.0623 37.4335C68.1719 40.1992 67.7336 43.0221 68.4603 45.7307C69.3889 45.7192 70.7559 46.1364 71.2058 45.0164C71.7653 42.5421 71.3731 39.965 71.4827 37.4507C73.0111 37.4392 74.5454 37.4335 76.0739 37.4392C76.0739 41.3592 76.0739 45.285 76.0739 49.2107C74.6607 49.2107 73.2534 49.2107 71.8403 49.2107C71.8345 48.7992 71.8287 47.965 71.823 47.5535C70.2945 49.0678 67.9297 50.0335 65.8244 49.165C64.221 48.7078 63.5288 46.9307 63.4711 45.4164C63.4077 42.765 63.4769 40.1135 63.4481 37.4621Z" fill="#525253"/>
<path d="M89.207 37.4393C90.7355 37.4393 92.264 37.4393 93.7982 37.4393C93.804 41.3593 93.7867 45.2793 93.804 49.1993C92.2698 49.2107 90.7413 49.2107 89.207 49.2107C89.2128 45.285 89.2128 41.365 89.207 37.4393Z" fill="#525253"/>
<path d="M99.6227 37.8221C102.224 36.6735 105.517 36.8278 107.819 38.5764C110.697 40.8335 110.714 45.6792 107.842 47.9535C106.198 49.5078 103.793 49.3649 101.693 49.2735C98.5498 49.2049 95.9716 46.1192 96.2196 43.0678C96.2196 40.8564 97.6501 38.7935 99.6227 37.8221ZM101.653 40.7535C100.482 42.1935 100.459 44.5421 101.705 45.9421C102.495 46.6564 103.643 46.2049 104.577 46.1306C105.604 44.3878 105.604 42.3192 104.612 40.5649C103.637 40.4564 102.489 40.0335 101.653 40.7535Z" fill="#525253"/>
<path d="M127.385 39.5878C128.983 36.7478 132.888 36.8392 135.702 37.3249C137.364 37.5649 138.413 38.9135 139.111 40.302C137.704 40.4163 136.297 40.542 134.889 40.6335C134.237 40.1135 133.522 39.6849 132.801 39.2792C132.19 39.5306 130.454 40.4792 131.752 41.062C133.741 41.7935 136.054 41.4278 137.883 42.6506C139.901 43.7649 139.873 46.9592 138.004 48.2163C135.662 49.8677 132.49 49.6677 129.808 49.0963C128.262 48.8449 127.385 47.422 126.555 46.262C127.979 45.5478 129.606 45.6506 131.152 45.542C132.005 47.3649 134.387 47.3078 135.604 45.9078C133.528 43.8163 129.808 45.1592 127.916 42.782C127.045 41.9592 127.195 40.6563 127.385 39.5878Z" fill="#525253"/>
<path d="M109.632 58.6735C110.301 58.5249 110.97 58.3764 111.639 58.2335C111.697 58.5021 111.812 59.0392 111.87 59.3078C111.408 59.3935 110.485 59.5592 110.024 59.6449C110.278 60.0221 110.785 60.7707 111.039 61.1478C112.314 60.6164 112.683 59.1649 113.675 58.3135C114.148 58.4278 115.088 58.6507 115.561 58.7649C114.858 59.2621 114.171 59.7592 113.479 60.2564C113.848 60.5192 114.586 61.0392 114.956 61.3021C115.521 61.0164 116.092 60.7421 116.669 60.4792C116.478 62.1992 116.167 63.9078 115.769 65.5935C115.446 65.5821 114.8 65.5535 114.477 65.5421C114.563 64.3421 115.446 63.0621 114.811 61.9078C114.54 61.8564 114.01 61.7592 113.739 61.7135C112.631 63.5307 113.058 65.9249 111.651 67.6335H109.626C110.128 67.0678 110.653 66.5192 111.195 65.9878C111.529 64.5535 111.818 63.1078 111.997 61.6507C111.501 61.6792 110.509 61.7421 110.013 61.7707C109.453 63.7307 109.459 65.9421 108.184 67.6335H106.125C106.644 67.0735 107.175 66.5249 107.723 65.9878C108.126 64.4278 108.582 62.8049 108.173 61.1935C108.692 60.3764 109.17 59.5307 109.632 58.6735Z" fill="#525253"/>
<path d="M27.3574 58.8278C27.6861 58.6849 28.3437 58.4049 28.6724 58.2621C28.3321 60.7021 27.8188 63.1192 27.2766 65.5249C26.9882 65.5364 26.4114 65.5592 26.123 65.5707C26.3076 63.2907 26.8613 61.0564 27.3574 58.8278Z" fill="#525253"/>
<path d="M29.8866 58.8563C30.1807 58.7992 30.769 58.6735 31.0632 58.6163C31.1151 58.9078 31.2189 59.502 31.2709 59.7992C30.9652 59.8563 30.3538 59.9706 30.0481 60.0278C31.5073 61.6392 30.1173 63.7649 29.8923 65.622C29.5809 65.5992 28.9579 65.5535 28.6465 65.5306C28.9406 64.1306 29.206 62.7249 29.529 61.3306C30.1231 60.5992 29.9269 59.702 29.8866 58.8563Z" fill="#525253"/>
<path d="M46.6168 58.7707C47.1647 58.7764 47.7184 58.7821 48.2664 58.7878C47.8972 59.6164 47.407 60.4393 47.4877 61.3764C47.2339 62.7993 47.0032 64.2278 46.6456 65.6278C46.3169 65.5993 45.6593 65.5478 45.3305 65.5193C45.7401 64.1478 46.1438 62.6564 45.319 61.3478C43.4502 62.005 43.1388 63.845 42.9484 65.5307C42.6312 65.5478 41.991 65.5764 41.668 65.5878C41.8698 63.9307 42.2448 62.3021 42.6081 60.6678C43.3983 60.6735 44.1827 60.6621 44.9729 60.6564C45.3536 60.9421 45.7689 61.1364 46.213 61.245C46.5591 60.4678 46.5014 59.5935 46.6168 58.7707Z" fill="#525253"/>
<path d="M115.727 58.7707C116.073 58.7592 116.771 58.7307 117.117 58.7192C117.083 59.0107 117.025 59.5992 116.99 59.8964C116.656 59.9192 115.987 59.9649 115.646 59.9935C115.67 59.6849 115.71 59.0735 115.727 58.7707Z" fill="#525253"/>
<path d="M122.809 58.8335C123.369 58.782 123.934 58.7478 124.499 58.7363C124.188 59.4106 123.813 60.0735 122.959 60.182C124.401 61.7363 123 63.9249 122.723 65.7135C122.013 65.7478 120.537 65.5478 120.906 64.5192C121.136 64.4906 121.604 64.4335 121.84 64.3992C122.175 63.2849 122.019 62.0849 121.333 61.1363L121.102 61.8906C119.325 60.742 118.495 63.0392 118.564 64.3763C119.291 64.6106 120.317 64.8563 120.133 65.8449C119.256 65.7649 118.379 65.6563 117.514 65.5249C117.076 63.6506 117.382 61.5992 119.152 60.5249C119.689 60.5478 120.231 60.5763 120.773 60.6106C121.073 60.7592 121.673 61.0678 121.973 61.2163C123.242 61.1763 122.694 59.662 122.809 58.8335Z" fill="#525253"/>
<path d="M158.468 58.5078C158.773 58.5421 159.385 58.6107 159.69 58.645C159.24 60.9421 158.71 63.2278 158.277 65.5307C157.966 65.5535 157.349 65.5878 157.037 65.6107C157.389 63.2164 157.827 60.8392 158.468 58.5078Z" fill="#525253"/>
<path d="M170.384 58.7135C170.707 58.7249 171.359 58.7478 171.687 58.7592C171.664 59.0278 171.63 59.5649 171.607 59.8335C171.289 59.8849 170.649 59.9878 170.332 60.0392C170.344 59.7078 170.367 59.0449 170.384 58.7135Z" fill="#525253"/>
<path d="M15.4362 58.8106C16.9531 58.7535 18.4816 58.822 19.8774 59.4735C20.0908 60.1078 20.3043 60.7363 20.5177 61.3649C20.1889 62.5478 20.0562 63.9192 19.018 64.742C17.6453 65.9649 15.6727 65.4792 14 65.5706C14.3691 63.2963 14.8767 61.0449 15.4362 58.8106ZM16.6128 59.7992C16.1745 61.4049 15.8803 63.0449 15.7361 64.7078C17.9913 64.7363 19.3295 62.6449 18.9546 60.5592C18.1817 60.2735 17.403 60.022 16.6128 59.7992Z" fill="#525253"/>
<path d="M166.917 59.3649C167.696 59.302 168.013 59.7877 168.007 60.582C168.284 60.622 168.849 60.6963 169.126 60.7306C168.751 61.4963 167.932 61.8106 167.402 62.4277C167.223 63.1135 167.096 63.8163 166.958 64.5135C167.332 64.5763 168.088 64.6963 168.469 64.7592C167.823 65.7192 166.935 66.0163 165.798 65.6506C165.568 64.2106 166.583 62.5306 165.516 61.2963C166 60.662 166.467 60.022 166.917 59.3649Z" fill="#525253"/>
<path d="M55.661 60.5021C56.7511 60.5993 57.847 60.6736 58.9429 60.7193C58.268 63.0164 58.6891 66.085 56.5146 67.6336H54.1729C54.0344 67.3536 53.7576 66.7878 53.6191 66.5021C54.8477 66.4107 56.1108 66.3536 57.2471 65.8107C56.1685 65.725 55.0842 65.645 54.0056 65.5764C53.5961 63.6907 53.971 61.645 55.661 60.5021ZM55.9782 61.7421C55.1361 62.5479 55.2168 63.725 55.2111 64.7821C56.6242 64.7079 57.1087 63.445 57.5701 62.3307C57.0914 61.9821 56.6357 61.3136 55.9782 61.7421Z" fill="#525253"/>
<path d="M84.7612 60.7421C85.1418 60.685 85.5225 60.6335 85.9032 60.5992C86.0185 62.3135 85.3841 63.9592 85.0668 65.6221C83.7748 65.0392 82.4829 65.965 81.1562 65.6507C81.2428 63.9135 80.764 60.8335 83.0135 60.4621C82.8289 61.9135 82.5348 63.3478 82.3848 64.805C84.4728 64.6107 84.4093 62.2735 84.7612 60.7421Z" fill="#525253"/>
<path d="M87.5461 60.6678C88.296 60.6964 89.0689 61.1249 89.7437 60.4849C90.234 60.8621 90.7185 61.2506 91.1914 61.6449C91.8086 60.3421 93.2159 60.5535 94.4041 60.5421C94.4445 60.8506 94.5252 61.4621 94.5656 61.7706C93.7696 61.7935 92.6795 61.2735 92.1835 62.1764C91.8778 62.9192 91.7336 63.7135 91.5779 64.5021C92.4892 64.5306 93.4005 64.5535 94.3118 64.5764C93.5101 65.8335 91.2433 66.4106 90.4531 64.8678C90.3263 63.9306 90.4301 63.0106 90.7646 62.1078C90.2513 62.1249 89.2361 62.1478 88.7286 62.1649C88.2556 63.2449 88.0018 64.3992 87.7999 65.5535C87.3212 65.5135 86.854 65.5192 86.3926 65.5821C86.8655 63.9649 87.0097 62.2678 87.5461 60.6678Z" fill="#525253"/>
<path d="M130.532 60.6564C131.64 60.685 132.747 60.6221 133.855 60.5878C134.42 61.1992 135.008 61.7935 135.585 62.3992C135.977 61.6507 136.502 61.005 137.165 60.4621C138.18 60.5821 139.588 60.3364 139.501 61.7821C138.982 61.7478 137.932 61.6735 137.408 61.6392C137.217 61.9821 136.831 62.6735 136.64 63.0164C136.617 63.525 136.6 64.0392 136.583 64.5535C137.465 64.5421 138.359 64.5364 139.247 64.5421C138.388 65.8907 136.865 65.885 135.493 65.5364C135.331 64.1992 135.348 62.7935 134.587 61.6221C134.322 62.965 134.085 64.3135 133.71 65.6278C133.399 65.605 132.782 65.5478 132.47 65.525C132.77 64.1878 133.036 62.8392 133.128 61.4735C131.132 61.805 131.126 64.0564 130.723 65.5707C130.411 65.5707 129.794 65.5707 129.488 65.5707C129.742 63.9135 130.059 62.2678 130.532 60.6564Z" fill="#525253"/>
<path d="M153.322 60.6335C154.297 60.5078 155.67 60.2678 156.189 61.3478C157.446 63.6792 154.712 66.8964 152.122 65.5364C150.559 64.1821 151.592 61.4049 153.322 60.6335ZM153.386 61.7021C153.057 62.6392 152.78 63.5935 152.676 64.5821C153.213 64.5935 153.749 64.5707 154.291 64.5249C155.139 63.7935 154.96 62.6449 155.024 61.6564C154.476 61.6678 153.928 61.6792 153.386 61.7021Z" fill="#525253"/>
<path d="M163.711 60.6278C164.016 60.6335 164.628 60.6506 164.928 60.6621C164.674 62.2792 164.264 63.8735 163.999 65.4906C162.701 65.5135 161.409 65.6735 160.117 65.7135C159.858 63.8506 160.117 61.9192 160.988 60.2392C162.644 61.3421 160.908 63.3363 161.294 64.8792C163.29 64.3821 163.238 62.1935 163.711 60.6278Z" fill="#525253"/>
<path d="M178.215 61.0678C178.347 60.9535 178.618 60.7192 178.757 60.5992C179.755 61.3021 180.879 60.4221 181.969 60.5535C182.569 61.8507 182.068 63.2564 181.9 64.5878C182.915 64.5192 183.919 64.5478 184.871 64.9878C184.928 64.725 185.055 64.1935 185.113 63.9307C184.242 63.5307 182.823 62.5478 183.654 61.5078C184.179 60.245 186.814 59.965 186.999 61.5592C186.382 61.5707 185.153 61.5878 184.542 61.5992C185.269 62.4792 186.117 63.2507 186.832 64.1478C186.093 65.7078 184.19 66.2221 182.702 65.4049C181.9 65.4221 181.116 65.5192 180.326 65.5935C180.677 64.205 180.989 62.7878 180.914 61.3421C179.062 61.9535 179.097 63.9192 178.561 65.4392L177.338 65.7135C177.551 64.1478 177.949 62.6221 178.215 61.0678Z" fill="#525253"/>
<path d="M21.2114 65.5935C20.2943 63.6907 21.096 61.5135 22.9244 60.4964C23.4436 60.5307 24.4818 60.605 25.0009 60.645C25.1854 60.9535 25.5661 61.5764 25.7565 61.8907C25.5546 62.2164 25.1566 62.8621 24.9605 63.1878C24.0146 63.3021 23.0686 63.3935 22.1169 63.4735C22.1689 63.765 22.2669 64.3478 22.3188 64.6393C23.1782 64.5993 24.0376 64.5421 24.8913 64.4678C24.8163 64.7535 24.6663 65.3192 24.5856 65.605C23.4666 65.7421 22.3304 65.7478 21.2114 65.5935ZM22.4053 62.0678C22.4976 63.0793 24.2164 62.8507 24.326 61.9478C24.2337 60.9593 22.5784 61.2678 22.4053 62.0678Z" fill="#525253"/>
<path d="M32.2622 65.6678C32.4006 63.8907 30.7568 61.5021 32.5909 60.2621C33.0235 61.5878 33.2254 62.9707 33.4734 64.3421C34.4424 63.0678 34.3155 60.4678 36.3689 60.5249C35.6133 62.4964 35.0307 65.8964 32.2622 65.6678Z" fill="#525253"/>
<path d="M36.8117 65.605C35.8542 63.725 36.6848 61.4964 38.5016 60.4964C39.015 60.5307 40.0301 60.605 40.5434 60.6393C40.7396 60.9478 41.1433 61.5707 41.3394 61.885C41.1375 62.2107 40.7223 62.8621 40.5146 63.1878C39.5687 63.3021 38.6228 63.3993 37.6768 63.4793C37.7345 63.7707 37.8441 64.3593 37.9018 64.6507C38.7785 64.5993 39.661 64.5364 40.5377 64.4507C40.4396 64.7421 40.2435 65.3192 40.1455 65.605C39.038 65.7421 37.9191 65.7421 36.8117 65.605ZM38.2017 61.6907C37.3481 62.6164 39.2168 63.1307 39.684 62.3707C40.4858 61.3935 38.7035 60.9993 38.2017 61.6907Z" fill="#525253"/>
<path d="M48.0527 65.5993C48.2834 63.8678 48.693 62.1707 49.0852 60.4678C49.362 60.6221 49.9273 60.925 50.2099 61.0793C50.9886 60.6678 51.8422 60.4278 52.7305 60.6107C53.3245 62.2507 52.6382 63.9478 52.344 65.5764L51.0405 65.565C51.3173 64.1878 51.6288 62.8164 51.6922 61.405C49.7312 61.8678 49.685 63.9593 49.3159 65.5364C48.9987 65.5478 48.37 65.5821 48.0527 65.5993Z" fill="#525253"/>
<path d="M61.8789 65.5992C62.0692 63.8563 62.4672 62.1535 62.8825 60.4506C63.1651 60.5992 63.7246 60.8963 64.0072 61.0449C64.4283 60.8792 65.2819 60.5421 65.703 60.3763C66.2221 61.7935 64.6532 61.8221 63.8977 62.3535C63.6093 63.4106 63.3439 64.4678 63.1075 65.5306C62.796 65.5478 62.1846 65.5821 61.8789 65.5992Z" fill="#525253"/>
<path d="M65.7026 63.6278C65.8353 61.3764 67.9982 59.9821 70.1611 60.6049C70.2592 61.3307 70.3457 62.0564 70.4092 62.7878C69.3594 63.2278 68.2347 63.4278 67.1042 63.5021C67.1388 63.7821 67.2138 64.3478 67.2484 64.6278C68.2001 64.5878 69.1575 64.5592 70.115 64.5307C69.2556 66.5478 65.1662 66.1764 65.7026 63.6278ZM67.8136 61.4278C66.5678 62.0107 67.7963 63.2964 68.725 62.6107C69.965 62.1135 68.6903 60.5364 67.8136 61.4278Z" fill="#525253"/>
<path d="M71.5571 61.4678C72.1397 60.2392 74.764 59.9992 74.9659 61.6049C74.3545 61.5878 73.1375 61.5535 72.5319 61.5364C73.0798 62.7306 75.0409 63.3021 74.2449 64.8506C73.4259 66.0621 71.8397 65.7192 70.5939 65.6849C70.5766 64.0963 72.1454 64.7821 73.1779 64.7878C72.9126 63.5878 70.4555 62.8449 71.5571 61.4678Z" fill="#525253"/>
<path d="M75.3117 64.2107C75.0579 62.6621 75.9808 61.3249 77.2266 60.4907C78.1899 60.6221 79.5684 60.3135 80.0644 61.3992C80.5778 62.9764 79.9433 65.3764 78.0688 65.6964C76.9671 66.0278 75.2137 65.6449 75.3117 64.2107ZM77.2555 61.6907C76.9267 62.6278 76.6383 63.5764 76.5172 64.5649C77.0709 64.5821 77.6304 64.5707 78.1899 64.5307C78.9339 63.7535 78.8762 62.6564 78.8936 61.6621C78.3456 61.6678 77.8034 61.6792 77.2555 61.6907Z" fill="#525253"/>
<path d="M94.5312 64.1936C94.7793 62.7021 95.3964 61.2793 96.7749 60.5021C97.2883 60.5307 98.3207 60.5993 98.8341 60.6336C99.0417 60.9707 99.4685 61.6564 99.6762 61.9993C98.984 63.5193 97.2537 63.3821 95.8521 63.5364C95.8982 65.3821 97.8305 64.325 98.8802 64.4793C98.7418 64.765 98.4707 65.3478 98.338 65.6336C97.2998 65.7307 96.2558 65.7364 95.2234 65.605C95.0504 65.2507 94.7043 64.5479 94.5312 64.1936ZM96.6423 61.5879C95.7886 62.4507 97.4267 63.2278 97.9516 62.3821C98.7014 61.5079 97.1672 60.6679 96.6423 61.5879Z" fill="#525253"/>
<path d="M102.56 64.9307C102.191 63.2049 102.912 61.4621 104.383 60.4907C105.381 60.5764 106.517 60.4335 107.221 61.3078C107.682 63.4735 104.925 63.4049 103.512 63.5535C103.852 65.2449 105.721 64.3535 106.88 64.6049C105.998 65.9878 103.547 66.3421 102.56 64.9307ZM104.637 61.4907C103.368 61.9821 104.689 63.2792 105.531 62.5478C106.725 62.0107 105.438 60.8964 104.637 61.4907Z" fill="#525253"/>
<path d="M124.396 64.9306C123.975 63.182 124.811 61.4792 126.253 60.4792C127.24 60.582 128.376 60.4392 129.068 61.3135C129.512 63.3706 126.974 63.462 125.573 63.4906C125.596 63.7535 125.636 64.2849 125.659 64.5535C126.674 64.582 127.69 64.5649 128.705 64.6106C127.828 66.0163 125.394 66.3135 124.396 64.9306ZM126.017 62.0849C126.109 63.022 127.632 62.6906 127.805 61.9478C127.684 61.0678 126.138 61.3078 126.017 62.0849Z" fill="#525253"/>
<path d="M139.94 60.3478C141.826 60.6163 141.388 62.8106 141.907 64.0849C142.662 62.7192 142.806 60.6678 144.693 60.3535C144.07 63.0849 142.432 65.4049 140.799 67.6335H139.352C141.607 65.6621 139.951 62.8106 139.94 60.3478Z" fill="#525253"/>
<path d="M147.524 61.7649C148.049 60.3135 150.893 59.8278 151.152 61.6449C150.581 61.6049 149.434 61.5306 148.857 61.4906C148.961 62.3763 149.653 62.8221 150.414 63.1649C150.426 63.7649 150.529 64.3878 150.362 64.9821C149.462 66.0563 147.945 65.7135 146.723 65.6678C146.74 64.0849 148.303 64.7821 149.347 64.7763C148.966 63.6392 147.248 63.1249 147.524 61.7649Z" fill="#525253"/>
<path d="M169.139 65.6164C169.317 63.9878 169.491 62.3192 170.108 60.7821L171.227 60.4849C171.042 62.1706 170.684 63.8335 170.396 65.5078C170.085 65.5363 169.456 65.5878 169.139 65.6164Z" fill="#525253"/>
<path d="M171.854 64.8164C171.45 63.2221 172.131 61.3135 173.717 60.6335C174.53 60.5649 175.355 60.5478 176.174 60.5821C176.549 61.5764 177.195 62.6507 176.595 63.7078C176.226 65.7706 173.019 66.6392 171.854 64.8164ZM173.238 64.6507C173.856 64.5821 174.479 64.5021 175.101 64.4164C175.257 63.4449 175.326 62.4621 175.286 61.4792C173.429 61.3821 173.054 63.1878 173.238 64.6507Z" fill="#525253"/>
</svg>
