<svg width="200" height="80" viewBox="0 0 200 80" fill="none" xmlns="http://www.w3.org/2000/svg">
<path d="M99.829 1H100.114C104.431 1.08541 108.746 2.53018 112.125 5.24892C116.748 8.86797 119.668 14.6827 119.494 20.5899C119.608 25.7035 117.413 30.7745 113.771 34.3366C110.183 37.9627 105.104 40.0516 100.003 40.0018C94.9101 40.0374 89.8454 37.9414 86.2709 34.3152C82.5364 30.6677 80.3917 25.4366 80.534 20.2162C80.5553 14.8926 82.9668 9.65797 86.9289 6.11721C90.4038 2.88604 95.1093 1.11743 99.829 1ZM96.1159 2.83977C95.28 4.83968 94.9208 7.04243 94.2273 9.10639C94.1703 9.39108 94.117 9.67221 94.0601 9.95689C95.8384 10.4942 97.5848 11.1277 99.3738 11.6187C99.3845 8.57261 99.3702 5.53004 99.3845 2.48392C98.2925 2.53018 97.1651 2.49459 96.1159 2.83977ZM101.895 2.49459C102.834 3.72941 103.713 5.01049 104.655 6.24176C105.641 5.92504 106.128 4.76851 106.964 4.16712C106.971 4.06392 106.989 3.85752 106.999 3.75077C105.353 3.13869 103.652 2.64761 101.895 2.49459ZM94.7785 3.18851C91.9261 4.03545 89.255 5.5941 87.1992 7.7577C88.0137 7.98901 88.8211 8.24878 89.6249 8.51567C90.8804 8.90712 92.143 9.28432 93.3701 9.76829C93.7578 8.66513 94.0494 7.53351 94.366 6.40901C94.5794 5.55495 94.8141 4.70802 95.1271 3.88955C95.1413 3.53013 95.1449 3.17072 95.1449 2.81486C95.056 2.90739 94.871 3.09599 94.7785 3.18851ZM100.8 3.37C100.679 5.43396 100.942 7.51572 100.64 9.56901C100.711 9.83946 100.85 10.3875 100.917 10.6579C101.728 9.4409 102.874 8.51212 103.83 7.4232C102.82 6.07094 101.874 4.67243 100.8 3.37ZM108.233 4.63685C107.497 5.66527 106.508 6.46595 105.719 7.44099C107.01 9.90707 109.105 11.9212 110.485 14.3624C110.961 12.7005 110.769 10.9533 111.1 9.27009C111.161 8.28081 111.285 7.29509 111.257 6.30581C110.318 5.66171 109.436 4.68667 108.233 4.63685ZM111.932 6.81468C111.637 9.30567 111.509 11.8109 111.214 14.3019C112.317 12.7931 113.387 11.2593 114.55 9.79675C113.914 8.61887 112.839 7.77549 111.932 6.81468ZM86.5377 8.68293C86.6231 8.77901 86.7938 8.97117 86.8791 9.06725C86.9858 9.56545 87.089 10.0672 87.2206 10.5583C87.9106 13.2059 88.6077 15.8499 89.2621 18.5045C89.5609 19.5472 89.8347 20.597 90.0553 21.661C90.5354 20.0027 91.0049 18.3409 91.4815 16.6826C92.0008 14.6613 92.6765 12.6827 93.1105 10.6401C90.8804 10.1277 88.782 9.14554 86.5377 8.68293ZM101.099 12.1418C103.791 13.1098 106.508 14.0457 109.272 14.7752C107.689 12.7183 106.178 10.601 104.641 8.50856C103.432 9.69356 102.411 11.0636 101.099 12.1418ZM83.0059 14.188C82.7178 15.0207 82.4688 15.8641 82.2732 16.7217C84.5139 18.3337 86.7155 19.992 88.942 21.6218C88.7144 20.0739 88.2271 18.5864 87.8501 17.0704C87.1921 14.4407 86.4879 11.818 85.8157 9.1918C84.6918 10.7433 83.6888 12.3909 83.0059 14.188ZM111.765 15.3374C111.683 15.4015 111.523 15.5332 111.442 15.5972C112.149 15.7894 112.85 16.0171 113.554 16.2306C114.266 16.4797 114.984 16.7182 115.71 16.9423C116.464 17.1914 117.225 17.4299 117.989 17.6576C117.84 16.9388 117.662 16.2271 117.513 15.5118C117.385 15.1524 117.26 14.7894 117.143 14.4264C116.905 13.85 116.663 13.2806 116.428 12.7041C116.04 11.9959 115.646 11.2878 115.262 10.5725C114.031 12.1098 112.882 13.7183 111.765 15.3374ZM93.6084 11.0565C93.0642 13.6934 92.175 16.2449 91.5206 18.8568C91.3321 19.5152 91.1649 20.1842 90.8484 20.7998C91.4708 20.6254 91.8585 20.0632 92.2924 19.6255C94.4407 17.2377 96.7134 14.9638 98.9256 12.6329C97.1722 12.0707 95.4508 11.2664 93.6084 11.0565ZM100.772 23.6253C101.903 23.7463 103.03 23.9064 104.168 23.942C105.964 21.4724 107.778 19.0205 109.564 16.5438C109.667 16.4691 109.873 16.3125 109.98 16.2377C108.258 15.526 106.452 15.0527 104.695 14.4513C103.382 14.0421 102.084 13.5937 100.775 13.1774C100.775 16.6577 100.782 20.1415 100.772 23.6253ZM91.1045 22.7997C93.3772 22.9421 95.6321 23.2695 97.9084 23.3691C98.3957 23.4509 98.883 23.5221 99.3738 23.5791C99.3773 20.4297 99.3951 17.2804 99.3631 14.1311C96.5676 16.9779 93.8929 19.9422 91.1045 22.7997ZM105.37 23.9776C106.811 24.2481 108.276 24.3121 109.738 24.3904C109.802 22.0275 110.289 19.6931 110.204 17.3231C108.667 19.5935 107.017 21.7855 105.37 23.9776ZM112.587 17.042C114.187 19.2518 115.834 21.4297 117.413 23.6573C117.545 23.6858 117.801 23.7427 117.929 23.7748C118.075 22.0987 118.484 20.3799 118.014 18.7181C116.183 18.2341 114.422 17.5153 112.587 17.042ZM110.965 17.2555C110.851 19.6895 110.403 22.0987 110.403 24.5399C111.691 24.6075 112.982 24.6929 114.269 24.8103C115.094 24.9776 115.937 24.9918 116.777 25.0131C114.796 22.4617 113.021 19.75 110.965 17.2555ZM82.0243 18.1807C81.9104 19.4654 81.8855 20.7571 81.9674 22.0453C83.8702 22.1699 85.773 22.33 87.6829 22.3229C85.7588 20.9991 83.8915 19.5863 82.0243 18.1807ZM82.0171 23.1022C82.3195 25.0131 82.9881 26.8245 83.6781 28.6215C85.3889 27.0486 86.8293 25.216 88.501 23.604C87.7221 23.5541 86.9396 23.5221 86.1749 23.3655C84.7914 23.2695 83.4043 23.1627 82.0171 23.1022ZM99.3702 29.2265C99.388 27.6856 99.3702 26.1483 99.3845 24.611C96.9801 24.2659 94.5438 24.1164 92.1181 23.9491C94.5331 25.7106 96.8877 27.5646 99.3702 29.2265ZM90.9089 24.8317C91.5277 27.2052 92.1466 29.5788 92.7655 31.9523C93.299 31.8669 93.836 31.7744 94.3695 31.6748C95.7922 31.2477 97.2504 30.9453 98.6838 30.5503C96.1479 28.5717 93.5657 26.643 90.9089 24.8317ZM100.779 24.6751C100.772 25.9953 100.768 27.3155 100.807 28.6393C101.497 27.2906 102.813 26.2907 103.222 24.8068C102.404 24.7676 101.593 24.7249 100.779 24.6751ZM104.62 25.0274C103.468 26.6892 102.223 28.2835 101.074 29.9489C101.679 29.7959 102.287 29.6535 102.898 29.5147C103.837 29.2514 104.78 29.0094 105.733 28.7995C106.957 28.4756 108.191 28.1838 109.411 27.8493C109.464 27.038 109.517 26.2231 109.557 25.4117C107.903 25.3832 106.277 25.0416 104.62 25.0274ZM89.7245 25.1163C89.1092 27.9276 87.9035 30.6286 87.6225 33.4967L88.2271 33.1017C88.469 33.3153 88.7144 33.5288 88.9598 33.7387C88.6575 33.7957 88.0528 33.9095 87.7505 33.9665C89.3973 35.2654 91.1151 36.4895 93.0678 37.2866C92.7014 35.8525 92.3529 34.4113 91.9545 32.9843C91.108 33.1267 90.2544 33.2619 89.4506 33.575C89.1447 33.4007 88.8424 33.2263 88.5401 33.0484C89.6213 32.8491 90.6812 32.5644 91.7589 32.3402C91.3855 30.504 90.8271 28.7141 90.3931 26.8921C90.2189 26.2836 90.1904 25.5968 89.7245 25.1163ZM110.055 27.6749C111.9 27.312 113.689 26.7106 115.542 26.3618L115.418 26.1697C115.713 26.1092 116.304 25.9918 116.599 25.9348C114.568 25.7604 112.498 25.8921 110.503 25.4117C109.976 26.0416 110.165 26.9205 110.055 27.6749ZM84.4357 29.8279C85.1541 30.9809 86.0077 32.0413 86.8791 33.0804C87.0712 32.326 87.2953 31.5822 87.4944 30.8314C88.0777 28.8564 88.5686 26.86 89.1874 24.8993C87.594 26.5327 86.0149 28.1803 84.4357 29.8279ZM115.646 26.8956C113.85 27.4792 111.982 27.7888 110.175 28.3297C109.478 29.8136 109.916 31.689 109.589 33.3117C108.625 31.8883 109.343 30.1197 109.219 28.5432C106.576 29.2051 103.944 29.899 101.298 30.5396C103.564 32.6463 106.267 34.2191 108.657 36.187C108.461 35.2547 109.446 33.6391 108.298 33.2192C108.71 33.3508 109.13 33.4718 109.542 33.6035C109.418 34.4398 109.368 35.2867 109.343 36.1301C112.871 33.9345 115.731 30.6108 117.111 26.6643C116.745 26.7213 116.012 26.8387 115.646 26.8956ZM95.6962 31.9345C94.7857 32.1836 93.8716 32.4292 92.9504 32.6285C93.0535 33.1017 93.1567 33.5715 93.2847 34.0412C93.5942 35.2298 93.9143 36.4183 94.2415 37.6069C95.6997 35.4291 97.3287 33.3722 98.8296 31.2264C97.7733 31.4186 96.7383 31.689 95.6962 31.9345ZM100.779 38.6424C103.13 38.5428 105.452 37.9841 107.593 37.009C105.324 35.365 103.016 33.7601 100.85 31.9772C100.697 34.1942 100.811 36.4219 100.779 38.6424ZM95.28 38.0588C96.6316 38.3542 97.9938 38.6175 99.3809 38.6246C99.356 36.5891 99.42 34.5501 99.3453 32.5146C97.8088 34.2085 96.4644 36.1052 95.28 38.0588Z" fill="#525253"/>
<path d="M46.6484 47.5352C47.4878 47.4712 48.3308 47.4712 49.1701 47.4676C50.9769 49.6988 52.7339 51.9692 54.498 54.236C56.2799 51.9977 58.0085 49.7166 59.8046 47.4854C60.6084 47.4747 61.4122 47.4712 62.2196 47.4641C62.3583 48.2185 62.4223 48.9836 62.4081 49.7522C62.3761 53.8268 62.4223 57.8977 62.3832 61.9687C61.2024 62.015 60.018 62.0114 58.8372 62.0114C58.5064 59.4955 58.7732 56.9512 58.6487 54.4246C57.2936 56.2145 55.9847 58.0508 54.4838 59.7268C53.0362 57.9903 51.7025 56.1647 50.3154 54.3783C50.2727 56.912 50.3296 59.4457 50.2869 61.9794C49.0741 62.0186 47.8613 62.015 46.6484 61.9865V47.5352Z" fill="#525253"/>
<path d="M65.4576 47.5672C69.0819 47.3537 72.7382 47.5174 76.3731 47.4889C76.4265 48.5316 76.4265 49.5778 76.3802 50.6204C73.9652 50.6489 71.5467 50.6311 69.1281 50.6311C69.1281 51.4959 69.1281 52.3606 69.1246 53.2289C71.1412 53.2467 73.1543 53.1862 75.171 53.2502C75.9143 54.0509 75.4199 55.3533 75.395 56.3497C73.3179 56.3426 71.2408 56.3711 69.1673 56.3284C69.0001 57.1433 68.9894 57.9795 68.9965 58.8087C71.4578 58.887 73.919 58.8051 76.3802 58.8585C76.4229 59.9012 76.4229 60.9474 76.3838 61.99C72.7311 62.0043 69.0748 62.0505 65.4221 61.9651C65.4256 57.1646 65.3474 52.3641 65.4576 47.5672Z" fill="#525253"/>
<path d="M101.175 47.4819C104.44 47.6634 107.936 46.8734 110.984 48.4C112.816 49.2718 114.072 51.012 114.655 52.9193C114.826 54.1221 114.822 55.3392 114.651 56.542C113.908 59.3746 111.425 61.4279 108.587 61.9296C106.112 62.072 103.633 61.9972 101.157 61.9901C101.122 57.154 101.086 52.3179 101.175 47.4819ZM104.76 50.7166C104.721 53.4033 104.742 56.0936 104.746 58.7839C106.197 58.7518 107.769 58.9902 109.081 58.2038C110.163 57.6665 110.714 56.5455 111.13 55.4744C111.116 54.8766 111.095 54.2787 111.052 53.6844C110.636 52.8339 110.188 51.9265 109.334 51.4354C107.986 50.528 106.297 50.7308 104.76 50.7166Z" fill="#525253"/>
<path d="M128.723 47.4249C129.865 47.4213 131.01 47.4249 132.152 47.4178C133.496 50.407 134.713 53.4531 136.004 56.4636C136.754 58.1575 137.384 59.9083 138.212 61.5666C138.123 61.6805 137.946 61.9047 137.857 62.0186C136.733 62.0043 135.605 62.0221 134.481 61.9616C134.154 61.1503 133.823 60.3389 133.514 59.5204C131.455 59.5204 129.399 59.5027 127.343 59.5347C127.062 60.3603 126.735 61.1716 126.393 61.9723C125.262 62.0185 124.131 62.0043 123.004 62.0114C122.919 61.8976 122.751 61.6698 122.666 61.5524C124.32 58.0045 125.753 54.357 127.29 50.7557C127.592 50.0831 127.88 49.407 128.168 48.7309C128.35 48.2932 128.535 47.859 128.723 47.4249ZM130.231 52.0902C129.73 53.5385 129.161 54.9655 128.57 56.3782C129.808 56.4067 131.046 56.3996 132.287 56.3889C131.739 54.9121 131.095 53.4709 130.612 51.9727C130.516 52.0012 130.327 52.0617 130.231 52.0902Z" fill="#525253"/>
<path d="M149.896 47.4747C151.044 47.4676 152.197 47.4712 153.349 47.4961V61.9865C152.215 61.8905 150.717 62.4491 149.96 61.314C147.868 58.8906 145.741 56.4957 143.639 54.0794C143.618 56.7163 143.668 59.3532 143.604 61.9865C142.412 62.015 141.221 62.015 140.033 61.9865C139.994 57.154 139.983 52.3215 140.037 47.4925C140.933 47.4747 141.826 47.4712 142.722 47.4747C145.083 50.1579 147.452 52.8446 149.689 55.6381C149.86 52.9193 149.565 50.1828 149.896 47.4747Z" fill="#525253"/>
<path d="M79.2327 61.983C79.1971 57.1541 79.1758 52.3215 79.2433 47.4926C81.6654 47.4783 84.0875 47.4321 86.5061 47.5068C88.8073 47.6669 90.9697 49.1758 91.5708 51.4675C91.5922 52.2183 91.5922 52.9727 91.5673 53.7272C91.1191 55.1933 90.1232 56.4068 88.8144 57.1896C89.8067 58.2928 90.639 59.5241 91.5708 60.677C91.9087 61.0364 92.0581 61.5026 92.1755 61.9688C90.8559 62.0293 89.5364 62.0115 88.2169 61.9937C87.1143 60.6343 86.0971 59.2145 85.0692 57.8017C84.3187 57.7875 83.5647 57.7875 82.8142 57.7875C82.8071 59.186 82.8285 60.5881 82.7822 61.9866C81.6014 62.0186 80.417 62.0186 79.2327 61.983ZM82.8142 50.6739C82.8107 51.9692 82.8142 53.261 82.8107 54.5563C84.429 54.4745 86.3389 54.9798 87.63 53.7129C87.7367 53.5208 87.9466 53.14 88.0533 52.9478C87.9359 52.4496 87.8114 51.9586 87.6834 51.4675C87.2068 51.197 86.7195 50.9373 86.2322 50.6882C85.0905 50.6668 83.9524 50.6668 82.8142 50.6739Z" fill="#525253"/>
<path d="M94.4537 61.9937C94.3968 57.1612 94.3755 52.318 94.4644 47.4855C95.6417 47.4677 96.8225 47.4641 97.9997 47.4997C98.0602 52.3251 98.0424 57.1541 98.0104 61.9795C96.8225 62.0186 95.6381 62.015 94.4537 61.9937Z" fill="#525253"/>
<path d="M117.271 61.983C117.225 57.154 117.2 52.3215 117.285 47.4925C118.459 47.4676 119.629 47.4676 120.803 47.4854C120.895 52.3215 120.874 57.1611 120.813 61.9936C119.632 62.015 118.452 62.0186 117.271 61.983Z" fill="#525253"/>
<path d="M61.7342 69.4346C62.0934 69.4311 62.4526 69.4346 62.8154 69.4382C62.8083 72.8793 62.8865 76.324 62.7798 79.7651C62.5202 79.7829 62.008 79.8221 61.7484 79.8434C61.6879 76.3738 61.7199 72.9042 61.7342 69.4346Z" fill="#525253"/>
<path d="M65.9524 69.4062C66.1907 69.424 66.6673 69.456 66.9056 69.4738C69.0538 72.3135 71.4439 74.9753 73.5032 77.8827C73.6633 75.0857 73.5352 72.2779 73.5779 69.4774C73.9371 69.4524 74.2999 69.4311 74.6591 69.4098C74.6912 72.8793 74.684 76.3489 74.6627 79.8185C74.428 79.8043 73.9585 79.7829 73.7237 79.7723C71.5399 76.9717 69.2601 74.2458 67.0656 71.4524C66.9767 74.2316 67.0621 77.0144 67.0158 79.7936C66.7455 79.7936 66.2049 79.7936 65.9346 79.7936C65.9417 76.3311 65.9097 72.8687 65.9524 69.4062Z" fill="#525253"/>
<path d="M78.1855 70.253C80.3231 68.1428 84.9645 69.0289 85.2989 72.3312C83.8335 72.5412 83.862 70.6125 82.6136 70.3242C81.3652 70.0004 79.7682 69.9755 78.9039 71.1035C78.6407 71.6658 78.6728 72.3241 78.8506 72.9077C80.3871 74.4593 83.0119 73.623 84.5626 75.1674C85.3344 75.8329 85.3807 76.9716 85.1032 77.8862C84.6231 79.153 83.3071 79.9039 81.9983 79.9999H80.6645C78.7652 79.9323 77.2572 78.4021 76.9727 76.573C77.3141 76.541 77.6555 76.509 77.997 76.4805C78.4771 78.8648 81.5501 79.8042 83.428 78.4342C84.3884 77.7936 84.367 76.2314 83.3605 75.6478C81.7635 74.8294 79.7113 75.1817 78.2815 73.9824C77.1754 73.0607 77.2181 71.2601 78.1855 70.253Z" fill="#525253"/>
<path d="M86.6631 69.4347C89.4871 69.4133 92.3146 69.4098 95.1386 69.4418C95.1422 69.6624 95.1422 70.0966 95.1458 70.3172C94.1357 70.335 93.1291 70.335 92.1226 70.3315C91.9305 70.3813 91.5464 70.4845 91.3543 70.5378C91.3401 73.6196 91.429 76.7048 91.3152 79.783C91.0556 79.7937 90.5398 79.8114 90.2802 79.8221C90.2269 76.655 90.3158 73.4914 90.234 70.3243C88.9927 70.3314 87.755 70.3457 86.5137 70.303C86.5528 70.0859 86.6275 69.6518 86.6631 69.4347Z" fill="#525253"/>
<path d="M96.9534 69.424C97.3126 69.4311 97.6719 69.4382 98.0346 69.4453C98.0418 72.8935 98.056 76.3418 98.024 79.7936C97.7608 79.7971 97.2273 79.8078 96.9605 79.8114C96.9214 76.3489 96.9356 72.8864 96.9534 69.424Z" fill="#525253"/>
<path d="M99.8407 69.4347C102.679 69.4419 105.521 69.36 108.355 69.4703L108.434 70.3101C107.207 70.3457 105.976 70.3351 104.749 70.3244C104.664 73.4844 104.745 76.6515 104.703 79.8151C104.408 79.7759 103.821 79.6941 103.525 79.6549C103.479 77.9931 103.401 76.317 103.597 74.6623C103.401 73.278 103.771 71.8759 103.483 70.4881C102.928 70.4525 102.373 70.4027 101.822 70.3422C101.157 70.3351 100.495 70.3279 99.8301 70.3173C99.8336 70.0966 99.8372 69.6554 99.8407 69.4347Z" fill="#525253"/>
<path d="M110.137 69.4383C110.496 69.4347 110.859 69.4312 111.225 69.4312C111.282 71.6232 111.172 73.8153 111.275 76.0038C111.428 77.9183 113.405 79.4343 115.29 78.9325C116.77 78.6514 117.823 77.2386 117.89 75.7689C117.965 73.6552 117.876 71.5414 117.929 69.4312C118.292 69.4347 118.655 69.4383 119.018 69.4418C119.018 71.5449 119.06 73.6445 119.007 75.7476C118.982 77.8329 117.343 79.7972 115.23 80.0001H114.056C111.89 79.9004 110.147 77.8827 110.144 75.7547C110.09 73.6516 110.133 71.5449 110.137 69.4383Z" fill="#525253"/>
<path d="M120.813 69.4418C123.633 69.3991 126.457 69.424 129.281 69.4346C129.299 69.641 129.342 70.0574 129.36 70.2638C128.346 70.4844 127.304 70.4737 126.283 70.31C126.095 70.3705 125.714 70.4951 125.522 70.5556C125.501 73.6337 125.597 76.7154 125.479 79.79C125.223 79.7972 124.707 79.8078 124.448 79.815C124.394 76.6514 124.483 73.4878 124.398 70.3243C123.157 70.335 121.915 70.3456 120.678 70.3029C120.71 70.0859 120.777 69.6553 120.813 69.4418Z" fill="#525253"/>
<path d="M131.112 69.4346C133.506 69.4097 135.9 69.4203 138.293 69.431C138.3 69.6552 138.311 70.1 138.315 70.3242C137.041 70.3456 135.764 70.2708 134.498 70.4238C133.726 70.2815 132.944 70.3135 132.186 70.4986C132.218 71.7049 132.208 72.9113 132.208 74.1176C133.961 74.1568 135.725 74.05 137.479 74.1603C137.607 74.2884 137.863 74.5447 137.991 74.6728C137.842 74.7831 137.55 75.0073 137.401 75.1176C135.672 75.2315 133.936 75.1283 132.204 75.1638C132.208 76.3666 132.208 77.5694 132.204 78.7722C134.232 78.7829 136.259 78.7687 138.286 78.7865C138.29 79.0391 138.297 79.548 138.304 79.8006C135.907 79.822 133.513 79.8149 131.119 79.8042C131.077 76.3488 131.091 72.8899 131.112 69.4346Z" fill="#525253"/>
</svg>
