<svg width="200" height="80" viewBox="0 0 200 80" fill="none" xmlns="http://www.w3.org/2000/svg">
<path d="M113.127 20.5876C113.701 19.0527 114.531 17.4571 116.04 16.6441C118.159 15.3034 121.268 16.3226 122.27 18.5916C123.449 21.2064 123.021 24.1791 122.697 26.9334C121.482 33.6009 119.008 40.0135 115.686 45.9165C114.373 47.7001 115.49 49.9145 115.631 51.8802C117.158 48.9438 118.935 46.0682 121.28 43.7021C122.899 42.0095 125.886 41.0448 127.809 42.8224C129.422 44.0661 129.391 46.3533 128.909 48.1369C128.048 50.6789 125.733 52.2988 123.449 53.4879C127.162 57.3767 133.526 57.5162 137.741 54.3554C136.904 52.9904 136.299 51.5101 135.835 49.9873C135.707 46.8386 137.221 43.3199 140.385 42.2036C142.596 41.0266 145.729 42.4099 146.151 44.8973C146.853 48.6284 144.404 51.9954 141.765 54.3615C146.31 57.0976 149.522 50.2846 154.072 52.0986C155.459 52.8569 156.118 54.3615 156.76 55.7205C158.11 53.2391 160.278 50.0237 163.594 50.867C165.439 51.7467 166.129 53.7912 167.216 55.3686C168.548 57.3949 170.166 59.494 172.554 60.307C174.338 60.8105 176.164 60.04 177.581 58.9844C180.506 56.8246 182.662 53.8337 184.617 50.8185C184.861 50.6547 185.35 50.3331 185.6 50.1693C186.327 50.6243 187.573 51.413 186.651 52.3655C184.024 56.4181 180.94 60.671 176.304 62.5638C173.134 63.8864 169.616 62.309 167.473 59.9066C165.39 57.8802 164.376 55.0713 162.391 52.9843C159.527 54.8408 158.574 58.2321 156.803 60.9319C155.068 61.6538 154.83 59.5972 154.653 58.4141C154.494 56.946 153.846 55.6173 153.199 54.319C150.768 54.1856 149.125 56.2604 146.957 56.9824C144.557 58.0622 141.814 57.4495 139.634 56.1573C136.189 58.6871 131.645 59.9187 127.449 58.6993C124.237 57.9409 121.677 55.6173 119.937 52.9176C120.157 52.5051 120.389 52.0925 120.633 51.6921C123.76 50.8852 127.492 48.416 126.545 44.7031C125.641 44.6849 124.554 44.2724 123.809 44.9822C119.87 48.2401 118.123 53.2149 115.319 57.3221C114.977 57.31 114.293 57.2736 113.951 57.2614C112.956 55.1016 113.139 52.6689 112.876 50.3635C111.191 51.4616 109.541 53.045 107.361 52.8266C105.284 52.9358 103.739 51.2735 102.945 49.5505C101.675 51.8256 99.9036 54.137 97.1735 54.6648C93.967 55.5203 91.0353 53.1178 89.484 50.5394C86.8455 53.5971 83.6512 57.1522 79.2231 57.0066C75.7418 57.1765 72.6879 54.9742 70.6052 52.3898C68.4431 54.319 65.8351 56.1815 62.7569 55.8175C60.0817 55.9692 57.9502 54.0339 56.6614 51.9044C54.8658 55.3383 50.6271 57.6558 46.7915 56.3332C43.0414 55.1623 41.1236 51.3342 39.8837 47.9185C38.1736 43.4655 38.1003 38.5271 35.9565 34.2257C35.2663 34.2075 34.5762 34.2015 33.886 34.2075C33.1897 35.6696 32.6095 37.2288 32.5484 38.8608C32.2003 44.8366 33.2203 50.776 34.3685 56.6062C33.6722 57.1826 32.5545 57.8742 32.0354 56.7215C28.2609 51.4555 26.6057 45.0611 24.8894 38.9154C23.9122 35.5847 23.3564 31.9386 21.121 29.1418C19.6613 28.2257 18.9406 30.1246 18.4764 31.1923C17.1327 35.6575 17.1755 40.4321 17.6885 45.0307C17.9389 50.0116 19.1238 54.9257 21.1271 59.494C21.6829 60.6042 21.9883 62.2423 20.6691 62.946C18.965 63.3646 18.171 61.5689 17.3648 60.4404C11.8801 51.231 9.71193 40.5231 8.30106 30.0396C8.03843 28.2681 7.91628 26.4724 8.06286 24.6887C8.83243 24.6341 9.60199 24.6099 10.3716 24.6341C11.0006 32.5574 12.2832 40.4503 14.708 48.0399C15.1783 49.1986 15.0683 50.6547 16.07 51.5283C14.8179 45.0368 14.2011 38.1752 15.6425 31.6292C16.2227 29.2995 17.658 26.2236 20.5347 26.4238C23.5274 26.7332 24.8039 29.9122 25.6712 32.3632C27.192 37.4836 28.6151 42.6343 30.0504 47.779C30.2947 43.0166 28.9938 37.8173 31.4429 33.4249C32.8355 30.8587 36.9154 30.7191 38.308 33.3643C40.8182 38.0114 40.5983 43.5686 42.8154 48.3493C43.927 51.0429 45.8692 54.3736 49.2956 54.0339C52.1051 54.1674 54.029 51.7224 54.9818 49.3806C55.1773 47.688 54.8108 44.5515 57.4554 45.1824C58.0723 48.0277 58.4388 51.5404 61.346 53.0693C64.3632 54.1431 67.2399 52.1532 69.2005 50.048C68.8401 49.411 68.4675 48.78 68.1133 48.143C66.0794 42.5251 65.3893 36.2339 67.0689 30.4461C67.8568 27.8495 69.9151 24.7312 73.0605 25.3075C76.1937 25.9385 77.0121 29.4997 77.5252 32.157C77.739 38.4846 76.1998 45.0732 72.3092 50.1815C73.9827 52.9419 77.2198 55.1623 80.5851 54.3615C83.9138 53.4393 86.0576 50.503 88.1708 47.9913C85.9415 41.6697 85.0865 34.8082 85.9904 28.1529C86.5706 25.0224 87.5906 21.5764 90.3146 19.6229C92.0797 18.2943 94.8159 18.3792 96.2879 20.0961C98.6699 22.6806 98.6271 26.4663 98.2912 29.7424C97.1124 36.2581 94.5533 42.4948 91.072 48.1248C92.2202 50.2239 94.0769 52.8873 96.8803 52.0925C100.27 50.9762 101.046 46.9661 101.663 43.9266C102.334 43.9387 103.006 43.9812 103.678 44.06C104.252 46.1652 104.759 48.507 106.433 50.0541C109.193 51.1946 110.946 48.1309 112.437 46.3776C111.759 42.1187 111.783 37.793 111.704 33.4977C111.74 29.1721 111.667 24.7251 113.127 20.5876ZM114.586 25.4774C113.957 31.162 114.208 36.9073 114.55 42.604C117.659 36.3552 120.309 29.5907 120.462 22.5411C120.651 20.8363 119.876 18.1366 117.634 18.6704C115.313 20.0537 115.154 23.1113 114.586 25.4774ZM89.4595 24.8525C87.3707 31.4411 87.9204 38.697 90.0947 45.1824C90.278 44.6849 90.4551 44.1814 90.6383 43.6839C92.1774 40.9114 93.3929 37.975 94.3579 34.9598C95.6527 30.7919 97.0208 25.9445 94.6083 21.8919C94.254 21.6856 93.5517 21.2731 93.2035 21.0668C91.3468 21.6128 90.2596 23.2145 89.4595 24.8525ZM69.3043 31.5381C68.1072 37.0104 68.7668 42.7132 70.7274 47.9367C73.659 43.7385 75.0638 38.5271 74.8439 33.4492C74.8745 31.4168 74.5752 28.8748 72.6452 27.7221C70.6724 27.8374 70.0677 30.076 69.3043 31.5381ZM139.249 46.3654C138.015 48.3008 138.596 50.7335 139.591 52.6325C142.083 50.9459 144.111 48.0581 143.647 44.9458C143.127 44.6849 142.614 44.418 142.107 44.145C141.075 44.7638 139.793 45.2127 139.249 46.3654Z" fill="#525253"/>
<path d="M100.203 39.8011C100.435 38.5332 101.156 37.5139 102.518 37.3562C102.878 37.6049 103.605 38.1024 103.965 38.3512C104.008 39.3704 104.063 40.784 102.756 41.0327C101.645 41.4331 100.899 40.4685 100.203 39.8011Z" fill="#525253"/>
<path d="M54.5606 39.3036C55.4707 39.1823 56.3929 39.1155 57.3152 39.1216C57.5839 39.6676 57.8588 40.2136 58.1397 40.7596C57.8588 41.3117 57.5839 41.8638 57.3152 42.4159C56.399 42.3977 55.4829 42.337 54.5729 42.246C54.5118 41.2632 54.5118 40.2864 54.5606 39.3036Z" fill="#525253"/>
<path d="M189.895 57.8621C190.17 57.9045 190.713 57.9895 190.988 58.0319L191 57.2979V60.7923C190.927 60.5436 190.787 60.0461 190.713 59.7974C190.176 59.8095 189.095 59.8459 188.551 59.858L188.105 60.5193C188.087 59.4576 188.136 58.402 188.221 57.3403C188.741 58.0441 189.309 58.7054 189.925 59.3302C189.919 58.9662 189.907 58.2261 189.895 57.8621Z" fill="#525253"/>
</svg>
