<svg width="200" height="80" viewBox="0 0 200 80" fill="none" xmlns="http://www.w3.org/2000/svg">
<path d="M47.0426 17.5801C49.8767 17.7335 52.7688 17.261 55.5573 17.9034C55.8971 19.9923 57.0614 21.8159 57.6207 23.8384C57.9066 24.5637 58.2133 25.2765 58.4743 26.0143C58.6483 26.3873 58.8182 26.7644 58.9964 27.1374C59.4687 28.8947 60.2891 30.5277 60.9148 32.2352C61.3581 33.607 61.9051 34.9457 62.4976 36.2637C62.6343 36.2057 62.9078 36.0896 63.0445 36.0274C63.1895 35.4514 63.3345 34.8711 63.5376 34.3075C63.6329 34.1044 63.8193 33.7024 63.9105 33.4993C64.4616 32.086 65.0458 30.6851 65.5969 29.2719C66.0236 28.1611 66.4836 27.0628 66.931 25.9562C67.536 24.402 68.1824 22.8603 68.7707 21.2978C68.9613 20.8833 69.1602 20.473 69.3715 20.0669C69.413 19.8679 69.4917 19.4783 69.5331 19.2794C69.7569 18.7945 69.9723 18.3013 70.1712 17.804C72.9515 17.6423 75.7358 17.7667 78.5202 17.7376C78.5037 26.7893 78.5037 35.8451 78.5202 44.9009C76.5645 44.9133 74.613 44.9009 72.6573 44.9133C72.6904 38.5888 72.6324 32.2642 72.6904 25.9397C72.5537 26.0184 72.2844 26.1718 72.1518 26.2505C71.9902 26.8266 71.8286 27.4027 71.6214 27.9622C71.3562 28.501 71.1035 29.0439 70.8673 29.5951C70.6311 30.2044 70.3742 30.8012 70.1381 31.4104C69.8687 32.0736 69.5746 32.7284 69.4254 33.433C69.3467 33.5366 69.1892 33.7438 69.1105 33.8474C68.6506 35.2317 68.0581 36.5704 67.4697 37.9049C67.391 38.108 67.2335 38.51 67.1548 38.7131C66.9808 39.1607 66.7985 39.6042 66.6037 40.0476C65.9822 41.6723 65.3275 43.2887 64.5983 44.8677C63.2434 44.9257 61.8843 44.9175 60.5253 44.8843C60.2601 44.2046 59.9659 43.5373 59.7132 42.8535C59.6179 42.6504 59.4273 42.2442 59.332 42.0412C59.2035 41.664 59.0834 41.2786 58.9715 40.8973C58.7851 40.5077 58.6027 40.1181 58.4287 39.7244C58.2091 39.1027 57.9481 38.4976 57.7119 37.88C57.513 37.3537 57.3266 36.8232 57.1277 36.2968C56.3611 34.2411 55.4993 32.2269 54.6913 30.1919C54.538 29.7526 54.3681 29.3175 54.1817 28.8864C54.0698 28.6129 53.9538 28.3435 53.8419 28.0699C53.6099 27.469 53.3572 26.8763 53.1707 26.2588C53.0257 25.9272 52.7315 25.2641 52.5865 24.9325C52.3793 31.7088 52.5989 38.4976 52.4705 45.2739C51.7329 45.2532 50.9913 45.191 50.2993 44.9216C49.2054 44.8967 48.1157 44.9009 47.0218 44.934C47.0136 35.8161 46.9763 26.6981 47.0426 17.5801Z" fill="#525253"/>
<path d="M85.7915 20.9538C87.4447 19.582 89.2388 18.3179 91.2857 17.605C93.78 16.6435 96.4857 17.1408 99.0877 17.0455C100.053 17.4144 101.027 17.7625 102.03 18.0195C103.177 18.5956 104.226 19.3416 105.295 20.0461C106.239 21.0408 107.271 21.9609 108.125 23.0385C108.891 24.5388 110.01 25.9687 110.105 27.7052C110.905 27.7177 111.704 27.7384 112.504 27.784C110.611 29.4542 109.177 31.5431 107.35 33.2713C106.455 32.8983 106.082 31.8829 105.406 31.2364C104.296 30.1215 103.227 28.9735 102.241 27.7467C102.763 27.7384 103.285 27.7301 103.811 27.7301C103.965 27.585 104.122 27.44 104.275 27.2949C103.082 25.9148 102.021 24.2736 100.289 23.511C99.8957 23.3079 99.5062 23.1007 99.1209 22.8851C98.9013 22.8561 98.4621 22.794 98.2425 22.765C97.045 22.2759 95.7233 22.5287 94.4678 22.4956C93.9292 22.7111 93.3781 22.8769 92.8229 23.0468C91.6296 23.5607 90.5978 24.3647 89.5247 25.0817C89.0068 25.9852 88.3314 26.7893 87.8135 27.7011C87.6394 28.4595 87.3908 29.2014 87.1422 29.9433C86.4047 29.1807 85.6672 28.4222 84.9545 27.6348C83.786 28.8616 82.4104 29.9225 81.561 31.4187C81.5527 30.5608 81.5652 29.7029 81.6066 28.8491C81.8179 28.302 81.9256 27.7259 82.0334 27.154C82.804 24.8331 84.1714 22.7608 85.7915 20.9538Z" fill="#525253"/>
<path d="M113.801 17.7376C118.181 17.9366 122.672 17.1988 126.956 18.3552C127.524 18.637 128.092 18.9147 128.659 19.1924C130.582 20.2575 131.784 22.164 132.335 24.2528C132.579 25.3511 132.575 26.4909 132.306 27.5809C131.726 30.4199 129.239 32.7201 126.472 33.3666C127.267 34.4981 127.988 35.6834 128.875 36.7486C129.471 37.5816 130.101 38.3898 130.657 39.2519C132.103 41.0755 133.346 43.0524 134.833 44.847C132.442 44.9589 130.047 44.9091 127.657 44.8801C126.613 43.0068 125.204 41.3739 124.068 39.5586C123.609 38.8913 123.161 38.2116 122.709 37.5402C121.533 36.475 121.201 34.179 119.303 34.2453C119.295 37.8096 119.324 41.3739 119.291 44.934C117.46 44.8843 115.628 44.9174 113.797 44.9009C113.826 35.8451 113.822 26.7893 113.801 17.7376ZM119.299 22.4955C119.362 24.8082 119.171 27.1291 119.436 29.4335C121.62 29.6076 123.845 29.4086 125.713 28.1487C125.85 27.9166 126.119 27.4483 126.256 27.2162C126.281 26.3582 126.281 25.5045 126.24 24.6466C126.115 24.4435 125.867 24.0373 125.742 23.8342C125.2 23.3162 124.632 22.7981 123.923 22.5121C122.382 22.4292 120.841 22.4997 119.299 22.4955Z" fill="#525253"/>
<path d="M136.258 17.7584C142.17 17.6921 148.087 17.7542 154 17.7252C153.988 19.3126 153.988 20.8999 154 22.4873C149.964 22.4748 145.929 22.4914 141.893 22.479C141.885 24.4269 141.901 26.379 141.88 28.3269C145.626 28.3062 149.376 28.3435 153.122 28.3103C153.341 28.4181 153.776 28.6336 153.996 28.7414C153.992 30.2293 153.992 31.7171 153.996 33.2092C149.96 33.1967 145.924 33.2092 141.889 33.2009C141.893 35.5177 141.889 37.8386 141.893 40.1554C145.929 40.143 149.964 40.1554 154 40.1471C153.992 41.7345 153.988 43.3218 154 44.9092C148.087 44.8843 142.17 44.9423 136.258 44.8802C136.274 35.8409 136.274 26.7976 136.258 17.7584Z" fill="#525253"/>
<path d="M79.3145 35.6171C81.469 33.9013 82.8902 31.4975 84.9661 29.7029C86.4867 31.8207 88.5999 33.4288 90.0128 35.613C89.3291 35.6461 88.6496 35.6876 87.9701 35.7415C89.2421 38.1619 91.5914 39.6953 94.1438 40.5118C96.46 40.719 98.8425 40.5367 100.906 39.3596C102.957 37.6065 104.979 35.3975 104.842 32.4921C105.004 32.7906 105.169 33.0931 105.335 33.3915C105.915 34.1209 106.516 34.867 107.324 35.3643C108.675 34.2826 109.628 32.8237 110.796 31.5679C110.771 32.7864 110.481 33.9759 110.332 35.1819C110.195 35.5715 110.067 35.9694 109.951 36.3673C109.868 36.5745 109.698 36.9807 109.615 37.1838C109.222 38.1577 108.667 39.0488 108.19 39.9813C107.569 40.6237 106.993 41.3117 106.541 42.0867C104.519 43.6161 102.402 45.191 99.8825 45.7712C98.1339 46.252 96.3315 46.5255 94.5126 46.339C93.7336 46.0448 92.8966 46.0033 92.0969 45.7795C90.278 45.2904 88.6123 44.3828 87.1 43.2721C86.1843 42.5095 85.3639 41.6433 84.5352 40.7895C83.6236 39.256 82.4469 37.7847 82.219 35.957C81.3074 35.5301 80.2882 35.6669 79.3145 35.6171Z" fill="#525253"/>
<path d="M91.111 51.4866C91.5751 51.5073 92.0433 51.5322 92.5074 51.557C92.2091 52.1538 91.8942 52.7465 91.513 53.3019C91.0116 54.1598 90.5683 55.055 90.0462 55.9005C89.6567 56.5636 89.2879 57.2433 88.8943 57.9064C88.8777 59.4731 88.8819 61.0397 88.8943 62.6063C88.5255 62.5939 88.1568 62.5815 87.7839 62.569C87.5684 60.4678 88.4593 58.0059 86.9013 56.2652C86.371 55.0757 85.7163 53.9484 85.0409 52.8377C84.784 52.3859 84.5188 51.9383 84.2578 51.4866C84.6349 51.499 85.389 51.5239 85.7702 51.5363C86.574 53.2604 87.8502 54.7649 88.3184 56.6424C88.4634 56.3688 88.6084 56.0994 88.7617 55.83C89.4247 54.711 90.1373 53.6127 90.6967 52.4357C90.8003 52.1994 91.0075 51.7228 91.111 51.4866Z" fill="#525253"/>
<path d="M47 62.6021C47.0166 58.9052 47 55.2083 47.0083 51.5114C49.1297 51.5736 52.0136 51.0431 53.3477 53.107C54.6695 54.9721 53.1613 57.4546 51.102 57.8732C51.3755 58.2918 51.6489 58.7104 51.9307 59.129C52.7262 60.3061 53.7414 61.3464 54.3795 62.627C54.0563 62.6063 53.414 62.5648 53.0908 62.54C52.0674 61.2842 51.1642 59.9289 50.1656 58.6441C50.0744 58.4203 49.8921 57.9727 49.801 57.7489C49.196 57.7365 48.5911 57.7282 47.9861 57.724C47.9861 59.3528 47.9903 60.9816 47.982 62.6146C47.7375 62.6104 47.2445 62.6021 47 62.6021ZM47.9779 52.6055C47.9903 53.9815 47.9861 55.3575 47.9861 56.7335C48.9143 56.7376 49.8424 56.7376 50.7705 56.7708C51.3672 56.4144 51.9597 56.0414 52.5149 55.6186C52.5149 55.229 52.5149 54.4499 52.5149 54.0603C51.7401 52.2864 49.5565 52.5807 47.9779 52.6055Z" fill="#525253"/>
<path d="M59.8274 51.5072C61.9033 51.5155 63.9792 51.5072 66.055 51.5113C66.055 51.7807 66.055 52.3195 66.0509 52.5889C64.3024 52.5972 62.5497 52.5889 60.797 52.6014C60.8136 53.8571 60.8136 55.1171 60.8053 56.3729C62.5538 56.3853 64.3065 56.3729 66.0592 56.3895L66.0675 57.3344C64.3106 57.3883 62.5455 57.2308 60.8012 57.4836C60.8136 58.8181 60.8136 60.1568 60.8053 61.4955C62.5207 61.5204 64.2402 61.4416 65.9556 61.5328C66.0012 61.7939 66.0965 62.3203 66.142 62.5814C64.0372 62.6228 61.9282 62.5897 59.8233 62.6062C59.8233 58.9052 59.8192 55.2083 59.8274 51.5072Z" fill="#525253"/>
<path d="M72.3925 53.6044C73.3662 52.6843 74.4808 51.8471 75.815 51.5487C76.8467 51.4658 77.8826 51.5239 78.9184 51.4824C79.5565 51.7974 80.0164 52.245 79.9087 53.0242C77.9613 52.3652 75.4421 52.1704 73.9256 53.8282C72.376 55.312 72.3428 57.6951 73.1383 59.5767C74.4352 61.8064 77.7127 62.1131 79.7513 60.8449C79.946 61.2635 80.149 61.6821 80.3479 62.1007C79.5607 62.2996 78.7858 62.5317 77.9986 62.7348C77.0746 63.1907 76.0802 62.4364 75.0982 62.5234C73.6894 61.7691 72.0901 60.8035 71.7379 59.1166C71.5804 58.1468 70.8595 57.119 71.4975 56.1906C71.5141 55.9585 71.5514 55.5026 71.5721 55.2747C71.8663 54.7276 72.1315 54.1681 72.3925 53.6044Z" fill="#525253"/>
<path d="M98.1937 52.7424C98.9934 52.2865 99.8097 51.8679 100.651 51.499C101.678 51.5115 102.706 51.5115 103.729 51.5073C104.003 51.6317 104.55 51.8803 104.823 52.0047C104.761 52.3487 104.695 52.6926 104.633 53.0366C103.427 52.4688 102.055 52.4979 100.763 52.6719C99.1591 52.9911 98.2683 54.4872 97.5681 55.8218C97.5183 57.0568 97.5018 58.3209 98.0156 59.4772C99.3 61.9018 102.54 61.9184 104.786 60.99C104.96 61.3464 105.13 61.7111 105.296 62.0759C104.314 62.3535 103.332 62.6437 102.35 62.9172C101.641 62.7431 100.928 62.5898 100.195 62.5608C98.6039 61.9142 97.278 60.7289 96.4783 59.2078C96.2546 57.9106 96.1883 56.6009 96.5073 55.312C96.7021 54.9058 96.8927 54.4997 97.075 54.0935C97.4396 53.6335 97.8167 53.19 98.1937 52.7424Z" fill="#525253"/>
<path d="M110.759 51.5032C111.003 51.5032 111.492 51.5032 111.737 51.5032C111.728 54.8354 111.745 58.1634 111.724 61.4956C113.353 61.4956 114.977 61.4956 116.605 61.4956C116.613 61.7733 116.638 62.3204 116.647 62.5939C114.683 62.6105 112.719 62.5939 110.755 62.6064C110.755 58.9053 110.746 55.2042 110.759 51.5032Z" fill="#525253"/>
<path d="M121.399 51.5777C121.763 51.5487 122.488 51.4907 122.849 51.4617C122.861 55.1627 122.837 58.8638 122.861 62.569C122.538 62.5856 121.892 62.627 121.564 62.6478C121.158 58.9798 121.44 55.2622 121.399 51.5777Z" fill="#525253"/>
<path d="M129.077 62.598C129.118 58.8472 129.023 55.0922 129.127 51.3414C129.785 51.4741 130.324 51.8263 130.618 52.4397C131.252 53.3059 131.894 54.1639 132.549 55.0135C133.925 56.9158 135.454 58.7104 136.643 60.7412C136.668 57.666 136.651 54.5907 136.651 51.5114C136.924 51.5114 137.467 51.5155 137.741 51.5155C137.724 55.2456 137.749 58.9757 137.724 62.7057C136.361 62.6891 135.851 61.2344 135.077 60.3558C134.36 59.415 133.659 58.4617 133.03 57.467C132.006 56.2112 131.082 54.8809 130.063 53.6251C130.017 56.6216 130.059 59.6181 130.038 62.6145L129.077 62.598Z" fill="#525253"/>
<path d="M146.951 51.9092C148.152 51.2005 149.598 51.6066 150.92 51.5113C151.322 51.7185 151.728 51.9175 152.138 52.1164C152.897 52.5102 153.518 53.1153 153.108 54.0395C150.804 51.7807 146.284 52.017 145.02 55.2621C144.892 55.7014 144.746 56.1408 144.589 56.5759C144.585 56.8743 144.585 57.1769 144.585 57.4794C144.734 57.9146 144.871 58.3539 144.995 58.8015C145.521 59.9247 146.342 61.1018 147.597 61.4375C149.337 61.5245 151.384 61.8851 152.656 60.3889C152.644 59.502 152.644 58.615 152.644 57.7281C151.703 57.7281 150.763 57.724 149.822 57.7198L149.826 56.7459C151.09 56.7376 152.358 56.7417 153.626 56.7376C153.618 58.2172 153.626 59.6926 153.613 61.1722C152.863 61.6198 152.13 62.0923 151.388 62.5606C150.75 62.6104 150.071 62.5896 149.532 62.9999C148.782 62.7347 148.003 62.5814 147.216 62.515C146.98 62.4073 146.512 62.1876 146.28 62.0799C144.838 61.1888 143.483 59.6636 143.599 57.869C143.59 56.9033 143.603 55.9377 143.723 54.9803C144.527 53.7121 145.546 52.5184 146.951 51.9092Z" fill="#525253"/>
</svg>
