<svg width="170" height="80" viewBox="0 0 170 80" fill="none" xmlns="http://www.w3.org/2000/svg">
<path d="M81.6912 2.08455C83.8617 1.97694 86.0321 1.96157 88.2026 2.09992L88.1642 2.38046C95.9219 3.14522 103.315 7.06124 108.373 13.0025C112.565 17.837 115.168 23.9935 115.809 30.3614C116.507 37.2404 114.735 44.3346 111 50.1414C105.075 59.5644 93.8013 65.3213 82.7151 64.4297C75.6898 63.9378 68.91 60.9364 63.7332 56.1672C58.5103 51.2443 54.9746 44.5037 54.0773 37.3595C53.0611 29.8119 54.9785 21.9298 59.3117 15.6811C64.3506 8.24105 72.8023 3.18749 81.741 2.36893L81.6912 2.08455ZM80.9971 3.26819C71.9893 4.39419 63.6526 9.85127 59.0164 17.6718C55.2162 23.9205 53.7935 31.5796 55.1395 38.7738C56.3628 45.5298 59.9598 51.8246 65.1558 56.2979C70.6127 61.0248 77.8028 63.7533 85.0274 63.6227C90.4727 63.6649 95.8989 62.0855 100.543 59.2493C106.567 55.6023 111.242 49.7763 113.477 43.0856C115.767 36.4526 115.621 29.0125 113.078 22.4756C110.49 15.6235 105.29 9.81668 98.8094 6.44252C93.3833 3.57948 87.0752 2.49191 80.9971 3.26819Z" fill="#525253"/>
<path d="M72.9269 9.65142C78.261 6.85371 84.5806 6.10048 90.4516 7.34561C96.3533 8.59459 101.676 12.0802 105.426 16.784C102.006 18.3597 98.6042 19.9661 95.2259 21.6262C93.0976 19.5702 90.4708 17.9177 87.5065 17.4604C82.8435 16.6649 77.9082 18.3943 74.6372 21.7876C70.442 25.9458 68.8468 32.4712 70.5647 38.1166C72.4706 44.6266 78.9359 49.611 85.7617 49.392C89.654 49.342 93.8338 48.2737 96.545 45.2953C98.4355 43.2624 99.2331 40.4608 99.3213 37.7323C94.2288 37.7169 89.1363 37.7246 84.0438 37.7284C84.0745 34.4965 84.0591 31.2645 84.0515 28.0364C93.0017 28.0441 101.948 28.0441 110.898 28.0364C110.902 35.3035 110.055 42.8973 106.258 49.2459C103.563 53.8383 99.0721 57.3086 93.9451 58.7305C87.5794 60.4983 80.5388 60.4214 74.4531 57.6737C68.1872 54.8798 63.1177 49.5188 60.6596 43.1048C57.8488 35.9876 58.3549 27.6905 61.8292 20.8961C64.2528 16.1192 68.1757 12.1148 72.9269 9.65142Z" fill="#525253"/>
<path d="M81.6308 71.3088C83.0266 71.3049 84.4186 71.3049 85.8145 71.3049C85.8145 71.5778 85.8145 72.1158 85.8145 72.3887C84.7983 72.3925 83.7821 72.3887 82.7659 72.4156C82.7965 72.6884 82.8656 73.2303 82.9001 73.5031C83.7514 73.5454 84.6027 73.5262 85.454 73.5223C85.454 73.799 85.4502 74.3486 85.4502 74.6215C84.5797 74.6215 83.713 74.6176 82.8426 74.6253C82.8349 75.0019 82.8272 75.3824 82.8234 75.7628C83.8396 75.7744 84.8558 75.7744 85.872 75.7782C85.8682 76.0587 85.8643 76.6237 85.8643 76.9042C84.4531 76.9042 83.0381 76.908 81.627 76.9004C81.6615 75.0365 81.6576 73.1726 81.6308 71.3088Z" fill="#525253"/>
<path d="M45.2265 71.3087C45.5524 71.3049 46.2043 71.3049 46.5303 71.3049C47.0173 72.085 47.5005 72.869 47.9952 73.6491C48.4898 72.869 48.973 72.0812 49.4639 71.301C49.7898 71.301 50.4341 71.3087 50.7562 71.3087C50.737 73.1726 50.7332 75.0364 50.76 76.9003C50.4494 76.9003 49.8282 76.9041 49.5176 76.9041C49.5252 75.6974 49.5636 74.4946 49.5674 73.2879C48.9654 74.0257 48.4975 74.8558 47.9568 75.6359C47.4621 74.852 46.9981 74.0411 46.3961 73.334C46.4038 74.5253 46.4421 75.7166 46.4498 76.908C46.143 76.9041 45.5294 76.9003 45.2227 76.8964C45.2572 75.0326 45.2533 73.1687 45.2265 71.3087Z" fill="#525253"/>
<path d="M52.3144 71.3049C53.7294 71.4394 55.5892 70.8399 56.6246 72.1119C57.3762 73.1188 56.7128 74.3908 55.7848 74.9903C56.2526 75.6244 56.7128 76.2662 57.1653 76.9118C56.6745 76.9118 56.1875 76.908 55.7004 76.9041C55.1099 76.1048 54.7303 74.8673 53.5147 74.998C53.53 75.6282 53.553 76.2585 53.5798 76.8926C53.2616 76.8964 52.6288 76.9041 52.3105 76.9118C52.3221 75.0403 52.3182 73.1726 52.3144 71.3049ZM53.53 72.3963C53.53 72.9343 53.53 73.4723 53.5338 74.0103C54.3161 73.945 55.7541 74.264 55.7311 73.0765C55.3975 72.1849 54.2663 72.477 53.53 72.3963Z" fill="#525253"/>
<path d="M64.4486 71.862C65.6412 70.8744 67.3975 71.1242 68.5518 72.0465C68.0686 72.842 67.4014 72.8343 66.6613 72.4539C65.2539 71.9043 64.0537 73.8873 64.8896 75.0172C65.3843 76.1432 67.5854 76.2046 67.5931 74.7558C67.2365 74.7405 66.5155 74.7097 66.1551 74.6943C66.1858 74.4292 66.2433 73.9065 66.274 73.6452C67.0524 73.649 67.8347 73.649 68.6131 73.649C68.617 74.4791 68.6208 75.3131 68.6285 76.1432C67.4666 76.9194 65.8521 77.4344 64.6289 76.489C63.0221 75.5321 62.9569 72.9573 64.4486 71.862Z" fill="#525253"/>
<path d="M69.9688 71.3049C71.3876 71.4394 73.2321 70.8437 74.279 72.1004C75.0383 73.1034 74.3864 74.3908 73.4392 74.9826C73.9109 75.6206 74.371 76.2623 74.8274 76.9157C74.4592 76.9118 73.7306 76.9041 73.3625 76.9003C72.7681 76.1355 72.4038 74.8289 71.192 75.0249C71.2189 75.6475 71.2419 76.27 71.2611 76.8964C70.9389 76.9003 70.2909 76.9041 69.9688 76.908C69.9764 75.0403 69.9764 73.1726 69.9688 71.3049ZM71.1882 72.4001C71.1882 72.9305 71.192 73.4646 71.192 73.9988C72.1661 74.0488 73.3471 74.1295 73.5235 72.8997C72.8256 72.4385 72.0012 72.3732 71.1882 72.4001Z" fill="#525253"/>
<path d="M75.9824 76.9004C76.0054 75.0365 76.0016 73.1726 75.9824 71.3049C77.3744 71.3049 78.7664 71.3049 80.1623 71.3049C80.1623 71.6662 80.1661 72.0274 80.1699 72.3887C79.1768 72.3925 78.1797 72.3925 77.1865 72.3963C77.1865 72.773 77.1904 73.1496 77.1942 73.5262C78.0647 73.5262 78.9352 73.5223 79.8056 73.5185C79.8056 73.7952 79.8095 74.3448 79.8095 74.6215C78.939 74.6215 78.0685 74.6176 77.198 74.6176C77.1942 74.9058 77.1865 75.4823 77.1827 75.7705C78.1951 75.7743 79.2113 75.7705 80.2275 75.782C80.2236 76.1548 80.216 76.5276 80.2121 76.9004C78.8009 76.908 77.3898 76.908 75.9824 76.9004Z" fill="#525253"/>
<path d="M87.1716 71.2166C87.4554 71.2704 88.0306 71.3741 88.3143 71.4241C89.2615 72.4655 89.9978 73.6761 90.8989 74.7521C90.8798 73.6069 90.8606 72.4578 90.8491 71.3126C91.1559 71.3088 91.7733 71.3049 92.08 71.3011C92.057 73.1995 92.08 75.098 92.0647 76.9964C91.8193 76.9542 91.3284 76.8658 91.0868 76.8235C90.063 75.7475 89.296 74.46 88.3412 73.3264C88.3527 74.5139 88.3719 75.7052 88.3949 76.8965C87.9807 76.9004 87.5704 76.9042 87.1562 76.908C87.1754 75.0096 87.1563 73.115 87.1716 71.2166Z" fill="#525253"/>
<path d="M96.4023 71.301C96.7168 71.3048 97.3418 71.3086 97.6563 71.3125C97.6333 72.1349 97.6103 72.9573 97.5834 73.7797C98.7645 72.7728 99.5507 70.8244 101.422 71.2587C100.647 72.0811 99.8574 72.8881 99.056 73.6836C99.8958 74.7405 100.682 75.8396 101.514 76.9002C101.138 76.9041 100.39 76.9079 100.018 76.9117C99.4164 76.0893 98.8374 75.2554 98.1893 74.4714C97.4876 75.1094 97.6295 76.0471 97.6295 76.9002C97.3227 76.9002 96.7091 76.9041 96.4023 76.9079C96.4138 75.0402 96.41 73.1687 96.4023 71.301Z" fill="#525253"/>
<path d="M102.42 71.3088C103.812 71.3049 105.2 71.3049 106.592 71.3049C106.596 71.6662 106.6 72.0274 106.6 72.3887C105.607 72.3925 104.613 72.3925 103.62 72.4002C103.624 72.773 103.624 73.1496 103.628 73.5262C104.498 73.5262 105.369 73.5223 106.239 73.5185C106.239 73.7952 106.239 74.3486 106.243 74.6215C105.373 74.6215 104.502 74.6176 103.635 74.6176C103.632 74.9058 103.616 75.4784 103.612 75.7667C104.625 75.7744 105.641 75.7705 106.657 75.782C106.653 76.1548 106.65 76.5276 106.646 76.9042C105.238 76.908 103.827 76.908 102.416 76.9004C102.439 75.0365 102.439 73.1726 102.42 71.3088Z" fill="#525253"/>
<path d="M108.066 71.3163C108.342 71.3086 108.895 71.301 109.171 71.2971C110.064 72.4154 110.866 73.6029 111.767 74.7174C111.786 73.5799 111.748 72.4385 111.752 71.3048C112.058 71.3048 112.672 71.3086 112.982 71.3086C112.952 73.1687 112.94 75.0248 112.99 76.8849C112.741 76.8925 112.242 76.9156 111.993 76.9271C111.065 75.755 110.229 74.5099 109.259 73.3685C109.259 74.5483 109.297 75.7281 109.301 76.9079C108.887 76.9041 108.477 76.9002 108.062 76.8925C108.101 75.0325 108.097 73.1725 108.066 71.3163Z" fill="#525253"/>
<path d="M113.938 71.2472C114.279 71.2703 114.961 71.3202 115.303 71.3471C115.943 71.9466 116.254 72.8305 116.756 73.5492C117.193 72.7998 117.627 72.0504 118.075 71.3087C118.432 71.3048 119.145 71.2971 119.502 71.2933C118.788 72.4232 117.979 73.4954 117.366 74.6828C117.293 75.4245 117.35 76.1662 117.35 76.9079C117.036 76.9041 116.407 76.8964 116.093 76.8926C116.112 76.1624 116.127 75.4322 116.139 74.7059C115.399 73.553 114.67 72.4001 113.938 71.2472Z" fill="#525253"/>
<path d="M121.609 71.3086C121.889 71.2971 122.445 71.2779 122.725 71.2664C123.573 73.1417 124.259 75.0863 125.222 76.9041C124.88 76.9041 124.194 76.9041 123.853 76.9079C123.68 76.489 123.508 76.074 123.335 75.6589C122.557 75.6512 121.774 75.6551 120.996 75.6512C120.823 76.0663 120.655 76.4775 120.486 76.8925C120.168 76.8964 119.523 76.9041 119.205 76.9079C120.045 75.0594 120.812 73.1763 121.609 71.3086ZM121.399 74.5598C121.909 74.5598 122.419 74.5598 122.929 74.5637C122.679 73.9488 122.445 73.3262 122.185 72.719C121.916 73.3301 121.652 73.9411 121.399 74.5598Z" fill="#525253"/>
<path d="M58.1842 75.5629C58.606 75.5629 59.0278 75.5629 59.4496 75.5629C59.4573 76.0087 59.465 76.4544 59.4727 76.9041C59.0163 76.9041 58.5638 76.9002 58.1113 76.9002C58.1305 76.5659 58.165 75.8972 58.1842 75.5629Z" fill="#525253"/>
</svg>
