<svg width="200" height="80" viewBox="0 0 200 80" fill="none" xmlns="http://www.w3.org/2000/svg">
<path d="M28 18.7032H57.7058C57.7058 33.0382 57.7058 47.3683 57.7058 61.7032H28V18.7032ZM32.2437 22.9791C32.2099 34.4055 32.263 45.8271 32.2147 57.2486C39.2665 57.6497 46.3474 57.3115 53.4138 57.4274C53.4669 45.943 53.4573 34.4586 53.4186 22.9743C46.3571 22.9839 39.3004 22.9743 32.2437 22.9791Z" fill="#525253"/>
<path d="M118.042 22.9163C118.781 23.0081 119.796 22.7713 120.207 23.6023C122.508 26.9264 124.89 30.2021 126.925 33.6952C127.041 30.1973 126.993 26.6896 126.964 23.1868C127.665 23.182 128.709 22.4863 129.062 23.4139C129.153 28.2454 129.052 33.0817 129.105 37.9083C128.37 37.9711 127.375 38.3576 126.911 37.5411C124.538 34.1687 122.145 30.8109 120.062 27.2501C119.956 30.8205 120.033 34.3958 120.009 37.9663C119.342 37.9663 118.675 37.9711 118.008 37.9711C118.027 32.9512 117.969 27.9361 118.042 22.9163Z" fill="#525253"/>
<path d="M135.007 22.9307C135.65 22.9548 136.293 22.9693 136.936 22.9838C138.531 28.0037 140.232 32.9994 141.605 38.0821C140.716 38.087 139.826 38.0918 138.937 38.0966C138.497 36.7245 138.096 35.3427 137.738 33.9512C136.23 33.9367 134.727 33.9367 133.224 33.9367C132.813 35.2364 132.388 36.5361 132.03 37.8502C131.474 37.9613 130.914 38.0628 130.358 38.1691C130.203 38.058 129.884 37.8357 129.725 37.7246C131.697 32.869 133.031 27.7766 135.007 22.9307ZM135.684 25.96C135.085 27.9892 134.505 30.0281 133.896 32.0573C135.036 32.067 136.177 32.0621 137.318 32.0428C136.743 30.0232 136.114 28.0182 135.684 25.96Z" fill="#525253"/>
<path d="M66.3856 37.9663C66.4049 32.9464 66.3518 27.9217 66.4146 22.897C67.1058 23.0612 68.1014 22.7569 68.5316 23.4961C70.9338 26.8588 73.2635 30.2746 75.4578 33.7774C75.4771 30.1732 75.4288 26.5689 75.4868 22.9646C76.1393 22.9694 76.7966 22.9694 77.4491 22.9743C77.483 27.9458 77.4346 32.9174 77.4781 37.8842C77.048 37.9518 76.1925 38.0774 75.7671 38.1402C73.2055 34.5939 70.7163 30.9897 68.4446 27.2501C68.3721 30.8254 68.4253 34.4007 68.4108 37.9711C67.7341 37.9711 67.0574 37.9711 66.3856 37.9663Z" fill="#525253"/>
<path d="M83.3608 22.9695C83.8441 22.9646 84.806 22.9598 85.2893 22.955C87.01 27.9748 88.5422 33.0624 90.1323 38.1306C89.156 38.0774 88.1893 38.005 87.2178 37.9325C86.865 36.5942 86.4928 35.2655 86.1062 33.9369C84.603 33.9369 83.1046 33.9369 81.6015 33.9465C81.1955 35.338 80.7508 36.715 80.2965 38.0871C79.615 38.0871 78.9335 38.0871 78.252 38.0823C79.7213 32.9802 81.5725 27.9748 83.3608 22.9695ZM82.2733 32.0671C83.4285 32.0623 84.5836 32.0671 85.7388 32.0333C85.125 29.9847 84.5256 27.9265 84.0568 25.8393C83.5735 27.9459 82.9451 30.0137 82.2733 32.0671Z" fill="#525253"/>
<path d="M88.6291 25.0663C88.6194 24.3657 88.6194 23.6652 88.6243 22.9694C92.0463 22.9694 95.4635 22.9743 98.8806 22.9646C98.8855 23.6652 98.8855 24.3657 98.8806 25.0615C97.6095 25.0615 96.3383 25.0615 95.0671 25.0759C95.0381 29.4291 95.13 33.7822 95.0188 38.1402C94.1681 38.0774 93.3223 38.0049 92.4764 37.9325C92.5054 33.6421 92.4813 29.3518 92.4861 25.0615C91.2004 25.0615 89.9148 25.0615 88.6291 25.0663Z" fill="#525253"/>
<path d="M99.7227 37.9808C99.7468 32.9754 99.6985 27.97 99.7468 22.9695C100.583 22.9695 101.419 22.9695 102.255 22.9695C102.309 27.9797 102.275 32.9899 102.275 38.0002C101.424 37.9905 100.573 37.976 99.7227 37.9808Z" fill="#525253"/>
<path d="M103.777 29.8107C104.014 26.7283 105.865 23.3704 109.171 22.8583C112.579 22.177 115.629 25.0904 116.199 28.2888C116.663 31.1684 116.301 34.5021 114.097 36.6328C111.96 38.8794 107.987 38.7586 105.943 36.4492C104.227 34.6857 103.898 32.154 103.777 29.8107ZM109.442 25.0034C108.442 25.1725 107.649 25.9311 107.262 26.8442C106.112 29.3276 106.262 32.3956 107.63 34.7678C108.369 36.0916 110.109 36.2994 111.424 35.8356C112.84 35.048 113.41 33.3957 113.628 31.8834C113.792 30.0088 113.782 27.9506 112.709 26.3273C112.033 25.2788 110.665 24.6604 109.442 25.0034Z" fill="#525253"/>
<path d="M142.443 22.9743C143.246 22.9694 144.058 22.9694 144.865 22.9646C144.923 27.2936 144.884 31.6177 144.889 35.9467C146.581 35.995 148.277 35.9806 149.969 35.9806C149.964 36.6859 149.959 37.3913 149.954 38.0967C147.446 38.1209 144.942 37.9083 142.434 37.9566C142.443 32.9609 142.424 27.97 142.443 22.9743Z" fill="#525253"/>
<path d="M113.699 42.3049C115.101 42.4547 116.522 42.4934 117.928 42.3146C119.229 42.561 120.717 42.8267 121.476 44.0443C122.965 46.4165 122.022 49.755 119.683 51.2093C120.674 53.2917 121.679 55.3644 122.66 57.4516C121.665 57.3984 120.669 57.3356 119.678 57.268C118.9 55.461 118.18 53.6299 117.353 51.8471C117.073 51.7698 116.522 51.6152 116.242 51.5379C116.164 53.4946 116.222 55.4513 116.179 57.4081C115.352 57.4081 114.526 57.4081 113.704 57.4177C113.636 52.3785 113.646 47.3441 113.699 42.3049ZM116.208 44.3825C116.193 46.2281 116.193 48.0737 116.208 49.9193C117.174 49.7695 118.32 49.7406 119.001 48.9337C119.77 47.9384 119.876 46.3875 119.277 45.3004C118.649 44.2182 117.257 44.4839 116.208 44.3825Z" fill="#525253"/>
<path d="M135.499 42.3387C136.891 42.3967 138.293 42.5126 139.685 42.3097C140.777 42.5464 142 42.6865 142.822 43.5369C143.779 44.3196 143.851 45.6047 144.122 46.716C143.88 48.9771 142.445 51.0208 140.217 51.6876C139.472 51.6827 138.728 51.6876 137.988 51.6876C137.988 53.6105 138.008 55.5334 137.964 57.4563C137.109 57.3935 136.253 57.321 135.403 57.2534C135.49 52.2867 135.296 47.3054 135.499 42.3387ZM138.003 44.3776C137.984 46.2328 137.979 48.0881 138.008 49.9434C138.921 49.8033 139.815 49.5569 140.69 49.2428C141.299 48.0591 141.802 46.5759 141.087 45.3197C140.458 44.2133 139.057 44.479 138.003 44.3776Z" fill="#525253"/>
<path d="M67.885 43.2277C70.1229 41.7444 73.105 41.7831 75.3671 43.2035C75.1061 43.8026 74.8402 44.4017 74.5744 45.0008C73.7382 44.6771 72.8827 44.4114 72.0224 44.1602C70.5192 44.3486 68.9339 44.8559 68.1654 46.2908C66.7298 48.8853 66.9474 52.6925 69.3302 54.6734C70.4467 55.6349 71.9837 55.5431 73.3177 55.2049C73.3322 53.6298 73.3274 52.0596 73.3274 50.4894C74.1345 50.4797 74.9466 50.4652 75.7537 50.4507C75.9954 52.5814 76.0099 54.7411 75.7151 56.8621C73.2839 57.5578 70.4999 58.1038 68.1944 56.722C63.4867 53.9922 63.3465 46.199 67.885 43.2277Z" fill="#525253"/>
<path d="M78.1932 42.4837C80.431 42.1697 82.6833 42.6045 84.926 42.2856C84.9454 43.0007 84.9599 43.7109 84.9744 44.426C83.5775 44.426 82.1758 44.426 80.779 44.426C80.779 45.774 80.779 47.1171 80.779 48.4651C82.1517 48.4651 83.5195 48.4651 84.8922 48.4651C84.8922 49.1318 84.8922 49.8034 84.8922 50.475C83.5244 50.475 82.1565 50.475 80.7935 50.475C80.779 52.0887 80.779 53.7072 80.779 55.3209C82.432 55.3209 84.0802 55.3209 85.7284 55.3209C85.738 55.978 85.7429 56.6351 85.7525 57.297C83.2247 57.1714 80.6823 57.5337 78.1738 57.21C78.227 52.3013 78.1883 47.3925 78.1932 42.4837Z" fill="#525253"/>
<path d="M90.9289 42.4596C93.1812 41.5416 95.8831 42.4692 97.3476 44.3535C99.8996 47.6099 99.6869 52.6829 96.9948 55.7896C94.7956 58.3406 90.3586 58.1425 88.3527 55.4514C85.3174 51.5862 85.9409 44.4115 90.9289 42.4596ZM89.2227 50.0981C89.2662 52.3737 90.1604 55.1905 92.7511 55.6011C93.9884 55.3451 95.2451 54.7411 95.6946 53.4656C96.6709 50.9678 96.7869 47.8708 95.3176 45.5324C94.7763 44.6337 93.6936 44.4356 92.7801 44.1313C89.9574 44.5129 89.0874 47.6679 89.2227 50.0981Z" fill="#525253"/>
<path d="M103.018 43.4162C105.28 41.7493 108.455 41.7203 110.804 43.2326C110.524 43.8172 110.234 44.4018 109.949 44.9864C109.079 44.6578 108.19 44.3824 107.286 44.1554C105.966 44.4163 104.507 44.7786 103.753 46.0106C102.1 48.5906 102.288 52.4945 104.632 54.6058C105.783 55.6494 107.407 55.3982 108.808 55.1953C108.808 53.6202 108.803 52.0451 108.823 50.4701C109.64 50.4749 110.461 50.4749 111.288 50.4797C111.297 52.5428 111.278 54.6106 111.302 56.6737C108.687 57.7753 105.439 58.1086 103.023 56.3596C98.9579 53.369 98.9192 46.3972 103.018 43.4162Z" fill="#525253"/>
<path d="M145.509 57.3018C145.591 52.2868 145.088 47.2572 145.601 42.2518C146.393 42.3388 147.196 42.4209 147.988 42.5176C147.964 44.3777 147.979 46.2426 147.969 48.1027C148.578 48.1076 149.187 48.1124 149.801 48.1221C150.956 48.1124 152.106 48.1172 153.262 48.0786C153.257 46.204 153.262 44.3245 153.262 42.4451C154.103 42.4451 154.948 42.4451 155.794 42.4499C155.794 47.3973 155.794 52.3496 155.794 57.297C154.948 57.297 154.103 57.297 153.257 57.297C153.262 54.9392 153.257 52.5863 153.262 50.2286C151.497 50.1851 149.733 50.1996 147.974 50.1996C147.974 52.5622 147.969 54.9199 147.974 57.2777C147.152 57.2873 146.331 57.297 145.509 57.3018Z" fill="#525253"/>
<path d="M158.181 42.4111C159.027 42.4256 159.878 42.4353 160.729 42.4256C160.719 47.3875 160.719 52.3446 160.729 57.3065C159.878 57.3017 159.027 57.3017 158.181 57.3162C158.177 52.3494 158.177 47.3827 158.181 42.4111Z" fill="#525253"/>
<path d="M164.368 44.3438C166.499 41.9136 170.299 41.4497 172.996 43.2181C172.725 43.8123 172.454 44.4066 172.184 45.0009C170.366 44.0491 167.949 43.9089 166.485 45.5758C164.305 48.2428 164.498 53.1709 167.689 54.9827C169.061 55.804 170.661 55.3305 172.092 54.9682C172.319 55.2484 172.773 55.804 173 56.0794V56.7075C170.874 57.611 168.385 58.012 166.267 56.8669C161.845 54.5961 161.217 47.9142 164.368 44.3438Z" fill="#525253"/>
<path d="M127.65 42.5514C128.302 42.4306 128.955 42.3436 129.612 42.2856C130.158 42.8123 130.24 43.595 130.497 44.2665C131.884 48.6583 133.305 53.0405 134.624 57.4516C133.658 57.4178 132.701 57.326 131.744 57.2487C131.405 55.9055 131.014 54.5817 130.598 53.2627C129.114 53.2676 127.63 53.2579 126.147 53.2772C125.726 54.6638 125.291 56.0505 124.813 57.4178C124.117 57.4129 123.421 57.4081 122.725 57.4081C124.184 52.3979 126.185 47.5616 127.65 42.5514ZM126.818 51.3785C127.954 51.3929 129.09 51.3929 130.231 51.3785C129.641 49.3396 129.076 47.3007 128.539 45.2473C128.07 47.32 127.461 49.3541 126.818 51.3785Z" fill="#525253"/>
</svg>
