<svg width="170" height="80" viewBox="0 0 170 80" fill="none" xmlns="http://www.w3.org/2000/svg">
<path d="M60.8146 51.105C62.9923 50.0699 65.3472 49.254 67.7889 49.3357C70.1629 49.4349 72.5803 49.5793 74.8466 50.3552C76.479 50.9745 78.0785 51.6861 79.6258 52.4968C81.9581 53.8398 84.7714 54.1181 87.4024 53.7998C88.6789 53.6571 89.9483 53.3283 91.0824 52.7125C92.6193 51.8826 94.217 51.1694 95.839 50.5222C97.4662 49.8733 99.2167 49.6315 100.95 49.4662C102.579 49.367 104.232 49.2 105.845 49.5497C107.893 49.9046 109.748 50.8771 111.641 51.6878C113.631 52.5507 115.612 53.5841 117.809 53.7806C119.341 53.9216 120.866 53.5667 122.397 53.6432C121.885 54.3339 121.213 54.8784 120.581 55.456C119.152 56.7277 117.629 57.9002 115.987 58.8866C115.055 59.419 114.035 59.8922 112.945 59.9287C112.068 59.8383 111.219 59.5564 110.418 59.1998C109.056 58.5439 107.632 57.9959 106.155 57.6776C103.416 57.1957 100.585 57.2757 97.8709 57.8707C96.2193 58.229 94.6963 58.9858 93.1507 59.6434C91.4262 60.3689 89.8181 61.4179 87.9564 61.7693C85.4088 62.3695 82.684 61.9416 80.3604 60.7742C78.9173 60.047 77.4394 59.3929 75.9476 58.7788C72.9623 57.4497 69.6072 57.1922 66.3857 57.4723C64.373 57.6393 62.4575 58.363 60.6496 59.2241C59.8786 59.5669 59.0623 59.8209 58.2253 59.9235C57.2597 59.9287 56.3463 59.5286 55.504 59.0902C53.8299 58.1629 52.3068 56.9852 50.8602 55.7378C50.1065 55.0854 49.3355 54.44 48.7207 53.6519C50.3913 53.5545 52.0637 53.9912 53.7309 53.7302C56.2542 53.3631 58.4875 52.0549 60.8146 51.105Z" fill="#525253"/>
<path d="M87.6992 10.0291C95.5679 10.2535 103.437 11.7096 110.748 14.6741C116.338 16.9217 121.642 20.081 125.87 24.4216C128.305 26.9285 130.382 29.8372 131.636 33.1183C133.815 38.6871 133.352 45.1866 130.469 50.4161C127.421 55.9796 122.421 60.2262 116.977 63.335C110.435 67.0006 103.15 69.2448 95.7433 70.2938C87.4162 71.4368 78.8876 71.2106 70.6559 69.4814C63.4055 67.9087 56.3009 65.2087 50.2123 60.9047C45.8811 57.7906 41.9946 53.8137 39.789 48.8904C37.8075 44.4907 37.455 39.3847 38.8165 34.7536C40.1433 30.1817 43.0713 26.2361 46.5463 23.0559C51.0806 18.8876 56.6135 15.944 62.3774 13.8651C70.4632 10.9355 79.1237 9.7977 87.6992 10.0291ZM82.5849 10.7858C76.0864 11.0016 69.6053 12.1306 63.4506 14.2426C57.2943 16.3703 51.3654 19.4634 46.6071 23.9745C43.2501 27.1511 40.4507 31.095 39.3167 35.6322C38.0559 40.5538 38.8026 45.9311 41.3103 50.3447C44.0907 55.2716 48.4618 59.1215 53.2445 62.0407C59.9756 66.0733 67.6012 68.4741 75.3431 69.5823C84.1548 70.7879 93.2026 70.4661 101.865 68.4063C108.391 66.811 114.765 64.2745 120.282 60.3897C124.448 57.4131 128.201 53.6362 130.403 48.953C132.147 45.2631 132.708 41.0287 131.983 37.0117C131.506 34.2856 130.42 31.6865 128.925 29.3658C127.164 26.6258 124.882 24.2493 122.369 22.1913C117.856 18.5101 112.547 15.9214 107.052 14.0721C99.1975 11.4469 90.8425 10.4466 82.5849 10.7858Z" fill="#525253"/>
<path d="M83.4259 14.5488C88.6948 14.3888 93.9811 14.8515 99.1441 15.9145C105.552 17.221 111.837 19.4583 117.358 23.0125C120.187 24.8617 122.752 27.1494 124.777 29.8668C126.557 32.2607 127.75 35.1016 128.116 38.0678C128.549 41.4184 128.113 44.9587 126.461 47.9405C125.555 49.6576 124.306 51.3747 122.443 52.1106C120.784 52.6273 118.999 52.7751 117.285 52.4846C115.762 52.2132 114.359 51.5278 112.936 50.9519C111.316 50.2943 109.791 49.4158 108.142 48.8347C105.342 47.8396 102.301 47.8988 99.3977 48.3163C96.4975 48.713 93.8509 50.049 91.2268 51.2686C87.8873 53.0848 83.662 53.1787 80.2687 51.4512C78.6692 50.6458 77.0194 49.9429 75.3592 49.2731C73.3985 48.4798 71.2799 48.1789 69.1785 48.0623C66.5857 47.8936 63.9356 48.2867 61.5738 49.3967C59.5402 50.3709 57.4875 51.3121 55.3671 52.0793C53.3144 52.8221 51.0411 52.7647 48.952 52.1993C47.8145 51.8809 46.8819 51.0755 46.1334 50.1882C43.9713 47.523 42.8495 44.0923 42.8477 40.6703C42.7574 36.5438 44.211 32.4381 46.8142 29.2493C50.7477 24.2685 56.4143 21.0153 62.2407 18.738C68.9927 16.1372 76.2084 14.8307 83.4259 14.5488ZM101.664 23.2351C101.301 23.2804 100.931 23.3047 100.589 23.4369C100.443 23.804 100.52 24.2076 100.521 24.5921C101.817 24.7817 103.13 24.6547 104.434 24.693C105.79 24.6495 107.159 24.7956 108.506 24.5747C108.614 23.9797 108.812 23.2804 108.44 22.7376C108.176 22.5654 107.845 22.6367 107.553 22.6436C105.589 22.8367 103.626 23.049 101.664 23.2351ZM62.6523 23.6231C62.6453 27.0485 62.6575 30.474 62.6471 33.8995C62.6384 34.2839 62.6679 34.7867 63.0864 34.9555C63.5709 35.1085 64.1024 35.0772 64.599 35.0059C64.9585 34.9502 65.1895 34.5971 65.1565 34.2439C65.1739 31.7405 65.1304 29.2371 65.1322 26.7337C66.5614 29.2788 67.9455 31.8518 69.3869 34.3901C69.7916 35.1207 70.7172 35.0651 71.4327 35.0598C71.8686 35.0442 72.4695 35.0964 72.6848 34.6127C72.7907 34.2665 72.756 33.896 72.7681 33.5376C72.7525 30.6027 72.7716 27.6696 72.7577 24.7347C78.4539 24.7034 84.1518 24.7504 89.8479 24.7121C90.5131 24.7087 90.4419 23.8858 90.3984 23.4248C90.4019 23.0368 90.0181 22.8646 89.6812 22.8942C83.6586 22.8872 77.6325 22.8976 71.6098 22.8907C71.2364 22.8924 70.87 22.9655 70.5053 23.0368C70.2865 23.9119 70.3751 24.8165 70.3681 25.709C70.3542 27.4643 70.4775 29.2197 70.4115 30.975C69.05 28.6926 67.8622 26.3144 66.551 24.0041C66.2593 23.5152 66.0144 22.8402 65.3701 22.7532C64.6754 22.6454 63.9652 22.6628 63.2688 22.7219C62.819 22.748 62.6332 23.2317 62.6523 23.6231ZM91.8589 23.176C91.727 24.1346 91.8364 25.1123 91.8016 26.0778C91.4856 26.1596 91.0584 26.0656 90.8552 26.3875C90.7405 26.7493 90.7492 27.1512 90.8361 27.5183C90.9854 27.8888 91.4856 27.781 91.7982 27.8853C91.8121 29.3084 91.7912 30.7332 91.8051 32.1563C91.8068 33.1218 92.2792 34.1082 93.1215 34.611C93.8595 35.0685 94.7626 35.0842 95.6031 35.0407C95.8601 35.0494 96.1484 34.8824 96.1502 34.5971C96.1675 34.1726 96.2735 33.6733 96.0025 33.3062C95.551 33.1549 95.0439 33.1636 94.6289 32.9078C94.219 32.6243 94.1826 32.0832 94.1652 31.6309C94.1548 30.3679 94.1652 29.1031 94.1687 27.8401C94.8216 27.7914 95.5337 27.9723 96.1432 27.6714C96.2439 27.1982 96.4298 26.457 95.9348 26.1613C95.36 26.0848 94.78 26.13 94.2051 26.13C94.1131 25.1853 94.2156 24.2337 94.1322 23.2908C94.0975 22.802 93.5244 22.7637 93.151 22.7793C92.7134 22.8054 92.0673 22.661 91.8589 23.176ZM97.1887 22.8298C96.7493 22.9081 96.7094 23.4317 96.7163 23.7918C96.7285 27.2747 96.7041 30.761 96.7285 34.2439C96.6677 34.7693 97.1748 35.1051 97.6523 35.0529C98.1803 35.0772 99.1024 35.1503 99.1337 34.4005C99.1823 30.9246 99.132 27.4452 99.158 23.9675C99.1372 23.59 99.2153 23.049 98.8003 22.8559C98.2758 22.7376 97.7201 22.7602 97.1887 22.8298ZM74.5534 27.4435C72.954 29.4563 73.2943 32.7339 75.3366 34.3187C76.9048 35.5087 79.1937 35.4617 80.8244 34.4196C81.4548 34.0247 81.9601 33.4002 82.146 32.673C82.238 32.4346 82.1494 32.0676 81.8473 32.0658C81.302 32.0084 80.7428 31.9928 80.2009 32.0815C79.8658 32.3146 79.6365 32.6678 79.3014 32.9009C78.4226 33.4489 77.1618 33.2836 76.4706 32.506C76.1476 32.1632 76.0486 31.69 75.9288 31.2516C77.853 31.2151 79.7789 31.2621 81.7031 31.2308C82.0817 31.2499 82.5159 31.0133 82.5107 30.5888C82.5801 29.1466 81.9845 27.6487 80.8765 26.7128C79.0096 25.3262 76.0052 25.5524 74.5534 27.4435ZM83.6673 26.9911C82.8146 27.934 82.8858 29.6233 83.9399 30.3922C85.1434 31.2934 86.748 31.2499 88.0887 31.8275C88.5576 32.0571 88.5263 32.7756 88.0922 33.0261C87.4809 33.3776 86.7064 33.3462 86.0464 33.1636C85.4907 33.0209 85.2233 32.4712 84.8325 32.1058C84.2299 31.9475 83.5908 32.0571 82.9761 32.071C82.568 33.2766 83.6308 34.317 84.6484 34.7502C86.2201 35.3869 88.1113 35.3678 89.6031 34.5205C91.0219 33.7324 91.2945 31.4639 89.9973 30.4357C88.9466 29.6581 87.5851 29.5641 86.3677 29.1901C85.9492 29.1049 85.3605 28.8439 85.4664 28.3203C85.7026 27.4939 86.7498 27.52 87.4305 27.6505C88.0696 27.6853 88.3475 28.322 88.8007 28.6647C89.3374 28.7465 89.8861 28.6926 90.428 28.6995C90.7527 28.0036 90.3324 27.2556 89.8062 26.7963C88.9779 26.0378 87.8074 25.8186 86.7202 25.8221C85.621 25.8569 84.4227 26.1265 83.6673 26.9911ZM101.256 27.0555C99.3456 28.9379 99.5088 32.4416 101.518 34.19C103.154 35.5661 105.709 35.5017 107.405 34.2665C108.07 33.7986 108.458 33.0453 108.605 32.2589C107.987 31.9284 107.258 32.0032 106.589 32.0745C106.209 32.245 105.995 32.6538 105.651 32.8852C104.755 33.475 103.434 33.2714 102.767 32.4259C102.472 32.0989 102.392 31.6553 102.291 31.2447C104.111 31.2325 105.933 31.2429 107.754 31.2429C108.117 31.236 108.536 31.2308 108.793 30.9263C109.067 29.2754 108.34 27.4487 106.943 26.5058C105.205 25.4637 102.723 25.5889 101.256 27.0555ZM84.5842 36.0967C84.4539 36.6377 84.5113 37.2014 84.5026 37.7529C84.1275 37.772 83.7454 37.7581 83.3772 37.8381C83.1966 38.2122 83.1671 38.6523 83.3321 39.0368C83.6881 39.2368 84.1188 39.1586 84.5112 39.202C84.513 40.6843 84.48 42.1665 84.5217 43.6487C84.539 44.4281 85.0305 45.2127 85.8155 45.4023C86.5171 45.5554 87.2673 45.5763 87.9672 45.411C88.2728 45.0213 88.2624 44.3359 88.0036 43.9271C87.6129 43.8314 87.21 43.7879 86.814 43.7235C86.3972 42.2482 86.7046 40.6877 86.6108 39.176C87.0519 39.1725 87.4983 39.1968 87.9394 39.1359C88.3006 38.8384 88.2381 38.1861 87.9915 37.8277C87.5382 37.7355 87.0728 37.7772 86.6143 37.7668C86.6039 37.2258 86.6508 36.6795 86.5605 36.1454C85.9457 35.8966 85.2233 35.9767 84.5842 36.0967ZM62.6332 36.4098C62.6002 36.469 62.5359 36.5838 62.5029 36.6412C63.1246 39.2716 63.8888 41.869 64.5487 44.4907C64.665 44.8021 64.6737 45.237 65.0262 45.3849C65.6462 45.4632 66.2818 45.4632 66.9018 45.3884C67.2248 45.3188 67.2509 44.9587 67.3412 44.7012C67.8882 42.544 68.3467 40.3624 68.9597 38.2226C69.4963 40.3763 70.033 42.5318 70.5626 44.689C70.6408 44.9343 70.6755 45.237 70.9238 45.3797C71.549 45.4632 72.1916 45.4667 72.8168 45.3849C73.2284 45.211 73.2093 44.6751 73.3534 44.3133C73.8379 42.4535 74.3485 40.6025 74.8434 38.7445C75.0431 37.9738 75.3088 37.2136 75.3887 36.4151C74.7028 36.3924 73.9838 36.2637 73.3204 36.4707C73.0616 36.8448 73.0234 37.3127 72.9106 37.7407C72.5667 39.202 72.2611 40.6738 71.8599 42.1213C71.3858 40.4216 71.0124 38.6941 70.5765 36.9857C70.5071 36.7212 70.3838 36.3629 70.0486 36.3907C69.3018 36.3507 68.5516 36.3472 67.8049 36.3942C67.4836 36.4029 67.3603 36.7595 67.2978 37.0187C66.8636 38.6923 66.4902 40.3833 66.0179 42.0482C65.575 40.3816 65.2312 38.6923 64.8283 37.017C64.7744 36.8065 64.7084 36.589 64.5435 36.4394C63.9183 36.3124 63.2653 36.3472 62.6332 36.4098ZM76.6495 38.2591C76.0417 38.6749 75.8333 39.423 75.7378 40.1136C76.363 40.1015 77.0055 40.1937 77.622 40.0545C78.011 39.7257 78.1673 39.075 78.7439 39.0176C79.2632 38.962 79.8883 38.8906 80.3138 39.2647C80.6993 39.637 80.7028 40.5103 80.1054 40.6738C78.7925 41.0461 77.2782 40.8669 76.1303 41.7194C75.1352 42.6414 75.321 44.4959 76.4706 45.2179C77.7505 45.9955 79.4854 45.7155 80.6021 44.7621C80.7202 44.9743 80.8365 45.1918 80.9894 45.3814C81.618 45.4702 82.2536 45.4214 82.884 45.4249C82.495 43.3773 82.8285 41.281 82.6426 39.2177C82.4898 38.247 81.4878 37.7859 80.6143 37.6642C79.2857 37.5006 77.8044 37.4797 76.6495 38.2591ZM89.8427 38.4105C87.8925 39.9849 87.9376 43.4173 89.9434 44.9274C91.1191 45.8251 92.7846 45.8425 94.1131 45.2962C95.0109 44.9309 95.5423 44.0593 95.881 43.1946C95.3166 43.0659 94.7365 43.0555 94.1617 43.0729C93.5904 43.9949 92.3278 44.3202 91.3675 43.8488C90.7458 43.5182 90.5981 42.7719 90.5252 42.1334C92.0378 42.1213 93.5522 42.1265 95.0648 42.1334C95.386 42.1108 95.7698 42.1926 96.0043 41.9108C96.1102 40.7469 95.7264 39.55 95.0057 38.6384C94.4014 37.8764 93.3924 37.5737 92.4529 37.5772C91.522 37.5389 90.5669 37.8086 89.8427 38.4105ZM103.019 38.2017C102.096 38.8332 101.805 40.312 102.536 41.1888C103.618 42.2622 105.332 41.9264 106.546 42.7388C106.99 43.005 106.914 43.7079 106.497 43.9636C105.585 44.5603 103.92 44.2141 103.885 42.9267C103.286 42.9546 102.659 42.8258 102.079 42.9963C101.858 43.6557 102.287 44.3498 102.779 44.7725C103.673 45.4858 104.877 45.6598 105.988 45.6128C107.056 45.5624 108.213 45.0509 108.659 44.0175C109.008 43.226 108.994 42.1213 108.258 41.5541C107.199 40.7608 105.799 40.8234 104.618 40.3207C104.191 40.1624 104.033 39.5482 104.382 39.2334C104.828 38.8767 105.457 38.962 105.983 39.0403C106.539 39.1255 106.678 39.8336 107.192 39.9866C107.695 40.0528 108.206 40.0145 108.715 40.0145C108.595 39.4961 108.492 38.9394 108.126 38.5305C107.598 37.9303 106.782 37.6763 106.011 37.6033C104.991 37.5232 103.883 37.5946 103.019 38.2017ZM97.1123 37.8364C96.8431 38.1339 96.9473 38.5618 96.9195 38.9272C96.9507 40.9678 96.8882 43.012 96.949 45.0509C96.9699 45.5224 97.4995 45.4162 97.826 45.4389C98.1994 45.4145 98.6266 45.5084 98.9513 45.2718C99.2205 43.6835 98.6631 41.9612 99.3664 40.4529C99.7832 39.5413 100.891 39.4874 101.754 39.4978C101.878 38.8715 101.885 38.233 101.864 37.598C101.254 37.5789 100.608 37.5546 100.058 37.859C99.5435 38.1321 99.2483 38.6575 98.9375 39.1272C98.8906 38.701 99.0417 38.193 98.7395 37.8399C98.2081 37.7233 97.6437 37.7303 97.1123 37.8364Z" fill="#525253"/>
<path d="M103.726 27.7948C104.916 27.3581 106.275 28.2123 106.501 29.4388C105.1 29.4562 103.698 29.4614 102.297 29.437C102.502 28.7116 102.939 27.9792 103.726 27.7948Z" fill="#525253"/>
<path d="M75.957 29.4405C76.1637 28.7916 76.4867 28.0801 77.1918 27.8574C78.4144 27.2955 79.9235 28.1305 80.177 29.4353C78.7704 29.4631 77.3637 29.4544 75.957 29.4405Z" fill="#525253"/>
<path d="M90.948 39.7065C91.5055 39.0958 92.5249 38.9619 93.2265 39.3933C93.6989 39.6943 93.8239 40.2753 93.9767 40.7746C92.8219 40.7886 91.6687 40.7868 90.5156 40.7764C90.6129 40.4058 90.6684 39.9935 90.948 39.7065Z" fill="#525253"/>
<path d="M78.2554 42.2726C79.0213 42.0499 79.841 42.0394 80.5877 41.728C80.5408 42.3943 80.7232 43.1946 80.2126 43.7269C79.6864 44.2054 78.8928 44.3132 78.219 44.1653C77.3507 43.9235 77.4253 42.5265 78.2554 42.2726Z" fill="#525253"/>
</svg>
