<svg width="200" height="80" viewBox="0 0 200 80" fill="none" xmlns="http://www.w3.org/2000/svg">
<path d="M13.0034 25.3298C22.5833 25.3323 32.1632 25.3182 41.7418 25.3375C41.7418 34.9883 41.7431 44.6378 41.7418 54.2886C32.1619 54.3079 22.5833 54.2938 13.0034 54.2963C13.0022 44.6404 13.0009 34.9857 13.0034 25.3298ZM25.4324 33.5454C24.6125 34.6131 23.785 35.8851 23.9515 37.296C24.1924 38.5744 25.2198 39.5265 26.269 40.1985C26.1396 39.5175 25.9026 38.8494 25.959 38.1427C25.9077 37.5002 26.1729 36.9079 26.3612 36.3104C26.8122 35.2851 27.6423 34.4987 28.4635 33.7664C28.68 33.5723 28.9375 33.3282 28.8811 33.0057C28.6838 31.9495 28.4109 30.9023 27.9587 29.9258C27.3976 31.3071 26.3804 32.4224 25.4324 33.5454ZM29.9764 33.1175C29.2795 34.1261 28.1176 34.6928 27.4617 35.7361C26.5841 36.9105 26.2895 38.5436 26.9262 39.8953C27.2951 39.2246 27.4847 38.4639 27.9344 37.8356C28.5557 36.8707 29.5677 36.2616 30.59 35.8003C30.9257 35.6269 31.3228 35.4406 31.4471 35.05C31.5598 33.9629 31.4356 32.7757 30.7848 31.8673C30.5145 32.2836 30.2685 32.7166 29.9764 33.1175ZM23.4545 32.3491C23.1675 33.3038 22.7345 34.2045 22.2221 35.0564C21.8762 35.6089 21.6084 36.2154 21.4995 36.8617C21.3484 38.0104 21.9248 39.2361 22.9369 39.8092C23.6889 40.2396 24.5664 40.4876 25.435 40.3951C24.7714 39.822 24.0271 39.2747 23.6581 38.4485C23.3071 37.8485 23.4006 37.1328 23.3942 36.4685C23.3648 35.7849 23.6889 35.1643 24.0015 34.581C24.1052 34.3792 24.2564 34.166 24.1847 33.9257C24.0514 33.3693 23.8042 32.8489 23.6184 32.3093C23.5774 32.3196 23.4954 32.3388 23.4545 32.3491ZM32.1914 35.4573C31.6098 36.0445 30.8501 36.3914 30.125 36.7614C29.2065 37.2317 28.4814 38.0348 28.0381 38.9612C27.8165 39.4366 27.5898 39.9403 27.6308 40.4786C28.7466 40.5968 29.8765 40.2859 30.827 39.7013C31.8711 39.0871 32.5206 37.9718 32.8563 36.8334C33.0856 35.9687 33.3354 35.0821 33.2188 34.1788C32.8716 34.6015 32.6001 35.0859 32.1914 35.4573ZM24.8214 41.0517C24.6484 41.414 24.6958 41.8188 24.692 42.2068C26.0614 42.2299 27.4309 42.2376 28.7991 42.203C28.8017 41.8201 28.7978 41.4384 28.7709 41.0568C27.454 41.0388 26.1383 41.0478 24.8214 41.0517ZM25.5733 42.9572C25.5529 43.7153 25.7489 44.4528 25.795 45.207C25.8437 46.2427 26.0781 47.259 26.1037 48.2972C26.21 49.0566 26.3113 49.8198 26.3574 50.5869C26.3446 50.7783 26.4752 50.9235 26.5713 51.0738C26.6418 51.0636 26.7827 51.0404 26.8519 51.0302C26.9889 50.7346 27.0043 50.4096 27.0222 50.0896C27.3054 47.7306 27.6256 45.3753 27.8985 43.0137C27.7192 42.9174 27.5334 42.8146 27.322 42.8441C26.7391 42.8672 26.1357 42.7632 25.5733 42.9572Z" fill="#525253"/>
<path d="M104.992 25.3337C105.223 25.326 105.456 25.3182 105.689 25.3131C105.699 34.9793 105.699 44.6469 105.689 54.3131C105.456 54.3067 105.224 54.3003 104.993 54.2926C104.995 44.6392 104.996 34.9871 104.992 25.3337Z" fill="#525253"/>
<path d="M184.474 31.4986C185.504 31.4125 186.545 31.4254 187.577 31.4704C187.999 31.4138 187.991 31.9342 188 32.2233C187.983 37.5068 188.02 42.7915 187.982 48.0763C187.039 48.1033 186.096 48.093 185.155 48.0879C184.896 48.1136 184.736 47.8771 184.588 47.7063C182.37 44.7523 180.131 41.8125 177.91 38.8611C177.681 38.5912 177.531 38.1826 177.136 38.1402C177.113 41.3075 177.134 44.4748 177.126 47.642C177.17 47.8938 176.926 48.129 176.68 48.0904C175.745 48.093 174.811 48.093 173.879 48.0904C173.629 48.1277 173.385 47.8951 173.431 47.642C173.431 42.4228 173.43 37.2036 173.431 31.9843C173.392 31.7363 173.629 31.4948 173.879 31.5359C174.768 31.5359 175.659 31.5269 176.55 31.5397C176.839 31.5153 176.999 31.8057 177.171 31.992C178.972 34.3819 180.771 36.7744 182.581 39.1566C183.159 39.8723 183.616 40.6946 184.315 41.3049C184.369 38.6246 184.323 35.9418 184.339 33.2602C184.36 32.6717 184.249 32.0601 184.474 31.4986Z" fill="#525253"/>
<path d="M49.2744 31.4408C50.3646 31.3624 51.4599 31.4202 52.5526 31.4112C52.8294 31.7183 53.0945 32.037 53.3341 32.3749C55.0405 34.6427 56.752 36.9067 58.461 39.172C59.0772 39.9313 59.5806 40.7832 60.2788 41.4732C60.3172 38.1184 60.2481 34.7622 60.3147 31.4086C61.4587 31.4035 62.604 31.3997 63.7492 31.4112C63.8146 33.5673 63.7582 35.7272 63.7774 37.8845C63.7774 41.2137 63.7761 44.5428 63.7774 47.872C62.7628 47.8784 61.7469 47.8989 60.7336 47.8668C60.4479 47.7191 60.2852 47.4158 60.0943 47.1691C58.1266 44.5634 56.1602 41.9563 54.1899 39.3531C53.7773 38.825 53.4379 38.2199 52.8793 37.828C52.8229 41.1635 52.8755 44.5017 52.8537 47.8386C52.3951 48.048 51.8839 47.9426 51.3997 47.9645C50.6912 47.9452 49.979 48.0056 49.2744 47.9272C49.2705 42.4317 49.2705 36.9363 49.2744 31.4408Z" fill="#525253"/>
<path d="M65.6211 31.537C65.9747 31.3417 66.3872 31.4149 66.7728 31.4034C67.7554 31.4175 68.7405 31.3854 69.7231 31.4149C70.1241 31.6963 70.2778 32.1987 70.534 32.5996C71.5614 34.3432 72.5876 36.0881 73.6201 37.8278C73.6739 37.8188 73.7803 37.8021 73.8341 37.7944C74.987 35.7977 76.2169 33.8485 77.3775 31.857C77.5095 31.6681 77.6248 31.37 77.9079 31.4072C78.9802 31.3982 80.0524 31.4111 81.1247 31.4021C81.3437 31.388 81.559 31.4355 81.755 31.5409C79.7398 34.7056 77.7401 37.8805 75.7237 41.0439C75.5417 41.3227 75.438 41.653 75.4469 41.9883C75.4469 43.9722 75.4534 45.9561 75.4444 47.9387C74.3042 47.9875 73.1602 47.9656 72.0201 47.9528C71.9778 47.9117 71.8932 47.8269 71.8522 47.7845C71.8241 45.7698 71.851 43.7538 71.842 41.7391C71.8522 41.536 71.7895 41.3446 71.6819 41.1763C69.668 37.9602 67.6273 34.7582 65.6211 31.537Z" fill="#525253"/>
<path d="M83.3507 31.4407C84.5485 31.3855 85.7579 31.3701 86.9544 31.451C86.9595 34.7108 86.9505 37.9718 86.9582 41.2316C87.0197 42.4522 87.5219 43.7885 88.6518 44.3937C89.4563 44.8563 90.4159 44.8383 91.3088 44.7432C92.0236 44.5633 92.7513 44.2331 93.1855 43.6087C93.803 42.7375 93.9939 41.6325 93.9683 40.5827C93.9657 37.5337 93.9644 34.4834 93.9683 31.4343C95.1084 31.3765 96.2537 31.406 97.3952 31.4163C97.4374 31.4587 97.522 31.5422 97.5643 31.5834C97.5899 34.7969 97.5643 38.0117 97.5758 41.2265C97.6091 42.3405 97.349 43.4493 96.9365 44.4785C96.2717 46.0525 94.8983 47.3091 93.2624 47.8013C91.1666 48.445 88.8184 48.3987 86.8019 47.5057C84.6113 46.5164 83.3469 44.0815 83.3494 41.7327C83.3482 38.302 83.3456 34.8714 83.3507 31.4407Z" fill="#525253"/>
<path d="M118.039 31.3763C119.128 31.3558 120.237 31.3416 121.294 31.6461C122.32 31.907 123.276 32.3901 124.163 32.9644C124.338 33.0839 124.528 33.1983 124.658 33.3743C124.681 33.7791 124.356 34.0707 124.157 34.3881C123.691 34.9882 123.37 35.7103 122.78 36.2062C121.585 35.3942 120.244 34.7029 118.782 34.5898C117.899 34.5461 116.793 34.8879 116.55 35.8516C116.424 36.6701 117.171 37.2508 117.86 37.4847C119.593 38.1271 121.493 38.3327 123.101 39.3028C124.108 39.8836 124.976 40.8485 125.148 42.0319C125.19 42.817 125.203 43.6085 125.134 44.391C124.87 45.6309 124.088 46.7693 122.975 47.3886C121.836 48.0825 120.485 48.3112 119.169 48.2572C116.807 48.3562 114.47 47.4619 112.632 46.001C112.398 45.866 112.306 45.5628 112.475 45.3405C112.928 44.7263 113.46 44.1751 113.923 43.5674C114.068 43.4196 114.179 43.1524 114.426 43.1768C114.692 43.1459 114.885 43.3669 115.091 43.4967C116.39 44.5002 118.035 45.1144 119.684 45.0142C120.418 44.9422 121.203 44.6223 121.533 43.9117C121.579 43.5301 121.647 43.0727 121.367 42.7605C121.023 42.3146 120.467 42.118 119.957 41.9278C118.426 41.3805 116.785 41.1492 115.319 40.4155C114.414 39.9787 113.601 39.2694 113.239 38.3083C112.847 37.4526 112.928 36.5005 112.949 35.5869C113.106 34.4125 113.726 33.3075 114.654 32.5726C115.609 31.8158 116.822 31.3866 118.039 31.3763Z" fill="#525253"/>
<path d="M126.287 31.5383C130.763 31.5448 135.24 31.5075 139.715 31.5576C139.779 32.7025 139.745 33.8511 139.733 34.9973C138.175 35.0397 136.616 34.9819 135.058 35.0243C135.01 35.0589 134.91 35.1283 134.861 35.1617C134.841 39.3222 134.86 43.4827 134.852 47.6419C134.888 47.8899 134.656 48.1353 134.405 48.0903C133.329 48.08 132.252 48.1186 131.177 48.0659C130.992 47.4723 131.067 46.8478 131.056 46.2375C131.054 42.5216 131.063 38.8057 131.053 35.0898C129.468 35.0769 127.883 35.0962 126.298 35.0808C126.113 34.4897 126.191 33.8679 126.178 33.2601C126.184 32.6845 126.123 32.0986 126.287 31.5383Z" fill="#525253"/>
<path d="M157.034 31.9829C156.997 31.7362 157.227 31.4908 157.48 31.5358C159.399 31.5332 161.318 31.5358 163.237 31.5345C164.098 31.5628 164.971 31.4536 165.821 31.6373C167.164 31.7825 168.522 32.3055 169.451 33.3205C170.161 34.0285 170.522 35.0012 170.711 35.9687C170.86 37.4514 170.754 39.0627 169.842 40.3026C169.256 41.1892 168.315 41.7096 167.421 42.2248C167.96 43.2502 168.703 44.1483 169.318 45.1274C169.959 46.1116 170.703 47.0329 171.249 48.0775C169.838 48.1019 168.426 48.0955 167.017 48.0826C166.067 46.7977 165.244 45.4216 164.336 44.1059C164.027 43.6883 163.814 43.1808 163.43 42.83C162.546 42.7735 161.658 42.8107 160.774 42.8172C160.709 44.5672 160.809 46.321 160.723 48.0698C159.643 48.1135 158.561 48.0839 157.481 48.0903C157.227 48.1353 156.994 47.8912 157.034 47.6419C157.032 42.4227 157.032 37.2022 157.034 31.9829ZM160.881 34.856C160.819 35.0461 160.742 35.2363 160.753 35.4393C160.751 36.4274 160.759 37.4142 160.754 38.401C160.754 38.7736 160.71 39.1616 160.868 39.5124C162.129 39.4841 163.39 39.5175 164.652 39.4957C165.59 39.4829 166.612 38.9625 166.91 38.0168C167.135 37.2677 167.076 36.3619 166.534 35.758C166.151 35.2967 165.57 35.0474 164.983 34.9947C163.629 34.7455 162.246 34.9215 160.881 34.856Z" fill="#525253"/>
<path d="M142.02 31.6373C146.126 31.6295 150.234 31.6038 154.34 31.6501C154.371 32.6896 154.337 33.7291 154.359 34.7685C154.049 34.906 153.705 34.8623 153.379 34.8675C150.84 34.8572 148.302 34.8777 145.763 34.8572C145.581 35.2889 145.645 35.7605 145.639 36.2153C145.644 36.8423 145.623 37.4681 145.658 38.0938C148.018 38.1221 150.378 38.0938 152.736 38.1067C152.924 38.1157 153.145 38.1324 153.286 38.2814C153.327 38.8763 153.289 39.4738 153.302 40.0687C153.292 40.5236 153.359 40.9938 153.19 41.4268C150.735 41.459 148.278 41.4076 145.823 41.4513C145.781 41.4937 145.698 41.5759 145.656 41.6183C145.615 42.1708 145.65 42.7271 145.64 43.2809C145.647 43.7743 145.588 44.2793 145.736 44.7586C148.587 44.7663 151.438 44.7521 154.289 44.765C154.331 44.8061 154.416 44.8909 154.458 44.9333C154.454 45.9304 154.496 46.9313 154.435 47.9271C154.232 48.0556 153.98 47.9811 153.758 48.0029C149.846 47.9862 145.932 48.0132 142.02 47.9888C142.004 42.5383 142.003 37.0878 142.02 31.6373Z" fill="#525253"/>
</svg>
