<svg width="200" height="80" viewBox="0 0 200 80" fill="none" xmlns="http://www.w3.org/2000/svg">
<path d="M119.947 3H121.062C121.018 4.05011 120.975 5.13925 120.504 6.10348C119.809 7.54396 118.22 8.29347 117.607 9.79642C117.434 9.56219 117.085 9.09765 116.912 8.86732C116.277 9.18743 115.672 9.56609 115.087 9.97208C114.216 9.2616 113.34 8.55112 112.469 7.84064C111.433 7.00524 111.138 5.64674 110.844 4.41706C111.609 5.11973 112.328 5.87315 113.156 6.50946C113.014 6.93888 112.881 7.37219 112.751 7.80551C113.093 7.57128 113.431 7.33315 113.764 7.08722C114.263 7.12626 114.761 7.14577 115.26 7.13797C115.334 6.4431 115.303 5.74043 115.311 5.04556C115.829 5.10802 116.351 5.16658 116.869 5.22123C117.784 4.34289 118.761 3.49968 119.947 3Z" fill="#525253"/>
<path d="M132.392 5.71704C132.863 6.00592 133.311 6.34554 133.813 6.59148C135.446 6.87255 136.655 8.18421 138.245 8.62142C139.902 9.7457 141.539 11.0105 142.489 12.8179C142.85 12.9897 143.215 13.1654 143.58 13.3371C143.682 13.8759 143.784 14.4146 143.894 14.9494C143.136 15.1329 142.379 15.3242 141.625 15.5154C141.177 13.5284 139.007 12.9897 137.825 11.5648C137.291 11.0261 136.914 10.2688 136.149 10.019C134.783 9.48806 133.794 8.36768 132.632 7.52057L133.523 7.32929C133.064 6.84522 132.314 6.49779 132.392 5.71704Z" fill="#525253"/>
<path d="M119.513 9.64025C121.197 6.77881 125.001 6.30645 128.031 6.42747C129.931 6.83736 131.858 7.7118 132.887 9.43725C134.253 11.4204 133.731 14.0163 132.875 16.097C132.333 17.1745 131.638 18.4237 130.327 18.6579C129.825 16.5265 130.834 14.4692 131.988 12.7359C132.592 11.9122 131.988 10.8426 131.344 10.2375C129.994 9.03517 128.145 8.64479 126.406 8.38715C124.706 8.20367 122.602 8.56282 121.876 10.3234C122.005 10.9792 122.453 11.5062 122.771 12.0801C120.007 15.5739 113.727 16.3313 110.728 12.7789C110.559 12.6539 110.217 12.408 110.049 12.2831C109.852 10.5967 112.196 10.3078 113.44 10.3C114.795 10.9558 116 11.881 117.385 12.4744C118.488 12.7281 119.611 12.5134 120.636 12.084C121.684 11.0027 120.259 10.2883 119.513 9.64025Z" fill="#525253"/>
<path d="M126.316 9.79252C126.446 9.76129 126.701 9.69492 126.831 9.65979C126.917 10.0502 127.094 10.8309 127.18 11.2213C127.832 11.0964 128.456 10.8621 129.072 10.624C128.809 11.2096 128.491 11.7678 128.169 12.3221C128.715 12.8218 129.273 13.3254 129.681 13.95C128.825 13.7782 128.028 13.4308 127.196 13.1849C126.921 13.7978 126.646 14.4067 126.379 15.0157C126.261 14.8674 126.034 14.5746 125.916 14.4302C126.014 13.8875 126.222 13.3488 126.143 12.7906C125.861 12.287 125.244 12.1972 124.761 11.9903C124.679 11.8615 124.51 11.6 124.428 11.4672C125.028 11.4438 125.629 11.4165 126.234 11.3813C126.265 10.8543 126.293 10.3234 126.316 9.79252Z" fill="#525253"/>
<path d="M135.226 11.6038C136.105 12.3807 137.165 12.8686 138.202 13.3917C137.668 14.4926 137.652 15.7067 137.727 16.8973C137.083 16.261 136.341 15.734 135.418 15.6247C135.273 15.7652 134.978 16.0463 134.829 16.1907C134.971 15.7652 135.116 15.3436 135.273 14.9259C135.01 14.7971 134.48 14.5433 134.217 14.4145C134.543 14.1569 134.861 13.8914 135.187 13.626C135.19 12.9506 135.202 12.2792 135.226 11.6038Z" fill="#525253"/>
<path d="M103.473 17.2682C104.489 16.2845 105.329 14.9806 106.77 14.5668C107.794 14.5903 108.811 14.7659 109.832 14.8596C109.105 15.25 108.36 15.6091 107.681 16.0776C109.007 16.3782 110.299 15.8238 111.606 15.656C113.259 16.5929 114.648 18.0529 114.986 19.9774C113.054 19.6768 111.571 17.9709 109.553 18.0724C108.579 18.1427 107.331 17.9709 106.699 18.9C105.522 20.3327 103.885 21.2657 102.373 22.3001C101.812 23.2566 101.243 24.213 100.54 25.0796C100.258 24.5565 99.8572 24.1115 99.4372 23.6977C100.379 22.6398 101.204 21.4804 101.828 20.2077C101.317 20.3483 100.572 20.1062 100.269 20.6918C99.1467 22.0972 98.1811 23.6157 97.0977 25.0523C97.1016 23.8851 98.0319 23.0731 98.4637 22.0581C98.9583 20.926 99.6923 19.9111 100.556 19.0288C101.38 18.2168 102.691 18.1466 103.473 17.2682Z" fill="#525253"/>
<path d="M141.998 17.1042C142.728 17.2838 143.446 17.5141 144.156 17.7679C144.392 18.5135 144.573 19.2825 144.926 19.9891C145.358 21.0314 146.563 21.414 147.108 22.3938C146.775 22.4094 146.111 22.4446 145.778 22.4602C146.649 24.3847 146.559 26.5552 147.415 28.4759C147.646 28.917 147.383 29.3971 147.34 29.85C146.987 29.4752 146.641 29.1004 146.3 28.7218C146.115 28.995 145.746 29.5494 145.562 29.8265C144.926 29.0263 145.318 28.1401 145.472 27.2501C144.459 26.4108 143.415 25.6105 142.563 24.5994C142.194 25.3294 141.829 26.0633 141.291 26.684C140.608 25.4309 140.946 24.1115 141.538 22.913C141.236 21.82 140.667 20.5122 141.581 19.5363C142.221 18.8687 141.943 17.9279 141.998 17.1042Z" fill="#525253"/>
<path d="M136.135 17.6547L137.423 17.682C135.205 18.1778 136.987 20.1999 137.827 21.0587C138.334 21.3047 138.836 21.5467 139.346 21.7887C139.574 21.4023 139.814 21.0158 140.057 20.6371C139.994 21.2227 140.249 22.0581 139.46 22.2455C139.166 22.2377 138.577 22.222 138.287 22.2142C138.852 22.8974 139.519 23.4869 140.179 24.0802C139.829 23.9983 139.131 23.8382 138.781 23.7562C138.977 24.2988 139.162 24.8454 139.331 25.3997C138.868 25.0523 138.569 24.5955 138.432 24.0256C137.906 24.7204 137.721 25.5949 137.262 26.3327C137.235 25.7823 137.215 25.2318 137.16 24.6892C136.928 25.0757 136.709 25.47 136.493 25.8681C135.857 26.0048 135.213 26.1102 134.573 26.2039C134.059 25.8603 133.576 25.4739 133.462 24.8297C134.334 24.9273 135.213 25.0132 136.096 24.9976C134.718 24.2676 133.58 23.2253 133.007 21.7575C132.972 22.4446 132.968 23.1316 132.921 23.8187C132.12 24.6697 131.712 23.0848 131.743 22.4914C131.606 21.4374 132.461 20.8714 133.211 20.36C132.807 20.3209 131.998 20.2468 131.594 20.2077C132.344 19.8291 133.152 19.587 133.976 19.4192L132.528 18.1075L134.196 18.8609L134.02 17.3814C134.526 18.045 135.044 18.7009 135.566 19.3567C135.708 18.9312 135.994 18.0802 136.135 17.6547Z" fill="#525253"/>
<path d="M106.428 20.7582C107.562 20.9729 108.489 20.2 109.494 19.8408C110.385 20.1492 111.119 20.7621 111.822 21.3672C111.167 22.5383 109.753 22.511 108.611 22.8194C108.265 22.468 107.916 22.1128 107.574 21.7576C107.307 21.7888 106.777 21.8552 106.51 21.8864C106.483 21.5077 106.455 21.133 106.428 20.7582Z" fill="#525253"/>
<path d="M102.243 26.0517C101.842 25.1967 102.596 24.6815 103.224 24.2559C104.214 24.1505 105.136 24.4511 105.926 25.0445C106.161 24.8962 106.64 24.6073 106.876 24.4628C106.868 24.8923 106.856 25.755 106.848 26.1844C106.475 26.0165 106.102 25.8565 105.729 25.6964C104.642 26.3405 103.44 26.4342 102.243 26.0517Z" fill="#525253"/>
<path d="M138.296 27.8356C138.497 27.5155 138.697 27.1993 138.897 26.8831L139.325 27.4843C139.568 27.3477 140.051 27.0744 140.291 26.9378C140.287 27.2266 140.275 27.8005 140.271 28.0894C140.542 28.1011 141.083 28.1245 141.35 28.1362C141.315 28.753 140.977 29.3347 141.111 29.9632C141.829 30.9196 143.325 31.0406 143.8 32.2351C142.595 31.8526 141.386 31.431 140.102 31.6027C139.89 32.1219 139.662 32.6294 139.466 33.1525C139.038 33.4726 138.583 33.7459 138.163 34.0738C138.214 33.2111 138.618 32.4616 139.117 31.7784C138.218 32.0829 137.445 32.6411 136.679 33.1838C136.687 32.9144 136.711 32.3757 136.722 32.1063C136.546 32.118 136.196 32.1376 136.02 32.1493C135.867 31.3412 136.64 31.064 137.138 30.7049C137.174 30.5956 137.244 30.377 137.28 30.2677C137.025 29.9944 136.766 29.7211 136.51 29.4518C136.891 29.3815 137.657 29.241 138.037 29.1707C137.535 28.5773 137.005 27.9957 136.616 27.3203C137.335 27.1056 137.896 27.2774 138.296 27.8356ZM140.145 28.066C140.008 28.7842 139.655 29.5806 140.224 30.213C140.612 29.4674 140.828 28.6671 140.145 28.066Z" fill="#525253"/>
<path d="M98.3085 28.5813C99.5725 27.1096 102.014 26.7738 103.592 27.9489C102.305 29.7836 99.9768 30.0452 97.912 29.7602C97.5313 30.135 97.1505 30.5097 96.7854 30.9001C96.5695 30.2013 96.283 29.526 95.9297 28.8858C96.7069 28.8584 97.7825 29.4245 98.3085 28.5813Z" fill="#525253"/>
<path d="M104.461 29.3581C105.572 29.1317 106.785 28.5344 107.751 29.4674C107.672 29.686 107.59 29.9085 107.515 30.1271C106.554 30.2286 105.6 30.1076 104.645 30.0374C104.598 29.8695 104.508 29.5299 104.461 29.3581Z" fill="#525253"/>
<path d="M100.311 31.958C101.269 31.5949 102.434 31.0094 103.337 31.7901C104.374 32.5435 105.751 32.2664 106.87 32.8441C107.604 31.8487 108.75 32.6646 109.602 33.0042C109.696 33.1994 109.885 33.5936 109.983 33.7888C109.273 34.3119 108.758 35.0068 108.817 35.9203C109.375 36.0686 109.936 36.217 110.501 36.3575C110.741 36.947 110.953 37.552 111.106 38.1688C110.376 38.282 109.602 38.4694 108.931 38.0556C107.812 37.4076 106.788 38.485 105.779 38.852C105.704 39.4258 105.728 40.0114 105.704 40.5891C104.26 41.0342 102.505 41.6158 101.182 40.5696C101.096 40.3393 100.927 39.8748 100.845 39.6444C101.759 39.6015 102.678 39.621 103.596 39.6249C103.561 39.4297 103.494 39.0394 103.459 38.8442C102.136 37.88 100.57 37.7433 98.9841 37.8175C98.3285 37.2436 97.8849 36.3926 97.8967 35.5143C98.3835 35.7719 98.8702 36.0413 99.3491 36.3185C99.5454 36.1662 99.7417 36.0179 99.9418 35.8695C99.565 35.1864 98.8898 34.5423 99.0155 33.699C99.9576 33.2189 101.382 33.4414 101.877 32.3249C101.485 32.2351 100.703 32.0517 100.311 31.958Z" fill="#525253"/>
<path d="M145.686 31.673C145.902 34.1089 144.705 36.4277 144.046 38.7348C143.677 40.2222 143.221 41.6939 143.115 43.232C142.322 44.2313 141.663 45.3244 140.913 46.3549C139.896 47.4011 138.581 48.1077 137.494 49.0837C137.785 47.8462 139.08 47.2997 139.692 46.2574C140.116 45.4805 140.795 44.9067 141.447 44.325C141.384 43.2827 141.628 42.3185 142.173 41.4284C141.498 42.135 140.921 42.9197 140.446 43.7746C140.281 43.7394 140.12 43.7082 139.959 43.6731C140.262 42.3614 141.16 41.3425 142.354 40.7375C143.335 40.3978 143.3 39.3009 143.563 38.4655C143.83 37.9385 144.065 37.3959 144.301 36.8532C143.963 36.6541 143.633 36.4551 143.3 36.256C145.435 35.6782 144.634 33.133 145.686 31.673Z" fill="#525253"/>
<path d="M131.782 33.742C133.67 33.578 135.417 34.3431 137.195 34.835C138.283 35.2215 139.707 36.4512 140.579 35.038C140.626 35.1278 140.72 35.3113 140.767 35.405C139.303 36.7674 139.232 39.1643 137.49 40.2261C135.456 40.6516 133.282 40.4291 131.429 39.4375C132.74 39.3048 134.082 39.3048 135.315 39.824C136.116 40.2066 137.996 40.1675 137.011 38.8988C134.875 38.5162 132.763 37.9346 130.816 36.9704C130.824 36.8181 130.844 36.5136 130.852 36.3614C132.332 36.5136 133.921 36.4746 135.232 37.2788C136.249 37.8721 137.054 38.7583 138.074 39.3321C138.502 38.2118 139.229 37.1851 139.319 35.9632C137.811 36.3497 136.222 36.5683 134.679 36.2794C133.423 35.7641 132.371 34.8897 131.236 34.1714C131.374 34.0621 131.645 33.8513 131.782 33.742Z" fill="#525253"/>
<path d="M140.968 36.3887C141.882 36.3458 142.781 36.5176 143.661 36.7557C143.213 37.513 143.245 38.4148 143.037 39.2424C142.703 39.0472 142.377 38.8481 142.051 38.649C141.82 39.0667 141.592 39.4883 141.36 39.906C140.928 40.0583 140.493 40.2105 140.061 40.3627C139.947 40.6711 139.829 40.9756 139.715 41.284C139.696 41.1006 139.66 40.7336 139.645 40.5462C139.908 39.9919 139.982 39.379 140.025 38.7739C140.555 38.3484 141.105 37.9463 141.615 37.4974C141.454 37.2202 141.129 36.6659 140.968 36.3887Z" fill="#525253"/>
<path d="M121.559 39.9685C122.878 39.6483 124.33 39.5742 125.559 40.2534C127.325 41.0771 129.457 42.0257 131.376 41.2059C131.592 41.2177 131.808 41.2255 132.028 41.2372C131.223 41.6588 130.359 41.9398 129.457 42.0335C130.112 43.0914 130.98 44.0596 131.341 45.2736C131.631 46.4135 131.584 47.6042 131.757 48.7636C132.707 49.6771 134.819 49.4116 134.917 51.0707C133.896 50.8599 132.872 51.0473 131.855 51.1293C131.015 51.6875 130.104 52.1247 129.209 52.5736C128.954 50.8755 131.329 49.8683 130.446 48.1507C129.586 46.7961 128.012 46.1325 126.768 45.1917C126.72 45.9568 126.693 46.7258 126.638 47.491C126.096 45.6913 125.142 43.9698 123.596 42.8377C122.595 42.1428 122.002 41.0693 121.559 39.9685Z" fill="#525253"/>
<path d="M111.361 42.5176C111.648 42.2912 111.934 42.0648 112.221 41.8423C112.904 42.0101 113.587 42.1858 114.278 42.3381C114.572 42.4669 115.157 42.7245 115.452 42.8534C114.702 44.2626 112.519 44.3095 111.153 43.759C110.086 43.2437 108.9 43.3608 107.754 43.3452C108.755 42.4786 110.093 42.3732 111.361 42.5176Z" fill="#525253"/>
<path d="M131.449 42.3926C133.357 42.1818 135.257 42.6229 137.137 42.2404C138.413 42.8064 138.644 44.2781 138.935 45.4805C138.279 45.4805 137.628 45.4219 136.98 45.3399C136.168 45.9879 134.88 46.5735 134.028 45.6561C133.106 44.6294 132.011 43.6691 131.449 42.3926Z" fill="#525253"/>
<path d="M48.3842 44.1649C50.6178 43.1344 53.5618 43.9385 54.9004 46.0114C56.9887 49.0719 55.972 54.0648 52.3096 55.435C51.0888 55.6498 49.8523 55.6263 48.6276 55.4272C46.0447 54.3186 44.7297 51.3752 45.0359 48.6816C45.5108 46.8273 46.5314 44.9418 48.3842 44.1649ZM49.1301 46.027C46.7552 47.3231 46.6806 50.9887 48.4627 52.8117C49.6129 54.0219 51.709 53.8775 52.8121 52.6751C54.3548 50.9301 54.1506 48.0296 52.4666 46.4408C51.6188 45.5664 50.1821 45.5391 49.1301 46.027Z" fill="#525253"/>
<path d="M103.335 44.8364C105.286 43.7083 107.924 43.8137 109.639 45.34C110.793 46.5502 112.583 45.9763 113.985 46.64C113.867 46.8664 113.635 47.3192 113.518 47.5456C111.606 48.6192 109.015 48.3771 107.574 50.2197C107.653 50.4266 107.81 50.8443 107.889 51.0551C108.085 51.1371 108.477 51.3049 108.674 51.3908C109.227 51.4611 109.777 51.5704 110.314 51.7187C108.222 53.4325 104.081 52.4644 103.889 49.4975C104.203 47.3622 106.817 47.0928 108.473 46.4097C108.069 45.3322 107.001 44.3251 105.8 44.9731C104.992 45.8826 104.089 46.9015 102.719 46.4526C102.84 45.9178 102.668 45.0746 103.335 44.8364Z" fill="#525253"/>
<path d="M118.247 44.1376C118.765 44.2587 119.275 44.3992 119.781 44.567C119.986 44.8247 120.194 45.0784 120.406 45.3361C121.454 44.3211 122.596 45.7811 123.723 45.9919C124.869 47.1123 125.944 48.3264 127.334 49.1657C126.364 49.4662 125.363 49.6966 124.468 50.1845C124.182 50.7467 123.872 51.2971 123.546 51.8397C124.08 52.0739 124.614 52.3121 125.159 52.5229C125.65 52.1832 126.145 51.8475 126.655 51.5313C126.647 52.5775 126.455 53.6081 126.18 54.6192C125.736 54.4201 125.462 54.0336 125.226 53.6315C123.887 53.3505 122.51 53.1241 121.14 53.288C119.079 54.0297 117.089 54.9627 115.032 55.7239C114.816 55.6381 114.384 55.4624 114.168 55.3765C114.023 55.0837 113.874 54.7988 113.725 54.5099C113.807 54.3811 113.968 54.1273 114.05 53.9985C114.435 53.7721 114.82 53.5417 115.201 53.3075C115.954 51.8553 115.931 50.2587 115.703 48.6855C115.891 47.651 114.733 47.0537 114.765 46.0505C115.95 46.3979 117.116 46.7922 118.298 47.1474C117.952 47.409 117.599 47.6666 117.246 47.9165C117.049 48.7753 116.763 49.6146 116.79 50.5085C117.466 50.2821 118.133 50.0167 118.808 49.7824C118.796 49.9854 118.777 50.3914 118.765 50.5983C118.074 51.2073 116.806 51.5704 117.144 52.7337C118.176 53.0577 119.055 52.1442 119.966 51.8007C120.009 50.3797 120.841 49.0603 120.578 47.6315C120.374 46.1442 118.777 45.4766 118.247 44.1376ZM122.325 47.815C122.211 48.8143 121.87 49.7629 121.536 50.7076C121.693 50.7154 121.85 50.7193 122.011 50.7272C122.698 49.9659 123.715 49.5287 124.28 48.666C124.359 47.936 124.044 47.2645 123.758 46.6204C123.067 46.7609 122.729 47.3387 122.325 47.815Z" fill="#525253"/>
<path d="M67.4556 47.4675C68.8177 46.7375 70.4664 47.0342 71.7107 47.854C72.8726 48.7519 73.0964 50.2977 73.2377 51.6601C71.2397 51.949 69.1317 51.3478 67.2044 52.0466C67.7107 52.8391 68.3859 53.8423 69.4889 53.6393C70.4075 53.7955 71.0984 53.128 71.7971 52.6673C72.3035 52.9835 72.8059 53.3075 73.2966 53.6432C72.5625 54.3615 71.7539 55.0057 70.8275 55.4585C69.8462 55.5327 68.8609 55.5405 67.8835 55.4468C64.5547 54.3069 64.2289 48.8885 67.4556 47.4675ZM67.3103 49.8371C67.4203 49.962 67.6362 50.2158 67.7461 50.3407C68.8569 50.3251 69.9678 50.3329 71.0787 50.2977C70.8982 49.2711 70.0463 48.7401 69.0925 48.5176C68.4252 48.8534 67.8363 49.314 67.3103 49.8371Z" fill="#525253"/>
<path d="M75.6026 47.7408C77.3886 46.6555 80.156 46.7102 81.4671 48.4981C81.4789 50.8052 81.3886 53.1162 81.5535 55.4194C80.788 55.3882 80.0304 55.2633 79.2807 55.111C77.9892 55.3882 76.4465 55.8723 75.2728 55.0134C73.8832 54.1039 73.9892 51.7967 75.4063 50.9535C76.6821 50.2626 78.1816 50.1962 79.5672 49.8449C79.5633 48.3576 77.8165 48.3185 76.8626 48.9704C76.792 49.1695 76.6467 49.5716 76.5761 49.7707C75.9205 49.7551 75.265 49.7317 74.6134 49.677C74.7665 48.9704 74.9038 48.135 75.6026 47.7408ZM76.2228 52.5307C76.2385 53.8033 77.7576 54.2327 78.7311 53.6042C79.6026 53.2841 79.6536 52.3316 79.6143 51.543C78.4328 51.6679 77.2277 51.8592 76.2228 52.5307Z" fill="#525253"/>
<path d="M59.7689 47.3152C61.6099 46.5032 63.871 47.6119 64.6089 49.4193C64.0398 49.5599 63.5177 50.0556 62.9092 49.9268C62.4971 49.5794 62.1085 49.2124 61.7081 48.8572C61.3823 48.8572 60.7346 48.8611 60.4088 48.865C60.1968 49.0133 59.765 49.3061 59.553 49.4545C58.7287 50.7934 58.7836 52.9171 60.3891 53.6276C61.5707 54.0648 62.45 53.1474 63.1369 52.3276C63.6472 52.5423 64.1536 52.7648 64.656 52.9991C63.867 55.7863 59.7571 56.4539 58.03 54.1858C56.8759 53.0186 57.1389 51.3205 57.1782 49.837C57.7709 48.7635 58.4892 47.6353 59.7689 47.3152Z" fill="#525253"/>
<path d="M86.3272 47.3855C87.7521 46.7063 89.9347 47.3504 90.076 49.1071C90.1702 51.1565 90.1152 53.2099 90.0917 55.2633C89.4715 55.2555 88.8513 55.2438 88.235 55.2281C88.1879 53.2958 88.3724 51.3439 88.0191 49.4272C87.5755 49.2476 87.128 49.0641 86.6844 48.8807C85.9504 49.2125 85.4322 49.8058 85.0907 50.5202C85.1339 52.0934 85.13 53.6705 85.0868 55.2477C84.4352 55.2516 83.7875 55.2438 83.1359 55.2281C83.1005 52.6048 83.1005 49.9776 83.1359 47.3582C84.2193 47.2059 85.3105 47.9633 86.3272 47.3855Z" fill="#525253"/>
<path d="M109.146 50.6178C110.21 49.2632 113.014 49.3921 113.206 51.3478C111.761 51.5391 110.619 50.3797 109.146 50.6178Z" fill="#525253"/>
<path d="M66.1495 61.7982C67.5312 61.642 69.0975 61.4508 70.3418 62.2315C71.3506 62.7468 71.806 63.8242 72.3712 64.7377C72.281 64.8665 72.1004 65.1281 72.0101 65.2608C71.5077 65.3701 71.0052 65.4911 70.5067 65.6161C69.8825 64.4215 68.7795 63.1957 67.2682 63.6095C65.1446 63.9804 64.5793 66.4163 64.6735 68.2394C64.9326 69.7228 65.8551 71.3585 67.543 71.4482C68.9915 71.6708 70.0867 70.5074 70.6284 69.3129C71.2996 69.5159 71.9552 69.7657 72.5989 70.0507C71.9787 71.7332 70.5302 73.1269 68.7245 73.4157C67.912 73.4626 67.0955 73.4353 66.2829 73.4274C65.1485 72.8809 63.8845 72.3344 63.3114 71.132C61.3566 68.0286 62.3497 62.9537 66.1495 61.7982Z" fill="#525253"/>
<path d="M111.523 65.7683C112.21 65.4092 112.921 65.0891 113.655 64.8236C113.792 65.4677 113.902 66.1118 114.008 66.7638C113.231 67.0878 112.277 67.2049 111.747 67.9271C111.005 69.5589 111.358 71.4053 111.264 73.1425C110.651 73.1425 110.043 73.1386 109.434 73.1269C109.418 70.4918 109.411 67.8529 109.438 65.2179C110.172 65.2296 111.115 64.9524 111.523 65.7683Z" fill="#525253"/>
<path d="M73.5703 70.5308C72.7303 68.2861 74.1669 65.6121 76.4712 64.9719C77.1699 64.9836 77.8686 64.9836 78.5673 64.9836C79.7606 65.4559 80.8048 66.2523 81.4132 67.3961C81.6331 68.8873 81.8372 70.6089 80.8127 71.8698C80.3063 72.6661 79.3917 73.0253 78.5791 73.4313C77.8922 73.4313 77.2013 73.4313 76.5104 73.4274C75.1876 72.9238 73.9393 71.9479 73.5703 70.5308ZM76.4986 66.8261C74.8971 68.0285 75.0502 71.3623 77.3033 71.6082C79.6782 71.9478 80.3652 68.4423 78.7557 67.1658C78.1709 66.5646 77.2405 66.8613 76.4986 66.8261Z" fill="#525253"/>
<path d="M83.0885 65.253C83.6734 65.214 84.2661 65.1905 84.8549 65.171C84.9413 65.3193 85.114 65.6121 85.2004 65.7605C85.6911 65.495 86.1817 65.2257 86.6724 64.9602C87.9403 64.8275 89.5615 65.1788 89.958 66.5725C90.2995 68.739 90.0679 70.9525 90.0914 73.1385C89.4673 73.1307 88.8471 73.119 88.2229 73.0956C88.2308 71.2296 88.2936 69.3597 88.0659 67.5015C87.3829 66.6232 86.3702 66.7833 85.5223 67.322C84.7333 69.1528 85.2632 71.1789 85.0708 73.1034C84.4114 73.1307 83.7519 73.1425 83.0964 73.1346C83.0689 70.5074 83.0493 67.8802 83.0885 65.253Z" fill="#525253"/>
<path d="M91.885 68.2198C91.3158 66.6778 92.7957 65.4091 94.1343 64.9641C95.622 64.8704 97.1765 65.0461 98.3776 66.0064C98.7937 66.6778 97.9262 67.1033 97.6397 67.6108C96.5562 66.8535 95.2177 65.9205 93.9341 66.8808C93.9655 67.2048 93.993 67.5327 94.0244 67.8607C95.3158 68.2471 96.7015 68.2784 97.938 68.8444C98.5464 69.2113 98.7427 69.9257 99.0057 70.5347C98.8879 70.9641 98.7859 71.3935 98.6917 71.823C97.0508 74.1925 93.4277 73.7709 91.4336 72.0806C91.8889 71.6707 92.3561 71.2686 92.8507 70.9017C93.8948 71.741 95.4532 72.3539 96.6073 71.3311C97.2157 70.765 96.2972 70.2966 95.8379 70.2302C94.4444 69.8516 92.4699 69.832 91.885 68.2198Z" fill="#525253"/>
<path d="M101.082 66.0728C102.558 64.6479 105.156 64.523 106.691 65.9206C107.578 66.6896 107.732 67.9115 108.057 68.9733C107.975 69.1294 107.806 69.4339 107.724 69.5862C105.828 69.5901 103.928 69.5315 102.032 69.6408C102.252 70.5933 102.994 71.4404 104.002 71.5654C104.984 71.7684 105.808 71.0657 106.503 70.484C106.903 70.89 107.959 70.9798 107.798 71.702C106.318 73.6656 103.162 74.0794 101.29 72.4398C99.5667 70.8276 99.5628 67.8217 101.082 66.0728ZM102.122 68.0442C103.386 68.1808 104.67 68.1652 105.938 68.0325C105.533 67.3181 104.992 66.3812 104.034 66.4398C103.088 66.4124 102.436 67.2517 102.122 68.0442Z" fill="#525253"/>
<path d="M120.031 65.21C120.699 65.1983 121.366 65.2061 122.033 65.2451C121.181 67.8763 120.337 70.5074 119.439 73.119C118.728 73.1463 118.018 73.1502 117.307 73.119C116.491 70.484 115.509 67.8958 114.83 65.2217C115.446 65.2022 116.067 65.1905 116.687 65.1866C117.048 66.1781 117.37 67.1814 117.637 68.2042C117.868 68.9342 118.131 69.6603 118.469 70.3551C118.987 68.6375 119.501 66.9198 120.031 65.21Z" fill="#525253"/>
<path d="M122.929 67.5288C123.023 66.2484 124.028 65.4208 125.139 64.968C126.717 64.9797 129.009 64.7025 129.755 66.4631C130.022 68.6726 129.708 70.9212 129.999 73.1385C129.469 73.158 128.939 73.1424 128.409 73.0916C127.176 72.7793 126.05 73.5835 124.813 73.4625C123.961 73.0916 123.204 72.549 122.674 71.7878C122.674 71.1905 122.678 70.5972 122.678 70.0077C123.675 68.2042 125.853 68.212 127.62 67.7826C127.71 67.5757 127.891 67.1619 127.981 66.9511C127.333 66.5646 126.603 66.4123 125.857 66.3967C125.48 66.7754 125.115 67.1658 124.766 67.5679C124.154 67.5639 123.541 67.5483 122.929 67.5288ZM125.178 70.0116C124.621 70.3825 124.456 71.1554 125.088 71.5497C126.042 71.741 127.055 71.6668 127.812 71.0031C127.851 70.4644 127.887 69.9218 127.918 69.3831C127 69.5549 126.058 69.6798 125.178 70.0116Z" fill="#525253"/>
<path d="M131.614 65.2061C132.109 65.1944 132.611 65.1827 133.11 65.1749C133.263 65.3037 133.565 65.5575 133.714 65.6863C134.621 65.128 135.649 64.8821 136.713 64.9368C137.49 65.4247 138.448 66.0025 138.472 67.0331C138.523 69.063 138.487 71.093 138.476 73.1229C137.879 73.119 137.282 73.1151 136.686 73.1034C136.607 71.171 136.917 69.1918 136.356 67.3063C135.563 66.6076 134.303 66.7286 133.812 67.7084C133.094 69.4339 133.479 71.3272 133.365 73.1346C132.756 73.037 131.952 73.3806 131.492 72.877C131.437 71.1867 131.488 69.4963 131.449 67.806C131.453 66.9355 131.516 66.0689 131.614 65.2061Z" fill="#525253"/>
<path d="M140.025 67.2946C140.665 66.2289 141.635 65.4286 142.789 64.9563C144.39 64.7728 146.11 65.253 147.016 66.67C147.378 67.5796 146.216 67.6343 145.678 68.0051C145.085 67.0916 144.072 66.3773 142.938 66.8418C141.101 67.767 141.38 71.5458 143.699 71.6083C144.708 71.7761 145.226 70.808 145.737 70.1366C146.298 70.402 146.852 70.6831 147.409 70.9642C146.643 72.756 144.693 73.728 142.777 73.4508C141.415 72.8887 140.084 71.8776 139.849 70.3317C139.448 69.3285 139.864 68.2979 140.025 67.2946Z" fill="#525253"/>
<path d="M147.645 65.2296C148.328 65.2062 149.018 65.2022 149.705 65.2062C150.318 67.0721 150.773 68.9928 151.523 70.8119C152.057 68.9537 152.504 67.0721 153.003 65.2062C153.666 65.2022 154.326 65.214 154.993 65.2296C154.121 68.0598 153.36 70.9212 152.477 73.7436C152.21 74.7547 151.531 75.6252 150.53 76H148.901C148.81 75.4144 148.72 74.8289 148.646 74.2433C148.979 74.216 149.643 74.1574 149.976 74.1262C150.114 73.931 150.384 73.5406 150.518 73.3455C149.576 70.6363 148.551 67.9505 147.645 65.2296Z" fill="#525253"/>
</svg>
