<svg width="170" height="80" viewBox="0 0 170 80" fill="none" xmlns="http://www.w3.org/2000/svg">
<path d="M98.3891 33.3311C102.331 25.1769 110.687 19.5153 119.606 18.6468C121.916 18.3649 124.282 18.3724 126.595 18.6355C129.33 18.9137 132.042 19.4701 134.646 20.3611C134.222 22.3047 133.48 24.1581 132.992 26.0829C131.535 24.8423 129.926 23.7859 128.186 22.9965C125.303 21.8085 121.979 21.7107 119.107 22.9927C113.966 25.5529 110.762 30.7333 108.575 35.8875C107.006 39.8837 105.863 44.083 105.423 48.365C105.196 49.7071 105.248 51.0718 105.36 52.4214C105.673 54.5041 106.373 56.7297 108.191 57.9665C109.886 59.2297 112.077 59.147 114.066 58.9402C115.72 53.9252 117.199 48.8499 118.805 43.8198C119.103 43.0717 119.006 42.2597 118.965 41.4777C118.444 40.7259 117.773 40.1131 116.909 39.801C122.46 39.7522 128.022 39.692 133.573 39.8349C131.83 40.2597 130.392 41.6093 129.892 43.3537C128.346 48.4139 126.722 53.4477 125.202 58.5154C125.113 58.6846 124.941 59.0304 124.852 59.1996C121.607 60.647 118.205 61.7861 114.67 62.2259C110.221 62.8199 105.591 62.1733 101.578 60.1019C97.4428 57.7598 95.5651 52.8424 95.3677 48.2635C95.1926 47.1808 95.1926 46.068 95.3677 44.9853C95.4347 43.3086 95.6955 41.6544 96.042 40.0191C96.6045 37.7183 97.3608 35.4627 98.3891 33.3311Z" fill="#525253"/>
<path d="M47.9411 18.918C54.1739 18.933 60.4068 18.9217 66.636 18.9217C69.7543 18.9969 73.0477 19.636 75.4991 21.7112C77.0638 23.0007 77.9691 24.9443 78.2113 26.9443C78.2895 27.6586 78.2932 28.3804 78.1889 29.0909C77.5258 35.1849 73.6773 40.8391 68.0815 43.3466C65.9914 44.3278 63.7598 44.9368 61.5059 45.3993C60.6229 45.497 59.7325 45.5647 58.8607 45.7376C56.8005 45.7977 54.6881 46.0534 52.6651 45.5684C50.9364 50.0196 49.8337 54.7 48.2428 59.2076C48.3323 60.2903 48.8911 61.2264 49.856 61.7376C44.7892 61.7903 39.715 61.8053 34.6445 61.7339C35.9857 61.0797 37.1183 59.9407 37.5728 58.4895C41.2015 46.7902 44.8153 35.0834 48.4478 23.3841C48.7309 22.4368 49.1631 21.4518 48.8874 20.4518C48.6266 19.9067 48.2689 19.418 47.9411 18.918ZM53.5257 42.0534C53.6039 42.1549 53.7679 42.3579 53.8461 42.4594C55.6642 42.606 57.5381 42.497 59.2146 41.7C61.8486 40.5459 63.6741 38.1549 64.911 35.6173C65.8238 33.4218 66.6248 31.1398 66.8967 28.7639C67.016 27.0195 67.1091 24.9706 65.7754 23.6435C64.2367 22.0044 61.8002 22.2526 59.766 22.2563C57.6573 28.8466 55.7648 35.512 53.5257 42.0534Z" fill="#525253"/>
<path d="M81.9497 30.6281C84.3714 28.8536 87.6946 28.0266 90.5446 29.1807C92.3888 29.8649 94.0168 31.5717 94.0727 33.6281C94.2627 35.7785 92.9551 37.7071 91.4462 39.0905C89.2556 41.068 86.5322 42.2935 83.8684 43.4778C83.887 45.1958 84.5651 46.7898 85.1724 48.365C85.8951 49.865 86.7743 51.2785 87.635 52.6996C88.0559 52.0643 88.4211 51.3951 88.7452 50.7071C89.114 49.3312 89.3897 47.7672 88.1565 46.6883C89.9113 46.7409 91.6697 46.7071 93.4245 46.7184C93.3202 49.9627 91.7666 52.9816 89.5052 55.2334C91.4872 57.3763 93.9759 58.9553 96.5018 60.3613C97.5189 60.944 98.6105 61.3688 99.7468 61.6357C96.2447 61.8876 92.7092 61.7899 89.2034 61.7147C87.7542 60.9102 86.5918 59.6695 85.3512 58.5831C82.9258 60.4177 80.087 61.6545 77.1363 62.3312C75.6461 62.4365 74.141 62.4628 72.6545 62.2485C69.3089 61.5981 66.3433 58.8801 65.9484 55.3725C65.7957 54.553 65.7882 53.7146 65.941 52.8913C66.1422 50.0267 68.0012 47.5868 70.2589 45.9702C72.4868 44.3838 75.0798 43.4402 77.6653 42.6356C77.602 40.7371 77.8032 38.8537 78.1385 36.989C78.7793 34.5642 79.9044 32.1544 81.9497 30.6281ZM83.6896 35.4289C83.2276 37.1695 83.1084 38.9777 83.2872 40.7672C83.3878 40.6732 83.5853 40.4815 83.6821 40.3838C85.8765 38.8875 87.8697 36.9364 88.965 34.4664C89.5685 33.1619 89.5462 31.2822 87.9069 30.8687C85.6492 31.2709 84.3714 33.4101 83.6896 35.4289ZM73.1872 50.1244C71.9689 51.9891 71.8758 54.7259 73.2915 56.5041C74.0404 57.4853 75.2661 57.7936 76.3837 58.1319C78.295 58.2635 80.1615 57.6695 81.8976 56.9214C82.3447 56.6996 82.7917 56.474 83.2425 56.256C80.8768 53.2109 79.3009 49.5981 78.2577 45.8875C76.3092 46.9327 74.4204 48.2372 73.1872 50.1244Z" fill="#525253"/>
</svg>
