<svg width="170" height="80" viewBox="0 0 170 80" fill="none" xmlns="http://www.w3.org/2000/svg">
<path d="M133.556 12.7401H134.336C135.954 15.125 135.438 18.1743 134.741 20.7795C135.31 22.5595 136.339 24.1541 137.001 25.9025V26.8222C136.759 27.7664 136.582 28.728 136.364 29.6792C134.79 29.2631 133.649 27.9692 133.042 26.497C132.169 24.808 132.079 22.8742 131.534 21.0873C130.439 20.1921 129.094 19.6116 128.168 18.51C126.993 17.1392 125.71 15.716 125.291 13.9011C127.905 13.6353 129.548 16.1111 131.476 17.461C131.559 15.6985 132.12 13.8556 133.556 12.7401Z" fill="#525253"/>
<path d="M33 14.3488C33.9603 13.8172 35.0349 13.6004 36.1235 13.6039C36.8792 14.4292 37.5205 15.3699 38.3941 16.0762C39.7045 16.1252 40.8867 15.3734 42.1 14.9747C44.1072 13.7333 46.5512 14.5481 48.6971 14.9467C52.2331 16.4644 55.3011 19.0801 57.4747 22.2693C58.2165 24.0702 58.948 26.0075 58.74 27.9938C58.3656 29.7842 58.0467 31.7879 56.66 33.0993C56.0256 33.7462 55.4744 34.4735 54.8296 35.1135C53.8208 36.1136 52.5243 36.7465 51.4669 37.6872C50.8811 38.2362 50.0976 38.4286 49.3592 38.6594C48.2533 38.9951 47.3312 39.7259 46.4507 40.4498C45.948 40.156 45.4488 39.8553 44.9496 39.5581C44.5821 40.226 44.1592 40.8589 43.8264 41.5443C44.1453 44.6146 45.6637 47.4471 45.9064 50.5209C45.7816 51.514 45.2235 52.4582 45.4107 53.4758C45.5424 54.3186 45.6048 55.1718 45.7504 56.0111C46.1456 56.8993 46.8528 57.6232 47.1856 58.5359C46.8355 59.8437 46.3917 61.197 46.6136 62.5678C47.3589 63.6693 48.0835 65.0331 47.7021 66.383C46.7869 67.3691 46.6379 69.0511 45.2512 69.5232C44.0067 70.1072 42.568 71.0758 41.1779 70.4009C40.5019 70.0407 39.8293 70.6002 39.1741 70.7401C38.5501 69.3029 38.3456 67.5614 36.9312 66.6382C36.7717 64.4002 37.3507 62.1377 36.7717 59.9416C36.6573 58.2526 35.7837 56.7315 35.704 55.0389C35.5688 50.0733 35.548 45.1112 35.2915 40.1526C34.8096 39.079 33.7245 38.4426 33 37.5438V36.8585C33.5651 36.4318 34.1336 36.0087 34.6917 35.5716C34.3416 34.1169 33.5131 32.6342 34.0643 31.12C34.4179 29.8926 34.0851 28.6407 33.9221 27.4168C33.8285 24.864 33.988 22.3078 33.8181 19.7585C33.6344 18.1499 33.2773 16.5658 33 14.9712V14.3488ZM41.0669 20.4929C41.1016 21.2097 41.0565 21.9371 41.1987 22.6435C41.9197 24.9969 41.2784 27.7385 42.6789 29.8891C43.4555 30.8402 43.1712 32.1586 43.6427 33.2461C46.8909 32.781 50.0733 30.8647 51.5189 27.8119C51.5155 26.9936 51.6611 26.1614 51.5155 25.3501C51.0475 24.5038 50.3437 23.8324 49.5776 23.2659C49.0195 22.8183 48.7213 21.8881 47.8755 21.993C46.7904 21.9336 46.0173 21.0139 44.9981 20.7272C43.6843 20.6922 42.3808 20.5068 41.0669 20.4929Z" fill="#525253"/>
<path d="M116.305 16.3209C117.748 15.8209 119.231 15.4117 120.715 15.0551C121.741 15.2998 122.75 15.6425 123.748 15.9852C123.839 16.23 124.019 16.7196 124.112 16.9644C122.514 17.8666 120.878 18.7058 119.332 19.6955C119.599 20.3039 119.904 20.8949 120.24 21.4684C121.069 21.1082 121.824 20.4298 122.778 20.4928C123.908 20.4858 124.979 20.9054 126.026 21.2971C126.075 21.6467 126.12 21.9964 126.168 22.3461C124.83 23.2239 123.544 24.1855 122.098 24.8744C122.656 26.0739 123.242 27.2593 123.755 28.4797C125.343 28.2874 126.855 27.6964 128.449 27.5635C128.498 28.2699 128.754 29.1651 128.148 29.7072C127.198 30.6024 126.019 31.2458 124.764 31.5885C124.556 32.0641 124.386 32.5571 124.105 32.9943C122.875 32.6481 121.804 31.9067 120.698 31.2913C119.353 30.2702 118.51 28.7175 117.9 27.1579C116.864 24.4268 116.032 21.5978 115.636 18.6953C115.616 17.8946 115.331 16.6671 116.305 16.3209Z" fill="#525253"/>
<path d="M99.6602 18.5345C100.804 18.4296 101.497 19.4787 102.094 20.3005C104.985 24.4443 105.685 29.6862 108.431 33.9035C108.535 33.9175 108.746 33.9419 108.854 33.9559C110.927 32.5537 112.837 30.4031 115.513 30.3821C117.229 30.3261 118.12 32.0431 119.309 32.9978C119.101 35.068 117.129 36.0926 115.416 36.7745C113.839 37.5717 112.13 38.1068 110.355 38.1068C109.502 37.9809 109.121 39.1384 108.247 38.8726C107.273 38.2921 106.184 37.7536 105.675 36.666C104.174 33.8196 103.307 30.6933 102.149 27.7034C101.241 24.6751 99.9098 21.7167 99.6602 18.5345Z" fill="#525253"/>
<path d="M88.8052 21.2726C90.4241 20.7935 92.1228 21.1187 93.7383 21.43C96.0921 22.556 98.1063 24.5842 99.0215 27.0705C99.2849 29.1267 99.122 31.2703 98.4148 33.2251C97.9884 34.1063 97.302 34.8162 96.7785 35.6344C98.5119 36.701 100.294 37.7326 102.239 38.3516C103.337 38.5823 103.715 39.7923 103.941 40.7539C104.173 42.0093 102.838 42.6493 102.037 43.3102C98.6644 43.8172 96.1268 41.1701 93.6273 39.3517C93.1975 38.8831 92.5457 39.1069 92.0015 39.0999C92.4452 40.4952 93.1871 41.796 93.4297 43.2542C93.6793 44.8838 93.8665 46.5204 93.8873 48.1709C93.5996 48.4262 93.3188 48.6885 93.038 48.9507C92.2129 48.2828 91.1521 47.9506 90.3895 47.2093C90.0532 45.174 89.0964 43.3067 88.7671 41.268C87.9628 36.8794 87.37 32.3718 85.446 28.3014C84.8809 27.2034 84.4233 26.0494 84.1113 24.8534C85.4009 23.3603 86.7911 21.7167 88.8052 21.2726ZM87.5087 26.0529C88.0668 27.9937 89.0132 29.7981 89.7551 31.6724C90.9511 31.3332 92.1436 30.7877 92.9929 29.8505C92.7607 29.1337 92.1991 28.5112 92.2233 27.7244C92.1713 27.1824 92.2649 26.6054 92.0361 26.0983C91.3047 25.0877 89.9249 24.9583 88.7879 24.8674C88.2609 25.1017 87.2105 25.2416 87.5087 26.0529Z" fill="#525253"/>
<path d="M66.0671 22.8462C66.2994 22.8042 66.7605 22.7273 66.9893 22.6888C68.8093 23.2728 70.3589 24.4548 71.6311 25.8745C76.0407 30.7038 79.445 36.3513 82.6586 42.0303C83.7055 43.9886 84.8738 45.9119 85.5082 48.0625C84.9501 48.8178 84.5375 49.7235 83.7818 50.311C83.1197 50.5103 82.3986 50.5173 81.7607 50.2236C80.8767 49.783 79.8714 50.297 78.9666 49.9613C78.3322 49.5452 77.9543 48.8213 77.8261 48.0835C77.4621 46.1147 76.5087 44.3383 75.7703 42.4989C72.9589 42.387 70.1751 43.0304 67.5717 44.062C67.4815 46.3385 66.7709 48.5591 66.9026 50.8495C66.9893 52.2763 66.6391 53.6716 66.3549 55.0563C66.0845 57.0566 63.637 57.0811 62.4965 58.4029C61.4079 57.3398 59.8445 56.6929 59.2239 55.2102C58.7802 53.7345 59.6365 52.3183 59.789 50.874C59.6087 48.7199 60.6799 46.7651 61.2242 44.7369C62.7703 40.698 62.3751 36.2254 63.7098 32.134C64.2645 30.5045 64.0495 28.6686 64.8885 27.1334C65.2594 26.3956 65.7482 25.7207 66.0949 24.9688C66.0949 24.2625 66.0394 23.5526 66.0671 22.8462ZM69.2565 29.4973C69.2842 32.0361 68.6845 34.5259 68.7815 37.0717C70.1301 36.4807 71.4335 35.7953 72.7613 35.1624C71.7074 33.2076 70.6813 31.2143 69.2565 29.4973Z" fill="#525253"/>
</svg>
