<svg width="200" height="80" viewBox="0 0 200 80" fill="none" xmlns="http://www.w3.org/2000/svg">
<path d="M26.4942 11.3765H30.9907C31.898 11.6485 32.9583 11.9317 33.4743 12.8155C33.8655 13.654 33.5423 14.6285 33.5594 15.5123C34.6991 16.0788 35.8331 16.6623 36.9615 17.2515C37.9595 15.144 37.0182 13.0875 35.3682 11.6881C36.5306 12.4869 38.0162 13.0705 38.6512 14.4302C39.1445 15.7502 38.7193 17.1722 38.5265 18.5092C39.6265 19.5403 40.6869 20.6111 41.7812 21.6535C42.3312 19.8236 43.057 17.7331 41.8663 15.9825C44.2421 17.7388 43.8792 20.951 42.7395 23.3305C43.3972 24.6279 44.0153 25.9479 44.6277 27.2679C45.1493 25.7383 45.5292 24.169 45.8411 22.5883C46.0679 24.0783 46.1983 25.6306 45.6256 27.0696C44.656 29.3301 45.2684 31.8342 44.6447 34.174C44.4973 32.8823 44.4122 31.5906 44.2818 30.3046C43.091 31.5056 41.8096 32.6217 40.7209 33.9191C40.925 35.1032 41.2652 36.2646 41.5714 37.4316C42.4503 36.6045 43.3292 35.7773 44.2251 34.9729C41.8436 38.8706 37.8007 41.7203 33.2645 42.4398C30.4407 43.0744 27.5602 42.3492 24.8158 41.709C26.8458 41.7317 28.8814 41.8223 30.9113 41.8053C29.386 40.9838 27.9118 40.066 26.5793 38.95C23.2168 38.9783 19.6616 38.1171 17.4558 35.3978C19.809 36.9161 22.5704 37.4996 25.3375 37.6413C24.487 36.2476 23.6761 34.8256 22.973 33.3526C19.9791 33.3129 17.3368 31.9759 15.1367 30.044V29.3811L15.1481 28.1801C16.6563 30.6955 19.5141 31.551 22.2982 31.6643C21.992 30.1346 21.7029 28.605 21.4874 27.0583C19.6786 26.7241 17.6486 26.2992 16.5429 24.6675C15.5166 23.2965 16.2084 21.5289 16.3161 19.9879C16.5826 21.1493 16.594 22.4184 17.229 23.4608C18.1816 24.7865 19.9224 24.9621 21.391 25.302C21.4761 23.9197 21.6121 22.5373 21.7426 21.1606C20.5461 20.7471 18.7033 20.3448 18.7543 18.7132C18.9301 15.2516 22.8369 13.3991 25.4736 12.1357C23.7952 13.7786 20.325 14.8211 20.0188 17.6198C19.7013 18.8775 21.2776 19.2514 22.0147 19.8406C22.6555 18.5262 23.3019 17.2062 24.022 15.9315C23.6478 17.1835 23.2112 18.4186 22.7916 19.6537C23.7215 19.58 24.6514 19.5007 25.587 19.4157C25.5813 18.2373 25.5756 17.0589 25.5983 15.8805C25.8592 16.9626 26.0973 18.0447 26.3468 19.1268C27.1009 18.5829 28.3711 18.5206 28.7567 17.5858C28.0649 16.7813 27.3164 16.0278 26.5623 15.2856C27.651 15.9655 28.734 16.651 29.8283 17.3308C30.418 16.6567 31.0021 15.9825 31.5804 15.297C30.1572 15.0647 28.734 14.8154 27.3221 14.4868C28.9268 14.5038 30.5201 14.6511 32.1021 14.9061C32.0454 14.4302 31.932 13.4727 31.8753 12.9968C30.5314 11.5352 28.2463 11.9601 26.4942 11.3765ZM30.9567 18.4583C31.8129 19.2684 32.6408 20.1069 33.4459 20.968C34.4553 20.1465 35.6573 19.3817 36.145 18.1127C35.3285 17.1949 34.1377 16.7303 33.1227 16.0788C32.3629 16.8323 31.6145 17.6141 30.9567 18.4583ZM26.738 20.4241C27.1236 21.5969 27.5319 22.764 27.9515 23.931C29.6185 23.4438 31.1382 22.5827 32.6011 21.6592C31.8129 20.7414 31.0531 19.8066 30.2139 18.9398C29.0061 19.3024 27.9118 19.9653 26.738 20.4241ZM34.7501 22.6223C35.68 23.8007 36.5192 25.0414 37.3017 26.3161C38.6966 25.302 39.9157 24.0727 40.9874 22.73C40.0178 21.5402 38.9914 20.3958 37.8801 19.3307C36.9785 20.5545 35.9182 21.6479 34.7501 22.6223ZM22.44 21.2683C22.3833 22.5827 22.3209 23.9027 22.2642 25.2227C23.8235 25.0528 25.3658 24.7525 26.9082 24.4409C26.5906 23.1775 26.2447 21.9198 25.9499 20.6508C24.7761 20.8321 23.6081 21.036 22.44 21.2683ZM28.7567 25.8176C29.267 27.2453 29.8964 28.6276 30.5485 29.993C32.5557 29.2791 34.4269 28.248 36.2584 27.166C35.5269 25.8459 34.7728 24.5316 33.8088 23.3701C32.1304 24.2086 30.5201 25.1717 28.7567 25.8176ZM38.4074 28.0554C38.8724 29.3925 39.4791 30.6672 40.0234 31.9759C41.5884 31.1544 42.6884 29.7494 43.8168 28.435C43.3178 27.064 42.7281 25.7269 42.0194 24.4466C40.976 25.8006 39.7796 27.0357 38.4074 28.0554ZM22.491 27.0243C22.6668 28.554 22.9843 30.0553 23.4153 31.5283C25.3999 31.3923 27.3504 31.0071 29.267 30.4972C28.785 29.0525 28.2463 27.6249 27.5262 26.2822C25.8478 26.5541 24.1921 26.9393 22.491 27.0243ZM31.4954 31.7889C32.1418 33.1089 32.8562 34.395 33.582 35.6754C35.5836 35.0068 37.3924 33.8964 39.2069 32.8427C38.6286 31.5113 38.0048 30.2083 37.3527 28.9166C35.4702 30.0043 33.548 31.0524 31.4954 31.7889ZM24.1524 33.3242C24.8328 34.7349 25.655 36.0663 26.5226 37.3693C28.6206 37.2843 30.6619 36.7688 32.6181 36.021C31.7959 34.8426 31.0531 33.6132 30.3954 32.3385C28.3144 32.6727 26.2504 33.1146 24.1524 33.3242ZM34.5403 37.2277C35.3058 38.1851 36.0599 39.1539 36.7801 40.1397C38.2373 39.5505 39.5868 38.7403 40.9307 37.9415C40.6188 36.7178 40.2446 35.5111 39.8136 34.327C38.1579 35.4714 36.3434 36.3439 34.5403 37.2277ZM27.7984 38.8763C29.1592 39.8678 30.4577 41.0405 32.0908 41.5674C33.497 41.3747 34.8408 40.8875 36.1847 40.4343C35.3171 39.4938 34.4723 38.5364 33.6784 37.5279C31.7335 38.0265 29.7716 38.4911 27.7984 38.8763Z" fill="#525253"/>
<path d="M112.348 37.0634C115.943 35.3978 120.134 35.732 123.938 36.3325C126.728 36.7688 128.985 38.8933 129.388 41.7147C126.91 41.76 124.432 41.7373 121.954 41.7487C121.812 41.4314 121.529 40.7855 121.393 40.4683C120.054 40.049 118.574 39.6071 117.208 40.1793C116.391 40.5079 116.17 41.0971 116.533 41.9413C119.992 42.8024 123.655 42.8137 127.017 44.0261C130.658 45.4255 130.856 50.9662 127.851 53.1247C125.849 54.5524 123.309 54.881 120.916 55H118.518C116.011 54.915 113.307 54.6431 111.254 53.0738C109.95 52.1276 109.615 50.4903 109.27 49.023C111.827 48.972 114.378 49.0117 116.936 48.9777C117.083 49.3006 117.378 49.9408 117.525 50.2581C118.988 50.6433 120.497 50.6716 121.965 50.2864C122.096 50.0371 122.362 49.5329 122.498 49.2836C122.3 48.887 122.101 48.4961 121.903 48.1052C118.869 47.5103 115.768 47.2441 112.779 46.4453C108.72 45.2782 108.6 38.712 112.348 37.0634Z" fill="#525253"/>
<path d="M141.234 40.3663C142.47 37.6356 145.47 36.2136 148.339 35.9983C151.883 35.7547 155.852 35.6017 158.857 37.8339C160.661 39.1652 161.318 41.4087 161.783 43.4936C159.419 43.5333 157.06 43.5276 154.707 43.4993C154.213 42.4455 153.822 41.1538 152.649 40.6609C150.777 39.9527 148.248 40.5533 147.472 42.5588C146.763 44.5644 146.717 46.9948 147.783 48.8927C148.742 50.5357 150.964 50.7056 152.603 50.1391C153.72 49.6462 154.14 48.4111 154.695 47.4254C157.054 47.4027 159.413 47.397 161.772 47.4254C161.267 49.2156 160.859 51.1645 159.464 52.5016C157.593 54.4391 154.752 54.898 152.178 55H149.791C146.689 54.9207 143.179 53.9462 141.552 51.0682C139.794 47.8276 139.766 43.7202 141.234 40.3663Z" fill="#525253"/>
<path d="M164.849 39.2672C166.499 36.9671 169.436 36.0153 172.163 35.9303C175.39 35.8 178.928 35.7037 181.723 37.5846C184.128 39.1426 185.035 42.1452 185.154 44.8646C185.228 47.55 184.666 50.496 182.699 52.4676C180.777 54.3428 177.998 54.9207 175.401 55H172.98C170.502 54.932 167.871 54.4391 165.955 52.7622C164.31 51.3741 163.471 49.227 163.324 47.1194C163.119 44.4454 163.221 41.5277 164.849 39.2672ZM171.358 41.2558C170.185 42.2869 170.122 43.9411 169.816 45.3575C170.094 46.7059 170.133 48.2072 171.069 49.3063C171.784 50.1674 172.94 50.275 173.938 50.598C175.135 50.2977 176.558 50.2581 177.34 49.159C178.65 47.3687 178.457 44.9099 178.004 42.8647C177.125 40.1793 173.417 39.6864 171.358 41.2558Z" fill="#525253"/>
<path d="M47.7988 36.5308C52.4258 36.5422 57.0527 36.5138 61.6796 36.5422C63.7039 36.5422 65.9606 37.5789 66.5673 39.6468C67.4462 42.2699 67.3555 45.7541 65.0534 47.6407C63.942 48.5698 62.4507 48.6378 61.0899 48.8531C58.7764 48.5245 56.446 48.9097 54.1212 48.8701C54.1325 50.6773 54.1268 52.4846 54.1268 54.2975C52.0175 54.2975 49.9082 54.2975 47.7988 54.2975C47.7988 48.3772 47.7988 42.4568 47.7988 36.5308ZM54.1325 40.7062C54.1268 41.9583 54.1268 43.2047 54.1268 44.4511C56.2135 44.3434 58.4589 44.8873 60.3698 43.8052C60.3471 42.9327 60.3131 42.0603 60.262 41.1935C58.3115 40.3946 56.1738 40.7742 54.1325 40.7062Z" fill="#525253"/>
<path d="M69.1387 36.5308C74.8089 36.5365 80.4792 36.5138 86.1494 36.5421C86.0303 38.0095 86.501 39.6524 85.7185 40.9895C82.3333 40.5645 78.9142 41.0688 75.512 40.7402C75.4894 41.573 75.4723 42.4058 75.461 43.2386C78.7441 43.2386 82.0271 43.2386 85.3102 43.2386C85.3102 44.6776 85.3102 46.1223 85.3102 47.567C82.0271 47.4933 78.7441 47.7936 75.4553 47.7029C75.4667 48.4848 75.4723 49.2609 75.4837 50.0427C79.0389 50.0371 82.5942 50.0257 86.1494 50.0484C86.1494 51.4591 86.1494 52.8641 86.1551 54.2691C80.4848 54.3314 74.8089 54.2804 69.1387 54.2974C69.1387 48.3771 69.1387 42.4511 69.1387 36.5308Z" fill="#525253"/>
<path d="M88.7145 36.5422C93.4661 36.5422 98.2235 36.4912 102.981 36.5592C105.118 36.6101 107.171 38.0718 107.659 40.202C108.084 42.3888 108.186 44.9553 106.752 46.8135C105.623 48.2978 103.667 48.836 101.875 48.7737C99.6127 48.6378 97.3389 48.7114 95.0878 48.938C94.8894 50.7113 95.2296 52.5016 95.0708 54.2805C92.9501 54.3031 90.8238 54.3145 88.7031 54.2691C88.7258 48.3602 88.7145 42.4512 88.7145 36.5422ZM95.1729 40.7006C95.1559 41.9526 95.1559 43.2047 95.1559 44.4567C97.1915 44.3547 99.3689 44.8589 101.24 43.8165C101.081 42.8194 101.671 41.1934 100.299 40.8818C98.6431 40.4739 96.8739 40.7969 95.1729 40.7006Z" fill="#525253"/>
<path d="M132.039 36.5138C134.132 36.5365 136.224 36.5251 138.316 36.5421C138.316 42.4568 138.316 48.3714 138.316 54.2861C136.173 54.3031 134.024 54.3144 131.875 54.2691C132.045 50.36 131.801 46.4452 131.892 42.5304C131.858 40.5249 131.818 38.5137 132.039 36.5138Z" fill="#525253"/>
</svg>
