<svg width="200" height="80" viewBox="0 0 200 80" fill="none" xmlns="http://www.w3.org/2000/svg">
<path d="M31.1338 19.0165C37.1546 15.1139 44.5252 12.7693 51.7357 13.9739C49.5089 14.7035 47.1868 15.1519 45.0286 16.0829C40.8914 17.8081 36.9601 20.4643 34.5655 24.3252C31.9078 28.4178 31.4083 33.4833 31.5418 38.2447C31.6905 40.198 30.9241 42.2424 29.2997 43.409C27.1263 45.1342 23.6793 44.872 21.8185 42.801C19.8167 40.6996 19.7747 37.5227 20.2628 34.8361C21.6012 28.4178 25.6468 22.6114 31.1338 19.0165Z" fill="#525253"/>
<path d="M51.7476 23.4284C51.2862 20.3579 53.8333 17.2229 56.9638 17.1203C60.0372 16.9303 62.7063 18.8379 64.8874 20.7797C74.4848 30.1734 75.6173 46.9202 67.0379 57.3361C68.9292 51.2865 69.5355 44.4426 66.8358 38.5373C64.609 33.5327 59.8541 30.2646 55.0954 27.8934C53.3109 27.0878 51.9725 25.3778 51.7476 23.4284Z" fill="#525253"/>
<path d="M21.3594 48.8926C25.5804 53.3804 30.7967 57.4351 37.0844 58.3053C42.7925 59.2401 48.31 56.6865 53.0077 53.711C55.1545 52.2556 58.2926 52.5634 60.0847 54.4482C62.0294 56.3103 62.2658 59.5897 60.6491 61.7329C58.876 64.1611 55.9171 65.3544 53.0764 66.0384C47.0174 67.3912 40.4513 66.5172 35.0177 63.4885C29.077 60.2623 23.7654 55.3222 21.3594 48.8926Z" fill="#525253"/>
<path d="M88.4653 23.652C90.3713 23.7314 92.4034 23.4865 94.1832 24.327C95.8501 25.247 96.1025 27.8613 94.7211 29.1386C93.5988 29.9461 92.2042 30.1975 90.9092 30.6145C90.7897 31.647 90.6635 32.6861 90.5307 33.7185C90.006 33.7251 88.9434 33.7318 88.4188 33.7318C88.4055 30.3762 88.379 27.0141 88.4653 23.652ZM90.8826 25.333C90.876 26.4714 90.8693 27.6098 90.8693 28.7481C91.6862 28.4569 92.503 28.1591 93.3132 27.8546C93.2003 27.1266 93.0808 26.392 92.9613 25.6573C92.2706 25.5515 91.5733 25.4389 90.8826 25.333Z" fill="#525253"/>
<path d="M96.9734 23.9429C97.6907 23.8635 98.4079 23.7907 99.1185 23.7113C99.1583 26.3388 99.1517 28.9663 99.1716 31.5872C100.52 31.7328 101.868 31.8784 103.216 32.0107C103.209 32.4409 103.196 33.308 103.189 33.7381C101.111 33.7315 99.0388 33.7315 96.9668 33.7249C96.9867 30.462 96.9934 27.2058 96.9734 23.9429Z" fill="#525253"/>
<path d="M104.018 34.1352C104.815 30.5547 105.585 26.8616 107.358 23.6252C108.135 23.6186 108.905 23.7047 109.669 23.89C111.15 27.0337 111.861 30.4819 112.91 33.7911C112.418 33.758 111.422 33.6984 110.924 33.6719C110.147 32.2755 109.058 31.1371 107.378 31.0246C106.734 32.5601 105.764 33.8639 104.018 34.1352ZM108.055 26.1667C107.803 27.2852 107.571 28.4037 107.338 29.5288C107.869 29.5024 108.939 29.4494 109.47 29.4229C109.012 28.3309 108.54 27.2389 108.055 26.1667Z" fill="#525253"/>
<path d="M114.253 25.4985C115.415 23.2416 118.43 23.3277 120.469 24.2278C120.057 26.2993 117.428 25.4919 115.927 26.1074C117.474 27.8745 121.399 28.7018 120.655 31.6139C119.752 34.2877 116.498 33.9038 114.253 33.8377C114.193 33.381 114.087 32.4809 114.027 32.0242C115.668 31.8918 117.308 31.6867 118.928 31.4087C117.195 29.6284 113.184 28.6621 114.253 25.4985Z" fill="#525253"/>
<path d="M121.511 23.7245C124.008 23.7046 126.512 23.7046 129.009 23.7178C129.035 24.1877 129.095 25.1209 129.122 25.5842C128.205 25.71 127.282 25.8357 126.366 25.9615C126.359 28.5493 126.359 31.137 126.352 33.7248C125.622 33.7248 124.898 33.7314 124.167 33.7381C124.167 31.1503 124.167 28.5559 124.154 25.9681C123.231 25.8423 122.308 25.7232 121.385 25.5975C121.418 25.1276 121.478 24.1944 121.511 23.7245Z" fill="#525253"/>
<path d="M130.324 23.6715C130.842 23.6914 131.878 23.7311 132.396 23.7509C132.422 27.08 132.416 30.409 132.409 33.7314C131.878 33.7712 130.808 33.8373 130.271 33.8704C130.237 30.4752 130.237 27.0734 130.324 23.6715Z" fill="#525253"/>
<path d="M136.455 24.4195C138.022 23.526 139.889 23.6981 141.628 23.6121C141.655 24.0753 141.708 25.0085 141.741 25.4784C139.995 25.7101 137.318 25.26 136.654 27.3978C135.977 28.6354 136.415 30.0915 137.172 31.1769C138.481 32.1034 140.161 31.9777 141.675 32.163C141.655 32.5932 141.615 33.4668 141.595 33.9036C139.563 33.8573 137.219 34.1551 135.559 32.7256C133.174 30.5415 133.566 26.0013 136.455 24.4195Z" fill="#525253"/>
<path d="M142.928 26.5242C143.24 23.5922 146.653 23.5525 148.905 23.6187C148.958 24.0886 149.064 25.0284 149.117 25.4983C147.683 25.6571 146.248 25.8557 144.827 26.1138C146.441 27.8412 150.24 28.6288 149.575 31.5872C148.812 34.2346 145.538 33.9103 143.373 33.8706C143.273 33.4205 143.074 32.5138 142.974 32.0571C144.621 31.8586 146.262 31.6335 147.882 31.3092C146.321 29.701 143.16 29.0391 142.928 26.5242Z" fill="#525253"/>
<path d="M154.187 23.6915C156.179 23.7048 158.171 23.7114 160.163 23.7312C160.183 24.2144 160.223 25.1674 160.243 25.6439C158.948 25.6704 157.66 25.6903 156.371 25.7101C156.358 26.2198 156.345 27.239 156.338 27.7486C157.813 27.9538 159.294 28.1589 160.755 28.4634C159.426 29.2774 157.952 29.7871 156.458 30.1842C156.391 31.3821 156.332 32.58 156.278 33.7779C155.747 33.8044 154.698 33.8441 154.167 33.864C154.14 30.4754 154.133 27.0801 154.187 23.6915Z" fill="#525253"/>
<path d="M164.081 24.1415C167.116 22.4009 171.313 24.9821 170.948 28.503C171.446 31.6931 168.351 34.6978 165.157 33.8706C160.621 33.1028 160.137 26.0079 164.081 24.1415ZM165.449 25.591C163.039 26.8617 163.238 32.0571 166.372 32.1299C169.886 31.713 169.268 24.5717 165.449 25.591Z" fill="#525253"/>
<path d="M172.547 23.6781C174.871 23.7774 177.946 23.1884 179.454 25.4585C179.573 26.8881 178.823 28.2051 178.776 29.6148C179.009 31.0113 179.467 32.3548 179.819 33.7248C179.055 33.7116 178.291 33.6984 177.528 33.6785C177.216 32.5004 176.89 31.3224 176.565 30.1443C175.954 30.045 175.343 29.9524 174.732 29.8531C174.699 31.1768 174.679 32.5071 174.645 33.8307C174.108 33.7976 173.025 33.7315 172.48 33.6984C172.5 30.3561 172.467 27.0138 172.547 23.6781ZM174.685 25.4188C174.672 26.3586 174.659 27.2984 174.645 28.2448C175.489 28.172 176.339 28.0992 177.189 28.033C177.189 27.2256 177.189 26.4115 177.176 25.6041C176.346 25.5445 175.515 25.4783 174.685 25.4188Z" fill="#525253"/>
<path d="M92.2432 41.2499C94.8598 39.4762 98.1737 39.9196 101.149 40.1248C101.136 41.111 101.122 42.0971 101.109 43.0898C99.0968 43.1825 97.0447 42.9509 95.079 43.4605C91.4729 45.2739 91.4729 51.3827 95.1454 53.1233C97.0248 53.6726 99.0237 53.355 100.95 53.3483C101.023 54.3477 101.096 55.3471 101.162 56.3465C98.0276 56.684 94.4946 57.1804 91.7717 55.1949C87.1496 52.0114 87.548 44.1885 92.2432 41.2499Z" fill="#525253"/>
<path d="M103.754 40.0852C104.996 40.0918 106.238 40.0918 107.479 40.0918C107.513 42.2031 107.526 44.321 107.566 46.4322C109.538 46.4653 111.504 46.4719 113.476 46.4786C113.509 44.3607 113.509 42.2428 113.503 40.1315C114.712 40.1117 115.92 40.1051 117.122 40.1051C117.122 45.5586 117.155 51.0188 117.096 56.4723C115.907 56.4657 114.718 56.4591 113.523 56.4525C113.509 54.1559 113.509 51.8593 113.483 49.5627C111.504 49.5693 109.518 49.576 107.539 49.6024C107.526 51.8858 107.519 54.1691 107.513 56.4591C106.251 56.4591 104.989 56.4591 103.727 56.4591C103.707 51.0055 103.674 45.5454 103.754 40.0852Z" fill="#525253"/>
<path d="M146.343 40.0918C147.472 40.0851 148.601 40.0785 149.73 40.0719C149.956 45.5321 149.982 51.0055 149.736 56.4722C148.461 56.4656 147.186 56.459 145.911 56.4524C143.773 52.5939 141.641 48.7354 139.675 44.7908C139.562 48.689 139.695 52.5939 139.615 56.4921C138.493 56.4789 137.371 56.459 136.248 56.4458C136.248 51.0055 136.235 45.5652 136.255 40.1248C137.71 40.1116 139.164 40.105 140.612 40.0984C142.73 43.7451 144.709 47.4779 146.755 51.1643C146.303 47.4911 146.19 43.7914 146.343 40.0918Z" fill="#525253"/>
<path d="M155.64 41.5677C158.801 39.4432 162.906 39.7079 166.399 40.7735C166 41.6206 165.575 42.4545 165.117 43.2686C163.045 43.3745 160.887 42.8583 158.881 43.5267C155.149 45.221 155.182 51.4622 158.928 53.1101C160.203 53.4874 161.557 53.4675 162.872 53.58C162.906 52.4218 162.932 51.257 162.952 50.0988C162.162 49.9664 161.378 49.834 160.594 49.7017C160.601 48.8413 160.614 47.9875 160.621 47.1337C162.62 47.147 164.619 47.1403 166.618 47.1271C166.651 50.0524 166.664 52.9778 166.565 55.8965C162.939 56.6046 158.801 57.326 155.507 55.1684C150.945 52.1438 151.144 44.5592 155.64 41.5677Z" fill="#525253"/>
<path d="M169.516 40.0653C172.856 40.1183 176.203 40.1249 179.544 40.0653C179.564 41.0978 179.584 42.1302 179.61 43.1693C177.472 43.2024 175.34 43.209 173.208 43.2157C173.228 44.3143 173.248 45.4196 173.268 46.5249C175.26 46.5579 177.253 46.5712 179.238 46.5977C179.252 47.5507 179.258 48.5037 179.258 49.4634C177.259 49.5031 175.26 49.523 173.268 49.5759C173.248 50.8334 173.228 52.0909 173.215 53.3484C175.473 53.3484 177.737 53.3484 180.002 53.3683C179.982 54.3941 179.962 55.4332 179.936 56.4657C176.456 56.4723 172.976 56.4723 169.496 56.4657C169.463 50.9989 169.43 45.5321 169.516 40.0653Z" fill="#525253"/>
<path d="M119.238 56.4129C120.872 50.9262 122.499 45.433 124.312 39.9993C125.853 40.2309 127.679 39.7014 129.027 40.5618C131.099 45.6977 132.381 51.1314 134.068 56.4062C132.832 56.4526 131.604 56.4856 130.375 56.532C129.784 55.0428 129.213 53.5471 128.615 52.058C127.174 52.1374 125.727 52.2168 124.279 52.3359C123.801 53.739 123.316 55.1421 122.805 56.5386C121.616 56.4923 120.427 56.4592 119.238 56.4129ZM126.484 43.4805C125.886 45.4197 125.321 47.3788 124.737 49.3312C125.919 49.3974 127.101 49.4569 128.277 49.5165C127.739 47.4846 127.154 45.466 126.484 43.4805Z" fill="#525253"/>
</svg>
