<svg width="201" height="80" viewBox="0 0 201 80" fill="none" xmlns="http://www.w3.org/2000/svg">
<path opacity="0.98" d="M13.2771 23.2192C21.7409 20.6404 31.3995 25.9536 34.0227 34.4683C37.3735 43.6193 31.4729 54.7399 22.1013 56.9599C13.3438 59.5387 3.46499 53.5824 1.29564 44.6616C-1.40769 35.7408 4.41282 25.5204 13.2771 23.2192ZM10.7473 37.9405C14.038 40.9254 17.2754 44.0322 19.8719 47.6736C20.3725 43.0372 21.554 38.4685 23.4763 34.2247C19.4047 36.0048 15.086 37.1013 10.7473 37.9405Z" fill="#525253"/>
<path opacity="0.98" d="M154.596 31.1788C155.524 31.1788 156.445 31.1856 157.372 31.1856C157.506 36.1875 157.332 41.1894 157.433 46.1845C157.413 47.5991 158.053 48.8784 158.541 50.1576C157.252 50.1576 155.957 50.1576 154.669 50.1779C156.318 47.3013 155.73 43.9103 155.817 40.7494C155.737 37.5344 156.318 34.0825 154.596 31.1788Z" fill="#525253"/>
<path opacity="0.98" d="M171.279 31.1788C172.207 31.1788 173.142 31.1788 174.076 31.1788C174.109 33.1281 174.123 35.0775 174.116 37.0268C176.285 36.7019 178.755 35.91 180.758 37.2366C182.68 38.6174 182.707 41.2977 182.76 43.4568C182.68 45.6092 182.593 48.303 180.571 49.5687C178.108 50.9901 175.151 50.32 172.467 50.293C172.341 45.2978 172.501 40.3027 172.414 35.3008C172.441 33.8388 171.78 32.5122 171.279 31.1788ZM174.176 38.3399C174.089 41.8865 174.103 45.4332 174.143 48.9799C176.339 48.8716 179.73 49.6161 180.658 46.902C181.252 44.4856 181.338 41.7918 180.544 39.416C179.262 37.1148 176.245 38.1977 174.176 38.3399Z" fill="#525253"/>
<path opacity="0.98" d="M196.377 31.0774C197.285 31.1586 198.193 31.2398 199.107 31.3278C199.234 35.8288 199.054 40.3434 199.14 44.8444C199.087 46.5839 199.861 48.1542 200.629 49.65V50.4149C199.234 50.3066 197.839 50.2118 196.444 50.1306C197.158 48.2287 197.665 46.232 197.638 44.1879C197.605 39.8019 198.132 35.2197 196.377 31.0774Z" fill="#525253"/>
<path opacity="0.98" d="M43.0547 32.0858C46.272 32.0993 49.5427 31.7609 52.7133 32.4242C57.2522 33.4057 57.4258 41.3992 52.9536 42.5972C50.8977 43.2605 48.7083 43.1725 46.5857 43.3688C46.5924 45.7107 47.093 47.9984 48.0475 50.1373C46.3855 50.1237 44.7234 50.1102 43.0547 50.0899C45.204 46.4282 44.4631 42.0557 44.5632 38.0014C44.69 35.9032 43.9625 33.9336 43.0547 32.0858ZM46.7326 34.069C46.7392 36.465 46.7392 38.8543 46.7526 41.2503C48.8685 41.0608 51.2648 41.4195 53.1071 40.12C54.2352 38.746 54.1017 36.6613 53.2806 35.1587C51.4851 33.6155 48.8952 34.272 46.7326 34.069Z" fill="#525253"/>
<path opacity="0.98" d="M56.2578 32.2077C57.8331 32.1129 59.415 32.0452 60.9903 31.9775C60.1026 35.2061 62.2586 37.9202 63.7471 40.5464C64.8084 38.6309 66.15 36.7967 66.7241 34.6511C66.5639 33.7441 66.2301 32.8777 65.9831 31.9978C67.6852 32.0588 69.394 32.1332 71.0961 32.2957C68.7799 35.5513 66.684 38.9964 65.0687 42.6649C64.1008 45.176 65.0887 47.809 66.0766 50.1305C64.4346 50.1238 62.7859 50.1102 61.1438 50.0832C62.2986 47.7413 63.2798 44.973 62.1451 42.4077C60.5431 38.8137 58.4405 35.4701 56.2578 32.2077Z" fill="#525253"/>
<path opacity="0.98" d="M72.0759 32.2009C73.6912 32.1062 75.2999 32.0452 76.9152 31.9911C76.4546 34.8135 78.2835 37.0607 79.8455 39.1521C81.4141 37.0945 83.1095 34.7526 82.0882 32.0249C83.8771 32.0588 85.666 32.1062 87.4549 32.2144C85.2321 34.9489 82.8692 37.6428 81.3073 40.8375C82.5888 44.3435 85.3256 47.0374 87.5149 49.9749C85.7928 50.0764 84.0773 50.1306 82.3552 50.1712C82.7424 47.3555 81.2138 45.0001 79.6385 42.8612C77.9698 44.9527 76.1609 47.3149 76.9419 50.1847C75.2865 50.1373 73.6311 50.0832 71.9824 49.9952C74.2452 47.078 76.4146 44.0796 78.2368 40.8578C76.3545 37.8458 74.2719 34.9827 72.0759 32.2009Z" fill="#525253"/>
<path opacity="0.98" d="M89.7305 32.0858C93.7421 32.0181 97.7537 32.0317 101.765 32.0723C101.719 33.3854 101.679 34.6985 101.625 36.0115C99.349 33.8998 96.3052 33.9201 93.4083 34.1028C93.4217 35.9912 93.4284 37.8864 93.4284 39.7816C95.9181 39.8222 98.4679 39.4973 100.924 40.0388C101.071 40.4313 101.372 41.2232 101.518 41.6158C98.8217 41.8121 96.125 41.785 93.4284 41.758C93.4284 43.8697 93.4217 45.9815 93.4083 48.0932C96.3186 48.2828 99.3891 48.3234 101.618 46.1236C101.672 47.4435 101.719 48.7701 101.765 50.0967C97.7537 50.1373 93.7421 50.1508 89.7305 50.0832C91.8798 46.4214 91.1856 42.0558 91.259 38.0015C91.3658 35.8965 90.6449 33.9336 89.7305 32.0858Z" fill="#525253"/>
<path opacity="0.98" d="M104.403 32.079C108.154 32.2821 112.4 31.2262 115.764 33.3447C118.761 36.0386 117.459 40.9999 114.335 43.0236C115.677 45.4738 117.286 47.7548 118.934 49.9951C117.913 50.0628 116.892 50.117 115.871 50.1644C114.476 47.8902 113.294 45.4738 111.652 43.3688C110.417 43.1252 109.156 43.1928 107.914 43.1793C107.874 45.5753 108.308 47.9375 109.329 50.1034C107.687 50.117 106.045 50.117 104.396 50.1034C106.339 46.3537 105.545 42.049 105.698 37.9947C105.858 35.9168 105.211 33.9471 104.403 32.079ZM108.048 34.0554C108.034 36.4582 108.041 38.8678 108.081 41.2774C109.917 41.1217 111.846 41.2571 113.574 40.5193C115.423 39.7545 115.263 37.3043 114.836 35.6866C113.381 33.4395 110.277 34.3397 108.048 34.0554Z" fill="#525253"/>
<path opacity="0.98" d="M124.534 32.0385C126.103 32.052 127.678 32.0588 129.253 32.0588C131.656 37.9947 132.531 44.5872 136.028 50.029C134.406 50.0899 132.784 50.1305 131.162 50.1644C131.629 48.2286 131.623 46.2387 131.196 44.3029C128.846 44.2217 126.496 44.2217 124.154 44.3774C124 46.3131 124.113 48.2557 124.401 50.1711C122.799 50.1305 121.19 50.0967 119.588 50.0493C122.111 46.0356 123.239 41.3722 124.661 36.8914C125.248 35.3076 124.794 33.6358 124.534 32.0385ZM127.725 33.9742C126.937 36.7019 126.109 39.4228 125.322 42.1505C126.924 42.1776 128.526 42.1776 130.128 42.1641C129.353 39.4228 128.532 36.7019 127.725 33.9742Z" fill="#525253"/>
<path opacity="0.98" d="M141.294 35.4565C142.99 30.9149 148.597 31.6324 152.415 32.0723C152.442 33.1891 152.468 34.3059 152.502 35.4227C151.273 34.536 150.219 33.0334 148.55 33.1417C146.094 32.9657 143.163 34.0081 142.583 36.7222C141.962 39.856 141.768 43.335 142.957 46.3605C144.332 49.3928 148.13 48.8716 150.833 49.007C150.886 46.9358 150.9 44.8715 150.9 42.8071C149.798 42.2385 148.697 41.6632 147.636 41.0134C149.224 40.8375 150.82 40.7021 152.415 40.6006C152.475 43.775 152.475 46.9426 152.415 50.117C148.71 50.5976 143.544 51.2406 141.515 47.1863C140.18 43.4975 140.307 39.2198 141.294 35.4565Z" fill="#525253"/>
<path opacity="0.98" d="M162.848 36.9185C165.384 35.8897 169.009 36.4109 170.204 39.2063C171.172 41.7174 171.105 44.6278 170.397 47.1998C169.223 50.9698 163.709 51.5384 161.246 48.8242C159.818 46.9426 159.958 44.4112 159.998 42.1641C160.025 40.1065 160.745 37.6834 162.848 36.9185ZM163.529 38.2858C160.826 39.8357 161.366 43.7411 161.78 46.3808C162.407 49.6297 167.514 49.9817 168.782 47.0712C169.536 44.7496 169.556 42.1573 168.789 39.8425C167.994 37.8052 165.298 37.5548 163.529 38.2858Z" fill="#525253"/>
<path opacity="0.98" d="M185.036 36.6478C187.686 36.7223 191.357 35.5581 193.2 38.1166C194.475 42.0152 192.566 46.5501 195.022 50.1644C192.225 49.6297 189.448 50.3404 186.658 50.3675C183.748 49.8937 183.548 46.1846 184.469 43.9645C186.338 41.6023 189.769 42.4755 192.365 41.9746C192.125 40.7969 191.932 39.6056 191.524 38.4753C189.282 37.2164 186.752 38.0895 184.763 39.4093C184.849 38.4888 184.936 37.5683 185.036 36.6478ZM186.451 44.0187C185.03 45.3588 185.123 48.6754 187.359 49.0815C188.995 49.2507 190.57 48.6009 192.145 48.2286C192.152 46.6651 192.158 45.0948 192.145 43.5313C190.249 43.6193 188.287 43.4163 186.451 44.0187Z" fill="#525253"/>
</svg>
