<svg width="170" height="80" viewBox="0 0 170 80" fill="none" xmlns="http://www.w3.org/2000/svg">
<path d="M33 14.0208C68.0017 14.0052 102.998 14.0468 138 14V14.6499C133.296 19.8227 127.826 24.2989 123.442 29.7473C120.286 32.8718 117.121 35.9756 113.981 39.1105C110.259 43.8622 105.513 47.7094 101.413 52.1284C99.1605 55.2321 96.1365 57.6548 93.5062 60.4206C91.779 62.2766 89.658 63.8258 88.3245 66.0093C69.8812 66.0093 51.4433 66.0093 33 66.0093V14.0208ZM41.3212 30.0541C38.8853 32.7315 39.1688 37.1869 41.7675 39.6563C44.004 42.0062 47.4742 42.131 50.388 43.1344C51.7792 43.4671 53.3595 44.5069 52.9395 46.1289C49.4115 48.2709 44.886 47.2571 41.3422 45.6506C40.77 47.5222 40.1137 49.3834 39.699 51.3018C43.5052 52.877 47.721 53.3449 51.8055 52.8614C53.9212 52.5963 55.8375 51.6397 57.864 51.047C57.6382 51.7021 57.4177 52.3572 57.192 53.0122C59.7277 52.9758 62.2687 53.1058 64.8045 52.9238C65.214 51.6709 65.592 50.4076 66.033 49.1703C69.4245 50.5064 73.2098 50.5168 76.6012 49.1806C77.0633 50.4232 77.478 51.6813 77.8822 52.9498C81.8722 53.0902 85.8675 52.9862 89.8575 53.0018C89.889 50.8339 89.7945 48.666 89.9152 46.5032C91.758 46.4097 93.6217 46.5864 95.4487 46.2745C99.0397 45.4635 102.064 42.4897 102.82 38.9025C103.15 36.6306 103.04 34.1976 101.843 32.17C100.174 28.9311 96.483 27.0803 92.8972 27.0127C89.7315 27.0127 86.5657 27.0179 83.4 27.0179C83.3527 33.7349 83.4945 40.4518 83.3265 47.1583C82.2975 45.6662 81.8932 43.8726 81.1582 42.2402C79.0373 37.1869 77.121 32.0504 74.9475 27.0179C72.4222 27.0387 69.897 26.9555 67.377 27.0803C65.2665 32.6275 63.0457 38.1383 60.8355 43.6439C59.8852 42.3754 59.0032 40.9717 57.5962 40.1346C54.0735 37.7744 49.1437 38.3462 46.062 35.2269C45.8887 34.0572 46.5922 32.929 47.784 32.6639C50.8815 32.0192 54.0682 32.6795 57.0817 33.4333C57.7695 31.8217 58.4047 30.1892 59.0505 28.562C56.4622 27.491 53.643 27.3195 50.8867 27.0387C47.5162 26.862 43.7048 27.4754 41.3212 30.0541Z" fill="#525253"/>
<path d="M89.9032 33.5373C91.8195 33.5633 94.1977 33.007 95.61 34.6654C96.9015 35.8144 96.7912 37.9147 95.5575 39.0637C94.098 40.6389 91.767 39.8487 89.877 39.9839C89.8927 37.8315 89.8612 35.6844 89.9032 33.5373Z" fill="#525253"/>
<path d="M68.082 44.0078C68.9273 40.7637 70.1715 37.6236 71.337 34.4835C72.4395 37.6496 73.7993 40.7481 74.5763 44.013C72.5078 44.9176 70.1505 44.9176 68.082 44.0078Z" fill="#525253"/>
</svg>
