<svg width="170" height="80" viewBox="0 0 170 80" fill="none" xmlns="http://www.w3.org/2000/svg">
<path d="M89.6572 5.09755C91.4933 4.50876 92.7873 3.02398 94.3626 2C95.2116 9.00916 93.1658 16.4382 88.1791 21.5478C85.0184 24.5071 80.8961 26.166 76.651 26.8009C76.5488 25.0857 76.2163 23.391 76.1191 21.6809C76.4056 17.5492 77.0244 12.9771 80.2261 10.0024C82.6964 7.28375 86.3379 6.32121 89.6572 5.09755Z" fill="#525253"/>
<path d="M64.8527 6.41337C71.0157 5.8297 77.2196 5.86042 83.4031 5.93722C81.7255 7.35544 79.7155 8.38966 78.2885 10.0946C77.6339 10.8319 77.0662 11.651 76.3092 12.291C72.3506 12.9515 68.2079 11.7893 64.3157 13.0232C61.4465 13.8782 59.2421 17.3444 60.5873 20.232C61.2163 21.9318 62.9604 22.7664 64.4998 23.4678C68.7193 25.1983 73.2252 26.1506 77.3884 28.0245C80.2116 29.4479 82.8916 31.6392 84.0373 34.6753C86.0882 40.4198 84.0117 47.772 78.396 50.675C72.8876 53.3886 66.249 53.6753 60.4798 51.5966C57.2321 50.547 54.5982 48.2891 52 46.1695V45.4578C53.4474 43.927 54.9562 42.4576 56.5468 41.0803C59.0171 42.8467 61.4772 44.782 64.4692 45.5653C67.814 46.6764 71.563 46.446 74.7544 44.9561C77.5469 43.5481 78.6926 39.703 77.1787 36.9793C76.1047 35.3972 74.3248 34.5371 72.6166 33.8151C67.9419 31.9413 62.8581 31.076 58.475 28.5109C56.1427 27.0978 54.0969 24.8655 53.6724 22.0803C53.1815 18.4042 53.3144 14.2212 55.9382 11.3182C58.1118 8.56374 61.3902 6.84857 64.8527 6.41337Z" fill="#525253"/>
<path d="M95.5609 6.34676C99.4173 6.35188 103.289 6.17268 107.135 6.42868C110.004 7.17618 113.078 8.52784 114.566 11.2568C116.392 14.426 117.144 18.4554 115.635 21.9011C114.868 24.2665 112.914 25.9099 110.853 27.1387C113.206 28.2293 115.656 29.627 116.822 32.0641C119.676 37.0406 118.484 43.5378 115.006 47.8846C113.595 49.3028 111.764 50.2347 109.933 51.0026C107.13 52.1444 104.051 51.8986 101.09 52.1085C96.1542 52.1341 91.2187 52.1034 86.2832 52.1802C86.2679 42.8773 86.2321 33.5745 86.2986 24.2716C91.0602 24.1845 95.8218 24.2562 100.583 24.2562C102.455 24.2255 104.409 24.4559 106.179 23.7033C110.71 21.7782 110.434 13.8116 105.437 12.7313C101.903 12.0964 98.2716 12.6596 94.7017 12.4548C95.2694 10.4683 95.5405 8.4152 95.5609 6.34676ZM92.436 30.4206C92.3541 35.5149 92.3593 40.6143 92.4309 45.7087C96.1849 45.8008 99.939 45.7291 103.693 45.7547C106.532 45.8008 109.851 44.5823 110.823 41.6588C111.799 38.8582 111.697 35.3869 109.677 33.0573C108.102 31.1374 105.468 30.6919 103.146 30.4155C99.5758 30.3438 96.0008 30.3591 92.436 30.4206Z" fill="#525253"/>
<path d="M115.369 50.7057C115.732 49.3694 116.95 48.8728 118.187 48.6628C118.116 49.5281 118.059 50.3934 118.008 51.2586C118.346 50.6801 118.678 50.0964 119 49.5076V51.7194C118.734 51.6734 118.197 51.5761 117.926 51.53C117.563 50.849 117.129 50.2039 116.781 49.5179C116.479 49.7227 116.182 49.9326 115.881 50.1425C116.397 50.9822 116.898 51.8372 117.389 52.6973C116.699 52.0522 116.034 51.3764 115.369 50.7057Z" fill="#525253"/>
<path d="M53.5549 57.0186C74.5192 56.9828 95.4887 57.0442 116.458 56.9828C117.159 57.1107 118.212 56.6964 118.637 57.4738C96.9361 57.5812 75.2301 57.4994 53.5293 57.5147L53.5549 57.0186Z" fill="#525253"/>
<path d="M54.4805 62.5019C56.4905 61.2373 59.3649 61.6418 60.8737 63.5054C62.4387 64.9953 62.2444 67.3095 62.2802 69.2807C62.1983 71.4106 62.5666 73.735 61.4107 75.6499C60.8072 76.8479 59.4825 77.3599 58.3931 77.9999H55.7234C54.1634 77.0835 52.9155 75.7574 52 74.2009V65.9476C52.5677 64.6421 53.2837 63.3263 54.4805 62.5019ZM55.7745 63.7768C53.5599 65.195 54.056 68.0826 53.9998 70.3252C54.0867 71.9123 53.7287 73.7658 54.905 75.0509C56.3371 77.0374 60.173 75.8905 60.1679 73.3766C60.2139 70.8781 60.3571 68.3591 60.0553 65.876C59.5848 63.9406 57.5697 63.1471 55.7745 63.7768Z" fill="#525253"/>
<path d="M65.5075 63.3621C67.5226 61.1605 71.6704 61.2117 73.3224 63.8331C74.0333 64.8417 73.972 66.1166 74.064 67.2891C73.4758 67.243 72.8928 67.1867 72.3046 67.1252C71.8904 65.922 71.3942 64.7445 70.8061 63.6181C69.1439 63.4645 67.231 63.659 66.5048 65.4254C65.4256 68.4513 65.3796 72.0403 66.8168 74.9638C67.4663 76.4537 69.42 76.2028 70.7038 75.87C71.4761 75.0765 71.8699 74.0166 72.3404 73.0387C72.9286 72.9568 73.5117 72.88 74.0998 72.8186C74.2277 75.2608 72.5092 77.2627 70.2691 77.9999H68.0442C66.2184 77.3395 64.5664 75.952 64.2442 73.9347C63.3645 70.4481 63.4361 66.4289 65.5075 63.3621Z" fill="#525253"/>
<path d="M110.209 63.0345C111.85 61.734 114.244 61.3449 116.095 62.461C117.584 63.142 117.962 64.8572 118.479 66.2498C118.203 66.4187 117.65 66.7515 117.374 66.9154C116.346 65.9375 115.517 64.7906 114.704 63.6335C113.763 63.7359 112.582 63.3724 111.927 64.2632C110.914 65.1644 110.991 67.1714 112.229 67.8625C114.285 69.3576 117.589 69.7928 118.249 72.6701C119.072 74.9741 117.047 76.9043 115.272 78H112.566C110.29 77.2934 108.598 75.3069 108.633 72.8647C110.188 73.3409 111.032 74.7437 112.127 75.8189C113.415 76.1107 115.385 76.4691 115.998 74.928C116.939 73.7453 116.172 71.9534 114.878 71.4158C113.042 70.3918 110.516 70.0385 109.508 67.9649C109.027 66.3624 109.027 64.3452 110.209 63.0345Z" fill="#525253"/>
<path d="M75.5565 62.1641C78.3848 62.0925 81.2131 62.0464 84.0363 62.2205C84.0363 62.5584 84.0414 63.2393 84.0414 63.5772C81.8984 63.7104 79.7503 63.6387 77.6023 63.695C77.5255 65.3794 77.5255 67.069 77.6023 68.7535C79.469 68.7893 81.3358 68.7791 83.1975 68.8251C83.1975 69.1887 83.1975 69.9157 83.2026 70.2792C81.3358 70.3253 79.4742 70.315 77.6074 70.3509C77.5204 72.2094 77.5204 74.0679 77.6074 75.9265C79.9396 76.1876 82.5633 75.3172 84.6347 76.7354C86.0565 71.8101 87.4732 66.854 89.4014 62.1078C89.7492 62.1078 90.4448 62.1078 90.7977 62.1078C92.869 67.1561 94.2909 72.4603 95.9326 77.6621C95.2984 77.616 94.6591 77.57 94.0249 77.529C93.5084 76.2541 93.0583 74.9588 92.5929 73.6686C90.9307 73.5611 89.2633 73.5662 87.6011 73.6635C87.105 74.9486 86.6703 76.2541 86.1997 77.5495C82.6554 77.5648 79.111 77.6007 75.5667 77.4778C75.4849 72.3732 75.5002 67.2687 75.5565 62.1641ZM88.1484 71.8305C89.4474 71.8766 90.7516 71.8766 92.0507 71.8254C91.5955 69.5215 90.813 67.2994 90.143 65.0518C89.3861 67.284 88.5268 69.4959 88.1484 71.8305Z" fill="#525253"/>
<path d="M97.0595 62.1129C97.6885 62.118 98.3176 62.1283 98.9416 62.1385C101.069 65.9324 102.9 69.8901 105.171 73.6071C105.273 69.7774 105.089 65.9528 105.238 62.1232C105.887 62.1232 106.542 62.1232 107.191 62.1232C107.268 67.2687 107.288 72.4142 107.181 77.5546C106.552 77.5546 105.923 77.5546 105.299 77.5546C102.818 73.9348 101.325 69.7621 99.0848 65.9989C98.9569 69.8337 99.1615 73.6686 99.0081 77.4983C98.3534 77.5341 97.6988 77.5699 97.0441 77.6109C96.9879 72.4449 96.9572 67.2738 97.0595 62.1129Z" fill="#525253"/>
</svg>
