<svg width="200" height="80" viewBox="0 0 200 80" fill="none" xmlns="http://www.w3.org/2000/svg">
<path d="M40.7845 14.6637C43.6037 12.676 47.3822 12.7756 50.4311 14.1792C52.6064 15.4651 54.2006 17.7108 54.3763 20.2871C53.8944 20.2871 52.9396 20.2916 52.4622 20.2916C51.9578 17.6791 49.9853 15.5058 47.3101 15.121C45.0764 14.958 42.5138 15.3021 40.9871 17.1358C39.8792 18.2994 39.9648 20.0607 40.253 21.5277C40.9781 23.3705 43.1398 23.8459 44.8962 24.0134C47.6929 24.362 50.9175 24.3847 53.0072 26.5851C54.7501 28.2468 55.1103 30.8593 54.5519 33.1141C53.8403 35.2059 52.0794 36.8812 49.9808 37.515C47.2516 38.4206 44.1621 38.3844 41.5366 37.1392C39.1271 35.8715 37.2401 33.336 37.3167 30.5152C37.7716 30.5107 38.6858 30.5016 39.1407 30.4971C39.6135 33.0507 41.3924 35.4413 44.0541 35.8805C46.2788 36.0254 48.7963 36.3197 50.7148 34.9207C51.6606 34.3456 52.165 33.3179 52.7144 32.3987C52.9261 30.891 52.6514 29.2339 51.5075 28.1472C50.5347 27.0017 48.999 26.7527 47.6164 26.4629C46.5445 26.3905 45.4817 26.2773 44.4188 26.155C42.1265 25.8381 39.5415 24.9688 38.4966 22.6958C37.0645 19.9204 38.2129 16.3163 40.7845 14.6637Z" fill="#525253"/>
<path d="M59.5182 13.568C64.2785 13.568 69.0432 13.5228 73.808 13.5861C74.8033 13.4322 74.7943 14.7181 74.8348 15.3927C70.3988 15.6689 65.9448 15.4335 61.4997 15.5195C61.5088 18.3357 61.5088 21.1519 61.4997 23.9682C65.3683 24.0452 69.2414 23.8414 73.0965 24.0814C73.1415 24.6609 73.1685 25.245 73.173 25.8245C69.2909 26.0962 65.3908 25.8653 61.5043 25.9513C61.5043 29.2113 61.5088 32.4712 61.5043 35.7312C65.7917 35.7991 70.0926 35.6316 74.3755 35.8127C75.0645 36.2745 74.6682 37.0035 74.4881 37.6192C69.4981 37.7279 64.5036 37.6419 59.5137 37.6645C59.5407 29.6323 59.5362 21.6002 59.5182 13.568Z" fill="#525253"/>
<path d="M79.4501 18.2722C80.9949 15.1888 84.2374 12.9703 87.7367 13.1378C92.0962 13.0065 96.0774 16.8369 96.1089 21.2243C95.6315 21.2379 94.6767 21.265 94.1994 21.2786C93.8346 18.8201 92.4565 16.5472 90.1326 15.5284C89.5021 15.4198 88.8761 15.293 88.2591 15.139C87.8808 15.13 87.1287 15.1164 86.7504 15.1073C84.904 15.5148 83.035 16.3661 82.0217 18.0549C80.1302 20.9798 80.6796 24.5929 80.6166 27.8936C80.6166 30.8366 81.774 34.255 84.6743 35.482C86.3767 36.3378 88.3042 36.1521 90.0966 35.7492C92.3034 34.8029 93.8571 32.693 94.0237 30.2752C94.7263 30.2616 95.4243 30.2616 96.1269 30.2706C96.0053 32.3217 95.0731 34.2143 93.7085 35.7129C93.1005 36.1884 92.4925 36.6638 91.871 37.1211C89.7138 38.0945 87.2278 38.5156 84.9445 37.7278C82.5216 37.0531 80.576 35.2194 79.4592 32.9873C77.991 28.2513 77.982 23.0127 79.4501 18.2722Z" fill="#525253"/>
<path d="M102.311 16.3027C104.608 13.4684 108.716 12.3772 112.116 13.6495C115.151 14.6773 117.444 17.5207 117.894 20.6991C118.421 23.95 118.421 27.3096 117.894 30.5605C117.444 33.7299 115.165 36.6005 112.134 37.6237C108.725 38.8688 104.59 37.8275 102.316 34.9478C100.114 32.3942 100.024 28.8264 99.9336 25.6298C100.024 22.4197 100.109 18.8609 102.311 16.3027ZM103.802 17.6882C101.884 20.3777 101.978 23.8278 102.023 26.9836C102.05 29.8134 102.703 33.019 105.05 34.8437C106.919 36.3876 109.499 36.0254 111.719 35.7809C114.467 34.5403 115.845 31.6471 116.151 28.7675C116.273 26.6848 116.286 24.593 116.146 22.5148C115.854 20.5407 115.282 18.4987 113.872 17.0226C111.166 14.2924 106.094 14.5415 103.802 17.6882Z" fill="#525253"/>
<path d="M123.589 13.5635C124.3 13.559 125.016 13.559 125.728 13.5544C130.218 20.4456 134.712 27.3323 139.23 34.2053C139.248 27.3277 139.248 20.4456 139.23 13.568C139.887 13.5635 140.549 13.559 141.211 13.559C141.216 21.5957 141.216 29.6369 141.211 37.6735C140.486 37.669 139.756 37.66 139.036 37.6464C134.6 30.7688 130.069 23.9546 125.674 17.0544C125.615 23.9138 125.656 30.7778 125.651 37.6373C124.962 37.6554 124.278 37.669 123.589 37.6781C123.58 29.6414 123.575 21.6002 123.589 13.5635Z" fill="#525253"/>
<path d="M146.95 13.5725C150.346 13.5906 153.75 13.4231 157.137 13.7446C160.199 14.6003 162.595 17.0634 163.487 20.1196C163.978 23.7735 164.005 27.4862 163.482 31.1355C162.618 34.2189 160.204 36.6457 157.141 37.5241C153.75 37.8003 150.346 37.6192 146.945 37.6599C146.95 29.6323 146.941 21.6047 146.95 13.5725ZM148.904 15.5195C148.999 22.2612 148.702 29.012 149.062 35.7402C151.309 35.7311 153.561 35.7266 155.813 35.7402C157.141 35.3553 158.524 34.9252 159.56 33.9518C160.636 32.9059 161.19 31.466 161.645 30.067C161.911 27.1194 161.911 24.1447 161.649 21.1972C161.159 19.6895 160.569 18.1002 159.29 17.0815C158.375 16.2892 157.191 15.9722 156.079 15.5874C153.692 15.447 151.296 15.533 148.904 15.5195Z" fill="#525253"/>
<path d="M129.004 42.2737C132.994 41.1282 137.741 42.3688 140.101 45.9592C140.704 47.2225 141.137 48.5627 141.245 49.9662C140.015 50.0296 138.781 50.0251 137.547 49.9889C137.516 49.6267 137.448 48.9022 137.417 48.5445C136.669 47.0549 135.476 45.5653 133.737 45.3118C131.513 45.0084 128.752 45.0763 127.405 47.2043C126.005 48.9022 126.685 51.5328 128.608 52.4972C129.864 52.7734 131.134 53.0043 132.404 53.2352C136.169 53.3439 140.475 55.0282 141.52 59.0579C141.488 60.5611 141.781 62.1594 141.087 63.5584C140.304 65.2427 138.894 66.5875 137.237 67.3979C135.318 68.4755 133.057 67.9231 130.972 68.0635C126.275 68.6068 121.906 64.2104 122.127 59.5288C123.298 59.5242 124.465 59.5242 125.635 59.5107C125.717 61.7338 127.081 63.6761 128.995 64.7175C131.22 65.3197 133.683 65.4918 135.8 64.4277C137.228 63.7305 138.227 62.1458 138.007 60.5294C137.993 58.8768 136.507 57.763 135.12 57.197C133.548 56.9842 131.999 56.622 130.409 56.5043C128.284 56.1149 126.054 55.4674 124.586 53.7605C122.632 51.637 122.753 48.3317 124.041 45.8958C125.275 44.1889 127.027 42.9619 129.004 42.2737Z" fill="#525253"/>
<path d="M68.9344 67.9684C68.9254 59.4111 68.8894 50.8492 68.9524 42.2918C70.4116 42.3099 71.8798 42.2284 73.3389 42.328C73.9469 42.6676 74.028 43.4464 74.3027 44.0259C76.4824 50.2515 79.0044 56.3549 81.031 62.6303C81.2967 62.0598 81.5715 61.4893 81.8282 60.9143C81.9588 60.4706 82.0894 60.0223 82.2245 59.5786C82.7334 58.3742 83.1928 57.1472 83.5891 55.8976C84.5348 53.5115 85.3635 51.0801 86.2732 48.6804C86.7146 47.4534 87.1649 46.2309 87.6108 45.0084C88.0521 44.121 88.0881 42.9574 88.8808 42.3099C90.3444 42.2465 91.8126 42.3054 93.2763 42.2918C93.3258 50.8492 93.2943 59.4111 93.2943 67.9684C92.1549 67.973 91.0155 67.973 89.8806 67.9503C89.849 61.1407 89.9616 54.3355 89.8175 47.5304C87.4847 54.2631 84.8906 60.9007 82.4317 67.5926C81.4859 67.5836 80.5401 67.57 79.5944 67.5293C79.5178 67.2214 79.3737 66.6147 79.2972 66.3068C76.8832 60.0495 74.645 53.7243 72.2896 47.4398C72.1725 54.2812 72.2626 61.1225 72.2446 67.9594C71.1412 67.973 70.0378 67.973 68.9344 67.9684Z" fill="#525253"/>
<path d="M99.3291 42.2963C100.496 42.2872 101.657 42.2872 102.824 42.2872C102.882 48.2321 102.792 54.177 102.869 60.1173C103.144 61.8152 103.878 63.6988 105.54 64.4549C107.535 65.4102 109.958 65.3831 111.944 64.4187C113.813 63.4316 114.524 61.1632 114.556 59.1665C114.56 53.5431 114.551 47.9152 114.56 42.2918C115.731 42.2872 116.907 42.2872 118.078 42.2963C118.105 47.6073 118.078 52.9183 118.096 58.2293C118.105 59.6419 117.803 61.0229 117.591 62.4129C116.528 65.4782 113.691 68.3668 110.246 68.0635C107.89 67.9593 105.26 68.5434 103.243 66.9632C100.306 65.1295 99.2751 61.5255 99.3156 58.2293C99.3336 52.9183 99.3156 47.6073 99.3291 42.2963Z" fill="#525253"/>
<path d="M146.589 42.2918C151.44 42.2873 156.295 42.2918 161.149 42.2827C162.19 42.2329 163.658 42.6087 163.757 43.8674C163.816 44.9677 162.64 45.7011 161.663 45.6604C157.808 45.6695 153.957 45.6468 150.107 45.6695C150.125 48.0963 150.116 50.5277 150.111 52.9545C153.637 52.9908 157.168 52.8866 160.69 52.9998C162.338 53.1175 162.469 56.133 160.749 56.2281C157.209 56.3413 153.66 56.2326 150.116 56.2733C150.12 59.076 150.111 61.8741 150.12 64.6722C154.083 64.7039 158.051 64.627 162.014 64.7085C163.059 64.6134 163.5 65.6366 164 66.3611C163.568 66.9044 163.136 67.4387 162.685 67.9594C157.312 67.982 151.944 67.9729 146.576 67.9639C146.58 59.4065 146.558 50.8492 146.589 42.2918Z" fill="#525253"/>
<path d="M37.0496 44.456C37.545 43.9625 38.0584 43.4871 38.5854 43.0343C39.4455 43.0977 40.4498 42.8306 41.1299 43.5188C42.4719 44.3836 42.3278 46.2807 41.4721 47.4443C41.229 47.6028 40.7426 47.9197 40.5039 48.0782C39.5401 48.1325 38.3917 48.2684 37.7297 47.39C36.82 46.6837 37.0181 45.4657 37.0496 44.456Z" fill="#525253"/>
<path d="M46.9159 45.5698C46.8168 44.4651 47.695 43.6818 48.4561 43.0524C49.1226 43.0434 49.7892 43.0343 50.4557 43.0298C51.2708 43.6501 52.2526 44.3972 52.05 45.5744C52.2031 47.5213 50.0279 48.5672 48.357 48.0782C47.6815 47.3854 46.8348 46.6474 46.9159 45.5698Z" fill="#525253"/>
<path d="M57.5008 43.6591C58.397 43.1656 59.3742 42.9347 60.3966 42.9981C61.2612 43.6501 61.9008 44.5284 62.2746 45.5472C61.8963 46.2761 61.6756 47.159 60.9775 47.6616C60.2389 48.3815 59.1491 48.0646 58.2393 48.0374C56.8342 46.9689 56.5325 45.1442 57.5008 43.6591Z" fill="#525253"/>
<path d="M37.0562 54.4171C37.8578 53.6655 38.8126 52.6784 40.024 53.018C40.8887 53.1357 41.4652 53.8556 42.0506 54.4261C42.0416 55.3271 42.3344 56.4183 41.6138 57.1292C40.686 58.4784 38.3937 58.4875 37.484 57.111C36.7724 56.4002 37.0697 55.309 37.0562 54.4171Z" fill="#525253"/>
<path d="M47.0017 54.4939C47.7899 53.3303 49.1184 52.7281 50.51 53.0179C51.0369 53.5069 51.5503 54.023 52.0367 54.5573C52.0052 55.5353 52.2259 56.7351 51.3342 57.4143C50.5866 58.2791 49.4111 58.0753 48.4023 58.0618C47.9069 57.5728 47.4251 57.0702 46.9657 56.5495C46.9612 55.8613 46.9747 55.1776 47.0017 54.4939Z" fill="#525253"/>
<path d="M56.906 55.5352C56.7528 53.6788 59.1442 52.3114 60.6935 53.294C61.5807 53.7105 61.8509 54.7383 62.2787 55.5397C61.8914 56.4271 61.387 57.2602 60.7745 58.0118C59.9549 58.0571 59.1352 58.0707 58.3156 58.0481C57.64 57.3644 56.7438 56.6218 56.906 55.5352Z" fill="#525253"/>
<path d="M37.063 64.4277C37.5493 63.9523 38.0492 63.4814 38.5536 63.0286C39.2202 63.0196 39.8867 63.0196 40.5487 63.0241C41.0576 63.4723 41.5575 63.9342 42.0394 64.4096C42.2331 65.4781 42.0619 66.5376 41.526 67.4748C40.3911 68.154 38.6392 68.489 37.689 67.3345C36.8378 66.6055 36.9819 65.4238 37.063 64.4277Z" fill="#525253"/>
<path d="M46.9389 66.488C46.4795 64.4505 48.2359 62.4945 50.3301 63.0016C50.5778 63.1556 51.0732 63.4635 51.3254 63.6174C52.2846 64.7358 52.4108 66.6872 51.0957 67.5882C49.7266 68.6839 47.709 67.9731 46.9389 66.488Z" fill="#525253"/>
<path d="M57.802 63.5358C58.5271 62.9064 59.5044 63.0196 60.3916 62.9744C61.2788 63.5992 61.8823 64.4957 62.2831 65.4963C61.8147 66.5875 61.2743 68.1405 59.8241 68.0545C58.5136 68.385 57.5588 67.4658 56.8878 66.4743C56.8788 65.442 56.9058 64.2285 57.802 63.5358Z" fill="#525253"/>
</svg>
