<svg width="200" height="80" viewBox="0 0 200 80" fill="none" xmlns="http://www.w3.org/2000/svg">
<path d="M17.6247 18.3879C72.4666 18.4543 127.303 18.3935 182.139 18.4156C182.139 32.4 182.122 46.3845 182.15 60.3689C127.152 60.38 72.1597 60.4132 17.1616 60.3523C17.1727 46.5726 17.2006 32.7983 17.1504 19.0186C17.2676 18.8581 17.5075 18.5428 17.6247 18.3879ZM20.3367 21.5411C20.3757 33.5396 20.3534 45.5381 20.3478 57.5422C73.2199 57.5477 126.098 57.5145 178.97 57.5532C179.316 55.1026 179.338 52.6023 179.109 50.1461C179.399 40.6369 179.137 31.1001 179.243 21.5798C126.276 21.4913 73.3092 21.5577 20.3367 21.5411Z" fill="#525253"/>
<path d="M38.4486 34.9613C38.7945 35.0885 39.1405 35.2102 39.4865 35.3319C39.9217 35.4315 40.7922 35.6307 41.2275 35.7302C41.0266 36.2226 40.8201 36.7149 40.6025 37.2017C39.6929 36.8089 38.7387 36.5821 37.7399 36.5213C37.6673 36.8974 37.5222 37.6553 37.4497 38.037C37.7008 38.1642 38.2086 38.4242 38.4653 38.5515C39.8492 39.0438 41.0266 39.9344 41.6348 41.2897C41.1494 42.208 40.5858 43.0931 39.7822 43.7735C38.5546 43.8454 37.3548 43.6241 36.2165 43.1816C36.0323 42.9935 35.6696 42.6063 35.4855 42.4182C35.8482 42.1416 36.2109 41.865 36.568 41.5884C37.5055 42.2412 38.6885 42.4293 39.7655 42.0144C40.3123 40.6038 38.5546 40.3438 37.6618 39.7629C36.5792 39.3757 36.01 38.3634 35.4297 37.4506C36.1328 36.2889 37.0982 35.3375 38.4486 34.9613Z" fill="#525253"/>
<path d="M51.9473 35.4259C52.5555 35.3982 53.1582 35.3706 53.7664 35.3484C54.2965 36.3165 54.8043 37.2957 55.273 38.2969C55.4181 38.3301 55.6971 38.391 55.8366 38.4241C56.2552 37.3676 56.8076 36.3774 57.3042 35.3595C57.9236 35.3816 58.543 35.4148 59.1624 35.4536C58.7383 36.0897 58.3142 36.7259 57.9013 37.3676C56.763 39.1322 55.6469 41.0739 56.5007 43.2202C55.9482 43.3641 55.4014 43.5079 54.849 43.6517C54.8211 42.4956 54.8155 41.3394 54.8043 40.1833C54.4416 39.5637 54.0845 38.9386 53.7385 38.3135C53.1582 37.3399 52.5611 36.3774 51.9473 35.4259Z" fill="#525253"/>
<path d="M86.0254 35.3762C88.3523 35.3706 90.6792 35.3706 93.0118 35.3762C93.0118 35.6859 93.0062 36.3055 93.0062 36.6153C92.0687 36.6208 91.1312 36.6264 90.1938 36.6374C90.1938 39.0438 90.2663 41.4501 90.1268 43.8509C89.4181 43.7071 88.6536 43.4416 88.6704 42.5841C88.4249 40.5982 88.7876 38.6012 88.5923 36.6208C87.7441 36.6208 86.8959 36.6264 86.0533 36.6319C86.0421 36.3166 86.031 35.6915 86.0254 35.3762Z" fill="#525253"/>
<path d="M104.171 35.3927C105.862 35.3706 107.547 35.3706 109.232 35.3651C109.243 35.6804 109.255 36.2999 109.26 36.6152C108.111 36.6208 106.956 36.6263 105.806 36.6318C105.806 37.3454 105.806 38.0535 105.812 38.7671C106.777 38.7782 107.742 38.7782 108.708 38.7948C108.691 39.1101 108.652 39.7352 108.63 40.045C107.698 40.0339 106.76 40.0284 105.828 40.0228C105.817 40.5705 105.8 41.6713 105.795 42.219C106.877 42.2245 107.96 42.2245 109.048 42.2024C109.366 42.5011 109.684 42.7998 110.008 43.0985C108.339 43.8343 106.509 43.6241 104.746 43.6683C104.601 43.5411 104.305 43.2866 104.154 43.1594C104.21 40.5705 104.182 37.9816 104.171 35.3927Z" fill="#525253"/>
<path d="M127.488 35.3596C128.04 35.3706 128.592 35.3762 129.15 35.3762C129.206 36.6319 129.212 37.9097 129.535 39.1323C129.669 40.7144 129.72 42.302 129.708 43.8952C127.002 43.259 128.453 39.8237 127.923 37.8267C127.32 39.2429 126.74 40.6646 126.182 42.0973C125.719 42.1416 125.25 42.1858 124.787 42.2301C124.145 40.8471 123.632 39.4089 123.152 37.965C122.795 39.8957 122.588 41.8429 122.471 43.7956C122.069 43.6462 121.277 43.3475 120.875 43.1981C121.517 40.6701 121.366 38.037 121.545 35.4536C122.013 35.4315 122.951 35.3872 123.42 35.3596C123.989 36.8808 124.625 38.3799 125.082 39.9399C125.228 39.9731 125.523 40.0505 125.668 40.0893C126.187 38.485 126.835 36.9195 127.488 35.3596Z" fill="#525253"/>
<path d="M141.922 35.3264C142.469 35.3761 143.016 35.4259 143.568 35.4757C143.635 38.0867 142.932 40.7144 143.579 43.3032C143.027 43.3586 142.475 43.4194 141.922 43.4803C141.917 40.7641 141.917 38.0425 141.922 35.3264Z" fill="#525253"/>
<path d="M69.8214 37.3566C70.0167 34.7511 73.3034 35.1162 75.0891 35.686C74.9775 36.0677 74.7654 36.8311 74.6594 37.2128C73.7945 36.8753 72.9017 36.6374 71.9865 36.5102C71.7745 36.7426 71.3504 37.2183 71.1328 37.4506C71.289 37.6608 71.5903 38.0702 71.741 38.2749C72.6282 38.6842 73.5266 39.0659 74.4083 39.4919C75.2509 40.3216 75.4351 41.6603 74.9217 42.7114C73.722 44.1165 71.7466 43.9063 70.212 43.2203C70.0335 43.0322 69.6708 42.6561 69.4922 42.468C69.7712 42.1748 70.0502 41.8816 70.3236 41.5829C71.2109 42.042 72.1818 42.2578 73.1751 42.3186C73.3816 42.0586 73.7833 41.5497 73.9898 41.2952C73.7889 41.1127 73.3871 40.7476 73.1807 40.565C71.8693 39.7629 69.5145 39.3702 69.8214 37.3566Z" fill="#525253"/>
<path d="M155.438 37.7991C156.481 34.7345 161.074 34.4524 163.005 36.7868C163.189 37.0745 163.551 37.6608 163.736 37.954C163.763 38.8612 163.769 39.7685 163.719 40.6757C162.915 41.4833 163.055 42.3242 163.869 43.0267C163.596 43.2756 163.323 43.5301 163.055 43.779C161.543 42.4348 159.623 44.3765 157.848 43.6684C156.995 43.0156 156.191 42.3076 155.482 41.511C155.254 40.2774 154.684 38.9719 155.438 37.7991ZM156.498 38.9387C156.744 40.1502 157.218 41.3174 158.144 42.1859C159.015 42.2135 159.885 42.2191 160.756 42.208C160.477 41.6161 160.203 41.0297 159.93 40.4378C160.7 40.4323 161.47 40.4821 162.234 40.5872C162.447 38.9442 161.883 37.4506 160.426 36.5821C159.88 36.5932 158.786 36.6209 158.239 36.6375C157.609 37.3677 157.045 38.1476 156.498 38.9387Z" fill="#525253"/>
</svg>
