<svg width="200" height="80" viewBox="0 0 200 80" fill="none" xmlns="http://www.w3.org/2000/svg">
<path d="M112.566 7.72583H112.591C113.371 8.76704 114.163 9.79258 114.942 10.8338C122.317 7.91087 131.116 8.91758 137.529 13.6407C142.329 17.0466 145.758 22.3373 146.926 28.111C148.094 33.5116 147.232 39.301 144.646 44.1715C142.266 48.697 138.371 52.3914 133.749 54.5617C128.792 56.8573 123.006 57.5034 117.739 55.9228C111.673 54.1665 106.626 49.9703 102.677 45.1531C97.8174 38.8368 92.7259 32.7056 87.8254 26.4206C85.6711 23.8803 82.8905 21.6756 79.5651 21.0013C74.5331 19.888 69.0596 22.6698 66.7393 27.2329C64.9294 30.6514 64.8762 34.9323 66.6673 38.3727C67.8415 40.5931 69.6858 42.4497 71.8527 43.7073C73.9851 44.9242 76.5152 45.0872 78.9138 44.9555C78.2593 44.0711 77.5955 43.193 76.9473 42.3023C83.3884 41.4116 89.8295 40.499 96.2831 39.693C93.8876 45.7803 91.4953 51.8739 89.0404 57.9362C88.2294 56.8009 87.409 55.675 86.5823 54.5522C83.6984 55.5558 80.6736 56.1486 77.6237 56.2928C72.3349 56.4559 67.0399 54.6306 62.8784 51.3816C58.1282 47.7122 54.8466 42.1768 53.9667 36.2306C53.2371 32.1536 53.7663 27.8947 55.2098 24.0309C57.2577 18.5896 61.4317 14.0045 66.6328 11.4265C71.4362 8.98971 77.0569 8.34366 82.3237 9.37546C87.4403 10.3132 92.1686 13.1326 95.4658 17.1563C101.459 24.7522 107.346 32.4327 113.317 40.0442C116.142 43.6979 121.036 45.5953 125.576 44.6733C129.384 43.9739 132.738 41.2987 134.347 37.7831C136.389 33.4771 135.559 27.9793 132.287 24.5044C129.885 21.8136 126.237 20.3458 122.649 20.4932C123.291 21.4686 123.992 22.4032 124.656 23.3629C118.124 24.241 111.595 25.1505 105.066 26.0506C107.581 19.9476 110.004 13.8069 112.566 7.72583Z" fill="#525253"/>
<path d="M141.146 53.0596C142.292 52.8902 143.704 53.4955 143.735 54.8158C144.152 55.2988 143.698 55.6062 143.331 55.6595C143.479 54.8692 143.278 53.8813 142.43 53.5927C141.199 52.8463 139.668 54.4834 140.335 55.6908C140.651 56.6223 141.769 56.6442 142.574 56.7697C142.427 56.2867 142.135 55.8884 141.832 55.5027C141.926 54.8817 142.157 54.2858 142.448 53.7339C143.04 54.2388 142.624 54.8503 142.48 55.396C142.827 55.7849 143.425 56.0484 143.375 56.6568C142.743 56.7979 142.129 57.1554 141.462 57.0614C140.451 56.8356 139.561 55.8132 139.771 54.7374C139.893 53.9753 140.557 53.4767 141.146 53.0596Z" fill="#525253"/>
<path d="M140.99 53.7244L142.058 53.7934C141.068 54.3955 142.242 55.9824 141.027 56.3462C140.943 55.4744 140.959 54.5962 140.99 53.7244Z" fill="#525253"/>
<path d="M95.1677 62.2392C96.1353 62.2329 97.1029 62.236 98.0736 62.2329C99.3449 65.413 100.613 68.5931 101.831 71.792C100.748 71.7983 99.6674 71.7983 98.584 71.7951C98.4274 71.3718 98.2677 70.9484 98.1112 70.525C97.0872 70.5219 96.0633 70.5219 95.0425 70.525C94.8859 70.9452 94.7325 71.3686 94.5822 71.7951C93.5176 71.7983 92.456 71.8014 91.3945 71.7889C92.5938 68.5837 93.9246 65.4287 95.1677 62.2392ZM95.8973 68.2701C96.367 68.3077 96.8399 68.3014 97.3127 68.3046C97.0841 67.5927 96.8618 66.8807 96.652 66.1626C96.3608 66.8494 96.0382 67.5299 95.8973 68.2701Z" fill="#525253"/>
<path d="M53.5312 62.3802C56.268 62.3833 59.0048 62.3677 61.7415 62.3896C61.7384 63.2678 61.7384 64.1459 61.7384 65.024C60.8647 65.0303 59.988 65.0303 59.1144 65.0397C59.0549 67.2915 59.0768 69.5464 59.0643 71.7982C58.0748 71.7982 57.0853 71.7982 56.0958 71.7919C56.2085 69.5433 56.149 67.2883 56.1553 65.0366C55.2816 65.0303 54.4049 65.0303 53.5312 65.0303V62.3802Z" fill="#525253"/>
<path d="M63.2944 62.377C65.8183 62.3832 68.339 62.3738 70.8628 62.3832C70.8659 63.2582 70.8659 64.1301 70.8565 65.0051C69.2971 65.027 67.7377 65.0114 66.1784 65.0145C66.1784 65.2277 66.1784 65.6511 66.1752 65.8644C67.625 65.8675 69.0748 65.8613 70.5215 65.8707C70.5246 66.6296 70.5246 67.3886 70.5246 68.1507C69.0748 68.1601 67.625 68.1538 66.1784 68.157C66.1752 68.4768 66.1752 68.7967 66.1752 69.1198C67.7409 69.1198 69.3034 69.1198 70.869 69.1198C70.8753 70.0104 70.8753 70.9043 70.8722 71.7981C68.2982 71.7918 65.7243 71.8043 63.1504 71.7918C63.3571 68.6587 63.2882 65.5163 63.2944 62.377Z" fill="#525253"/>
<path d="M72.5456 62.3833C74.1489 62.3833 75.7521 62.3613 77.3553 62.3864C78.5264 62.4303 79.7915 62.8506 80.4396 63.8949C81.3822 65.463 80.8592 67.743 79.1903 68.5992C79.8322 69.6843 80.5524 70.7161 81.2068 71.7887C80.0764 71.8013 78.9429 71.7918 77.8125 71.8044C77.2301 70.9169 76.6727 70.0105 76.1153 69.1073C75.9713 69.1041 75.6895 69.0979 75.5454 69.0979C75.5392 69.9948 75.5423 70.8918 75.5235 71.7887C74.5215 71.8013 73.5195 71.7981 72.5143 71.795C72.4548 68.6557 72.5801 65.5226 72.5456 62.3833ZM75.5705 64.9989C75.5673 65.6198 75.5673 66.2377 75.5705 66.8555C76.3408 66.8649 77.1142 66.8053 77.825 66.4854C77.8156 66.0934 77.8094 65.7014 77.8 65.3093C77.0798 65.0679 76.3251 64.9895 75.5705 64.9989Z" fill="#525253"/>
<path d="M82.4409 62.3803C84.4324 62.4555 86.4552 62.2015 88.4248 62.5496C89.8151 62.8319 90.7012 64.0675 90.9079 65.413C90.8609 66.7364 90.2472 67.9376 89.1105 68.6432C89.7994 69.6813 90.4633 70.7351 91.1302 71.7857C89.9842 71.8045 88.8413 71.8014 87.6952 71.792C87.1096 70.8135 86.5429 69.813 85.8102 68.9349C85.71 69.0478 85.5158 69.2673 85.4156 69.3802C85.4219 70.1831 85.4156 70.9891 85.4062 71.7951C84.4199 71.7982 83.4304 71.7951 82.444 71.7982C82.4315 68.6589 82.4409 65.5196 82.4409 62.3803ZM85.4156 66.8242C86.2172 66.8776 87.022 66.8336 87.7547 66.4636C87.7484 66.2064 87.7422 65.6952 87.7359 65.438C87.5606 65.3377 87.2098 65.1307 87.0345 65.0272C86.5711 65.0178 86.1108 65.0178 85.6505 65.0303C85.2215 65.5164 85.5064 66.2378 85.4156 66.8242Z" fill="#525253"/>
<path d="M102.811 69.474C101.47 66.94 102.635 63.2675 105.482 62.4019C107.589 61.5677 109.994 62.656 111.087 64.5596C110.294 65.0834 109.518 65.651 108.654 66.0525C108.102 65.5413 107.542 64.7949 106.681 65.0207C104.93 65.4848 104.815 68.367 106.446 69.0507C107.392 69.4019 108.178 68.6931 108.685 67.9812C109.505 68.4611 110.326 68.9472 111.13 69.4521C110.388 70.7128 109.18 71.7854 107.673 71.936C105.751 72.2715 103.65 71.2617 102.811 69.474Z" fill="#525253"/>
<path d="M111.406 62.3959C112.534 62.3709 113.664 62.374 114.791 62.3897C115.226 63.2647 115.615 64.1647 116.097 65.0178C116.172 65.0429 116.322 65.0931 116.398 65.1182C116.911 64.24 117.252 63.2709 117.8 62.4116C118.903 62.3332 120.011 62.3865 121.113 62.3959C120.099 64.1773 119.106 65.9681 118.104 67.7557C117.353 68.9694 117.85 70.4559 117.625 71.792C116.657 71.817 115.69 71.792 114.722 71.7951C114.691 70.6598 114.779 69.5214 114.675 68.3923C113.648 66.3632 112.483 64.4031 111.406 62.3959Z" fill="#525253"/>
<path d="M124.107 62.4932C126.237 61.5304 128.864 62.5371 129.938 64.5756C129.143 65.1182 128.319 65.6137 127.489 66.1029C127.029 65.6513 126.594 64.9363 125.852 65.0084C125.034 64.9269 124.583 65.7329 124.189 66.3068C124.12 67.3354 124.245 68.8534 125.495 69.0886C126.418 69.3646 127.041 68.6087 127.546 67.9784C128.313 68.43 129.096 68.8565 129.838 69.352C129.02 72.1025 124.937 72.8206 122.88 70.9609C121.815 70.1643 121.371 68.8816 121.067 67.6397C120.986 65.5353 122.019 63.2333 124.107 62.4932Z" fill="#525253"/>
<path d="M131.129 62.3959C132.122 62.374 133.114 62.3771 134.107 62.3771C134.107 64.5944 134.101 66.8117 134.107 69.029C135.503 69.0446 136.9 69.029 138.297 69.0446C138.312 69.9635 138.309 70.8793 138.297 71.7982C135.898 71.7951 133.496 71.8014 131.098 71.7951C131.066 68.662 131.12 65.529 131.129 62.3959Z" fill="#525253"/>
<path d="M139.767 62.3802C142.303 62.377 144.843 62.3802 147.382 62.3802C147.376 63.2364 147.376 64.0925 147.373 64.9519C145.863 64.9832 144.345 64.8734 142.842 64.9989C142.77 65.209 142.632 65.6261 142.563 65.8363C144.06 65.8896 145.56 65.8582 147.059 65.8676C147.059 66.6297 147.063 67.3918 147.063 68.157C145.61 68.157 144.157 68.1508 142.704 68.1633C142.701 68.4769 142.694 68.7937 142.694 69.1104C144.285 69.1261 145.876 69.1104 147.47 69.1261V71.7887C144.902 71.8076 142.334 71.7919 139.767 71.7981C139.757 68.6588 139.764 65.5195 139.767 62.3802Z" fill="#525253"/>
</svg>
