<svg width="200" height="80" viewBox="0 0 200 80" fill="none" xmlns="http://www.w3.org/2000/svg">
<path d="M52.5898 30.7301C60.5226 25.2342 68.4079 19.6555 76.2516 14.0295L76.8094 14C77.1891 14.2541 77.9426 14.7683 78.3164 15.0283C70.0989 19.7678 62.2017 25.051 54.1384 30.0446C53.646 30.3224 53.1238 30.5588 52.5898 30.7301Z" fill="#525253"/>
<path d="M72.5806 19.3956C74.592 18.0896 76.3364 16.3403 78.4783 15.2589C78.8936 15.4893 79.7302 15.9503 80.1455 16.1748C72.2246 21.3103 64.1139 26.1621 56.2227 31.3389C61.4024 27.019 67.1873 23.4614 72.5806 19.3956Z" fill="#525253"/>
<path d="M80.0811 16.4583C87.1476 21.1151 93.9352 26.1796 100.859 31.0551C96.6348 31.1319 92.4103 31.1319 88.1859 31.061C84.8632 28.5198 81.3508 26.2387 77.9866 23.7508C79.7013 22.362 81.511 21.0915 83.2316 19.7086C82.5374 19.9273 81.8788 20.2168 81.2558 20.5891C75.554 24.0463 70.0479 27.8225 64.2927 31.1792C67.7755 28.3957 71.466 25.8782 75.0378 23.2071C77.2153 21.6647 79.2148 19.8563 81.5822 18.5799C81.1016 18.6508 80.621 18.7217 80.1404 18.7808C75.6489 21.5701 71.1456 24.3417 66.7075 27.2256C64.5953 28.5258 62.5127 29.885 60.3945 31.1851C66.7194 25.9787 73.8215 21.7533 80.0811 16.4583Z" fill="#525253"/>
<path d="M67.1954 33.1295C69.4026 32.8104 71.8767 33.9214 72.7133 36.0606C73.6864 38.5072 73.6508 41.4798 72.1496 43.7077C70.7435 45.6756 67.9726 45.9002 65.8248 45.2442C60.8409 43.0636 61.4579 33.8091 67.1954 33.1295ZM64.8814 36.7048C64.4839 39.2341 64.2466 42.4608 66.5368 44.1982C67.943 44.2987 69.6873 44.541 70.518 43.099C71.6157 41.0425 71.4199 38.389 70.7494 36.2202C69.8119 33.62 65.3798 33.9509 64.8814 36.7048Z" fill="#525253"/>
<path d="M113.954 34.0808C115.722 32.7689 118.196 32.8044 120.089 33.8385C119.988 34.134 119.786 34.725 119.685 35.0205C118.849 34.7664 118.018 34.5122 117.187 34.2463C113.396 34.5595 112.749 39.1986 113.847 42.0766C114.678 44.399 117.822 44.8777 119.685 43.5185C119.976 43.879 120.279 44.2395 120.587 44.5881C118.048 46.1778 114.167 45.9237 112.464 43.2408C110.762 40.4041 111.088 36.0724 113.954 34.0808Z" fill="#525253"/>
<path d="M11 33.4958C14.02 33.2417 17.0519 33.4013 20.0779 33.3835C20.0482 33.7027 20.0007 34.335 19.9711 34.6482C18.8022 34.6659 17.6334 34.6718 16.4645 34.6837C16.4645 38.2413 16.4586 41.7988 16.4705 45.3564C15.8831 45.3978 15.2957 45.4451 14.7083 45.4865C14.6727 41.8934 14.6964 38.3004 14.6905 34.7014C13.4623 34.6778 12.2282 34.6541 11 34.6187V33.4958Z" fill="#525253"/>
<path d="M32.7794 33.3776C35.1467 33.3599 37.5141 33.3658 39.8815 33.3717C39.8459 33.6967 39.7687 34.3409 39.7331 34.66C38.0006 34.66 36.2741 34.66 34.5475 34.6718C34.5415 35.9128 34.5415 37.1539 34.5475 38.3949C35.8528 38.4126 37.164 38.4126 38.4753 38.389C38.6474 38.5781 38.9855 38.9504 39.1576 39.1395C38.9915 39.3286 38.6592 39.7068 38.4931 39.8959C37.1818 39.8723 35.8647 39.8723 34.5534 39.89C34.5534 41.2729 34.5593 42.6557 34.5712 44.0445C36.458 44.0563 38.3507 44.0504 40.2375 44.0799C40.2375 44.4109 40.2375 45.0727 40.2375 45.4037C37.7514 45.4391 35.2654 45.4273 32.7734 45.4096C32.7794 41.397 32.7794 37.3902 32.7794 33.3776Z" fill="#525253"/>
<path d="M48.3505 45.262C43.6751 43.2704 43.7582 35.4993 48.398 33.5255C50.1186 32.6981 52.0232 33.1827 53.7142 33.815C53.4412 35.5288 51.7799 34.471 50.7416 34.4946C48.7302 34.1282 47.057 36.0311 46.9977 37.9045C46.9206 39.1396 46.9681 40.3688 46.974 41.6039C47.8402 44.1155 50.9789 45.0551 53.1446 43.5777C53.4709 43.9087 53.7913 44.2396 54.1176 44.5765C52.4088 45.6402 50.2669 45.7879 48.3505 45.262Z" fill="#525253"/>
<path d="M55.6426 33.3658C56.2656 33.3717 56.8886 33.3776 57.5175 33.3835C57.5235 36.9529 57.5116 40.5223 57.5294 44.0917C59.1788 44.0917 60.8283 44.0917 62.4837 44.0858C62.4184 44.4168 62.2997 45.0905 62.2345 45.4273C60.0332 45.4273 57.8379 45.4273 55.6367 45.4273C55.6367 41.4088 55.6248 37.3843 55.6426 33.3658Z" fill="#525253"/>
<path d="M86.5007 35.1978C87.6043 33.4722 89.7877 32.9994 91.7161 33.0467C96.4745 34.0277 97.4594 40.5578 94.7361 43.9381C93.2824 45.7937 90.6184 45.8351 88.5477 45.2205C84.9462 43.4417 84.4597 38.3121 86.5007 35.1978ZM87.9781 35.9542C87.2365 38.1112 87.2068 40.546 88.0552 42.6853C88.88 44.6886 92.1551 44.9309 93.3002 43.1285C94.036 42.1534 93.8876 40.8415 94.1724 39.7068C93.8876 38.0403 94.0716 36.0251 92.5526 34.8846C91.0693 34.1577 88.7672 34.2581 87.9781 35.9542Z" fill="#525253"/>
<path d="M96.9728 33.4072C97.7264 33.3659 98.4799 33.3836 99.2275 33.4545C100.028 34.7724 100.723 36.1611 101.672 37.3844C102.396 36.0725 103.114 34.7487 103.778 33.4072C104.544 33.4013 105.309 33.4072 106.074 33.4191C104.882 35.1388 103.879 36.9707 102.693 38.6845C103.986 40.9834 105.451 43.1758 106.828 45.4215C106.098 45.4215 105.368 45.4215 104.639 45.4215C103.642 43.7018 102.627 41.988 101.678 40.2447C100.533 41.8639 99.7496 43.7018 98.6816 45.3742C97.9518 45.4156 97.2161 45.4274 96.4863 45.3979C97.7382 43.294 99.1563 41.2907 100.325 39.1396C99.7615 37.0357 98.0349 35.3338 96.9728 33.4072Z" fill="#525253"/>
<path d="M123.994 33.6259C126.456 32.3908 129.981 33.2418 131.114 35.8834C132.378 38.6372 132.241 42.4903 129.761 44.5469C128.367 45.8056 126.308 45.6461 124.593 45.3447C119.995 43.5777 119.716 35.8952 123.994 33.6259ZM124.7 34.7842C122.754 36.3384 122.825 39.2518 123.33 41.4798C123.525 43.0872 124.967 44.5823 126.694 44.2868C128.557 44.5055 129.447 42.5967 129.737 41.0838C129.963 39.1159 129.886 36.9471 128.675 35.2747C127.708 34.1932 125.946 34.3646 124.7 34.7842Z" fill="#525253"/>
<path d="M134.583 33.3717C135.414 33.3717 136.251 33.3658 137.087 33.3599C137.989 36.4566 139.057 39.5059 139.793 42.6498C140.76 39.5768 141.757 36.5098 142.635 33.4072C143.525 33.3895 144.415 33.3717 145.311 33.3599C145.696 37.3666 145.928 41.397 146.479 45.3801C145.868 45.4096 145.257 45.4392 144.652 45.4687C144.243 42.4194 144.094 39.3523 143.952 36.2852C143.792 36.3916 143.465 36.6102 143.305 36.7225C142.415 39.6596 141.46 42.5848 140.576 45.5219C140.196 45.4746 139.443 45.3683 139.063 45.3151C137.906 42.1889 137.224 38.9091 136.037 35.7947C135.509 38.9682 135.301 42.1889 135.123 45.4037C134.69 45.4096 133.818 45.4215 133.385 45.4333C133.61 41.397 134.115 37.3844 134.583 33.3717Z" fill="#525253"/>
<path d="M148.819 33.3895C150.842 33.4191 152.901 33.1827 154.9 33.5786C157.422 34.2641 158.235 37.9163 156.146 39.5237C154.734 41.0307 152.509 40.5106 150.682 40.6229C150.682 42.2244 150.682 43.8259 150.676 45.4274C150.065 45.4215 149.447 45.4097 148.836 45.4038C148.759 41.3971 148.783 37.3962 148.819 33.3895ZM150.705 34.666C150.699 36.2202 150.699 37.7745 150.717 39.3287C152.112 39.3405 153.571 39.4469 154.829 38.7023C154.995 38.0463 155.167 37.3962 155.345 36.7403C155.221 36.4093 154.971 35.7534 154.847 35.4224C153.63 34.5537 152.123 34.6719 150.705 34.666Z" fill="#525253"/>
<path d="M160.89 33.3658C161.656 33.3658 162.427 33.3599 163.192 33.3599C164.604 37.3903 166.111 41.3911 167.429 45.4569C166.901 45.4215 165.844 45.3565 165.316 45.321C165.026 44.1627 164.652 43.034 164.207 41.9289C162.688 41.9348 161.175 41.9348 159.662 41.9171C159.217 43.0872 158.79 44.2691 158.345 45.4392C157.74 45.4274 157.129 45.4156 156.529 45.3978C157.995 41.397 159.425 37.3726 160.89 33.3658ZM161.804 34.991C161.323 36.8761 160.712 38.7199 160.113 40.5697C161.347 40.5815 162.587 40.5756 163.821 40.5756C163.157 38.7081 162.617 36.7993 161.804 34.991Z" fill="#525253"/>
<path d="M168.668 33.3718C169.433 33.3836 170.199 33.4014 170.964 33.425C172.578 36.5926 174.382 39.6596 176.043 42.8036C175.723 39.6951 175.818 36.5748 175.758 33.4545C176.34 33.4014 176.921 33.3659 177.509 33.3304C177.526 37.3667 177.514 41.3971 177.514 45.4333C176.862 45.4215 176.209 45.4156 175.562 45.4097C173.877 42.2303 172.216 39.0391 170.395 35.9366C170.472 39.1041 170.472 42.2717 170.478 45.4393C170.027 45.4274 169.119 45.4038 168.668 45.392C168.674 41.3853 168.674 37.3785 168.668 33.3718Z" fill="#525253"/>
<path d="M178.645 33.3835C179.374 33.3776 180.116 33.3717 180.852 33.3658C181.837 35.1919 182.81 37.0297 183.765 38.8735C184.833 37.0948 185.806 35.2628 186.773 33.4249C187.515 33.419 188.256 33.4012 188.998 33.3717V34.0395C188.375 34.335 187.93 34.7959 187.669 35.4282C186.773 37.2425 185.48 38.8617 184.768 40.7646C184.631 42.307 184.702 43.8672 184.702 45.4214C184.068 45.4214 183.433 45.4214 182.798 45.4214C182.661 43.4121 183.29 41.1665 182.139 39.364C180.994 37.3548 179.796 35.381 178.645 33.3835Z" fill="#525253"/>
<path d="M21.608 33.4662C22.0886 33.4426 23.0557 33.3894 23.5363 33.3658C23.566 34.9968 23.5541 36.6338 23.3702 38.253C25.0968 38.324 26.8234 38.318 28.544 38.3062C28.544 36.6574 28.544 35.0146 28.5499 33.3658C29.0187 33.3717 29.9621 33.3776 30.4308 33.3776C30.4426 37.3843 30.4545 41.391 30.4248 45.3978C29.9561 45.4037 29.0187 45.4273 28.5499 45.4332C28.5499 43.489 28.5559 41.5447 28.5203 39.6004C26.9598 39.6004 25.3994 39.6063 23.8389 39.5768C23.7143 39.7482 23.477 40.0909 23.3583 40.2623C23.5245 41.9761 23.7855 43.7667 23.2634 45.451C22.8422 45.4332 22.0056 45.3978 21.5843 45.38C21.6258 42.5139 21.519 39.6418 21.697 36.7756C21.5962 35.6764 21.5487 34.5713 21.608 33.4662Z" fill="#525253"/>
<path d="M75.5751 33.4131C78.1858 33.5313 82.1907 32.4616 83.4367 35.5582C84.4275 37.7744 82.5052 39.8664 80.3573 40.1737C81.9712 41.6865 83.0629 43.6308 84.3326 45.4214C83.5969 45.4273 82.8612 45.4273 82.1314 45.4332C80.8854 43.4121 79.6691 41.3024 77.7764 39.8014C77.1593 41.5861 77.4322 43.4594 77.4856 45.2914C76.916 45.3919 76.3524 45.4687 75.7828 45.5396C75.3497 41.5151 75.6879 37.4552 75.5751 33.4131ZM77.5509 34.6482C77.5094 36.0842 77.5153 37.5262 77.5509 38.9622C79.2834 39.039 81.5618 38.9563 81.8644 36.7993C81.722 36.4388 81.4372 35.7178 81.2948 35.3573C80.1556 34.6777 78.8384 34.6659 77.5509 34.6482Z" fill="#525253"/>
<path d="M52.1895 47.8149C56.3487 47.7203 60.5079 47.8031 64.673 47.7676C68.1796 50.2083 71.6327 52.7435 75.1749 55.1428C73.3593 56.5257 71.6327 58.074 69.5739 59.1082C71.4547 58.9722 72.849 57.6308 74.4095 56.7443C79.3281 53.7363 84.1044 50.5038 89.0587 47.549C83.7247 51.7921 78.0288 55.5801 72.677 59.7996C72.137 60.2369 71.5437 60.5797 70.9029 60.8456C69.9477 60.6151 69.2357 59.8764 68.4169 59.3918C63.0058 55.5388 57.5887 51.6857 52.1895 47.8149Z" fill="#525253"/>
<path d="M76.6504 57.8672C82.1743 54.5282 87.4846 50.8406 93.0856 47.6258C86.3928 52.6844 79.3857 57.3235 72.8294 62.5535C72.2005 61.9921 71.536 61.4661 70.8418 60.9934C73.0015 60.4142 74.7459 58.9545 76.6504 57.8672Z" fill="#525253"/>
<path d="M72.9902 62.7484C80.8933 57.6484 88.921 52.7257 96.8597 47.673C92.1012 51.5201 86.9156 54.8295 81.9969 58.4817C79.8669 60.1364 77.4224 61.4424 75.6127 63.4871C76.4078 63.038 77.1791 62.5534 77.9564 62.0747C85.6577 57.3175 93.3116 52.4834 100.924 47.6021C99.9984 48.524 98.9185 49.2804 97.8506 50.0309C90.7959 55.0009 83.7175 59.9295 76.7341 65C75.9569 64.9172 75.4347 64.5213 75.1796 63.8121C74.4617 63.4398 73.726 63.0853 72.9902 62.7484Z" fill="#525253"/>
</svg>
