<svg width="200" height="80" viewBox="0 0 200 80" fill="none" xmlns="http://www.w3.org/2000/svg">
<path d="M97.3232 21.9013C99.4037 21.9649 101.753 21.5886 103.56 22.8688C105.586 24.5838 105.157 28.3706 102.671 29.4847C103.423 31.8447 104.243 34.1851 104.908 36.5696C104.283 36.5549 103.657 36.5158 103.037 36.4474C102.119 34.2829 101.875 31.8007 100.673 29.7827C100.302 29.7534 99.56 29.6948 99.1937 29.6654C99.0765 31.9424 99.14 34.2242 99.1351 36.5012C98.5246 36.5158 97.9191 36.5305 97.3086 36.5452C97.3232 31.6639 97.2939 26.7826 97.3232 21.9013ZM99.1449 23.5284C99.1204 25.1018 99.1204 26.6751 99.1498 28.2485C100.376 28.2729 101.587 28.0726 102.666 27.4618C102.866 26.4308 102.871 25.3803 102.725 24.3444C101.665 23.6115 100.385 23.5333 99.1449 23.5284Z" fill="#525253"/>
<path d="M117.061 21.8965C118.335 21.4909 119.942 21.5398 120.914 22.5757C121.949 23.6213 122.228 25.1311 122.252 26.5481C121.72 26.4406 121.07 26.6507 120.631 26.2794C120.22 25.3803 120.313 24.1295 119.395 23.5529C118.643 22.8884 117.72 23.5382 116.978 23.8461C115.889 26.4895 116.143 29.4163 116.304 32.2014C116.289 33.677 117.271 34.8741 118.58 35.436C120.352 34.9816 120.841 33.164 120.772 31.5271C121.305 31.5418 121.842 31.5515 122.374 31.5662C122.306 32.9441 122.286 34.4539 121.329 35.5631C119.937 37.3807 116.724 37.2977 115.532 35.2943C114.052 32.9441 114.277 30.0222 114.36 27.3641C114.516 25.351 115.024 22.8297 117.061 21.8965Z" fill="#525253"/>
<path d="M122.043 22.1359C122.722 22.0186 123.401 21.916 124.079 21.8183C124.954 23.8998 125.75 26.0204 126.453 28.1654C127.303 26.1083 128.035 24.0073 128.778 21.9111C129.242 21.9111 130.174 21.9062 130.638 21.9062C129.696 24.6034 128.504 27.2028 127.591 29.9098C127.288 32.0841 127.532 34.3073 127.469 36.5012C126.839 36.5159 126.209 36.5305 125.584 36.5452C125.545 34.4393 125.672 32.3235 125.525 30.2176C124.612 27.54 123.357 24.9796 122.512 22.2727L122.043 22.1359Z" fill="#525253"/>
<path d="M132.836 22.1603C133.828 21.4469 135.102 21.7352 136.231 21.8036C137.857 22.815 138.497 24.6913 138.438 26.5383C138.057 26.5187 137.295 26.4747 136.909 26.4552C136.436 25.2972 136.397 23.1912 134.682 23.2792C132.885 23.2792 132.607 25.4682 132.47 26.8412C132.397 29.553 131.987 32.5678 133.598 34.9425C134.467 35.2014 135.371 35.1965 136.221 34.8643C136.699 33.8138 136.968 32.6899 137.007 31.5319C137.398 31.5417 138.179 31.5612 138.57 31.571C138.453 32.944 138.492 34.4587 137.578 35.5923C136.138 37.3611 133.002 37.2829 131.762 35.3138C130.292 32.9587 130.458 30.0465 130.575 27.3836C130.756 25.5024 131.103 23.2548 132.836 22.1603Z" fill="#525253"/>
<path d="M163.607 22.1505C164.603 21.4616 165.858 21.7303 166.986 21.7939C167.533 22.2874 168.08 22.7857 168.603 23.3086C169.018 24.3395 169.184 25.4389 169.228 26.5432C168.837 26.5188 168.046 26.4699 167.651 26.4504C167.201 25.3608 167.309 23.8167 166.015 23.2939C164.584 22.9079 163.612 24.276 163.416 25.5171C162.996 27.9504 163.153 30.4375 163.329 32.8806C163.666 33.55 164.007 34.2145 164.388 34.8595C164.755 35.0109 165.121 35.1624 165.487 35.3236C166 35.1575 166.513 34.9865 167.035 34.8301C167.568 33.6672 167.67 32.4017 167.631 31.1411C166.947 31.1411 166.259 31.1411 165.575 31.1411C165.575 30.6085 165.575 30.0808 165.58 29.5482C166.806 29.5531 168.036 29.5531 169.267 29.5482C169.257 31.9082 169.296 34.2731 169.238 36.6331C168.823 36.5501 168.002 36.3791 167.592 36.296C165.907 37.2097 163.573 36.9947 162.498 35.2797C160.95 32.5678 161.189 29.299 161.453 26.3087C161.78 24.794 162.152 22.991 163.607 22.1505Z" fill="#525253"/>
<path d="M30.3418 35.9635C31.7434 29.4112 36.9055 23.9826 43.3324 22.165C43.6596 22.4337 43.9869 22.6927 44.3141 22.9565C41.9455 23.3279 39.7185 24.3686 37.8285 25.8296L37.3157 25.6635C37.4964 26.0299 37.6722 26.4013 37.8432 26.7775C38.7466 25.986 39.7722 25.3556 40.8271 24.7791C44.5436 23.2204 48.8461 22.7025 52.6896 24.1146C50.3699 24.0168 48.0159 24.1146 45.8378 24.9794C43.3959 26.1081 41.2178 27.8818 39.8943 30.2516C38.8492 32.1132 37.2815 33.6817 36.6222 35.7534C35.3525 39.0662 35.8506 42.8188 37.4085 45.9606C35.1327 42.511 34.0095 38.3089 34.4734 34.1898C34.9374 32.2305 35.3867 30.2271 36.4708 28.4974C36.7053 27.9062 37.4671 27.2124 37.0667 26.6016C33.6627 29.0105 31.5432 33.1588 31.1281 37.2779C30.8644 36.8381 30.6006 36.4033 30.3418 35.9635Z" fill="#525253"/>
<path d="M45.6084 22.6782C44.8808 22.9127 44.3094 22.3117 43.7136 22.0234C47.5814 21.3736 51.6935 21.5348 55.2635 23.2841C60.3279 25.5366 64.1372 30.3153 65.2897 35.734C66.2567 40.3319 65.4265 45.3451 62.7991 49.2687C60.3084 53.2069 56.1621 56.0262 51.6154 56.9888C46.3801 58.2299 40.6564 56.7152 36.5394 53.2998C31.6215 49.3224 29.3018 42.7017 30.1808 36.4865C30.4787 37.1119 31.0941 37.6934 30.9134 38.4507C30.4836 44.2946 33.3796 50.2606 38.2243 53.549C43.6696 57.4188 51.4738 57.5654 57.0412 53.8666C59.8737 52.0001 62.2423 49.3273 63.4974 46.1464C62.4328 46.5227 62.2032 47.7002 61.5195 48.4625C60.2937 50.2313 58.4233 51.3551 56.5479 52.3225C55.747 52.5131 54.9363 52.6792 54.1207 52.8258C54.4137 53.0115 54.7019 53.2069 54.99 53.4024C54.78 53.6223 54.3503 54.062 54.1354 54.2868C52.8314 54.5506 51.5665 54.9757 50.287 55.3422C47.1956 55.7526 43.9724 55.4692 41.1252 54.1353C36.6615 52.215 33.3406 48.1156 32.0415 43.4688C31.1673 38.9833 31.8217 34.1704 34.4394 30.3592C34.3417 30.9847 34.2001 31.6003 34.0145 32.2062C33.7801 33.5157 33.6971 34.8496 33.531 36.1738C33.5799 42.7896 37.6919 49.2198 43.8601 51.7167C47.0833 52.8649 50.4433 54.5164 53.9498 53.7004C53.9498 53.5148 53.94 53.1483 53.94 52.9675C52.0061 53.2363 50.0721 52.9675 48.2163 52.4154C43.0933 50.4902 39.6796 44.9151 40.6564 39.4573C41.1252 43.5617 43.6501 47.4071 47.3861 49.2247C49.7547 50.5 52.514 50.8127 55.1512 50.4756C55.9277 50.241 56.714 50.0358 57.4905 49.7915C59.5514 48.9022 61.4365 47.5878 62.8577 45.8337C63.1067 45.8142 63.6 45.7653 63.8442 45.7458C65.1969 41.5095 65.2946 36.8432 63.4974 32.7193C61.3339 27.8526 56.9093 24.188 51.7619 22.8736C49.7303 22.5512 47.6596 22.4827 45.6084 22.6782Z" fill="#525253"/>
<path d="M106.514 36.5354C106.538 31.659 106.499 26.7778 106.538 21.9014C108.716 21.9063 110.894 21.916 113.077 21.8916C113.18 22.4633 113.282 23.035 113.38 23.6115C111.715 23.636 110.045 23.6262 108.379 23.6262C108.379 25.1458 108.379 26.6703 108.384 28.1948C109.59 28.1899 110.792 28.1899 111.998 28.1948C111.974 28.5759 111.93 29.3479 111.905 29.7339C110.772 30.0955 109.546 29.8365 108.379 29.9098C108.379 31.5809 108.379 33.2568 108.389 34.9328C110.074 34.923 111.759 34.9279 113.449 34.9279C113.444 35.4605 113.444 35.998 113.449 36.5354C111.134 36.5305 108.824 36.5305 106.514 36.5354Z" fill="#525253"/>
<path d="M140.205 36.5354C140.229 31.659 140.186 26.7777 140.229 21.9013C140.64 21.9013 141.465 21.9013 141.88 21.8964C141.919 22.903 141.978 23.9046 142.076 24.9063C141.861 28.2289 141.817 31.5857 142.124 34.9034C143.589 34.8887 145.059 34.8887 146.529 34.9132C146.529 35.4458 146.529 35.9783 146.534 36.5109C144.425 36.55 142.315 36.5305 140.205 36.5354Z" fill="#525253"/>
<path d="M147.669 21.9014C148.128 21.9014 149.036 21.9063 149.495 21.9111C149.52 26.7778 149.491 31.6444 149.51 36.5159C148.89 36.5257 148.27 36.5305 147.654 36.5403C147.669 31.6639 147.64 26.7826 147.669 21.9014Z" fill="#525253"/>
<path d="M151.74 31.7763C151.765 28.4683 151.467 25.1311 151.936 21.8476C152.737 22.0577 154.08 21.4811 154.407 22.5805C155.525 25.8347 156.873 29.0107 157.811 32.3235C157.938 28.8544 157.82 25.3803 157.879 21.9111C158.27 21.9062 159.051 21.8965 159.447 21.8965C159.5 26.7777 159.457 31.6639 159.471 36.5501C158.89 36.5354 158.309 36.5207 157.728 36.5012C156.404 32.4261 154.607 28.4977 153.542 24.3395C153.249 28.4048 153.464 32.4848 153.401 36.5549C152.81 36.5207 152.219 36.4914 151.633 36.4523C151.691 35.7145 151.75 34.9767 151.823 34.2389C151.73 33.4229 151.711 32.5972 151.74 31.7763Z" fill="#525253"/>
<path d="M77.8555 24.1929C78.3731 24.1881 78.8908 24.1783 79.4085 24.1734C79.428 25.7761 79.3596 27.3836 79.4427 28.9863C80.1362 29.9537 81.6257 29.1915 82.6415 29.2452C82.6122 27.5546 82.622 25.864 82.622 24.1783C83.0078 24.1783 83.7745 24.1783 84.1603 24.1783C84.1506 28.2973 84.1506 32.4164 84.1603 36.5354C83.6427 36.5354 83.1299 36.5354 82.6171 36.5354C82.6268 34.6493 82.622 32.7633 82.6268 30.8772C81.5524 30.8772 80.478 30.8772 79.4085 30.8968C79.4183 32.7584 79.389 34.6249 79.4427 36.4914C78.9103 36.511 78.3829 36.5256 77.8555 36.5403C77.8604 32.4212 77.8604 28.3071 77.8555 24.1929Z" fill="#525253"/>
<path d="M70.5586 24.1929C72.6928 24.1685 74.8269 24.1783 76.9611 24.1832C76.9514 24.5301 76.9318 25.2239 76.9221 25.5708C76.1211 25.5708 75.3202 25.5757 74.5193 25.5855C74.5339 29.2355 74.5242 32.8903 74.5242 36.5403C74.0065 36.5305 73.4937 36.5207 72.976 36.5158C72.9907 32.8659 72.9711 29.2159 72.9858 25.566C72.1849 25.566 71.3791 25.566 70.5781 25.566C70.5732 25.2239 70.5635 24.535 70.5586 24.1929Z" fill="#525253"/>
<path d="M86.0254 36.5355C86.0303 32.4164 86.0352 28.2974 86.0254 24.1783C87.9447 24.1832 89.8689 24.1686 91.7882 24.1979C91.7882 24.5595 91.7882 25.2777 91.7882 25.6393C90.3768 25.654 88.9703 25.654 87.5589 25.654C87.5638 26.9244 87.5638 28.1948 87.5686 29.4652C88.5796 29.4652 89.5905 29.4652 90.6014 29.4701C90.5965 29.8316 90.577 30.5597 90.5721 30.9261C89.5661 30.9212 88.56 30.9212 87.5589 30.9212C87.5638 32.2943 87.5686 33.6673 87.5442 35.0403C87.7493 35.0549 88.1547 35.0794 88.3549 35.0891C89.6442 35.3188 92.3937 34.1999 91.9591 36.5208C89.9812 36.5452 88.0033 36.5306 86.0254 36.5355Z" fill="#525253"/>
<path d="M48.1622 24.8281C49.9204 24.6034 51.6932 24.6669 53.4611 24.7842L53.3487 24.9747C57.5194 25.9373 60.9917 29.4309 61.8561 33.6379C61.9343 34.9718 64.3566 32.988 62.5594 32.2942C63.5703 35.5777 64.6252 39.0518 63.8633 42.5112C62.3885 46.4739 58.501 49.4398 54.2766 49.7574C55.2632 48.8827 56.3669 48.1254 57.1531 47.0455C58.3252 45.438 60.0589 44.3093 61.0748 42.5698C62.6913 40.0779 62.9892 37.0094 62.9013 34.1167C61.6461 36.2325 62.3445 38.9443 61.0992 41.1284C60.5766 41.9541 60.0882 42.7995 59.5364 43.6057C60.0199 40.3124 60.2836 36.7064 58.501 33.7259C55.8883 28.7664 49.642 26.0399 44.2748 27.8087C43.5325 28.0677 42.7755 28.2827 42.0234 28.5025C43.2785 27.2712 44.6948 26.2109 46.3162 25.522C46.9364 25.2972 47.5518 25.0773 48.1622 24.8281Z" fill="#525253"/>
<path d="M98.6514 41.7636C101.337 41.7636 104.023 41.7685 106.709 41.7636C106.705 42.3109 106.705 42.8581 106.7 43.4054C105.689 43.4005 104.673 43.4005 103.657 43.3956C103.652 48.1254 103.652 52.8503 103.657 57.5801C103.174 57.5752 102.207 57.5703 101.723 57.5655C101.738 52.8405 101.738 48.1205 101.728 43.4005C100.698 43.4005 99.6721 43.4005 98.6465 43.4005C98.6514 42.8581 98.6514 42.3109 98.6514 41.7636Z" fill="#525253"/>
<path d="M118.854 41.7734C121.29 41.7636 123.727 41.7685 126.169 41.7685C126.155 42.3744 126.145 42.9851 126.135 43.5959C124.353 43.5861 122.57 43.591 120.792 43.591C120.792 45.2474 120.792 46.9039 120.792 48.5651C122.116 48.5603 123.439 48.5603 124.763 48.5651C124.733 49.1808 124.704 49.7965 124.675 50.4072C123.381 50.4023 122.087 50.4023 120.792 50.3975C120.792 52.2249 120.792 54.0523 120.792 55.8797C122.629 55.8748 124.465 55.8748 126.301 55.8748C126.301 56.4416 126.301 57.0084 126.301 57.5752C123.815 57.5703 121.334 57.5801 118.854 57.5655C118.863 52.2982 118.858 47.0358 118.854 41.7734Z" fill="#525253"/>
<path d="M137.45 45.4722C137.089 42.9998 139.726 40.7766 142.095 41.5779C143.97 41.959 144.869 43.8793 145.079 45.6139C144.659 46.1758 143.921 46.0194 143.316 46.1123C143.008 45.1546 143.013 43.9477 142.09 43.332C141.113 42.9021 140.122 43.3174 139.316 43.8842C139.296 44.622 139.145 45.3891 139.365 46.1074C140.84 48.3452 143.819 49.2101 144.917 51.7607C145.889 54.0767 144.932 56.8569 142.617 57.9075C141.396 57.9563 140.053 58.1225 139.013 57.3358C137.572 56.4612 137.27 54.6826 137.201 53.1337C137.611 53.1532 138.437 53.1825 138.847 53.1972C139.13 53.891 139.291 54.624 139.462 55.352C140.317 56.212 141.499 56.1778 142.612 55.9677C143.648 54.6289 143.706 52.5522 142.383 51.3796C140.59 49.5814 137.577 48.3697 137.45 45.4722Z" fill="#525253"/>
<path d="M153.364 41.7538C153.94 41.7587 154.521 41.7636 155.107 41.7684C155.068 47.0846 155.19 52.4056 155.039 57.7218C154.482 57.7169 153.93 57.712 153.383 57.7169C153.295 56.0751 153.334 54.4236 153.266 52.7819C153.315 51.9121 153.217 51.0473 153.119 50.1873C151.776 50.2068 150.429 50.2068 149.086 50.202C149.066 52.6548 149.071 55.1126 149.081 57.5654C148.602 57.5703 147.64 57.5752 147.161 57.5752C147.161 52.303 147.156 47.0357 147.166 41.7636C147.645 41.7636 148.602 41.7684 149.081 41.7733C149.076 44.0063 149.061 46.2393 149.09 48.4723C150.433 48.2231 152.255 49.0293 153.286 48.0178C153.378 46.6741 153.339 45.3256 153.198 43.9868C153.281 43.2441 153.305 42.4965 153.364 41.7538Z" fill="#525253"/>
<path d="M71.8584 57.585C71.8584 52.3129 71.8633 47.0407 71.8535 41.7685C74.1928 41.8516 77.0595 41.275 78.8274 43.2295C80.4098 45.2621 80.0191 48.7215 77.6847 50.0506C76.4051 50.3731 75.1012 50.588 73.7826 50.5832C73.8119 52.909 73.7875 55.2299 73.8021 57.5557C73.1526 57.5655 72.503 57.5753 71.8584 57.585ZM73.8021 43.552C73.7923 45.3745 73.7728 47.1971 73.8314 49.0196C74.8082 48.8974 75.8142 48.8583 76.7519 48.5261C78.1242 47.8665 78.0314 46.0928 77.7091 44.8419C76.9814 43.3419 75.1695 43.6302 73.8021 43.552Z" fill="#525253"/>
<path d="M82.6998 41.7587C83.4959 41.7636 84.2968 41.7684 85.0929 41.7684C86.3529 47.0113 87.3394 52.3177 88.6091 57.5556C88.1012 57.5654 87.0854 57.5752 86.5726 57.5849C86.2747 56.0702 86.011 54.5506 85.6398 53.0555C84.4531 53.0652 83.2664 53.0652 82.0796 53.0457C81.7182 54.5311 81.518 56.0507 81.1371 57.5312C80.6633 57.5507 79.7159 57.5947 79.2422 57.6143C80.4143 52.3323 81.5082 47.0357 82.6998 41.7587ZM83.8719 44.2995C83.3836 46.6009 82.8757 48.8974 82.485 51.2183C83.408 51.2281 84.331 51.228 85.254 51.228C84.8243 48.912 84.3554 46.6057 83.8719 44.2995Z" fill="#525253"/>
<path d="M89.874 57.5899C89.8691 52.3177 89.874 47.0407 89.8691 41.7685C92.1596 41.876 94.8212 41.2945 96.7405 42.8972C98.7721 44.7882 98.2789 48.7362 95.6563 49.8844C96.3498 52.4741 97.2875 54.9905 98.0786 57.5508C97.5707 57.5557 96.55 57.5655 96.0421 57.5752C95.2852 55.1175 94.45 52.6842 93.7175 50.2265C93.2438 50.2265 92.2915 50.2265 91.8177 50.2265C91.7494 52.6646 91.7884 55.1028 91.7836 57.5362C91.1487 57.5557 90.5089 57.5752 89.874 57.5899ZM91.8177 43.3614C91.764 45.1106 91.7738 46.8648 91.7933 48.614C92.9703 48.5994 94.1424 48.4577 95.2607 48.0668C95.9347 47.0309 96.2619 45.6335 95.6124 44.5096C94.7528 43.3223 93.1021 43.5226 91.8177 43.3614Z" fill="#525253"/>
<path d="M108.066 57.5752C108.076 52.303 108.066 47.026 108.071 41.7489C108.945 41.7636 109.82 41.7782 110.699 41.8026C111.851 45.5161 113.492 49.0684 114.464 52.8454L114.479 51.5847L114.772 51.619C114.718 48.3306 114.757 45.0422 114.752 41.7538C115.158 41.7587 115.978 41.7684 116.388 41.7733C116.383 47.0406 116.388 52.3128 116.388 57.585C115.919 57.5752 114.991 57.5654 114.523 57.5605C113.048 53.0604 111.05 48.7263 109.912 44.1187C109.917 44.6317 109.932 45.6578 109.937 46.1758L109.663 46.1709C109.717 49.9723 109.668 53.7737 109.693 57.5752C109.151 57.5752 108.608 57.5752 108.066 57.5752Z" fill="#525253"/>
<path d="M127.763 41.788C130.112 41.8564 132.832 41.275 134.785 42.9363C136.734 44.8419 136.29 48.8681 133.56 49.86C134.39 52.4203 135.279 54.9904 136.07 57.5752C135.386 57.5703 134.702 57.5703 134.019 57.5654C133.242 55.2983 132.676 52.9676 131.841 50.7199C131.508 49.7964 130.449 50.329 129.736 50.2851C129.618 52.7232 129.721 55.1614 129.682 57.5996C129.037 57.5752 128.398 57.5508 127.758 57.5263C127.777 52.2835 127.768 47.0358 127.763 41.788ZM129.697 43.3907C129.682 45.1253 129.687 46.8599 129.687 48.5944C130.893 48.5993 132.114 48.5358 133.223 48.013C133.394 47.754 133.735 47.241 133.906 46.982C133.887 46.0585 134.087 44.9933 133.379 44.2555C132.412 43.3223 130.932 43.4689 129.697 43.3907Z" fill="#525253"/>
<path d="M157.578 41.8027C158.218 41.7832 158.858 41.7636 159.502 41.7441C159.527 47.0162 159.493 52.2884 159.517 57.5606C158.916 57.5704 158.316 57.5801 157.715 57.5899C157.7 56.3048 157.705 55.0247 157.705 53.7396C157.705 52.4448 157.705 51.1451 157.695 49.8502C157.7 48.873 157.69 47.9006 157.686 46.9234C157.705 45.2181 157.769 43.5031 157.578 41.8027Z" fill="#525253"/>
<path d="M162.117 41.7636C164.193 41.8515 166.483 41.402 168.334 42.5942C170.234 43.8353 170.356 46.6155 169.462 48.5114C168.378 50.4512 165.863 50.5489 163.905 50.6124C163.919 52.9382 163.914 55.264 163.91 57.5899C163.455 57.5801 162.552 57.5605 162.098 57.5508C162.137 52.2884 162.098 47.026 162.117 41.7636ZM163.91 43.6203C163.949 45.2376 163.831 46.8598 163.963 48.4772C164.422 49.3909 165.56 48.7948 166.332 48.7264C168.295 48.4381 168.71 45.6725 167.538 44.3435C166.639 43.2881 165.121 43.6692 163.91 43.6203Z" fill="#525253"/>
<path d="M60.8223 53.6712C61.9406 53.6223 63.059 53.6565 64.1774 53.6516C64.3043 54.9025 64.5534 57.4091 64.6804 58.6599C64.9343 57.3602 65.4471 54.7608 65.706 53.4611C66.5215 53.637 65.9599 54.6728 66.1162 55.2054L66.3701 55.01C66.3653 55.8309 66.3653 56.6566 66.375 57.4824C65.4227 57.2478 64.3874 56.9351 63.5083 57.5557C63.5962 56.3048 63.5864 55.0491 63.5864 53.7982C63.2495 53.8715 62.5804 54.0181 62.2434 54.0963C62.2532 55.4253 62.3167 56.769 62.0871 58.0883C61.7355 56.7885 61.8723 55.4351 61.843 54.106C61.589 53.9985 61.0762 53.7835 60.8223 53.6712Z" fill="#525253"/>
</svg>
