<svg width="200" height="80" viewBox="0 0 200 80" fill="none" xmlns="http://www.w3.org/2000/svg">
<path d="M26 31.3294C28.6635 28.0932 31.7727 25.2155 34.8352 22.3586C36.8768 23.117 38.9237 23.865 40.9395 24.6857C41.1882 27.2206 41.0276 29.771 41.0586 32.3163C42.7169 32.3475 44.3699 32.3423 46.0281 32.3267C46.0385 29.8126 45.9245 27.2933 46.111 24.7792C47.0541 24.4364 47.9817 24.0624 48.8989 23.6728C50.0078 23.2572 51.1012 22.8209 52.1842 22.343C55.283 25.2051 58.3559 28.1556 61.1178 31.3501C59.9519 33.2357 59.8845 35.8433 58.2781 37.3653C55.8945 37.4848 53.5056 37.3913 51.1219 37.3964C51.2877 38.9859 50.5519 40.8403 51.1841 42.2428C53.3605 42.8662 55.8478 42.248 58.1382 42.5389C58.8896 42.6272 58.9829 43.4687 59.2679 44.0089C59.812 45.5932 60.496 47.1204 61.1075 48.6787C60.3613 49.5514 59.5684 50.3877 58.7445 51.1876C57.1848 52.7408 55.6561 54.3199 54.0652 55.8418C53.5937 56.3405 53.1221 56.8392 52.6558 57.343C50.9924 57.2184 49.4896 56.4548 47.9817 55.8055C47.3288 55.5406 46.6707 55.2756 46.0229 55.0003C46.0074 52.4758 46.0177 49.9462 46.0126 47.4165C44.3647 47.4113 42.7169 47.4113 41.069 47.4217C41.0483 49.9306 41.126 52.4447 41.0016 54.9536C39.1413 55.6808 37.3484 56.5898 35.457 57.2391C34.4569 57.5664 33.8558 56.6418 33.234 56.0652C30.8555 53.5615 28.2852 51.25 26.0052 48.6528C26.8187 46.6685 27.5079 44.6427 28.2904 42.648C30.8969 42.2584 33.5604 42.7675 36.1566 42.248C36.1151 40.643 36.1255 39.0379 36.1358 37.438C33.6381 37.3861 31.1405 37.4432 28.6428 37.3913C27.5857 35.4485 27.0001 33.298 26 31.3294ZM31.612 32.3059C33.1199 32.3475 34.6331 32.3475 36.141 32.3163C36.1255 30.8359 36.1306 29.3503 36.1099 27.8699C34.602 29.3399 33.1407 30.8515 31.612 32.3059ZM50.9095 32.3111C52.4329 32.3475 53.9564 32.3475 55.4799 32.3163C53.9253 30.8203 52.407 29.288 50.8991 27.7452C50.9354 29.2672 50.9302 30.7891 50.9095 32.3111ZM41.069 37.4276C41.0794 38.9652 41.0172 40.5027 41.0897 42.0403C42.4422 43.0584 44.4476 42.2896 46.0385 42.2896C46.0074 40.6689 46.0126 39.0431 46.0177 37.4224C44.3699 37.412 42.7169 37.4068 41.069 37.4276ZM31.6379 47.4113C33.1044 48.9333 34.6123 50.4085 36.1203 51.8889C36.1306 50.4033 36.1306 48.9125 36.1306 47.4217C34.6331 47.4113 33.1355 47.4113 31.6379 47.4113ZM51.1426 47.3957C51.096 48.9281 50.9302 50.45 50.868 51.9824C52.3915 50.4864 53.9357 49.0112 55.3763 47.4321C53.9668 47.4061 52.5573 47.4113 51.1426 47.3957Z" fill="#525253"/>
<path d="M66.9922 31.319C71.5885 31.0904 76.2108 31.2047 80.8123 31.267C80.6828 32.4773 80.4859 33.6825 80.2579 34.8824C78.7499 34.9135 77.2368 34.9083 75.7289 34.9083C75.6719 39.5262 75.8533 44.144 75.6253 48.7515C74.4386 48.7619 73.2468 48.7619 72.0601 48.7463C71.7803 44.144 72.0083 39.521 71.9357 34.9083C70.4019 34.9083 68.868 34.9187 67.3342 34.872C67.2306 33.6825 67.0906 32.5033 66.9922 31.319Z" fill="#525253"/>
<path d="M84.6491 30.8618C85.4212 30.8151 86.1985 30.7787 86.981 30.7476C87.0224 32.8877 87.0121 35.0226 86.9913 37.1575C88.3801 36.4458 89.8569 35.8589 91.4582 35.9991C92.5464 36.6692 93.9558 37.2198 94.1476 38.6742C94.4274 41.9571 94.2201 45.266 94.2564 48.5592C93.0438 48.5696 91.8364 48.5644 90.6291 48.5384C90.5306 45.775 90.629 43.0116 90.5513 40.2482C90.256 40.0404 89.6652 39.6248 89.3698 39.4119C88.5926 39.6664 87.8205 39.9469 87.0483 40.217C86.9654 42.8921 87.0069 45.5672 87.0173 48.2424C86.8463 48.3722 86.5043 48.6319 86.3332 48.767C85.3487 48.7618 84.3589 48.7618 83.3744 48.7618C83.1878 47.7125 82.9702 46.6373 83.1982 45.5724C83.2863 43.9933 83.25 42.4142 83.1153 40.8455C83.3433 38.4093 83.2034 35.9576 83.2396 33.5162C83.1567 32.8097 83.0738 32.1033 82.9961 31.4021C83.5506 31.2254 84.0998 31.0436 84.6491 30.8618Z" fill="#525253"/>
<path d="M116.649 31.2774C117.856 31.0021 119.069 30.7735 120.307 30.6748C120.411 34.1499 120.255 37.6301 120.395 41.1052C121.572 39.6612 122.432 38.0093 123.468 36.4718C124.727 36.4614 125.987 36.4562 127.246 36.5237C126.344 38.4249 124.893 39.9832 123.826 41.7857C125.142 43.6712 126.127 45.775 127.51 47.619C127.541 47.9982 127.567 48.3774 127.598 48.7618C126.272 48.7358 124.94 48.8605 123.629 48.6735C122.66 47.3177 121.929 45.8217 121.126 44.3673C120.841 43.9517 120.566 43.5258 120.302 43.0999C120.359 44.9231 120.349 46.7463 120.328 48.5644C119.105 48.5696 117.882 48.5644 116.664 48.5228C116.633 42.7726 116.659 37.0276 116.649 31.2774Z" fill="#525253"/>
<path d="M96.8622 34.1915C96.8052 33.1786 96.971 32.1865 97.5099 31.319C98.282 31.2775 99.0645 31.2515 99.8418 31.2411C100.334 32.1709 101.028 33.5318 100.059 34.4097C99.2044 35.5057 97.7846 34.7421 96.8622 34.1915Z" fill="#525253"/>
<path d="M109.42 36.0509C110.036 36.0406 110.658 36.0354 111.275 36.0198C112.949 36.6483 114.229 38.0092 114.223 39.8844C114.431 42.4661 114.291 45.0581 114.327 47.6501C114.187 48.0189 114.047 48.3929 113.907 48.7669C112.788 48.7513 111.669 48.8188 110.555 48.6786C110.192 45.8788 110.617 43.0322 110.342 40.2273C109.596 38.8144 107.86 39.9 106.782 40.2948C106.616 43.1102 106.793 45.9359 106.653 48.7513C105.471 48.7617 104.295 48.7617 103.119 48.7513C102.891 44.6789 102.948 40.5805 103.087 36.5029C104.29 36.6223 105.875 35.9522 106.699 37.1729C107.611 36.8041 108.513 36.4249 109.42 36.0509Z" fill="#525253"/>
<path d="M135.401 36.0199C137.069 35.8069 138.629 36.4926 139.8 37.6613C140.728 41.2403 140.36 45.0322 140.194 48.6787C139.049 48.8138 137.888 48.7566 136.738 48.7618C136.364 45.7179 137.126 42.5545 136.121 39.5989C134.96 39.5105 133.369 39.5313 132.846 40.7832C132.706 43.4427 132.924 46.1075 132.716 48.767C131.488 48.7722 130.239 48.8605 129.068 48.4398C129.136 44.4712 129.048 40.4975 129.115 36.529C130.063 36.4874 131.017 36.4666 131.97 36.4666C132.976 37.7496 134.307 36.3939 135.401 36.0199Z" fill="#525253"/>
<path d="M160.092 37.0899C161.522 36.5341 162.963 35.9108 164.538 35.9783C165.279 36.4822 166.015 36.9964 166.725 37.547C168.269 36.6432 169.969 35.8225 171.814 36.0251C172.518 36.4146 173.228 36.799 173.944 37.173C174.296 37.8483 174.643 38.5236 174.985 39.204C174.964 42.2272 175.042 45.2452 174.964 48.2631C174.151 49.25 172.643 48.58 171.524 48.7826C170.627 45.7958 171.467 42.6116 170.985 39.5521C169.839 39.3391 168.751 39.7079 167.736 40.1962C167.73 41.7961 167.704 43.4011 167.575 45.001C167.606 45.8945 167.689 46.7775 167.751 47.6709C167.622 47.9411 167.362 48.4865 167.233 48.7566C166.119 48.7566 165 48.8085 163.896 48.6994C163.606 45.8633 163.989 43.0012 163.699 40.165C162.916 38.7313 161.248 39.8689 160.175 40.2585C160.087 43.0895 160.232 45.9256 160.072 48.7514C158.859 48.7618 157.652 48.7618 156.439 48.7514C156.227 44.679 156.289 40.591 156.408 36.5185C157.641 36.5705 159.108 36.051 160.092 37.0899Z" fill="#525253"/>
<path d="M96.914 48.7566C96.686 44.679 96.7378 40.5806 96.8777 36.4977C98.0695 36.4666 99.2562 36.4666 100.448 36.4977C100.495 40.5806 100.536 44.6634 100.422 48.7462C99.251 48.7618 98.0799 48.7618 96.914 48.7566Z" fill="#525253"/>
<path d="M142.625 39.2871C142.713 38.347 142.324 37.1886 143.189 36.5081C144.195 36.4302 145.205 36.4614 146.216 36.4458C146.765 39.3287 146.185 42.2843 146.646 45.1724C147.076 45.3698 147.506 45.5672 147.941 45.7646C148.708 45.4321 149.584 45.2088 150.092 44.4816C150.232 41.8324 150.029 39.1781 150.211 36.5289C151.434 36.4666 152.662 36.4614 153.89 36.477C153.957 40.5702 153.994 44.6686 153.869 48.7618C152.543 48.6787 150.859 49.2293 150.097 47.7541C148.304 49.4786 144.402 49.6344 143.22 47.0944C142.36 44.5855 142.692 41.8947 142.625 39.2871Z" fill="#525253"/>
</svg>
