<svg width="200" height="80" viewBox="0 0 200 80" fill="none" xmlns="http://www.w3.org/2000/svg">
<path d="M70.5527 12H71.3998C71.557 14.3464 71.4435 16.6971 71.5046 19.0435C73.5395 17.5416 76.7315 17.0846 78.7663 18.791C80.8187 21.2854 80.7488 25.064 79.1375 27.763C78.5174 28.9166 77.2293 29.3998 76.1463 29.9962C74.0853 30.5011 71.8932 30.61 69.8584 29.9309C69.3824 29.7567 68.9021 29.5957 68.4174 29.4433C68.3999 24.5111 68.4348 19.5789 68.4086 14.6468C68.5484 13.6412 67.2733 13.3626 66.7188 12.7836C67.9982 12.5354 69.2863 12.3004 70.5527 12ZM73.0024 19.222C72.5133 19.4701 72.0199 19.6921 71.5133 19.8924C71.4347 22.8177 71.5264 25.7387 71.4609 28.6641C72.2295 29.896 73.6836 29.587 74.9149 29.6349C76.2293 28.8426 77.0022 27.5192 76.9673 25.9738C77.2773 24.9595 77.3341 23.8669 76.9105 22.8743C76.8494 22.2823 76.8101 21.6902 76.7708 21.0982C76.3079 20.4626 75.7359 19.9272 75.1769 19.383C74.4564 19.2481 73.7272 19.235 73.0024 19.222Z" fill="#525253"/>
<path d="M62.8534 12.7053C63.2464 12.7053 64.0412 12.6966 64.4385 12.6966C64.7573 13.1667 65.0979 13.6195 65.3599 14.1288C65.5607 15.0691 64.5739 15.5871 64.015 16.153C63.2421 16.3707 62.5827 15.7395 61.8928 15.5088C61.7356 14.4118 61.8753 13.3713 62.8534 12.7053Z" fill="#525253"/>
<path d="M139.461 13.5324C140.181 13.528 140.902 13.5237 141.627 13.5193C141.758 13.7849 142.029 14.3159 142.16 14.5815C142.181 15.1692 142.199 15.7612 142.234 16.3489C142.692 17.2979 142.531 18.3905 142.867 19.3744C143.063 20.8588 143.173 22.3476 143.749 23.7668L144.229 20.6716C144.273 21.3681 144.295 22.069 144.395 22.7612C144.5 21.6337 144.452 20.4975 144.504 19.3657C145.107 17.459 145.111 15.413 145.762 13.515C146.465 13.5237 147.172 13.5237 147.884 13.5237C147.906 13.7892 147.954 14.3247 147.98 14.5945C148.299 15.4391 148.343 16.3489 148.627 17.2065C148.714 17.9291 148.758 18.6648 149.033 19.3526C149.107 20.5672 149.461 21.7382 149.854 22.8874C150.028 22.4434 150.199 22.0037 150.378 21.5597C150.543 20.7152 150.592 19.8576 150.688 19.0044C151.085 18.1772 150.993 17.25 151.076 16.362C151.6 15.487 151.028 14.2376 151.862 13.5454C152.626 13.515 153.395 13.515 154.163 13.5411C154.098 14.2028 153.967 14.847 153.77 15.4783C153.644 16.2096 153.535 16.9409 153.395 17.6679C153.137 19.5616 152.736 21.4291 152.404 23.3053C152.238 24.7941 151.867 26.2394 151.692 27.7238C151.373 28.5509 151.391 29.4521 151.203 30.3096C150.443 30.4228 149.67 30.4402 148.919 30.3009C148.644 28.8208 148.465 27.3103 148.02 25.8694C147.884 24.0584 147.391 22.3084 147.172 20.5106C147.028 20.4888 146.749 20.4496 146.605 20.4322C146.334 21.6555 146.055 22.8787 145.893 24.1194C145.714 24.8377 145.644 25.569 145.548 26.296C145.207 26.9925 145.255 27.7761 145.177 28.5205C144.954 29.1256 144.806 29.7481 144.731 30.388C144.042 30.388 143.352 30.388 142.662 30.3924C142.19 29.3998 142.229 28.281 141.893 27.2493C141.727 25.9129 141.395 24.6069 141.125 23.2879C141.002 22.5653 140.906 21.8339 140.719 21.12C140.347 18.5821 139.496 16.1095 139.461 13.5324Z" fill="#525253"/>
<path d="M35.2969 13.5585C39.7858 13.5542 44.2791 13.5977 48.768 13.5455C48.6327 15.4914 49.3837 17.3676 49.1174 19.3048C48.0475 17.89 47.458 16.2009 46.4974 14.7208C45.6241 14.7165 44.7464 14.7034 43.873 14.6904C43.8818 19.5485 43.8425 24.4067 43.8949 29.2606C44.5237 29.4216 45.1525 29.5696 45.79 29.7046C45.7682 29.7917 45.7245 29.9614 45.7027 30.0485C43.1438 29.9266 40.5762 30.1181 38.0217 29.9135C38.3667 29.8047 39.061 29.5914 39.4103 29.4826C39.6505 29.352 40.1352 29.0951 40.3753 28.9645C40.4015 24.2065 40.3884 19.4528 40.3841 14.6947C39.4583 14.7078 38.537 14.7252 37.6113 14.7557C36.7641 16.0529 36.1572 17.4764 35.5939 18.9173C35.4454 18.8956 35.1485 18.8564 35 18.839V14.2899C35.0742 14.107 35.2227 13.7414 35.2969 13.5585Z" fill="#525253"/>
<path d="M97.7572 13.8371C97.9319 13.8327 98.2812 13.8284 98.4603 13.824C98.4253 31.5024 98.4472 49.1765 98.4472 66.8549C98.4996 67.5165 98.29 68.0955 97.8184 68.5874C97.7834 67.7864 97.7572 66.9854 97.7441 66.1801L97.9843 66.1757C97.9843 65.8623 97.9843 65.2311 97.9843 64.9133L97.7572 64.9003C97.8926 60.6211 97.5651 56.3114 97.945 52.0496C97.5782 48.5844 97.8751 45.0757 97.7791 41.5975C97.8489 39.5689 97.6088 37.5186 97.945 35.5074C97.862 34.9197 97.7965 34.332 97.7529 33.7443C97.7529 33.4265 97.7572 32.7866 97.7616 32.4688C97.8096 32.1423 97.9101 31.4894 97.9625 31.1629C97.7878 30.3009 97.7616 29.4172 97.7703 28.5379C97.8795 25.495 97.5826 22.4303 97.9406 19.4005C97.6306 17.5634 97.8446 15.6916 97.7572 13.8371Z" fill="#525253"/>
<path d="M106.164 13.5324C107.282 13.528 108.4 13.528 109.518 13.515C109.872 14.2768 109.928 15.1126 109.985 15.9397C110.26 16.7755 110.313 17.6679 110.627 18.495C110.701 19.2438 110.771 19.9925 110.946 20.7239C111.081 21.4465 111.203 22.1691 111.382 22.8831C111.727 24.6069 112.037 26.3352 112.282 28.0764C112.618 28.8034 112.583 29.6088 112.605 30.388C111.902 30.3836 111.203 30.3836 110.505 30.3836C110.361 30.253 110.072 29.9919 109.928 29.8613C109.928 28.7338 109.968 27.5758 109.461 26.5354C108.47 26.5485 107.479 26.5528 106.487 26.5485C106.169 27.8283 105.942 29.1343 105.527 30.388C104.811 30.388 104.09 30.388 103.374 30.4054C103.261 30.2922 103.033 30.0702 102.92 29.957C103.876 26.9315 104.033 23.7145 104.841 20.6499C104.968 19.9272 105.06 19.1959 105.212 18.4776C105.409 17.4807 105.588 16.4751 105.736 15.4695C105.915 14.834 106.06 14.1853 106.164 13.5324ZM107.675 17.8203C107.177 19.0305 107.418 20.393 106.88 21.5815C106.832 22.4826 106.811 23.388 106.802 24.2935C107.435 24.2979 108.068 24.3022 108.701 24.3066C108.793 22.8004 108.579 21.3072 108.313 19.8271C108.156 19.148 108.042 18.4646 107.959 17.7767C107.885 17.7855 107.745 17.8072 107.675 17.8203Z" fill="#525253"/>
<path d="M119.126 13.5541C119.973 13.5323 120.816 13.5236 121.663 13.4975C122.034 14.3072 122.396 15.1212 122.719 15.9527C122.899 16.5186 123.06 17.0932 123.243 17.6635C123.405 18.0684 123.575 18.4689 123.754 18.865C123.837 19.087 124.003 19.5354 124.086 19.7574C124.405 20.7238 124.746 21.6902 125.174 22.6175C125.322 19.6051 125.174 16.5926 125.261 13.5802C126.143 13.541 127.025 13.5236 127.911 13.5149C127.925 19.013 127.942 24.5155 127.903 30.0136C127.051 30.0092 126.2 30.0049 125.353 30.0005C125.226 29.5347 125.095 29.0733 124.96 28.6118C124.462 27.4234 124.043 26.2045 123.68 24.9682C123.396 24.2804 123.139 23.5795 122.881 22.8787C122.545 21.9253 122.204 20.9676 121.842 20.023C121.671 23.4751 121.859 26.9315 121.746 30.388C120.872 30.3836 120.008 30.3792 119.139 30.3749C119.1 24.768 119.126 19.161 119.126 13.5541Z" fill="#525253"/>
<path d="M130.324 27.2406C130.385 22.6828 130.228 18.1163 130.407 13.5628C132.914 13.4888 135.425 13.5498 137.931 13.5193C137.935 14.4117 137.935 15.3041 137.935 16.1922C136.411 16.1878 134.892 16.1922 133.368 16.1791C133.355 17.5982 133.346 19.013 133.39 20.4278C134.547 20.4191 135.704 20.4191 136.866 20.4322C136.861 21.1853 136.861 21.934 136.861 22.6828C135.695 22.6959 134.534 22.6959 133.372 22.6915C133.35 24.3196 133.368 25.9434 133.346 27.5715C134.997 27.7717 136.66 27.763 138.32 27.7412C138.315 28.6249 138.307 29.5086 138.298 30.3923C135.708 30.3357 133.115 30.462 130.53 30.3314C130.211 29.3345 130.359 28.268 130.324 27.2406Z" fill="#525253"/>
<path d="M60.2383 18.0858C61.9937 18.0727 63.7229 17.6374 65.4826 17.842C64.7578 18.7997 64.9586 20.0099 64.9412 21.1287C64.9499 23.6144 64.9455 26.1044 64.9412 28.5901C65.0809 28.8252 65.356 29.2997 65.4957 29.5391C65.9237 29.6044 66.3472 29.674 66.7752 29.7481C66.618 29.9091 66.3036 30.2356 66.1464 30.401C64.2556 30.3575 62.3605 30.3706 60.4697 30.3923C60.4522 30.2182 60.4217 29.8699 60.4042 29.6958C60.9238 29.5957 61.8889 29.5783 61.8583 28.8382C61.8627 25.7039 61.9587 22.5565 61.8146 19.4266C61.295 18.9695 60.7361 18.5603 60.2383 18.0858Z" fill="#525253"/>
<path d="M51.5714 18.0989C52.5146 17.7462 53.5321 17.7724 54.5233 17.7506C54.5277 18.1511 54.5408 18.9564 54.5495 19.3569C55.8901 18.1467 57.6498 17.4067 59.462 17.903C59.5973 18.3905 59.7327 18.8737 59.8768 19.3613C59.6192 20.6368 58.545 21.1069 57.3223 20.8501C57.0123 20.2711 56.6892 19.6965 56.3748 19.1219C55.5888 19.5833 54.2569 19.9403 54.5364 21.1287C54.7373 23.9409 54.0954 26.8793 54.9338 29.6C55.2394 29.5957 55.8464 29.587 56.1521 29.5826C56.139 29.7829 56.1215 30.1877 56.1128 30.388C54.0954 30.3706 52.0736 30.3662 50.0562 30.3923C50.03 30.2008 49.9864 29.8133 49.9645 29.6218C50.3095 29.6 50.9994 29.5565 51.3487 29.5347C51.6413 26.444 51.4317 23.3227 51.4798 20.2232C51.5671 19.2263 50.3663 18.8911 49.8379 18.2382C50.2702 18.2033 51.1392 18.1337 51.5714 18.0989Z" fill="#525253"/>
<path d="M82.8544 20.1797C84.3434 17.7463 87.4961 17.4067 90.055 17.9422C92.1728 18.9347 92.9588 21.3028 93.033 23.4882C90.3257 23.5056 87.6184 23.4794 84.9111 23.4969C84.9329 23.7668 84.9766 24.2979 85.0028 24.5634C85.2953 25.9782 85.684 27.4017 86.8586 28.3594C88.5572 29.0298 90.8235 29.1909 92.2776 27.898C92.461 28.1069 92.6488 28.3159 92.8322 28.5248C92.5964 28.6946 92.3606 28.8731 92.1291 29.0472C91.7012 29.3171 91.2733 29.587 90.8497 29.8613C90.4218 30.018 89.9939 30.1834 89.5703 30.3619C88.4 30.3967 87.2254 30.3923 86.0508 30.3793C85.8237 30.2705 85.3652 30.0528 85.1381 29.944C84.2823 29.4521 83.5574 28.786 82.8238 28.1417C81.7671 26.0087 81.4134 23.4011 82.409 21.1853C82.5662 20.8545 82.7147 20.5193 82.8544 20.1797ZM86.8717 18.3949C86.6534 18.5473 86.2254 18.852 86.0115 19.0043C85.4045 20.1492 85.0988 21.416 84.8456 22.6741C86.1337 22.661 87.4918 22.8918 88.7144 22.3607C89.0288 22.3302 89.6576 22.2736 89.972 22.2475C89.9196 21.4247 89.8585 20.602 89.7319 19.7879C89.4873 18.4123 88.0813 17.9639 86.8717 18.3949Z" fill="#525253"/>
<path d="M102.541 32.6124C103.462 32.6429 104.388 32.656 105.314 32.669C105.51 34.48 105.973 36.243 106.174 38.0496C106.44 38.7853 106.44 39.5689 106.506 40.3394C106.868 41.1708 106.851 42.0937 106.999 42.9774C107.606 41.7368 107.654 40.3655 107.881 39.0334C108.244 37.266 108.65 35.4943 108.759 33.6877C108.903 33.3394 109.043 32.9868 109.187 32.6385C109.938 32.6473 110.694 32.6516 111.449 32.6647C111.606 34.48 112.034 36.2561 112.3 38.0539C112.488 38.659 112.593 39.2859 112.715 39.9041C112.886 40.618 113.034 41.3363 113.156 42.0589C113.846 41.0359 113.846 39.7822 114.113 38.6242C114.344 36.6348 114.781 34.6715 114.899 32.669C115.754 32.6516 116.61 32.6429 117.471 32.6168C117.322 33.4004 117.244 34.1883 117.147 34.9762C116.802 35.8556 116.842 36.8263 116.536 37.7144C116.444 38.4457 116.444 39.2075 116.156 39.8997C115.868 42.22 115.37 44.5098 114.977 46.817C114.837 47.6615 114.663 48.4973 114.514 49.3375C113.755 49.3026 113.003 49.2722 112.248 49.2286C112.008 47.6876 111.702 46.1596 111.344 44.6447C111.191 43.9177 111.087 43.1864 110.973 42.455C110.777 41.7281 110.707 40.9793 110.646 40.2349C110.44 39.6559 110.253 39.0726 110.078 38.4849C109.929 39.2424 109.842 40.0085 109.624 40.7486C109.532 41.4886 109.501 42.2417 109.239 42.9513C109.108 43.6696 109.004 44.3966 108.846 45.1105C108.628 46.5166 108.414 47.927 108.104 49.3201C107.371 49.307 106.641 49.2896 105.908 49.2722C105.611 48.1882 105.406 47.0825 105.235 45.9724C105.091 45.2454 104.978 44.5141 104.842 43.7871C104.454 42.3723 104.179 40.9271 104.078 39.46C103.576 37.9364 103.484 36.317 103.065 34.7716C103.013 34.0229 102.969 33.2611 102.541 32.6124Z" fill="#525253"/>
<path d="M119.438 32.6429C121.905 32.6516 124.372 32.6472 126.843 32.6472C126.843 33.409 126.843 34.1709 126.848 34.9327C125.293 34.9327 123.739 34.9283 122.188 34.9283C122.175 36.4781 122.175 38.0235 122.188 39.5732C123.472 39.5732 124.756 39.5732 126.04 39.5645C126.04 40.3176 126.04 41.0751 126.044 41.8282C124.756 41.8238 123.468 41.8238 122.184 41.8282C122.18 43.4606 122.18 45.0974 122.18 46.7299C123.848 46.7516 125.52 46.6776 127.193 46.7691C127.258 47.6179 127.245 48.4668 127.263 49.3157C124.656 49.2722 122.049 49.2634 119.442 49.3244C119.433 43.7653 119.442 38.2019 119.438 32.6429Z" fill="#525253"/>
<path d="M132.338 32.6429C133.395 32.6473 134.452 32.6473 135.508 32.6385C135.635 32.8997 135.893 33.4265 136.019 33.6877C136.054 35.294 136.342 36.8916 136.779 38.4327C136.923 40.3655 137.403 42.2461 137.635 44.1659C137.866 44.8841 137.94 45.6372 138.045 46.3816C138.382 47.261 138.307 48.2143 138.338 49.1372C137.46 49.1329 136.587 49.1242 135.713 49.1067C135.657 47.9793 135.652 46.8474 135.6 45.7199C134.495 45.6546 133.386 45.6546 132.281 45.6459C132.194 46.325 132.15 47.0259 131.81 47.6441C131.784 48.1403 131.766 48.641 131.753 49.1416C130.836 49.1329 129.919 49.1285 129.002 49.1111C129.129 48.6366 129.26 48.1621 129.426 47.6963C129.508 46.978 129.565 46.251 129.814 45.5632C129.897 44.8188 129.923 44.0614 130.212 43.3562C130.356 42.3506 130.539 41.3493 130.74 40.3524C130.884 39.6211 130.98 38.8811 131.107 38.1497C131.456 36.8263 131.735 35.4768 131.849 34.1143C132.028 33.6267 132.194 33.1392 132.338 32.6429ZM133.587 37.0309C133.513 37.4358 133.356 38.2455 133.281 38.6503C132.98 39.4383 132.962 40.2871 132.866 41.1143C132.609 41.7193 132.591 42.381 132.53 43.0253C133.334 43.0253 134.141 43.0166 134.945 43.0079C134.836 42.6683 134.617 41.9892 134.508 41.654C134.478 40.7616 134.39 39.8779 134.211 39.0073C134.015 38.3456 133.814 37.6839 133.587 37.0309Z" fill="#525253"/>
<path d="M140.328 32.6603C141.21 32.6603 142.092 32.6603 142.974 32.6603C142.974 37.3531 142.974 42.0459 142.974 46.7386C144.48 46.7299 145.991 46.7343 147.502 46.7256C147.524 47.5919 147.541 48.4581 147.563 49.3288C145.148 49.2548 142.729 49.2896 140.314 49.2983C140.328 43.7523 140.306 38.2063 140.328 32.6603Z" fill="#525253"/>
<path d="M157.132 32.6429C158.084 32.6473 159.031 32.6516 159.983 32.656C159.935 34.6454 160.031 36.6348 159.844 38.6155C159.948 38.8549 160.158 39.3381 160.263 39.5776C161.189 39.5732 162.119 39.5689 163.049 39.5558C163.036 37.2573 163.014 34.9632 163.057 32.6647C164.04 32.6516 165.018 32.6429 166.001 32.6385V49.1329C165.009 49.1285 164.018 49.1285 163.027 49.1372C163.009 46.6994 163.127 44.2529 162.931 41.8238C161.953 41.8195 160.975 41.8238 160.001 41.8412C159.874 44.2747 160.093 46.7212 159.791 49.1459C158.905 49.1329 158.018 49.1285 157.136 49.1198C157.128 43.6304 157.132 38.1367 157.132 32.6429Z" fill="#525253"/>
<path d="M146.877 32.6472C149.668 32.6472 152.462 32.6516 155.257 32.6429C155.257 33.409 155.257 34.1709 155.257 34.937C154.366 34.9327 153.475 34.9283 152.589 34.9196C152.554 39.6559 152.589 44.3922 152.567 49.1285C151.689 49.1285 150.812 49.1285 149.934 49.1372C149.93 44.71 149.916 40.2828 149.943 35.8556C149.816 35.6205 149.563 35.159 149.436 34.9283C148.576 34.9283 147.711 34.9327 146.855 34.9414C146.86 34.1752 146.869 33.4134 146.877 32.6472Z" fill="#525253"/>
<path d="M104.201 54.6963C104.271 53.4338 105.406 52.6677 106.205 51.8406C108.48 50.9525 111.362 51.5184 112.568 53.7908C112.603 57.4257 112.576 61.0607 112.589 64.6912C112.764 66.5457 111.074 67.8734 109.572 68.5917H107.14C106.197 68.0867 105.393 67.3772 104.598 66.6719C103.97 65.0656 104.197 63.3243 104.166 61.644C104.205 59.3281 104.105 57.0078 104.201 54.6963ZM107.336 53.9954C107.096 54.631 106.76 55.2578 106.83 55.9587C106.83 58.588 106.839 61.213 106.83 63.8424C106.712 64.5911 107.066 65.2397 107.415 65.871C108.223 65.8666 109.035 65.8492 109.843 65.7752C109.948 62.0358 109.926 58.292 109.86 54.5526C109.358 53.6471 108.175 54.0868 107.336 53.9954Z" fill="#525253"/>
<path d="M126.436 51.784C128.393 51.8188 130.358 51.723 132.314 51.8232C133.785 52.289 134.798 53.6428 135.244 55.0663C135.165 58.4139 135.449 61.779 135.087 65.1092C134.659 66.0582 134.205 67.0376 133.27 67.5861C132.685 67.8038 132.104 68.0302 131.532 68.2696C129.842 68.2696 128.148 68.2652 126.458 68.2739C126.406 62.7802 126.449 57.2821 126.436 51.784ZM129.117 54.0476C129.122 57.996 129.113 61.9444 129.122 65.8927C129.886 65.871 130.655 65.9058 131.414 65.797C132.24 65.1222 132.384 64.0209 132.489 63.0327C132.515 60.8212 132.51 58.6055 132.475 56.394C132.296 55.8063 132.192 55.2013 132.096 54.5918C131.864 54.4525 131.401 54.1695 131.174 54.0302C130.489 54.0389 129.803 54.0433 129.117 54.0476Z" fill="#525253"/>
<path d="M137.475 51.8058C139.934 51.771 142.392 51.8014 144.851 51.7797C144.851 52.5371 144.851 53.2946 144.851 54.052C143.34 54.039 141.829 54.0433 140.318 54.039C140.314 55.5191 140.318 57.0035 140.314 58.488C141.405 58.4793 142.493 58.4749 143.584 58.4314C143.637 58.6795 143.742 59.1845 143.794 59.437C143.72 59.9463 143.65 60.4556 143.589 60.9649C142.497 60.9432 141.405 60.9388 140.314 60.9301C140.318 62.58 140.318 64.2298 140.314 65.8797C141.956 65.871 143.598 65.8754 145.239 65.871C145.248 66.672 145.248 67.473 145.239 68.274C142.567 68.2653 139.899 68.2653 137.227 68.274C137.751 62.802 137.362 57.2908 137.475 51.8058Z" fill="#525253"/>
<path d="M147.116 51.8058C149.347 51.8188 151.591 51.6708 153.818 51.9233C154.438 52.3586 155.01 52.8593 155.587 53.3555C156.115 55.0707 156.089 56.8599 156.058 58.636C155.574 59.5023 155.111 60.5078 154.045 60.756C154.229 61.2131 154.404 61.6745 154.565 62.1403C154.884 63.1154 155.19 64.0949 155.534 65.0613C155.897 66.1017 156.246 67.1552 156.417 68.2479C155.574 68.2609 154.731 68.2783 153.893 68.3001C153.128 66.5414 152.683 64.6695 152.111 62.8455C151.936 62.3449 151.784 61.8443 151.653 61.335C151.142 61.3524 150.639 61.3741 150.133 61.4003C150.067 63.69 150.081 65.9798 150.129 68.2696C149.203 68.2653 148.281 68.274 147.36 68.3001C147.006 67.1247 147.124 65.8884 147.116 64.6826C147.12 60.3903 147.12 56.098 147.116 51.8058ZM150.198 54.0694C150.225 55.6845 150.12 57.3126 150.26 58.9276C150.897 59.0539 151.539 59.1409 152.19 59.1888C152.596 58.7361 153.325 58.4009 153.255 57.687C153.259 56.3984 153.626 54.8138 152.316 54.0085C151.609 54.0303 150.901 54.052 150.198 54.0694Z" fill="#525253"/>
<path d="M114.985 51.784C117.137 51.8449 119.303 51.6534 121.447 51.9276C122.465 52.3847 123.107 53.2771 123.539 54.274C123.967 55.5539 123.744 56.9208 123.783 58.2441C123.395 58.9363 123.05 59.6546 122.753 60.3903C122.487 60.4599 121.958 60.5992 121.696 60.6689C121.91 61.1477 122.111 61.6353 122.299 62.1316C122.491 62.6888 122.67 63.2547 122.88 63.8075C122.98 64.2385 123.085 64.6651 123.198 65.0917C123.369 65.5009 123.543 65.9101 123.722 66.315C123.84 66.759 124.072 67.6427 124.185 68.0867C123.229 68.0998 122.268 68.0998 121.312 68.078C121.094 67.1987 120.858 66.328 120.6 65.4618C120.447 65.0526 120.299 64.6434 120.159 64.2298C119.897 63.2547 119.622 62.2839 119.386 61.3044C118.832 61.3523 118.277 61.4002 117.727 61.4568C117.705 63.7292 117.688 66.0016 117.749 68.2739C116.836 68.2696 115.928 68.2696 115.015 68.2826C114.91 64.7609 115.05 61.2391 114.945 57.7174C114.954 56.9861 114.954 56.2547 114.945 55.5234C114.972 54.274 114.998 53.029 114.985 51.784ZM117.888 54.0694C117.893 55.6583 117.902 57.2473 117.875 58.8405C118.513 58.9537 119.15 59.0712 119.792 59.1801C120.015 59.0277 120.465 58.7273 120.687 58.5793C121.098 57.0731 121.22 55.3754 120.281 54.0302C119.482 54.0389 118.688 54.0476 117.888 54.0694Z" fill="#525253"/>
</svg>
