<svg width="200" height="80" viewBox="0 0 200 80" fill="none" xmlns="http://www.w3.org/2000/svg">
<path d="M35.3711 18.4045C37.5267 18.1729 39.7093 18.4611 41.8636 18.1904C45.052 18.1864 48.2404 18.1958 51.4287 18.1851C52.2743 18.2443 53.1185 18.3359 53.9668 18.3507C52.4467 19.3686 50.8498 20.3097 49.5303 21.5942C48.3871 22.5448 47.3558 23.6826 46.731 25.0438C46.6906 25.0411 46.6085 25.0331 46.5667 25.029C44.6696 22.4102 41.7761 20.7002 38.8139 19.5355C37.7152 19.0131 36.49 18.8664 35.3711 18.4045Z" fill="#D0D1D3"/>
<path d="M53.3444 21.7491C54.2398 21.9322 55.0531 22.3671 55.9283 22.6189C56.6203 22.8235 57.2195 23.2396 57.8941 23.4887C58.5188 23.7512 59.1463 24.0434 59.6619 24.4931C59.1341 24.7813 58.5969 25.0546 58.0341 25.2633C57.2343 25.5568 56.5315 26.0873 55.694 26.2799C55.3399 26.3755 55.0423 26.1062 54.7717 25.9217C54.3179 25.5622 53.8211 25.2633 53.3256 24.9657C52.5527 24.45 51.6614 24.1484 50.8926 23.6247C51.6897 22.973 52.5393 22.3913 53.3444 21.7491Z" fill="#D0D1D3"/>
<path d="M60.0457 27.0123C60.7916 26.8171 61.4769 26.4401 62.2282 26.2623C62.4652 26.1923 62.6753 26.3499 62.8476 26.4926C64.5643 27.9077 66.2016 29.4628 67.4471 31.3196C66.5167 31.5189 65.5593 31.5121 64.6222 31.6589C63.9059 31.7801 63.1277 31.6777 62.48 32.0695C61.5833 31.2469 60.4159 30.7823 59.2311 30.5723C58.7706 29.5396 57.8846 28.8112 57.2168 27.9252C58.1755 27.6707 59.0843 27.2628 60.0457 27.0123Z" fill="#D0D1D3"/>
<path d="M32.3233 27.8592C33.0598 27.7488 33.8139 27.7946 34.5423 27.6196C34.7267 28.6819 34.7375 29.7658 34.9395 30.8241C33.9296 31.0355 32.9279 31.2819 31.9329 31.5512C31.9329 31.1432 31.8938 30.7366 31.8656 30.3286C30.5285 30.3259 29.1929 30.33 27.8559 30.3219C27.6283 30.3515 27.32 30.2667 27.184 30.5077C27.118 30.9937 27.1584 31.4865 27.1517 31.9753C26.3667 31.4165 25.5763 30.8658 24.8008 30.2949C25.2693 29.7981 25.9978 29.6985 26.5835 29.3861C27.499 28.9135 28.5223 28.7371 29.4931 28.4167C30.4087 28.107 31.3728 28.0033 32.3233 27.8592Z" fill="#D0D1D3"/>
<path d="M38.1999 28.5015C38.2551 28.2551 38.2255 27.9185 38.4746 27.7758C39.8574 27.8552 41.127 28.4517 42.3227 29.106C42.8572 29.444 43.3392 29.8574 43.7674 30.3205C42.4789 30.3569 41.189 30.2721 39.9031 30.3757C39.9031 30.4633 39.9031 30.6369 39.9031 30.7245C39.2326 30.715 38.5607 30.7002 37.8916 30.6787C37.8565 29.9354 38.1514 29.2366 38.1999 28.5015Z" fill="#D0D1D3"/>
<path d="M20.4877 33.3729C20.6236 33.2517 20.7852 33.0767 20.9885 33.1709C22.0374 33.4173 23.054 33.7755 24.0894 34.0703C24.8999 34.2642 25.6957 34.512 26.4887 34.7665C26.5709 34.7947 26.8038 34.8809 26.6772 34.9994C25.5597 36.4616 24.9269 38.2847 24.9565 40.1307C23.5697 40.3623 22.1626 40.4417 20.7839 40.7231C19.2705 40.9318 17.753 41.1109 16.241 41.3263C16.206 41.2886 16.1346 41.2119 16.0996 41.1742C16.2329 40.1186 16.7217 39.1639 17.1 38.1851C17.951 36.4078 19.0847 34.7624 20.4877 33.3729Z" fill="#D0D1D3"/>
<path d="M64.0788 34.2939C64.9634 34.1458 65.8803 34.2522 66.7784 34.2118C66.33 35.639 66.4068 37.2211 66.9831 38.5985C67.6199 40.0728 69.035 41.0086 70.473 41.593C70.5242 41.7936 70.5296 42.001 70.5404 42.2083C69.0862 41.9404 67.7007 41.4139 66.256 41.1096C65.3512 40.9049 64.4679 40.6182 63.5645 40.4041C64.5999 38.6093 64.6914 36.3647 64.0559 34.4191L64.0788 34.2939Z" fill="#D0D1D3"/>
<path d="M20.2999 44.1107C21.9735 43.6704 23.5758 43.0013 25.2683 42.6296C25.6049 43.3715 25.8634 44.1565 26.3252 44.8351C26.647 45.3131 26.9338 45.8382 27.4239 46.1694C27.6245 46.9167 27.9315 47.6397 28.388 48.2685C25.7234 50.4969 22.9847 52.635 20.3039 54.8445C20.1545 55.0021 19.8771 54.9657 19.7896 54.7611C19.1918 53.8738 18.392 53.1305 17.9005 52.1705C17.3162 51.1593 16.8059 50.1051 16.3885 49.0131C16.0734 47.9279 15.8944 46.8036 15.7812 45.6807L15.8647 45.5851C17.3081 44.9926 18.8404 44.6601 20.2999 44.1107Z" fill="#D0D1D3"/>
<path d="M58.8628 43.3258C59.6545 43.1831 60.4503 43.0027 61.1666 42.627C62.2006 43.0013 63.1701 43.5318 64.2082 43.8967C64.7279 44.0812 65.214 44.3437 65.7135 44.578C65.7014 46.4832 66.5941 48.3952 68.1115 49.5598C66.9792 51.3573 65.5667 52.9596 64.048 54.4393C63.8608 54.5767 63.6898 54.8285 63.4313 54.8015C62.9775 54.5242 62.6517 54.0879 62.2532 53.7432C61.584 53.1535 60.966 52.5085 60.2847 51.935C59.4404 51.2119 58.7012 50.3798 57.8759 49.6393C56.8809 48.8328 56.0313 47.8687 55.043 47.0555C55.6125 46.5384 56.2979 46.1641 56.8149 45.5865C57.5043 44.8406 58.3431 44.2131 58.8628 43.3258Z" fill="#D0D1D3"/>
<path d="M47.326 50.4848C47.6545 50.3744 47.9844 50.2613 48.317 50.1603C48.3264 50.3892 48.3399 50.6181 48.3533 50.847C49.961 50.8753 51.5686 50.8713 53.1763 50.8497C53.1803 50.6208 53.1857 50.3919 53.1898 50.163C53.4011 50.6235 53.7283 51.0113 54.0326 51.4098C55.3791 53.3487 56.7699 55.2539 58.1272 57.1861C58.3291 57.5025 58.6805 57.7812 58.6644 58.1892C58.1824 58.6119 57.5697 58.8314 57.0015 59.1101C55.8315 59.6972 54.6103 60.1779 53.3877 60.6437C52.3226 60.9494 51.3074 61.4206 50.2128 61.6185C49.6877 61.7236 49.1747 61.8784 48.6576 62.0104C47.5576 62.2729 46.432 62.4049 45.3077 62.5059C45.2269 61.1096 44.8405 59.7537 44.718 58.3615C44.5254 56.7054 44.2952 55.0533 44.108 53.3958C44.038 52.6459 43.7606 51.9269 43.7781 51.1661C44.9522 50.9022 46.1735 50.8551 47.326 50.4848Z" fill="#D0D1D3"/>
<path d="M30.9254 50.3475C33.1241 51.391 35.6217 51.3627 37.9969 51.2065C38.6405 51.3034 39.2921 51.3169 39.9344 51.4246C39.9613 51.9659 39.8267 52.4883 39.7095 53.0121C39.4201 55.402 39.1535 57.7946 38.8949 60.1886C38.7401 61.0342 38.6795 61.8959 38.4654 62.7293C37.9834 62.7455 37.5 62.759 37.022 62.6916C35.3592 62.4749 33.6546 62.3914 32.0618 61.8232C30.2252 61.3856 28.4533 60.7016 26.7595 59.8735C25.9745 59.5517 25.2474 59.1115 24.5352 58.6537C25.3875 57.3786 26.439 56.2557 27.3263 55.0075C28.0682 54.1242 28.7724 53.2114 29.4874 52.3065C29.9505 51.6414 30.5214 51.0544 30.9254 50.3475Z" fill="#D0D1D3"/>
<path opacity="0.7" d="M70.812 30.4943C72.2715 30.0055 73.8509 29.813 75.3764 30.054C77.4944 30.2088 79.6231 31.2523 80.746 33.1063C81.3708 34.1768 81.8353 35.398 81.8299 36.6515C80.2451 36.6502 78.6617 36.6771 77.0783 36.6367C76.9369 35.7938 76.6596 34.92 76.0133 34.3249C75.0842 33.4537 73.587 33.3366 72.4735 33.9102C71.6104 34.3235 71.3169 35.4518 71.6158 36.3122C71.838 36.9666 72.3981 37.4378 72.9999 37.7368C74.4164 38.449 76.0187 38.6227 77.4944 39.168C78.8691 39.6716 80.2344 40.3973 81.1365 41.5849C82.11 42.8667 82.4223 44.5753 82.1706 46.1466C81.9228 47.7045 80.9103 49.0724 79.5975 49.9126C78.2632 50.7555 76.6905 51.2119 75.1166 51.2577C72.701 51.3681 70.093 51.0665 68.111 49.5598C66.5936 48.3952 65.7009 46.4832 65.713 44.578C67.291 44.78 68.8906 44.5551 70.4727 44.6938C70.6868 45.157 70.7958 45.6713 71.0867 46.0982C71.6751 47.0016 72.7064 47.5685 73.7701 47.6654C74.7517 47.7758 75.8436 47.6129 76.5896 46.9168C77.4432 46.1816 77.3813 44.7315 76.5963 43.9694C75.8975 43.2693 74.924 42.9596 73.9963 42.6943C72.8074 42.3793 71.6131 42.0683 70.4767 41.593C69.0387 41.0086 67.6236 40.0728 66.9867 38.5985C66.4105 37.2211 66.3337 35.639 66.7821 34.2118C67.4176 32.4062 69.0293 31.0867 70.812 30.4943Z" fill="#525253"/>
<path opacity="0.7" d="M83.2539 30.4068C83.4599 30.3758 83.6659 30.3435 83.8746 30.3287C89.6172 30.3246 95.3598 30.3314 101.101 30.326C101.294 30.3098 101.634 30.3435 101.579 30.6249C101.574 31.7909 101.596 32.9569 101.557 34.1229C99.2994 34.1081 97.0428 34.1041 94.7862 34.1243C94.8023 39.6999 94.801 45.2769 94.7862 50.8525C93.2122 50.87 91.6382 50.874 90.0642 50.8498C90.0548 45.2742 90.0561 39.6985 90.0629 34.1229C87.8076 34.1 85.5509 34.1176 83.2943 34.1149C83.2229 32.8788 83.2876 31.6414 83.2539 30.4068Z" fill="#525253"/>
<path opacity="0.7" d="M103.68 31.5782C103.663 31.1621 103.698 30.7461 103.733 30.3314C106.268 30.3206 108.804 30.3327 111.34 30.326C112.335 30.3044 113.322 30.4633 114.317 30.4822C115.811 30.6397 117.362 31.0504 118.511 32.0669C119.617 33.0458 120.114 34.5727 120.045 36.0228C120.095 37.2386 119.679 38.4706 118.879 39.3916C118.192 40.155 117.274 40.672 116.31 41.0046C116.82 41.3426 117.376 41.6361 117.784 42.1033C118.249 42.6284 118.583 43.2626 118.779 43.9345C119.182 45.4492 119.189 47.0393 119.648 48.5406C119.835 49.3646 120.25 50.1038 120.654 50.8363C118.898 50.878 117.139 50.8875 115.384 50.8309C115.048 49.7268 114.7 48.616 114.568 47.4635C114.412 46.3378 114.321 45.1516 113.721 44.1539C113.368 43.5426 112.755 43.0566 112.039 42.9812C110.883 42.8115 109.707 42.8506 108.542 42.9004C108.54 45.5448 108.551 48.1892 108.537 50.8336C106.924 50.8888 105.308 50.874 103.694 50.8403C103.668 44.4192 103.695 37.9993 103.68 31.5782ZM108.53 34.1243C108.564 35.8639 108.524 37.6048 108.552 39.3444C109.647 39.3552 110.744 39.3714 111.839 39.3364C112.695 39.2663 113.628 39.1586 114.305 38.5743C115.101 37.866 115.187 36.6596 114.891 35.6956C114.639 34.9793 113.966 34.5053 113.244 34.3491C111.698 33.995 110.102 34.1337 108.53 34.1243Z" fill="#525253"/>
<path opacity="0.7" d="M123.348 30.3771C124.145 30.2909 124.947 30.338 125.746 30.3273C129.473 30.3259 133.2 30.33 136.927 30.3259C137.404 30.3098 137.884 30.3178 138.356 30.4134C138.346 31.64 138.364 32.8667 138.345 34.0933C134.959 34.1471 131.57 34.0852 128.183 34.1242C128.206 35.6457 128.191 37.1658 128.191 38.6873C130.925 38.6765 133.658 38.69 136.391 38.6806C136.817 38.6604 137.244 38.6927 137.666 38.7546C137.674 39.9853 137.677 41.2173 137.665 42.4493C134.509 42.5435 131.349 42.4668 128.19 42.4883C128.2 44.0152 128.194 45.542 128.193 47.0689C131.653 47.0985 135.112 47.0595 138.572 47.0891C138.63 48.3426 138.579 49.5989 138.603 50.8538C133.518 50.8632 128.432 50.8834 123.348 50.8443C123.259 48.6416 123.332 46.4361 123.309 44.2333C123.309 40.1899 123.308 36.1479 123.311 32.1046C123.3 31.5283 123.307 30.952 123.348 30.3771Z" fill="#525253"/>
<path opacity="0.7" d="M146.947 30.3933C147.73 30.2735 148.523 30.3435 149.312 30.3273C150.391 30.3367 151.472 30.3112 152.551 30.3354C152.748 30.3044 152.883 30.4822 152.942 30.6464C155.239 37.0986 157.539 43.5494 159.842 50.0002C159.936 50.2789 160.018 50.563 160.103 50.8457C158.379 50.8848 156.657 50.8565 154.934 50.8605C154.446 49.4468 154.005 48.0169 153.546 46.5937C153.387 46.1318 153.282 45.6458 153.05 45.2136C152.754 45.1207 152.436 45.1584 152.133 45.1543C150.274 45.2338 148.413 45.1759 146.555 45.192C145.965 47.0757 145.347 48.954 144.709 50.8201C143.008 50.913 141.297 50.8565 139.594 50.8444C142.012 44.0166 144.522 37.2197 146.947 30.3933ZM149.486 35.9312C148.949 37.7462 148.303 39.5289 147.83 41.3614C149.164 41.3641 150.497 41.3856 151.832 41.3479C151.247 39.1748 150.512 37.0434 149.874 34.8837C149.723 35.2243 149.586 35.5717 149.486 35.9312Z" fill="#525253"/>
<path opacity="0.7" d="M162.157 30.4188C162.803 30.2694 163.467 30.338 164.124 30.3286C165.931 30.3273 167.738 30.3259 169.546 30.3299C169.979 31.5754 170.218 32.8814 170.579 34.1498C171.415 37.4257 172.262 40.6989 173.101 43.9748C173.289 44.6009 173.358 45.27 173.684 45.8477C174.988 40.6922 176.327 35.5447 177.645 30.3932C178.34 30.2828 179.045 30.3367 179.747 30.3286C181.435 30.3232 183.125 30.3353 184.813 30.3219C184.952 31.0462 184.871 31.7841 184.89 32.5152C184.883 38.6281 184.903 44.7396 184.879 50.8524C183.286 50.8712 181.692 50.8712 180.099 50.8524C180.114 46.8548 180.091 42.8559 180.111 38.8583C180.106 37.9454 180.172 37.0298 180.091 36.1183C179.55 38.865 178.698 41.5391 177.954 44.236C177.32 46.4374 176.72 48.6496 176.072 50.847C174.373 50.8699 172.672 50.8834 170.973 50.8403C169.833 46.6084 168.467 42.4371 167.419 38.1797C167.296 37.7488 167.281 37.2762 167.043 36.8871C166.943 38.1191 167.048 39.3578 167.017 40.5939C167.009 44.0111 167.031 47.4297 167.007 50.8484C165.392 50.8605 163.776 50.9009 162.165 50.8255C162.145 44.0232 162.161 37.221 162.157 30.4188Z" fill="#525253"/>
<path d="M27.185 30.5077C27.3209 30.2667 27.6293 30.3515 27.8568 30.3219C29.1938 30.33 30.5295 30.3259 31.8665 30.3286C31.8948 30.7366 31.9339 31.1432 31.9339 31.5512C31.9163 35.6875 31.9285 39.8224 31.9285 43.9587C31.9756 45.056 32.3486 46.2288 33.2507 46.9208C34.1932 47.6452 35.4561 47.7839 36.6047 47.6506C37.667 47.5752 38.7388 47.0326 39.28 46.0901C39.824 45.2122 39.8105 44.1485 39.9048 43.1548C39.9102 39.0118 39.9102 34.8675 39.9048 30.7245C39.9048 30.637 39.9048 30.4633 39.9048 30.3758C41.1906 30.2721 42.4805 30.3569 43.7691 30.3206C44.0747 30.3044 44.3777 30.3556 44.6739 30.4296C44.6685 34.7167 44.6766 39.0038 44.6698 43.2908C44.6927 44.0623 44.5729 44.8231 44.4746 45.5852C44.2215 47.2857 43.2426 48.8785 41.7925 49.8143C40.6844 50.6249 39.3231 50.9534 37.9982 51.2065C35.6231 51.3627 33.1255 51.391 30.9267 50.3475C29.9277 49.8803 29.0148 49.1855 28.39 48.2686C27.9336 47.6398 27.6266 46.9168 27.426 46.1695C27.123 45.1906 27.2105 44.1579 27.1621 43.1481C27.1459 39.4238 27.1621 35.6996 27.1526 31.9753C27.1594 31.4866 27.119 30.9938 27.185 30.5077Z" fill="#525253"/>
<path d="M48.3105 30.4418C48.9703 30.2304 49.6718 30.361 50.3518 30.3273C53.3126 30.3623 56.2882 30.1954 59.2329 30.5724C60.4177 30.7824 61.5851 31.2469 62.4818 32.0696C63.2035 32.6957 63.7367 33.5224 64.0599 34.4191C64.6954 36.3647 64.6038 38.6093 63.5684 40.4041C63.0123 41.3641 62.156 42.1316 61.1664 42.627C60.4501 43.0027 59.6543 43.1831 58.8626 43.3258C56.9843 43.5036 55.0899 43.4295 53.2049 43.4645C53.1874 45.6969 53.2102 47.9307 53.1927 50.1631C53.1887 50.392 53.1833 50.6209 53.1793 50.8498C51.5716 50.8713 49.964 50.8753 48.3563 50.8471C48.3429 50.6182 48.3294 50.3893 48.32 50.1604C48.3025 43.5884 48.32 37.0151 48.3105 30.4418ZM53.2035 34.1687C53.1927 35.9864 53.2008 37.8041 53.1995 39.6218C54.3601 39.6245 55.5221 39.6299 56.6827 39.6124C57.2038 39.6164 57.7181 39.4885 58.1975 39.2892C58.8397 38.9795 59.2463 38.3198 59.3729 37.6331C59.5224 36.6987 59.4241 35.6229 58.728 34.916C58.1153 34.3195 57.2132 34.232 56.404 34.1741C55.3376 34.1458 54.2699 34.1552 53.2035 34.1687Z" fill="#525253"/>
<path d="M65.6412 56.7161C66.9648 56.7161 68.287 56.7161 69.6105 56.7161C69.6092 56.9544 69.6092 57.1914 69.6105 57.4311C69.0935 57.4297 68.5765 57.4297 68.0608 57.4311C68.0608 58.7762 68.0608 60.1213 68.0608 61.4677C67.7699 61.4677 67.4805 61.4677 67.191 61.4677C67.191 60.1213 67.191 58.7762 67.191 57.4311C66.6739 57.4297 66.1569 57.4297 65.6412 57.4297C65.6412 57.1914 65.6399 56.9544 65.6412 56.7161Z" fill="#525253"/>
<path d="M70.1387 56.7161C70.4187 56.7161 70.7001 56.7161 70.9815 56.7161C70.9775 57.3463 70.9923 57.975 70.9681 58.6038C71.3761 58.1164 72.0991 57.9495 72.6686 58.2416C73.0591 58.4328 73.1911 58.896 73.2086 59.2999C73.2489 60.0216 73.2153 60.7447 73.2261 61.4677C72.9447 61.4677 72.6632 61.4677 72.3832 61.4677C72.3522 60.6827 72.4519 59.8856 72.3239 59.1088C72.1018 58.5109 71.1175 58.7479 71.0246 59.3282C70.9304 60.0364 71.0031 60.7554 70.9815 61.4677C70.7001 61.4677 70.4187 61.4677 70.1387 61.4677C70.1387 59.8843 70.1387 58.3009 70.1387 56.7161Z" fill="#525253"/>
<path d="M83.7227 56.7161C84.0485 56.7161 84.373 56.7161 84.7002 56.7161C84.6328 57.3705 84.5642 58.0235 84.4982 58.6779C84.3582 58.6779 84.0781 58.6779 83.9381 58.6779C83.8667 58.0235 83.794 57.3705 83.7227 56.7161Z" fill="#525253"/>
<path d="M96.0254 56.7175C96.3055 56.7161 96.5855 56.7161 96.8683 56.7161C96.8642 57.3503 96.879 57.9858 96.8548 58.62C97.3166 57.9952 98.2982 57.9212 98.8596 58.449C99.5248 59.098 99.5369 60.2627 99.0037 60.9965C98.4867 61.6939 97.3301 61.6818 96.836 60.9615C96.844 61.1298 96.8535 61.2981 96.8615 61.4664C96.5815 61.4664 96.3028 61.4677 96.0254 61.4677C96.0254 59.8843 96.0254 58.3009 96.0254 56.7175ZM97.2574 58.8704C96.5869 59.3592 96.735 60.8874 97.7233 60.8591C98.4988 60.8389 98.6631 59.8708 98.4557 59.2824C98.3143 58.787 97.6734 58.6106 97.2574 58.8704Z" fill="#525253"/>
<path d="M133.893 56.7161C134.173 56.7161 134.453 56.7161 134.735 56.7175C134.733 57.3463 134.742 57.975 134.727 58.6038C135.045 58.2578 135.504 58.0141 135.986 58.1164C136.486 58.1258 136.891 58.554 136.933 59.0414C137.028 59.8453 136.958 60.6585 136.98 61.4677C136.697 61.4677 136.417 61.4677 136.137 61.4677C136.116 60.7097 136.182 59.9476 136.099 59.1936C135.967 58.5082 134.873 58.7075 134.78 59.3228C134.683 60.0324 134.757 60.7528 134.735 61.4677C134.454 61.4677 134.173 61.4677 133.893 61.4677C133.893 59.8843 133.893 58.3009 133.893 56.7161Z" fill="#525253"/>
<path d="M149.713 56.7161C149.993 56.7161 150.273 56.7161 150.556 56.7161C150.552 57.3463 150.567 57.975 150.542 58.6038C150.872 58.2403 151.357 58.0101 151.856 58.1218C152.334 58.1501 152.705 58.5675 152.752 59.032C152.849 59.8399 152.78 60.6558 152.8 61.4677C152.518 61.4677 152.236 61.4677 151.957 61.4677C151.937 60.711 152.002 59.9489 151.92 59.1949C151.883 58.8448 151.478 58.6914 151.174 58.7856C150.799 58.8381 150.553 59.2165 150.565 59.5787C150.538 60.2074 150.562 60.8376 150.556 61.4677C150.273 61.4677 149.993 61.4677 149.713 61.4677C149.713 59.8843 149.713 58.3009 149.713 56.7161Z" fill="#525253"/>
<path d="M103.894 57.1887C104.174 57.1874 104.455 57.1874 104.736 57.1874C104.736 57.5159 104.736 57.8444 104.738 58.173C105.026 58.1716 105.315 58.1716 105.606 58.173C105.605 58.383 105.605 58.5944 105.606 58.8058C105.315 58.8045 105.026 58.8045 104.738 58.8058C104.754 59.374 104.689 59.9503 104.782 60.5158C104.881 60.913 105.34 60.8766 105.663 60.8941C105.644 61.1001 105.631 61.3075 105.616 61.5162C105.037 61.5189 104.28 61.4933 104.019 60.8672C103.805 60.2034 103.923 59.4911 103.895 58.8058C103.682 58.8045 103.471 58.8045 103.261 58.8058C103.259 58.5931 103.259 58.383 103.261 58.1716C103.471 58.1716 103.682 58.1716 103.894 58.173C103.894 57.8444 103.894 57.5159 103.894 57.1887Z" fill="#525253"/>
<path d="M106.352 57.1874C106.631 57.1874 106.912 57.1874 107.194 57.1887C107.194 57.5159 107.192 57.8431 107.194 58.1716C107.482 58.1716 107.772 58.1716 108.063 58.1716C108.062 58.383 108.062 58.5944 108.063 58.8058C107.772 58.8045 107.483 58.8058 107.195 58.8058C107.211 59.3727 107.146 59.9476 107.238 60.5104C107.331 60.9103 107.797 60.8793 108.117 60.8941C108.101 61.1001 108.088 61.3075 108.073 61.5148C107.48 61.5283 106.694 61.4798 106.458 60.8214C106.275 60.1671 106.375 59.4763 106.352 58.8058C106.139 58.8045 105.928 58.8045 105.718 58.8058C105.716 58.5931 105.716 58.383 105.718 58.1716C105.928 58.1716 106.139 58.1716 106.351 58.173C106.351 57.8444 106.351 57.5159 106.352 57.1874Z" fill="#525253"/>
<path d="M131.63 57.1887C131.911 57.1874 132.191 57.1874 132.473 57.1874C132.473 57.5159 132.473 57.8444 132.475 58.173C132.763 58.1716 133.052 58.1716 133.343 58.173C133.342 58.383 133.342 58.5944 133.343 58.8058C133.052 58.8045 132.763 58.8058 132.475 58.8058C132.491 59.3753 132.426 59.953 132.52 60.5185C132.62 60.913 133.077 60.8766 133.4 60.8941C133.381 61.1001 133.366 61.3075 133.353 61.5162C132.77 61.5189 132.01 61.492 131.753 60.8591C131.544 60.1967 131.659 59.4884 131.632 58.8058C131.419 58.8045 131.206 58.8045 130.998 58.8058C130.995 58.5931 130.996 58.383 130.998 58.1716C131.208 58.1716 131.419 58.1716 131.63 58.173C131.629 57.8444 131.63 57.5159 131.63 57.1887Z" fill="#525253"/>
<path d="M147.452 57.1874C147.732 57.1874 148.014 57.1874 148.295 57.1887C148.295 57.5159 148.294 57.8444 148.295 58.173C148.583 58.1716 148.874 58.1716 149.165 58.1716C149.164 58.383 149.162 58.5931 149.165 58.8058C148.874 58.8045 148.585 58.8045 148.296 58.8058C148.319 59.3821 148.234 59.9705 148.35 60.5387C148.459 60.9184 148.91 60.8726 149.219 60.8968C149.203 61.1015 149.188 61.3061 149.176 61.5121C148.605 61.5175 147.852 61.5027 147.591 60.8861C147.347 60.2249 147.49 59.4952 147.454 58.8058C147.239 58.8045 147.029 58.8045 146.819 58.8058C146.818 58.5944 146.818 58.383 146.819 58.173C147.029 58.1716 147.239 58.1716 147.452 58.1716C147.451 57.8431 147.452 57.5159 147.452 57.1874Z" fill="#525253"/>
<path d="M74.1415 58.8502C74.571 58.0679 75.7411 57.8458 76.4332 58.4019C76.8815 58.791 76.9462 59.4103 76.9879 59.9651C76.2258 59.9785 75.4637 59.9678 74.703 59.9732C74.7986 60.2626 74.8646 60.6235 75.1769 60.7595C75.6724 61.0018 76.2352 60.7904 76.6796 60.5333C76.759 60.7312 76.8398 60.9278 76.9206 61.1257C76.2272 61.5646 75.2766 61.6885 74.567 61.224C73.817 60.7124 73.7282 59.6029 74.1415 58.8502ZM74.6922 59.5113C75.2187 59.5234 75.7465 59.5234 76.2743 59.514C76.2124 59.1236 75.9983 58.6496 75.5243 58.6913C75.0396 58.6483 74.804 59.1195 74.6922 59.5113Z" fill="#525253"/>
<path d="M78.4714 58.7197C78.7447 58.2457 79.282 58.099 79.7949 58.0693C79.8125 58.3063 79.8313 58.5446 79.8501 58.7829C79.3937 58.8435 78.7447 58.8382 78.5764 59.374C78.462 60.0648 78.5481 60.7703 78.5226 61.4678C78.2412 61.4678 77.9597 61.4678 77.6797 61.4678C77.6797 60.3691 77.6797 59.2704 77.6797 58.1717C77.949 58.1717 78.2183 58.1717 78.4876 58.173C78.4835 58.3103 78.4754 58.5837 78.4714 58.7197Z" fill="#525253"/>
<path d="M80.3038 58.8502C80.7481 58.0329 82.0165 57.8242 82.6803 58.4826C83.064 58.8812 83.1031 59.4467 83.1461 59.9677C82.3854 59.9772 81.6247 59.9677 80.8639 59.9731C80.9555 60.268 81.0295 60.6342 81.3513 60.7675C81.8482 60.9978 82.4016 60.7864 82.8459 60.5319C82.9213 60.7325 82.9967 60.9345 83.0721 61.1378C82.3827 61.5565 81.4523 61.6858 80.7468 61.2361C79.9793 60.7339 79.8878 59.6082 80.3038 58.8502ZM81.0874 58.9727C80.9811 59.1397 80.9286 59.3322 80.8612 59.5153C81.385 59.5221 81.9088 59.5207 82.4339 59.5167C82.3733 59.3228 82.3423 59.1141 82.2333 58.9404C81.9586 58.5876 81.346 58.6132 81.0874 58.9727Z" fill="#525253"/>
<path d="M85.8274 58.3184C86.4993 57.9226 87.3449 58.0922 87.9723 58.4975C87.8929 58.686 87.8161 58.8758 87.7394 59.067C87.3179 58.8354 86.8036 58.581 86.3243 58.7856C86.0832 58.8772 86.0752 59.203 86.2717 59.3457C86.7538 59.5598 87.3354 59.5369 87.7636 59.8789C88.1972 60.2479 88.0867 61.0234 87.5913 61.29C86.8574 61.6791 85.9297 61.5418 85.2363 61.1244C85.3131 60.9224 85.3925 60.7232 85.4733 60.5239C85.8894 60.7568 86.3566 60.9251 86.8413 60.8901C87.0352 60.8753 87.2829 60.7662 87.2721 60.5347C87.2385 60.2492 86.9369 60.2048 86.7147 60.1442C86.3108 60.0338 85.8395 59.992 85.546 59.6595C85.204 59.2475 85.3589 58.5648 85.8274 58.3184Z" fill="#525253"/>
<path d="M90.5394 58.4813C91.1763 58.1595 91.9343 57.9589 92.6304 58.2187C93.0182 58.3642 93.2565 58.7614 93.2834 59.1639C93.3615 59.9233 93.3009 60.6895 93.3211 61.4515C93.072 61.4623 92.8256 61.4798 92.5792 61.5027C92.5765 61.325 92.5752 61.1486 92.5698 60.9722C92.1915 61.5539 91.3526 61.6952 90.8073 61.2684C90.3213 60.9372 90.2499 60.0728 90.7966 59.7685C91.3365 59.4938 91.9653 59.549 92.5523 59.5086C92.4823 59.2582 92.5146 58.8893 92.213 58.7856C91.7175 58.6429 91.2207 58.8704 90.775 59.0697C90.6956 58.8718 90.6175 58.6765 90.5394 58.4813ZM91.3311 60.159C91.0403 60.4821 91.4226 61.0005 91.8212 60.9049C92.3167 60.8982 92.5267 60.3825 92.5496 59.9583C92.147 59.9974 91.6785 59.9072 91.3311 60.159Z" fill="#525253"/>
<path d="M100.088 58.9217C100.498 58.0599 101.793 57.8082 102.486 58.4625C102.881 58.8611 102.931 59.4374 102.974 59.9652C102.212 59.9786 101.449 59.9679 100.687 59.9732C100.782 60.26 100.85 60.6182 101.157 60.7569C101.653 61.0033 102.22 60.7919 102.665 60.5334C102.745 60.7313 102.824 60.9279 102.906 61.1258C102.212 61.5661 101.254 61.6899 100.545 61.2187C99.8216 60.7219 99.726 59.6649 100.088 58.9217ZM100.678 59.5114C101.204 59.5235 101.732 59.5235 102.26 59.5141C102.198 59.1223 101.983 58.6483 101.507 58.6914C101.025 58.651 100.788 59.1209 100.678 59.5114Z" fill="#525253"/>
<path d="M109.424 58.2093C110.043 57.9683 110.898 58.0922 111.231 58.7264C111.479 59.0926 111.473 59.5464 111.519 59.9705C110.758 59.9745 109.999 59.9691 109.239 59.9732C109.334 60.2438 109.382 60.5845 109.665 60.7312C110.16 61.014 110.76 60.8053 111.213 60.5333C111.294 60.7299 111.372 60.9251 111.454 61.1244C110.8 61.5418 109.923 61.6724 109.222 61.2967C108.077 60.6733 108.197 58.6725 109.424 58.2093ZM109.234 59.5127C109.758 59.5235 110.283 59.5221 110.809 59.5127C110.743 59.1424 110.564 58.6819 110.111 58.6927C109.614 58.624 109.326 59.094 109.234 59.5127Z" fill="#525253"/>
<path d="M113.001 58.7277C113.279 58.2551 113.81 58.0936 114.329 58.0693C114.346 58.3063 114.365 58.5433 114.385 58.7816C113.938 58.8462 113.305 58.8341 113.12 59.3471C112.989 60.0432 113.086 60.7622 113.058 61.4678C112.776 61.4678 112.495 61.4678 112.215 61.4678C112.215 60.3691 112.215 59.2704 112.215 58.1717C112.484 58.1717 112.753 58.1717 113.024 58.173C113.016 58.3575 113.009 58.5419 113.001 58.7277Z" fill="#525253"/>
<path d="M122.385 58.4826C123.034 58.1514 123.83 57.9414 124.529 58.247C124.941 58.4166 125.125 58.8785 125.143 59.2972C125.193 60.0189 125.152 60.7446 125.166 61.4677C124.894 61.4677 124.622 61.4677 124.352 61.4677C124.362 61.3505 124.382 61.1163 124.391 60.9991C124.002 61.5794 123.143 61.6871 122.615 61.2388C122.143 60.886 122.111 60.0068 122.688 59.7442C123.22 59.4965 123.825 59.549 124.395 59.5073C124.331 59.242 124.348 58.8408 124.009 58.7721C123.526 58.6604 123.052 58.8758 122.621 59.0683C122.54 58.8717 122.461 58.6765 122.385 58.4826ZM123.198 60.1387C122.85 60.4754 123.306 61.0557 123.734 60.8954C124.198 60.8483 124.359 60.3569 124.395 59.961C123.998 59.9933 123.551 59.9166 123.198 60.1387Z" fill="#525253"/>
<path d="M137.834 58.4813C138.464 58.1595 139.214 57.967 139.906 58.2107C140.308 58.3588 140.559 58.7695 140.58 59.1895C140.654 59.9462 140.596 60.7083 140.614 61.4677C140.342 61.4677 140.071 61.4664 139.803 61.4664C139.811 61.3492 139.828 61.115 139.834 60.9978C139.455 61.5768 138.605 61.6858 138.077 61.2496C137.621 60.913 137.551 60.0903 138.069 59.782C138.609 59.4898 139.249 59.5517 139.842 59.5087C139.782 59.2448 139.801 58.8489 139.465 58.7735C138.982 58.6577 138.503 58.8758 138.07 59.0684C137.99 58.8718 137.91 58.6766 137.834 58.4813ZM138.606 60.1765C138.324 60.5616 138.812 61.0571 139.224 60.8874C139.669 60.8241 139.801 60.3381 139.845 59.9597C139.434 60.0001 138.951 59.9005 138.606 60.1765Z" fill="#525253"/>
<path d="M141.467 58.1729C141.741 58.1716 142.016 58.1716 142.294 58.1729C142.291 58.2874 142.284 58.5176 142.281 58.6321C142.684 58.1097 143.45 57.9387 144.029 58.2591C144.398 58.457 144.511 58.9067 144.537 59.2945C144.577 60.0176 144.542 60.7433 144.554 61.4677C144.271 61.4677 143.99 61.4677 143.711 61.4677C143.688 60.7042 143.761 59.9368 143.67 59.1774C143.523 58.5082 142.444 58.7169 142.354 59.3255C142.254 60.0337 142.331 60.7541 142.31 61.4677C142.027 61.4677 141.747 61.4677 141.467 61.4677C141.467 60.369 141.467 59.2703 141.467 58.1729Z" fill="#525253"/>
<path d="M154.438 58.7224C154.718 58.2524 155.251 58.0963 155.767 58.0707C155.784 58.3077 155.803 58.5446 155.823 58.7816C155.379 58.8489 154.753 58.8301 154.563 59.3377C154.422 60.0351 154.525 60.7582 154.497 61.4664C154.213 61.4664 153.933 61.4677 153.653 61.4677C153.653 60.3691 153.652 59.2704 153.653 58.1717C153.921 58.1717 154.192 58.1717 154.462 58.173C154.451 58.3548 154.447 58.5392 154.438 58.7224Z" fill="#525253"/>
<path d="M157.174 58.1784C157.891 57.9643 158.803 58.1622 159.185 58.857C159.608 59.6393 159.474 60.8039 158.664 61.2846C158.092 61.5983 157.343 61.5956 156.785 61.2563C155.685 60.5589 155.862 58.5311 157.174 58.1784ZM157.412 58.8085C156.612 59.203 156.738 60.8995 157.769 60.8591C158.565 60.8551 158.699 59.8655 158.495 59.2757C158.368 58.8233 157.824 58.6335 157.412 58.8085Z" fill="#525253"/>
<path d="M168.836 58.4826C169.484 58.1514 170.276 57.9454 170.975 58.2443C171.391 58.4153 171.576 58.8785 171.595 59.3026C171.644 60.023 171.603 60.746 171.617 61.4677C171.343 61.4677 171.073 61.4677 170.804 61.4677C170.813 61.3506 170.832 61.1163 170.841 61.0005C170.453 61.5795 169.594 61.6872 169.067 61.2388C168.594 60.8874 168.562 60.0082 169.139 59.7443C169.67 59.4965 170.274 59.549 170.847 59.5073C170.782 59.2393 170.798 58.8341 170.453 58.7694C169.971 58.6631 169.5 58.8771 169.072 59.0683C168.991 58.8731 168.912 58.6765 168.836 58.4826ZM169.647 60.1401C169.301 60.4808 169.761 61.0557 170.191 60.8941C170.649 60.8456 170.81 60.3542 170.847 59.961C170.448 59.9947 170 59.9153 169.647 60.1401Z" fill="#525253"/>
<path d="M176.915 58.1716C177.187 58.1716 177.46 58.1716 177.736 58.173C177.307 59.2703 176.872 60.3663 176.446 61.465C176.199 61.4664 175.952 61.4677 175.709 61.4691C175.438 60.7635 175.174 60.058 174.901 59.3552C174.63 60.0566 174.374 60.7635 174.112 61.4677C173.867 61.4677 173.623 61.4677 173.383 61.4677C172.95 60.369 172.515 59.2703 172.084 58.173C172.368 58.1716 172.658 58.1716 172.946 58.173C173.226 58.9364 173.506 59.6985 173.787 60.4619C174.07 59.6985 174.349 58.9351 174.63 58.1716C174.829 58.1716 175.033 58.1716 175.239 58.173C175.516 58.9404 175.797 59.7079 176.079 60.474C176.359 59.7079 176.635 58.9391 176.915 58.1716Z" fill="#525253"/>
<path d="M178.226 58.4813C178.778 58.208 179.4 58.0101 180.022 58.1393C180.485 58.1891 180.889 58.5661 180.95 59.0334C181.064 59.8385 180.984 60.6572 181.007 61.4677C180.735 61.4677 180.464 61.4664 180.196 61.4664C180.204 61.3492 180.22 61.115 180.227 60.9978C179.847 61.5768 178.999 61.6858 178.47 61.2496C178.011 60.913 177.943 60.0836 178.468 59.7779C179.007 59.4898 179.644 59.5517 180.235 59.5086C180.174 59.2447 180.192 58.8475 179.857 58.7735C179.373 58.6577 178.894 58.8772 178.462 59.067C178.381 58.8718 178.303 58.6765 178.226 58.4813ZM179.175 60.0634C178.891 60.1374 178.845 60.5225 179.023 60.7218C179.241 60.9951 179.683 60.9466 179.932 60.7366C180.165 60.5481 180.169 60.2276 180.239 59.9597C179.882 59.9786 179.515 59.9476 179.175 60.0634Z" fill="#525253"/>
<path d="M116.238 58.173C116.525 58.1716 116.813 58.1716 117.101 58.1716C117.383 58.9351 117.66 59.6985 117.943 60.4606C118.226 59.6985 118.504 58.9364 118.784 58.173C118.985 58.1716 119.188 58.1716 119.393 58.1716C119.673 58.9391 119.952 59.7079 120.235 60.474C120.515 59.7066 120.792 58.9404 121.069 58.173C121.343 58.1716 121.616 58.1716 121.892 58.173C121.461 59.2717 121.03 60.369 120.599 61.4677C120.352 61.4677 120.107 61.4664 119.863 61.4664C119.595 60.7595 119.324 60.0526 119.055 59.3444C118.794 60.0499 118.529 60.7528 118.274 61.461C118.028 61.465 117.783 61.4677 117.54 61.4704C117.105 60.3717 116.672 59.2717 116.238 58.173Z" fill="#525253"/>
<path d="M125.553 58.1796C125.849 58.1783 126.145 58.1783 126.443 58.1783C126.752 58.9538 127.062 59.7294 127.373 60.5036C127.691 59.7294 128.01 58.9538 128.328 58.1796C128.604 58.1783 128.88 58.1783 129.157 58.1783C128.499 59.6782 127.836 61.1768 127.179 62.6781C126.895 62.6794 126.61 62.6794 126.328 62.6808C126.528 62.2338 126.727 61.7867 126.927 61.3397C126.468 60.2855 126.011 59.2325 125.553 58.1796Z" fill="#525253"/>
<path d="M159.73 58.173C160.015 58.1716 160.304 58.1716 160.592 58.1716C160.874 58.9351 161.151 59.6985 161.434 60.4606C161.716 59.6985 161.995 58.9351 162.275 58.173C162.476 58.1716 162.678 58.1716 162.884 58.1716C163.164 58.9404 163.444 59.7079 163.725 60.4754C164.004 59.7079 164.283 58.9404 164.56 58.173C164.833 58.1716 165.107 58.1716 165.383 58.173C164.952 59.2717 164.52 60.369 164.089 61.4677C163.842 61.4677 163.597 61.4664 163.354 61.4664C163.086 60.7595 162.815 60.0526 162.546 59.3444C162.283 60.0513 162.019 60.7568 161.761 61.465C161.516 61.4664 161.272 61.4677 161.03 61.4691C160.596 60.3704 160.163 59.2717 159.73 58.173Z" fill="#525253"/>
<path d="M181.395 58.1783C181.689 58.1783 181.987 58.1783 182.285 58.1783C182.593 58.9538 182.904 59.728 183.214 60.5036C183.533 59.7294 183.852 58.9538 184.171 58.1783C184.446 58.1783 184.719 58.1783 184.999 58.1783C184.338 59.6796 183.681 61.1822 183.017 62.6821C182.733 62.6808 182.449 62.6794 182.17 62.6781C182.369 62.2324 182.569 61.7854 182.769 61.3397C182.31 60.2855 181.852 59.2325 181.395 58.1783Z" fill="#525253"/>
<path d="M165.925 59.3309C166.594 59.3309 167.263 59.3309 167.934 59.3309C167.931 59.5531 167.931 59.7753 167.934 59.9988C167.263 59.9974 166.594 59.9974 165.925 59.9988C165.923 59.7753 165.923 59.5531 165.925 59.3309Z" fill="#525253"/>
</svg>
