<svg width="200" height="80" viewBox="0 0 200 80" fill="none" xmlns="http://www.w3.org/2000/svg">
<path d="M37.4492 19.0131C42.1607 18.9913 46.8723 19.0219 51.5838 19C52.1744 21.2168 52.6031 23.473 53.0843 25.716C53.5436 27.7492 53.9811 29.7823 54.4142 31.8199C54.8385 33.8574 55.3329 35.8818 55.7003 37.9325C55.9278 38.8463 56.1772 39.7557 56.4965 40.6433C56.8902 38.5358 57.6514 36.5289 58.2333 34.4695C59.8213 29.3188 61.3437 24.1463 62.9579 19.0044C68.4131 19.0262 73.8683 18.9738 79.3192 19.0306C81.2528 25.9696 83.4751 32.8255 85.4437 39.7514C85.5968 40.0487 85.7456 40.346 85.8943 40.6433C86.0605 39.1349 86.4105 37.6614 86.7386 36.1835C87.1586 34.1372 87.6135 32.0997 88.0423 30.0578C88.856 26.3762 89.5865 22.6728 90.4352 19C100.965 19 111.49 19.0525 122.016 19.0087C124.265 25.9608 126.277 32.9916 128.377 39.9918C130.695 33.066 132.581 26.0002 134.746 19.0262C140.915 19.035 147.083 19 153.251 19.0437C153.378 19.6952 153.505 20.3467 153.64 20.9938C156.283 31.7761 158.838 42.5803 161.449 53.3714C157.075 53.3714 152.696 53.367 148.316 53.3757C148.067 52.3089 147.818 51.2464 147.603 50.1751C147.175 48.1289 146.724 46.0913 146.295 44.0494C145.412 39.9263 144.532 35.8031 143.649 31.6843C141.431 38.8988 139.313 46.1482 137.126 53.3714C131.693 53.3714 126.259 53.3714 120.822 53.3714C120.091 51.0146 119.391 48.6448 118.661 46.2925C117.221 41.4347 115.668 36.612 114.282 31.7411C113.398 34.8149 112.904 37.9893 112.169 41.0981C111.727 43.1356 111.289 45.1688 110.843 47.2019C110.445 49.2089 109.929 51.1895 109.588 53.2052C108.839 53.3189 108.087 53.3801 107.335 53.3801C97.2028 53.3714 87.0711 53.3364 76.935 53.3626C74.8614 46.8172 72.9584 40.2148 71.0161 33.63C70.9067 33.2846 70.688 32.5938 70.5786 32.2483C68.4 39.2704 66.3833 46.3449 64.1741 53.3583C58.1108 53.3276 52.0431 53.3976 45.9798 53.3276C45.8748 53.2402 45.6648 53.074 45.5599 52.991C42.8301 41.6708 40.2053 30.3245 37.4492 19.0131Z" fill="#525253"/>
<path d="M45.5957 58.7012C46.2913 58.6925 46.9868 58.6881 47.6824 58.6837C47.9405 59.7025 48.1286 60.7344 48.3255 61.7706C48.7323 60.7606 49.0648 59.7243 49.3842 58.6881C50.2022 58.6881 51.0203 58.6925 51.8427 58.6925C52.1358 59.7637 52.4596 60.8174 52.7308 61.8974C52.9889 60.8306 53.2426 59.7637 53.457 58.6881C54.1351 58.6925 54.8175 58.7012 55.5 58.7143C54.9794 60.3671 54.6381 62.0679 54.1744 63.7338C53.2339 63.7207 52.2889 63.712 51.3484 63.6508C51.1428 62.6276 50.8409 61.6263 50.4997 60.6425C50.176 61.6526 49.9179 62.6845 49.6204 63.7032C48.6798 63.7163 47.7349 63.7163 46.7944 63.7163C46.3919 62.0461 46.02 60.3671 45.5957 58.7012Z" fill="#525253"/>
<path d="M57.8178 58.6882C58.7365 58.6882 59.6595 58.6882 60.5782 58.7013C61.4269 60.3803 62.2843 62.0506 63.1767 63.7034C62.0525 63.7077 60.7269 64.0269 60.0838 62.8464C59.3139 62.8333 58.544 62.8333 57.774 62.8245C57.6953 63.0388 57.5378 63.4629 57.459 63.6771C56.711 63.7034 55.9629 63.7121 55.2148 63.7165C56.0767 62.0375 56.9516 60.3629 57.8178 58.6882ZM58.1809 61.797C58.7583 61.7883 59.3402 61.7883 59.922 61.7839C59.6551 61.2155 59.397 60.6471 59.1477 60.0743C58.8152 60.6427 58.5002 61.2198 58.1809 61.797Z" fill="#525253"/>
<path d="M64.0745 58.9593C65.5751 58.3472 67.2899 58.5746 68.8473 58.8457C69.0398 59.1648 69.416 59.7988 69.6041 60.118C68.9173 60.1399 68.2349 60.1486 67.548 60.1443C67.1368 59.8644 66.7168 59.6021 66.2925 59.3485C65.9906 59.5409 65.6932 59.7376 65.4001 59.9344C66.6993 60.6165 68.3048 60.5859 69.4685 61.5216C69.5385 61.9675 69.5779 62.4223 69.5866 62.877C69.416 63.03 69.0704 63.3405 68.8954 63.4935C67.0143 64.0619 63.9652 64.5647 63.1777 62.1949C63.9083 62.1643 64.6345 62.1556 65.3651 62.1643C65.7588 62.5185 66.17 62.8464 66.5944 63.1612C66.9312 62.8945 67.2681 62.6365 67.6136 62.3829C66.5506 61.9326 65.4351 61.6134 64.302 61.3816C63.2784 60.9313 63.0202 59.5409 64.0745 58.9593Z" fill="#525253"/>
<path d="M76.5059 58.6969C78.1464 58.6838 79.7912 58.6882 81.4317 58.6882C81.4317 58.9462 81.4361 59.4577 81.4361 59.7113C80.5087 59.7113 79.5812 59.7113 78.6538 59.707L78.6276 60.6208C79.5156 60.6164 80.4037 60.6164 81.2917 60.6121C81.3049 60.9968 81.318 61.3816 81.3267 61.762C80.4299 61.7664 79.5331 61.7664 78.6363 61.7664V62.6889C79.6206 62.6889 80.6093 62.6977 81.598 62.7195C81.6023 62.9557 81.6111 63.4322 81.6155 63.6684C79.9137 63.7471 78.212 63.7165 76.5102 63.7077C76.5234 62.0375 76.5277 60.3672 76.5059 58.6969Z" fill="#525253"/>
<path d="M85.5527 58.6881C86.6464 58.6881 87.7401 58.6881 88.8337 58.6925C89.2012 59.8468 89.5468 61.0055 89.853 62.1729C90.2424 61.0186 90.5967 59.8468 90.9729 58.6837C92.0885 58.6881 93.204 58.6881 94.3196 58.7012C94.3108 60.3671 94.3152 62.033 94.3108 63.6945C93.624 63.7076 92.9372 63.7163 92.2547 63.7207C92.2591 62.479 92.2722 61.2328 92.2022 59.9911C91.721 61.2372 91.2967 62.5008 90.8111 63.7469C90.0674 63.7207 89.3281 63.6945 88.5888 63.6376C88.2388 62.3871 87.8494 61.1454 87.4513 59.908C87.3376 61.176 87.3507 62.4483 87.3682 63.7207C86.7601 63.7207 86.1564 63.7207 85.5527 63.7207C85.5615 62.0417 85.5659 60.3671 85.5527 58.6881Z" fill="#525253"/>
<path d="M97.3146 58.7319C98.2464 58.6882 99.1869 58.6839 100.123 58.6882C101.007 60.3585 101.838 62.055 102.748 63.7121C101.912 63.7121 101.072 63.7077 100.237 63.6946C100.184 63.5153 100.088 63.1612 100.036 62.9863C98.9551 63.1393 97.4327 62.5009 96.8115 63.699C96.1247 63.7077 95.4422 63.7121 94.7598 63.7165C95.6347 62.0681 96.5271 60.4284 97.3146 58.7319ZM98.5264 60.3104C98.2857 60.8001 98.0364 61.2898 97.7914 61.7795C98.3207 61.7926 98.8501 61.8057 99.3838 61.8189C99.2657 61.4079 99.1476 60.9968 99.0338 60.5858C98.907 60.5159 98.6532 60.3803 98.5264 60.3104Z" fill="#525253"/>
<path d="M108.106 58.7189C108.775 58.7058 109.44 58.6927 110.105 58.6883C110.097 60.2186 110.092 61.7533 110.092 63.288C110.245 63.2531 110.556 63.1918 110.709 63.1569C111.636 61.7621 112.38 60.2536 113.084 58.732C114.051 58.6839 115.022 58.6795 115.989 58.7408C116.536 59.9563 117.109 61.1631 117.87 62.2649L117.389 62.4748C117.936 62.5622 118.483 62.654 119.03 62.7502C117.516 61.609 118.592 58.8676 120.412 58.7145C121.956 58.4915 123.641 58.4347 125.023 59.2654C125.067 59.4972 125.159 59.9563 125.202 60.188C124.511 60.1749 123.824 60.1662 123.137 60.1443C122.473 59.5453 121.252 59.3048 120.727 60.2099C120.438 61.0363 120.412 62.1775 121.252 62.689C121.956 62.7371 123.321 63.2312 123.194 61.8976C122.853 61.8845 122.175 61.8583 121.834 61.8452C121.838 61.5872 121.843 61.0756 121.847 60.8176C123.019 60.8264 124.192 60.8351 125.364 60.8789C125.215 61.7227 125.644 62.8027 125.04 63.5067C122.766 64.1275 120.237 64.1844 118.198 62.8333C118.264 63.0825 118.395 63.5854 118.461 63.8346C117.774 63.8521 117.087 63.8477 116.4 63.8258C116.169 63.546 115.932 63.2706 115.701 62.9907C114.716 63.0869 113.531 62.6715 112.73 63.4454C111.895 63.992 110.657 64.333 109.878 63.4979L109.663 63.8827C108.74 63.7253 107.8 63.7559 106.872 63.6378C106.466 62.7896 106.05 61.9413 105.634 61.1018C105.433 60.7608 105.241 60.4197 105.053 60.0743C105.044 61.2899 105.053 62.501 105.057 63.7122C104.593 63.7122 103.666 63.7078 103.202 63.7078C103.202 62.0332 103.211 60.3629 103.193 58.6927C104.283 58.6839 105.376 58.6839 106.47 58.7145C106.785 59.3748 107.109 60.0306 107.441 60.6865C107.629 61.1543 107.822 61.6178 108.027 62.0813C108.115 60.9619 108.115 59.8426 108.106 58.7189ZM114.279 60.3454C114.043 60.8264 113.802 61.303 113.561 61.7796C114.091 61.7927 114.624 61.8058 115.154 61.8189C115.031 61.3861 114.909 60.9532 114.791 60.5203C114.664 60.4766 114.406 60.3891 114.279 60.3454Z" fill="#525253"/>
<path d="M126.4 58.7057C128.093 58.6794 129.79 58.6707 131.488 58.7232V59.6763C130.512 59.707 129.536 59.7157 128.561 59.7113L128.535 60.6208C129.418 60.6164 130.306 60.6164 131.194 60.612C131.208 60.9968 131.221 61.3772 131.234 61.762C130.337 61.7663 129.44 61.7663 128.543 61.7663L128.548 62.6933C129.528 62.6933 130.512 62.6933 131.496 62.7108C131.501 62.9513 131.514 63.4279 131.518 63.6683C130 63.7602 128.478 63.6771 126.96 63.7776C126.815 63.7252 126.531 63.6159 126.387 63.5634C126.435 61.9456 126.422 60.3235 126.4 58.7057Z" fill="#525253"/>
<path d="M132.41 58.6837C133.534 58.6837 134.654 58.6837 135.774 58.7187C136.089 59.873 136.457 61.0142 136.693 62.1904C137.13 61.0404 137.502 59.8643 137.861 58.6881C138.968 58.6881 140.079 58.6881 141.19 58.6881C141.186 60.3671 141.186 62.0461 141.19 63.7251C140.499 63.7207 139.808 63.7163 139.121 63.712C139.121 62.5839 139.112 61.4514 139.239 60.3277C139.257 60.2228 139.283 60.0042 139.3 59.8949C138.666 61.1235 138.198 62.4221 137.721 63.7163C137.017 63.7163 136.317 63.7163 135.612 63.7207C135.149 62.4527 134.742 61.1672 134.296 59.8992C134.226 61.2241 134.256 62.5489 134.23 63.8781C133.779 63.8213 132.878 63.7076 132.428 63.6464C132.397 61.9936 132.436 60.3365 132.41 58.6837Z" fill="#525253"/>
<path d="M142.424 58.6881C144.073 58.6881 145.722 58.6837 147.376 58.6925C147.372 58.9461 147.372 59.4576 147.372 59.7112C146.444 59.7112 145.521 59.7069 144.598 59.7025L144.563 60.6251C145.302 60.6163 146.055 60.6163 146.799 60.6032C146.93 60.7169 147.188 60.9443 147.315 61.0579C147.284 61.2328 147.218 61.5783 147.188 61.7532C146.313 61.7619 145.442 61.7663 144.567 61.7706L144.572 62.6932C145.508 62.6932 146.449 62.6932 147.385 62.6932C147.385 62.9468 147.389 63.4628 147.389 63.7164C145.735 63.7164 144.077 63.7164 142.424 63.7207C142.424 62.0417 142.424 60.3627 142.424 58.6881Z" fill="#525253"/>
<path d="M148.314 58.6926C149.395 58.6882 150.476 58.6882 151.556 58.697C152.134 59.86 152.733 61.01 153.345 62.1555C153.35 61.0012 153.337 59.8425 153.323 58.6882C153.792 58.6882 154.736 58.6926 155.209 58.6926C155.187 60.3672 155.191 62.0375 155.2 63.7121C154.159 63.7034 153.113 63.7777 152.081 63.6553C151.399 62.5316 150.887 61.316 150.336 60.1311C150.301 61.316 150.279 62.501 150.287 63.6902C149.627 63.7034 148.971 63.7165 148.314 63.7252C148.314 62.0462 148.319 60.3672 148.314 58.6926Z" fill="#525253"/>
<path d="M70.209 58.6925C72.0595 58.6838 73.91 58.6838 75.7604 58.6969C75.7429 59.0073 75.7079 59.6238 75.6948 59.9299C75.1217 59.9474 74.5487 59.9692 73.9756 59.9911C73.9887 61.2372 73.9887 62.4834 73.9931 63.7295C73.2669 63.7207 72.5407 63.7076 71.8189 63.6901C71.8232 62.4396 71.8232 61.1891 71.832 59.9386C71.4426 59.943 70.6596 59.9517 70.2659 59.9561C70.2527 59.6369 70.2221 59.0073 70.209 58.6925Z" fill="#525253"/>
<path d="M155.719 58.7012C157.604 58.6794 159.49 58.6837 161.375 58.6968C161.362 59.0117 161.336 59.6325 161.323 59.943C160.75 59.943 160.177 59.9473 159.603 59.9517C159.617 61.2066 159.617 62.4658 159.621 63.7207C158.895 63.7163 158.164 63.7163 157.438 63.7163C157.442 62.4615 157.442 61.2066 157.46 59.9473C156.891 59.9473 156.322 59.943 155.754 59.943C155.745 59.6325 155.727 59.0117 155.719 58.7012Z" fill="#525253"/>
</svg>
