<svg width="200" height="80" viewBox="0 0 200 80" fill="none" xmlns="http://www.w3.org/2000/svg">
<path d="M137.798 10.3682C142.281 9.67463 146.882 10.3038 151.182 11.6761C158.465 14.2175 164.645 19.6868 168.024 26.6324C171.141 33.0678 171.859 40.6079 169.939 47.5089C167.807 55.2075 162.438 61.9253 155.383 65.6606C148.634 69.2969 140.494 70.0301 133.152 67.89C123.315 64.8779 115.246 56.4807 113.064 46.3645L112.88 46.0673C112.064 41.6681 111.99 37.1004 113.039 32.7309C115.671 21.1235 125.958 11.7355 137.798 10.3682ZM119.53 24.7895C115.711 30.3728 114.399 37.3976 115.374 44.051C115.904 46.3843 116.492 48.7177 117.531 50.8826C121.702 59.904 131.217 66.3146 141.222 66.2155C147.224 66.4236 153.225 64.3379 157.931 60.6372C163.428 56.4163 167.02 49.9562 168.009 43.1196C168.554 38.3587 167.91 33.4839 166.055 29.0649C162.087 19.6868 152.414 12.979 142.192 12.9542C133.261 12.6124 124.424 17.3386 119.53 24.7895Z" fill="#525253"/>
<path d="M39.8464 38.1556C40.8062 35.3664 41.6523 32.5327 42.627 29.7485C43.5671 29.7386 44.5072 29.7287 45.4473 29.7238C47.0851 34.3162 48.4259 39.0126 50.1181 43.5853C51.3946 38.9334 53.0175 34.3806 54.4524 29.7733C55.6152 29.7634 56.7779 29.7634 57.9407 29.7733C57.5003 31.0762 57.05 32.3742 56.6542 33.6969L56.4909 33.9595C54.8136 38.8838 53.1759 43.8181 51.3847 48.7028C50.4447 48.683 49.5095 48.6781 48.5694 48.6632C47.7827 46.4239 47.0405 44.1649 46.2736 41.9207C46.1004 41.4203 45.9322 40.92 45.7788 40.4147L45.6156 40.1471C45.1455 38.5916 44.626 37.0558 44.1312 35.5052C43.2802 36.7734 43.0229 38.3092 42.4984 39.7211C41.4297 42.6886 40.4945 45.7056 39.4109 48.6731C38.4709 48.678 37.5357 48.683 36.6006 48.6929C35.0915 44.5513 33.711 40.3602 32.2613 36.1987C31.4795 34.0635 30.8215 31.8887 29.9902 29.7733C31.2569 29.7584 32.5235 29.7485 33.7852 29.8476C35.1063 34.4846 36.561 39.1018 38.2284 43.6249C38.5946 41.7572 39.2427 39.9589 39.8464 38.1556Z" fill="#525253"/>
<path d="M122.026 35.208C122.041 31.7699 125.381 28.5993 128.869 29.4167C133.421 30.031 135.341 36.5308 131.872 39.528C132.891 40.4395 133.535 41.6335 133.916 42.9364C133.901 43.6498 133.896 44.3582 133.901 45.0667C133.411 47.9697 130.888 50.4765 127.845 50.3229C124.668 50.5558 122.184 47.6675 121.912 44.6753C123.035 44.6555 124.163 44.6505 125.291 44.7545C125.623 46.1318 126.885 47.2415 128.364 46.865C130.986 46.543 131.407 42.3766 129.082 41.3313C128.137 41.1133 127.167 41.0142 126.227 40.7616C126.385 40.0184 126.415 39.2654 126.316 38.5174C126.405 38.3836 126.588 38.126 126.682 37.9972C128.419 38.2449 130.145 37.4522 130.492 35.6143C130.289 34.2172 129.448 32.627 127.815 32.7409C126.266 32.5626 125.762 34.2172 124.995 35.1882C124.005 35.2328 123.015 35.208 122.026 35.208Z" fill="#525253"/>
<path d="M136.966 31.3883C139.084 28.8072 143.409 28.6041 145.69 31.0762C146.6 31.9481 146.912 33.2114 147.179 34.4004C145.883 34.2319 144.047 35.0097 143.25 33.5978C142.439 32.3098 140.598 32.6466 139.544 33.4393C139.416 33.7019 139.163 34.2319 139.035 34.4945C139.005 35.3218 138.946 36.1492 138.941 36.9765C141.108 36.7189 143.725 36.055 145.541 37.6651C146.595 38.4181 146.872 39.7508 147.228 40.915C147.218 43.5704 147.698 46.8153 145.447 48.7672C142.914 51.3929 137.991 50.6052 136.378 47.3404C135.195 44.9179 135.72 42.1486 135.611 39.5576C135.685 36.8229 135.151 33.7019 136.966 31.3883ZM140.42 39.835C138.431 40.7614 138.975 43.3524 139.05 45.121C139.396 47.3355 143.028 47.5931 143.71 45.4876C144.106 44.145 144.007 42.6786 143.804 41.3113C143.379 39.8598 141.746 39.3743 140.42 39.835Z" fill="#525253"/>
<path d="M153.47 29.481C155.038 29.2184 156.632 29.3324 158.111 29.9368C159.155 30.7245 160.219 31.6211 160.639 32.9092C161.362 35.2079 161.02 37.6404 161.094 40.0084C161.015 42.3269 161.386 44.7445 160.545 46.9689C159.956 48.4799 158.561 49.436 157.171 50.1444C155.588 50.3476 153.831 50.5309 152.426 49.6044C150.427 48.5245 149.348 46.2406 149.452 44.0063C149.497 40.8258 149.383 37.6453 149.507 34.4697C149.719 32.1512 151.421 30.3727 153.47 29.481ZM152.832 35.0741C152.733 38.0268 152.802 40.9794 152.792 43.932C152.743 44.8634 153.128 45.7155 153.48 46.5527C155.004 47.1225 157.295 47.1175 157.656 45.1161C157.839 41.5689 157.695 38.007 157.72 34.4549C157.181 33.692 156.636 32.6764 155.548 32.7556C154.128 32.4832 152.807 33.6523 152.832 35.0741Z" fill="#525253"/>
<path d="M84.536 30.4371C85.6394 30.4371 86.7477 30.4371 87.8511 30.447C87.8511 31.7401 87.8511 33.038 87.8561 34.336C89.1029 34.331 90.3547 34.331 91.6016 34.3261C91.5966 35.2872 91.5867 36.2532 91.5768 37.2143C90.3349 37.2094 89.093 37.2094 87.8511 37.2094C87.9451 39.835 87.6482 42.4904 88.0144 45.1012C88.7566 46.2555 90.4834 45.9087 91.4729 45.2548C91.5373 46.2208 91.562 47.1918 91.5768 48.1678C89.9193 48.7623 88.0045 49.1041 86.347 48.3164C85.4168 47.9597 85.0902 46.9144 84.6004 46.1366C84.4816 43.1642 84.5509 40.1917 84.541 37.2193C83.9275 37.2094 83.309 37.1994 82.6954 37.1945C82.6954 36.2483 82.6905 35.302 82.6855 34.3608C83.2991 34.3409 83.9176 34.331 84.536 34.3162C84.536 33.0232 84.536 31.7301 84.536 30.4371Z" fill="#525253"/>
<path d="M97.0505 34.4004C99.8856 33.3303 103.478 34.4698 104.923 37.1995C105.947 38.8145 106.031 40.7713 105.952 42.6291C102.493 42.6341 99.0346 42.5895 95.581 42.6539C95.9174 43.7686 96.3429 44.9922 97.4463 45.5619C99.3364 46.7757 101.855 46.1217 103.295 44.5216C104.067 44.9674 104.735 45.557 105.432 46.1019C102.78 49.7234 96.6695 49.7779 93.9185 46.2555C92.0136 43.9568 91.9443 40.6326 93.0229 37.9475C93.9432 36.3771 95.2346 34.9057 97.0505 34.4004ZM96.8427 37.7543C96.056 38.4082 95.8383 39.4337 95.576 40.3701C98.0153 40.3998 100.46 40.4493 102.894 40.3304C102.562 39.4932 102.3 38.6064 101.756 37.8782C100.568 36.4316 98.0796 36.3127 96.8427 37.7543Z" fill="#525253"/>
<path d="M57.8164 35.1336C60.9187 34.1725 64.778 33.3551 67.6082 35.4209C69.904 37.2737 69.2954 40.4394 69.3795 43.0205C69.5329 44.8733 69.4686 46.7212 69.3103 48.574C68.2712 48.5641 67.2371 48.5641 66.1981 48.5641C66.1882 48.143 66.1634 47.3008 66.1486 46.8797C65.441 47.6426 64.5603 48.2074 63.6202 48.6384C61.5916 48.9406 59.2018 48.9654 57.7026 47.3305C56.53 46.2357 56.5448 44.4869 56.7823 43.0205C57.1385 41.2717 58.8406 40.1917 60.4981 39.8796C62.4426 39.5774 64.4366 39.7557 66.3267 40.266C66.1684 39.1167 65.7528 37.8732 64.6197 37.3481C62.601 36.8725 60.513 37.2341 58.5833 37.898C58.2963 36.9815 58.143 36.0352 57.8164 35.1336ZM60.4091 42.852C59.4937 43.6001 59.8599 44.8139 60.3299 45.7006C61.4927 46.3992 62.8484 46.3843 64.1497 46.2109C65.5697 45.4876 66.5543 44.1005 66.2475 42.4607C64.3476 42.2328 62.0864 41.5739 60.4091 42.852Z" fill="#525253"/>
<path d="M73.6437 34.7373C76.177 33.6028 79.21 34.2072 81.5603 35.5498C81.5009 36.4712 80.828 37.2242 80.4173 38.0218C78.8489 37.2688 77.1122 36.3325 75.326 36.8824C74.47 37.0409 74.4205 38.0417 74.5838 38.7105C76.4541 40.271 79.2298 40.1125 81.0259 41.8216C82.8071 43.61 82.0946 47.0581 79.8384 48.1183C76.8351 49.5203 73.1786 48.6285 70.6602 46.6172C71.1648 45.9434 71.6349 45.2399 72.0752 44.5265C73.9455 45.4133 76.1226 46.8946 78.2254 45.8493C79.3436 45.5917 79.2546 43.9766 78.27 43.5655C76.2116 42.4458 73.4161 42.5301 71.9318 40.4642C70.9174 38.5272 71.5161 35.6786 73.6437 34.7373Z" fill="#525253"/>
</svg>
