<svg width="200" height="80" viewBox="0 0 200 80" fill="none" xmlns="http://www.w3.org/2000/svg">
<path d="M53.226 17H53.3053C54.5327 18.7954 55.6807 20.6707 56.3293 22.7669C57.4353 22.8468 58.4993 23.1617 59.4187 23.7962C60.9633 22.1324 63.0027 21.0937 65.0653 20.243C65.2287 22.4426 65.3313 24.6798 64.7807 26.8371C65.8167 27.5656 66.9227 28.4069 66.8387 29.8357C66.9087 29.6242 67.0487 29.2059 67.1187 28.9944C69.242 28.7923 71.384 28.8158 73.512 28.9568C72.658 30.9872 71.4727 32.839 70.124 34.5686C70.2593 35.33 70.4553 36.082 70.614 36.8434C72.3827 38.1406 74.534 39.0759 76.1207 40.5094C75.584 41.3836 74.4313 41.7502 73.6193 42.3706C73.288 44.0908 72.9193 45.8016 72.518 47.5077C73.2273 48.1328 73.9367 48.7579 74.632 49.4018C74.0067 50.8212 73.288 52.1983 72.5273 53.5566C71.552 53.3451 70.586 53.1148 69.62 52.8798C68.6213 54.1676 67.5153 55.3614 66.3253 56.4706C66.6193 57.4012 66.9133 58.3365 67.1933 59.2718C65.8773 60.0473 64.678 61.1518 63.18 61.5419C62.4427 61.0108 61.836 60.3199 61.1967 59.676C59.526 60.2541 57.818 60.7006 56.096 61.0813C55.872 62.0589 55.634 63.0318 55.3773 64H50.8367C50.5053 63.0412 50.2767 62.0542 50.0573 61.0672C48.396 60.6865 46.7347 60.2588 45.148 59.6196C44.4433 60.287 43.7993 61.0249 42.9967 61.5748C41.564 61.0531 40.3553 60.0802 39.0673 59.2906C39.338 58.3318 39.618 57.3824 39.9307 56.4377C38.7733 55.3191 37.6907 54.1206 36.6827 52.861C35.6933 53.1007 34.704 53.3404 33.71 53.5472C32.9633 52.1983 32.268 50.8212 31.6053 49.43C32.352 48.7391 33.1033 48.0529 33.8453 47.3526C33.3273 45.8157 33.1033 44.2036 32.7907 42.6197C31.9973 41.7831 30.9007 41.3084 30 40.5987V40.4812C31.904 39.278 33.752 37.6471 36.0853 37.4685C37.9287 37.3134 39.3567 39.2263 38.9273 40.9794C38.512 43.2025 39.4733 45.3974 40.514 47.3103C43.3513 52.4051 49.4087 55.4883 55.1627 54.553C61.1967 53.8151 66.372 48.819 67.464 42.8124C67.702 41.3742 66.8713 39.56 68.0893 38.4273C68.7427 37.7035 69.8067 36.9327 69.326 35.8047C68.9293 34.9258 67.7813 35.3347 67.0487 35.0527C65.1027 34.0469 64.3093 30.9684 66.2833 29.549C65.644 28.9239 65.0327 28.2659 64.3747 27.6643C63.334 28.3599 62.004 29.0555 60.7953 28.2941C59.2507 27.6831 58.4247 25.9488 59.1107 24.3837C58.1773 24.1722 57.2487 23.9372 56.3153 23.7022C55.8533 24.6093 55.4147 25.7608 54.2713 25.9441C52.47 26.5833 50.5987 25.4929 50.1227 23.6693C49.2267 23.9043 48.3307 24.1393 47.43 24.3555C47.4393 25.3801 47.7287 26.6021 46.8233 27.3541C45.6007 28.8628 43.258 29.0743 41.9653 27.5092C41.354 28.2471 40.7193 28.9709 40.0753 29.6759C38.722 28.515 40.822 27.669 41.522 26.8465C41.172 24.6563 41.2233 22.4332 41.3773 20.2289C43.3327 21.0843 45.2227 22.123 46.828 23.5518C47.9247 23.2228 49.0307 22.9173 50.1647 22.7152C50.7853 20.619 51.8913 18.7108 53.226 17Z" fill="#525253"/>
<path d="M108.615 49.1574C108.61 41.2191 108.596 33.2761 108.624 25.3331C109.544 25.3378 110.468 25.3378 111.387 25.3378C111.406 28.656 111.387 31.9695 111.401 35.283C114.028 31.6358 120.282 31.5982 122.764 35.4146C124.286 37.4685 124.318 40.1475 124.085 42.5868C123.637 46.0084 120.879 49.1903 117.365 49.5193C115.083 49.8859 112.936 48.6968 111.42 47.0753C111.406 47.7662 111.392 48.4618 111.382 49.1574C110.458 49.1574 109.539 49.1574 108.615 49.1574ZM114.196 35.1655C111.91 36.5379 111.27 39.4707 111.438 41.9664C111.55 44.0109 112.456 46.2669 114.458 47.0894C115.951 47.6346 117.808 47.644 119.092 46.5959C120.599 45.1624 121.117 42.9816 121.122 40.9606C121.145 39.1699 120.781 37.2288 119.512 35.8893C118.182 34.4605 115.867 34.2349 114.196 35.1655Z" fill="#525253"/>
<path d="M167.274 25.3331C168.18 25.3378 169.09 25.3378 170 25.3378V49.1527C169.085 49.1574 168.175 49.1574 167.265 49.1621C167.265 48.725 167.27 47.8461 167.27 47.409L166.962 47.2304C167.069 47.08 167.284 46.7839 167.396 46.6335C166.229 47.6769 165.076 48.8848 163.513 49.2749C160.89 50.1162 157.838 49.1245 156.205 46.892C153.349 43.0521 153.797 36.7729 157.796 33.8918C160.554 31.8661 164.801 32.1387 167.139 34.7096C167.218 31.5841 167.279 28.4586 167.274 25.3331ZM159.976 35.1984C158.38 36.2183 157.572 38.1547 157.563 40.0159C157.428 42.1638 157.731 44.5091 159.243 46.1541C160.942 48.1093 164.372 47.785 165.809 45.6653C167.526 43.2072 167.708 39.7104 166.378 37.0408C165.226 34.7566 162.16 33.9247 159.976 35.1984Z" fill="#525253"/>
<path d="M32.8516 28.9615C35.4602 29.0132 38.6942 28.0544 40.7056 30.2493C41.9376 31.6687 40.9622 33.826 39.6136 34.7613C38.8436 35.3488 37.8309 35.0057 36.9536 35.001C36.6409 35.8423 37.1356 37.5202 35.6142 37.3181C35.6982 36.3358 35.9129 35.3676 36.3469 34.484C34.7416 32.9612 33.8036 30.9261 32.8516 28.9615Z" fill="#525253"/>
<path d="M49.3667 30.0472C51.868 29.2106 54.6867 29.2059 57.1553 30.1506C58.3173 30.6347 59.7267 31.6076 59.5353 33.0458C58.882 34.5874 57.2347 35.3159 55.704 35.6308C53.1233 36.1854 50.244 35.988 47.962 34.5639C47.1313 34.014 46.2913 32.792 46.9867 31.8285C47.514 30.9449 48.438 30.4091 49.3667 30.0472Z" fill="#525253"/>
<path d="M42.2871 39.7198C42.2918 37.0878 43.6824 34.7848 45.1384 32.7074C45.4324 33.6286 45.5118 34.7237 46.3424 35.3441C47.9291 36.8716 50.2298 36.9844 52.0731 38.0372C52.7638 40.077 52.4278 42.2484 52.4931 44.354C51.8164 44.354 51.1398 44.354 50.4631 44.354C47.3878 43.5785 44.4991 42.0228 42.2871 39.7198Z" fill="#525253"/>
<path d="M92.3429 33.5158C92.6183 32.557 93.7336 32.9659 94.4569 32.8719C95.9829 36.9891 97.6116 41.064 99.1096 45.1859C100.519 41.0264 101.83 36.834 103.202 32.6604C103.991 32.7497 104.78 32.8484 105.568 32.9471C104.047 38.4461 101.709 43.696 99.9589 49.1292C99.3103 49.1433 98.6569 49.1574 98.0083 49.1668C96.4869 45.0308 94.7743 40.9653 93.3836 36.7823C91.6476 40.8713 90.1076 45.0402 88.4883 49.1809C87.8209 49.1621 87.1583 49.1386 86.4909 49.1151C84.7829 43.7994 82.8323 38.5636 81.0449 33.2714C81.9363 33.0458 82.8229 32.8202 83.7189 32.6228C85.0909 36.8246 86.4956 41.0123 87.8629 45.2141C89.3656 41.3178 90.8076 37.398 92.3429 33.5158Z" fill="#525253"/>
<path d="M61.1267 32.7497C62.578 34.7566 63.9734 37.0079 63.9827 39.5788C61.9294 42.1027 58.8447 43.5409 55.774 44.3681C54.9854 44.3117 53.5014 44.7394 53.7347 43.3905C53.8934 41.4776 53.058 38.7469 55.046 37.5672C57.5334 36.8293 60.912 35.8987 61.1267 32.7497Z" fill="#525253"/>
<path d="M128.686 35.0762C131.365 32.1293 136.185 31.8191 139.48 33.8542C139.116 34.4182 138.757 34.9775 138.393 35.5415C136.549 34.4699 134.146 34.2302 132.27 35.3394C128.471 37.8116 128.63 44.3869 132.415 46.7886C134.515 48.0012 137.044 47.3667 139.051 46.2857C139.34 46.8309 139.569 47.4043 139.821 47.973C136.913 49.759 132.97 50.2713 130.044 48.2597C125.769 45.4867 125.191 38.6999 128.686 35.0762Z" fill="#525253"/>
<path d="M143.974 33.6709C146.214 31.9319 149.481 32.4066 151.716 33.9247C151.273 34.5028 150.834 35.0809 150.396 35.6637C150.326 35.5321 150.181 35.2736 150.111 35.142C148.688 34.4699 146.947 34.1879 145.58 35.1467C145.421 35.5415 145.262 35.941 145.099 36.3358C146.49 39.3861 150.536 40.1475 151.721 43.3529C152.645 45.764 151.021 48.5934 148.599 49.2326C146.093 50.0598 143.144 49.2608 141.352 47.3338C141.842 46.8356 142.327 46.3374 142.817 45.8345C144.054 46.939 145.72 47.8696 147.414 47.2727C148.907 46.9108 149.276 45.0026 148.599 43.7947C146.928 41.7126 144.128 40.7961 142.775 38.4226C141.86 36.8105 142.537 34.719 143.974 33.6709Z" fill="#525253"/>
<path d="M42.2676 41.4353C44.4702 43.7054 47.3962 45.1389 50.4949 45.67C51.5169 45.7499 52.0722 46.6335 52.5202 47.4466C52.3102 48.7579 52.8889 50.3183 52.1656 51.4604C47.0556 51.0421 42.6082 46.61 42.2676 41.4353Z" fill="#525253"/>
<path d="M54.6208 45.999C58.0974 45.3175 61.5461 44.0485 64.0614 41.4306C63.6228 46.6993 59.1334 51.0938 53.9161 51.5215C53.6641 49.665 53.3561 47.5735 54.6208 45.999Z" fill="#525253"/>
</svg>
