<svg width="136" height="80" viewBox="0 0 136 80" fill="none" xmlns="http://www.w3.org/2000/svg">
<path d="M64.8058 0H68.0728C70.3748 1.476 71.237 4.212 71.7907 6.756C70.3154 7.592 68.6898 8.168 67.3372 9.212C66.4907 9.82 65.759 10.62 64.794 11.04C64.0543 11.112 63.3226 10.92 62.5949 10.84C58.9956 14.688 58.4735 20.408 59.1736 25.424C59.9646 28.096 61.3648 30.892 63.9119 32.236C64.9443 32.844 66.0992 33.188 67.1354 33.788C68.4249 34.636 69.0735 36.14 70.268 37.1C71.3596 37.216 72.4394 36.836 73.531 36.952C74.7413 37.228 75.8567 37.876 77.1066 37.996C78.2022 37.376 78.9418 36.22 80.1481 35.78C81.8054 35.492 83.5813 35.648 85.1119 34.808C87.3466 33.6 89.6525 32.168 90.9024 29.844C92.611 27.064 92.7257 23.72 93.2043 20.58C94.0626 23.492 94.7706 26.524 94.5887 29.58C93.853 36.596 93.2557 43.84 90.1272 50.268C88.7468 52.736 87.1093 55.368 84.3842 56.464C82.545 57.292 80.16 57.668 78.4672 56.316C77.0987 54.488 77.6524 52.02 77.8976 49.924C78.0756 47.16 78.3129 44.244 77.1145 41.664C76.0822 42.244 74.9035 42.916 74.591 44.168C73.8751 46.86 73.796 49.74 74.3775 52.468C74.6939 54.18 75.7895 55.596 76.3274 57.232C76.0228 58.924 74.2588 59.668 72.7598 59.924C70.0267 60.304 67.1038 59.752 64.8375 58.112C62.1479 56.404 60.4986 53.544 59.0035 50.8C57.7497 48.54 57.0022 46.044 55.8433 43.74C55.4557 46.04 56.749 47.992 57.3542 50.096C57.8644 51.392 56.306 52.052 55.3014 52.26C53.0034 52.56 50.306 52.804 48.447 51.112C45.2868 48.548 44.0132 44.44 43.4476 40.532C43.056 38.528 43.2815 36.48 43.1114 34.456C42.9097 32.672 42.443 30.936 42 29.2V21.944C42.6684 19.612 43.4437 17.264 44.7884 15.228C47.209 11.736 50.745 8.9 54.9019 7.904C53.4029 9.176 51.6784 10.184 50.3969 11.7C46.3468 16.26 44.8359 23 46.7028 28.852C48.0238 32.516 50.1794 36.016 53.5018 38.136C52.244 34.476 52.7859 30.584 52.6672 26.8C52.5842 24.288 52.7384 21.732 53.6204 19.36C54.9573 15.228 58.0028 11.92 61.4043 9.388C60.7675 8.212 59.929 7.024 59.8737 5.644C60.2336 2.936 62.6304 1.244 64.8058 0Z" fill="#525253"/>
<path d="M85.0285 4.72803C85.9422 3.36403 87.6706 2.49203 89.2922 2.91203C91.8789 3.50803 93.5401 5.84003 94.9996 7.89603V10.236C93.9317 11.868 92.5434 13.34 90.8269 14.268C89.6205 14.84 88.6752 13.512 87.8881 12.788C86.7372 11.308 84.8663 10.728 83.573 9.42003C83.217 7.71603 84.1307 6.09603 85.0285 4.72803Z" fill="#525253"/>
<path d="M68.2424 19.3159C71.0823 18.9399 73.3249 23.0599 71.3315 25.2639C69.872 26.9639 68.4956 29.7359 65.8297 29.1879C64.4771 28.6599 63.4408 27.1919 63.6148 25.6679C63.8442 22.9679 65.6043 20.1279 68.2424 19.3159Z" fill="#525253"/>
<path d="M81.3113 21.308C82.5335 20.932 84.0088 21.256 84.8078 22.308C86.0497 24.068 86.5125 26.272 86.3187 28.408C86.4215 29.916 84.9383 30.892 83.7636 31.5C82.0431 32.204 80.7853 30.428 80.0971 29.084C79.4405 27.508 78.4952 25.876 78.8077 24.1C79.306 22.948 80.0694 21.736 81.3113 21.308Z" fill="#525253"/>
<path d="M70.6051 32.472C73.0376 32.208 75.5808 32.276 77.8273 33.384C77.5386 33.9 77.4397 34.696 76.7001 34.684C75.561 34.868 74.497 35.328 73.5755 36.028C72.555 34.916 71.2459 34.204 69.8457 33.708C70.0791 33.284 70.3164 32.86 70.6051 32.472Z" fill="#525253"/>
<path d="M43.1037 64.796C44.4604 64.796 45.8131 64.796 47.1697 64.8C48.2376 66.864 48.5343 69.2 49.2501 71.392C49.7406 70.652 50.3339 69.956 50.6384 69.112C50.7887 67.856 50.6187 66.58 50.7729 65.324C51.1566 64.608 52.0188 64.828 52.6793 64.764C53.5455 64.808 54.6807 64.564 55.1513 65.52C56.0334 67.344 56.3814 69.376 56.7888 71.348C57.9635 69.152 58.7427 66.768 59.953 64.592C60.6056 64.916 61.2384 65.272 61.8673 65.64C59.9728 70.248 58.537 75.04 56.5199 79.6C56.0373 79.604 55.5548 79.608 55.0762 79.612C53.7987 77.168 52.8217 74.564 52.1493 71.884C51.0735 74.492 50.0056 77.116 48.6885 79.612C48.2139 79.608 47.7353 79.604 47.2607 79.6C45.9159 76.64 44.9587 73.532 43.9066 70.464C43.2817 68.676 42.0516 66.664 43.1037 64.796Z" fill="#525253"/>
<path d="M63.029 64.8561C64.3342 64.8681 65.6434 64.8681 66.9486 64.8601C67.9216 66.9441 68.3606 69.2201 69.0884 71.3921C69.5235 70.7481 69.9704 70.1081 70.3422 69.4201C71.0067 68.0201 69.8834 66.0321 71.0225 64.9081C72.3435 64.9561 74.3291 64.2521 75.037 65.7841C75.8044 67.6041 76.1208 69.5721 76.6587 71.4681C77.5288 69.6241 78.221 67.7041 79.0595 65.8521C79.2414 65.2361 79.8624 65.0241 80.3806 64.7841C80.8314 65.1681 81.7886 65.5361 81.3654 66.2721C79.7477 70.7361 78.0944 75.1921 76.2829 79.5841C75.8044 79.5961 75.3258 79.6081 74.8511 79.6201C73.5815 77.1721 72.6876 74.5361 71.9124 71.8921C70.8524 74.5041 69.7766 77.1161 68.4635 79.6121C67.9888 79.6081 67.5103 79.6041 67.0317 79.6001C65.2518 75.1721 63.7686 70.6321 62.2656 66.1081C62.5188 65.6921 62.7719 65.2721 63.029 64.8561Z" fill="#525253"/>
<path d="M82.3867 65.1599C84.4513 64.7119 86.5753 64.9079 88.6716 64.8679C90.2022 64.8999 91.7448 64.7639 93.2715 64.9439C94.2405 65.3559 94.106 66.2919 93.8608 67.1399C91.5787 67.1159 89.2965 67.0959 87.0183 67.1359C87.0025 68.2519 86.9985 69.3639 87.0025 70.4799C88.5846 70.4959 90.1666 70.4159 91.7487 70.4839C92.1205 71.0439 92.1996 71.7279 92.3816 72.3639C90.6334 72.8759 88.8021 72.7399 87.0064 72.7799C86.9629 74.8719 87.1053 76.9719 86.9669 79.0639C86.5002 79.8519 85.4678 79.5399 84.7163 79.6359C83.9649 79.5319 82.9088 79.8759 82.4658 79.0559C82.3274 74.4279 82.5093 69.7919 82.3867 65.1599Z" fill="#525253"/>
</svg>
